<svg width="67" height="64" viewBox="0 0 67 64" fill="none" xmlns="http://www.w3.org/2000/svg">
<path d="M17.5989 37.2354C15.7431 35.303 14.2318 33.0439 13.1744 30.5513C9.68898 22.3621 11.5013 12.8275 17.9629 6.46124C26.6922 -2.14635 40.848 -2.15966 49.5728 6.4568C57.3209 14.1049 58.2766 26.3303 51.8225 35.0428C51.2967 35.751 50.7321 36.4252 50.124 37.0668C51.9708 36.7904 53.9374 37.5695 54.6294 39.3806C55.236 39.2209 55.9115 39.045 56.6754 38.8395C58.8158 38.2659 61.4474 39.1958 61.8893 41.551L62.3521 41.4298C67.0013 40.1849 68.7118 45.8385 64.9208 47.3436L44.964 55.2563C39.5119 57.4149 36.1194 56.8486 30.4816 55.6289C26.2608 54.7152 22.5118 53.9065 19.7693 56.5174L20.2695 57.1088C20.8477 57.7874 20.7623 58.7943 20.0748 59.3635L15.0137 63.5712C14.6273 63.8107 13.6252 64.4849 12.6876 63.4071L0.383063 48.9817C-0.195093 48.3031 -0.109718 47.2963 0.577778 46.7271L5.68083 42.4854C6.36833 41.9147 7.38834 42.0034 7.96499 42.6776L8.95805 43.8426C9.82827 43.1758 10.712 42.4425 11.6122 41.6929C13.778 39.8877 15.7312 38.3664 17.5989 37.2354ZM31.5556 21.4898C32.3075 21.2636 32.6505 22.3902 31.903 22.6178C29.3088 23.4014 26.3956 24.9937 24.2223 26.6038C32.2251 31.3304 40.5934 24.0889 43.6474 16.8888C35.33 15.0526 27.2973 16.4985 24.1459 25.1992C26.3162 23.6942 29.0287 22.2527 31.5556 21.4898ZM44.5596 15.8864C44.9295 15.95 45.1542 16.33 45.0224 16.6789C41.6898 25.2539 31.7503 33.3677 22.7619 27.068C22.5537 26.9335 22.4429 26.6777 22.5118 26.4264C25.4025 15.6987 34.6081 13.5031 44.5596 15.8864ZM50.0206 29.0255C50.7036 28.6396 51.2937 29.6671 50.6107 30.0486L47.1673 31.9765C46.7554 32.2027 46.2581 31.8922 46.2761 31.4398L46.2416 27.5589C46.2371 26.7841 47.4309 26.7753 47.4354 27.55L47.4519 29.4823C47.9521 28.5849 48.364 27.6343 48.6786 26.6407C49.1324 25.1948 49.3795 23.6528 49.3795 22.056C49.3795 15.1501 44.7258 9.07663 37.9887 7.21673C37.2323 7.01123 37.5513 5.87577 38.3077 6.08127C45.5601 8.08015 50.5823 14.6268 50.5823 22.0575C50.5823 24.7734 49.9113 27.4214 48.6381 29.7987L50.0206 29.0255ZM19.5401 32.4585C19.5311 33.2332 18.3389 33.2258 18.3463 32.4496L18.3763 28.5391C18.3808 28.0867 18.8811 27.8146 19.2675 28.032L22.7155 29.9554C23.3985 30.3413 22.8083 31.3629 22.1253 30.9815L20.4223 30.0308C20.8896 30.7937 21.4199 31.5108 22.01 32.1761C22.9731 33.2657 24.0949 34.2208 25.3351 35.0132C27.4021 35.1522 29.6024 35.8974 32.1023 37.3684C34.7264 37.6449 37.4045 37.2679 39.8385 36.2537C41.7706 35.4494 43.5066 34.2666 44.955 32.8044C45.5032 32.247 46.3555 33.0691 45.8088 33.6264C44.2555 35.2025 42.3862 36.4725 40.3013 37.3389C38.3182 38.1638 36.2078 38.5956 34.0764 38.634C35.8168 39.8242 37.6891 41.0808 40.1815 41.9487H40.1905C44.5086 40.587 48.2322 37.8874 50.8594 34.342C56.9645 26.0981 56.0568 14.5277 48.728 7.29361C40.4616 -0.866006 27.0696 -0.857136 18.8032 7.29361C12.6846 13.3242 10.9786 22.3428 14.2768 30.0915C15.3208 32.5427 16.8156 34.756 18.6669 36.6248C20.2381 35.7909 21.7703 35.2498 23.3505 35.0576C22.5402 34.4248 21.7928 33.7166 21.1083 32.9493C20.5346 32.3003 20.0179 31.6084 19.5506 30.8795L19.5401 32.4585ZM31.7682 4.68117C31.0927 4.29086 31.6964 3.27664 32.3749 3.66695L35.7839 5.64956C36.1823 5.8802 36.1703 6.44941 35.7749 6.66822L32.3734 8.6464C31.6934 9.03967 31.0912 8.02249 31.7667 7.63218L33.4443 6.6564C29.2669 6.7451 25.4924 8.44977 22.7409 11.1657C18.7627 15.0925 17.238 20.8422 18.7328 26.178C18.9455 26.9246 17.7907 27.238 17.5825 26.4884C15.9738 20.7476 17.6079 14.5617 21.8962 10.3289C24.7959 7.46659 28.7531 5.64365 33.1432 5.48398L31.7682 4.68117ZM48.4614 38.6606C46.5247 40.3327 44.296 41.6781 41.8635 42.6125L41.88 42.6244C45.9136 41.5436 47.6166 41.1326 49.3106 40.726C50.4235 40.4584 51.5319 40.1893 53.4671 39.6867C52.8814 38.3871 51.3447 37.9849 50.0281 38.291C49.5069 38.4093 48.9841 38.5394 48.4614 38.6606ZM18.9964 55.6126C22.1807 52.6247 26.2054 53.4969 30.7318 54.4727C36.1538 55.6466 39.4146 56.1863 44.5596 54.146L64.476 46.2466C66.8785 45.2959 65.869 41.7121 62.6666 42.5711C58.7259 43.6223 55.3304 44.4902 51.9123 45.3625C48.6216 46.2007 45.3145 47.0479 40.9873 48.2041C38.2058 49.4445 34.3385 48.5648 31.6724 47.487L27.0831 45.2235C26.3776 44.876 26.9093 43.8189 27.6133 44.1679L32.1951 46.4225C35.8168 47.8478 38.5758 47.8729 40.2788 47.2194C42.2664 46.4565 42.6484 44.814 41.0127 43.4479C37.6412 42.5135 35.357 40.9507 33.2346 39.4959C24.5563 33.557 19.9999 36.2433 12.3791 42.5977C11.4879 43.3444 10.6086 44.0777 9.72942 44.7519L18.9964 55.6126ZM8.95954 45.6715L3.20195 50.4572L5.27792 52.8967L11.0355 48.1109L8.95954 45.6715ZM2.43357 49.5569L8.19116 44.7755L7.05283 43.439C6.90454 43.2675 6.62445 43.2424 6.44921 43.3887L1.34616 47.6304C1.16792 47.7768 1.14695 48.0533 1.29523 48.2262L2.43357 49.5569ZM6.0463 53.7985L13.5653 62.6116C13.8289 62.8719 13.9727 62.8541 14.2483 62.6664L19.3049 58.4631C19.4787 58.3167 19.5041 58.0403 19.3559 57.8643L11.8024 49.0128L6.0463 53.7985ZM42.9554 46.455C46.0544 45.6375 48.8403 44.9293 51.6173 44.2211C54.4541 43.4966 57.2775 42.7752 60.7285 41.8615C60.5083 40.1391 58.4608 39.5861 56.9884 39.9794C52.9758 41.0572 51.2907 41.4623 49.5922 41.8689C48.051 42.2414 46.4977 42.6155 42.7442 43.6164C43.2954 44.4946 43.4182 45.5162 42.9554 46.455Z" fill="#2F7630"/>
</svg>
