<svg width="76" height="68" viewBox="0 0 76 68" fill="none" xmlns="http://www.w3.org/2000/svg">
<path d="M25.4887 0C18.5918 0 12.3277 1.35897 7.73018 3.63284C3.26461 5.8398 0.233355 8.99815 0.0659991 12.7332C0.0659991 12.7673 0.0329996 12.7673 0.0329996 12.8013V12.8354C-1.44886e-07 12.9035 0 13.0057 0 13.1067V23.6001C0 23.6682 0 23.7023 0 23.7704V34.9427C0 34.9767 0 35.0449 0 35.0777V45.3667C0 49.2392 3.09844 52.4973 7.69718 54.8077C12.3289 57.0828 18.593 58.4405 25.4899 58.4405C28.0898 58.4405 30.5884 58.2361 32.9537 57.8626C37.2861 63.4993 43.9827 67.0992 51.4807 67.0992C64.5757 67.0992 75.2052 56.0973 75.2052 42.5831C75.2052 29.0335 64.5757 18.0316 51.4807 18.0316H50.915V13.1067C50.948 13.0057 50.915 12.9035 50.915 12.8354C50.915 12.8013 50.915 12.8013 50.915 12.7673C50.882 12.7673 50.882 12.7332 50.882 12.6991C50.6828 8.99693 47.6504 5.83858 43.219 3.63162C38.5837 1.35897 32.3857 0 25.4887 0ZM25.4887 1.93565C32.1205 1.93565 38.1182 3.29462 42.3834 5.4006C46.5484 7.47129 48.9468 10.1892 49.047 12.9388C49.047 12.9716 49.047 13.0069 49.047 13.0398C49.047 13.0738 49.047 13.0738 49.047 13.1079C49.047 15.0776 47.8472 17.0814 45.615 18.8127C45.615 18.8467 45.582 18.8127 45.582 18.8127C42.7158 19.5937 40.084 20.8834 37.7517 22.5818C34.1523 23.6341 29.9873 24.2802 25.4887 24.2802C18.8252 24.2802 12.7945 22.9553 8.52807 20.8152C4.52921 18.8467 2.16502 16.265 1.89748 13.6505V13.1067C1.89748 13.0057 1.86448 12.9376 1.86448 12.8694C1.99766 10.1539 4.36421 7.47007 8.52807 5.39938C12.7933 3.29462 18.824 1.93565 25.4887 1.93565ZM49.047 18.0644V18.1666H48.9468C48.9798 18.1326 49.014 18.0997 49.047 18.0644ZM1.89748 18.0997C3.23043 19.831 5.26227 21.3603 7.729 22.5818C12.3266 24.8568 18.5918 26.2158 25.4876 26.2158C28.6874 26.2158 31.7516 25.9433 34.5849 25.3666C32.0863 28.0152 30.1535 31.2076 29.0197 34.7723C27.8541 34.8745 26.6543 34.9427 25.4557 34.9427C18.791 34.9427 12.7933 33.6178 8.52807 31.4789C4.26403 29.3742 1.89748 26.5881 1.89748 23.7704C1.89748 23.7363 1.89748 23.7023 1.89748 23.6682V18.0997ZM51.4784 19.9672C63.5751 19.9672 73.3371 30.0859 73.3371 42.5831C73.3371 55.079 63.5751 65.1977 51.4784 65.1977C39.417 65.1977 29.6526 55.079 29.6526 42.5831C29.6538 30.0859 39.417 19.9672 51.4784 19.9672ZM51.6787 23.1925C51.2462 23.2947 50.9127 23.7023 50.9127 24.1427V28.8291C50.6463 28.8632 50.347 28.8973 50.0464 28.9313C48.2809 29.2708 46.6486 29.9168 45.4147 30.867C44.1489 31.7843 43.2497 33.0739 43.1825 34.5692C43.0493 36.8771 43.9155 38.6096 45.2485 39.7301C46.6144 40.8506 48.3139 41.4285 50.1124 41.9711C50.38 42.0392 50.6463 42.1414 50.9127 42.2083V53.9926C48.9798 53.72 47.0482 53.1434 45.648 52.4645C44.915 52.0898 44.3151 51.6822 43.9485 51.344C43.549 51.0045 43.3828 50.6992 43.3828 50.597C43.3498 50.0872 42.8171 49.6468 42.2832 49.7137C41.7835 49.8147 41.417 50.3926 41.5172 50.9023C41.6503 51.6834 42.1171 52.2601 42.7169 52.7698C43.2827 53.3125 44.0169 53.7882 44.8501 54.1957C46.5496 55.0109 48.6828 55.6228 50.915 55.8941V59.0525C50.915 59.5623 51.3817 60.0039 51.8814 60.0039C52.3811 60.0039 52.8137 59.5623 52.8137 59.0525V56.0645C54.38 56.0985 55.9463 55.8941 57.3464 55.4197C59.2793 54.7408 60.9446 53.349 61.5115 51.1408C62.0772 48.9338 61.4785 46.9301 60.578 45.3679C60.578 45.3351 60.578 45.3351 60.578 45.3351C58.8126 42.5843 55.7459 41.5647 52.8137 40.7496V30.665C55.1461 30.7331 57.4796 31.5483 59.0447 33.3477C59.3453 33.7881 60.0453 33.8562 60.4107 33.5168C60.8114 33.1433 60.8114 32.4644 60.4437 32.0909C58.4448 29.783 55.6116 28.7975 52.8125 28.7294V24.1439C52.8125 23.6341 52.3128 23.1584 51.7801 23.1937C51.7459 23.1925 51.7129 23.1925 51.6787 23.1925ZM1.89748 28.7963C3.23043 30.5275 5.26227 32.0215 7.696 33.2443C12.2936 35.5193 18.5588 36.8442 25.4557 36.8442C26.4882 36.8442 27.4546 36.8102 28.454 36.742C28.0215 38.6096 27.7881 40.5781 27.7881 42.5831C27.7881 43.8058 27.8553 45.0285 28.0215 46.1818C27.1882 46.25 26.322 46.284 25.4557 46.284C18.791 46.284 12.7933 44.9263 8.52807 42.8203C4.26403 40.7155 1.89748 37.8966 1.89748 35.0777C1.89748 35.0449 1.89748 35.0096 1.89748 35.0096V28.7963ZM50.9127 30.7648V40.2398C50.8455 40.2058 50.7135 40.1717 50.6463 40.1376C48.9126 39.6279 47.4135 39.05 46.4471 38.2361C45.4807 37.4209 44.981 36.4707 45.047 34.6701C45.08 33.8891 45.5797 33.108 46.5131 32.395C47.4783 31.6821 48.8455 31.1042 50.3776 30.8341C50.5461 30.7988 50.7453 30.7988 50.9127 30.7648ZM1.89748 40.1036C3.23043 41.8361 5.26227 43.3301 7.696 44.5516C12.2936 46.8266 18.5588 48.1856 25.4557 48.1856C26.4552 48.1856 27.3886 48.1856 28.3538 48.1163C29.0197 51.0033 30.1535 53.7188 31.7186 56.0973C29.7198 56.3686 27.6538 56.5377 25.4876 56.5377C18.824 56.5377 12.7933 55.214 8.52689 53.074C4.26285 50.9692 1.8963 48.1844 1.8963 45.3655L1.89748 40.1036ZM52.8113 42.7862C55.3782 43.5685 57.7436 44.4846 58.9422 46.3522C58.9422 46.3522 58.9752 46.3522 58.9752 46.3862C59.7083 47.6418 60.109 48.9995 59.6753 50.6298C59.2757 52.1579 58.2751 53.0752 56.71 53.6178C55.6092 54.0254 54.2433 54.1617 52.8101 54.1276L52.8113 42.7862Z" fill="#2F7630"/>
</svg>
