<svg width="57" height="62" viewBox="0 0 57 62" fill="none" xmlns="http://www.w3.org/2000/svg">
<path d="M37.687 0H18.993C16.172 0 13.871 2.1568 13.871 4.81462V10.338H2.262C1.014 10.338 0 11.2911 0 12.4642V46.9731C0 48.8855 1.6575 50.4435 3.692 50.4435H15.6195C16.3475 56.4313 21.775 61.0992 28.34 61.0992C34.905 61.0992 40.3325 56.4313 41.0605 50.4435H52.897C54.9835 50.4435 56.68 48.8488 56.68 46.8876V12.4642C56.68 11.2911 55.666 10.338 54.418 10.338H42.809V4.81462C42.809 2.1568 40.5145 0 37.687 0ZM15.5415 4.81462C15.5415 3.02441 17.0885 1.57025 18.993 1.57025H37.687C39.5915 1.57025 41.1385 3.02441 41.1385 4.81462V10.338H37.8625V6.00606C37.8625 5.13234 37.102 4.41748 36.1725 4.41748H20.5075C19.578 4.41748 18.8175 5.13234 18.8175 6.00606V10.338H15.5415V4.81462ZM36.1985 10.338H20.4815V6.00606C20.4815 5.99384 20.4945 5.98162 20.5075 5.98162H36.1725C36.1855 5.98162 36.1985 5.99384 36.1985 6.00606V10.338ZM1.664 46.9731V44.1075H3.692C5.3755 44.1075 6.747 45.3967 6.747 46.9792V48.8733H3.6855C2.574 48.8733 1.664 48.024 1.664 46.9731ZM28.34 59.5351C22.1975 59.5351 17.199 54.8366 17.199 49.0627C17.199 43.2888 22.1975 38.5903 28.34 38.5903C34.4825 38.5903 39.481 43.2888 39.481 49.0627C39.481 54.8366 34.4825 59.5351 28.34 59.5351ZM52.897 48.8733H49.9265V46.9792C49.9265 45.3967 51.298 44.1075 52.9815 44.1075H55.0095V46.8815C55.016 47.9812 54.067 48.8733 52.897 48.8733ZM55.016 42.5434H52.988C50.3815 42.5434 48.2625 44.5352 48.2625 46.9853V48.8794H41.145C41.0345 42.3234 35.334 37.0261 28.34 37.0261C21.346 37.0261 15.6455 42.3234 15.535 48.8733H8.4175V46.9792C8.4175 44.5291 6.2985 42.5373 3.692 42.5373H1.664V26.3827C2.8665 27.6474 4.6085 28.4417 6.5455 28.4417H16.419V30.4519C16.419 31.625 17.433 32.5781 18.681 32.5781H22.1585C23.4065 32.5781 24.4205 31.625 24.4205 30.4519V28.4417H32.253V30.4519C32.253 31.625 33.267 32.5781 34.515 32.5781H37.9925C39.2405 32.5781 40.2545 31.625 40.2545 30.4519V28.4417H50.128C52.065 28.4417 53.807 27.6474 55.0095 26.3827V42.5434H55.016ZM22.7565 30.4458C22.7565 30.7574 22.49 31.0079 22.1585 31.0079H21.255V27.6596C21.255 27.2258 20.8845 26.8776 20.423 26.8776C19.9615 26.8776 19.591 27.2258 19.591 27.6596V31.0079H18.6875C18.356 31.0079 18.0895 30.7574 18.0895 30.4458V24.8674C18.0895 24.5619 18.356 24.3114 18.6875 24.3114H22.165C22.4965 24.3114 22.763 24.5619 22.763 24.8674V30.4458H22.7565ZM38.5905 30.4458C38.5905 30.7574 38.324 31.0079 37.9925 31.0079H37.089V27.6596C37.089 27.2258 36.7185 26.8776 36.257 26.8776C35.7955 26.8776 35.425 27.2258 35.425 27.6596V31.0079H34.5215C34.19 31.0079 33.9235 30.7574 33.9235 30.4458V24.8674C33.9235 24.5619 34.19 24.3114 34.5215 24.3114H37.999C38.3305 24.3114 38.597 24.5619 38.597 24.8674V30.4458H38.5905ZM55.016 12.4642V22.289C55.016 24.8185 52.8255 26.8776 50.1345 26.8776H40.261V24.8674C40.261 23.6943 39.247 22.7411 37.999 22.7411H34.5215C33.2735 22.7411 32.2595 23.6943 32.2595 24.8674V26.8776H24.4205V24.8674C24.4205 23.6943 23.4065 22.7411 22.1585 22.7411H18.681C17.433 22.7411 16.419 23.6943 16.419 24.8674V26.8776H6.5455C3.8545 26.8776 1.664 24.8185 1.664 22.289V12.4642C1.664 12.1526 1.9305 11.9021 2.262 11.9021H54.418C54.7495 11.9021 55.016 12.1526 55.016 12.4642ZM36.8485 46.466C36.751 46.1849 36.491 45.9772 36.1725 45.9344L31.2715 45.2623L29.081 41.0892C28.938 40.8204 28.652 40.6554 28.3335 40.6554C28.015 40.6554 27.729 40.8265 27.586 41.0892L25.3955 45.2623L20.4945 45.9344C20.1825 45.9772 19.9225 46.1849 19.8185 46.466C19.721 46.747 19.799 47.0586 20.0265 47.2664L23.569 50.5169L22.7305 55.1054C22.6785 55.3987 22.8085 55.6981 23.062 55.8691C23.205 55.9669 23.3805 56.0158 23.5495 56.0158C23.6795 56.0158 23.816 55.9852 23.9395 55.9241L28.34 53.7673L32.721 55.9302C33.0005 56.0708 33.345 56.0463 33.5985 55.8691C33.852 55.692 33.982 55.3987 33.93 55.1054L33.0915 50.5169L36.634 47.2664C36.868 47.0647 36.946 46.7531 36.8485 46.466ZM31.616 49.6859C31.421 49.8631 31.33 50.1258 31.3755 50.3763L31.9995 53.804L28.7235 52.1849C28.483 52.0627 28.1905 52.0627 27.95 52.1849L24.674 53.804L25.298 50.3763C25.3435 50.1197 25.2525 49.8631 25.0575 49.6859L22.4055 47.2603L26.065 46.7593C26.338 46.7226 26.572 46.5637 26.6955 46.3316L28.3335 43.2155L29.9715 46.3316C30.095 46.5637 30.329 46.7226 30.602 46.7593L34.2615 47.2603L31.616 49.6859Z" fill="#2F7630"/>
</svg>
