<svg width="65" height="65" viewBox="0 0 65 65" fill="none" xmlns="http://www.w3.org/2000/svg">
<path d="M48.2857 64.8361H1.85714C1.61322 64.8363 1.37166 64.7884 1.14628 64.6954C0.920898 64.6024 0.716115 64.4659 0.543635 64.2939C0.371156 64.1218 0.234364 63.9176 0.141083 63.6927C0.0478025 63.4679 -0.000138853 63.227 3.02066e-07 62.9837V16.6723C-0.000138853 16.429 0.0478025 16.188 0.141083 15.9632C0.234364 15.7384 0.371156 15.5341 0.543635 15.3621C0.716115 15.19 0.920898 15.0536 1.14628 14.9606C1.37166 14.8675 1.61322 14.8197 1.85714 14.8198H48.2857C48.5296 14.8197 48.7712 14.8675 48.9966 14.9606C49.222 15.0536 49.4267 15.19 49.5992 15.3621C49.7717 15.5341 49.9085 15.7384 50.0018 15.9632C50.0951 16.188 50.143 16.429 50.1429 16.6723V62.9837C50.143 63.227 50.0951 63.4679 50.0018 63.6927C49.9085 63.9176 49.7717 64.1218 49.5992 64.2939C49.4267 64.4659 49.222 64.6024 48.9966 64.6954C48.7712 64.7884 48.5296 64.8363 48.2857 64.8361ZM3.71429 61.1312H46.4286V18.5247H3.71429V61.1312Z" fill="#2F7630"/>
<path d="M63.1428 4.6022C62.7891 4.60232 62.4428 4.50156 62.1446 4.31181C61.8464 4.12206 61.6088 3.85123 61.4598 3.53124C61.0764 3.35339 60.7654 3.05035 60.5781 2.67224C60.3909 2.29412 60.3386 1.86358 60.43 1.45181C60.5213 1.04004 60.7509 0.671709 61.0806 0.407718C61.4103 0.143727 61.8205 -0.000107996 62.2433 3.01303e-07H63.1428C63.3868 -0.000138502 63.6283 0.0476818 63.8537 0.140727C64.0791 0.233773 64.2839 0.370219 64.4563 0.542263C64.6288 0.714307 64.7656 0.918574 64.8589 1.14339C64.9522 1.3682 65.0001 1.60915 65 1.85246V2.74975C65.0001 2.99306 64.9522 3.234 64.8589 3.45882C64.7656 3.68363 64.6288 3.8879 64.4563 4.05994C64.2839 4.23199 64.0791 4.36843 63.8537 4.46148C63.6283 4.55452 63.3868 4.60234 63.1428 4.6022Z" fill="#2F7630"/>
<path d="M54.8057 3.70491H52.9467C52.4542 3.70491 51.9818 3.50974 51.6335 3.16234C51.2852 2.81494 51.0896 2.34376 51.0896 1.85246C51.0896 1.36115 51.2852 0.889975 51.6335 0.542572C51.9818 0.195169 52.4542 0 52.9467 0H54.8057C55.2983 0 55.7706 0.195169 56.1189 0.542572C56.4672 0.889975 56.6629 1.36115 56.6629 1.85246C56.6629 2.34376 56.4672 2.81494 56.1189 3.16234C55.7706 3.50974 55.2983 3.70491 54.8057 3.70491ZM45.5073 3.70491H43.6483C43.1558 3.70491 42.6834 3.50974 42.3351 3.16234C41.9868 2.81494 41.7912 2.34376 41.7912 1.85246C41.7912 1.36115 41.9868 0.889975 42.3351 0.542572C42.6834 0.195169 43.1558 0 43.6483 0H45.5073C45.9999 0 46.4722 0.195169 46.8205 0.542572C47.1688 0.889975 47.3645 1.36115 47.3645 1.85246C47.3645 2.34376 47.1688 2.81494 46.8205 3.16234C46.4722 3.50974 45.9999 3.70491 45.5073 3.70491ZM36.2107 3.70491H34.3499C33.8573 3.70491 33.385 3.50974 33.0367 3.16234C32.6884 2.81494 32.4927 2.34376 32.4927 1.85246C32.4927 1.36115 32.6884 0.889975 33.0367 0.542572C33.385 0.195169 33.8573 0 34.3499 0H36.2107C36.7033 0 37.1756 0.195169 37.5239 0.542572C37.8722 0.889975 38.0679 1.36115 38.0679 1.85246C38.0679 2.34376 37.8722 2.81494 37.5239 3.16234C37.1756 3.50974 36.7033 3.70491 36.2107 3.70491ZM26.9123 3.70491H25.0533C24.5608 3.70491 24.0884 3.50974 23.7401 3.16234C23.3918 2.81494 23.1962 2.34376 23.1962 1.85246C23.1962 1.36115 23.3918 0.889975 23.7401 0.542572C24.0884 0.195169 24.5608 0 25.0533 0H26.9123C27.4049 0 27.8772 0.195169 28.2255 0.542572C28.5738 0.889975 28.7695 1.36115 28.7695 1.85246C28.7695 2.34376 28.5738 2.81494 28.2255 3.16234C27.8772 3.50974 27.4049 3.70491 26.9123 3.70491Z" fill="#2F7630"/>
<path d="M16.7143 4.6022C16.4704 4.60234 16.2288 4.55452 16.0035 4.46148C15.7781 4.36843 15.5733 4.23199 15.4008 4.05994C15.2283 3.8879 15.0915 3.68363 14.9983 3.45882C14.905 3.234 14.857 2.99306 14.8572 2.74975V1.85246C14.857 1.60915 14.905 1.3682 14.9983 1.14339C15.0915 0.918574 15.2283 0.714307 15.4008 0.542263C15.5733 0.370219 15.7781 0.233773 16.0035 0.140727C16.2288 0.0476818 16.4704 -0.000138502 16.7143 3.01303e-07H17.6139C18.0367 -0.000107996 18.4469 0.143727 18.7766 0.407718C19.1063 0.671709 19.3358 1.04004 19.4272 1.45181C19.5185 1.86358 19.4663 2.29412 19.279 2.67224C19.0918 3.05035 18.7807 3.35339 18.3974 3.53124C18.2484 3.85123 18.0108 4.12206 17.7126 4.31181C17.4144 4.50156 17.068 4.60232 16.7143 4.6022Z" fill="#2F7630"/>
<path d="M16.7143 41.6982C16.4704 41.6983 16.2288 41.6505 16.0035 41.5574C15.7781 41.4644 15.5733 41.328 15.4008 41.1559C15.2283 40.9839 15.0915 40.7796 14.9983 40.5548C14.905 40.33 14.857 40.089 14.8572 39.8457V37.9914C14.8572 37.5001 15.0528 37.0289 15.4011 36.6815C15.7494 36.3341 16.2218 36.139 16.7143 36.139C17.2069 36.139 17.6792 36.3341 18.0275 36.6815C18.3758 37.0289 18.5715 37.5001 18.5715 37.9914V39.8457C18.5716 40.089 18.5237 40.33 18.4304 40.5548C18.3371 40.7796 18.2003 40.9839 18.0278 41.1559C17.8553 41.328 17.6506 41.4644 17.4252 41.5574C17.1998 41.6505 16.9582 41.6983 16.7143 41.6982ZM16.7143 32.425C16.4704 32.4252 16.2288 32.3774 16.0035 32.2843C15.7781 32.1913 15.5733 32.0548 15.4008 31.8828C15.2283 31.7107 15.0915 31.5065 14.9983 31.2817C14.905 31.0568 14.857 30.8159 14.8572 30.5726V28.7166C14.8572 28.2253 15.0528 27.7541 15.4011 27.4067C15.7494 27.0593 16.2218 26.8641 16.7143 26.8641C17.2069 26.8641 17.6792 27.0593 18.0275 27.4067C18.3758 27.7541 18.5715 28.2253 18.5715 28.7166V30.5727C18.5716 30.816 18.5236 31.057 18.4303 31.2818C18.337 31.5066 18.2002 31.7108 18.0278 31.8828C17.8553 32.0549 17.6505 32.1913 17.4251 32.2843C17.1998 32.3774 16.9582 32.4252 16.7143 32.425ZM16.7143 23.1501C16.4704 23.1502 16.2288 23.1024 16.0035 23.0094C15.7781 22.9163 15.5733 22.7799 15.4008 22.6078C15.2283 22.4358 15.0915 22.2315 14.9983 22.0067C14.905 21.7819 14.857 21.5409 14.8572 21.2976V19.4433C14.8572 18.952 15.0528 18.4808 15.4011 18.1334C15.7494 17.786 16.2218 17.5909 16.7143 17.5909C17.2069 17.5909 17.6792 17.786 18.0275 18.1334C18.3758 18.4808 18.5715 18.952 18.5715 19.4433V21.2976C18.5716 21.5409 18.5237 21.7819 18.4304 22.0067C18.3371 22.2315 18.2003 22.4358 18.0278 22.6078C17.8553 22.7799 17.6506 22.9163 17.4252 23.0094C17.1998 23.1024 16.9582 23.1502 16.7143 23.1501ZM16.7143 13.8751C16.4704 13.8753 16.2288 13.8275 16.0035 13.7344C15.7781 13.6414 15.5733 13.5049 15.4008 13.3329C15.2283 13.1608 15.0915 12.9566 14.9983 12.7318C14.905 12.5069 14.857 12.266 14.8572 12.0227V10.1684C14.8572 9.67707 15.0528 9.20589 15.4011 8.85849C15.7494 8.51109 16.2218 8.31592 16.7143 8.31592C17.2069 8.31592 17.6792 8.51109 18.0275 8.85849C18.3758 9.20589 18.5715 9.67707 18.5715 10.1684V12.0227C18.5716 12.266 18.5237 12.5069 18.4304 12.7318C18.3371 12.9566 18.2003 13.1608 18.0278 13.3329C17.8554 13.5049 17.6506 13.6414 17.4252 13.7344C17.1998 13.8275 16.9582 13.8753 16.7143 13.8751Z" fill="#2F7630"/>
<path d="M17.6139 50.0163H16.7143C16.4704 50.0164 16.2288 49.9686 16.0035 49.8756C15.7781 49.7825 15.5733 49.6461 15.4008 49.474C15.2283 49.302 15.0915 49.0977 14.9983 48.8729C14.905 48.6481 14.857 48.4071 14.8572 48.1638V47.2665C14.8571 46.8448 15.0013 46.4357 15.2659 46.1068C15.5306 45.7779 15.8999 45.5489 16.3127 45.4578C16.7255 45.3667 17.1571 45.4188 17.5362 45.6056C17.9152 45.7924 18.2191 46.1026 18.3974 46.485C18.7807 46.6629 19.0918 46.9659 19.279 47.344C19.4663 47.7222 19.5185 48.1527 19.4272 48.5645C19.3358 48.9762 19.1063 49.3446 18.7766 49.6086C18.4469 49.8726 18.0367 50.0164 17.6139 50.0163Z" fill="#2F7630"/>
<path d="M54.8039 50.0164H52.9449C52.4524 50.0164 51.98 49.8213 51.6317 49.4739C51.2834 49.1265 51.0878 48.6553 51.0878 48.164C51.0878 47.6727 51.2834 47.2015 51.6317 46.8541C51.98 46.5067 52.4524 46.3115 52.9449 46.3115H54.8039C55.2965 46.3115 55.7688 46.5067 56.1171 46.8541C56.4654 47.2015 56.6611 47.6727 56.6611 48.164C56.6611 48.6553 56.4654 49.1265 56.1171 49.4739C55.7688 49.8213 55.2965 50.0164 54.8039 50.0164ZM45.5073 50.0164H43.6466C43.1541 50.0164 42.6817 49.8213 42.3334 49.4739C41.9851 49.1265 41.7895 48.6553 41.7895 48.164C41.7895 47.6727 41.9851 47.2015 42.3334 46.8541C42.6817 46.5067 43.1541 46.3115 43.6466 46.3115H45.5075C46 46.3115 46.4724 46.5067 46.8207 46.8541C47.169 47.2015 47.3646 47.6727 47.3646 48.164C47.3646 48.6553 47.169 49.1265 46.8207 49.4739C46.4724 49.8213 45.9999 50.0164 45.5073 50.0164ZM36.2089 50.0164H34.3499C33.8574 50.0164 33.385 49.8213 33.0367 49.4739C32.6884 49.1265 32.4928 48.6553 32.4928 48.164C32.4928 47.6727 32.6884 47.2015 33.0367 46.8541C33.385 46.5067 33.8574 46.3115 34.3499 46.3115H36.2089C36.7014 46.3115 37.1738 46.5067 37.5221 46.8541C37.8704 47.2015 38.066 47.6727 38.066 48.164C38.066 48.6553 37.8704 49.1265 37.5221 49.4739C37.1738 49.8213 36.7014 50.0164 36.2089 50.0164ZM26.9105 50.0164H25.0515C24.5589 50.0164 24.0866 49.8213 23.7383 49.4739C23.39 49.1265 23.1943 48.6553 23.1943 48.164C23.1943 47.6727 23.39 47.2015 23.7383 46.8541C24.0866 46.5067 24.5589 46.3115 25.0515 46.3115H26.9105C27.403 46.3115 27.8754 46.5067 28.2237 46.8541C28.572 47.2015 28.7676 47.6727 28.7676 48.164C28.7676 48.6553 28.572 49.1265 28.2237 49.4739C27.8754 49.8213 27.403 50.0164 26.9105 50.0164Z" fill="#2F7630"/>
<path d="M63.1428 50.0163H62.2433C61.8205 50.0164 61.4103 49.8726 61.0806 49.6086C60.7509 49.3446 60.5213 48.9762 60.43 48.5645C60.3386 48.1527 60.3909 47.7222 60.5781 47.344C60.7654 46.9659 61.0764 46.6629 61.4598 46.485C61.6381 46.1026 61.9419 45.7924 62.321 45.6056C62.7 45.4188 63.1317 45.3667 63.5445 45.4578C63.9573 45.5489 64.3266 45.7779 64.5912 46.1068C64.8559 46.4357 65.0001 46.8448 65 47.2665V48.1638C65.0001 48.4071 64.9522 48.6481 64.8589 48.8729C64.7656 49.0977 64.6288 49.302 64.4563 49.474C64.2839 49.6461 64.0791 49.7825 63.8537 49.8756C63.6283 49.9686 63.3868 50.0164 63.1428 50.0163Z" fill="#2F7630"/>
<path d="M63.1429 41.7001C62.899 41.7002 62.6574 41.6524 62.432 41.5594C62.2067 41.4663 62.0019 41.3299 61.8294 41.1579C61.6569 40.9858 61.5201 40.7815 61.4268 40.5567C61.3336 40.3319 61.2856 40.091 61.2858 39.8476V37.9933C61.2858 37.502 61.4814 37.0309 61.8297 36.6835C62.178 36.3361 62.6504 36.1409 63.1429 36.1409C63.6355 36.1409 64.1078 36.3361 64.4561 36.6835C64.8044 37.0309 65.0001 37.502 65.0001 37.9933V39.8476C65.0002 40.091 64.9523 40.3319 64.859 40.5567C64.7657 40.7815 64.6289 40.9858 64.4564 41.1579C64.2839 41.3299 64.0792 41.4663 63.8538 41.5594C63.6284 41.6524 63.3868 41.7002 63.1429 41.7001ZM63.1429 32.4252C62.899 32.4253 62.6574 32.3775 62.4321 32.2844C62.2067 32.1914 62.0019 32.055 61.8294 31.8829C61.6569 31.7109 61.5201 31.5066 61.4269 31.2818C61.3336 31.057 61.2856 30.816 61.2858 30.5727V28.7184C61.2858 28.2271 61.4814 27.7559 61.8297 27.4085C62.178 27.0611 62.6504 26.866 63.1429 26.866C63.6355 26.866 64.1078 27.0611 64.4561 27.4085C64.8044 27.7559 65.0001 28.2271 65.0001 28.7184V30.5727C65.0002 30.816 64.9522 31.057 64.859 31.2818C64.7657 31.5066 64.6289 31.7109 64.4564 31.8829C64.2839 32.055 64.0792 32.1914 63.8538 32.2844C63.6284 32.3775 63.3868 32.4253 63.1429 32.4252ZM63.1429 23.152C62.899 23.1522 62.6574 23.1044 62.4321 23.0113C62.2067 22.9183 62.0019 22.7818 61.8294 22.6098C61.6569 22.4377 61.5201 22.2335 61.4269 22.0087C61.3336 21.7838 61.2856 21.5429 61.2858 21.2996V19.4434C61.2858 18.9521 61.4814 18.4809 61.8297 18.1335C62.178 17.7861 62.6504 17.591 63.1429 17.591C63.6355 17.591 64.1078 17.7861 64.4561 18.1335C64.8044 18.4809 65.0001 18.9521 65.0001 19.4434V21.2996C65.0002 21.5429 64.9522 21.7838 64.859 22.0087C64.7657 22.2335 64.6289 22.4377 64.4564 22.6098C64.2839 22.7818 64.0792 22.9183 63.8538 23.0113C63.6284 23.1044 63.3868 23.1522 63.1429 23.152ZM63.1429 13.8771C62.899 13.8772 62.6574 13.8294 62.432 13.7364C62.2067 13.6433 62.0019 13.5069 61.8294 13.3348C61.6569 13.1628 61.5201 12.9585 61.4268 12.7337C61.3336 12.5089 61.2856 12.2679 61.2858 12.0246V10.1703C61.2858 9.67903 61.4814 9.20785 61.8297 8.86044C62.178 8.51304 62.6504 8.31787 63.1429 8.31787C63.6355 8.31787 64.1078 8.51304 64.4561 8.86044C64.8044 9.20785 65.0001 9.67903 65.0001 10.1703V12.0246C65.0002 12.2679 64.9523 12.5089 64.859 12.7337C64.7657 12.9585 64.6289 13.1628 64.4564 13.3348C64.2839 13.5069 64.0792 13.6433 63.8538 13.7364C63.6284 13.8294 63.3868 13.8772 63.1429 13.8771Z" fill="#2F7630"/>
</svg>
