<svg width="22" height="22" viewBox="0 0 22 22" fill="none" xmlns="http://www.w3.org/2000/svg">
<path d="M11 0.522724C10.9505 0.522724 10.902 0.534656 10.8585 0.558519L0.590415 6.03685C0.469392 6.10162 0.408028 6.24054 0.441268 6.3735C0.474506 6.50646 0.594676 6.60021 0.731886 6.60021H1.29438V7.34596C1.29438 7.69027 1.57904 7.97323 1.9208 7.97578V8.44112C1.9208 8.88687 2.23954 9.26526 2.66057 9.35816V18.0819C2.23869 18.1731 1.91825 18.5515 1.91825 18.9998V19.4754C1.08643 19.5666 0.432737 20.2765 0.432737 21.1322V21.3581L0.431885 21.3598C0.431885 21.5251 0.566544 21.659 0.731885 21.659H21.2691H21.2683C21.4336 21.659 21.5683 21.5251 21.5683 21.3598V21.1339C21.5683 20.2774 20.9129 19.5666 20.0794 19.4771V19.0015C20.0794 18.5558 19.7606 18.1774 19.3396 18.0845V9.35985C19.7615 9.26865 20.0819 8.89025 20.0819 8.44195L20.0828 7.97491C20.4245 7.9698 20.7041 7.686 20.7041 7.34594V6.60019H21.2691H21.2683C21.4055 6.60019 21.5257 6.50644 21.5589 6.37348C21.5921 6.24053 21.5308 6.10161 21.4097 6.03683L11.1417 0.5585C11.0982 0.534637 11.0496 0.522705 11.0002 0.522705L11 0.522724ZM11 1.16193L20.0707 6.0012H1.92927L11 1.16193ZM11 2.26648C10.0949 2.26648 9.35507 3.00624 9.35507 3.91137C9.35507 4.8165 10.0948 5.55627 11 5.55627C11.9051 5.55627 12.6449 4.8165 12.6449 3.91137C12.6449 3.00624 11.9051 2.26648 11 2.26648ZM11 2.86563C11.5812 2.86563 12.0457 3.33011 12.0457 3.91137C12.0457 4.49263 11.5812 4.95712 11 4.95712C10.4187 4.95712 9.95422 4.49263 9.95422 3.91137C9.95422 3.33011 10.4187 2.86563 11 2.86563ZM1.89349 6.60024H20.1049V7.34599C20.1049 7.36559 20.0947 7.37667 20.0742 7.37667L1.92412 7.37752C1.90452 7.37752 1.89344 7.3673 1.89344 7.34684L1.89349 6.60024ZM2.51991 7.97667H5.85068V8.442C5.85068 8.63462 5.70068 8.78291 5.50977 8.78291H2.85995C2.66734 8.78291 2.51904 8.63291 2.51904 8.442L2.51991 7.97667ZM6.44981 7.97667H15.5545V8.442C15.5545 8.88775 15.8733 9.26614 16.2943 9.35905V18.0828C15.8724 18.174 15.552 18.5524 15.552 19.0007V19.4661L6.44638 19.4669V19.0016C6.44638 18.5558 6.12764 18.1774 5.70661 18.0845V9.35987C6.12849 9.26868 6.44893 8.89028 6.44893 8.44198L6.44981 7.97667ZM16.1539 7.97667H19.4846V8.442C19.4846 8.63462 19.3346 8.78291 19.1437 8.78291H16.4939C16.3013 8.78291 16.153 8.63291 16.153 8.442L16.1539 7.97667ZM3.2589 9.38121H5.10749V18.0616H3.2589V9.38121ZM16.8918 9.38121H18.7404L18.7412 18.0616H16.8926L16.8918 9.38121ZM11 10.127C9.01846 10.127 7.40588 11.7395 7.40588 13.7211C7.40588 15.7026 9.01837 17.3152 11 17.3152C12.9816 17.3152 14.5941 15.7027 14.5941 13.7211C14.5941 11.7404 12.9816 10.127 11 10.127ZM11 10.7261C12.6577 10.7261 13.995 12.0633 13.995 13.7211C13.995 15.3788 12.6578 16.7161 11 16.7161C9.34222 16.7161 8.00501 15.3789 8.00501 13.7211C8.00501 12.0634 9.34222 10.7261 11 10.7261ZM11 11.4829C10.9207 11.4829 10.844 11.5145 10.7886 11.5707C10.7324 11.627 10.7008 11.7028 10.7008 11.7821V11.9994H10.6736C10.1196 11.9994 9.66363 12.4554 9.66363 13.0094C9.66363 13.5633 10.1196 14.0184 10.6736 14.0184H11.329C11.5591 14.0184 11.7398 14.1991 11.7398 14.4292C11.7398 14.6594 11.5591 14.84 11.329 14.84L11 14.8409H10.6778C10.4792 14.8409 10.3079 14.7147 10.2483 14.5289C10.2244 14.4531 10.1707 14.39 10.1 14.3534C10.0292 14.3176 9.94741 14.3108 9.87156 14.3346C9.7957 14.3593 9.73263 14.4122 9.69684 14.4829C9.66019 14.5537 9.65337 14.6355 9.67724 14.7113C9.81616 15.1443 10.2218 15.44 10.6778 15.44H10.7V15.6608H10.7008C10.7008 15.74 10.7323 15.8159 10.7886 15.8721C10.844 15.9284 10.9207 15.9599 11 15.9599C11.0792 15.9599 11.1559 15.9284 11.2113 15.8721C11.2676 15.8159 11.2991 15.74 11.2991 15.6608V15.44H11.3281C11.8821 15.44 12.338 14.9841 12.338 14.4301C12.338 13.8761 11.8821 13.4201 11.3281 13.4201H10.6727C10.4426 13.4201 10.2619 13.2395 10.2619 13.0093C10.2619 12.7792 10.4426 12.5986 10.6727 12.5986H10.9624C10.9752 12.6011 10.9872 12.602 11 12.602C11.0127 12.602 11.0247 12.6011 11.0375 12.5986H11.3238C11.5224 12.5986 11.6928 12.7238 11.7542 12.9122C11.7789 12.988 11.8326 13.0503 11.9034 13.0869C11.9741 13.1227 12.0559 13.1287 12.1318 13.104C12.2886 13.0528 12.3747 12.8841 12.3235 12.7272C12.1829 12.296 11.7789 12.0003 11.3238 12.0003H11.2991V11.7821C11.2991 11.7028 11.2676 11.627 11.2113 11.5707C11.1559 11.5145 11.0792 11.4829 11 11.4829ZM2.85744 18.6607H2.935C2.94267 18.6632 2.95119 18.6658 2.95971 18.6675H5.4075C5.41602 18.6658 5.42369 18.6632 5.43221 18.6607H5.50636C5.69897 18.6607 5.84727 18.8107 5.84727 19.0016V19.4669H2.5165V19.0016C2.5165 18.809 2.66653 18.6607 2.85744 18.6607ZM16.4903 18.6607H16.5679C16.5764 18.6632 16.5841 18.6658 16.5926 18.6675H19.0404C19.0489 18.6658 19.0574 18.6632 19.0651 18.6607H19.1392C19.3318 18.6607 19.4801 18.8107 19.4801 19.0016V19.4669H16.1494V19.0016C16.1494 18.809 16.2994 18.6607 16.4903 18.6607ZM2.09882 20.0652H19.9011C20.4679 20.0652 20.9153 20.5033 20.9546 21.0598H1.04546C1.08467 20.5041 1.53207 20.0652 2.09882 20.0652Z" fill="black"/>
</svg>
