<?xml version="1.0" encoding="utf-8"?>
<!-- Generator: Adobe Illustrator 25.4.1, SVG Export Plug-In . SVG Version: 6.00 Build 0)  -->
<svg version="1.1" xmlns="http://www.w3.org/2000/svg" xmlns:xlink="http://www.w3.org/1999/xlink" x="0px" y="0px"
	 viewBox="0 0 500 500" style="enable-background:new 0 0 500 500;" xml:space="preserve">
<style type="text/css">
	.st0{display:none;}
	.st1{display:inline;}
	.st2{fill:#407BFF;}
	.st3{opacity:0.9;fill:#FFFFFF;}
	.st4{fill:#EBEBEB;}
	.st5{fill:#FAFAFA;}
	.st6{fill:#F0F0F0;}
	.st7{fill:#E0E0E0;}
	.st8{fill:#F5F5F5;}
	.st9{fill:#2F7630;}
	.st10{fill:#377C39;}
	.st11{fill:#263238;}
	.st12{opacity:0.3;fill:#FFFFFF;enable-background:new    ;}
	.st13{fill:#5F9961;}
	.st14{opacity:0.5;fill:#FFFFFF;enable-background:new    ;}
	.st15{opacity:0.3;fill:#FFFFFF;}
	.st16{opacity:0.2;}
	.st17{opacity:0.1;}
	.st18{fill:#FFFFFF;}
	.st19{opacity:0.3;}
	.st20{opacity:0.2;fill:#FFFFFF;}
	.st21{fill:#B55B52;}
	.st22{opacity:0;}
	.st23{opacity:0.8;fill:#FFFFFF;}
	.st24{opacity:0.4;}
	.st25{opacity:0.5;}
	.st26{opacity:0.8;fill:#C7DCC7;}
	.st27{opacity:0.5;fill:#FFFFFF;}
	.st28{fill:#C7C7C7;}
	.st29{opacity:6.000000e-02;fill:#FFFFFF;}
	.st30{fill:#A02724;}
	.st31{opacity:0.2;enable-background:new    ;}
	.st32{opacity:0.4;fill:#FFFFFF;}
	.st33{fill:#9DA7B1;}
	.st34{opacity:0.5;fill:#C7C7C7;}
	.st35{fill:#A5A5A5;}
	.st36{opacity:0.7;fill:#FFFFFF;}
	.st37{opacity:0.6;fill:#FFFFFF;}
	.st38{fill:#E4897B;}
	.st39{opacity:0.4;fill:#FFFFFF;enable-background:new    ;}
	.st40{opacity:0.3;enable-background:new    ;}
	.st41{fill:#DE5753;}
	.st42{opacity:0.1;fill:#FFFFFF;enable-background:new    ;}
	.st43{opacity:0.1;fill:#FFFFFF;}
</style>
<g id="Background_Complete">
</g>
<g id="Background_Simple" class="st0">
	<g class="st1">
		<path class="st2" d="M244.8,83.7c21.9,2.6,48.4,12.9,63.8,29.8c11.6,12.7,18.4,28.8,21,45.6c2.8,18.1-2.6,36.1-0.9,54.2
			c0.9,9.7,4.1,19.5,10.6,26.8c12.3,13.9,30.7,13,47.1,18c29.2,9.1,49.5,40.1,40.6,70.5c-6.8,23.4-27.4,35.6-50.2,40.2
			c-39.7,7.9-76.3-4.1-108.6-26.6c-7.6-5.3-16.2-10.1-25.5-10.3c-16.5-0.4-34.8,10.9-50.5,15.6c-18.5,5.6-38.1,9.1-57.4,4.9
			c-34.9-7.6-55.5-37-63.6-70.1c-8.2-33.4-9.6-69.3,2.2-102.1c11-30.6,31.6-56.4,58.9-73.6C165.1,85.9,206.6,79.2,244.8,83.7z"/>
		<path class="st3" d="M244.8,83.7c21.9,2.6,48.4,12.9,63.8,29.8c11.6,12.7,18.4,28.8,21,45.6c2.8,18.1-2.6,36.1-0.9,54.2
			c0.9,9.7,4.1,19.5,10.6,26.8c12.3,13.9,30.7,13,47.1,18c29.2,9.1,49.5,40.1,40.6,70.5c-6.8,23.4-27.4,35.6-50.2,40.2
			c-39.7,7.9-76.3-4.1-108.6-26.6c-7.6-5.3-16.2-10.1-25.5-10.3c-16.5-0.4-34.8,10.9-50.5,15.6c-18.5,5.6-38.1,9.1-57.4,4.9
			c-34.9-7.6-55.5-37-63.6-70.1c-8.2-33.4-9.6-69.3,2.2-102.1c11-30.6,31.6-56.4,58.9-73.6C165.1,85.9,206.6,79.2,244.8,83.7z"/>
	</g>
</g>
<g id="Shadow_1_">
</g>
<g id="Plant">
</g>
<g id="Character_1_1_">
</g>
<g id="Table">
</g>
<g id="Character_2">
	<g>
		<g>
			<rect y="391.1" class="st4" width="500" height="0.2"/>
			<rect x="416.8" y="407.2" class="st4" width="33.1" height="0.2"/>
			<rect x="322.5" y="410" class="st4" width="8.7" height="0.2"/>
			<rect x="396.6" y="398" class="st4" width="19.2" height="0.2"/>
			<rect x="52.5" y="399.6" class="st4" width="43.2" height="0.2"/>
			<rect x="104.6" y="399.6" class="st4" width="6.3" height="0.2"/>
			<rect x="131.5" y="403.9" class="st4" width="93.7" height="0.2"/>
			<path class="st4" d="M237,346.5H43.9c-3.1,0-5.7-2.6-5.7-5.7V69.4c0-3.1,2.6-5.7,5.7-5.7H237c3.1,0,5.7,2.6,5.7,5.7v271.4
				C242.7,344,240.2,346.5,237,346.5z M43.9,63.9c-3,0-5.5,2.4-5.5,5.5v271.4c0,3,2.4,5.5,5.5,5.5H237c3,0,5.5-2.4,5.5-5.5V69.4
				c0-3-2.4-5.5-5.5-5.5H43.9z"/>
			<path class="st4" d="M453.3,346.5H260.2c-3.1,0-5.7-2.6-5.7-5.7V69.4c0-3.1,2.6-5.7,5.7-5.7h193.1c3.1,0,5.7,2.6,5.7,5.7v271.4
				C459,344,456.5,346.5,453.3,346.5z M260.2,63.9c-3,0-5.5,2.4-5.5,5.5v271.4c0,3,2.4,5.5,5.5,5.5h193.1c3,0,5.5-2.4,5.5-5.5V69.4
				c0-3-2.4-5.5-5.5-5.5H260.2z"/>
		</g>
		<g>
			<rect x="245.8" y="129.5" class="st4" width="169.5" height="189.9"/>
			<rect x="245.8" y="132.5" class="st5" width="166.2" height="183.5"/>
			<g>
				<polygon class="st6" points="405.9,229.9 405.9,217 402.2,217 402.2,208.4 397.3,208.4 397.3,195.5 396,195.5 396,208.4 
					391.1,208.4 391.1,217 387.4,217 387.4,229.9 380.7,229.9 380.7,233.6 377.6,233.6 377.6,247.7 377,247.7 377,227.5 
					375.2,227.5 375.2,240.3 373.3,240.3 373.3,209.7 372.1,209.7 372.1,222.5 367.2,222.5 367.2,218.2 365.3,218.2 365.3,200.4 
					361.7,200.4 361.7,182.6 360.4,182.6 360.4,185.1 335.3,185.1 335.3,177.7 331,177.7 331,149.5 329.1,149.5 329.1,177.7 
					323,177.7 323,185.1 320.5,185.1 320.5,221.9 307.6,221.9 307.6,210.9 311.9,210.9 311.9,209 307.6,209 307.6,206 295.4,206 
					295.4,177.7 292.3,177.7 292.3,173.4 277.6,173.4 277.6,177.7 275.7,177.7 275.7,217 269,217 269,234.8 265.3,234.8 
					265.3,220.7 262.2,220.7 262.2,217 255.5,217 255.5,204.1 251.8,204.1 251.8,195.5 247.5,195.5 247.5,182.6 245.8,182.6 
					245.8,316 412,316 412,229.9 				"/>
				<g>
					<rect x="344.7" y="187" class="st5" width="1.7" height="1.7"/>
					<rect x="344.7" y="189.9" class="st5" width="1.7" height="1.7"/>
					<rect x="344.7" y="201.6" class="st5" width="1.7" height="1.7"/>
					<rect x="344.7" y="204.5" class="st5" width="1.7" height="1.7"/>
					<rect x="344.7" y="207.4" class="st5" width="1.7" height="1.7"/>
					<rect x="344.7" y="216.2" class="st5" width="1.7" height="1.7"/>
					<rect x="344.7" y="219.1" class="st5" width="1.7" height="1.7"/>
					<rect x="341.9" y="198.7" class="st5" width="1.7" height="1.7"/>
					<rect x="341.9" y="201.6" class="st5" width="1.7" height="1.7"/>
					<rect x="341.9" y="204.5" class="st5" width="1.7" height="1.7"/>
					<rect x="341.9" y="207.4" class="st5" width="1.7" height="1.7"/>
					<rect x="341.9" y="210.3" class="st5" width="1.7" height="1.7"/>
					<rect x="341.9" y="216.2" class="st5" width="1.7" height="1.7"/>
					<rect x="341.9" y="219.1" class="st5" width="1.7" height="1.7"/>
					<rect x="339.1" y="187" class="st5" width="1.7" height="1.7"/>
					<rect x="339.1" y="189.9" class="st5" width="1.7" height="1.7"/>
					<rect x="339.1" y="192.9" class="st5" width="1.7" height="1.7"/>
					<rect x="339.1" y="195.8" class="st5" width="1.7" height="1.7"/>
					<rect x="339.1" y="198.7" class="st5" width="1.7" height="1.7"/>
					<rect x="339.1" y="201.6" class="st5" width="1.7" height="1.7"/>
					<rect x="339.1" y="204.5" class="st5" width="1.7" height="1.7"/>
					<rect x="339.1" y="207.4" class="st5" width="1.7" height="1.7"/>
					<rect x="339.1" y="210.3" class="st5" width="1.7" height="1.7"/>
					<rect x="339.1" y="213.3" class="st5" width="1.7" height="1.7"/>
					<rect x="339.1" y="219.1" class="st5" width="1.7" height="1.7"/>
					<rect x="336.4" y="187" class="st5" width="1.7" height="1.7"/>
					<rect x="336.4" y="189.9" class="st5" width="1.7" height="1.7"/>
					<rect x="336.4" y="192.9" class="st5" width="1.7" height="1.7"/>
					<rect x="336.4" y="195.8" class="st5" width="1.7" height="1.7"/>
					<rect x="336.4" y="198.7" class="st5" width="1.7" height="1.7"/>
					<rect x="336.4" y="201.6" class="st5" width="1.7" height="1.7"/>
					<rect x="336.4" y="204.5" class="st5" width="1.7" height="1.7"/>
					<rect x="336.4" y="230.8" class="st5" width="1.7" height="1.7"/>
					<rect x="333.6" y="187" class="st5" width="1.7" height="1.7"/>
					<rect x="333.6" y="189.9" class="st5" width="1.7" height="1.7"/>
					<rect x="333.6" y="192.9" class="st5" width="1.7" height="1.7"/>
					<rect x="333.6" y="195.8" class="st5" width="1.7" height="1.7"/>
					<rect x="333.6" y="198.7" class="st5" width="1.7" height="1.7"/>
					<rect x="333.6" y="201.6" class="st5" width="1.7" height="1.7"/>
					<rect x="333.6" y="204.5" class="st5" width="1.7" height="1.7"/>
					<rect x="333.6" y="207.4" class="st5" width="1.7" height="1.7"/>
					<rect x="333.6" y="224.9" class="st5" width="1.7" height="1.7"/>
					<rect x="333.6" y="227.8" class="st5" width="1.7" height="1.7"/>
					<rect x="333.6" y="230.8" class="st5" width="1.7" height="1.7"/>
					<rect x="333.6" y="233.7" class="st5" width="1.7" height="1.7"/>
					<rect x="333.6" y="245.3" class="st5" width="1.7" height="1.7"/>
					<rect x="330.9" y="187" class="st5" width="1.7" height="1.7"/>
					<rect x="330.9" y="189.9" class="st5" width="1.7" height="1.7"/>
					<rect x="330.9" y="192.9" class="st5" width="1.7" height="1.7"/>
					<rect x="330.9" y="195.8" class="st5" width="1.7" height="1.7"/>
					<rect x="330.9" y="198.7" class="st5" width="1.7" height="1.7"/>
					<rect x="330.9" y="201.6" class="st5" width="1.7" height="1.7"/>
					<rect x="330.9" y="204.5" class="st5" width="1.7" height="1.7"/>
					<rect x="330.9" y="207.4" class="st5" width="1.7" height="1.7"/>
					<rect x="330.9" y="210.3" class="st5" width="1.7" height="1.7"/>
					<rect x="330.9" y="213.3" class="st5" width="1.7" height="1.7"/>
					<rect x="330.9" y="222" class="st5" width="1.7" height="1.7"/>
					<rect x="330.9" y="224.9" class="st5" width="1.7" height="1.7"/>
					<rect x="330.9" y="227.8" class="st5" width="1.7" height="1.7"/>
					<rect x="330.9" y="230.8" class="st5" width="1.7" height="1.7"/>
					<rect x="330.9" y="233.7" class="st5" width="1.7" height="1.7"/>
					<rect x="330.9" y="245.3" class="st5" width="1.7" height="1.7"/>
					<rect x="328.1" y="187" class="st5" width="1.7" height="1.7"/>
					<rect x="328.1" y="189.9" class="st5" width="1.7" height="1.7"/>
					<rect x="328.1" y="192.9" class="st5" width="1.7" height="1.7"/>
					<rect x="328.1" y="195.8" class="st5" width="1.7" height="1.7"/>
					<rect x="328.1" y="198.7" class="st5" width="1.7" height="1.7"/>
					<rect x="328.1" y="201.6" class="st5" width="1.7" height="1.7"/>
					<rect x="328.1" y="204.5" class="st5" width="1.7" height="1.7"/>
					<rect x="328.1" y="207.4" class="st5" width="1.7" height="1.7"/>
					<rect x="328.1" y="210.3" class="st5" width="1.7" height="1.7"/>
					<rect x="328.1" y="213.3" class="st5" width="1.7" height="1.7"/>
					<rect x="328.1" y="216.2" class="st5" width="1.7" height="1.7"/>
					<rect x="328.1" y="219.1" class="st5" width="1.7" height="1.7"/>
					<rect x="328.1" y="222" class="st5" width="1.7" height="1.7"/>
					<rect x="328.1" y="224.9" class="st5" width="1.7" height="1.7"/>
					<rect x="328.1" y="227.8" class="st5" width="1.7" height="1.7"/>
					<rect x="328.1" y="230.8" class="st5" width="1.7" height="1.7"/>
					<rect x="328.1" y="233.7" class="st5" width="1.7" height="1.7"/>
					<rect x="328.1" y="236.6" class="st5" width="1.7" height="1.7"/>
					<rect x="325.3" y="187" class="st5" width="1.7" height="1.7"/>
					<rect x="325.3" y="189.9" class="st5" width="1.7" height="1.7"/>
					<rect x="325.3" y="192.9" class="st5" width="1.7" height="1.7"/>
					<rect x="325.3" y="195.8" class="st5" width="1.7" height="1.7"/>
					<rect x="325.3" y="198.7" class="st5" width="1.7" height="1.7"/>
					<rect x="325.3" y="201.6" class="st5" width="1.7" height="1.7"/>
					<rect x="325.3" y="204.5" class="st5" width="1.7" height="1.7"/>
					<rect x="325.3" y="207.4" class="st5" width="1.7" height="1.7"/>
					<rect x="325.3" y="210.3" class="st5" width="1.7" height="1.7"/>
					<rect x="325.3" y="213.3" class="st5" width="1.7" height="1.7"/>
					<rect x="325.3" y="222" class="st5" width="1.7" height="1.7"/>
					<rect x="325.3" y="224.9" class="st5" width="1.7" height="1.7"/>
					<rect x="325.3" y="227.8" class="st5" width="1.7" height="1.7"/>
					<rect x="325.3" y="230.8" class="st5" width="1.7" height="1.7"/>
					<rect x="322.6" y="187" class="st5" width="1.7" height="1.7"/>
					<rect x="322.6" y="189.9" class="st5" width="1.7" height="1.7"/>
					<rect x="322.6" y="192.9" class="st5" width="1.7" height="1.7"/>
					<rect x="322.6" y="195.8" class="st5" width="1.7" height="1.7"/>
					<rect x="322.6" y="198.7" class="st5" width="1.7" height="1.7"/>
					<rect x="322.6" y="201.6" class="st5" width="1.7" height="1.7"/>
					<rect x="322.6" y="204.5" class="st5" width="1.7" height="1.7"/>
					<rect x="322.6" y="207.4" class="st5" width="1.7" height="1.7"/>
					<rect x="322.6" y="210.3" class="st5" width="1.7" height="1.7"/>
					<rect x="322.6" y="213.3" class="st5" width="1.7" height="1.7"/>
					<rect x="322.6" y="222" class="st5" width="1.7" height="1.7"/>
					<rect x="322.6" y="224.9" class="st5" width="1.7" height="1.7"/>
					<rect x="322.6" y="227.8" class="st5" width="1.7" height="1.7"/>
					<rect x="291.5" y="179.4" class="st5" width="1.7" height="1.7"/>
					<rect x="291.5" y="182.4" class="st5" width="1.7" height="1.7"/>
					<rect x="291.5" y="185.3" class="st5" width="1.7" height="1.7"/>
					<rect x="291.5" y="188.2" class="st5" width="1.7" height="1.7"/>
					<rect x="291.5" y="191.1" class="st5" width="1.7" height="1.7"/>
					<rect x="291.5" y="194" class="st5" width="1.7" height="1.7"/>
					<rect x="291.5" y="196.9" class="st5" width="1.7" height="1.7"/>
					<rect x="291.5" y="199.9" class="st5" width="1.7" height="1.7"/>
					<rect x="291.5" y="208.6" class="st5" width="1.7" height="1.7"/>
					<rect x="291.5" y="211.5" class="st5" width="1.7" height="1.7"/>
					<rect x="288.7" y="179.4" class="st5" width="1.7" height="1.7"/>
					<rect x="288.7" y="182.4" class="st5" width="1.7" height="1.7"/>
					<rect x="288.7" y="185.3" class="st5" width="1.7" height="1.7"/>
					<rect x="288.7" y="188.2" class="st5" width="1.7" height="1.7"/>
					<rect x="288.7" y="191.1" class="st5" width="1.7" height="1.7"/>
					<rect x="288.7" y="194" class="st5" width="1.7" height="1.7"/>
					<rect x="288.7" y="196.9" class="st5" width="1.7" height="1.7"/>
					<rect x="288.7" y="199.9" class="st5" width="1.7" height="1.7"/>
					<rect x="288.7" y="211.5" class="st5" width="1.7" height="1.7"/>
					<rect x="285.9" y="179.4" class="st5" width="1.7" height="1.7"/>
					<rect x="285.9" y="182.4" class="st5" width="1.7" height="1.7"/>
					<rect x="285.9" y="185.3" class="st5" width="1.7" height="1.7"/>
					<rect x="285.9" y="188.2" class="st5" width="1.7" height="1.7"/>
					<rect x="285.9" y="191.1" class="st5" width="1.7" height="1.7"/>
					<rect x="285.9" y="194" class="st5" width="1.7" height="1.7"/>
					<rect x="285.9" y="196.9" class="st5" width="1.7" height="1.7"/>
					<rect x="285.9" y="199.9" class="st5" width="1.7" height="1.7"/>
					<rect x="283.2" y="179.4" class="st5" width="1.7" height="1.7"/>
					<rect x="283.2" y="182.4" class="st5" width="1.7" height="1.7"/>
					<rect x="283.2" y="185.3" class="st5" width="1.7" height="1.7"/>
					<rect x="283.2" y="188.2" class="st5" width="1.7" height="1.7"/>
					<rect x="283.2" y="191.1" class="st5" width="1.7" height="1.7"/>
					<rect x="283.2" y="194" class="st5" width="1.7" height="1.7"/>
					<rect x="283.2" y="199.9" class="st5" width="1.7" height="1.7"/>
					<rect x="283.2" y="202.8" class="st5" width="1.7" height="1.7"/>
					<rect x="283.2" y="211.5" class="st5" width="1.7" height="1.7"/>
					<rect x="283.2" y="214.4" class="st5" width="1.7" height="1.7"/>
					<rect x="283.2" y="217.4" class="st5" width="1.7" height="1.7"/>
					<rect x="283.2" y="220.3" class="st5" width="1.7" height="1.7"/>
					<rect x="283.2" y="223.2" class="st5" width="1.7" height="1.7"/>
					<rect x="283.2" y="226.1" class="st5" width="1.7" height="1.7"/>
					<rect x="283.2" y="229" class="st5" width="1.7" height="1.7"/>
					<rect x="280.4" y="179.4" class="st5" width="1.7" height="1.7"/>
					<rect x="280.4" y="182.4" class="st5" width="1.7" height="1.7"/>
					<rect x="280.4" y="185.3" class="st5" width="1.7" height="1.7"/>
					<rect x="280.4" y="188.2" class="st5" width="1.7" height="1.7"/>
					<rect x="280.4" y="191.1" class="st5" width="1.7" height="1.7"/>
					<rect x="280.4" y="194" class="st5" width="1.7" height="1.7"/>
					<rect x="280.4" y="202.8" class="st5" width="1.7" height="1.7"/>
					<rect x="280.4" y="205.7" class="st5" width="1.7" height="1.7"/>
					<rect x="280.4" y="208.6" class="st5" width="1.7" height="1.7"/>
					<rect x="280.4" y="211.5" class="st5" width="1.7" height="1.7"/>
					<rect x="280.4" y="214.4" class="st5" width="1.7" height="1.7"/>
					<rect x="280.4" y="217.4" class="st5" width="1.7" height="1.7"/>
					<rect x="280.4" y="220.3" class="st5" width="1.7" height="1.7"/>
					<rect x="280.4" y="223.2" class="st5" width="1.7" height="1.7"/>
					<rect x="280.4" y="226.1" class="st5" width="1.7" height="1.7"/>
					<rect x="280.4" y="229" class="st5" width="1.7" height="1.7"/>
					<rect x="280.4" y="231.9" class="st5" width="1.7" height="1.7"/>
					<rect x="280.4" y="237.8" class="st5" width="1.7" height="1.7"/>
					<rect x="277.6" y="179.4" class="st5" width="1.7" height="1.7"/>
					<rect x="277.6" y="182.4" class="st5" width="1.7" height="1.7"/>
					<rect x="277.6" y="185.3" class="st5" width="1.7" height="1.7"/>
					<rect x="277.6" y="188.2" class="st5" width="1.7" height="1.7"/>
					<rect x="277.6" y="191.1" class="st5" width="1.7" height="1.7"/>
					<rect x="277.6" y="194" class="st5" width="1.7" height="1.7"/>
					<rect x="277.6" y="202.8" class="st5" width="1.7" height="1.7"/>
					<rect x="277.6" y="205.7" class="st5" width="1.7" height="1.7"/>
					<rect x="277.6" y="208.6" class="st5" width="1.7" height="1.7"/>
					<rect x="277.6" y="211.5" class="st5" width="1.7" height="1.7"/>
					<rect x="277.6" y="220.3" class="st5" width="1.7" height="1.7"/>
					<rect x="277.6" y="223.2" class="st5" width="1.7" height="1.7"/>
					<rect x="277.6" y="226.1" class="st5" width="1.7" height="1.7"/>
					<rect x="277.6" y="229" class="st5" width="1.7" height="1.7"/>
					<rect x="277.6" y="231.9" class="st5" width="1.7" height="1.7"/>
					<rect x="277.6" y="237.8" class="st5" width="1.7" height="1.7"/>
					<rect x="277.6" y="240.7" class="st5" width="1.7" height="1.7"/>
					<rect x="252.6" y="206.6" class="st5" width="1.7" height="1.7"/>
					<rect x="252.6" y="209.5" class="st5" width="1.7" height="1.7"/>
					<rect x="252.6" y="212.4" class="st5" width="1.7" height="1.7"/>
					<rect x="252.6" y="215.3" class="st5" width="1.7" height="1.7"/>
					<rect x="252.6" y="218.2" class="st5" width="1.7" height="1.7"/>
					<rect x="252.6" y="221.1" class="st5" width="1.7" height="1.7"/>
					<rect x="252.6" y="224.1" class="st5" width="1.7" height="1.7"/>
					<rect x="252.6" y="232.8" class="st5" width="1.7" height="1.7"/>
					<rect x="252.6" y="235.7" class="st5" width="1.7" height="1.7"/>
					<rect x="252.6" y="238.6" class="st5" width="1.7" height="1.7"/>
					<rect x="249.8" y="206.6" class="st5" width="1.7" height="1.7"/>
					<rect x="249.8" y="209.5" class="st5" width="1.7" height="1.7"/>
					<rect x="249.8" y="212.4" class="st5" width="1.7" height="1.7"/>
					<rect x="249.8" y="215.3" class="st5" width="1.7" height="1.7"/>
					<rect x="249.8" y="218.2" class="st5" width="1.7" height="1.7"/>
					<rect x="249.8" y="221.1" class="st5" width="1.7" height="1.7"/>
					<rect x="249.8" y="224.1" class="st5" width="1.7" height="1.7"/>
					<rect x="246.3" y="206.6" class="st5" width="2.5" height="1.7"/>
					<rect x="246.3" y="209.5" class="st5" width="2.5" height="1.7"/>
					<rect x="246.3" y="212.4" class="st5" width="2.5" height="1.7"/>
					<rect x="246.3" y="215.3" class="st5" width="2.5" height="1.7"/>
					<rect x="246.3" y="218.2" class="st5" width="2.5" height="1.7"/>
					<rect x="246.3" y="221.1" class="st5" width="2.5" height="1.7"/>
					<rect x="246.3" y="224.1" class="st5" width="2.5" height="1.7"/>
					<rect x="399" y="210.3" class="st5" width="1.7" height="1.7"/>
					<rect x="399" y="213.3" class="st5" width="1.7" height="1.7"/>
					<rect x="399" y="216.2" class="st5" width="1.7" height="1.7"/>
					<rect x="399" y="219.1" class="st5" width="1.7" height="1.7"/>
					<rect x="399" y="222" class="st5" width="1.7" height="1.7"/>
					<rect x="399" y="224.9" class="st5" width="1.7" height="1.7"/>
					<rect x="399" y="227.8" class="st5" width="1.7" height="1.7"/>
					<rect x="399" y="230.8" class="st5" width="1.7" height="1.7"/>
					<rect x="399" y="233.7" class="st5" width="1.7" height="1.7"/>
					<rect x="399" y="236.6" class="st5" width="1.7" height="1.7"/>
					<rect x="399" y="239.5" class="st5" width="1.7" height="1.7"/>
					<rect x="399" y="242.4" class="st5" width="1.7" height="1.7"/>
					<rect x="399" y="245.3" class="st5" width="1.7" height="1.7"/>
					<rect x="399" y="248.3" class="st5" width="1.7" height="1.7"/>
					<rect x="399" y="251.2" class="st5" width="1.7" height="1.7"/>
					<rect x="399" y="254.1" class="st5" width="1.7" height="1.7"/>
					<rect x="399" y="257" class="st5" width="1.7" height="1.7"/>
					<rect x="399" y="259.9" class="st5" width="1.7" height="1.7"/>
					<rect x="399" y="262.8" class="st5" width="1.7" height="1.7"/>
					<rect x="399" y="265.8" class="st5" width="1.7" height="1.7"/>
					<rect x="396.2" y="210.3" class="st5" width="1.7" height="1.7"/>
					<rect x="396.2" y="213.3" class="st5" width="1.7" height="1.7"/>
					<rect x="396.2" y="216.2" class="st5" width="1.7" height="1.7"/>
					<rect x="396.2" y="219.1" class="st5" width="1.7" height="1.7"/>
					<rect x="396.2" y="222" class="st5" width="1.7" height="1.7"/>
					<rect x="396.2" y="224.9" class="st5" width="1.7" height="1.7"/>
					<rect x="396.2" y="227.8" class="st5" width="1.7" height="1.7"/>
					<rect x="396.2" y="230.8" class="st5" width="1.7" height="1.7"/>
					<rect x="396.2" y="233.7" class="st5" width="1.7" height="1.7"/>
					<rect x="396.2" y="236.6" class="st5" width="1.7" height="1.7"/>
					<rect x="396.2" y="239.5" class="st5" width="1.7" height="1.7"/>
					<rect x="396.2" y="242.4" class="st5" width="1.7" height="1.7"/>
					<rect x="396.2" y="245.3" class="st5" width="1.7" height="1.7"/>
					<rect x="396.2" y="248.3" class="st5" width="1.7" height="1.7"/>
					<rect x="396.2" y="251.2" class="st5" width="1.7" height="1.7"/>
					<rect x="396.2" y="254.1" class="st5" width="1.7" height="1.7"/>
					<rect x="396.2" y="257" class="st5" width="1.7" height="1.7"/>
					<rect x="396.2" y="259.9" class="st5" width="1.7" height="1.7"/>
					<rect x="393.5" y="210.3" class="st5" width="1.7" height="1.7"/>
					<rect x="393.5" y="213.3" class="st5" width="1.7" height="1.7"/>
					<rect x="393.5" y="216.2" class="st5" width="1.7" height="1.7"/>
					<rect x="393.5" y="219.1" class="st5" width="1.7" height="1.7"/>
					<rect x="393.5" y="222" class="st5" width="1.7" height="1.7"/>
					<rect x="393.5" y="224.9" class="st5" width="1.7" height="1.7"/>
					<rect x="393.5" y="227.8" class="st5" width="1.7" height="1.7"/>
					<rect x="393.5" y="230.8" class="st5" width="1.7" height="1.7"/>
					<rect x="393.5" y="233.7" class="st5" width="1.7" height="1.7"/>
					<rect x="393.5" y="236.6" class="st5" width="1.7" height="1.7"/>
					<rect x="393.5" y="239.5" class="st5" width="1.7" height="1.7"/>
					<rect x="393.5" y="242.4" class="st5" width="1.7" height="1.7"/>
					<rect x="393.5" y="245.3" class="st5" width="1.7" height="1.7"/>
					<rect x="393.5" y="248.3" class="st5" width="1.7" height="1.7"/>
					<rect x="393.5" y="251.2" class="st5" width="1.7" height="1.7"/>
					<rect x="393.5" y="254.1" class="st5" width="1.7" height="1.7"/>
					<rect x="393.5" y="257" class="st5" width="1.7" height="1.7"/>
					<rect x="393.5" y="259.9" class="st5" width="1.7" height="1.7"/>
					<rect x="409.3" y="231.6" class="st5" width="1.7" height="1.7"/>
					<rect x="409.3" y="234.5" class="st5" width="1.7" height="1.7"/>
					<rect x="409.3" y="237.5" class="st5" width="1.7" height="1.7"/>
					<rect x="409.3" y="240.4" class="st5" width="1.7" height="1.7"/>
					<rect x="409.3" y="243.3" class="st5" width="1.7" height="1.7"/>
					<rect x="409.3" y="246.2" class="st5" width="1.7" height="1.7"/>
					<rect x="409.3" y="249.1" class="st5" width="1.7" height="1.7"/>
					<rect x="409.3" y="252" class="st5" width="1.7" height="1.7"/>
					<rect x="409.3" y="255" class="st5" width="1.7" height="1.7"/>
					<rect x="409.3" y="257.9" class="st5" width="1.7" height="1.7"/>
					<rect x="409.3" y="260.8" class="st5" width="1.7" height="1.7"/>
					<rect x="409.3" y="263.7" class="st5" width="1.7" height="1.7"/>
					<rect x="409.3" y="266.6" class="st5" width="1.7" height="1.7"/>
					<rect x="406.6" y="231.6" class="st5" width="1.7" height="1.7"/>
					<rect x="406.6" y="234.5" class="st5" width="1.7" height="1.7"/>
					<rect x="406.6" y="237.5" class="st5" width="1.7" height="1.7"/>
					<rect x="406.6" y="240.4" class="st5" width="1.7" height="1.7"/>
					<rect x="406.6" y="243.3" class="st5" width="1.7" height="1.7"/>
					<rect x="406.6" y="246.2" class="st5" width="1.7" height="1.7"/>
					<rect x="406.6" y="249.1" class="st5" width="1.7" height="1.7"/>
					<rect x="406.6" y="252" class="st5" width="1.7" height="1.7"/>
					<rect x="406.6" y="255" class="st5" width="1.7" height="1.7"/>
					<rect x="406.6" y="257.9" class="st5" width="1.7" height="1.7"/>
					<rect x="406.6" y="260.8" class="st5" width="1.7" height="1.7"/>
					<rect x="406.6" y="263.7" class="st5" width="1.7" height="1.7"/>
					<rect x="406.6" y="266.6" class="st5" width="1.7" height="1.7"/>
					<rect x="403.8" y="231.6" class="st5" width="1.7" height="1.7"/>
					<rect x="403.8" y="234.5" class="st5" width="1.7" height="1.7"/>
					<rect x="403.8" y="237.5" class="st5" width="1.7" height="1.7"/>
					<rect x="403.8" y="240.4" class="st5" width="1.7" height="1.7"/>
					<rect x="403.8" y="243.3" class="st5" width="1.7" height="1.7"/>
					<rect x="403.8" y="246.2" class="st5" width="1.7" height="1.7"/>
					<rect x="403.8" y="249.1" class="st5" width="1.7" height="1.7"/>
					<rect x="403.8" y="252" class="st5" width="1.7" height="1.7"/>
					<rect x="403.8" y="255" class="st5" width="1.7" height="1.7"/>
					<rect x="403.8" y="257.9" class="st5" width="1.7" height="1.7"/>
					<rect x="403.8" y="260.8" class="st5" width="1.7" height="1.7"/>
					<rect x="403.8" y="263.7" class="st5" width="1.7" height="1.7"/>
					<rect x="403.8" y="266.6" class="st5" width="1.7" height="1.7"/>
					<rect x="403.8" y="269.5" class="st5" width="1.7" height="1.7"/>
					<rect x="388.5" y="232.5" class="st5" width="1.7" height="1.7"/>
					<rect x="388.5" y="235.4" class="st5" width="1.7" height="1.7"/>
					<rect x="388.5" y="238.3" class="st5" width="1.7" height="1.7"/>
					<rect x="388.5" y="241.2" class="st5" width="1.7" height="1.7"/>
					<rect x="388.5" y="244.2" class="st5" width="1.7" height="1.7"/>
					<rect x="388.5" y="247.1" class="st5" width="1.7" height="1.7"/>
					<rect x="388.5" y="250" class="st5" width="1.7" height="1.7"/>
					<rect x="388.5" y="252.9" class="st5" width="1.7" height="1.7"/>
					<rect x="388.5" y="255.8" class="st5" width="1.7" height="1.7"/>
					<rect x="388.5" y="258.7" class="st5" width="1.7" height="1.7"/>
					<rect x="388.5" y="267.5" class="st5" width="1.7" height="1.7"/>
					<rect x="385.7" y="232.5" class="st5" width="1.7" height="1.7"/>
					<rect x="385.7" y="235.4" class="st5" width="1.7" height="1.7"/>
					<rect x="385.7" y="238.3" class="st5" width="1.7" height="1.7"/>
					<rect x="385.7" y="241.2" class="st5" width="1.7" height="1.7"/>
					<rect x="385.7" y="244.2" class="st5" width="1.7" height="1.7"/>
					<rect x="385.7" y="247.1" class="st5" width="1.7" height="1.7"/>
					<rect x="385.7" y="250" class="st5" width="1.7" height="1.7"/>
					<rect x="385.7" y="252.9" class="st5" width="1.7" height="1.7"/>
					<rect x="385.7" y="255.8" class="st5" width="1.7" height="1.7"/>
					<rect x="385.7" y="264.6" class="st5" width="1.7" height="1.7"/>
					<rect x="385.7" y="267.5" class="st5" width="1.7" height="1.7"/>
					<rect x="382.9" y="232.5" class="st5" width="1.7" height="1.7"/>
					<rect x="382.9" y="235.4" class="st5" width="1.7" height="1.7"/>
					<rect x="382.9" y="238.3" class="st5" width="1.7" height="1.7"/>
					<rect x="382.9" y="241.2" class="st5" width="1.7" height="1.7"/>
					<rect x="382.9" y="244.2" class="st5" width="1.7" height="1.7"/>
					<rect x="382.9" y="247.1" class="st5" width="1.7" height="1.7"/>
					<rect x="382.9" y="250" class="st5" width="1.7" height="1.7"/>
					<rect x="382.9" y="252.9" class="st5" width="1.7" height="1.7"/>
					<rect x="382.9" y="261.7" class="st5" width="1.7" height="1.7"/>
					<rect x="382.9" y="264.6" class="st5" width="1.7" height="1.7"/>
					<rect x="382.9" y="267.5" class="st5" width="1.7" height="1.7"/>
					<rect x="357.2" y="188.2" class="st5" width="1.7" height="1.7"/>
					<rect x="357.2" y="191.1" class="st5" width="1.7" height="1.7"/>
					<rect x="357.2" y="194" class="st5" width="1.7" height="1.7"/>
					<rect x="357.2" y="196.9" class="st5" width="1.7" height="1.7"/>
					<rect x="357.2" y="199.9" class="st5" width="1.7" height="1.7"/>
					<rect x="357.2" y="202.8" class="st5" width="1.7" height="1.7"/>
					<rect x="357.2" y="205.7" class="st5" width="1.7" height="1.7"/>
					<rect x="357.2" y="208.6" class="st5" width="1.7" height="1.7"/>
					<rect x="357.2" y="211.5" class="st5" width="1.7" height="1.7"/>
					<rect x="357.2" y="214.4" class="st5" width="1.7" height="1.7"/>
					<rect x="357.2" y="217.4" class="st5" width="1.7" height="1.7"/>
					<rect x="357.2" y="220.3" class="st5" width="1.7" height="1.7"/>
					<rect x="357.2" y="223.2" class="st5" width="1.7" height="1.7"/>
					<rect x="357.2" y="226.1" class="st5" width="1.7" height="1.7"/>
					<rect x="357.2" y="229" class="st5" width="1.7" height="1.7"/>
					<rect x="357.2" y="231.9" class="st5" width="1.7" height="1.7"/>
					<rect x="357.2" y="234.9" class="st5" width="1.7" height="1.7"/>
					<rect x="357.2" y="240.7" class="st5" width="1.7" height="1.7"/>
					<rect x="357.2" y="243.6" class="st5" width="1.7" height="1.7"/>
					<rect x="357.2" y="246.5" class="st5" width="1.7" height="1.7"/>
					<rect x="357.2" y="249.4" class="st5" width="1.7" height="1.7"/>
					<rect x="357.2" y="252.4" class="st5" width="1.7" height="1.7"/>
					<rect x="354.5" y="188.2" class="st5" width="1.7" height="1.7"/>
					<rect x="354.5" y="191.1" class="st5" width="1.7" height="1.7"/>
					<rect x="354.5" y="194" class="st5" width="1.7" height="1.7"/>
					<rect x="354.5" y="196.9" class="st5" width="1.7" height="1.7"/>
					<rect x="354.5" y="199.9" class="st5" width="1.7" height="1.7"/>
					<rect x="354.5" y="202.8" class="st5" width="1.7" height="1.7"/>
					<rect x="354.5" y="205.7" class="st5" width="1.7" height="1.7"/>
					<rect x="354.5" y="208.6" class="st5" width="1.7" height="1.7"/>
					<rect x="354.5" y="211.5" class="st5" width="1.7" height="1.7"/>
					<rect x="354.5" y="214.4" class="st5" width="1.7" height="1.7"/>
					<rect x="354.5" y="217.4" class="st5" width="1.7" height="1.7"/>
					<rect x="354.5" y="220.3" class="st5" width="1.7" height="1.7"/>
					<rect x="354.5" y="223.2" class="st5" width="1.7" height="1.7"/>
					<rect x="354.5" y="226.1" class="st5" width="1.7" height="1.7"/>
					<rect x="354.5" y="229" class="st5" width="1.7" height="1.7"/>
					<rect x="354.5" y="231.9" class="st5" width="1.7" height="1.7"/>
					<rect x="354.5" y="249.4" class="st5" width="1.7" height="1.7"/>
					<rect x="354.5" y="252.4" class="st5" width="1.7" height="1.7"/>
					<rect x="351.7" y="188.2" class="st5" width="1.7" height="1.7"/>
					<rect x="351.7" y="191.1" class="st5" width="1.7" height="1.7"/>
					<rect x="351.7" y="194" class="st5" width="1.7" height="1.7"/>
					<rect x="351.7" y="196.9" class="st5" width="1.7" height="1.7"/>
					<rect x="351.7" y="199.9" class="st5" width="1.7" height="1.7"/>
					<rect x="351.7" y="202.8" class="st5" width="1.7" height="1.7"/>
					<rect x="351.7" y="205.7" class="st5" width="1.7" height="1.7"/>
					<rect x="351.7" y="208.6" class="st5" width="1.7" height="1.7"/>
					<rect x="351.7" y="211.5" class="st5" width="1.7" height="1.7"/>
					<rect x="351.7" y="214.4" class="st5" width="1.7" height="1.7"/>
					<rect x="351.7" y="217.4" class="st5" width="1.7" height="1.7"/>
					<rect x="351.7" y="220.3" class="st5" width="1.7" height="1.7"/>
					<rect x="351.7" y="223.2" class="st5" width="1.7" height="1.7"/>
					<rect x="351.7" y="226.1" class="st5" width="1.7" height="1.7"/>
					<rect x="351.7" y="229" class="st5" width="1.7" height="1.7"/>
					<rect x="351.7" y="231.9" class="st5" width="1.7" height="1.7"/>
					<rect x="351.7" y="237.8" class="st5" width="1.7" height="1.7"/>
					<rect x="351.7" y="240.7" class="st5" width="1.7" height="1.7"/>
					<rect x="351.7" y="243.6" class="st5" width="1.7" height="1.7"/>
					<rect x="351.7" y="246.5" class="st5" width="1.7" height="1.7"/>
					<rect x="351.7" y="252.4" class="st5" width="1.7" height="1.7"/>
					<rect x="367.3" y="224.9" class="st5" width="1.7" height="1.7"/>
					<rect x="367.3" y="227.8" class="st5" width="1.7" height="1.7"/>
					<rect x="367.3" y="230.8" class="st5" width="1.7" height="1.7"/>
					<rect x="367.3" y="233.7" class="st5" width="1.7" height="1.7"/>
					<rect x="367.3" y="236.6" class="st5" width="1.7" height="1.7"/>
					<rect x="367.3" y="239.5" class="st5" width="1.7" height="1.7"/>
					<rect x="367.3" y="242.4" class="st5" width="1.7" height="1.7"/>
					<rect x="367.3" y="248.3" class="st5" width="1.7" height="1.7"/>
					<rect x="367.3" y="251.2" class="st5" width="1.7" height="1.7"/>
					<rect x="367.3" y="254.1" class="st5" width="1.7" height="1.7"/>
					<rect x="367.3" y="257" class="st5" width="1.7" height="1.7"/>
					<rect x="367.3" y="259.9" class="st5" width="1.7" height="1.7"/>
					<rect x="367.3" y="262.8" class="st5" width="1.7" height="1.7"/>
					<rect x="367.3" y="265.8" class="st5" width="1.7" height="1.7"/>
					<rect x="367.3" y="268.7" class="st5" width="1.7" height="1.7"/>
					<rect x="364.5" y="224.9" class="st5" width="1.7" height="1.7"/>
					<rect x="364.5" y="227.8" class="st5" width="1.7" height="1.7"/>
					<rect x="364.5" y="230.8" class="st5" width="1.7" height="1.7"/>
					<rect x="364.5" y="233.7" class="st5" width="1.7" height="1.7"/>
					<rect x="364.5" y="236.6" class="st5" width="1.7" height="1.7"/>
					<rect x="364.5" y="239.5" class="st5" width="1.7" height="1.7"/>
					<rect x="364.5" y="248.3" class="st5" width="1.7" height="1.7"/>
					<rect x="364.5" y="251.2" class="st5" width="1.7" height="1.7"/>
					<rect x="364.5" y="254.1" class="st5" width="1.7" height="1.7"/>
					<rect x="364.5" y="257" class="st5" width="1.7" height="1.7"/>
					<rect x="364.5" y="259.9" class="st5" width="1.7" height="1.7"/>
					<rect x="364.5" y="262.8" class="st5" width="1.7" height="1.7"/>
					<rect x="364.5" y="265.8" class="st5" width="1.7" height="1.7"/>
					<rect x="364.5" y="268.7" class="st5" width="1.7" height="1.7"/>
					<rect x="361.8" y="224.9" class="st5" width="1.7" height="1.7"/>
					<rect x="361.8" y="227.8" class="st5" width="1.7" height="1.7"/>
					<rect x="361.8" y="230.8" class="st5" width="1.7" height="1.7"/>
					<rect x="361.8" y="233.7" class="st5" width="1.7" height="1.7"/>
					<rect x="361.8" y="236.6" class="st5" width="1.7" height="1.7"/>
					<rect x="361.8" y="239.5" class="st5" width="1.7" height="1.7"/>
					<rect x="361.8" y="245.3" class="st5" width="1.7" height="1.7"/>
					<rect x="361.8" y="248.3" class="st5" width="1.7" height="1.7"/>
					<rect x="361.8" y="251.2" class="st5" width="1.7" height="1.7"/>
					<rect x="361.8" y="254.1" class="st5" width="1.7" height="1.7"/>
					<rect x="361.8" y="257" class="st5" width="1.7" height="1.7"/>
					<rect x="361.8" y="259.9" class="st5" width="1.7" height="1.7"/>
					<rect x="361.8" y="262.8" class="st5" width="1.7" height="1.7"/>
					<rect x="361.8" y="265.8" class="st5" width="1.7" height="1.7"/>
					<rect x="361.8" y="268.7" class="st5" width="1.7" height="1.7"/>
					<rect x="303.5" y="208.6" class="st5" width="1.7" height="1.7"/>
					<rect x="303.5" y="211.5" class="st5" width="1.7" height="1.7"/>
					<rect x="303.5" y="214.4" class="st5" width="1.7" height="1.7"/>
					<rect x="303.5" y="217.4" class="st5" width="1.7" height="1.7"/>
					<rect x="303.5" y="220.3" class="st5" width="1.7" height="1.7"/>
					<rect x="303.5" y="223.2" class="st5" width="1.7" height="1.7"/>
					<rect x="303.5" y="226.1" class="st5" width="1.7" height="1.7"/>
					<rect x="303.5" y="229" class="st5" width="1.7" height="1.7"/>
					<rect x="303.5" y="231.9" class="st5" width="1.7" height="1.7"/>
					<rect x="303.5" y="234.9" class="st5" width="1.7" height="1.7"/>
					<rect x="303.5" y="237.8" class="st5" width="1.7" height="1.7"/>
					<rect x="303.5" y="240.7" class="st5" width="1.7" height="1.7"/>
					<rect x="303.5" y="243.6" class="st5" width="1.7" height="1.7"/>
					<rect x="303.5" y="249.4" class="st5" width="1.7" height="1.7"/>
					<rect x="303.5" y="252.4" class="st5" width="1.7" height="1.7"/>
					<rect x="303.5" y="255.3" class="st5" width="1.7" height="1.7"/>
					<rect x="303.5" y="258.2" class="st5" width="1.7" height="1.7"/>
					<rect x="303.5" y="264" class="st5" width="1.7" height="1.7"/>
					<rect x="303.5" y="266.9" class="st5" width="1.7" height="1.7"/>
					<rect x="303.5" y="269.8" class="st5" width="1.7" height="1.7"/>
					<rect x="300.8" y="208.6" class="st5" width="1.7" height="1.7"/>
					<rect x="300.8" y="211.5" class="st5" width="1.7" height="1.7"/>
					<rect x="300.8" y="214.4" class="st5" width="1.7" height="1.7"/>
					<rect x="300.8" y="217.4" class="st5" width="1.7" height="1.7"/>
					<rect x="300.8" y="220.3" class="st5" width="1.7" height="1.7"/>
					<rect x="300.8" y="223.2" class="st5" width="1.7" height="1.7"/>
					<rect x="300.8" y="226.1" class="st5" width="1.7" height="1.7"/>
					<rect x="300.8" y="229" class="st5" width="1.7" height="1.7"/>
					<rect x="300.8" y="231.9" class="st5" width="1.7" height="1.7"/>
					<rect x="300.8" y="234.9" class="st5" width="1.7" height="1.7"/>
					<rect x="300.8" y="237.8" class="st5" width="1.7" height="1.7"/>
					<rect x="300.8" y="240.7" class="st5" width="1.7" height="1.7"/>
					<rect x="300.8" y="243.6" class="st5" width="1.7" height="1.7"/>
					<rect x="300.8" y="252.4" class="st5" width="1.7" height="1.7"/>
					<rect x="300.8" y="255.3" class="st5" width="1.7" height="1.7"/>
					<rect x="300.8" y="261.1" class="st5" width="1.7" height="1.7"/>
					<rect x="300.8" y="264" class="st5" width="1.7" height="1.7"/>
					<rect x="300.8" y="266.9" class="st5" width="1.7" height="1.7"/>
					<rect x="300.8" y="269.8" class="st5" width="1.7" height="1.7"/>
					<rect x="298" y="208.6" class="st5" width="1.7" height="1.7"/>
					<rect x="298" y="211.5" class="st5" width="1.7" height="1.7"/>
					<rect x="298" y="214.4" class="st5" width="1.7" height="1.7"/>
					<rect x="298" y="217.4" class="st5" width="1.7" height="1.7"/>
					<rect x="298" y="220.3" class="st5" width="1.7" height="1.7"/>
					<rect x="298" y="223.2" class="st5" width="1.7" height="1.7"/>
					<rect x="298" y="226.1" class="st5" width="1.7" height="1.7"/>
					<rect x="298" y="229" class="st5" width="1.7" height="1.7"/>
					<rect x="298" y="231.9" class="st5" width="1.7" height="1.7"/>
					<rect x="298" y="234.9" class="st5" width="1.7" height="1.7"/>
					<rect x="298" y="237.8" class="st5" width="1.7" height="1.7"/>
					<rect x="298" y="240.7" class="st5" width="1.7" height="1.7"/>
					<rect x="298" y="243.6" class="st5" width="1.7" height="1.7"/>
					<rect x="298" y="246.5" class="st5" width="1.7" height="1.7"/>
					<rect x="298" y="252.4" class="st5" width="1.7" height="1.7"/>
					<rect x="298" y="258.2" class="st5" width="1.7" height="1.7"/>
					<rect x="298" y="261.1" class="st5" width="1.7" height="1.7"/>
					<rect x="298" y="264" class="st5" width="1.7" height="1.7"/>
					<rect x="298" y="266.9" class="st5" width="1.7" height="1.7"/>
					<rect x="298" y="269.8" class="st5" width="1.7" height="1.7"/>
					<rect x="314.8" y="225.2" class="st5" width="1.7" height="1.7"/>
					<rect x="314.8" y="228.2" class="st5" width="1.7" height="1.7"/>
					<rect x="314.8" y="231.1" class="st5" width="1.7" height="1.7"/>
					<rect x="314.8" y="234" class="st5" width="1.7" height="1.7"/>
					<rect x="314.8" y="236.9" class="st5" width="1.7" height="1.7"/>
					<rect x="314.8" y="239.8" class="st5" width="1.7" height="1.7"/>
					<rect x="314.8" y="248.6" class="st5" width="1.7" height="1.7"/>
					<rect x="314.8" y="251.5" class="st5" width="1.7" height="1.7"/>
					<rect x="314.8" y="254.4" class="st5" width="1.7" height="1.7"/>
					<rect x="314.8" y="257.3" class="st5" width="1.7" height="1.7"/>
					<rect x="314.8" y="260.2" class="st5" width="1.7" height="1.7"/>
					<rect x="314.8" y="263.1" class="st5" width="1.7" height="1.7"/>
					<rect x="314.8" y="266.1" class="st5" width="1.7" height="1.7"/>
					<rect x="312" y="225.2" class="st5" width="1.7" height="1.7"/>
					<rect x="312" y="228.2" class="st5" width="1.7" height="1.7"/>
					<rect x="312" y="231.1" class="st5" width="1.7" height="1.7"/>
					<rect x="312" y="234" class="st5" width="1.7" height="1.7"/>
					<rect x="312" y="236.9" class="st5" width="1.7" height="1.7"/>
					<rect x="312" y="239.8" class="st5" width="1.7" height="1.7"/>
					<rect x="312" y="248.6" class="st5" width="1.7" height="1.7"/>
					<rect x="312" y="251.5" class="st5" width="1.7" height="1.7"/>
					<rect x="312" y="254.4" class="st5" width="1.7" height="1.7"/>
					<rect x="312" y="257.3" class="st5" width="1.7" height="1.7"/>
					<rect x="312" y="260.2" class="st5" width="1.7" height="1.7"/>
					<rect x="312" y="263.1" class="st5" width="1.7" height="1.7"/>
					<rect x="312" y="269" class="st5" width="1.7" height="1.7"/>
				</g>
			</g>
			<g>
				<rect x="245.8" y="129.9" class="st4" width="3.5" height="189.5"/>
				<rect x="301.3" y="129.9" class="st4" width="2.9" height="189.5"/>
				<rect x="356.2" y="129.9" class="st4" width="2.9" height="189.5"/>
			</g>
		</g>
		<g>
			<circle class="st7" cx="141.7" cy="101.8" r="14.2"/>
			<circle class="st6" cx="141.7" cy="101.8" r="12"/>
			<g>
				<polyline class="st6" points="142.3,93.5 142.3,101.9 147.9,98.8 				"/>
				<path class="st7" d="M142.3,102.9c-0.2,0-0.3,0-0.5-0.1c-0.3-0.2-0.5-0.5-0.5-0.9v-8.4c0-0.6,0.4-1,1-1c0.6,0,1,0.4,1,1v6.7
					l4.1-2.3c0.5-0.3,1.1-0.1,1.4,0.4c0.3,0.5,0.1,1.1-0.4,1.4l-5.6,3.2C142.6,102.9,142.5,102.9,142.3,102.9z"/>
			</g>
		</g>
		<g>
			<rect x="78.5" y="202.6" class="st7" width="22.5" height="189"/>
			<rect x="98.5" y="202.6" class="st4" width="63.2" height="189"/>
			<rect x="105" y="209" class="st5" width="50.3" height="50.3"/>
			<path class="st7" d="M143.7,238.6h-27.2c-0.8,0-1.4-0.6-1.4-1.4l0,0c0-0.8,0.6-1.4,1.4-1.4h27.2c0.8,0,1.4,0.6,1.4,1.4l0,0
				C145.1,238,144.5,238.6,143.7,238.6z"/>
			<path class="st7" d="M143.7,244.1h-27.2c-0.8,0-1.4-0.6-1.4-1.4l0,0c0-0.8,0.6-1.4,1.4-1.4h27.2c0.8,0,1.4,0.6,1.4,1.4l0,0
				C145.1,243.5,144.5,244.1,143.7,244.1z"/>
			<path class="st7" d="M143.7,249.7h-27.2c-0.8,0-1.4-0.6-1.4-1.4l0,0c0-0.8,0.6-1.4,1.4-1.4h27.2c0.8,0,1.4,0.6,1.4,1.4l0,0
				C145.1,249,144.5,249.7,143.7,249.7z"/>
			<polygon class="st4" points="135.5,228.4 124.8,228.4 121.9,225.6 121.9,219.5 124.8,216.7 135.5,216.7 138.3,219.5 138.3,225.6 
							"/>
			<rect x="105" y="264.1" class="st5" width="50.3" height="50.3"/>
			<path class="st7" d="M143.7,293.7h-27.2c-0.8,0-1.4-0.6-1.4-1.4l0,0c0-0.8,0.6-1.4,1.4-1.4h27.2c0.8,0,1.4,0.6,1.4,1.4l0,0
				C145.1,293.1,144.5,293.7,143.7,293.7z"/>
			<path class="st7" d="M143.7,299.2h-27.2c-0.8,0-1.4-0.6-1.4-1.4l0,0c0-0.8,0.6-1.4,1.4-1.4h27.2c0.8,0,1.4,0.6,1.4,1.4l0,0
				C145.1,298.6,144.5,299.2,143.7,299.2z"/>
			<path class="st7" d="M143.7,304.8h-27.2c-0.8,0-1.4-0.6-1.4-1.4l0,0c0-0.8,0.6-1.4,1.4-1.4h27.2c0.8,0,1.4,0.6,1.4,1.4l0,0
				C145.1,304.1,144.5,304.8,143.7,304.8z"/>
			<polygon class="st4" points="135.5,283.5 124.8,283.5 121.9,280.7 121.9,274.6 124.8,271.8 135.5,271.8 138.3,274.6 138.3,280.7 
							"/>
			<rect x="105" y="319.2" class="st5" width="50.3" height="50.3"/>
			<path class="st7" d="M143.7,348.8h-27.2c-0.8,0-1.4-0.6-1.4-1.4l0,0c0-0.8,0.6-1.4,1.4-1.4h27.2c0.8,0,1.4,0.6,1.4,1.4l0,0
				C145.1,348.2,144.5,348.8,143.7,348.8z"/>
			<path class="st7" d="M143.7,354.3h-27.2c-0.8,0-1.4-0.6-1.4-1.4l0,0c0-0.8,0.6-1.4,1.4-1.4h27.2c0.8,0,1.4,0.6,1.4,1.4l0,0
				C145.1,353.7,144.5,354.3,143.7,354.3z"/>
			<path class="st7" d="M143.7,359.9h-27.2c-0.8,0-1.4-0.6-1.4-1.4l0,0c0-0.8,0.6-1.4,1.4-1.4h27.2c0.8,0,1.4,0.6,1.4,1.4l0,0
				C145.1,359.2,144.5,359.9,143.7,359.9z"/>
			<polygon class="st4" points="135.5,338.6 124.8,338.6 121.9,335.8 121.9,329.7 124.8,326.9 135.5,326.9 138.3,329.7 138.3,335.8 
							"/>
		</g>
		<ellipse id="_x3C_Path_x3E__359_" class="st8" cx="250" cy="425" rx="193.9" ry="11.3"/>
		<path class="st9" d="M385.1,333.2c0.2,1.5-3.8,2.4-7,3c0.3,2.7,2,5.4,4.5,7.9c3.1-1.7,7.5-4,8.3-3.5c0.9,0.6-3.6,3.5-6.4,5.2
			c2,1.8,4.2,3.4,6.4,4.8c1.4-1.3,3-2.4,4-1.8c1,0.6,0.7,2.6,0.2,4.4c3.4,2,5.9,3.1,5.9,3.1s1.4-4.3,2.2-9.5c-0.2-0.3-0.3-0.7-0.5-1
			c-0.5-1.3,0-1.8,0.9-2c0.2-2.3,0.3-4.7,0.1-6.9c-3.8-0.8-8.4-2.3-6.7-4.5c1-1.4,3-1.5,4.9-1.2c-0.3-0.5-0.6-0.9-0.9-1.3
			c-6.9-7.6-11.7,0-11.7,0c-4-3.3-9.7-2.4-10.9,2.8C380.5,332.2,384.8,331.4,385.1,333.2z"/>
		<g>
			<g>
				<path class="st10" d="M393.7,389.2l-1-0.1c0-0.5,4.1-51.5-7.4-56.3c-1.2-0.5-2.4-0.5-3.5,0.1c-4.1,2.2-6.1,11.1-6.1,11.2l-1-0.2
					c0.1-0.4,2.1-9.5,6.7-11.8c1.4-0.7,2.8-0.8,4.3-0.1C397.9,336.9,393.9,387,393.7,389.2z"/>
			</g>
			<g>
				<path class="st10" d="M395.1,388.1c-0.2-2.3-4.9-56.3,3.9-62c2.1-1.4,4-1.7,5.5-0.9c4.1,2.1,4.7,10.9,4.7,11.3l-1,0.1
					c0-0.1-0.5-8.6-4.1-10.4c-1.2-0.6-2.8-0.4-4.5,0.8c-8.2,5.4-3.5,60.5-3.4,61.1L395.1,388.1z"/>
			</g>
			<g>
				<path class="st10" d="M396.5,392.4c-0.1-1.8-1.5-43.1,6.5-46.7c1.6-0.7,3.2-0.7,4.7,0c5.5,2.4,8.8,12.6,9,13l-1,0.3
					c0-0.1-3.4-10.2-8.4-12.4c-1.3-0.6-2.6-0.6-3.9,0c-6.1,2.8-6.3,34-5.9,45.7L396.5,392.4z"/>
			</g>
			<g>
				<path class="st10" d="M394.4,390.5l-1-0.1c1.4-12.3,4.1-45.1-0.3-49c-0.7-0.6-1.2-0.8-1.8-0.6c-2.9,1.1-4.7,11.8-5.2,15.8
					l-1-0.1c0.2-1.5,1.8-15.1,5.8-16.6c0.9-0.4,1.9-0.1,2.8,0.7C399.5,345.7,394.6,388.7,394.4,390.5z"/>
			</g>
		</g>
		<g>
			<polygon class="st11" points="377.7,367.2 413.7,367.2 410.7,407.5 380.7,407.5 			"/>
		</g>
		<path class="st9" d="M382.6,352.4c-0.4,1-3.2,0.2-5.4-0.6c-0.8,1.7-0.6,4,0.1,6.4c2.5,0,6,0.1,6.3,0.7c0.3,0.7-3.4,0.9-5.8,1
			c0.6,1.8,1.4,3.5,2.3,5.2c1.3-0.3,2.7-0.5,3.1,0.2c0.4,0.7-0.5,1.9-1.4,2.8c1.4,2.4,2.5,4,2.5,4s2.3-2.2,4.7-5.1
			c0-0.3,0-0.5,0-0.8c0.1-1,0.6-1.1,1.2-0.9c0.9-1.3,1.8-2.8,2.4-4.2c-2.1-1.8-4.4-4.3-2.6-5.1c1.1-0.5,2.3,0.1,3.5,1
			c0-0.4-0.1-0.7-0.1-1.1c-1.7-7.1-7.2-4-7.2-4c-1.3-3.4-5.1-4.8-7.7-2C380.1,350.3,383.1,351.2,382.6,352.4z"/>
		<path class="st12" d="M382.6,352.4c-0.4,1-3.2,0.2-5.4-0.6c-0.8,1.7-0.6,4,0.1,6.4c2.5,0,6,0.1,6.3,0.7c0.3,0.7-3.4,0.9-5.8,1
			c0.6,1.8,1.4,3.5,2.3,5.2c1.3-0.3,2.7-0.5,3.1,0.2c0.4,0.7-0.5,1.9-1.4,2.8c1.4,2.4,2.5,4,2.5,4s2.3-2.2,4.7-5.1
			c0-0.3,0-0.5,0-0.8c0.1-1,0.6-1.1,1.2-0.9c0.9-1.3,1.8-2.8,2.4-4.2c-2.1-1.8-4.4-4.3-2.6-5.1c1.1-0.5,2.3,0.1,3.5,1
			c0-0.4-0.1-0.7-0.1-1.1c-1.7-7.1-7.2-4-7.2-4c-1.3-3.4-5.1-4.8-7.7-2C380.1,350.3,383.1,351.2,382.6,352.4z"/>
		<path class="st13" d="M409.3,357.2c-1.1,0.1-2.2,0.3-3.3,0.7c-0.3-0.8-0.5-1.5-0.5-2.4c-0.2-7.2,5-4.2,7.7-6.3
			c1.4-1.1,3-1.7,4.6-1.4c-0.2,0.4-0.4,0.8-0.6,1.2c-0.3,0.7,0.2,1.4,0.9,1.5c0.7,0.1,1.4,0.1,2-0.2c0.2-0.1,0.4-0.2,0.5-0.4
			c0.4,0.6,0.7,1.4,1,2.4c0.3,1,0.4,2.1,0.5,3.1c-0.4,0.1-0.8,0.2-1.2,0.3c-0.6,0.2-1,1.2-0.5,1.7c0.4,0.4,0.9,0.8,1.5,1
			c-0.2,1.2-0.5,2.3-0.9,3.4c-0.1,0-0.2,0-0.4,0.1c-0.3,0.1-0.5,0.1-0.8,0.2c-0.1,0-0.3,0.1-0.4,0.2c-0.4,0.2-0.6,0.5-0.7,0.9
			c-0.1,0.4,0.1,0.8,0.4,1c0.2,0.1,0.4,0.2,0.5,0.3c-0.8,1.3-1.8,2.3-2.9,2.9c0,0-1.3-0.6-3.1-1.6c0.2-0.3,0.4-0.6,0.6-0.9
			c0.2-0.4,0.3-0.7,0.3-1.1c0-0.4-0.3-0.8-0.6-1c-0.3-0.2-0.8-0.4-1.1-0.3c-0.4,0-0.8,0.3-1,0.6c-0.2,0.4-0.5,0.7-0.8,1
			c-1.3-1-2.6-2.2-3.7-3.6c0,0,0.1,0,0.1,0c0.7-0.2,1.4-0.3,2-0.3c0.9-0.1,1.4-0.9,1.3-1.7C411,357.7,410.1,357.2,409.3,357.2z"/>
		<path class="st14" d="M409.3,357.2c-1.1,0.1-2.2,0.3-3.3,0.7c-0.3-0.8-0.5-1.5-0.5-2.4c-0.2-7.2,5-4.2,7.7-6.3
			c1.4-1.1,3-1.7,4.6-1.4c-0.2,0.4-0.4,0.8-0.6,1.2c-0.3,0.7,0.2,1.4,0.9,1.5c0.7,0.1,1.4,0.1,2-0.2c0.2-0.1,0.4-0.2,0.5-0.4
			c0.4,0.6,0.7,1.4,1,2.4c0.3,1,0.4,2.1,0.5,3.1c-0.4,0.1-0.8,0.2-1.2,0.3c-0.6,0.2-1,1.2-0.5,1.7c0.4,0.4,0.9,0.8,1.5,1
			c-0.2,1.2-0.5,2.3-0.9,3.4c-0.1,0-0.2,0-0.4,0.1c-0.3,0.1-0.5,0.1-0.8,0.2c-0.1,0-0.3,0.1-0.4,0.2c-0.4,0.2-0.6,0.5-0.7,0.9
			c-0.1,0.4,0.1,0.8,0.4,1c0.2,0.1,0.4,0.2,0.5,0.3c-0.8,1.3-1.8,2.3-2.9,2.9c0,0-1.3-0.6-3.1-1.6c0.2-0.3,0.4-0.6,0.6-0.9
			c0.2-0.4,0.3-0.7,0.3-1.1c0-0.4-0.3-0.8-0.6-1c-0.3-0.2-0.8-0.4-1.1-0.3c-0.4,0-0.8,0.3-1,0.6c-0.2,0.4-0.5,0.7-0.8,1
			c-1.3-1-2.6-2.2-3.7-3.6c0,0,0.1,0,0.1,0c0.7-0.2,1.4-0.3,2-0.3c0.9-0.1,1.4-0.9,1.3-1.7C411,357.7,410.1,357.2,409.3,357.2z"/>
		<path class="st9" d="M411.4,332.2c0.6-0.5,1.3-0.8,2-1.1c-0.2-0.5-0.4-1-0.8-1.5c-3.1-3.9-4.4,0-6.8,0.1c-1.2,0-2.4,0.4-3,1.3
			c0.3,0.1,0.6,0.2,0.9,0.4c0.5,0.2,0.5,0.8,0.2,1.2c-0.3,0.4-0.7,0.7-1.2,0.8c-0.1,0-0.3,0-0.4,0c0.1,0.5,0.3,1.1,0.5,1.7
			c0.3,0.7,0.7,1.3,1.1,1.8c0.3-0.1,0.5-0.3,0.8-0.4c0.4-0.2,1,0.2,1,0.7c0,0.4-0.1,0.8-0.3,1.2c0.6,0.5,1.3,1,2,1.4
			c0.1,0,0.1-0.1,0.2-0.1c0.2-0.1,0.3-0.2,0.5-0.2c0.1,0,0.2-0.1,0.3-0.1c0.3-0.1,0.5,0,0.7,0.2c0.2,0.2,0.3,0.5,0.2,0.7
			c0,0.1-0.1,0.3-0.1,0.4c1,0.3,2,0.4,2.8,0.3c0,0,0.4-0.9,0.9-2.2c-0.2-0.1-0.5-0.1-0.7-0.2c-0.3-0.1-0.5-0.2-0.7-0.5
			c-0.2-0.2-0.2-0.5-0.1-0.8c0-0.3,0.2-0.5,0.5-0.7c0.2-0.1,0.5-0.2,0.8-0.1c0.3,0.1,0.6,0.1,0.9,0.2c0.3-1.1,0.4-2.3,0.4-3.5
			c0,0-0.1,0-0.1,0c-0.4,0.2-0.8,0.4-1.2,0.7c-0.5,0.3-1.1,0.1-1.5-0.3C410.7,333.2,410.9,332.6,411.4,332.2z"/>
		<path class="st12" d="M411.4,332.2c0.6-0.5,1.3-0.8,2-1.1c-0.2-0.5-0.4-1-0.8-1.5c-3.1-3.9-4.4,0-6.8,0.1c-1.2,0-2.4,0.4-3,1.3
			c0.3,0.1,0.6,0.2,0.9,0.4c0.5,0.2,0.5,0.8,0.2,1.2c-0.3,0.4-0.7,0.7-1.2,0.8c-0.1,0-0.3,0-0.4,0c0.1,0.5,0.3,1.1,0.5,1.7
			c0.3,0.7,0.7,1.3,1.1,1.8c0.3-0.1,0.5-0.3,0.8-0.4c0.4-0.2,1,0.2,1,0.7c0,0.4-0.1,0.8-0.3,1.2c0.6,0.5,1.3,1,2,1.4
			c0.1,0,0.1-0.1,0.2-0.1c0.2-0.1,0.3-0.2,0.5-0.2c0.1,0,0.2-0.1,0.3-0.1c0.3-0.1,0.5,0,0.7,0.2c0.2,0.2,0.3,0.5,0.2,0.7
			c0,0.1-0.1,0.3-0.1,0.4c1,0.3,2,0.4,2.8,0.3c0,0,0.4-0.9,0.9-2.2c-0.2-0.1-0.5-0.1-0.7-0.2c-0.3-0.1-0.5-0.2-0.7-0.5
			c-0.2-0.2-0.2-0.5-0.1-0.8c0-0.3,0.2-0.5,0.5-0.7c0.2-0.1,0.5-0.2,0.8-0.1c0.3,0.1,0.6,0.1,0.9,0.2c0.3-1.1,0.4-2.3,0.4-3.5
			c0,0-0.1,0-0.1,0c-0.4,0.2-0.8,0.4-1.2,0.7c-0.5,0.3-1.1,0.1-1.5-0.3C410.7,333.2,410.9,332.6,411.4,332.2z"/>
		<path class="st13" d="M382.1,339.5c-0.2,1.5,3.8,2.4,7,3c-0.3,2.7-2,5.4-4.5,7.9c-3.1-1.7-7.5-4-8.3-3.5c-0.9,0.6,3.6,3.5,6.4,5.2
			c-2,1.8-4.2,3.4-6.4,4.8c-1.4-1.3-3-2.4-4-1.8c-1,0.6-0.7,2.6-0.2,4.4c-3.4,2-5.9,3.1-5.9,3.1s-1.4-4.3-2.2-9.5
			c0.2-0.3,0.3-0.7,0.5-1c0.5-1.3,0-1.8-0.9-2c-0.2-2.3-0.3-4.7-0.1-6.9c3.8-0.8,8.4-2.3,6.7-4.6c-1-1.4-3-1.5-4.9-1.2
			c0.3-0.5,0.6-0.9,0.9-1.3c6.9-7.6,11.7,0,11.7,0c4-3.3,9.7-2.4,10.9,2.8C386.7,338.5,382.4,337.7,382.1,339.5z"/>
		<path class="st14" d="M382.1,339.5c-0.2,1.5,3.8,2.4,7,3c-0.3,2.7-2,5.4-4.5,7.9c-3.1-1.7-7.5-4-8.3-3.5c-0.9,0.6,3.6,3.5,6.4,5.2
			c-2,1.8-4.2,3.4-6.4,4.8c-1.4-1.3-3-2.4-4-1.8c-1,0.6-0.7,2.6-0.2,4.4c-3.4,2-5.9,3.1-5.9,3.1s-1.4-4.3-2.2-9.5
			c0.2-0.3,0.3-0.7,0.5-1c0.5-1.3,0-1.8-0.9-2c-0.2-2.3-0.3-4.7-0.1-6.9c3.8-0.8,8.4-2.3,6.7-4.6c-1-1.4-3-1.5-4.9-1.2
			c0.3-0.5,0.6-0.9,0.9-1.3c6.9-7.6,11.7,0,11.7,0c4-3.3,9.7-2.4,10.9,2.8C386.7,338.5,382.4,337.7,382.1,339.5z"/>
		<g>
			<path class="st11" d="M190.1,421.8l-25.2-9.3l-25.5,9.3c-0.9,0.3-1.8-0.3-1.8-1.3l0,0c0-0.5,0.3-1,0.8-1.2l26.5-12.3l26.2,12.3
				c0.5,0.2,0.8,0.7,0.8,1.2l0,0C191.9,421.5,191,422.1,190.1,421.8z"/>
			<path class="st15" d="M190.1,421.8l-25.2-9.3l-25.5,9.3c-0.9,0.3-1.8-0.3-1.8-1.3l0,0c0-0.5,0.3-1,0.8-1.2l26.5-12.3l26.2,12.3
				c0.5,0.2,0.8,0.7,0.8,1.2l0,0C191.9,421.5,191,422.1,190.1,421.8z"/>
			<polygon class="st16" points="158.9,414.7 164.9,412.5 170.5,414.6 170.5,409.7 164.9,407 158.9,409.8 			"/>
			<path class="st11" d="M164.7,422L164.7,422c-1.2,0-2.1-0.9-2.2-2l-0.7-7.5v-62h5.9v62L167,420C166.9,421.1,165.9,422,164.7,422z"
				/>
			<path class="st15" d="M164.7,422L164.7,422c-1.2,0-2.1-0.9-2.2-2l-0.7-7.5v-62h5.9v62L167,420C166.9,421.1,165.9,422,164.7,422z"
				/>
			<rect x="161.8" y="350.5" class="st16" width="5.9" height="7.2"/>
		</g>
		<path class="st9" d="M151.6,286.6c0.8,0,1.7,0.4,2.2,1.3c10.8,17.9,14.6,39.4,10.9,60c-0.2,1.3-1.1,1.9-2.1,2
			c-1.6,0.1-30.6,0-31.7,0c-1.6,0-3.3-1.3-2.9-3.4c3.5-19.1-0.3-39.2-10.3-55.8c-1.2-2.1,0.6-4,2.4-4
			C120.9,286.6,149.7,286.6,151.6,286.6z"/>
		<path class="st16" d="M151.6,286.6c0.8,0,1.7,0.4,2.2,1.3c10.8,17.9,14.6,39.4,10.9,60c-0.2,1.3-1.1,1.9-2.1,2
			c-1.6,0.1-30.6,0-31.7,0c-1.6,0-3.3-1.3-2.9-3.4c3.5-19.1-0.3-39.2-10.3-55.8c-1.2-2.1,0.6-4,2.4-4
			C120.9,286.6,149.7,286.6,151.6,286.6z"/>
		<g>
			<path class="st13" d="M127.9,346.4c3.5-19.1-0.3-39.2-10.3-55.8c-1.8-3,2.9-5.7,4.7-2.7c10.8,17.9,14.6,39.4,10.9,60
				C132.5,351.3,127.3,349.9,127.9,346.4L127.9,346.4z"/>
		</g>
		<g class="st17">
			<path class="st18" d="M127.9,346.4c3.5-19.1-0.3-39.2-10.3-55.8c-1.8-3,2.9-5.7,4.7-2.7c10.8,17.9,14.6,39.4,10.9,60
				C132.5,351.3,127.3,349.9,127.9,346.4L127.9,346.4z"/>
		</g>
		<path class="st9" d="M218.4,344.9c-6.7-1.7-13.5-2.6-20.3-2.8c-7.1-0.2-33.5,0-39.8,0c-7.6,0-15.3,0.9-22.7,2.8
			c-4.7,1.2-3.2,7.9,1,8c0.4,0,80.3,0,80.6,0C221.6,353,223.2,346.1,218.4,344.9z"/>
		<path class="st19" d="M218.4,344.9c-6.7-1.7-13.5-2.6-20.3-2.8c-7.1-0.2-33.5,0-39.8,0c-7.6,0-15.3,0.9-22.7,2.8
			c-4.7,1.2-3.2,7.9,1,8c0.4,0,80.3,0,80.6,0C221.6,353,223.2,346.1,218.4,344.9z"/>
		<g>
			<path class="st13" d="M137.8,352.7c13.4-3.4,27.6-3.4,41.1,0c5.1,1.3,7.2-6.6,2.2-7.8c-14.8-3.8-30.6-3.8-45.4,0
				C130.5,346.2,132.7,354,137.8,352.7L137.8,352.7z"/>
		</g>
		<g class="st19">
			<path class="st18" d="M137.8,352.7c13.4-3.4,27.6-3.4,41.1,0c5.1,1.3,7.2-6.6,2.2-7.8c-14.8-3.8-30.6-3.8-45.4,0
				C130.5,346.2,132.7,354,137.8,352.7L137.8,352.7z"/>
		</g>
		<g>
			<rect x="151.5" y="313.3" class="st11" width="35.8" height="14.3"/>
			<rect x="151.5" y="313.3" class="st20" width="35.8" height="14.3"/>
		</g>
		<polygon class="st21" points="206.5,389.5 201.8,410 207.7,412.3 216.1,391.6 		"/>
		<path class="st11" d="M207.3,410.9l-5.3-2.8c-0.2-0.1-0.5-0.1-0.7,0.1l-3.8,4.4c-0.3,0.4-0.3,1,0.1,1.3c0,0,0.1,0.1,0.2,0.1
			c2.2,1.2,4.3,2.1,7,3.6c3.2,1.7,2.2,1.7,6,3.8c2.3,1.3,4.1-1.1,3.2-1.8c-4.2-3-4.7-5-5.6-7.5C208.2,411.6,207.8,411.2,207.3,410.9
			z"/>
		<g>
			<path class="st11" d="M159.1,325.9l28.7-1.6c0,0,47.7,7.5,47,20.8s-20.1,55.4-20.1,55.4l-11.4-3.2c0,0,8.7-42.3,14.3-49.3
				c0,0-35.6-4.2-44.5-6.6C168.2,340.2,156.4,342.4,159.1,325.9z"/>
			<path class="st20" d="M159.1,325.9l28.7-1.6c0,0,47.7,7.5,47,20.8s-20.1,55.4-20.1,55.4l-11.4-3.2c0,0,8.7-42.3,14.3-49.3
				c0,0-35.6-4.2-44.5-6.6C168.2,340.2,156.4,342.4,159.1,325.9z"/>
		</g>
		<path class="st16" d="M212.9,347.4c0.1-2.7-0.1-6.9-2.2-11.5c-2.7-6-24.5-9.6-34.9-11l-16.6,0.9c-2.7,16.5,9.1,14.3,14,15.6
			C180,343.3,202.8,346.2,212.9,347.4z"/>
		<polygon class="st21" points="187,395.1 186.3,416.2 192.6,416.5 196.8,395.4 		"/>
		<path class="st11" d="M192.1,414.6l-6.1,0.1c-0.3,0-0.5,0.2-0.5,0.5l-1.2,5.8c-0.1,0.5,0.2,1,0.7,1.1c0.1,0,0.1,0,0.2,0
			c2.6-0.1,4.8-0.3,8-0.3c3.8-0.1,2.8,0.4,7.2,0.4c2.7,0,3.1-3,2-3.2c-5.2-0.6-6.7-2.1-8.7-3.9C193.3,414.7,192.7,414.5,192.1,414.6
			z"/>
		<g>
			<polygon class="st11" points="202.5,394.8 216.8,398.8 214.2,404.3 201.1,401.1 			"/>
			<polygon class="st22" points="202.5,394.8 216.8,398.8 214.2,404.3 201.1,401.1 			"/>
		</g>
		<g>
			<path class="st11" d="M166.8,325.9c0,0,38.4,1.4,40.7,13.1c2.3,11.8-10.6,64.4-10.6,64.4h-11.5c0,0,1.4-47.3,5.2-57.2
				c0,0-31.7,5-40-2.2c-6-5.1,1.1-18.1,1.1-18.1L166.8,325.9z"/>
			<path class="st20" d="M166.8,325.9c0,0,38.4,1.4,40.7,13.1c2.3,11.8-10.6,64.4-10.6,64.4h-11.5c0,0,1.4-47.3,5.2-57.2
				c0,0-31.7,5-40-2.2c-6-5.1,1.1-18.1,1.1-18.1L166.8,325.9z"/>
		</g>
		<g>
			<polygon class="st11" points="184.2,400.5 198.7,401.2 197.3,406.9 184.2,406.3 			"/>
			<polygon class="st22" points="184.2,400.5 198.7,401.2 197.3,406.9 184.2,406.3 			"/>
		</g>
		<g>
			<path class="st21" d="M217.9,281.3l6.2-2.3l-5.3-5.1c0,0-5.4,2.4-4,5.1L217.9,281.3z"/>
			<polygon class="st21" points="228.1,273.9 222.1,271 218.8,273.9 224.1,279 			"/>
		</g>
		<g>
			<polygon class="st2" points="210.1,281.5 213.7,277.6 218.5,281.7 214.6,286.4 			"/>
			<polygon class="st23" points="210.1,281.5 213.7,277.6 218.5,281.7 214.6,286.4 			"/>
		</g>
		<path class="st11" d="M185.5,257.2c0,0,3.8,4.3,9.3,18.4c5.5,14.1,11.5,10,18.2,2.4l5.5,5c0,0-10.2,12.7-16.7,12.7
			c-7.2,0-14.1-11.1-15.5-18.9C184.8,269.1,185.5,257.2,185.5,257.2z"/>
		<path class="st24" d="M186.8,265.4l-2-1.7l-1,5.4c0.1,1.6,0.3,3.1,0.6,4.5c0.8,4.4,3.8,10.2,7,15.1
			C190.2,277.9,186.8,265.4,186.8,265.4z"/>
		<path class="st11" d="M147.9,299.2l0.6,29.3l21.6,0.7c2.8,0,3.5-1.9,4.1-4l1.1-3.8l0.9,3.5c0.6,2.1,3.5,2.5,5.7,2l9.4-2.3
			l-2.2-28.9c0,0,1.5-21.8-2-35.7c-0.6-2.7-3.1-4.5-5.7-5.1c-6-1.4-19-3.3-33.8,2.6c-1.4,0.5-2.2,1.9-2,3.4L147.9,299.2z"/>
		<g>
			<path class="st25" d="M174.7,286.7c0,0.5-0.4,0.9-0.9,0.9c-0.5,0-0.9-0.4-0.9-0.9c0-0.5,0.4-0.9,0.9-0.9
				C174.3,285.8,174.7,286.2,174.7,286.7z"/>
			<path class="st25" d="M175.6,299.2c0,0.5-0.4,0.9-0.9,0.9c-0.5,0-0.9-0.4-0.9-0.9c0-0.5,0.4-0.9,0.9-0.9
				C175.2,298.3,175.6,298.7,175.6,299.2z"/>
			<path class="st25" d="M176,311.4c0,0.5-0.4,0.9-0.9,0.9c-0.5,0-0.9-0.4-0.9-0.9c0-0.5,0.4-0.9,0.9-0.9
				C175.6,310.5,176,310.9,176,311.4z"/>
		</g>
		<path class="st11" d="M160.3,253c0,0,4.8-2.1,10.7-0.7l2.2,1.3l0.8,2.5l-2.8,2.2l-6.6,0.7l-5.5-2.3l0.3-2.4L160.3,253z"/>
		<path class="st21" d="M172.3,254.3c-2.2-0.6-3.7-4.4-1.9-6.8l-9.6-7.4c1.4,13.4,0.7,10.9-1.3,14.8c0,0,1.4,4.5,9.1,3.1
			C173.7,257,172.3,254.3,172.3,254.3z"/>
		<path class="st16" d="M170.4,247.4l-9.6-7.1c0.2,1.9,0.3,1.9,0.4,3.3c1,2.1,3.1,7.3,8.5,7.5C169.4,250.1,169.7,248,170.4,247.4z"
			/>
		<polygon class="st2" points="159.7,261.3 162.3,269.9 168.4,278.7 173.4,283.9 175.3,276.3 174.7,260.3 174.6,256.9 173.2,254.9 
			171,256.9 169.1,257.6 166.3,257.6 159,255.4 		"/>
		<polygon class="st26" points="159.7,261.3 162.3,269.9 168.4,278.7 173.4,283.9 175.3,276.3 174.7,260.3 174.6,256.9 173.2,254.9 
			171,256.9 169.1,257.6 166.3,257.6 159,255.4 		"/>
		<polygon class="st27" points="159.7,261.3 162.3,269.9 168.4,278.7 173.4,283.9 175.3,276.3 174.7,260.3 174.6,256.9 173.2,254.9 
			171,256.9 169.1,257.6 166.3,257.6 159,255.4 		"/>
		<path class="st9" d="M165.6,260.3c0,0,0.9,2,2.8,3.6c0,0-1.2,8.7,0.7,14.8l4.3,5.1l1.3-6.3c0,0-1.9-10.1-4.6-14
			c0,0,1.1-2.1,1.4-4.2l-1.6-1.3c0,0-2.2,1.5-3.5,0.5L165.6,260.3z"/>
		<path class="st28" d="M159.5,253.8c0,0,4,3.4,8.1,3.4c4,0,4.5-4.2,4.5-4.2l1.7,1.8c0,0,0.3,3-1.4,6.1l-4.2-2.8l-2.9,4.1
			c0,0-4.5-2.2-6.7-6L159.5,253.8z"/>
		<path class="st29" d="M159.5,253.8c0,0,4,3.4,8.1,3.4c4,0,4.5-4.2,4.5-4.2l1.7,1.8c0,0,0.3,3-1.4,6.1l-4.2-2.8l-2.9,4.1
			c0,0-4.5-2.2-6.7-6L159.5,253.8z"/>
		<g>
			<path class="st11" d="M160.3,253c0,0-3.3,10.2,12.9,29.6c0,0,2.9-23.8-2.2-30.3l3.6,1.4l3.7,5.6l-2.7,1.7l3.4,1.5
				c0,0-0.5,7.7-5.2,22.5c0,0-10.7-8.3-17.7-19.4l3.3-2.6l-4.3-0.7l1.9-7.7L160.3,253z"/>
			<path class="st19" d="M160.3,253c0,0-3.3,10.2,12.9,29.6c0,0,2.9-23.8-2.2-30.3l3.6,1.4l3.7,5.6l-2.7,1.7l3.4,1.5
				c0,0-0.5,7.7-5.2,22.5c0,0-10.7-8.3-17.7-19.4l3.3-2.6l-4.3-0.7l1.9-7.7L160.3,253z"/>
		</g>
		<path class="st24" d="M146,263.6l4.2,23.6l0.5-0.6c2.3-12.1-0.9-23.7-0.9-23.7l-1.3,0.7L146,263.6z"/>
		<g>
			<path class="st11" d="M173,221.9c0,0,4.6,8.5,1.1,13.7c-3.5,5.2-9.6-11.6-9.6-11.6L173,221.9z"/>
			<path class="st21" d="M177,240.4c0,0.3-0.1,0.7-0.1,1c-0.2,1.2-0.6,2.4-1.2,3.4c-0.6,1.1-1.5,2-2.4,2.7c-1.8,1.3-3.9,2-6.2,1.8
				c-1.5-0.1-3-0.6-4.4-1.6c-4-2.8-4.7-6.9-6.3-13.5c-0.4-1.4-0.4-2.9-0.1-4.4c1.1-5.1,6.1-8.3,11.2-7.2
				C174.7,224.2,177.4,234.1,177,240.4z"/>
			<path class="st11" d="M167.1,234.3c0.1,0.6,0.5,0.9,0.8,0.9c0.4-0.1,0.6-0.6,0.5-1.1c-0.1-0.5-0.5-0.9-0.8-0.9
				C167.2,233.2,167,233.7,167.1,234.3z"/>
			<path class="st11" d="M173.3,233.2c0.1,0.6,0.5,0.9,0.8,0.9c0.4-0.1,0.6-0.6,0.5-1.1c-0.1-0.5-0.5-0.9-0.8-0.9
				C173.4,232.1,173.2,232.6,173.3,233.2z"/>
			<path class="st30" d="M171.4,233.8c1,1.6,2.1,3,3.5,4.3c-0.7,0.7-1.6,1-2.6,1L171.4,233.8z"/>
			<path class="st11" d="M175.1,230.1c-0.1,0.1-0.2,0.1-0.3,0.1c-0.8-0.3-1.6-0.3-2.4,0.1c-0.1,0.1-0.4,0.1-0.5-0.1
				c-0.1-0.1-0.1-0.4,0.1-0.5c0,0,0,0,0,0c0.9-0.6,2-0.6,3-0.2c0.2,0.1,0.3,0.3,0.2,0.4c0,0,0,0,0,0
				C175.2,230,175.2,230.1,175.1,230.1z"/>
			<path class="st11" d="M165.4,232c-0.1,0-0.1,0-0.2,0c-0.1-0.1-0.2-0.3-0.1-0.5c0,0,0,0,0,0c0.7-0.8,1.7-1.3,2.7-1.2
				c0.2,0,0.3,0.2,0.3,0.4l0,0c0,0.2-0.2,0.3-0.4,0.3l0,0c-0.8,0-1.6,0.4-2.2,1C165.6,232,165.5,232,165.4,232z"/>
			<path class="st11" d="M159.9,224.9l1,2.9c-0.9,0.7-1.2,2-0.5,3c1.5,2.3,1,6.4-0.6,8.4c0,0-0.3-1.1-1.2-0.6
				c-0.9,0.5,0.7,6,3.1,8.3c0,0-3.2-1.8-6.1-7.4c-2.6-5.1-3.8-9.6-3.2-12L159.9,224.9z"/>
			<path class="st21" d="M154.5,240.3c1,1.4,2.6,2.3,4.3,2.6c2.3,0.3,3.1-1.8,2.3-3.8c-0.8-1.8-2.9-4.1-5.1-3.5
				C153.8,236.2,153.3,238.5,154.5,240.3z"/>
			<path class="st11" d="M152.4,229c0,0-1.6-3.7,3.9-8.1c5.5-4.4,12.9-2.3,16.4-5.8c3.5-3.5,6,7.2-2.5,10.3
				C161.7,228.5,152.4,229,152.4,229z"/>
			<g>
				<path class="st11" d="M172.2,241c-0.7,0.8-1.7,2.5-1.7,2.5c-0.2-0.1-0.3-0.1-0.5-0.2c-2.2-0.9-2.9-2-3.1-3c-0.1-0.5,0-1,0.2-1.4
					c0.2-0.5,0.4-0.7,0.4-0.7c0.9,1.2,2.9,2.1,4,2.6C171.9,240.9,172.2,241,172.2,241z"/>
				<path class="st18" d="M171.4,240.7l-0.5,0.7c-2.1-0.8-3.4-1.7-3.8-2.6c0.2-0.5,0.4-0.7,0.4-0.7
					C168.3,239.3,170.3,240.2,171.4,240.7z"/>
				<path class="st30" d="M170,243.3c-2.2-0.9-2.9-2-3.1-3c0.7,0.3,1.6,0.8,2.3,1.5C169.7,242.2,169.9,242.8,170,243.3z"/>
			</g>
		</g>
		<g>
			<g>
				<path class="st11" d="M133.2,289.7c1,2.2,2.8,2.5,4.7,1.5c1.5-0.7,3-2.2,4.1-3.9c0.8-1.2,2-3,3.1-4.9c2.5-4.2,5.1-8.8,5.1-8.8
					c1.6-2.2,2.6-4.7,1.7-8.3c-1.5-4.4-3.3-7-5.2-7.2C141.8,260.5,131.3,285.7,133.2,289.7z"/>
				<path class="st31" d="M137.9,291.3c1.5-0.7,3-2.2,4.1-3.9c0.8-1.2,2-3,3.1-4.9c-1.4-2.6-2.9-4.7-2.9-4.7l-2.5,7.1
					c0,0-4.4,1-5.1,3.3C134.3,289.1,135.8,290.3,137.9,291.3z"/>
			</g>
			<g>
				<path class="st11" d="M138,271l8.3,31.8c0.2,0.7,1,1.3,1.7,1.2l22.1-2.9c0.8-0.1,1.2-0.8,1-1.5l-8.3-31.8
					c-0.2-0.7-1-1.3-1.7-1.2l-22.1,2.9C138.3,269.6,137.8,270.3,138,271z"/>
				<path class="st32" d="M138,271l8.3,31.8c0.2,0.7,1,1.3,1.7,1.2l21.1-2.8c0.8-0.1,1.2-0.8,1-1.5l-8.3-31.8
					c-0.2-0.7-1-1.3-1.7-1.2l-21.1,2.8C138.3,269.6,137.8,270.3,138,271z"/>
				<path class="st15" d="M153.4,283.2c1.1-0.1,2.2,0.6,2.5,1.7c0.3,1.1-0.4,2.1-1.5,2.2c-1.1,0.1-2.2-0.6-2.5-1.7
					C153,285.2,153.7,284.2,153.4,283.2z"/>
			</g>
			<g>
				<path class="st11" d="M136.2,297.2c1.5,0.8,4.9-0.4,5.9-0.8c0.2-0.1,0.3-0.1,0.3-0.1s1.8-6-2.9-9.2c0,0-0.1-0.1-0.1-0.1
					c-1.5-0.8-6.2,0.2-6.4,1.8C132.4,295.2,134.5,296.3,136.2,297.2z"/>
				<path class="st31" d="M139.2,292.1c0.6,2.2,1.8,3.5,3,4.3c0.2-0.1,0.3-0.1,0.3-0.1s1.8-6-2.9-9.2c0,0-0.1-0.1-0.1-0.1
					C139,287.5,138.3,289,139.2,292.1z"/>
			</g>
			<path class="st21" d="M146,284.5c0,0-3.1-0.1-4.5,0c-1.4,0.1-1,4.7-1,4.7l-1.2,0.7c0,0-1,2.7,1.1,4l1.1-0.4c0,0,0.3,1.1,1.2,1.6
				c0.9,0.5,5.2-0.7,5.2-0.7L146,284.5z"/>
		</g>
		<path class="st33" d="M225.7,304c0.6,0,1-0.5,1-1c0-0.6-0.5-1-1-1h-27.9c-0.6,0-1,0.5-1,1c0,0.6,0.5,1,1,1H225.7z"/>
		<path class="st27" d="M225.7,304.1c0.6,0,1-0.5,1-1c0-0.6-0.5-1-1-1h-27.9c-0.6,0-1,0.5-1,1c0,0.6,0.5,1,1,1H225.7z"/>
		<path class="st28" d="M223.4,302.2l3.7-26.4c0.1-1,1-1.8,2-1.8h3.6V304h-7.8C223.9,304,223.2,303.2,223.4,302.2z"/>
		<path class="st34" d="M233.4,302.2l3.7-26.4c0.1-1,1-1.8,2-1.8h3.6V304h-7.8C233.9,304,233.2,303.2,233.4,302.2z"/>
		<g>
			<path class="st35" d="M226.4,304h31.5c1,0,1.9-0.8,2-1.8l3.7-26.4c0.1-1-0.5-1.8-1.5-1.8h-31.5c-1,0-1.9,0.8-2,1.8l-3.7,26.4
				C224.8,303.2,225.4,304,226.4,304z"/>
		</g>
		<path class="st27" d="M226.4,304.1h31.5c1,0,1.9-0.8,2-1.8l3.7-26.4c0.1-1-0.5-1.8-1.5-1.8h-31.5c-1,0-1.9,0.8-2,1.8l-3.7,26.4
			C224.8,303.3,225.4,304.1,226.4,304.1z"/>
		<path class="st36" d="M241.7,290.4c-0.2,1.5,0.8,2.7,2.3,2.7c1.5,0,2.9-1.2,3.1-2.7c0.2-1.5-0.8-2.7-2.3-2.7
			C243.3,287.7,241.9,288.9,241.7,290.4z"/>
		<g>
			<g>
				<g>
					<g>
						<polygon class="st11" points="129.4,422.7 132,422.7 135.4,310.5 131.9,310.5 						"/>
						<polygon class="st37" points="129.4,422.7 132,422.7 135.4,310.5 131.9,310.5 						"/>
					</g>
					<g>
						<polygon class="st11" points="171.6,310.5 171.6,422.7 168.8,422.7 165.5,315.6 132.2,315.6 129.7,422.7 127,422.7 127,310.5 
													"/>
						<polygon class="st32" points="171.6,310.5 171.6,422.7 168.8,422.7 165.5,315.6 132.2,315.6 129.7,422.7 127,422.7 127,310.5 
													"/>
					</g>
					<g>
						<polygon class="st11" points="171.6,422.7 174.2,422.7 175,310.5 171.6,310.5 						"/>
						<polygon class="st37" points="171.6,422.7 174.2,422.7 175,310.5 171.6,310.5 						"/>
					</g>
				</g>
				<g>
					<g>
						<polygon class="st11" points="271.3,422.7 273.9,422.7 277.3,310.5 273.8,310.5 						"/>
						<polygon class="st37" points="271.3,422.7 273.9,422.7 277.3,310.5 273.8,310.5 						"/>
					</g>
					<g>
						<polygon class="st11" points="313.5,310.5 313.5,422.7 310.7,422.7 307.4,315.6 274.1,315.6 271.6,422.7 268.9,422.7 
							268.9,310.5 						"/>
						<polygon class="st32" points="313.5,310.5 313.5,422.7 310.7,422.7 307.4,315.6 274.1,315.6 271.6,422.7 268.9,422.7 
							268.9,310.5 						"/>
					</g>
					<g>
						<polygon class="st11" points="313.5,422.7 316.1,422.7 316.9,310.5 313.5,310.5 						"/>
						<polygon class="st37" points="313.5,422.7 316.1,422.7 316.9,310.5 313.5,310.5 						"/>
					</g>
				</g>
			</g>
			<g>
				<g>
					
						<rect x="173.7" y="304.1" transform="matrix(-1 -1.224647e-16 1.224647e-16 -1 495.2162 614.5892)" class="st11" width="147.8" height="6.4"/>
				</g>
				
					<rect x="173.7" y="304.1" transform="matrix(-1 -1.224647e-16 1.224647e-16 -1 495.2162 614.5892)" class="st27" width="147.8" height="6.4"/>
				<g>
					
						<rect x="122.4" y="304.1" transform="matrix(-1 -1.224647e-16 1.224647e-16 -1 300.1444 614.5892)" class="st11" width="55.3" height="6.4"/>
				</g>
				
					<rect x="122.4" y="304.1" transform="matrix(-1 -1.224647e-16 1.224647e-16 -1 300.1444 614.5892)" class="st15" width="55.3" height="6.4"/>
			</g>
		</g>
		<g>
			<g>
				<path class="st38" d="M293,267l2.5-4.6l3.4,4.8c0,0-2.5,4-4.5,2.6L293,267z"/>
				<polygon class="st38" points="300.1,259.8 301.7,264.9 299,267.1 295.6,262.4 				"/>
			</g>
			<path class="st16" d="M296.8,261.7c0.4,2.1,1.1,3.9,2.2,5.5l0.6-0.5l-1.8-5.6L296.8,261.7z"/>
			<polygon class="st38" points="292.4,276 293,267 296.4,267.7 296.4,276.7 			"/>
		</g>
		<polygon class="st38" points="248.9,384.8 254.1,386.8 257.8,379.8 261.2,373.4 255.4,370 252,377.8 		"/>
		<polygon class="st31" points="252,377.8 257.8,379.8 261.2,373.4 255.4,370 		"/>
		<g>
			<path class="st11" d="M253,374l7,3.8c0,0,26.5-46.7,30.6-46.3c4.1,0.4,42.8,25.1,54.6,16c11.8-9.1,0.3-36.6,0.3-36.6
				s-24.4-7-27.1-1.6c-0.5,1-1.2,3.1-1.7,4.9c-0.5,1.7-0.9,3.1-0.9,3.1s0,0,0,0c-0.7-0.3-24.9-10.2-35.6-4.9
				C269.3,317.8,253,374,253,374z"/>
			<path class="st12" d="M253,374l7,3.8c0,0,26.5-46.7,30.6-46.3c4.1,0.4,42.8,25.1,54.6,16c11.8-9.1,0.3-36.6,0.3-36.6
				s-24.4-7-27.1-1.6c-0.5,1-1.2,3.1-1.7,4.9c-0.5,1.7-0.9,3.1-0.9,3.1s0,0,0,0c-0.7-0.3-24.9-10.2-35.6-4.9
				C269.3,317.8,253,374,253,374z"/>
		</g>
		<polygon class="st38" points="291.2,412.1 296.7,411.4 296.7,403.7 296.8,396.5 290.1,396.2 290.7,404.6 		"/>
		<polygon class="st31" points="290.7,404.8 296.8,403.8 296.8,396.6 290.1,396.2 		"/>
		<polygon class="st11" points="263.5,375.4 253.2,370.3 252.2,374.7 259.9,378.7 		"/>
		<g>
			<path class="st11" d="M327.1,347.5c0,0-1.7-0.2-27.7-5c0,0-0.6,33.2-1.8,58l-8,0.3c0,0-11.5-54.9-10.1-63.2
				c1.3-8.3,11.2-9.4,11.2-9.4S307.8,341.4,327.1,347.5z"/>
			<path class="st39" d="M327.1,347.5c0,0-1.7-0.2-27.7-5c0,0-0.6,33.2-1.8,58l-8,0.3c0,0-11.5-54.9-10.1-63.2
				c1.3-8.3,11.2-9.4,11.2-9.4S307.8,341.4,327.1,347.5z"/>
			<path class="st40" d="M327.1,347.5c0,0-1.7-0.2-27.7-5c0,0-0.6,33.2-1.8,58l-8,0.3c0,0-11.5-54.9-10.1-63.2
				c1.3-8.3,11.2-9.4,11.2-9.4S307.8,341.4,327.1,347.5z"/>
		</g>
		<polygon class="st11" points="299.1,398.3 288.2,398 289.6,402.5 298.5,402.6 		"/>
		<path class="st11" d="M238.6,393.9c0.9-0.3,1.8-0.4,2.7-0.3c0,0,3.3-1.4,7.4-8c0,0,3.4,0.5,3.4,0.5c1.7,0.2,3.9,2.2,3.6,3.7
			c-0.8,3.3-3.5,6.2-4.9,9.2l-0.6-0.2l1.8-5c0.6-1.7-1.5-0.3-2.6,1.4c-1.1,1.6-2.6,3.2-6.3,1.8C238.8,395.4,237.1,394.5,238.6,393.9
			z"/>
		<path class="st38" d="M249.5,383.8c0,0-5.5,8.4-8.2,9.8c0,0,3,2.4,7.1-1.5c5.2-5.1,6.1-4.8,6.1-4.8s0.1-0.5-0.2-1.5
			C254,383.9,249.5,383.8,249.5,383.8z"/>
		<path class="st11" d="M283,421.8c0.8-0.5,1.6-0.8,2.5-0.9c0,0,2.9-2.1,5.2-9.5c0,0,3.4-0.4,3.4-0.4c2.8-0.3,4.5,1.4,4.4,3.4
			c0,2.6-2.6,9.5-2.6,9.5l-0.6-0.1l0.5-5.3c0.2-1.8-1.5,0.1-2.2,1.9c-0.7,1.9-1.8,3.8-5.7,3.3C283.5,423.2,281.7,422.8,283,421.8z"
			/>
		<path class="st38" d="M291.2,409.4c0,0-3.4,9.5-5.7,11.5c0,0,3.5,1.6,6.5-3.1c3.9-6.2,5.4-6,5.4-6s-0.7-0.7-1.1-1.6
			C295.5,408.5,291.2,409.4,291.2,409.4z"/>
		<g>
			<path class="st11" d="M300.3,253c-0.1,0-0.2,0-0.2-0.1c-0.8-1.2-2.6-1.2-2.6-1.2c0,0,0,0,0,0c-0.1,0-0.2-0.1-0.2-0.2
				c0-0.1,0.1-0.3,0.2-0.3c0.1,0,2.1,0,3,1.4c0.1,0.1,0,0.3-0.1,0.3C300.4,253,300.3,253,300.3,253z"/>
			<path class="st41" d="M298.3,256c0,0-1.1,1.6-2.2,2.6c0,0,0.5,1,1.7,0.9L298.3,256z"/>
			<g>
				<path class="st11" d="M297.3,254c-0.1,0.5,0.2,1,0.5,1.1c0.4,0,0.7-0.4,0.8-0.9c0.1-0.5-0.2-1-0.5-1.1
					C297.8,253.1,297.4,253.5,297.3,254z"/>
				<path class="st11" d="M298.3,253.2l-1.1-0.6C297.2,252.6,297.6,253.6,298.3,253.2z"/>
			</g>
			<path class="st38" d="M311.6,267.2c-0.1,0.1-0.1,0.1-0.2,0.1c-1.1,0.7-2.3,1.3-3.6,1.5c-3.8,0.7-6.3,0-7.8-1.7c0,0,0,0,0,0
				c-2.2-2.6-2.6-7.1-2-12.5c0.3-2.5,0.7-4.6,1.5-6.2c0,0,0-0.1,0-0.1c0-0.1,0.1-0.2,0.1-0.2c1.1-2.3,2.9-3.7,5.6-4.2
				c0.9-0.2,2-0.2,3.2-0.2C318.9,244.1,319.9,261.6,311.6,267.2z"/>
			<path class="st31" d="M311.3,267.3c-1.1,0.7-2.2,1.2-3.6,1.4c-3.8,0.7-6.3-0.1-7.8-1.9c1.8,0.5,4.2,0.8,6.7-0.2
				C308.1,266,309.8,266.4,311.3,267.3z"/>
			<path class="st11" d="M299.4,248.4c0,0-0.9,7.3,5.9,10.8c0,0,2.6,7.8,7,8.1c6,0.4,11.7-7.9,10.1-16.7
				C320.2,239.2,303.2,237.5,299.4,248.4z"/>
			<path class="st38" d="M301.9,256.9c0.1-1.1,1.1-3,2.8-2.7c1.8,0.4,2.6,5-2,5.8C302.1,260.1,301.7,259.3,301.9,256.9z"/>
			<path class="st11" d="M312.6,241.2c0,0-6.9-2.1-11,0.5c-4.7,3.1-6.6,6.4-1.5,12c0,0,12-3.2,15.9-2.2c3.9,1,6.6,2.3,6.6,2.3
				C323.9,245.9,316.6,239.8,312.6,241.2z"/>
			<path class="st38" d="M306,268.1c0,0,5.2,2.5,3.7,8l13.1-5.5c0,0-7.2-0.5-6.8-5.5C316,265.2,308.5,262.4,306,268.1z"/>
			<path class="st11" d="M320.2,250.7c0,0,2.6-7.5,8.5-6.2c5.9,1.3,5.4,7.6,1.2,9.6C325.6,256.1,319.7,255.3,320.2,250.7z"/>
			<path class="st11" d="M327.1,254.3c0,0,5.2,0,4.6,4.4c0,0-0.4-1.4-1.6-2c0,0,1.6,1.2,0,3.3c0,0,0.6-1.4-1.5-2.3
				c-2.2-1-8.1-0.9-7-3.8C322.7,251,327.1,254.3,327.1,254.3z"/>
		</g>
		<path class="st11" d="M321.9,270.4l-3.2-2.3c0,0-10.5,1.4-10.6,8.1C307.9,282.9,321.9,270.4,321.9,270.4z"/>
		<path class="st31" d="M315.9,317.3l10,5c0,0-3.3-5.6-9.1-8.1C316.3,315.9,315.9,317.3,315.9,317.3z"/>
		<g>
			<g>
				<path class="st11" d="M323.8,270.4c0,0-7.9-1.5-18.9,5.8c0,0-3.7,16.1,11.9,38l29.5-1.8C346.3,312.3,338.3,280.1,323.8,270.4z"
					/>
				<path class="st42" d="M305.8,291c0.5,2.1,1.2,4.3,2.1,6.7c1.8,4.9,4.7,10.4,8.9,16.4l29.5-1.9c0,0-8-32.2-22.5-42
					c0,0-7.9-1.5-18.9,5.8C304.9,276.2,303.6,281.9,305.8,291z"/>
			</g>
			<path class="st31" d="M305.8,291c0.5,2.1,1.2,4.3,2.1,6.7c0.3-3.5,1.5-8.6,1.5-8.6C308.6,289.2,306.4,290.7,305.8,291z"/>
		</g>
		<g>
			<g>
				<path class="st11" d="M313.3,281.9c-5.2,9.4-10.7,18.7-16.4,27.8c-2.5,4-8.7,2-8.4-2.7c0.4-6,0.9-12.1,1.4-18.1
					c0.5-6,1.1-12.1,1.9-18.1c0.4-3,4.7-2.8,5,0.2c0.7,12.1,0.9,24.2,0.9,36.3c0,0-8.5-2.4-8.5-2.4c3.7-7.1,7.5-14.1,11.5-21.1
					c1.3-2.3,2.6-4.6,4-6.9C308.1,271.5,316.2,276.1,313.3,281.9L313.3,281.9z"/>
				<path class="st43" d="M313.3,281.9c-5.2,9.4-10.7,18.7-16.4,27.8c-2.5,4-8.7,2-8.4-2.7c0.4-6,0.9-12.1,1.4-18.1
					c0.5-6,1.1-12.1,1.9-18.1c0.4-3,4.7-2.8,5,0.2c0.7,12.1,0.9,24.2,0.9,36.3c0,0-8.5-2.4-8.5-2.4c3.7-7.1,7.5-14.1,11.5-21.1
					c1.3-2.3,2.6-4.6,4-6.9C308.1,271.5,316.2,276.1,313.3,281.9L313.3,281.9z"/>
			</g>
			<polygon class="st16" points="297.6,288.9 295.1,293.4 297.4,283.2 			"/>
		</g>
		<g>
			<path class="st11" d="M367.2,423.1l-25.2-9.3l-25.5,9.3c-0.9,0.3-1.8-0.3-1.8-1.3l0,0c0-0.5,0.3-1,0.8-1.2l26.5-12.3l26.2,12.3
				c0.5,0.2,0.8,0.7,0.8,1.2l0,0C369,422.8,368.1,423.5,367.2,423.1z"/>
			<path class="st15" d="M367.2,423.1l-25.2-9.3l-25.5,9.3c-0.9,0.3-1.8-0.3-1.8-1.3l0,0c0-0.5,0.3-1,0.8-1.2l26.5-12.3l26.2,12.3
				c0.5,0.2,0.8,0.7,0.8,1.2l0,0C369,422.8,368.1,423.5,367.2,423.1z"/>
			<polygon class="st16" points="336.1,416 342,413.9 347.7,416 347.7,411 342,408.4 336.1,411.1 			"/>
			<path class="st11" d="M341.9,423.4L341.9,423.4c-1.2,0-2.1-0.9-2.2-2l-0.7-7.5v-62h5.9v62l-0.7,7.5
				C344,422.5,343,423.4,341.9,423.4z"/>
			<path class="st15" d="M341.9,423.4L341.9,423.4c-1.2,0-2.1-0.9-2.2-2l-0.7-7.5v-62h5.9v62l-0.7,7.5
				C344,422.5,343,423.4,341.9,423.4z"/>
			<rect x="338.9" y="351.8" class="st16" width="5.9" height="7.2"/>
		</g>
		<path class="st9" d="M382.8,346.2c-6.7-1.7-13.5-2.6-20.3-2.8c-7.1-0.2-33.5,0-39.8,0c-7.6,0-15.3,0.9-22.7,2.8
			c-4.7,1.2-3.2,7.9,1,8c0.4,0,80.3,0,80.6,0C385.9,354.4,387.5,347.4,382.8,346.2z"/>
		<path class="st19" d="M382.8,346.2c-6.7-1.7-13.5-2.6-20.3-2.8c-7.1-0.2-33.5,0-39.8,0c-7.6,0-15.3,0.9-22.7,2.8
			c-4.7,1.2-3.2,7.9,1,8c0.4,0,80.3,0,80.6,0C385.9,354.4,387.5,347.4,382.8,346.2z"/>
		<g>
			<path class="st13" d="M302.1,354.1c13.4-3.4,27.6-3.4,41.1,0c5.1,1.3,7.2-6.6,2.2-7.8c-14.8-3.8-30.6-3.8-45.4,0
				C294.9,347.5,297,355.4,302.1,354.1L302.1,354.1z"/>
		</g>
		<g class="st19">
			<path class="st18" d="M302.1,354.1c13.4-3.4,27.6-3.4,41.1,0c5.1,1.3,7.2-6.6,2.2-7.8c-14.8-3.8-30.6-3.8-45.4,0
				C294.9,347.5,297,355.4,302.1,354.1L302.1,354.1z"/>
		</g>
		<path class="st9" d="M361.4,288c-0.8,0-1.7,0.4-2.2,1.3c-10.8,17.9-14.6,39.4-10.9,60c0.2,1.3,1.1,1.9,2.1,2
			c1.6,0.1,30.6,0,31.7,0c1.6,0,3.3-1.3,2.9-3.4c-3.5-19.1,0.3-39.2,10.3-55.8c1.2-2.1-0.6-4-2.4-4C392,287.9,363.2,288,361.4,288z"
			/>
		<path class="st16" d="M361.4,288c-0.8,0-1.7,0.4-2.2,1.3c-10.8,17.9-14.6,39.4-10.9,60c0.2,1.3,1.1,1.9,2.1,2
			c1.6,0.1,30.6,0,31.7,0c1.6,0,3.3-1.3,2.9-3.4c-3.5-19.1,0.3-39.2,10.3-55.8c1.2-2.1-0.6-4-2.4-4C392,287.9,363.2,288,361.4,288z"
			/>
		<g>
			<path class="st13" d="M353.5,347.8c-3.5-19.1,0.3-39.2,10.3-55.8c1.8-3-2.9-5.7-4.7-2.7c-10.8,17.9-14.6,39.4-10.9,60
				C348.9,352.6,354.1,351.2,353.5,347.8L353.5,347.8z"/>
		</g>
		<g class="st16">
			<path class="st18" d="M353.5,347.8c-3.5-19.1,0.3-39.2,10.3-55.8c1.8-3-2.9-5.7-4.7-2.7c-10.8,17.9-14.6,39.4-10.9,60
				C348.9,352.6,354.1,351.2,353.5,347.8L353.5,347.8z"/>
		</g>
	</g>
</g>
<g id="Chart_4">
</g>
<g id="Chart_3">
</g>
<g id="Chart_2">
</g>
<g id="Chart_1">
</g>
</svg>
