<?xml version="1.0" encoding="utf-8"?>
<!-- Generator: Adobe Illustrator 25.4.1, SVG Export Plug-In . SVG Version: 6.00 Build 0)  -->
<svg version="1.1" id="Слой_1" xmlns="http://www.w3.org/2000/svg" xmlns:xlink="http://www.w3.org/1999/xlink" x="0px" y="0px"
	 viewBox="0 0 387.1 299.9" style="enable-background:new 0 0 387.1 299.9;" xml:space="preserve">
<style type="text/css">
	.st0{fill:#609961;}
	.st1{fill:#C2BEBC;}
	.st2{opacity:0.54;}
	.st3{fill:#285173;}
	.st4{fill:#09431D;}
	.st5{fill:#2F7630;}
	.st6{fill:#0E2D3D;}
	.st7{fill:#1D3B54;}
	.st8{fill:#EEA886;}
	.st9{fill:#EDDAD3;}
	.st10{fill:#D6C5BE;}
	.st11{fill:#FAE6DE;}
	.st12{fill:#EEA987;}
	.st13{fill:#A77860;}
	.st14{fill:#D6D6D6;}
	.st15{fill:#E8E8E8;}
	.st16{fill:#C2C2C2;}
	.st17{fill:#CF8C6C;}
	.st18{fill:#3B3F66;}
	.st19{fill:#555C94;}
	.st20{fill:#292C47;}
	.st21{fill:#323657;}
	.st22{fill:#D9D0C4;}
	.st23{fill:#494F80;}
	.st24{fill:#E8734D;}
	.st25{fill:#FCCCA2;}
	.st26{fill:#C48A6F;}
	.st27{fill:#DB9C7C;}
	.st28{fill:#DEDEDE;}
	.st29{fill:#2F4563;}
	.st30{fill:#354C70;}
	.st31{fill:#2B3B57;}
	.st32{fill:#353A3D;}
	.st33{fill:#E55353;}
	.st34{fill:#E2D2CA;}
	.st35{fill:#EAD8CF;}
	.st36{fill:#DA9B5B;}
	.st37{fill:#424773;}
	.st38{fill:#3A3F47;}
	.st39{fill:#252840;}
	.st40{fill:#1A2E35;}
	.st41{fill:#FF847F;}
</style>
<g>
	<g>
		
			<rect x="62.6" y="238.4" transform="matrix(0.8379 -0.5459 0.5459 0.8379 -118.8867 79.0212)" class="st0" width="22" height="2.6"/>
	</g>
	<g>
		
			<rect x="62.6" y="250.1" transform="matrix(0.8379 -0.5459 0.5459 0.8379 -125.3212 80.933)" class="st0" width="22" height="2.6"/>
	</g>
	<g>
		
			<rect x="62.6" y="261.9" transform="matrix(0.838 -0.5457 0.5457 0.838 -131.7169 82.8003)" class="st0" width="22" height="2.6"/>
	</g>
	<g>
		<polygon class="st0" points="65.8,281.6 63.6,279.9 82.1,267.9 83.5,270.1 		"/>
	</g>
</g>
<g>
	<g>
		
			<rect x="63.9" y="226.6" transform="matrix(0.8379 -0.5459 0.5459 0.8379 -112.4797 77.1222)" class="st0" width="19.3" height="2.6"/>
	</g>
	<g>
		
			<rect x="63.9" y="190.9" transform="matrix(0.8378 -0.5461 0.5461 0.8378 -93.0309 71.3731)" class="st0" width="19.3" height="2.6"/>
	</g>
	<g>
		
			<rect x="63.9" y="155.3" transform="matrix(0.8379 -0.5459 0.5459 0.8379 -73.5333 65.557)" class="st0" width="19.3" height="2.6"/>
	</g>
	<g>
		
			<rect x="63.9" y="119.6" transform="matrix(0.8379 -0.5459 0.5459 0.8379 -54.0583 59.7725)" class="st0" width="19.3" height="2.6"/>
	</g>
	<g>
		<rect x="63.9" y="83.9" transform="matrix(0.8378 -0.546 0.546 0.8378 -34.586 53.997)" class="st0" width="19.3" height="2.6"/>
	</g>
	<g>
		
			<rect x="63.9" y="48.2" transform="matrix(0.8378 -0.546 0.546 0.8378 -15.1087 48.2109)" class="st0" width="19.3" height="2.6"/>
	</g>
	<g>
		<rect x="63.9" y="12.6" transform="matrix(0.8378 -0.546 0.546 0.8378 4.3688 42.4249)" class="st0" width="19.3" height="2.6"/>
	</g>
</g>
<g>
	<path class="st1" d="M341.5,179.2l-0.1-0.8c0,0,1.7-0.3,4.3-1.1l0.2,0.8C343.2,178.9,341.5,179.1,341.5,179.2z M350.2,176.6
		l-0.3-0.8c1.4-0.5,2.8-1.1,4.1-1.7l0.3,0.7C353,175.5,351.6,176.1,350.2,176.6z M358.3,172.8l-0.4-0.7c1.3-0.7,2.6-1.5,3.8-2.3
		l0.4,0.7C361,171.4,359.7,172.1,358.3,172.8z M365.9,168l-0.5-0.6c1.2-0.9,2.3-1.9,3.4-2.8l0.5,0.6
		C368.3,166.1,367.1,167,365.9,168z M372.6,161.9l-0.6-0.6c1-1.1,2-2.2,2.9-3.4l0.6,0.5C374.6,159.7,373.6,160.8,372.6,161.9z
		 M378.2,154.9l-0.7-0.4c0.8-1.2,1.6-2.5,2.3-3.8l0.7,0.4C379.7,152.3,379,153.6,378.2,154.9z M96.8,151.5l-0.7-0.4
		c0.8-1.2,1.6-2.5,2.5-3.7l0.7,0.5C98.4,149,97.5,150.3,96.8,151.5z M382.4,147l-0.7-0.3c0.6-1.3,1.1-2.7,1.6-4.1l0.8,0.3
		C383.5,144.2,383,145.6,382.4,147z M102,144.2l-0.6-0.5c0.9-1.2,1.9-2.3,2.9-3.5l0.6,0.5C103.8,141.9,102.9,143.1,102,144.2z
		 M385.2,138.4l-0.8-0.2c0.3-1.4,0.7-2.9,0.9-4.3l0.8,0.1C385.9,135.5,385.6,137,385.2,138.4z M107.8,137.5l-0.6-0.6
		c1-1.1,2.1-2.2,3.2-3.2l0.6,0.6C109.9,135.4,108.8,136.4,107.8,137.5z M114.3,131.4l-0.5-0.6c1.1-1,2.3-2,3.5-2.9l0.5,0.6
		C116.5,129.4,115.4,130.4,114.3,131.4z M386.8,129.6l-0.8-0.1c0.1-1.4,0.2-2.9,0.3-4.4l0.8,0C387,126.6,386.9,128.1,386.8,129.6z
		 M121.3,125.9l-0.5-0.7c1.2-0.9,2.5-1.7,3.7-2.5l0.4,0.7C123.7,124.2,122.5,125,121.3,125.9z M128.8,121.1l-0.4-0.7
		c1.3-0.7,2.7-1.4,4-2l0.3,0.7C131.4,119.8,130.1,120.4,128.8,121.1z M386.3,120.6c0-1.5-0.1-2.9-0.2-4.4l0.8-0.1
		c0.1,1.5,0.2,3,0.2,4.5L386.3,120.6z M136.8,117.4l-0.3-0.8c1.4-0.6,2.8-1.1,4.2-1.5l0.2,0.8C139.6,116.3,138.2,116.8,136.8,117.4z
		 M193.2,114.7c-1.1,0-2.2,0-3.4,0l0-0.8c1.1,0,2.3,0,3.4,0c0.4,0,0.7,0,1.1,0l0,0.8C193.9,114.7,193.5,114.7,193.2,114.7z
		 M145.3,114.7l-0.2-0.8c1.3-0.3,2.8-0.6,4.5-0.8l0.1,0.8C148.1,114.1,146.6,114.3,145.3,114.7z M198.7,114.6l0-0.8
		c1.5,0,3-0.1,4.5-0.2l0,0.8C201.8,114.5,200.3,114.6,198.7,114.6z M185.3,114.6c-1.4,0-2.9-0.1-4.5-0.2l0-0.8
		c1.6,0.1,3.1,0.1,4.5,0.2L185.3,114.6z M176.4,114.2c-1.2-0.1-2.3-0.1-3.4-0.2l-1-0.1l0-0.8l1,0.1c1.1,0.1,2.3,0.1,3.4,0.2
		L176.4,114.2z M207.7,114.1l-0.1-0.8c1.5-0.1,3-0.3,4.4-0.4l0.1,0.8C210.7,113.9,209.2,114,207.7,114.1z M167.4,113.8
		c-1.7-0.1-3.1-0.1-4.5-0.2l0-0.8c1.3,0,2.8,0.1,4.5,0.2L167.4,113.8z M154.1,113.6l0-0.8c1.2-0.1,2.5-0.1,3.9-0.1
		c0.2,0,0.4,0,0.5,0l0,0.8c-0.2,0-0.4,0-0.5,0C156.6,113.5,155.3,113.5,154.1,113.6z M216.6,113.1l-0.1-0.8c1.5-0.2,3-0.5,4.4-0.7
		l0.2,0.8C219.6,112.6,218.1,112.9,216.6,113.1z M385.7,111.8c-0.2-1.3-0.3-2.7-0.6-4c0-0.1,0-0.3-0.1-0.4l0.8-0.1
		c0,0.1,0,0.3,0.1,0.4c0.2,1.3,0.4,2.7,0.6,4L385.7,111.8z M225.4,111.4l-0.2-0.8c1.5-0.3,2.9-0.7,4.3-1.1l0.2,0.8
		C228.3,110.7,226.9,111.1,225.4,111.4z M234.1,109.1l-0.2-0.8c1.4-0.5,2.8-0.9,4.2-1.4l0.3,0.8
		C236.9,108.1,235.5,108.6,234.1,109.1z M242.5,106l-0.3-0.7c1.4-0.6,2.7-1.2,4.1-1.8l0.3,0.7C245.2,104.8,243.9,105.4,242.5,106z
		 M384.2,103c-0.3-1.5-0.7-2.9-1.1-4.3l0.8-0.2c0.4,1.4,0.8,2.9,1.1,4.4L384.2,103z M250.6,102.2l-0.4-0.7c1.3-0.7,2.6-1.4,3.9-2.2
		l0.4,0.7C253.2,100.7,251.9,101.5,250.6,102.2z M258.3,97.6l-0.4-0.7c1.2-0.8,2.5-1.6,3.7-2.5l0.5,0.7
		C260.8,95.9,259.6,96.8,258.3,97.6z M381.7,94.5c-0.5-1.4-1.1-2.8-1.7-4.1l0.7-0.3c0.6,1.3,1.2,2.7,1.7,4.2L381.7,94.5z
		 M265.6,92.4l-0.5-0.6c1.2-0.9,2.3-1.9,3.5-2.8l0.5,0.6C268,90.5,266.8,91.5,265.6,92.4z M272.5,86.6l-0.6-0.6l0.1-0.1
		c1-1,2.1-1.9,3.3-2.8l0.5,0.6c-1.1,0.9-2.2,1.9-3.2,2.8L272.5,86.6z M378,86.4c-0.7-1.3-1.5-2.5-2.4-3.7l0.7-0.5
		c0.8,1.2,1.7,2.5,2.4,3.8L378,86.4z M279.3,80.9l-0.5-0.7c1.2-0.9,2.4-1.7,3.7-2.6l0.4,0.7C281.7,79.2,280.5,80.1,279.3,80.9z
		 M372.9,79.2c-1-1.1-2-2.2-3-3.2l0.6-0.6c1.1,1,2.1,2.1,3.1,3.3L372.9,79.2z M286.7,76l-0.4-0.7c1.3-0.8,2.6-1.5,3.9-2.2l0.4,0.7
		C289.3,74.5,288,75.3,286.7,76z M366.5,73.1c-1.2-0.9-2.4-1.8-3.6-2.5l0.4-0.7c1.3,0.8,2.5,1.7,3.7,2.6L366.5,73.1z M294.6,71.8
		l-0.3-0.7c1.3-0.6,2.7-1.3,4.1-1.8l0.3,0.7C297.3,70.6,295.9,71.2,294.6,71.8z M302.8,68.4l-0.3-0.8c1.4-0.5,2.8-1,4.2-1.5l0.2,0.8
		C305.6,67.4,304.2,67.9,302.8,68.4z M359,68.4c-1.3-0.7-2.7-1.3-4-1.8l0.3-0.8c1.4,0.6,2.8,1.2,4.1,1.8L359,68.4z M311.3,65.7
		l-0.2-0.8c1.4-0.4,2.9-0.7,4.4-1.1l0.2,0.8C314.2,64.9,312.7,65.3,311.3,65.7z M350.8,65.1c-1.4-0.4-2.8-0.8-4.3-1.1l0.2-0.8
		c1.5,0.3,2.9,0.7,4.4,1.1L350.8,65.1z M320,63.8l-0.1-0.8c1.5-0.2,3-0.5,4.4-0.6l0.1,0.8C322.9,63.4,321.5,63.6,320,63.8z
		 M342.1,63.3c-1.4-0.2-2.9-0.3-4.4-0.4l0.1-0.8c1.5,0.1,3,0.2,4.5,0.4L342.1,63.3z M328.8,62.8l0-0.8c1.4-0.1,2.9-0.1,4.3-0.1
		l0.2,0l0,0.8h-0.2C331.7,62.7,330.3,62.7,328.8,62.8z"/>
</g>
<g>
	<path class="st1" d="M11.9,188.8c-0.7-0.5-1.4-1.1-2.1-1.7l0.6-0.6c0.7,0.6,1.3,1.2,2,1.7L11.9,188.8z M6.8,183.8
		c-0.9-1.2-1.8-2.4-2.6-3.7l0.7-0.4c0.8,1.3,1.6,2.5,2.5,3.6L6.8,183.8z M205.3,182.3l-0.8-0.2c0,0,0.4-1.6,1.1-4.3l0.8,0.2
		C205.7,180.7,205.3,182.3,205.3,182.3z M2.1,176.1c-0.6-1.4-1.2-2.8-1.7-4.2l0.8-0.3c0.5,1.4,1,2.8,1.6,4.1L2.1,176.1z
		 M207.3,173.5l-0.8-0.2c0.3-1.4,0.5-2.9,0.8-4.4l0.8,0.1C207.8,170.6,207.5,172.1,207.3,173.5z M-0.8,167.5c-0.3-1.5-0.5-3-0.6-4.5
		l0.8-0.1c0.1,1.4,0.3,2.9,0.6,4.4L-0.8,167.5z M208.7,164.7l-0.8-0.1c0.2-1.5,0.4-3,0.6-4.4l0.8,0.1
		C209.1,161.7,209,163.2,208.7,164.7z M-0.6,158.6l-0.8-0.1c0.1-1.5,0.3-3,0.7-4.5l0.8,0.2C-0.3,155.6-0.5,157.1-0.6,158.6z
		 M209.8,155.8l-0.8-0.1c0.1-1.5,0.2-3,0.3-4.4l0.8,0C210,152.8,209.9,154.3,209.8,155.8z M1.4,150.1l-0.7-0.3
		c0.6-1.4,1.3-2.7,2.2-4l0.7,0.5C2.7,147.4,2,148.7,1.4,150.1z M210.3,146.8l-0.8,0c0-1.1,0-2.2,0-3.2c0-0.4,0-0.8,0-1.2l0.8,0
		c0,0.4,0,0.8,0,1.2C210.3,144.7,210.3,145.8,210.3,146.8z M6.3,142.9l-0.6-0.6c1-1,2.2-2,3.4-3l0.5,0.7
		C8.5,140.9,7.3,141.8,6.3,142.9z M209.4,137.9c-0.1-1.5-0.2-3-0.3-4.4l0.8-0.1c0.1,1.5,0.2,3,0.3,4.5L209.4,137.9z M13.4,137.6
		l-0.4-0.7c1.3-0.8,2.7-1.4,4.1-2l0.3,0.8C16,136.2,14.7,136.9,13.4,137.6z M21.5,134.3l-0.2-0.8c1.4-0.4,2.9-0.7,4.4-0.9l0.1,0.8
		C24.4,133.6,22.9,133.9,21.5,134.3z M43.7,133.3c-1.5,0-3.1-0.1-4.5-0.1l0-0.8c1.4,0.1,2.9,0.1,4.5,0.1L43.7,133.3z M48.2,133.2
		l0-0.8c1.5-0.1,3-0.2,4.4-0.4l0.1,0.8C51.2,133,49.7,133.2,48.2,133.2z M30.3,133l0-0.8c1.3,0,2.7,0,4.5,0l0,0.8
		C33,133,31.6,133,30.3,133z M57.1,132.1l-0.2-0.8c1.4-0.3,2.9-0.7,4.3-1.1l0.2,0.8C60,131.4,58.5,131.8,57.1,132.1z M65.7,129.4
		l-0.3-0.8c1.3-0.5,2.7-1.1,4.1-1.8l0.4,0.7C68.4,128.3,67,128.9,65.7,129.4z M208.6,129c-0.2-1.5-0.4-3-0.7-4.4l0.8-0.2
		c0.3,1.4,0.5,2.9,0.7,4.4L208.6,129z M73.8,125.6l-0.4-0.7c0.6-0.4,1.3-0.7,1.9-1.1c0.6-0.4,1.3-0.8,1.9-1.2l0.4,0.7
		c-0.6,0.4-1.3,0.8-1.9,1.2C75.1,124.8,74.4,125.2,73.8,125.6z M81.4,120.7l-0.5-0.7c1.2-0.8,2.4-1.8,3.5-2.7l0.5,0.6
		C83.7,119,82.5,119.9,81.4,120.7z M206.9,120.3c-0.4-1.5-0.8-2.9-1.2-4.3l0.8-0.3c0.5,1.4,0.9,2.8,1.2,4.3L206.9,120.3z
		 M88.3,115.1l-0.5-0.6c1-0.9,2.1-1.9,3.3-3l0.6,0.6C90.5,113.2,89.4,114.2,88.3,115.1z M204.1,111.9c-0.6-1.4-1.2-2.7-1.9-4
		l0.7-0.4c0.7,1.3,1.3,2.7,1.9,4.1L204.1,111.9z M94.8,108.9l-0.6-0.6c0.8-0.8,1.5-1.5,2.3-2.3l0.9-0.9l0.6,0.6l-0.9,0.9
		C96.3,107.4,95.6,108.2,94.8,108.9z M200.1,104c-0.8-1.3-1.7-2.5-2.6-3.6l0.6-0.5c0.9,1.2,1.8,2.4,2.6,3.7L200.1,104z M101.2,102.6
		l-0.6-0.6c1.2-1.1,2.2-2.2,3.3-3.1l0.5,0.6C103.4,100.5,102.3,101.5,101.2,102.6z M194.6,97.1c-1-1-2.1-2-3.3-3l0.5-0.6
		c1.2,0.9,2.3,2,3.3,3L194.6,97.1z M107.8,96.7l-0.5-0.6c1.2-1,2.4-1.9,3.6-2.7l0.5,0.7C110.1,94.8,108.9,95.7,107.8,96.7z
		 M115,91.6l-0.4-0.7c1.3-0.8,2.6-1.5,4-2.1l0.4,0.7C117.6,90.1,116.3,90.8,115,91.6z M187.7,91.5c-1.2-0.8-2.5-1.5-3.9-2.2l0.4-0.7
		c1.4,0.7,2.7,1.4,3.9,2.2L187.7,91.5z M122.9,87.7l-0.3-0.8c1.4-0.5,2.8-1,4.3-1.4l0.2,0.8C125.7,86.7,124.3,87.2,122.9,87.7z
		 M179.8,87.6c-1.4-0.5-2.8-1-4.2-1.4l0.2-0.8c1.5,0.4,2.9,0.9,4.3,1.4L179.8,87.6z M171.3,85.3c-1.1-0.2-2.2-0.4-3.4-0.5
		c-0.3,0-0.7-0.1-1-0.1l0.1-0.8c0.3,0,0.7,0.1,1,0.1c1.2,0.1,2.3,0.3,3.4,0.5L171.3,85.3z M131.4,85.2l-0.2-0.8
		c1.4-0.3,2.9-0.6,4.4-0.8l0.1,0.8C134.3,84.6,132.8,84.9,131.4,85.2z M162.4,84.2c-1.5-0.1-3-0.3-4.4-0.4L158,83
		c1.5,0.1,3,0.2,4.5,0.4L162.4,84.2z M140.2,83.9l-0.1-0.8c1.4-0.1,3-0.2,4.5-0.3l0,0.8C143.1,83.6,141.6,83.7,140.2,83.9z
		 M153.5,83.6c-1.5-0.1-3-0.1-4.4-0.1h0v-0.8h0c1.4,0,2.9,0,4.5,0.1L153.5,83.6z"/>
</g>
<g>
	<path class="st0" d="M229.6,26.1H29.7c-0.2,0-0.4-0.2-0.5-0.4c-0.1-0.2,0-0.5,0.2-0.6L73.3,0.8c0.1-0.1,0.2-0.1,0.3-0.1l156,24.4
		c0.3,0,0.4,0.3,0.4,0.5C230.1,25.9,229.8,26.1,229.6,26.1z M31.7,25.1H223L73.7,1.7L31.7,25.1z"/>
</g>
<g class="st2">
	<path class="st0" d="M270.6,244.9h-12.8v-1.6h12.8V244.9z M245,244.9h-12.8v-1.6H245V244.9z M219.4,244.9h-12.8v-1.6h12.8V244.9z
		 M193.7,244.9h-12.8v-1.6h12.8V244.9z M168.1,244.9h-12.8v-1.6h12.8V244.9z M142.5,244.9h-12.8v-1.6h12.8V244.9z M116.9,244.9
		h-12.8v-1.6h12.8V244.9z M91.3,244.9h-3v-11.4H90v9.8h1.4V244.9z M271.4,237.9h-1.6v-12.8h1.6V237.9z M90,220.7h-1.6v-12.8H90
		V220.7z M271.4,212.3h-1.6v-12.8h1.6V212.3z M90,195.1h-1.6v-12.8H90V195.1z M271.4,186.7h-1.6v-12.8h1.6V186.7z M90,169.5h-1.6
		v-12.8H90V169.5z M271.4,161.1h-1.6v-12.8h1.6V161.1z M90,143.9h-1.6v-12.8H90V143.9z M271.4,135.5h-1.6v-12.8h1.6V135.5z
		 M90,118.3h-1.6v-12.8H90V118.3z M271.4,109.9h-1.6V97.1h1.6V109.9z M90,92.7h-1.6V79.9H90V92.7z M271.4,84.3h-1.6V71.5h1.6V84.3z
		 M258.9,71.2h-12.8v-1.6h12.8V71.2z M233.3,71.2h-12.8v-1.6h12.8V71.2z M207.7,71.2h-12.8v-1.6h12.8V71.2z M182.1,71.2h-12.8v-1.6
		h12.8V71.2z M156.5,71.2h-12.8v-1.6h12.8V71.2z M130.9,71.2h-12.8v-1.6h12.8V71.2z M105.3,71.2H92.5v-1.6h12.8V71.2z"/>
</g>
<g>
	<path class="st3" d="M337.6,81.1h-47.9c-0.2,0-0.5-0.2-0.5-0.4c0-0.2,0.1-0.5,0.3-0.6l24-10.2c0.1-0.1,0.3-0.1,0.4,0l24,10.2
		c0.2,0.1,0.3,0.3,0.3,0.6C338,80.9,337.8,81.1,337.6,81.1z M292.1,80h42.9l-21.5-9.1L292.1,80z"/>
</g>
<g>
	<g>
		<path class="st0" d="M154.6,184.9v96.6h-43.4v-85.3c5.4-1.3,10.9-2.6,16.5-4.1C136.4,190,145.4,187.5,154.6,184.9z"/>
	</g>
</g>
<g>
	<g>
		<path class="st0" d="M213.8,165.9v115.6h-43.4V180.2C184.5,176,199,171.2,213.8,165.9z"/>
	</g>
</g>
<g>
	<g>
		<path class="st0" d="M273,141.7v139.8h-43.4V160C244,154.4,258.5,148.3,273,141.7z"/>
	</g>
</g>
<g>
	<g>
		<path class="st4" d="M95.5,201.7c5.2-1.1,10.4-2.4,15.8-3.6c5.5-1.3,11.2-2.7,16.9-4.2c9-2.3,17.8-4.7,26.5-7.1
			c5.3-1.5,10.6-3,15.8-4.6c14.9-4.5,29.4-9.3,43.4-14.3c5.3-1.9,10.6-3.9,15.8-5.9c13-5,25.5-10.2,37.6-15.6
			c1.9-0.9,3.9-1.8,5.8-2.6c5.3-2.5,10.6-5,15.8-7.5c15.3-7.6,29.8-15.5,43.4-23.8c1-0.6,1.9-1.2,2.9-1.8c1.1-0.7,2.3-1.4,3.4-2.2
			v-2.3c-2.1,1.3-4.2,2.6-6.3,3.9c-14.1,8.6-28.6,16.6-43.4,23.9c-5.2,2.6-10.5,5.1-15.8,7.6c-14.4,6.7-29,12.8-43.4,18.3
			c-5.3,2-10.5,4-15.8,5.9c-14.8,5.3-29.3,10.1-43.4,14.4c-5.3,1.6-10.6,3.2-15.8,4.6c-9.3,2.6-18.3,5.1-26.9,7.3
			c-5.6,1.4-11.1,2.8-16.5,4.1c-5.4,1.3-10.6,2.5-15.8,3.6V201.7z"/>
	</g>
</g>
<g>
	<rect x="288.8" y="79.6" class="st4" width="49.7" height="201.9"/>
</g>
<g class="st2">
	<g>
		<polygon class="st0" points="351,281.5 346,281.5 346,279.9 349.4,279.9 349.4,276.5 351,276.5 		"/>
	</g>
	<g>
		<path class="st0" d="M337.4,281.5h-13.3v-1.6h13.3V281.5z M310.8,281.5h-13.3v-1.6h13.3V281.5z"/>
	</g>
	<g>
		<polygon class="st0" points="285.7,281.5 280.7,281.5 280.7,276.5 282.4,276.5 282.4,279.9 285.7,279.9 		"/>
	</g>
	<g>
		<path class="st0" d="M282.4,268.5h-1.6v-12.4h1.6V268.5z M282.4,243.7h-1.6v-12.4h1.6V243.7z M282.4,218.9h-1.6v-12.4h1.6V218.9z
			 M282.4,194h-1.6v-12.4h1.6V194z M282.4,169.2h-1.6v-12.4h1.6V169.2z M282.4,144.4h-1.6V132h1.6V144.4z M282.4,119.6h-1.6v-12.4
			h1.6V119.6z M282.4,94.8h-1.6V82.4h1.6V94.8z M282.4,70h-1.6v-6.2h1.6V70z"/>
	</g>
	<g>
		<polygon class="st0" points="282.4,59.7 280.7,59.7 280.7,54.8 285.7,54.8 285.7,56.4 282.4,56.4 		"/>
	</g>
	<g>
		<path class="st0" d="M334.3,56.4H321v-1.6h13.3V56.4z M307.6,56.4h-13.3v-1.6h13.3V56.4z"/>
	</g>
	<g>
		<polygon class="st0" points="351,59.7 349.4,59.7 349.4,56.4 346,56.4 346,54.8 351,54.8 		"/>
	</g>
	<g>
		<path class="st0" d="M351,272.5h-1.6v-6.2h1.6V272.5z M351,253.9h-1.6v-12.4h1.6V253.9z M351,229.1h-1.6v-12.4h1.6V229.1z
			 M351,204.3h-1.6v-12.4h1.6V204.3z M351,179.4h-1.6V167h1.6V179.4z M351,154.6h-1.6v-12.4h1.6V154.6z M351,129.8h-1.6v-12.4h1.6
			V129.8z M351,105h-1.6V92.6h1.6V105z M351,80.2h-1.6V67.8h1.6V80.2z"/>
	</g>
</g>
<g>
	<g>
		<g>
			<path class="st5" d="M101.2,167.5c0.1,0.2,0.2,0.4,0.4,0.5l-0.5,0.4l-14.6,9.8l-0.4-0.5l14.6-9.8L101.2,167.5z"/>
		</g>
		<g>
			<path class="st5" d="M153.7,170.3c0,0.2-0.1,0.4-0.1,0.7l-0.7-0.1l-41.7-5l-0.7-0.1c0-0.2,0.1-0.4,0.1-0.7l0.7,0.1l41.7,5
				L153.7,170.3z"/>
		</g>
		<g>
			<path class="st5" d="M194.6,139.1l-0.5,0.4l-30.9,28l-0.5,0.4c-0.1-0.2-0.3-0.3-0.4-0.5l0.5-0.4l30.9-28l0.5-0.4
				C194.3,138.8,194.4,139,194.6,139.1z"/>
		</g>
		<g>
			<path class="st5" d="M245.1,135.5c0,0.1,0,0.2,0,0.3h-41.9c0-0.1,0-0.2,0-0.3c0-0.1,0-0.2,0-0.3h41.9
				C245.1,135.2,245.1,135.4,245.1,135.5z"/>
		</g>
		<g>
			<path class="st5" d="M281.1,102.2l-26.8,29.2l-0.4,0.5c-0.2-0.2-0.3-0.3-0.5-0.4l0.4-0.5l26.8-29.2L281.1,102.2z"/>
		</g>
	</g>
	<g>
		<g>
			<path class="st5" d="M105.6,159.1c-3.2,0-5.8,2.6-5.8,5.8c0,3.2,2.6,5.8,5.8,5.8c3.2,0,5.8-2.6,5.8-5.8
				C111.3,161.7,108.8,159.1,105.6,159.1z M105.6,170c-2.8,0-5.1-2.3-5.1-5.1c0-2.8,2.3-5.1,5.1-5.1c2.8,0,5.1,2.3,5.1,5.1
				C110.7,167.7,108.4,170,105.6,170z"/>
		</g>
	</g>
	<g>
		<g>
			<path class="st5" d="M158.7,165.5c-3.2,0-5.8,2.6-5.8,5.8c0,3.2,2.6,5.8,5.8,5.8c3.2,0,5.8-2.6,5.8-5.8
				C164.5,168.1,161.9,165.5,158.7,165.5z M158.7,176.3c-2.8,0-5.1-2.3-5.1-5.1c0-2.8,2.3-5.1,5.1-5.1c2.8,0,5.1,2.3,5.1,5.1
				C163.8,174,161.5,176.3,158.7,176.3z"/>
		</g>
	</g>
	<g>
		<g>
			<path class="st5" d="M198.1,129.7c-3.2,0-5.8,2.6-5.8,5.8c0,3.2,2.6,5.8,5.8,5.8c3.2,0,5.8-2.6,5.8-5.8
				C203.9,132.3,201.3,129.7,198.1,129.7z M198.1,140.6c-2.8,0-5.1-2.3-5.1-5.1c0-2.8,2.3-5.1,5.1-5.1c2.8,0,5.1,2.3,5.1,5.1
				C203.2,138.3,201,140.6,198.1,140.6z"/>
		</g>
	</g>
	<g>
		<g>
			<path class="st5" d="M250.2,129.7c-3.2,0-5.8,2.6-5.8,5.8c0,3.2,2.6,5.8,5.8,5.8c3.2,0,5.8-2.6,5.8-5.8
				C256,132.3,253.4,129.7,250.2,129.7z M250.2,140.6c-2.8,0-5.1-2.3-5.1-5.1c0-2.8,2.3-5.1,5.1-5.1c2.8,0,5.1,2.3,5.1,5.1
				C255.3,138.3,253,140.6,250.2,140.6z"/>
		</g>
	</g>
</g>
<g>
	<path class="st5" d="M82.9,234.4H64.3V0h18.6V234.4z M66.7,232h13.8V2.4H66.7V232z"/>
</g>
<g>
	<path class="st3" d="M313.6,72.2c-2.1,0-3.8-1.7-3.8-3.8h1c0,1.5,1.2,2.8,2.8,2.8c1.5,0,2.8-1.2,2.8-2.8c0-1.5-1.2-2.8-2.8-2.8
		h-0.5V41.5h1v23.2c1.9,0.2,3.3,1.8,3.3,3.8C317.4,70.5,315.7,72.2,313.6,72.2z"/>
</g>
<g>
	<g>
		<rect x="37" y="23" transform="matrix(0.7399 -0.6727 0.6727 0.7399 -12.8807 34.6219)" class="st0" width="2.6" height="21.9"/>
	</g>
	<g>
		
			<rect x="86.8" y="23" transform="matrix(0.7399 -0.6727 0.6727 0.7399 6.624222e-02 68.1093)" class="st0" width="2.6" height="21.9"/>
	</g>
	<g>
		
			<rect x="136.6" y="23" transform="matrix(0.7399 -0.6727 0.6727 0.7399 13.0133 101.5962)" class="st0" width="2.6" height="21.9"/>
	</g>
	<g>
		<rect x="186.4" y="23" transform="matrix(0.7399 -0.6727 0.6727 0.7399 25.9586 135.08)" class="st0" width="2.6" height="21.9"/>
	</g>
	<g>
		
			<rect x="236.2" y="23" transform="matrix(0.7399 -0.6727 0.6727 0.7399 38.9029 168.5628)" class="st0" width="2.6" height="21.9"/>
	</g>
	<g>
		
			<rect x="285.9" y="23" transform="matrix(0.7399 -0.6727 0.6727 0.7399 51.8488 202.0482)" class="st0" width="2.6" height="21.9"/>
	</g>
	<g>
		
			<rect x="335.7" y="23" transform="matrix(0.7399 -0.6727 0.6727 0.7399 64.8082 235.5517)" class="st0" width="2.6" height="21.9"/>
	</g>
</g>
<g>
	<path class="st5" d="M345.6,43.5H28.5V24.4h317.1V43.5z M30.9,41.1h312.2V26.8H30.9V41.1z"/>
</g>
<g>
	<g>
		<rect x="55.7" y="281" class="st4" width="304.7" height="0.5"/>
	</g>
</g>
<g>
	<path class="st5" d="M84,281.9H63.1v-50H84V281.9z M65.6,279.5h16v-45.1h-16V279.5z"/>
</g>
<g>
	<g>
		<g>
			<g>
				<path class="st6" d="M365.9,218.5c0,0-2.7,1.3-2.1,5c0.7,3.6,1,4.1,0.2,5.6c-0.8,1.4-1.7,7.5-1,8.7c0.7,1.2,8.4-5.1,9.5-10.3
					c1.1-5.2-0.7-7.5-1.3-8.4C370.7,218.2,368.3,217.3,365.9,218.5z"/>
			</g>
		</g>
	</g>
</g>
<g>
	<g>
		<path class="st3" d="M365.2,231.7c0,0-1.4,0.3-2.2,1.4c-0.5,0.8-0.6,2.6-0.7,2.9c-0.1,0.3-1.1,4.1-1.1,4.1l2.9,1.9L365.2,231.7z"
			/>
	</g>
</g>
<g>
	<g>
		<path class="st7" d="M354.4,296.6c0,0-1.9,2.6-1.6,3c0.3,0.4,2.3,0.5,3.5,0c1.2-0.5,1.2-3.5,1.8-4.7c0.2-0.5-0.3-2.1-1-2.2
			c-0.7-0.1-1.4,0.2-1.4,0.2S356.4,294.6,354.4,296.6z"/>
	</g>
</g>
<g>
	<g>
		<g>
			<path class="st8" d="M355.6,292.8c0,0-0.4,1.1-0.5,2.1c-0.1,0.9-1.4,2.7-1.3,2.9c0.1,0.2,1.6,0.4,2.3-0.2c0.6-0.6,1-2.3,1.2-3.4
				c0.1-1,0.3-1.4,0.3-1.4S356.3,292.2,355.6,292.8z"/>
		</g>
	</g>
</g>
<g>
	<g>
		<path class="st7" d="M370.9,296.7c0,0-1.8,2.5-1.6,2.9c0.3,0.4,2.3,0.5,3.5,0c1.2-0.5,1.2-3.5,1.8-4.7c0.2-0.5-0.3-2.1-1-2.2
			c-0.7-0.1-1.5,0.2-1.5,0.2S372.9,294.7,370.9,296.7z"/>
	</g>
</g>
<g>
	<g>
		<g>
			<path class="st8" d="M372.2,292.8c0,0-0.1,1.2-0.4,2c-0.2,0.8-1.5,2.7-1.4,3c0.1,0.2,1.6,0.4,2.3-0.2c0.6-0.6,1.1-2.3,1.2-3.4
				c0.1-1-0.1-1.7-0.1-1.7S372.8,292.2,372.2,292.8z"/>
		</g>
	</g>
</g>
<g>
	<g>
		<g>
			<path class="st8" d="M363,251.3c0,0-1.6,7.6-2,9.5c-0.4,1.9-1.4,11.1-1.5,12.7c-0.1,1.6-1.7,7.5-1.6,8c0.1,0.6-2.4,11.8-2.4,11.8
				s0.8,0.7,1.7,0.1c0.4-0.3,5.3-10.5,5.3-13.3c0-3.9,2.9-8.9,3.2-9.8c3.4-8.1,2.8-10.5,3.2-11c0.4-0.5,0.5,0.3,0.7,1.5
				c0.3,1.2,0.8,11.2,1.2,12.4c0.3,1.3,0.1,5.6,0.3,7.7c0.2,2.2,1,12,1,12s0.6,1,1.5,0c0.2-0.2,1.5-10.9,1.6-13.5
				c0-2.6,0.1-6.1,0.1-7.2c0.7-10.7,2.4-12.2-0.3-19.8C370.1,238.2,363,251.3,363,251.3z"/>
		</g>
	</g>
</g>
<g>
	<g>
		<path class="st7" d="M374,249.2c0,0,4.6,6.5,2.6,20.3c0,0-11,1.5-16.9-1.7c0,0,2.4-14.2,3.3-16.4C363.9,249.1,374,249.2,374,249.2
			z"/>
	</g>
</g>
<g>
	<g>
		<polygon class="st7" points="358.1,294.6 358.1,297.3 357.8,297.3 357.8,295.2 		"/>
	</g>
</g>
<g>
	<g>
		<polygon class="st7" points="374.7,294.6 374.7,297.3 374.3,297.3 374.3,295.2 		"/>
	</g>
</g>
<g>
	<g>
		<path class="st9" d="M367.7,230.7c0,0-1.7,0.8-2.3,0.9c-0.6,0.1-2.9,3.1-3.3,4.2c-0.4,1.1,0,2.7,0.8,4.6c0.8,1.9,0,2.6,0.4,4.5
			c0.4,1.9,0.7,6,0.6,7.1c-0.1,1.1,9.6,1.3,11.8-0.7c0,0-2.2-3.3-2.5-3.8c-0.3-0.5,0-3.1,0.2-3.7c0.3-0.7,2-6.3,2-6.3
			s1.4-4.3,0.1-5.3c-1.1-0.9-4.2-1.2-4.7-1.4C370.4,230.6,368.9,230.6,367.7,230.7z"/>
	</g>
</g>
<g>
	<g>
		<path class="st10" d="M367.2,234.5l-1-1.2l0.9-3.2C367.1,230.1,367.4,231.9,367.2,234.5z"/>
	</g>
</g>
<g>
	<g>
		<path class="st8" d="M366.9,228.8c0,0,0,0.4,0.1,1c0,0.3,0.1,0.6,0.1,0.9c0.1,0.9,0.1,1.8,0.1,2.3c0,0,1.8,1.8,3.8-2.1
			c0,0-0.8-1.6-0.2-3.8C371.4,224.9,366.9,228.8,366.9,228.8z"/>
	</g>
</g>
<g>
	<g>
		<polygon class="st8" points="367.2,232.9 367.2,234.5 369.2,233 		"/>
	</g>
</g>
<g>
	<g>
		<polygon class="st10" points="367.2,234.5 368,233.5 370.9,230.6 371.8,231.5 		"/>
	</g>
</g>
<g>
	<g>
		<path class="st3" d="M371.3,230.9c0,0-2.4,3.6-2.5,5.2c-0.1,1.6,0.9,13.6,1.7,17.4c0.8,3.8,6.6-0.4,6.6-0.4s-3.9-6.3-2.4-11.4
			c1.5-5.1,2-7.1,2-7.1s-0.5-2.8-2.3-3.2C372.8,231.1,371.3,230.9,371.3,230.9z"/>
	</g>
</g>
<g>
	<g>
		<path class="st3" d="M362,236.3c0,0-0.4,1.5,1.3,4.9c0,0,0,4.3-0.1,5.7c0,1.4-1,6.2-1,6.2l2.3,1.2c0.3,0.2,0.8-0.1,0.7-0.5
			c-0.5-3.9-2-18.6,1.3-22.6l-1.3,0.4C365.1,231.7,362.8,233.6,362,236.3z"/>
	</g>
</g>
<g>
	<g>
		<polygon class="st11" points="366.2,233.3 364.9,233.7 367.1,230.1 		"/>
	</g>
</g>
<g>
	<g>
		<polygon class="st11" points="368,233.5 369.2,235.1 371.7,231 370.9,230.6 		"/>
	</g>
</g>
<g>
	<rect x="362" y="241.5" transform="matrix(0.621 -0.7838 0.7838 0.621 -51.2703 377.3513)" class="st5" width="5.1" height="0.4"/>
</g>
<g>
	<path class="st8" d="M366.5,243.4c0,0-0.3,0-0.5-0.1c-0.3-0.3-0.5-0.9-1.1-0.9c-0.6,0-0.9,2-0.7,2.3c0.2,0.4,1,0.5,2.2,0.3
		C367.7,244.7,366.5,243.4,366.5,243.4z"/>
</g>
<g>
	<path class="st8" d="M365.1,242.4c0,0-0.9-0.3-1.9-0.5c-0.9-0.2-1.9-0.3-2-0.1c-0.1,0.2,0.9,0.3,1.7,0.6c0.8,0.2,0.6,0.3,0.6,0.3
		s0.1,0-0.9-0.1c-1-0.1-2-0.1-2.1,0.1c0,0.1,0,0.2,0.3,0.2c-0.2,0-0.2,0-0.2,0.1c0,0.4,1.4,0.8,2,0.9c-0.4-0.1-0.8-0.1-0.6,0.2
		c0.2,0.3,2.2,0.7,2.9,1C365.8,245.3,365.1,242.4,365.1,242.4z"/>
</g>
<g>
	<path class="st3" d="M374.1,231.5c0.6-0.2,2.4,0.4,2.7,2.2c0.3,1.8,0.4,3.8,0.7,4.8c0.3,1,1,5.3,0.4,5.6c-0.6,0.4-1.7,0.7-3.3,0.7
		c-1.6,0-8,0.3-8,0.3l-0.4-2.3c0,0,2.4-0.1,3.7-0.3c1.1-0.2,2.6-0.6,4.5-0.8c0,0-0.4-2.7-0.7-3.4
		C373.3,237.6,371.4,232.4,374.1,231.5z"/>
</g>
<g>
	<polygon class="st8" points="362.5,243.1 362.2,243.8 362.8,243.3 	"/>
</g>
<g>
	<g>
		<polygon class="st0" points="366,246.8 359.6,245.6 354.8,235.4 361.7,236.2 		"/>
	</g>
</g>
<g>
	<g>
		<g>
			<path class="st8" d="M358.8,243.9c0,0-0.3-0.3-0.7-0.8c-0.3-0.5-1.3-2.2-1.2-2.3c0.1-0.1,1.6-0.1,1.9,0.1
				c0.3,0.2-0.3,0.3-0.3,0.3s0.8,0.1,0.8,0.3c-0.1,0.2-0.6,0.2-0.6,0.2s0.7,0.1,0.6,0.3c-0.1,0.2-0.4,0.2-0.4,0.2s0.6,0.1,0.5,0.3
				c-0.1,0.2-1,0.4-0.9,0.6C358.6,243.4,358.8,243.9,358.8,243.9z"/>
		</g>
	</g>
</g>
<g>
	<g>
		<g>
			<g>
				<path class="st12" d="M366.3,218.9c0,0-4,1.2-1.8,8.1c2.2,6.9,7.6-0.8,7-5C371,217.9,366.3,218.9,366.3,218.9z"/>
			</g>
		</g>
	</g>
</g>
<g>
	<g>
		<g>
			<g>
				<path class="st6" d="M364.1,222.9c0,0,2,1.9,5.3,2.2c0,0,1.3,1.5,1.4,2.1c0,0,3-5-0.7-8C366.4,216.1,362.8,221.7,364.1,222.9z"
					/>
			</g>
		</g>
	</g>
</g>
<g>
	<g>
		<g>
			<g>
				<path class="st12" d="M369.3,225.2c0-0.5,0.3-1.6,1.1-1.3c0.7,0.3,0,2.6-0.5,2.5C369.9,226.4,369.3,226.4,369.3,225.2z"/>
			</g>
		</g>
	</g>
</g>
<g>
	<path class="st13" d="M367,229.8c0,0.3,0.1,0.6,0.1,0.9l0,0c2.3-1.1,2.7-2.8,2.7-2.8C368.1,229.9,367,229.8,367,229.8z"/>
</g>
<g>
	<g>
		<polygon class="st14" points="30.2,203.3 10.4,196.1 16.6,194.7 		"/>
	</g>
	<g>
		<polygon class="st15" points="30.2,203.3 23.2,195.2 18.5,195.9 		"/>
	</g>
	<g>
		<polygon class="st16" points="15,197.7 15,200.1 30.2,203.3 		"/>
	</g>
</g>
<g>
	<polygon class="st5" points="393.5,205.4 376.2,205.4 376.2,217.9 376.2,220.6 378.9,217.9 393.5,217.9 	"/>
</g>
<g>
	<path class="st8" d="M177,110.8c0,0,0.1-1.2,0.1-1.4c0-0.2,0.3-0.6,0.7-1c0.4-0.4,1.2-0.8,1.3-0.8c0.1,0,0.2,0,0.4,0.2
		c0.2,0.2,0.2,0.4,0.2,0.4s0.3,0.1,0.4,0.4c0,0,0.3,0.1,0.3,0.5c0,0,0.3,0.1,0.3,0.4c0,0-0.3,0.4-0.4,0.6c-0.1,0.2-0.8,1-1.6,1.7
		C178.7,111.7,177.7,112.1,177,110.8z"/>
</g>
<g>
	<path class="st17" d="M178.3,109.6c0,0,0.2,0.6,0.2,0.8c0,0.2,1.4,0.1,1.4,0.1S179,109.4,178.3,109.6z"/>
</g>
<g>
	<path class="st8" d="M178.7,111.7c0,0-0.2,0.4-0.2,0.5c0,0.1-1.9-0.4-1.4-1.5C177.5,109.7,178.7,111.7,178.7,111.7z"/>
</g>
<g>
	<polygon class="st18" points="174.7,174.2 174.7,172.3 177.1,171.9 177.3,173.6 	"/>
</g>
<g>
	<polygon class="st19" points="193.6,167.4 194,168.3 196.4,167 195.8,165.6 	"/>
</g>
<g>
	<g>
		<path class="st5" d="M178.9,143.1c0,0,0.3,2.2,0.7,4.6c0.1,0.4,0.1,0.8,0.2,1.3c0.3,2.3,0.6,4.6,0.6,5c0,1.1-2.8,18-2.8,18
			s-3.2,0.9-3.5,0.5c0,0,1.1-17.7,0.9-18.2c-0.2-0.5-4.9-16.6-4.9-16.6S178.5,142.3,178.9,143.1z"/>
	</g>
</g>
<g>
	<g>
		<path class="st5" d="M179.5,133.4c0,0,8.5,14.4,9.1,15.5c0.7,1.1,7.4,16.6,7.4,16.6s-0.2,1.6-2.9,2c0,0-9.4-15.9-9.9-16.3
			c-1.9-1.8-11.2-10.7-12.2-12c-1.1-1.3-1.5-3.2-1.5-3.2S172.7,132.2,179.5,133.4z"/>
	</g>
</g>
<g>
	<g>
		<path class="st20" d="M171.2,113.7c0,0,2.5,2.8,2.8,2.6c0.3-0.2,2.5-6,2.5-6s2.5,1.6,2.4,1.9c-0.2,0.5-2.1,9.5-2.8,9.6
			c-0.7,0.1-5-3.5-5-3.5S169.7,114.9,171.2,113.7z"/>
	</g>
</g>
<g>
	<g>
		<path class="st21" d="M163.3,109.4c0,0,4.4,1.4,5.7,2.1c1.3,0.7,5.5,4.1,5.7,5.5c1,5.2,2.2,9.6,3.3,13c1,3,2.2,3.4,1.7,3.7
			c-0.7,0.3-8.2,6.5-9.4,7.3c0,0-2.8-10.7-2.8-12.1C167.5,127.6,161.3,115.5,163.3,109.4z"/>
	</g>
</g>
<g>
	<path class="st22" d="M183.7,96.6l2.1,3.6l2.1,3.6c0,0-4.9,0.2-9.6,2.9l-0.9-1.6l-0.9-1.6C181.2,100.8,183.7,96.6,183.7,96.6z"/>
</g>
<g>
	<path class="st4" d="M194,168.3c0,0,1.8-1,1.8-1.1c0-0.1,0.2-1,0.5-1c0.3,0,0.7,0.9,1,1c0.3,0.1,3.2,0.8,3.5,1
		c0.4,0.2,2-0.6,2.4-0.2c0.4,0.4,0.8,1.6-1.9,2.2c-2.7,0.6-5.5,2.1-6.1,2C194.7,172.1,194.1,169.1,194,168.3z"/>
</g>
<g>
	<path class="st4" d="M174.7,174.2c0,0,1.9-0.7,2-0.8c0.1-0.1,0.3-0.9,0.7-0.9c0.3,0.1,0.5,1,0.8,1.1c0.3,0.1,3,1.3,3.3,1.5
		c0.3,0.2,2.1-0.3,2.4,0.2c0.3,0.5,0.5,1.7-2.2,1.9c-2.7,0.2-5.7,1.2-6.4,1C174.7,178,174.6,175,174.7,174.2z"/>
</g>
<g>
	<g>
		<path class="st12" d="M177.8,134.8c0,0,0.6,0.9,1,0.9c0.4,0.1-1,2.8-1,2.8s-1.5-1.6-1.6-1.8C176.3,136.6,177.8,134.8,177.8,134.8z
			"/>
	</g>
</g>
<g>
	<g>
		<path class="st23" d="M163.2,114c0,0,1.6,12.6,1.9,13.9c0.2,1.2,11.5,9.5,11.5,9.5l2-2.3c0,0-9.8-8.8-10-9.3
			c-0.2-0.5-0.6-11-0.6-11s0.5-2.5-2-2.7C163.4,111.8,163.2,114,163.2,114z"/>
	</g>
</g>
<g>
	<path class="st24" d="M179.6,135.1c0,0,2.2,3.7,2.6,5c0.4,1.2-5.3-0.3-5.5-1.6L179.6,135.1z"/>
</g>
<g>
	<g>
		<g>
			<path class="st8" d="M163.3,109.4c0,0,8.7,4.7,8,4c-2.3-2.2-3.4-2.3-3.6-2.9c-0.1-0.4-0.4-1.6-0.5-2c-0.2-0.7-0.4-1.3-0.4-1.3
				s-4.6-3.3-4-1.8C163.6,106.9,163.3,109.4,163.3,109.4z"/>
		</g>
	</g>
</g>
<g>
	<g>
		<g>
			<path class="st8" d="M166.5,99.2c0,0,1.6,1.7,1.7,2.2c0.2,0.5,0.2,0.9,0.4,1.4c0.3,0.5,1.2,1.6,1.2,1.9c0.1,0.4-0.8,0.5-0.7,1.2
				c0.1,0.7-0.1,2.1-0.4,2.3c-0.8,0.3-4.2,0.2-4.6-0.4c-0.4-0.6-2.7-3.6-3.3-4.2c-0.6-0.5,3.7-6.1,4.6-5.2
				C166.5,99.2,166.5,99.2,166.5,99.2z"/>
		</g>
	</g>
</g>
<g>
	<path class="st25" d="M159.4,103.4c-1-1.6,0.9-2.5,0.9-2.5s0.8-1.9,3.9-2.8c3.1-0.9,4.1,3.3,4.1,3.3s-2.2,0.4-3.1,1
		c0,0,0.5,1.8,0.7,2.1l-1.2,0.3c0,0-0.4-1.6-1-1.4c-0.6,0.1,0.4,3.5-0.4,4.6c0,0-0.1-0.2-0.3-0.4l0,0l0,0c-0.3-0.3-0.9-0.8-1.4-1.4
		C160.9,105.3,159.9,104.2,159.4,103.4z"/>
</g>
<g>
	<g>
		<g>
			<path class="st8" d="M164.7,103.4c0,0-0.8-1-1.6,0.1c-0.6,0.8,0.9,2.5,1.6,2.2C165.4,105.5,165.3,104.3,164.7,103.4z"/>
		</g>
	</g>
</g>
<g>
	<path class="st26" d="M163.9,107.3c0,0,0.4,0.6,0.6,0.6c0.2,0.1,1.2,0.4,2.7,0.4l0.3,1.3C167.5,109.6,164.5,109.5,163.9,107.3z"/>
</g>
<g>
	<path class="st3" d="M180.6,110.8l0.4-0.4l-3.5-3.6l-0.9,0.9l3,3C179.9,111.2,180.3,111.1,180.6,110.8z"/>
</g>
<g>
	<path class="st27" d="M179,107.6c0,0-1,1.1-0.9,1.3c0.2,0.2,0.3,0.2,0.3,0.2l-0.2,0.7c0,0,0.1,0.5,0.6,0.2c0,0,0.1,0.5,0.5,0.2
		c0,0,0.2,0.3,0.4,0.2c0.2-0.1,0.9-0.9,0.9-0.9s0.1-0.2-0.3-0.4c0,0,0-0.4-0.3-0.5c0,0,0-0.3-0.4-0.4c0,0-0.1-0.7-0.6-0.6
		C179.1,107.5,179,107.6,179,107.6z"/>
</g>
<g>
	<polygon class="st24" points="175.2,108.7 179.4,106.4 177.4,103 173.3,105.5 	"/>
</g>
<g>
	<path class="st8" d="M177.1,109.3c0,0,1-0.4,1.6-0.3c0.1,0,0.3,0,0.3,0.2c0,0.1-0.1,0.4-0.5,0.6c-0.4,0.2-0.9,0.6-0.9,0.6
		S177.2,110.4,177.1,109.3z"/>
</g>
<g>
	<path class="st4" d="M179.6,147.7c0.1,0.4,0.1,0.8,0.2,1.3l-4.8-5.8C175.6,143.8,179.6,147.7,179.6,147.7z"/>
</g>
<g>
	<polygon class="st4" points="180.8,78.6 166.4,83.3 169.8,93.8 170.5,96 172,93 184.2,89 	"/>
</g>
<g>
	<path class="st28" d="M300.8,106.2c-1.9,0-3.7,0.3-5.3,0.8c-2.2-5.3-7.6-9.1-14-9.1c-7.1,0-13,4.6-14.6,10.9
		c-1.2-0.5-2.6-0.7-3.9-0.7c-5.9,0-10.7,4.5-10.7,10.1h15.6h5.7h12.2h9.3h20.7C315.8,111.6,309,106.2,300.8,106.2z"/>
</g>
<g>
	<path class="st28" d="M72.6,68c-2.4,0-4.7,0.4-6.8,1C63,62.2,56,57.4,47.8,57.4c-9.1,0-16.7,6-18.7,14c-1.6-0.6-3.3-0.9-5.1-0.9
		c-7.5,0-13.7,5.8-13.7,13h20h7.3h15.6h11.9h26.6C91.9,74.9,83.2,68,72.6,68z"/>
</g>
<g>
	<path class="st28" d="M217.5,40.9c-1.6,0-3.1,0.2-4.4,0.7c-1.8-4.4-6.3-7.5-11.6-7.5c-5.9,0-10.8,3.8-12.1,9
		c-1-0.4-2.1-0.6-3.3-0.6c-4.9,0-8.8,3.8-8.8,8.4h12.9h4.7h10.1h7.7h17.2C229.9,45.4,224.4,40.9,217.5,40.9z"/>
</g>
<g>
	<path class="st28" d="M356.2,137.3c-1.9,0-3.7,0.3-5.3,0.8c-2.2-5.3-7.6-9.1-14-9.1c-7.1,0-13,4.6-14.6,10.9
		c-1.2-0.5-2.6-0.7-3.9-0.7c-5.9,0-10.7,4.5-10.7,10.1h15.6h5.7h12.2h9.3h20.7C371.2,142.7,364.4,137.3,356.2,137.3z"/>
</g>
<g>
	<path class="st28" d="M273.3,162.3c-0.9,0-1.8,0.1-2.7,0.4c-1.1-2.7-3.8-4.5-7-4.5c-3.5,0-6.5,2.3-7.3,5.5c-0.6-0.2-1.3-0.4-2-0.4
		c-2.9,0-5.3,2.3-5.3,5.1h7.8h2.9h6.1h4.6h10.4C280.8,165,277.4,162.3,273.3,162.3z"/>
</g>
<g>
	<path class="st8" d="M235.3,226.4c0,0,0.8-1.5-0.5-5.4c-1.3-3.8-5.7-3.4-7.1-1c-1.4,2.4-0.9,3.9,1.1,6.7
		C231,229.4,234.5,227.7,235.3,226.4z"/>
</g>
<g>
	<path class="st8" d="M224.1,293.9c0,0-0.2,1.6-0.2,1.8c0,0.2-2.4-0.1-2.4-0.1l-0.2-1.9C221.3,293.7,223.8,293.7,224.1,293.9z"/>
</g>
<g>
	<path class="st5" d="M223.9,295.6c0,0,0.8,1,1.5,1.4c0.7,0.4,1.9,0.6,2.3,1c0.3,0.3,1.1,1.7-1.9,1.6c-3.1,0-4.5,0.2-4.9-0.3
		c-0.3-0.5,0.5-3.8,0.5-3.8S222.2,295.7,223.9,295.6z"/>
</g>
<g>
	<path class="st8" d="M240.8,293.9c0,0-0.2,1.6-0.2,1.8c0,0.2-2.4-0.1-2.4-0.1l-0.2-1.9C237.9,293.7,240.5,293.7,240.8,293.9z"/>
</g>
<g>
	<path class="st5" d="M240.6,295.6c0,0,0.8,1,1.5,1.4c0.7,0.4,3.5,0.8,3.9,1.2c0.3,0.3,0.8,1.6-3.5,1.5c-3.1-0.1-4.5,0.2-4.9-0.3
		c-0.3-0.5,0.5-3.8,0.5-3.8S239,295.6,240.6,295.6z"/>
</g>
<g>
	<path class="st29" d="M224.9,254c0,0-1.2,3.8-1.1,7.1c0.2,3.3-0.6,6.9-1,10.4c-0.4,3.8-1.9,13-1.9,15c-0.1,2.1,0.2,8.6,0.2,8.6
		l3,0.1c0,0,2.5-15.9,3.2-17.5c0.6-1.6,3.9-13.2,4-14.5C231.5,261.9,224.9,254,224.9,254z"/>
</g>
<g>
	<path class="st30" d="M237.3,253.6c0,0,1.8,10.1,2,12.2c0.2,2,0.4,9.8,0.5,11c0.1,1.3,0.7,16.5,1.3,18.4h-3.3
		c0,0-3.4-11.1-3.4-16.4c0-5.3-2.3-11.4-3.7-14.9c-1.5-3.5-4.8-3.5-5.7-10C224.9,254,236.1,251.6,237.3,253.6z"/>
</g>
<g>
	<path class="st8" d="M234.1,227.5c0,0-0.4,1.1,0,1.9c0.4,0.8-4.8,0.3-4.8,0.3s0.2-1.6-0.4-2.9C228.2,225.4,234.1,227.5,234.1,227.5
		z"/>
</g>
<g>
	<path class="st31" d="M224.7,254.8c0,0,1.9,1.9,12.8-0.3l-0.2-0.9l-12.4,0.5L224.7,254.8z"/>
</g>
<g>
	<path class="st8" d="M234,229.9c0,0,1.9,0.2,2.5,0.3c0.5,0.1,4.2-0.7,5-0.7c0.8-0.1,4-2.3,4.1-2.5c0.1-0.3,2-5,2.1-6
		c0.1-1,1.8-0.5,1.7,0.2c-0.3,1.3-0.6,4.5-0.8,5.4c-0.2,1-0.8,3.2-1.1,3.5c-0.3,0.3-3.2,2.5-6,3.4c-2.8,0.9-5,2.3-5,2.3h-14
		c0,0-5.4-7.8-5.6-8.9c-0.1-1.2,3.8-9,4.6-9.9c0.8-1,1.9,0.3,1.9,0.3s-2.3,6.9-2.7,7.8c-0.3,1,2.7,5.3,3.6,5.3c0.8,0,3-0.3,3.9-0.3
		c1,0,2-0.5,2-0.5L234,229.9z"/>
</g>
<g>
	<path class="st14" d="M240,235.1c0,0-1.7,1.1-1.9,3.1c-0.2,2-0.8,5-1.1,6.1c-0.3,1.1,0.3,8.7,0.4,9.2c0.1,0.5-10.8,1.8-12.5,0.5
		c0,0-0.5-7.1-0.7-9.2s-1.1-6.9-1.4-7.6c-0.3-0.7-4.1-6-4.3-6.7c0,0,2-3.1,3.4-3.2c0,0,2.2,2.6,3,2.7c0.7,0.1,5.2-0.7,5.2-0.7
		c0,0,1.5,0.6,4.1-0.2c0,0,2.1,0.4,2.6,0.5c0.6,0.1,4.8-0.5,4.8-0.5s1.7,2.9,1.4,4.3L240,235.1z"/>
</g>
<g>
	<path class="st8" d="M247.5,221.6c0,0,0.4-1.8-0.1-2.3c-0.3-0.3-0.9-1.1-0.9-1.2c-0.1-0.1-0.7-0.5-0.7-0.7c0-0.2,0.7-0.4,1.2,0.1
		c0.6,0.5,0.9,0.6,1.2,0.6c0.2-0.1,0.6-2,0.6-2.4c0-0.5,0.2-1.7,0.5-1.6c0.3,0.1,0.3,0.6,0.3,0.6s0.3-0.9,0.6-0.8
		c0.2,0.2,0.2,0.6,0.2,0.6s0.4-0.5,0.5-0.1c0.1,0.4,0,0.7,0,0.7s0.4-0.2,0.5,0.4c0,0.6-0.1,2.4-0.4,3c-0.3,0.6-1.5,2.3-1.6,2.9
		C249,222,247.5,221.6,247.5,221.6z"/>
</g>
<g>
	<path class="st8" d="M222.9,218.4c0,0,1.3-2.2,1.7-2.4c0.4-0.2,1.1-0.3,1.6-0.7c0.5-0.4,1.3-0.7,1.2-0.8c0-0.1-0.7-0.1-1.4,0.2
		c-0.7,0.3-1,0.2-1.1,0c-0.1-0.2,0.4-1.3,0.6-1.5c0.2-0.3,1.7-1.8,1.4-2c-0.2-0.2-1.2,0.6-1.4,0.8c0,0,0.8-1.6,0.5-1.7
		c-0.3-0.1-0.9,0.5-0.9,0.5s0.1-1.4-1.4,0.9c0,0,0.3-0.7-0.1-0.5c-0.5,0.2-0.9,1.6-1,2.3c-0.1,0.7-0.8,2.9-1.3,3.5
		C220.8,217.5,222.9,218.4,222.9,218.4z"/>
</g>
<g>
	<path class="st32" d="M228.9,226.7c0,0,0.7,0.1,2.1-0.4c1.5-0.5,1.6-3.1,1.9-2.7c0.6,0.6,1.2,0.2,1.5-0.2c0,0-0.7-0.9-0.4-1.4
		c0.3-0.5,0.9-0.8,0.9-0.8s-1-4.9-5.7-2.7C223.7,221.1,228.9,226.7,228.9,226.7z"/>
</g>
<g>
	<path class="st14" d="M234.1,229.3l-0.2-0.7c0,0-3-0.1-4.6,0.2l-0.2,0.9C229.2,229.6,231.3,230.6,234.1,229.3z"/>
</g>
<g>
	<path class="st8" d="M233.4,222.9c-0.3-0.4-1.3-0.8-1.4,0.5c-0.1,1,1.8,2.1,1.8,1.1C233.8,223.6,233.6,223.2,233.4,222.9z"/>
</g>
<g>
	<path class="st33" d="M247.5,221.2c0,0,1.1,0,1.6,0.5c0,0,0,0.3-0.1,0.5c0,0-0.9-0.4-1.6-0.5C247.4,221.7,247.4,221.3,247.5,221.2z
		"/>
</g>
<g>
	<path class="st32" d="M248.8,221.4c0.1,0.2,0,0.5-0.2,0.6c-0.2,0.1-0.5,0-0.6-0.2c-0.1-0.2,0-0.5,0.2-0.6
		C248.4,221.1,248.7,221.2,248.8,221.4z"/>
</g>
<g>
	<g>
		<rect x="288.8" y="163.2" class="st5" width="49.7" height="118.3"/>
	</g>
</g>
<g>
	<g>
		<polygon class="st14" points="307.9,190.5 333.5,181.1 325.5,179.3 		"/>
	</g>
	<g>
		<polygon class="st15" points="307.9,190.5 317,180 323.1,180.8 		"/>
	</g>
	<g>
		<polygon class="st16" points="327.6,183.3 327.6,186.3 307.9,190.5 		"/>
	</g>
</g>
<g>
	<g>
		<g>
			<polygon class="st20" points="57.7,238.2 65.2,242.3 72.7,230.5 63.6,227.3 			"/>
		</g>
	</g>
	<g>
		<g>
			<polygon class="st34" points="58.2,237.8 65.2,241.7 72.2,230.6 63.7,227.7 			"/>
		</g>
	</g>
	<g>
		<g>
			<path class="st8" d="M55.7,235.8c0,0,1.3-0.6,1.9-0.9c0.6-0.3,2-0.8,2.2-0.9c0.1-0.1,4.4-0.4,4.6-0.6c0.3-0.2,0.5,0.5-0.6,0.8
				c-1.1,0.2-2.6,0.8-2.7,1.3c-0.1,0.4,1.1,0.5,1.2,0.9c0.1,0.4,0,0.3-0.2,0.3c-0.2,0.1-1.4-0.6-2-0.4c-0.6,0.2-1.4-0.1-1.8,0.1
				c-0.4,0.1-2.5,0.8-2.5,0.8L55.7,235.8z"/>
		</g>
	</g>
	<g>
		<g>
			<path class="st35" d="M58,236.7l0.7-0.2c0,0-0.8-2-1.2-1.9c-0.4,0.1-0.9,0.2-0.9,0.2L58,236.7z"/>
		</g>
	</g>
	<g>
		<g>
			<path class="st36" d="M58.2,237c-0.1-0.1-1.4-2.6-1.4-2.6l-2.9,0.4l1.5,3L58.2,237z"/>
		</g>
	</g>
	<g>
		<g>
			<path class="st8" d="M65.6,240.8c0,0,1.1-1,1.6-1.4c0.5-0.4,1.5-1.6,1.7-1.7c0.1-0.1,2-4,2.4-4.1c0.3-0.2-0.3-0.7-0.9,0.3
				c-0.7,0.9-1.8,2.2-2.2,2.1c-0.4-0.1-0.1-1.3-0.3-1.5c-0.3-0.3-0.3-0.1-0.4,0.1c-0.1,0.1,0,1.6-0.4,2c-0.4,0.4-0.5,1.4-0.8,1.7
				c-0.3,0.3-1.8,2-1.8,2L65.6,240.8z"/>
		</g>
	</g>
	<g>
		<g>
			<path class="st37" d="M42,293.4c0,0-0.2,1.6-0.3,1.9c0,0.2-2.6-0.1-2.6-0.1l-0.2-2C38.9,293.2,41.7,293.2,42,293.4z"/>
		</g>
	</g>
	<g>
		<g>
			<path class="st20" d="M41.8,295.1c0,0,0.8,1,1.6,1.4c0.8,0.4,2,0.6,2.5,1c0.3,0.3,1.2,1.7-2.1,1.7c-3.3,0-4.9,0.2-5.3-0.3
				c-0.4-0.5,0.5-3.9,0.5-3.9S39.9,295.2,41.8,295.1z"/>
		</g>
	</g>
	<g>
		<g>
			<path class="st37" d="M60.7,293.4c0,0-0.2,1.6-0.3,1.9c0,0.2-2.6-0.1-2.6-0.1l-0.2-2C57.6,293.2,60.4,293.2,60.7,293.4z"/>
		</g>
	</g>
	<g>
		<g>
			<path class="st20" d="M60.4,295.1c0,0,0.8,1,1.6,1.4c0.8,0.4,3.7,0.8,4.2,1.2c0.3,0.3,0.9,1.6-3.8,1.5c-3.3-0.1-4.9,0.2-5.3-0.3
				c-0.4-0.5,0.5-3.9,0.5-3.9S58.5,295.3,60.4,295.1z"/>
		</g>
	</g>
	<g>
		<g>
			<path class="st20" d="M44.2,251.2c0,0-2.4,3.9-2.3,7.4c0.2,3.5-0.9,7.3-1.3,11c-0.4,4.1-2.1,13.8-2.1,15.9
				c-0.1,2.2,0.3,9.2,0.3,9.2l3.4,0.1c0,0,2.8-16.9,3.5-18.6c0.7-1.7,4.3-14,4.5-15.4C50.3,259.4,44.2,251.2,44.2,251.2z"/>
		</g>
	</g>
	<g>
		<g>
			<path class="st20" d="M57.1,251.8c0,0,1.8,9.6,2.1,11.8c0.2,2.1,0.4,10.4,0.5,11.7c0.1,1.3,0.8,17.6,1.5,19.6h-4.3
				c0,0-3.3-11.8-3.3-17.4c0-5.6-2.5-12.1-4.2-15.8c-1.6-3.7-5.4-3.8-6.4-10.6C43,251,55.7,249.6,57.1,251.8z"/>
		</g>
	</g>
	<g>
		<g>
			<path class="st8" d="M48.3,218.6c0,0,3.3-1.2,4.8,1.3c1.5,2.5,1.4,7.5-0.3,8.1c-1.7,0.6-4.1,0.3-5-1.3c-0.8-1.6-1.6-3.8-1.6-5.3
				C46.3,219.9,47.4,219,48.3,218.6z"/>
		</g>
	</g>
	<g>
		<g>
			<path class="st8" d="M52.4,228.1c0,0-0.1,0.9,0.1,1.3c0.2,0.4-4.2,0.4-4.2,0.4s-0.4-2.4-1.1-4.4
				C46.5,223.5,52.4,228.1,52.4,228.1z"/>
		</g>
	</g>
	<g>
		<g>
			<path class="st38" d="M47.2,225.5c0,0,0.3,0.5,1.6,0.3c1.3-0.2,2.8-1.9,3.3-2.1c0.5-0.2,0.5-0.5,0.5-0.5l0.3,0.5l0.6,0
				c0,0-0.5-1.5,0.3-2.1c0.8-0.6-0.8-4.9-4.8-3.4c0,0-3.1,0.9-3,2.6C46.1,222.6,46.5,224.6,47.2,225.5z"/>
		</g>
	</g>
	<g>
		<g>
			<path class="st34" d="M52.8,229.4c0,0,0-0.8-0.4-0.9c-0.4-0.1-4.2-0.4-4.6-0.3v1C47.8,229.1,48.6,229.7,52.8,229.4z"/>
		</g>
	</g>
	<g>
		<g>
			<path class="st8" d="M52.6,222.6c-0.1-0.3-0.8-1.1-1.1-0.2c-0.3,0.9,0.4,2.1,0.8,2C52.7,224.3,52.7,223.3,52.6,222.6z"/>
		</g>
	</g>
	<g>
		<g>
			<path class="st21" d="M67.8,239.2C67.8,239.2,67.8,239.2,67.8,239.2C67.8,239.2,67.9,239.2,67.8,239.2z"/>
		</g>
	</g>
	<g>
		<g>
			<path class="st21" d="M41.4,260.5c0,0,2,0.6,5.4,1c3.4,0.4,12-0.1,12.1-0.5c0.1-0.4-1.8-15.1-1.7-15.8c0.1-0.8,0.2-3.5,0.2-3.5
				c0,0.7,0.8,3.8,1.7,5.4c0.3,0.6,1.4,2.5,2,2c2.6-2,6.5-9.8,6.8-9.8c-0.2-0.1-1.9-0.9-2.1-0.9c-0.2-0.1-2.1,1.9-3.2,3.1
				c-0.5,0.5-0.9,0.9-0.9,0.9c-0.3-0.7-1.5-5.3-1.9-6.9c-0.8-3.6-0.7-3.7-0.7-3.7c-2.5-0.8-6.3-2.3-6.3-2.3l-5-0.2
				c0,0-4.6,1-6.4,1.8c-0.2,0.1-0.2,4.1-0.6,5.2l1.5,3.2c0,0,0.9,6.3,1.1,9.1C43.3,249.7,41.4,260.5,41.4,260.5z"/>
		</g>
	</g>
	<g>
		<g>
			<path class="st21" d="M40.5,241.4c0.1,0.4,0.7,0.8,1.1,0.9c0.2,0.1,0.5,0.1,0.8,0.1l0.2,0l0,0l3.4-0.6c0,0,0.8-8.7-4.7-10.8
				C41.2,231,39.3,237.5,40.5,241.4z"/>
		</g>
	</g>
	<g>
		<g>
			<path class="st39" d="M41.6,242.3L41.6,242.3c0.2,0.1,0.5,0.1,0.8,0.1l0.2,0l0,0l-0.3-4.4L41.6,242.3z"/>
		</g>
	</g>
	<g>
		<g>
			<path class="st39" d="M61.7,242.3l0.4,1.8c0,0,0.5-1.8,0.4-2.7C62,241.9,61.7,242.3,61.7,242.3z"/>
		</g>
	</g>
	<g>
		<g>
			<path class="st38" d="M47.3,218.9c0,0-4.1,0.4-0.1,6.7L47.3,218.9z"/>
		</g>
	</g>
	<g>
		<g>
			<polygon class="st20" points="69.3,229.9 69.7,229.1 66.3,227.9 65.8,228.7 			"/>
		</g>
	</g>
</g>
<path class="st40" d="M368,226c0,0.2-0.2,0.4-0.3,0.4c-0.1,0-0.2-0.2-0.2-0.4c0-0.2,0.2-0.4,0.3-0.4S368,225.8,368,226z"/>
<path class="st40" d="M365.6,225.5c0,0.2-0.2,0.4-0.3,0.4c-0.1,0-0.2-0.2-0.2-0.4c0-0.2,0.2-0.4,0.3-0.4S365.6,225.3,365.6,225.5z"
	/>
<path class="st41" d="M366.5,226c0,0-0.3,0.9-0.7,1.4c0.3,0.2,0.8,0.1,0.8,0.1L366.5,226z"/>
<path class="st40" d="M366.4,228.5c0.7,0,1.1-0.2,1.1-0.2c0,0,0,0,0,0c0,0-0.1,0-0.1,0c0,0-0.5,0.3-1.2,0.2c0,0-0.1,0-0.1,0
	c0,0,0,0,0,0C366.2,228.5,366.3,228.5,366.4,228.5z"/>
<path class="st40" d="M369,224.7C369,224.7,369,224.7,369,224.7c0.1-0.1,0.1-0.2,0.1-0.2c-0.5-0.5-1.1-0.4-1.1-0.4
	c-0.1,0-0.1,0.1-0.1,0.2c0,0.1,0.1,0.1,0.2,0.1c0,0,0.5-0.1,0.9,0.3C368.9,224.7,368.9,224.7,369,224.7z"/>
<path class="st40" d="M364.7,224.4c0,0,0.1,0,0.1,0c0.5-0.4,0.9-0.3,0.9-0.3c0.1,0,0.1,0,0.2-0.1c0-0.1,0-0.1-0.1-0.2c0,0,0,0,0,0
	c0,0-0.6-0.2-1.2,0.3C364.6,224.3,364.6,224.3,364.7,224.4C364.7,224.4,364.7,224.4,364.7,224.4z"/>
<path class="st40" d="M235.2,222.8c0.1,0.1,0,0.3-0.1,0.3c-0.1,0-0.2,0-0.3-0.2c-0.1-0.1,0-0.3,0.1-0.3
	C235,222.6,235.2,222.7,235.2,222.8z"/>
<path class="st40" d="M234.5,222.5C234.6,222.5,234.6,222.5,234.5,222.5c0.3-0.2,0.6-0.1,0.6-0.1c0,0,0.1,0,0.1,0c0,0,0-0.1,0-0.1
	c0,0,0,0,0,0c0,0-0.3-0.1-0.6,0.2C234.5,222.4,234.5,222.5,234.5,222.5C234.5,222.5,234.5,222.5,234.5,222.5z"/>
<path class="st40" d="M234.9,225.3c0.3,0.1,0.5,0.1,0.5,0.1c0,0,0,0,0,0c0,0,0,0,0,0C235.4,225.3,235.1,225.4,234.9,225.3
	C234.9,225.2,234.9,225.2,234.9,225.3C234.8,225.2,234.8,225.2,234.9,225.3C234.9,225.3,234.9,225.3,234.9,225.3z"/>
<path class="st40" d="M167.8,103.8c0.1,0.2,0.2,0.4,0,0.5c-0.1,0.1-0.4,0-0.5-0.2c-0.1-0.2-0.2-0.4,0-0.5
	C167.5,103.5,167.7,103.6,167.8,103.8z"/>
<path class="st40" d="M166.7,103.6C166.7,103.6,166.8,103.6,166.7,103.6c0.4-0.4,0.8-0.4,0.8-0.4c0.1,0,0.1,0,0.1-0.1
	c0-0.1,0-0.1-0.1-0.1c0,0,0,0,0,0c0,0-0.5,0-0.9,0.5C166.6,103.4,166.6,103.5,166.7,103.6C166.6,103.6,166.7,103.6,166.7,103.6z"/>
<path class="st40" d="M167.8,106.6c0.5,0.3,0.9,0.1,1,0.1c0,0,0,0,0-0.1c0,0,0,0-0.1,0c0,0-0.5,0.2-1-0.2c0,0,0,0-0.1,0
	c0,0,0,0,0,0.1C167.7,106.6,167.8,106.6,167.8,106.6z"/>
<path class="st8" d="M235.5,223.8c0,0,0.2,0.5,0.5,0.7c-0.1,0.2-0.4,0.1-0.4,0.1L235.5,223.8z"/>
</svg>
