<?xml version="1.0" encoding="utf-8"?>
<!-- Generator: Adobe Illustrator 25.4.1, SVG Export Plug-In . SVG Version: 6.00 Build 0)  -->
<svg version="1.1" id="Слой_1" xmlns="http://www.w3.org/2000/svg" xmlns:xlink="http://www.w3.org/1999/xlink" x="0px" y="0px"
	 viewBox="0 0 395 299.2" style="enable-background:new 0 0 395 299.2;" xml:space="preserve">
<style type="text/css">
	.st0{fill:#609961;}
	.st1{fill:#C2BEBC;}
	.st2{opacity:0.54;}
	.st3{fill:#285173;}
	.st4{fill:#09431D;}
	.st5{fill:#2F7630;}
	.st6{fill:#0E2D3D;}
	.st7{fill:#1D3B54;}
	.st8{fill:#EEA886;}
	.st9{fill:#EDDAD3;}
	.st10{fill:#D6C5BE;}
	.st11{fill:#FAE6DE;}
	.st12{fill:#EEA987;}
	.st13{fill:#A77860;}
	.st14{fill:#D6D6D6;}
	.st15{fill:#E8E8E8;}
	.st16{fill:#C2C2C2;}
	.st17{fill:#CF8C6C;}
	.st18{fill:#3B3F66;}
	.st19{fill:#555C94;}
	.st20{fill:#292C47;}
	.st21{fill:#323657;}
	.st22{fill:#D9D0C4;}
	.st23{fill:#494F80;}
	.st24{fill:#E8734D;}
	.st25{fill:#FCCCA2;}
	.st26{fill:#C48A6F;}
	.st27{fill:#DB9C7C;}
	.st28{fill:#DEDEDE;}
	.st29{fill:#2F4563;}
	.st30{fill:#354C70;}
	.st31{fill:#2B3B57;}
	.st32{fill:#353A3D;}
	.st33{fill:#E55353;}
	.st34{fill:#E2D2CA;}
	.st35{fill:#EAD8CF;}
	.st36{fill:#DA9B5B;}
	.st37{fill:#424773;}
	.st38{fill:#3A3F47;}
	.st39{fill:#252840;}
	.st40{fill:#1A2E35;}
	.st41{fill:#FF847F;}
</style>
<g>
	<g>
		
			<rect x="64" y="238.4" transform="matrix(0.8379 -0.5459 0.5459 0.8379 -118.6507 79.8155)" class="st0" width="22" height="2.6"/>
	</g>
	<g>
		
			<rect x="64" y="250.1" transform="matrix(0.8379 -0.5459 0.5459 0.8379 -125.0852 81.7273)" class="st0" width="22" height="2.6"/>
	</g>
	<g>
		<rect x="64" y="261.9" transform="matrix(0.838 -0.5457 0.5457 0.838 -131.4812 83.5944)" class="st0" width="22" height="2.6"/>
	</g>
	<g>
		<polygon class="st0" points="67.3,281.6 65.1,279.9 83.6,267.9 85,270.1 		"/>
	</g>
</g>
<g>
	<g>
		
			<rect x="65.4" y="226.6" transform="matrix(0.8379 -0.5459 0.5459 0.8379 -112.2438 77.9165)" class="st0" width="19.3" height="2.6"/>
	</g>
	<g>
		
			<rect x="65.4" y="190.9" transform="matrix(0.8378 -0.5461 0.5461 0.8378 -92.7948 72.1677)" class="st0" width="19.3" height="2.6"/>
	</g>
	<g>
		
			<rect x="65.4" y="155.3" transform="matrix(0.8379 -0.5459 0.5459 0.8379 -73.2973 66.3514)" class="st0" width="19.3" height="2.6"/>
	</g>
	<g>
		
			<rect x="65.4" y="119.6" transform="matrix(0.8379 -0.5459 0.5459 0.8379 -53.8224 60.5668)" class="st0" width="19.3" height="2.6"/>
	</g>
	<g>
		<rect x="65.4" y="83.9" transform="matrix(0.8378 -0.546 0.546 0.8378 -34.35 54.7915)" class="st0" width="19.3" height="2.6"/>
	</g>
	<g>
		
			<rect x="65.4" y="48.2" transform="matrix(0.8378 -0.546 0.546 0.8378 -14.8727 49.0053)" class="st0" width="19.3" height="2.6"/>
	</g>
	<g>
		<rect x="65.4" y="12.6" transform="matrix(0.8378 -0.546 0.546 0.8378 4.6048 43.2194)" class="st0" width="19.3" height="2.6"/>
	</g>
</g>
<g>
	<path class="st1" d="M342.9,179.2l-0.1-0.8c0,0,1.7-0.3,4.3-1.1l0.2,0.8C344.7,178.9,343,179.1,342.9,179.2z M351.6,176.6l-0.3-0.8
		c1.4-0.5,2.8-1.1,4.1-1.7l0.3,0.7C354.4,175.5,353,176.1,351.6,176.6z M359.8,172.8l-0.4-0.7c1.3-0.7,2.6-1.5,3.8-2.3l0.4,0.7
		C362.4,171.4,361.1,172.1,359.8,172.8z M367.4,168l-0.5-0.6c1.2-0.9,2.3-1.9,3.4-2.8l0.5,0.6C369.7,166.1,368.6,167,367.4,168z
		 M374,161.9l-0.6-0.6c1-1.1,2-2.2,2.9-3.4l0.6,0.5C376.1,159.7,375.1,160.8,374,161.9z M379.6,154.9l-0.7-0.4
		c0.8-1.2,1.6-2.5,2.3-3.8l0.7,0.4C381.2,152.3,380.4,153.6,379.6,154.9z M98.2,151.5l-0.7-0.4c0.8-1.2,1.6-2.5,2.5-3.7l0.7,0.5
		C99.8,149,99,150.3,98.2,151.5z M383.9,147l-0.7-0.3c0.6-1.3,1.1-2.7,1.6-4.1l0.8,0.3C385,144.2,384.4,145.6,383.9,147z
		 M103.4,144.2l-0.6-0.5c0.9-1.2,1.9-2.3,2.9-3.5l0.6,0.5C105.3,141.9,104.3,143.1,103.4,144.2z M386.7,138.4l-0.8-0.2
		c0.3-1.4,0.7-2.9,0.9-4.3l0.8,0.1C387.4,135.5,387.1,137,386.7,138.4z M109.3,137.5l-0.6-0.6c1-1.1,2.1-2.2,3.2-3.2l0.6,0.6
		C111.4,135.4,110.3,136.4,109.3,137.5z M115.7,131.4l-0.5-0.6c1.1-1,2.3-2,3.5-2.9l0.5,0.6C118,129.4,116.8,130.4,115.7,131.4z
		 M388.2,129.6l-0.8-0.1c0.1-1.4,0.2-2.9,0.3-4.4l0.8,0C388.5,126.6,388.4,128.1,388.2,129.6z M122.7,125.9l-0.5-0.7
		c1.2-0.9,2.5-1.7,3.7-2.5l0.4,0.7C125.2,124.2,123.9,125,122.7,125.9z M130.3,121.1l-0.4-0.7c1.3-0.7,2.7-1.4,4-2l0.3,0.7
		C132.9,119.8,131.6,120.4,130.3,121.1z M387.8,120.6c0-1.5-0.1-2.9-0.2-4.4l0.8-0.1c0.1,1.5,0.2,3,0.2,4.5L387.8,120.6z
		 M138.3,117.4l-0.3-0.8c1.4-0.6,2.8-1.1,4.2-1.5l0.2,0.8C141.1,116.3,139.7,116.8,138.3,117.4z M194.6,114.7c-1.1,0-2.2,0-3.4,0
		l0-0.8c1.1,0,2.3,0,3.4,0c0.4,0,0.7,0,1.1,0l0,0.8C195.4,114.7,195,114.7,194.6,114.7z M146.7,114.7l-0.2-0.8
		c1.3-0.3,2.8-0.6,4.5-0.8l0.1,0.8C149.5,114.1,148.1,114.3,146.7,114.7z M200.2,114.6l0-0.8c1.5,0,3-0.1,4.5-0.2l0,0.8
		C203.2,114.5,201.7,114.6,200.2,114.6z M186.8,114.6c-1.4,0-2.9-0.1-4.5-0.2l0-0.8c1.6,0.1,3.1,0.1,4.5,0.2L186.8,114.6z
		 M177.8,114.2c-1.2-0.1-2.3-0.1-3.4-0.2l-1-0.1l0-0.8l1,0.1c1.1,0.1,2.3,0.1,3.4,0.2L177.8,114.2z M209.1,114.1l-0.1-0.8
		c1.5-0.1,3-0.3,4.4-0.4l0.1,0.8C212.2,113.9,210.6,114,209.1,114.1z M168.9,113.8c-1.7-0.1-3.1-0.1-4.5-0.2l0-0.8
		c1.3,0,2.8,0.1,4.5,0.2L168.9,113.8z M155.5,113.6l0-0.8c1.2-0.1,2.5-0.1,3.9-0.1c0.2,0,0.4,0,0.5,0l0,0.8c-0.2,0-0.4,0-0.5,0
		C158,113.5,156.7,113.5,155.5,113.6z M218.1,113.1l-0.1-0.8c1.5-0.2,3-0.5,4.4-0.7l0.2,0.8C221,112.6,219.5,112.9,218.1,113.1z
		 M387.1,111.8c-0.2-1.3-0.3-2.7-0.6-4c0-0.1,0-0.3-0.1-0.4l0.8-0.1c0,0.1,0,0.3,0.1,0.4c0.2,1.3,0.4,2.7,0.6,4L387.1,111.8z
		 M226.9,111.4l-0.2-0.8c1.5-0.3,2.9-0.7,4.3-1.1l0.2,0.8C229.8,110.7,228.3,111.1,226.9,111.4z M235.5,109.1l-0.2-0.8
		c1.4-0.5,2.8-0.9,4.2-1.4l0.3,0.8C238.4,108.1,236.9,108.6,235.5,109.1z M243.9,106l-0.3-0.7c1.4-0.6,2.7-1.2,4.1-1.8l0.3,0.7
		C246.7,104.8,245.3,105.4,243.9,106z M385.7,103c-0.3-1.5-0.7-2.9-1.1-4.3l0.8-0.2c0.4,1.4,0.8,2.9,1.1,4.4L385.7,103z
		 M252.1,102.2l-0.4-0.7c1.3-0.7,2.6-1.4,3.9-2.2l0.4,0.7C254.7,100.7,253.4,101.5,252.1,102.2z M259.8,97.6l-0.4-0.7
		c1.2-0.8,2.5-1.6,3.7-2.5l0.5,0.7C262.3,95.9,261,96.8,259.8,97.6z M383.2,94.5c-0.5-1.4-1.1-2.8-1.7-4.1l0.7-0.3
		c0.6,1.3,1.2,2.7,1.7,4.2L383.2,94.5z M267.1,92.4l-0.5-0.6c1.2-0.9,2.3-1.9,3.5-2.8l0.5,0.6C269.4,90.5,268.2,91.5,267.1,92.4z
		 M273.9,86.6l-0.6-0.6l0.1-0.1c1-1,2.1-1.9,3.3-2.8l0.5,0.6c-1.1,0.9-2.2,1.9-3.2,2.8L273.9,86.6z M379.4,86.4
		c-0.7-1.3-1.5-2.5-2.4-3.7l0.7-0.5c0.8,1.2,1.7,2.5,2.4,3.8L379.4,86.4z M280.8,80.9l-0.5-0.7c1.2-0.9,2.4-1.7,3.7-2.6l0.4,0.7
		C283.2,79.2,281.9,80.1,280.8,80.9z M374.4,79.2c-1-1.1-2-2.2-3-3.2l0.6-0.6c1.1,1,2.1,2.1,3.1,3.3L374.4,79.2z M288.2,76l-0.4-0.7
		c1.3-0.8,2.6-1.5,3.9-2.2l0.4,0.7C290.8,74.5,289.5,75.3,288.2,76z M368,73.1c-1.2-0.9-2.4-1.8-3.6-2.5l0.4-0.7
		c1.3,0.8,2.5,1.7,3.7,2.6L368,73.1z M296.1,71.8l-0.3-0.7c1.3-0.6,2.7-1.3,4.1-1.8l0.3,0.7C298.8,70.6,297.4,71.2,296.1,71.8z
		 M304.3,68.4l-0.3-0.8c1.4-0.5,2.8-1,4.2-1.5l0.2,0.8C307.1,67.4,305.6,67.9,304.3,68.4z M360.5,68.4c-1.3-0.7-2.7-1.3-4-1.8
		l0.3-0.8c1.4,0.6,2.8,1.2,4.1,1.8L360.5,68.4z M312.7,65.7l-0.2-0.8c1.4-0.4,2.9-0.7,4.4-1.1l0.2,0.8
		C315.6,64.9,314.2,65.3,312.7,65.7z M352.3,65.1c-1.4-0.4-2.8-0.8-4.3-1.1l0.2-0.8c1.5,0.3,2.9,0.7,4.4,1.1L352.3,65.1z
		 M321.4,63.8l-0.1-0.8c1.5-0.2,3-0.5,4.4-0.6l0.1,0.8C324.4,63.4,322.9,63.6,321.4,63.8z M343.6,63.3c-1.4-0.2-2.9-0.3-4.4-0.4
		l0.1-0.8c1.5,0.1,3,0.2,4.5,0.4L343.6,63.3z M330.3,62.8l0-0.8c1.4-0.1,2.9-0.1,4.3-0.1l0.2,0l0,0.8h-0.2
		C333.1,62.7,331.7,62.7,330.3,62.8z"/>
</g>
<g>
	<path class="st1" d="M13.3,188.8c-0.7-0.5-1.4-1.1-2.1-1.7l0.6-0.6c0.7,0.6,1.3,1.2,2,1.7L13.3,188.8z M8.2,183.8
		c-0.9-1.2-1.8-2.4-2.6-3.7l0.7-0.4c0.8,1.3,1.6,2.5,2.5,3.6L8.2,183.8z M206.7,182.3l-0.8-0.2c0,0,0.4-1.6,1.1-4.3l0.8,0.2
		C207.2,180.7,206.7,182.3,206.7,182.3z M3.5,176.1c-0.6-1.4-1.2-2.8-1.7-4.2l0.8-0.3c0.5,1.4,1,2.8,1.6,4.1L3.5,176.1z
		 M208.7,173.5l-0.8-0.2c0.3-1.4,0.5-2.9,0.8-4.4l0.8,0.1C209.3,170.6,209,172.1,208.7,173.5z M0.7,167.5c-0.3-1.5-0.5-3-0.6-4.5
		l0.8-0.1c0.1,1.4,0.3,2.9,0.6,4.4L0.7,167.5z M210.2,164.7l-0.8-0.1c0.2-1.5,0.4-3,0.6-4.4l0.8,0.1
		C210.6,161.7,210.4,163.2,210.2,164.7z M0.8,158.6L0,158.5c0.1-1.5,0.3-3,0.7-4.5l0.8,0.2C1.1,155.6,0.9,157.1,0.8,158.6z
		 M211.2,155.8l-0.8-0.1c0.1-1.5,0.2-3,0.3-4.4l0.8,0C211.5,152.8,211.3,154.3,211.2,155.8z M2.9,150.1l-0.7-0.3
		c0.6-1.4,1.3-2.7,2.2-4l0.7,0.5C4.2,147.4,3.4,148.7,2.9,150.1z M211.7,146.8l-0.8,0c0-1.1,0-2.2,0-3.2c0-0.4,0-0.8,0-1.2l0.8,0
		c0,0.4,0,0.8,0,1.2C211.8,144.7,211.7,145.8,211.7,146.8z M7.8,142.9l-0.6-0.6c1-1,2.2-2,3.4-3l0.5,0.7
		C9.9,140.9,8.8,141.8,7.8,142.9z M210.8,137.9c-0.1-1.5-0.2-3-0.3-4.4l0.8-0.1c0.1,1.5,0.2,3,0.3,4.5L210.8,137.9z M14.8,137.6
		l-0.4-0.7c1.3-0.8,2.7-1.4,4.1-2l0.3,0.8C17.5,136.2,16.2,136.9,14.8,137.6z M23,134.3l-0.2-0.8c1.4-0.4,2.9-0.7,4.4-0.9l0.1,0.8
		C25.8,133.6,24.4,133.9,23,134.3z M45.1,133.3c-1.5,0-3.1-0.1-4.5-0.1l0-0.8c1.4,0.1,2.9,0.1,4.5,0.1L45.1,133.3z M49.6,133.2
		l0-0.8c1.5-0.1,3-0.2,4.4-0.4l0.1,0.8C52.6,133,51.2,133.2,49.6,133.2z M31.7,133l0-0.8c1.3,0,2.7,0,4.5,0l0,0.8
		C34.4,133,33.1,133,31.7,133z M58.5,132.1l-0.2-0.8c1.4-0.3,2.9-0.7,4.3-1.1l0.2,0.8C61.4,131.4,60,131.8,58.5,132.1z M67.1,129.4
		l-0.3-0.8c1.3-0.5,2.7-1.1,4.1-1.8l0.4,0.7C69.9,128.3,68.5,128.9,67.1,129.4z M210,129c-0.2-1.5-0.4-3-0.7-4.4l0.8-0.2
		c0.3,1.4,0.5,2.9,0.7,4.4L210,129z M75.2,125.6l-0.4-0.7c0.6-0.4,1.3-0.7,1.9-1.1c0.6-0.4,1.3-0.8,1.9-1.2l0.4,0.7
		c-0.6,0.4-1.3,0.8-1.9,1.2C76.5,124.8,75.9,125.2,75.2,125.6z M82.8,120.7l-0.5-0.7c1.2-0.8,2.4-1.8,3.5-2.7l0.5,0.6
		C85.2,119,84,119.9,82.8,120.7z M208.3,120.3c-0.4-1.5-0.8-2.9-1.2-4.3l0.8-0.3c0.5,1.4,0.9,2.8,1.2,4.3L208.3,120.3z M89.8,115.1
		l-0.5-0.6c1-0.9,2.1-1.9,3.3-3l0.6,0.6C91.9,113.2,90.8,114.2,89.8,115.1z M205.6,111.9c-0.6-1.4-1.2-2.7-1.9-4l0.7-0.4
		c0.7,1.3,1.3,2.7,1.9,4.1L205.6,111.9z M96.3,108.9l-0.6-0.6c0.8-0.8,1.5-1.5,2.3-2.3l0.9-0.9l0.6,0.6l-0.9,0.9
		C97.8,107.4,97,108.2,96.3,108.9z M201.5,104c-0.8-1.3-1.7-2.5-2.6-3.6l0.6-0.5c0.9,1.2,1.8,2.4,2.6,3.7L201.5,104z M102.6,102.6
		l-0.6-0.6c1.2-1.1,2.2-2.2,3.3-3.1l0.5,0.6C104.8,100.5,103.8,101.5,102.6,102.6z M196,97.1c-1-1-2.1-2-3.3-3l0.5-0.6
		c1.2,0.9,2.3,2,3.3,3L196,97.1z M109.2,96.7l-0.5-0.6c1.2-1,2.4-1.9,3.6-2.7l0.5,0.7C111.6,94.8,110.4,95.7,109.2,96.7z
		 M116.4,91.6l-0.4-0.7c1.3-0.8,2.6-1.5,4-2.1l0.4,0.7C119,90.1,117.7,90.8,116.4,91.6z M189.2,91.5c-1.2-0.8-2.5-1.5-3.9-2.2
		l0.4-0.7c1.4,0.7,2.7,1.4,3.9,2.2L189.2,91.5z M124.4,87.7l-0.3-0.8c1.4-0.5,2.8-1,4.3-1.4l0.2,0.8
		C127.2,86.7,125.8,87.2,124.4,87.7z M181.2,87.6c-1.4-0.5-2.8-1-4.2-1.4l0.2-0.8c1.5,0.4,2.9,0.9,4.3,1.4L181.2,87.6z M172.7,85.3
		c-1.1-0.2-2.2-0.4-3.4-0.5c-0.3,0-0.7-0.1-1-0.1l0.1-0.8c0.3,0,0.7,0.1,1,0.1c1.2,0.1,2.3,0.3,3.4,0.5L172.7,85.3z M132.9,85.2
		l-0.2-0.8c1.4-0.3,2.9-0.6,4.4-0.8l0.1,0.8C135.8,84.6,134.3,84.9,132.9,85.2z M163.9,84.2c-1.5-0.1-3-0.3-4.4-0.4l0.1-0.8
		c1.5,0.1,3,0.2,4.5,0.4L163.9,84.2z M141.7,83.9l-0.1-0.8c1.4-0.1,3-0.2,4.5-0.3l0,0.8C144.6,83.6,143.1,83.7,141.7,83.9z
		 M155,83.6c-1.5-0.1-3-0.1-4.4-0.1h0v-0.8h0c1.4,0,2.9,0,4.5,0.1L155,83.6z"/>
</g>
<g>
	<path class="st0" d="M231,26.1H31.2c-0.2,0-0.4-0.2-0.5-0.4c-0.1-0.2,0-0.5,0.2-0.6L74.8,0.8c0.1-0.1,0.2-0.1,0.3-0.1l156,24.4
		c0.3,0,0.4,0.3,0.4,0.5C231.5,25.9,231.3,26.1,231,26.1z M33.1,25.1h191.4L75.1,1.7L33.1,25.1z"/>
</g>
<g class="st2">
	<path class="st0" d="M272,244.9h-12.8v-1.6H272V244.9z M246.4,244.9h-12.8v-1.6h12.8V244.9z M220.8,244.9H208v-1.6h12.8V244.9z
		 M195.2,244.9h-12.8v-1.6h12.8V244.9z M169.6,244.9h-12.8v-1.6h12.8V244.9z M144,244.9h-12.8v-1.6H144V244.9z M118.4,244.9h-12.8
		v-1.6h12.8V244.9z M92.8,244.9h-3v-11.4h1.6v9.8h1.4V244.9z M272.8,237.9h-1.6v-12.8h1.6V237.9z M91.4,220.7h-1.6v-12.8h1.6V220.7z
		 M272.8,212.3h-1.6v-12.8h1.6V212.3z M91.4,195.1h-1.6v-12.8h1.6V195.1z M272.8,186.7h-1.6v-12.8h1.6V186.7z M91.4,169.5h-1.6
		v-12.8h1.6V169.5z M272.8,161.1h-1.6v-12.8h1.6V161.1z M91.4,143.9h-1.6v-12.8h1.6V143.9z M272.8,135.5h-1.6v-12.8h1.6V135.5z
		 M91.4,118.3h-1.6v-12.8h1.6V118.3z M272.8,109.9h-1.6V97.1h1.6V109.9z M91.4,92.7h-1.6V79.9h1.6V92.7z M272.8,84.3h-1.6V71.5h1.6
		V84.3z M260.3,71.2h-12.8v-1.6h12.8V71.2z M234.7,71.2h-12.8v-1.6h12.8V71.2z M209.1,71.2h-12.8v-1.6h12.8V71.2z M183.5,71.2h-12.8
		v-1.6h12.8V71.2z M157.9,71.2h-12.8v-1.6h12.8V71.2z M132.3,71.2h-12.8v-1.6h12.8V71.2z M106.7,71.2H93.9v-1.6h12.8V71.2z"/>
</g>
<g>
	<path class="st3" d="M339,81.1h-47.9c-0.2,0-0.5-0.2-0.5-0.4c0-0.2,0.1-0.5,0.3-0.6l24-10.2c0.1-0.1,0.3-0.1,0.4,0l24,10.2
		c0.2,0.1,0.3,0.3,0.3,0.6C339.5,80.9,339.2,81.1,339,81.1z M293.6,80h42.9L315,70.9L293.6,80z"/>
</g>
<g>
	<g>
		<path class="st0" d="M156.1,184.9v96.6h-43.4v-85.3c5.4-1.3,10.9-2.6,16.5-4.1C137.8,190,146.8,187.5,156.1,184.9z"/>
	</g>
</g>
<g>
	<g>
		<path class="st0" d="M215.3,165.9v115.6h-43.4V180.2C185.9,176,200.5,171.2,215.3,165.9z"/>
	</g>
</g>
<g>
	<g>
		<path class="st0" d="M274.4,141.7v139.8H231V160C245.4,154.4,260,148.3,274.4,141.7z"/>
	</g>
</g>
<g>
	<g>
		<path class="st4" d="M96.9,201.7c5.2-1.1,10.4-2.4,15.8-3.6c5.5-1.3,11.2-2.7,16.9-4.2c9-2.3,17.8-4.7,26.5-7.1
			c5.3-1.5,10.6-3,15.8-4.6c14.9-4.5,29.4-9.3,43.4-14.3c5.3-1.9,10.6-3.9,15.8-5.9c13-5,25.5-10.2,37.6-15.6
			c1.9-0.9,3.9-1.8,5.8-2.6c5.3-2.5,10.6-5,15.8-7.5c15.3-7.6,29.8-15.5,43.4-23.8c1-0.6,1.9-1.2,2.9-1.8c1.1-0.7,2.3-1.4,3.4-2.2
			v-2.3c-2.1,1.3-4.2,2.6-6.3,3.9c-14.1,8.6-28.6,16.6-43.4,23.9c-5.2,2.6-10.5,5.1-15.8,7.6c-14.4,6.7-29,12.8-43.4,18.3
			c-5.3,2-10.5,4-15.8,5.9c-14.8,5.3-29.3,10.1-43.4,14.4c-5.3,1.6-10.6,3.2-15.8,4.6c-9.3,2.6-18.3,5.1-26.9,7.3
			c-5.6,1.4-11.1,2.8-16.5,4.1c-5.4,1.3-10.6,2.5-15.8,3.6V201.7z"/>
	</g>
</g>
<g>
	<rect x="290.2" y="79.6" class="st4" width="49.7" height="201.9"/>
</g>
<g class="st2">
	<g>
		<polygon class="st0" points="352.4,281.5 347.5,281.5 347.5,279.9 350.8,279.9 350.8,276.5 352.4,276.5 		"/>
	</g>
	<g>
		<path class="st0" d="M338.9,281.5h-13.3v-1.6h13.3V281.5z M312.2,281.5h-13.3v-1.6h13.3V281.5z"/>
	</g>
	<g>
		<polygon class="st0" points="287.1,281.5 282.2,281.5 282.2,276.5 283.8,276.5 283.8,279.9 287.1,279.9 		"/>
	</g>
	<g>
		<path class="st0" d="M283.8,268.5h-1.6v-12.4h1.6V268.5z M283.8,243.7h-1.6v-12.4h1.6V243.7z M283.8,218.9h-1.6v-12.4h1.6V218.9z
			 M283.8,194h-1.6v-12.4h1.6V194z M283.8,169.2h-1.6v-12.4h1.6V169.2z M283.8,144.4h-1.6V132h1.6V144.4z M283.8,119.6h-1.6v-12.4
			h1.6V119.6z M283.8,94.8h-1.6V82.4h1.6V94.8z M283.8,70h-1.6v-6.2h1.6V70z"/>
	</g>
	<g>
		<polygon class="st0" points="283.8,59.7 282.2,59.7 282.2,54.8 287.1,54.8 287.1,56.4 283.8,56.4 		"/>
	</g>
	<g>
		<path class="st0" d="M335.7,56.4h-13.3v-1.6h13.3V56.4z M309.1,56.4h-13.3v-1.6h13.3V56.4z"/>
	</g>
	<g>
		<polygon class="st0" points="352.4,59.7 350.8,59.7 350.8,56.4 347.5,56.4 347.5,54.8 352.4,54.8 		"/>
	</g>
	<g>
		<path class="st0" d="M352.4,272.5h-1.6v-6.2h1.6V272.5z M352.4,253.9h-1.6v-12.4h1.6V253.9z M352.4,229.1h-1.6v-12.4h1.6V229.1z
			 M352.4,204.3h-1.6v-12.4h1.6V204.3z M352.4,179.4h-1.6V167h1.6V179.4z M352.4,154.6h-1.6v-12.4h1.6V154.6z M352.4,129.8h-1.6
			v-12.4h1.6V129.8z M352.4,105h-1.6V92.6h1.6V105z M352.4,80.2h-1.6V67.8h1.6V80.2z"/>
	</g>
</g>
<g>
	<g>
		<g>
			<path class="st5" d="M102.6,167.5c0.1,0.2,0.2,0.4,0.4,0.5l-0.5,0.4l-14.6,9.8l-0.4-0.5l14.6-9.8L102.6,167.5z"/>
		</g>
		<g>
			<path class="st5" d="M155.1,170.3c0,0.2-0.1,0.4-0.1,0.7l-0.7-0.1l-41.7-5l-0.7-0.1c0-0.2,0.1-0.4,0.1-0.7l0.7,0.1l41.7,5
				L155.1,170.3z"/>
		</g>
		<g>
			<path class="st5" d="M196,139.1l-0.5,0.4l-30.9,28l-0.5,0.4c-0.1-0.2-0.3-0.3-0.4-0.5l0.5-0.4l30.9-28l0.5-0.4
				C195.7,138.8,195.9,139,196,139.1z"/>
		</g>
		<g>
			<path class="st5" d="M246.5,135.5c0,0.1,0,0.2,0,0.3h-41.9c0-0.1,0-0.2,0-0.3c0-0.1,0-0.2,0-0.3h41.9
				C246.5,135.2,246.5,135.4,246.5,135.5z"/>
		</g>
		<g>
			<path class="st5" d="M282.6,102.2l-26.8,29.2l-0.4,0.5c-0.2-0.2-0.3-0.3-0.5-0.4l0.4-0.5l26.8-29.2L282.6,102.2z"/>
		</g>
	</g>
	<g>
		<g>
			<path class="st5" d="M107,159.1c-3.2,0-5.8,2.6-5.8,5.8c0,3.2,2.6,5.8,5.8,5.8c3.2,0,5.8-2.6,5.8-5.8
				C112.8,161.7,110.2,159.1,107,159.1z M107,170c-2.8,0-5.1-2.3-5.1-5.1c0-2.8,2.3-5.1,5.1-5.1c2.8,0,5.1,2.3,5.1,5.1
				C112.1,167.7,109.9,170,107,170z"/>
		</g>
	</g>
	<g>
		<g>
			<path class="st5" d="M160.1,165.5c-3.2,0-5.8,2.6-5.8,5.8c0,3.2,2.6,5.8,5.8,5.8c3.2,0,5.8-2.6,5.8-5.8
				C165.9,168.1,163.3,165.5,160.1,165.5z M160.1,176.3c-2.8,0-5.1-2.3-5.1-5.1c0-2.8,2.3-5.1,5.1-5.1c2.8,0,5.1,2.3,5.1,5.1
				C165.2,174,163,176.3,160.1,176.3z"/>
		</g>
	</g>
	<g>
		<g>
			<path class="st5" d="M199.6,129.7c-3.2,0-5.8,2.6-5.8,5.8c0,3.2,2.6,5.8,5.8,5.8c3.2,0,5.8-2.6,5.8-5.8
				C205.4,132.3,202.8,129.7,199.6,129.7z M199.6,140.6c-2.8,0-5.1-2.3-5.1-5.1c0-2.8,2.3-5.1,5.1-5.1c2.8,0,5.1,2.3,5.1,5.1
				C204.7,138.3,202.4,140.6,199.6,140.6z"/>
		</g>
	</g>
	<g>
		<g>
			<path class="st5" d="M251.7,129.7c-3.2,0-5.8,2.6-5.8,5.8c0,3.2,2.6,5.8,5.8,5.8c3.2,0,5.8-2.6,5.8-5.8
				C257.4,132.3,254.8,129.7,251.7,129.7z M251.7,140.6c-2.8,0-5.1-2.3-5.1-5.1c0-2.8,2.3-5.1,5.1-5.1c2.8,0,5.1,2.3,5.1,5.1
				C256.8,138.3,254.5,140.6,251.7,140.6z"/>
		</g>
	</g>
</g>
<g>
	<path class="st5" d="M84.4,234.4H65.7V0h18.6V234.4z M68.2,232h13.8V2.4H68.2V232z"/>
</g>
<g>
	<path class="st3" d="M315,72.2c-2.1,0-3.8-1.7-3.8-3.8h1c0,1.5,1.2,2.8,2.8,2.8s2.8-1.2,2.8-2.8c0-1.5-1.2-2.8-2.8-2.8h-0.5V41.5h1
		v23.2c1.9,0.2,3.3,1.8,3.3,3.8C318.8,70.5,317.1,72.2,315,72.2z"/>
</g>
<g>
	<g>
		
			<rect x="38.5" y="23" transform="matrix(0.7399 -0.6727 0.6727 0.7399 -12.5023 35.6007)" class="st0" width="2.6" height="21.9"/>
	</g>
	<g>
		<rect x="88.3" y="23" transform="matrix(0.7399 -0.6727 0.6727 0.7399 0.4447 69.0882)" class="st0" width="2.6" height="21.9"/>
	</g>
	<g>
		
			<rect x="138.1" y="23" transform="matrix(0.7399 -0.6727 0.6727 0.7399 13.3918 102.575)" class="st0" width="2.6" height="21.9"/>
	</g>
	<g>
		
			<rect x="187.8" y="23" transform="matrix(0.7399 -0.6727 0.6727 0.7399 26.3371 136.0589)" class="st0" width="2.6" height="21.9"/>
	</g>
	<g>
		
			<rect x="237.6" y="23" transform="matrix(0.7399 -0.6727 0.6727 0.7399 39.2813 169.5416)" class="st0" width="2.6" height="21.9"/>
	</g>
	<g>
		
			<rect x="287.4" y="23" transform="matrix(0.7399 -0.6727 0.6727 0.7399 52.2272 203.027)" class="st0" width="2.6" height="21.9"/>
	</g>
	<g>
		
			<rect x="337.2" y="23" transform="matrix(0.7399 -0.6727 0.6727 0.7399 65.1867 236.5306)" class="st0" width="2.6" height="21.9"/>
	</g>
</g>
<g>
	<path class="st5" d="M347,43.5H29.9V24.4H347V43.5z M32.4,41.1h312.2V26.8H32.4V41.1z"/>
</g>
<g>
	<g>
		<rect x="57.1" y="281" class="st4" width="304.7" height="0.5"/>
	</g>
</g>
<g>
	<path class="st5" d="M85.5,281.9H64.6v-50h20.9V281.9z M67,279.5h16v-45.1H67V279.5z"/>
</g>
<g>
	<g>
		<g>
			<g>
				<path class="st6" d="M367.4,218.5c0,0-2.7,1.3-2.1,5c0.7,3.6,1,4.1,0.2,5.6c-0.8,1.4-1.7,7.5-1,8.7c0.7,1.2,8.4-5.1,9.5-10.3
					c1.1-5.2-0.7-7.5-1.3-8.4C372.2,218.2,369.8,217.3,367.4,218.5z"/>
			</g>
		</g>
	</g>
</g>
<g>
	<g>
		<path class="st3" d="M366.6,231.7c0,0-1.4,0.3-2.2,1.4c-0.5,0.8-0.6,2.6-0.7,2.9c-0.1,0.3-1.1,4.1-1.1,4.1l2.9,1.9L366.6,231.7z"
			/>
	</g>
</g>
<g>
	<g>
		<path class="st7" d="M355.9,296.6c0,0-1.9,2.6-1.6,3c0.3,0.4,2.3,0.5,3.5,0c1.2-0.5,1.2-3.5,1.8-4.7c0.2-0.5-0.3-2.1-1-2.2
			c-0.7-0.1-1.4,0.2-1.4,0.2S357.8,294.6,355.9,296.6z"/>
	</g>
</g>
<g>
	<g>
		<g>
			<path class="st8" d="M357.1,292.8c0,0-0.4,1.1-0.5,2.1c-0.1,0.9-1.4,2.7-1.3,2.9c0.1,0.2,1.6,0.4,2.3-0.2c0.6-0.6,1-2.3,1.2-3.4
				c0.1-1,0.3-1.4,0.3-1.4S357.7,292.2,357.1,292.8z"/>
		</g>
	</g>
</g>
<g>
	<g>
		<path class="st7" d="M372.4,296.7c0,0-1.8,2.5-1.6,2.9c0.3,0.4,2.3,0.5,3.5,0c1.2-0.5,1.2-3.5,1.8-4.7c0.2-0.5-0.3-2.1-1-2.2
			c-0.7-0.1-1.5,0.2-1.5,0.2S374.3,294.7,372.4,296.7z"/>
	</g>
</g>
<g>
	<g>
		<g>
			<path class="st8" d="M373.6,292.8c0,0-0.1,1.2-0.4,2c-0.2,0.8-1.5,2.7-1.4,3c0.1,0.2,1.6,0.4,2.3-0.2c0.6-0.6,1.1-2.3,1.2-3.4
				c0.1-1-0.1-1.7-0.1-1.7S374.2,292.2,373.6,292.8z"/>
		</g>
	</g>
</g>
<g>
	<g>
		<g>
			<path class="st8" d="M364.5,251.3c0,0-1.6,7.6-2,9.5c-0.4,1.9-1.4,11.1-1.5,12.7c-0.1,1.6-1.7,7.5-1.6,8
				c0.1,0.6-2.4,11.8-2.4,11.8s0.8,0.7,1.7,0.1c0.4-0.3,5.3-10.5,5.3-13.3c0-3.9,2.9-8.9,3.2-9.8c3.4-8.1,2.8-10.5,3.2-11
				c0.4-0.5,0.5,0.3,0.7,1.5c0.3,1.2,0.8,11.2,1.2,12.4c0.3,1.3,0.1,5.6,0.3,7.7c0.2,2.2,1,12,1,12s0.6,1,1.5,0
				c0.2-0.2,1.5-10.9,1.6-13.5c0-2.6,0.1-6.1,0.1-7.2c0.7-10.7,2.4-12.2-0.3-19.8C371.6,238.2,364.5,251.3,364.5,251.3z"/>
		</g>
	</g>
</g>
<g>
	<g>
		<path class="st7" d="M375.4,249.2c0,0,4.6,6.5,2.6,20.3c0,0-11,1.5-16.9-1.7c0,0,2.4-14.2,3.3-16.4
			C365.4,249.1,375.4,249.2,375.4,249.2z"/>
	</g>
</g>
<g>
	<g>
		<polygon class="st7" points="359.6,294.6 359.6,297.3 359.2,297.3 359.2,295.2 		"/>
	</g>
</g>
<g>
	<g>
		<polygon class="st7" points="376.1,294.6 376.1,297.3 375.8,297.3 375.8,295.2 		"/>
	</g>
</g>
<g>
	<g>
		<path class="st9" d="M369.2,230.7c0,0-1.7,0.8-2.3,0.9c-0.6,0.1-2.9,3.1-3.3,4.2c-0.4,1.1,0,2.7,0.8,4.6c0.8,1.9,0,2.6,0.4,4.5
			s0.7,6,0.6,7.1c-0.1,1.1,9.6,1.3,11.8-0.7c0,0-2.2-3.3-2.5-3.8c-0.3-0.5,0-3.1,0.2-3.7c0.3-0.7,2-6.3,2-6.3s1.4-4.3,0.1-5.3
			c-1.1-0.9-4.2-1.2-4.7-1.4C371.9,230.6,370.3,230.6,369.2,230.7z"/>
	</g>
</g>
<g>
	<g>
		<path class="st10" d="M368.7,234.5l-1-1.2l0.9-3.2C368.5,230.1,368.8,231.9,368.7,234.5z"/>
	</g>
</g>
<g>
	<g>
		<path class="st8" d="M368.4,228.8c0,0,0,0.4,0.1,1c0,0.3,0.1,0.6,0.1,0.9c0.1,0.9,0.1,1.8,0.1,2.3c0,0,1.8,1.8,3.8-2.1
			c0,0-0.8-1.6-0.2-3.8C372.9,224.9,368.4,228.8,368.4,228.8z"/>
	</g>
</g>
<g>
	<g>
		<polygon class="st8" points="368.7,232.9 368.7,234.5 370.7,233 		"/>
	</g>
</g>
<g>
	<g>
		<polygon class="st10" points="368.7,234.5 369.5,233.5 372.4,230.6 373.3,231.5 		"/>
	</g>
</g>
<g>
	<g>
		<path class="st3" d="M372.8,230.9c0,0-2.4,3.6-2.5,5.2c-0.1,1.6,0.9,13.6,1.7,17.4c0.8,3.8,6.6-0.4,6.6-0.4s-3.9-6.3-2.4-11.4
			c1.5-5.1,2-7.1,2-7.1s-0.5-2.8-2.3-3.2C374.2,231.1,372.8,230.9,372.8,230.9z"/>
	</g>
</g>
<g>
	<g>
		<path class="st3" d="M363.4,236.3c0,0-0.4,1.5,1.3,4.9c0,0,0,4.3-0.1,5.7c0,1.4-1,6.2-1,6.2l2.3,1.2c0.3,0.2,0.8-0.1,0.7-0.5
			c-0.5-3.9-2-18.6,1.3-22.6l-1.3,0.4C366.6,231.7,364.2,233.6,363.4,236.3z"/>
	</g>
</g>
<g>
	<g>
		<polygon class="st11" points="367.6,233.3 366.3,233.7 368.5,230.1 		"/>
	</g>
</g>
<g>
	<g>
		<polygon class="st11" points="369.5,233.5 370.7,235.1 373.1,231 372.4,230.6 		"/>
	</g>
</g>
<g>
	
		<rect x="363.5" y="241.5" transform="matrix(0.621 -0.7838 0.7838 0.621 -50.7188 378.4919)" class="st5" width="5.1" height="0.4"/>
</g>
<g>
	<path class="st8" d="M368,243.4c0,0-0.3,0-0.5-0.1c-0.3-0.3-0.5-0.9-1.1-0.9c-0.6,0-0.9,2-0.7,2.3c0.2,0.4,1,0.5,2.2,0.3
		C369.1,244.7,368,243.4,368,243.4z"/>
</g>
<g>
	<path class="st8" d="M366.6,242.4c0,0-0.9-0.3-1.9-0.5c-0.9-0.2-1.9-0.3-2-0.1c-0.1,0.2,0.9,0.3,1.7,0.6c0.8,0.2,0.6,0.3,0.6,0.3
		s0.1,0-0.9-0.1c-1-0.1-2-0.1-2.1,0.1c0,0.1,0,0.2,0.3,0.2c-0.2,0-0.2,0-0.2,0.1c0,0.4,1.4,0.8,2,0.9c-0.4-0.1-0.8-0.1-0.6,0.2
		c0.2,0.3,2.2,0.7,2.9,1C367.2,245.3,366.6,242.4,366.6,242.4z"/>
</g>
<g>
	<path class="st3" d="M375.5,231.5c0.6-0.2,2.4,0.4,2.7,2.2c0.3,1.8,0.4,3.8,0.7,4.8c0.3,1,1,5.3,0.4,5.6c-0.6,0.4-1.7,0.7-3.3,0.7
		c-1.6,0-8,0.3-8,0.3l-0.4-2.3c0,0,2.4-0.1,3.7-0.3c1.1-0.2,2.6-0.6,4.5-0.8c0,0-0.4-2.7-0.7-3.4
		C374.8,237.6,372.8,232.4,375.5,231.5z"/>
</g>
<g>
	<polygon class="st8" points="363.9,243.1 363.6,243.8 364.3,243.3 	"/>
</g>
<g>
	<g>
		<polygon class="st0" points="367.4,246.8 361,245.6 356.3,235.4 363.1,236.2 		"/>
	</g>
</g>
<g>
	<g>
		<g>
			<path class="st8" d="M360.2,243.9c0,0-0.3-0.3-0.7-0.8c-0.3-0.5-1.3-2.2-1.2-2.3c0.1-0.1,1.6-0.1,1.9,0.1
				c0.3,0.2-0.3,0.3-0.3,0.3s0.8,0.1,0.8,0.3c-0.1,0.2-0.6,0.2-0.6,0.2s0.7,0.1,0.6,0.3c-0.1,0.2-0.4,0.2-0.4,0.2s0.6,0.1,0.5,0.3
				c-0.1,0.2-1,0.4-0.9,0.6C360.1,243.4,360.2,243.9,360.2,243.9z"/>
		</g>
	</g>
</g>
<g>
	<g>
		<g>
			<g>
				<path class="st12" d="M367.8,218.9c0,0-4,1.2-1.8,8.1c2.2,6.9,7.6-0.8,7-5C372.4,217.9,367.8,218.9,367.8,218.9z"/>
			</g>
		</g>
	</g>
</g>
<g>
	<g>
		<g>
			<g>
				<path class="st6" d="M365.6,222.9c0,0,2,1.9,5.3,2.2c0,0,1.3,1.5,1.4,2.1c0,0,3-5-0.7-8C367.9,216.1,364.2,221.7,365.6,222.9z"
					/>
			</g>
		</g>
	</g>
</g>
<g>
	<g>
		<g>
			<g>
				<path class="st12" d="M370.8,225.2c0-0.5,0.3-1.6,1.1-1.3c0.7,0.3,0,2.6-0.5,2.5C371.3,226.4,370.7,226.4,370.8,225.2z"/>
			</g>
		</g>
	</g>
</g>
<g>
	<path class="st13" d="M368.5,229.8c0,0.3,0.1,0.6,0.1,0.9l0,0c2.3-1.1,2.7-2.8,2.7-2.8C369.6,229.9,368.5,229.8,368.5,229.8z"/>
</g>
<g>
	<g>
		<polygon class="st14" points="31.6,203.3 11.9,196.1 18.1,194.7 		"/>
	</g>
	<g>
		<polygon class="st15" points="31.6,203.3 24.6,195.2 19.9,195.9 		"/>
	</g>
	<g>
		<polygon class="st16" points="16.4,197.7 16.4,200.1 31.6,203.3 		"/>
	</g>
</g>
<g>
	<polygon class="st5" points="395,205.4 377.7,205.4 377.7,217.9 377.7,220.6 380.3,217.9 395,217.9 	"/>
</g>
<g>
	<path class="st8" d="M178.4,110.8c0,0,0.1-1.2,0.1-1.4c0-0.2,0.3-0.6,0.7-1c0.4-0.4,1.2-0.8,1.3-0.8c0.1,0,0.2,0,0.4,0.2
		c0.2,0.2,0.2,0.4,0.2,0.4s0.3,0.1,0.4,0.4c0,0,0.3,0.1,0.3,0.5c0,0,0.3,0.1,0.3,0.4c0,0-0.3,0.4-0.4,0.6c-0.1,0.2-0.8,1-1.6,1.7
		C180.1,111.7,179.1,112.1,178.4,110.8z"/>
</g>
<g>
	<path class="st17" d="M179.8,109.6c0,0,0.2,0.6,0.2,0.8c0,0.2,1.4,0.1,1.4,0.1S180.5,109.4,179.8,109.6z"/>
</g>
<g>
	<path class="st8" d="M180.1,111.7c0,0-0.2,0.4-0.2,0.5c0,0.1-1.9-0.4-1.4-1.5C179,109.7,180.1,111.7,180.1,111.7z"/>
</g>
<g>
	<polygon class="st18" points="176.2,174.2 176.1,172.3 178.6,171.9 178.8,173.6 	"/>
</g>
<g>
	<polygon class="st19" points="195,167.4 195.5,168.3 197.9,167 197.2,165.6 	"/>
</g>
<g>
	<g>
		<path class="st5" d="M180.4,143.1c0,0,0.3,2.2,0.7,4.6c0.1,0.4,0.1,0.8,0.2,1.3c0.3,2.3,0.6,4.6,0.6,5c0,1.1-2.8,18-2.8,18
			s-3.2,0.9-3.5,0.5c0,0,1.1-17.7,0.9-18.2c-0.2-0.5-4.9-16.6-4.9-16.6S179.9,142.3,180.4,143.1z"/>
	</g>
</g>
<g>
	<g>
		<path class="st5" d="M181,133.4c0,0,8.5,14.4,9.1,15.5c0.7,1.1,7.4,16.6,7.4,16.6s-0.2,1.6-2.9,2c0,0-9.4-15.9-9.9-16.3
			c-1.9-1.8-11.2-10.7-12.2-12c-1.1-1.3-1.5-3.2-1.5-3.2S174.2,132.2,181,133.4z"/>
	</g>
</g>
<g>
	<g>
		<path class="st20" d="M172.7,113.7c0,0,2.5,2.8,2.8,2.6c0.3-0.2,2.5-6,2.5-6s2.5,1.6,2.4,1.9c-0.2,0.5-2.1,9.5-2.8,9.6
			c-0.7,0.1-5-3.5-5-3.5S171.2,114.9,172.7,113.7z"/>
	</g>
</g>
<g>
	<g>
		<path class="st21" d="M164.8,109.4c0,0,4.4,1.4,5.7,2.1c1.3,0.7,5.5,4.1,5.7,5.5c1,5.2,2.2,9.6,3.3,13c1,3,2.2,3.4,1.7,3.7
			c-0.7,0.3-8.2,6.5-9.4,7.3c0,0-2.8-10.7-2.8-12.1C169,127.6,162.8,115.5,164.8,109.4z"/>
	</g>
</g>
<g>
	<path class="st22" d="M185.2,96.6l2.1,3.6l2.1,3.6c0,0-4.9,0.2-9.6,2.9l-0.9-1.6l-0.9-1.6C182.7,100.8,185.2,96.6,185.2,96.6z"/>
</g>
<g>
	<path class="st4" d="M195.5,168.3c0,0,1.8-1,1.8-1.1c0-0.1,0.2-1,0.5-1c0.3,0,0.7,0.9,1,1s3.2,0.8,3.5,1c0.4,0.2,2-0.6,2.4-0.2
		c0.4,0.4,0.8,1.6-1.9,2.2c-2.7,0.6-5.5,2.1-6.1,2C196.1,172.1,195.6,169.1,195.5,168.3z"/>
</g>
<g>
	<path class="st4" d="M176.1,174.2c0,0,1.9-0.7,2-0.8c0.1-0.1,0.3-0.9,0.7-0.9c0.3,0.1,0.5,1,0.8,1.1c0.3,0.1,3,1.3,3.3,1.5
		c0.3,0.2,2.1-0.3,2.4,0.2c0.3,0.5,0.5,1.7-2.2,1.9c-2.7,0.2-5.7,1.2-6.4,1C176.2,178,176.1,175,176.1,174.2z"/>
</g>
<g>
	<g>
		<path class="st12" d="M179.3,134.8c0,0,0.6,0.9,1,0.9c0.4,0.1-1,2.8-1,2.8s-1.5-1.6-1.6-1.8C177.7,136.6,179.3,134.8,179.3,134.8z
			"/>
	</g>
</g>
<g>
	<g>
		<path class="st23" d="M164.7,114c0,0,1.6,12.6,1.9,13.9c0.2,1.2,11.5,9.5,11.5,9.5l2-2.3c0,0-9.8-8.8-10-9.3
			c-0.2-0.5-0.6-11-0.6-11s0.5-2.5-2-2.7C164.9,111.8,164.7,114,164.7,114z"/>
	</g>
</g>
<g>
	<path class="st24" d="M181,135.1c0,0,2.2,3.7,2.6,5c0.4,1.2-5.3-0.3-5.5-1.6L181,135.1z"/>
</g>
<g>
	<g>
		<g>
			<path class="st8" d="M164.8,109.4c0,0,8.7,4.7,8,4c-2.3-2.2-3.4-2.3-3.6-2.9c-0.1-0.4-0.4-1.6-0.5-2c-0.2-0.7-0.4-1.3-0.4-1.3
				s-4.6-3.3-4-1.8C165,106.9,164.8,109.4,164.8,109.4z"/>
		</g>
	</g>
</g>
<g>
	<g>
		<g>
			<path class="st8" d="M167.9,99.2c0,0,1.6,1.7,1.7,2.2c0.2,0.5,0.2,0.9,0.4,1.4c0.3,0.5,1.2,1.6,1.2,1.9c0.1,0.4-0.8,0.5-0.7,1.2
				c0.1,0.7-0.1,2.1-0.4,2.3c-0.8,0.3-4.2,0.2-4.6-0.4c-0.4-0.6-2.7-3.6-3.3-4.2c-0.6-0.5,3.7-6.1,4.6-5.2
				C167.9,99.2,167.9,99.2,167.9,99.2z"/>
		</g>
	</g>
</g>
<g>
	<path class="st25" d="M160.9,103.4c-1-1.6,0.9-2.5,0.9-2.5s0.8-1.9,3.9-2.8c3.1-0.9,4.1,3.3,4.1,3.3s-2.2,0.4-3.1,1
		c0,0,0.5,1.8,0.7,2.1l-1.2,0.3c0,0-0.4-1.6-1-1.4c-0.6,0.1,0.4,3.5-0.4,4.6c0,0-0.1-0.2-0.3-0.4l0,0l0,0c-0.3-0.3-0.9-0.8-1.4-1.4
		C162.3,105.3,161.4,104.2,160.9,103.4z"/>
</g>
<g>
	<g>
		<g>
			<path class="st8" d="M166.1,103.4c0,0-0.8-1-1.6,0.1c-0.6,0.8,0.9,2.5,1.6,2.2C166.9,105.5,166.8,104.3,166.1,103.4z"/>
		</g>
	</g>
</g>
<g>
	<path class="st26" d="M165.3,107.3c0,0,0.4,0.6,0.6,0.6c0.2,0.1,1.2,0.4,2.7,0.4l0.3,1.3C168.9,109.6,166,109.5,165.3,107.3z"/>
</g>
<g>
	<path class="st3" d="M182.1,110.8l0.4-0.4l-3.5-3.6l-0.9,0.9l3,3C181.3,111.2,181.7,111.1,182.1,110.8z"/>
</g>
<g>
	<path class="st27" d="M180.4,107.6c0,0-1,1.1-0.9,1.3c0.2,0.2,0.3,0.2,0.3,0.2l-0.2,0.7c0,0,0.1,0.5,0.6,0.2c0,0,0.1,0.5,0.5,0.2
		c0,0,0.2,0.3,0.4,0.2c0.2-0.1,0.9-0.9,0.9-0.9s0.1-0.2-0.3-0.4c0,0,0-0.4-0.3-0.5c0,0,0-0.3-0.4-0.4c0,0-0.1-0.7-0.6-0.6
		C180.5,107.5,180.5,107.6,180.4,107.6z"/>
</g>
<g>
	<polygon class="st24" points="176.7,108.7 180.8,106.4 178.8,103 174.8,105.5 	"/>
</g>
<g>
	<path class="st8" d="M178.5,109.3c0,0,1-0.4,1.6-0.3c0.1,0,0.3,0,0.3,0.2c0,0.1-0.1,0.4-0.5,0.6c-0.4,0.2-0.9,0.6-0.9,0.6
		S178.6,110.4,178.5,109.3z"/>
</g>
<g>
	<path class="st4" d="M181.1,147.7c0.1,0.4,0.1,0.8,0.2,1.3l-4.8-5.8C177,143.8,181.1,147.7,181.1,147.7z"/>
</g>
<g>
	<polygon class="st4" points="182.2,78.6 167.8,83.3 171.3,93.8 172,96 173.5,93 185.7,89 	"/>
</g>
<g>
	<path class="st28" d="M302.2,106.2c-1.9,0-3.7,0.3-5.3,0.8c-2.2-5.3-7.6-9.1-14-9.1c-7.1,0-13,4.6-14.6,10.9
		c-1.2-0.5-2.6-0.7-3.9-0.7c-5.9,0-10.7,4.5-10.7,10.1h15.6h5.7h12.2h9.3h20.7C317.2,111.6,310.5,106.2,302.2,106.2z"/>
</g>
<g>
	<path class="st28" d="M74.1,68c-2.4,0-4.7,0.4-6.8,1c-2.8-6.8-9.8-11.6-17.9-11.6c-9.1,0-16.7,6-18.7,14c-1.6-0.6-3.3-0.9-5.1-0.9
		c-7.5,0-13.7,5.8-13.7,13h20h7.3h15.6h11.9h26.6C93.3,74.9,84.7,68,74.1,68z"/>
</g>
<g>
	<path class="st28" d="M219,40.9c-1.6,0-3.1,0.2-4.4,0.7c-1.8-4.4-6.3-7.5-11.6-7.5c-5.9,0-10.8,3.8-12.1,9c-1-0.4-2.1-0.6-3.3-0.6
		c-4.9,0-8.8,3.8-8.8,8.4h12.9h4.7h10.1h7.7h17.2C231.4,45.4,225.8,40.9,219,40.9z"/>
</g>
<g>
	<path class="st28" d="M357.6,137.3c-1.9,0-3.7,0.3-5.3,0.8c-2.2-5.3-7.6-9.1-14-9.1c-7.1,0-13,4.6-14.6,10.9
		c-1.2-0.5-2.6-0.7-3.9-0.7c-5.9,0-10.7,4.5-10.7,10.1h15.6h5.7h12.2h9.3h20.7C372.6,142.7,365.9,137.3,357.6,137.3z"/>
</g>
<g>
	<path class="st28" d="M274.7,162.3c-0.9,0-1.8,0.1-2.7,0.4c-1.1-2.7-3.8-4.5-7-4.5c-3.5,0-6.5,2.3-7.3,5.5c-0.6-0.2-1.3-0.4-2-0.4
		c-2.9,0-5.3,2.3-5.3,5.1h7.8h2.9h6.1h4.6h10.4C282.2,165,278.9,162.3,274.7,162.3z"/>
</g>
<g>
	<path class="st8" d="M236.8,226.4c0,0,0.8-1.5-0.5-5.4c-1.3-3.8-5.7-3.4-7.1-1c-1.4,2.4-0.9,3.9,1.1,6.7
		C232.4,229.4,235.9,227.7,236.8,226.4z"/>
</g>
<g>
	<path class="st8" d="M225.6,293.9c0,0-0.2,1.6-0.2,1.8c0,0.2-2.4-0.1-2.4-0.1l-0.2-1.9C222.7,293.7,225.3,293.7,225.6,293.9z"/>
</g>
<g>
	<path class="st5" d="M225.4,295.6c0,0,0.8,1,1.5,1.4c0.7,0.4,1.9,0.6,2.3,1c0.3,0.3,1.1,1.7-1.9,1.6c-3.1,0-4.5,0.2-4.9-0.3
		c-0.3-0.5,0.5-3.8,0.5-3.8S223.6,295.7,225.4,295.6z"/>
</g>
<g>
	<path class="st8" d="M242.2,293.9c0,0-0.2,1.6-0.2,1.8c0,0.2-2.4-0.1-2.4-0.1l-0.2-1.9C239.4,293.7,241.9,293.7,242.2,293.9z"/>
</g>
<g>
	<path class="st5" d="M242,295.6c0,0,0.8,1,1.5,1.4c0.7,0.4,3.5,0.8,3.9,1.2c0.3,0.3,0.8,1.6-3.5,1.5c-3.1-0.1-4.5,0.2-4.9-0.3
		c-0.3-0.5,0.5-3.8,0.5-3.8S240.5,295.6,242,295.6z"/>
</g>
<g>
	<path class="st29" d="M226.4,254c0,0-1.2,3.8-1.1,7.1c0.2,3.3-0.6,6.9-1,10.4c-0.4,3.8-1.9,13-1.9,15c-0.1,2.1,0.2,8.6,0.2,8.6
		l3,0.1c0,0,2.5-15.9,3.2-17.5c0.6-1.6,3.9-13.2,4-14.5C232.9,261.9,226.4,254,226.4,254z"/>
</g>
<g>
	<path class="st30" d="M238.8,253.6c0,0,1.8,10.1,2,12.2c0.2,2,0.4,9.8,0.5,11c0.1,1.3,0.7,16.5,1.3,18.4h-3.3
		c0,0-3.4-11.1-3.4-16.4c0-5.3-2.3-11.4-3.7-14.9c-1.5-3.5-4.8-3.5-5.7-10C226.4,254,237.6,251.6,238.8,253.6z"/>
</g>
<g>
	<path class="st8" d="M235.6,227.5c0,0-0.4,1.1,0,1.9c0.4,0.8-4.8,0.3-4.8,0.3s0.2-1.6-0.4-2.9C229.7,225.4,235.6,227.5,235.6,227.5
		z"/>
</g>
<g>
	<path class="st31" d="M226.2,254.8c0,0,1.9,1.9,12.8-0.3l-0.2-0.9l-12.4,0.5L226.2,254.8z"/>
</g>
<g>
	<path class="st8" d="M235.4,229.9c0,0,1.9,0.2,2.5,0.3c0.5,0.1,4.2-0.7,5-0.7c0.8-0.1,4-2.3,4.1-2.5c0.1-0.3,2-5,2.1-6
		c0.1-1,1.8-0.5,1.7,0.2c-0.3,1.3-0.6,4.5-0.8,5.4c-0.2,1-0.8,3.2-1.1,3.5c-0.3,0.3-3.2,2.5-6,3.4c-2.8,0.9-5,2.3-5,2.3h-14
		c0,0-5.4-7.8-5.6-8.9c-0.1-1.2,3.8-9,4.6-9.9c0.8-1,1.9,0.3,1.9,0.3s-2.3,6.9-2.7,7.8c-0.3,1,2.7,5.3,3.6,5.3c0.8,0,3-0.3,3.9-0.3
		c1,0,2-0.5,2-0.5L235.4,229.9z"/>
</g>
<g>
	<path class="st14" d="M241.5,235.1c0,0-1.7,1.1-1.9,3.1c-0.2,2-0.8,5-1.1,6.1c-0.3,1.1,0.3,8.7,0.4,9.2c0.1,0.5-10.8,1.8-12.5,0.5
		c0,0-0.5-7.1-0.7-9.2s-1.1-6.9-1.4-7.6c-0.3-0.7-4.1-6-4.3-6.7c0,0,2-3.1,3.4-3.2c0,0,2.2,2.6,3,2.7c0.7,0.1,5.2-0.7,5.2-0.7
		c0,0,1.5,0.6,4.1-0.2c0,0,2.1,0.4,2.6,0.5c0.6,0.1,4.8-0.5,4.8-0.5s1.7,2.9,1.4,4.3L241.5,235.1z"/>
</g>
<g>
	<path class="st8" d="M248.9,221.6c0,0,0.4-1.8-0.1-2.3c-0.3-0.3-0.9-1.1-0.9-1.2c-0.1-0.1-0.7-0.5-0.7-0.7c0-0.2,0.7-0.4,1.2,0.1
		c0.6,0.5,0.9,0.6,1.2,0.6c0.2-0.1,0.6-2,0.6-2.4c0-0.5,0.2-1.7,0.5-1.6c0.3,0.1,0.3,0.6,0.3,0.6s0.3-0.9,0.6-0.8
		c0.2,0.2,0.2,0.6,0.2,0.6s0.4-0.5,0.5-0.1c0.1,0.4,0,0.7,0,0.7s0.4-0.2,0.5,0.4c0,0.6-0.1,2.4-0.4,3c-0.3,0.6-1.5,2.3-1.6,2.9
		C250.5,222,248.9,221.6,248.9,221.6z"/>
</g>
<g>
	<path class="st8" d="M224.3,218.4c0,0,1.3-2.2,1.7-2.4c0.4-0.2,1.1-0.3,1.6-0.7c0.5-0.4,1.3-0.7,1.2-0.8c0-0.1-0.7-0.1-1.4,0.2
		c-0.7,0.3-1,0.2-1.1,0c-0.1-0.2,0.4-1.3,0.6-1.5c0.2-0.3,1.7-1.8,1.4-2c-0.2-0.2-1.2,0.6-1.4,0.8c0,0,0.8-1.6,0.5-1.7
		c-0.3-0.1-0.9,0.5-0.9,0.5s0.1-1.4-1.4,0.9c0,0,0.3-0.7-0.1-0.5c-0.5,0.2-0.9,1.6-1,2.3c-0.1,0.7-0.8,2.9-1.3,3.5
		C222.3,217.5,224.3,218.4,224.3,218.4z"/>
</g>
<g>
	<path class="st32" d="M230.3,226.7c0,0,0.7,0.1,2.1-0.4c1.5-0.5,1.6-3.1,1.9-2.7c0.6,0.6,1.2,0.2,1.5-0.2c0,0-0.7-0.9-0.4-1.4
		c0.3-0.5,0.9-0.8,0.9-0.8s-1-4.9-5.7-2.7C225.2,221.1,230.3,226.7,230.3,226.7z"/>
</g>
<g>
	<path class="st14" d="M235.6,229.3l-0.2-0.7c0,0-3-0.1-4.6,0.2l-0.2,0.9C230.6,229.6,232.7,230.6,235.6,229.3z"/>
</g>
<g>
	<path class="st8" d="M234.8,222.9c-0.3-0.4-1.3-0.8-1.4,0.5c-0.1,1,1.8,2.1,1.8,1.1C235.3,223.6,235,223.2,234.8,222.9z"/>
</g>
<g>
	<path class="st33" d="M249,221.2c0,0,1.1,0,1.6,0.5c0,0,0,0.3-0.1,0.5c0,0-0.9-0.4-1.6-0.5C248.8,221.7,248.9,221.3,249,221.2z"/>
</g>
<g>
	<path class="st32" d="M250.2,221.4c0.1,0.2,0,0.5-0.2,0.6c-0.2,0.1-0.5,0-0.6-0.2c-0.1-0.2,0-0.5,0.2-0.6
		C249.9,221.1,250.1,221.2,250.2,221.4z"/>
</g>
<g>
	<g>
		<rect x="290.2" y="163.2" class="st5" width="49.7" height="118.3"/>
	</g>
</g>
<g>
	<g>
		<polygon class="st14" points="309.3,190.5 335,181.1 327,179.3 		"/>
	</g>
	<g>
		<polygon class="st15" points="309.3,190.5 318.4,180 324.5,180.8 		"/>
	</g>
	<g>
		<polygon class="st16" points="329.1,183.3 329.1,186.3 309.3,190.5 		"/>
	</g>
</g>
<g>
	<g>
		<g>
			<polygon class="st20" points="59.2,238.2 66.7,242.3 74.2,230.5 65.1,227.3 			"/>
		</g>
	</g>
	<g>
		<g>
			<polygon class="st34" points="59.7,237.8 66.7,241.7 73.7,230.6 65.2,227.7 			"/>
		</g>
	</g>
	<g>
		<g>
			<path class="st8" d="M57.1,235.8c0,0,1.3-0.6,1.9-0.9c0.6-0.3,2-0.8,2.2-0.9c0.1-0.1,4.4-0.4,4.6-0.6c0.3-0.2,0.5,0.5-0.6,0.8
				c-1.1,0.2-2.6,0.8-2.7,1.3c-0.1,0.4,1.1,0.5,1.2,0.9c0.1,0.4,0,0.3-0.2,0.3c-0.2,0.1-1.4-0.6-2-0.4c-0.6,0.2-1.4-0.1-1.8,0.1
				c-0.4,0.1-2.5,0.8-2.5,0.8L57.1,235.8z"/>
		</g>
	</g>
	<g>
		<g>
			<path class="st35" d="M59.5,236.7l0.7-0.2c0,0-0.8-2-1.2-1.9c-0.4,0.1-0.9,0.2-0.9,0.2L59.5,236.7z"/>
		</g>
	</g>
	<g>
		<g>
			<path class="st36" d="M59.6,237c-0.1-0.1-1.4-2.6-1.4-2.6l-2.9,0.4l1.5,3L59.6,237z"/>
		</g>
	</g>
	<g>
		<g>
			<path class="st8" d="M67,240.8c0,0,1.1-1,1.6-1.4c0.5-0.4,1.5-1.6,1.7-1.7c0.1-0.1,2-4,2.4-4.1c0.3-0.2-0.3-0.7-0.9,0.3
				c-0.7,0.9-1.8,2.2-2.2,2.1c-0.4-0.1-0.1-1.3-0.3-1.5c-0.3-0.3-0.3-0.1-0.4,0.1c-0.1,0.1,0,1.6-0.4,2c-0.4,0.4-0.5,1.4-0.8,1.7
				c-0.3,0.3-1.8,2-1.8,2L67,240.8z"/>
		</g>
	</g>
	<g>
		<g>
			<path class="st37" d="M43.5,293.4c0,0-0.2,1.6-0.3,1.9c0,0.2-2.6-0.1-2.6-0.1l-0.2-2C40.4,293.2,43.2,293.2,43.5,293.4z"/>
		</g>
	</g>
	<g>
		<g>
			<path class="st20" d="M43.3,295.1c0,0,0.8,1,1.6,1.4c0.8,0.4,2,0.6,2.5,1c0.3,0.3,1.2,1.7-2.1,1.7c-3.3,0-4.9,0.2-5.3-0.3
				c-0.4-0.5,0.5-3.9,0.5-3.9S41.4,295.2,43.3,295.1z"/>
		</g>
	</g>
	<g>
		<g>
			<path class="st37" d="M62.1,293.4c0,0-0.2,1.6-0.3,1.9c0,0.2-2.6-0.1-2.6-0.1l-0.2-2C59,293.2,61.8,293.2,62.1,293.4z"/>
		</g>
	</g>
	<g>
		<g>
			<path class="st20" d="M61.9,295.1c0,0,0.8,1,1.6,1.4c0.8,0.4,3.7,0.8,4.2,1.2c0.3,0.3,0.9,1.6-3.8,1.5c-3.3-0.1-4.9,0.2-5.3-0.3
				c-0.4-0.5,0.5-3.9,0.5-3.9S60,295.3,61.9,295.1z"/>
		</g>
	</g>
	<g>
		<g>
			<path class="st20" d="M45.7,251.2c0,0-2.4,3.9-2.3,7.4c0.2,3.5-0.9,7.3-1.3,11c-0.4,4.1-2.1,13.8-2.1,15.9
				c-0.1,2.2,0.3,9.2,0.3,9.2l3.4,0.1c0,0,2.8-16.9,3.5-18.6c0.7-1.7,4.3-14,4.5-15.4C51.7,259.4,45.7,251.2,45.7,251.2z"/>
		</g>
	</g>
	<g>
		<g>
			<path class="st20" d="M58.5,251.8c0,0,1.8,9.6,2.1,11.8c0.2,2.1,0.4,10.4,0.5,11.7c0.1,1.3,0.8,17.6,1.5,19.6h-4.3
				c0,0-3.3-11.8-3.3-17.4c0-5.6-2.5-12.1-4.2-15.8c-1.6-3.7-5.4-3.8-6.4-10.6C44.4,251,57.1,249.6,58.5,251.8z"/>
		</g>
	</g>
	<g>
		<g>
			<path class="st8" d="M49.7,218.6c0,0,3.3-1.2,4.8,1.3s1.4,7.5-0.3,8.1c-1.7,0.6-4.1,0.3-5-1.3c-0.8-1.6-1.6-3.8-1.6-5.3
				C47.7,219.9,48.9,219,49.7,218.6z"/>
		</g>
	</g>
	<g>
		<g>
			<path class="st8" d="M53.9,228.1c0,0-0.1,0.9,0.1,1.3c0.2,0.4-4.2,0.4-4.2,0.4s-0.4-2.4-1.1-4.4C48,223.5,53.9,228.1,53.9,228.1z
				"/>
		</g>
	</g>
	<g>
		<g>
			<path class="st38" d="M48.7,225.5c0,0,0.3,0.5,1.6,0.3c1.3-0.2,2.8-1.9,3.3-2.1c0.5-0.2,0.5-0.5,0.5-0.5l0.3,0.5l0.6,0
				c0,0-0.5-1.5,0.3-2.1c0.8-0.6-0.8-4.9-4.8-3.4c0,0-3.1,0.9-3,2.6C47.5,222.6,48,224.6,48.7,225.5z"/>
		</g>
	</g>
	<g>
		<g>
			<path class="st34" d="M54.2,229.4c0,0,0-0.8-0.4-0.9c-0.4-0.1-4.2-0.4-4.6-0.3v1C49.2,229.1,50.1,229.7,54.2,229.4z"/>
		</g>
	</g>
	<g>
		<g>
			<path class="st8" d="M54,222.6c-0.1-0.3-0.8-1.1-1.1-0.2c-0.3,0.9,0.4,2.1,0.8,2C54.1,224.3,54.2,223.3,54,222.6z"/>
		</g>
	</g>
	<g>
		<g>
			<path class="st21" d="M69.3,239.2C69.3,239.2,69.3,239.2,69.3,239.2C69.3,239.2,69.3,239.2,69.3,239.2z"/>
		</g>
	</g>
	<g>
		<g>
			<path class="st21" d="M42.9,260.5c0,0,2,0.6,5.4,1c3.4,0.4,12-0.1,12.1-0.5c0.1-0.4-1.8-15.1-1.7-15.8c0.1-0.8,0.2-3.5,0.2-3.5
				c0,0.7,0.8,3.8,1.7,5.4c0.3,0.6,1.4,2.5,2,2c2.6-2,6.5-9.8,6.8-9.8c-0.2-0.1-1.9-0.9-2.1-0.9c-0.2-0.1-2.1,1.9-3.2,3.1
				c-0.5,0.5-0.9,0.9-0.9,0.9c-0.3-0.7-1.5-5.3-1.9-6.9c-0.8-3.6-0.7-3.7-0.7-3.7c-2.5-0.8-6.3-2.3-6.3-2.3l-5-0.2
				c0,0-4.6,1-6.4,1.8c-0.2,0.1-0.2,4.1-0.6,5.2l1.5,3.2c0,0,0.9,6.3,1.1,9.1C44.8,249.7,42.9,260.5,42.9,260.5z"/>
		</g>
	</g>
	<g>
		<g>
			<path class="st21" d="M41.9,241.4c0.1,0.4,0.7,0.8,1.1,0.9c0.2,0.1,0.5,0.1,0.8,0.1l0.2,0l0,0l3.4-0.6c0,0,0.8-8.7-4.7-10.8
				C42.6,231,40.7,237.5,41.9,241.4z"/>
		</g>
	</g>
	<g>
		<g>
			<path class="st39" d="M43,242.3L43,242.3c0.2,0.1,0.5,0.1,0.8,0.1l0.2,0l0,0l-0.3-4.4L43,242.3z"/>
		</g>
	</g>
	<g>
		<g>
			<path class="st39" d="M63.1,242.3l0.4,1.8c0,0,0.5-1.8,0.4-2.7C63.5,241.9,63.1,242.3,63.1,242.3z"/>
		</g>
	</g>
	<g>
		<g>
			<path class="st38" d="M48.8,218.9c0,0-4.1,0.4-0.1,6.7L48.8,218.9z"/>
		</g>
	</g>
	<g>
		<g>
			<polygon class="st20" points="70.7,229.9 71.2,229.1 67.7,227.9 67.3,228.7 			"/>
		</g>
	</g>
</g>
<path class="st40" d="M369.4,226c0,0.2-0.2,0.4-0.3,0.4c-0.1,0-0.2-0.2-0.2-0.4c0-0.2,0.2-0.4,0.3-0.4
	C369.4,225.6,369.5,225.8,369.4,226z"/>
<path class="st40" d="M367.1,225.5c0,0.2-0.2,0.4-0.3,0.4c-0.1,0-0.2-0.2-0.2-0.4c0-0.2,0.2-0.4,0.3-0.4
	C367,225.1,367.1,225.3,367.1,225.5z"/>
<path class="st41" d="M368,226c0,0-0.3,0.9-0.7,1.4c0.3,0.2,0.8,0.1,0.8,0.1L368,226z"/>
<path class="st40" d="M367.8,228.5c0.7,0,1.1-0.2,1.1-0.2c0,0,0,0,0,0c0,0-0.1,0-0.1,0c0,0-0.5,0.3-1.2,0.2c0,0-0.1,0-0.1,0
	c0,0,0,0,0,0C367.7,228.5,367.7,228.5,367.8,228.5z"/>
<path class="st40" d="M370.4,224.7C370.5,224.7,370.5,224.7,370.4,224.7c0.1-0.1,0.1-0.2,0.1-0.2c-0.5-0.5-1.1-0.4-1.1-0.4
	c-0.1,0-0.1,0.1-0.1,0.2c0,0.1,0.1,0.1,0.2,0.1c0,0,0.5-0.1,0.9,0.3C370.3,224.7,370.4,224.7,370.4,224.7z"/>
<path class="st40" d="M366.2,224.4c0,0,0.1,0,0.1,0c0.5-0.4,0.9-0.3,0.9-0.3c0.1,0,0.1,0,0.2-0.1c0-0.1,0-0.1-0.1-0.2c0,0,0,0,0,0
	c0,0-0.6-0.2-1.2,0.3C366.1,224.3,366.1,224.3,366.2,224.4C366.1,224.4,366.1,224.4,366.2,224.4z"/>
<path class="st40" d="M236.7,222.8c0.1,0.1,0,0.3-0.1,0.3c-0.1,0-0.2,0-0.3-0.2c-0.1-0.1,0-0.3,0.1-0.3S236.6,222.7,236.7,222.8z"/>
<path class="st40" d="M236,222.5C236,222.5,236,222.5,236,222.5c0.3-0.2,0.6-0.1,0.6-0.1c0,0,0.1,0,0.1,0c0,0,0-0.1,0-0.1
	c0,0,0,0,0,0c0,0-0.3-0.1-0.6,0.2C235.9,222.4,235.9,222.5,236,222.5C236,222.5,236,222.5,236,222.5z"/>
<path class="st40" d="M236.4,225.3c0.3,0.1,0.5,0.1,0.5,0.1c0,0,0,0,0,0c0,0,0,0,0,0C236.9,225.3,236.6,225.4,236.4,225.3
	C236.3,225.2,236.3,225.2,236.4,225.3C236.3,225.2,236.3,225.2,236.4,225.3C236.3,225.3,236.4,225.3,236.4,225.3z"/>
<path class="st40" d="M169.3,103.8c0.1,0.2,0.2,0.4,0,0.5c-0.1,0.1-0.4,0-0.5-0.2c-0.1-0.2-0.2-0.4,0-0.5
	C168.9,103.5,169.1,103.6,169.3,103.8z"/>
<path class="st40" d="M168.1,103.6C168.2,103.6,168.2,103.6,168.1,103.6c0.4-0.4,0.8-0.4,0.8-0.4c0.1,0,0.1,0,0.1-0.1
	c0-0.1,0-0.1-0.1-0.1c0,0,0,0,0,0c0,0-0.5,0-0.9,0.5C168,103.4,168,103.5,168.1,103.6C168.1,103.6,168.1,103.6,168.1,103.6z"/>
<path class="st40" d="M169.3,106.6c0.5,0.3,0.9,0.1,1,0.1c0,0,0,0,0-0.1c0,0,0,0-0.1,0c0,0-0.5,0.2-1-0.2c0,0,0,0-0.1,0
	c0,0,0,0,0,0.1C169.2,106.6,169.2,106.6,169.3,106.6z"/>
<path class="st8" d="M236.9,223.8c0,0,0.2,0.5,0.5,0.7c-0.1,0.2-0.4,0.1-0.4,0.1L236.9,223.8z"/>
</svg>
