<?xml version="1.0" encoding="utf-8"?>
<!-- Generator: Adobe Illustrator 25.4.1, SVG Export Plug-In . SVG Version: 6.00 Build 0)  -->
<svg version="1.1" id="Слой_1" xmlns="http://www.w3.org/2000/svg" xmlns:xlink="http://www.w3.org/1999/xlink" x="0px" y="0px"
	 viewBox="0 0 500 500" style="enable-background:new 0 0 500 500;" xml:space="preserve">
<style type="text/css">
	.st0{fill:#609961;}
	.st1{fill:#C2BEBC;}
	.st2{opacity:0.54;}
	.st3{fill:#285173;}
	.st4{fill:#09431D;}
	.st5{fill:#2F7630;}
	.st6{fill:#0E2D3D;}
	.st7{fill:#1D3B54;}
	.st8{fill:#EEA886;}
	.st9{fill:#EDDAD3;}
	.st10{fill:#D6C5BE;}
	.st11{fill:#FAE6DE;}
	.st12{fill:#EEA987;}
	.st13{fill:#A77860;}
	.st14{fill:#D6D6D6;}
	.st15{fill:#E8E8E8;}
	.st16{fill:#C2C2C2;}
	.st17{fill:#CF8C6C;}
	.st18{fill:#3B3F66;}
	.st19{fill:#555C94;}
	.st20{fill:#292C47;}
	.st21{fill:#323657;}
	.st22{fill:#D9D0C4;}
	.st23{fill:#494F80;}
	.st24{fill:#E8734D;}
	.st25{fill:#FCCCA2;}
	.st26{fill:#C48A6F;}
	.st27{fill:#DB9C7C;}
	.st28{fill:#DEDEDE;}
	.st29{fill:#2F4563;}
	.st30{fill:#354C70;}
	.st31{fill:#2B3B57;}
	.st32{fill:#353A3D;}
	.st33{fill:#E55353;}
	.st34{fill:#E2D2CA;}
	.st35{fill:#EAD8CF;}
	.st36{fill:#DA9B5B;}
	.st37{fill:#424773;}
	.st38{fill:#3A3F47;}
	.st39{fill:#252840;}
	.st40{fill:#0C142B;}
</style>
<g>
	<g>
		
			<rect x="116.5" y="338.4" transform="matrix(0.8379 -0.5459 0.5459 0.8379 -164.7532 124.6949)" class="st0" width="22" height="2.6"/>
	</g>
	<g>
		
			<rect x="116.5" y="350.2" transform="matrix(0.8379 -0.5459 0.5459 0.8379 -171.188 126.6072)" class="st0" width="22" height="2.6"/>
	</g>
	<g>
		
			<rect x="116.5" y="362" transform="matrix(0.838 -0.5457 0.5457 0.838 -177.5721 128.4533)" class="st0" width="22" height="2.6"/>
	</g>
	<g>
		<polygon class="st0" points="119.8,381.7 117.6,380 136.1,368 137.5,370.1 		"/>
	</g>
</g>
<g>
	<g>
		
			<rect x="117.9" y="326.7" transform="matrix(0.8379 -0.5459 0.5459 0.8379 -158.3464 122.7962)" class="st0" width="19.3" height="2.6"/>
	</g>
	<g>
		
			<rect x="117.9" y="291" transform="matrix(0.8378 -0.5461 0.5461 0.8378 -138.909 117.0681)" class="st0" width="19.3" height="2.6"/>
	</g>
	<g>
		
			<rect x="117.9" y="255.3" transform="matrix(0.8379 -0.5459 0.5459 0.8379 -119.4011 111.2331)" class="st0" width="19.3" height="2.6"/>
	</g>
	<g>
		
			<rect x="117.9" y="219.6" transform="matrix(0.8379 -0.5459 0.5459 0.8379 -99.9261 105.4485)" class="st0" width="19.3" height="2.6"/>
	</g>
	<g>
		
			<rect x="117.9" y="184" transform="matrix(0.8378 -0.546 0.546 0.8378 -80.4585 99.6815)" class="st0" width="19.3" height="2.6"/>
	</g>
	<g>
		
			<rect x="117.9" y="148.3" transform="matrix(0.8378 -0.546 0.546 0.8378 -60.9811 93.8954)" class="st0" width="19.3" height="2.6"/>
	</g>
	<g>
		
			<rect x="117.9" y="112.6" transform="matrix(0.8378 -0.546 0.546 0.8378 -41.5038 88.1098)" class="st0" width="19.3" height="2.6"/>
	</g>
</g>
<g>
	<path class="st1" d="M395.4,279.2l-0.1-0.8c0,0,1.7-0.3,4.3-1.1l0.2,0.8C397.2,278.9,395.5,279.2,395.4,279.2z M404.1,276.7
		l-0.3-0.8c1.4-0.5,2.8-1.1,4.1-1.7l0.3,0.7C406.9,275.5,405.5,276.1,404.1,276.7z M412.3,272.9l-0.4-0.7c1.3-0.7,2.6-1.5,3.8-2.3
		l0.4,0.7C414.9,271.4,413.6,272.2,412.3,272.9z M419.9,268l-0.5-0.6c1.2-0.9,2.3-1.9,3.4-2.8l0.5,0.6
		C422.2,266.1,421.1,267.1,419.9,268z M426.5,262l-0.6-0.6c1-1.1,2-2.2,2.9-3.4l0.6,0.5C428.6,259.7,427.6,260.9,426.5,262z
		 M432.1,254.9l-0.7-0.4c0.8-1.2,1.6-2.5,2.3-3.8l0.7,0.4C433.7,252.4,432.9,253.7,432.1,254.9z M150.7,251.5l-0.7-0.4
		c0.8-1.2,1.6-2.5,2.5-3.7l0.7,0.5C152.3,249.1,151.5,250.3,150.7,251.5z M436.4,247l-0.7-0.3c0.6-1.3,1.1-2.7,1.6-4.1l0.8,0.3
		C437.5,244.2,436.9,245.6,436.4,247z M155.9,244.3l-0.6-0.5c0.9-1.2,1.9-2.3,2.9-3.5l0.6,0.5C157.8,242,156.8,243.1,155.9,244.3z
		 M439.2,238.5l-0.8-0.2c0.3-1.4,0.7-2.9,0.9-4.3l0.8,0.1C439.9,235.6,439.6,237.1,439.2,238.5z M161.8,237.6l-0.6-0.6
		c1-1.1,2.1-2.2,3.2-3.2l0.6,0.6C163.9,235.4,162.8,236.5,161.8,237.6z M168.2,231.4l-0.5-0.6c1.1-1,2.3-2,3.5-2.9l0.5,0.6
		C170.5,229.5,169.3,230.4,168.2,231.4z M440.7,229.6l-0.8-0.1c0.1-1.4,0.2-2.9,0.3-4.4l0.8,0C441,226.7,440.9,228.2,440.7,229.6z
		 M175.2,225.9l-0.5-0.7c1.2-0.9,2.5-1.7,3.7-2.5l0.4,0.7C177.7,224.2,176.4,225,175.2,225.9z M182.8,221.2l-0.4-0.7
		c1.3-0.7,2.7-1.4,4-2l0.3,0.7C185.4,219.8,184.1,220.5,182.8,221.2z M440.3,220.7c0-1.5-0.1-2.9-0.2-4.4l0.8-0.1
		c0.1,1.5,0.2,3,0.2,4.5L440.3,220.7z M190.8,217.4l-0.3-0.8c1.4-0.6,2.8-1.1,4.2-1.5l0.2,0.8C193.6,216.4,192.2,216.9,190.8,217.4z
		 M247.1,214.8c-1.1,0-2.2,0-3.4,0l0-0.8c1.1,0,2.3,0,3.4,0c0.4,0,0.7,0,1.1,0l0,0.8C247.9,214.8,247.5,214.8,247.1,214.8z
		 M199.2,214.7l-0.2-0.8c1.3-0.3,2.8-0.6,4.5-0.8l0.1,0.8C202,214.1,200.6,214.4,199.2,214.7z M252.7,214.7l0-0.8
		c1.5,0,3-0.1,4.5-0.2l0,0.8C255.7,214.6,254.2,214.6,252.7,214.7z M239.3,214.6c-1.4,0-2.9-0.1-4.5-0.2l0-0.8
		c1.6,0.1,3.1,0.1,4.5,0.2L239.3,214.6z M230.3,214.3c-1.2-0.1-2.3-0.1-3.4-0.2l-1-0.1l0-0.8l1,0.1c1.1,0.1,2.3,0.1,3.4,0.2
		L230.3,214.3z M261.6,214.2l-0.1-0.8c1.5-0.1,3-0.3,4.4-0.4l0.1,0.8C264.7,213.9,263.1,214.1,261.6,214.2z M221.4,213.8
		c-1.7-0.1-3.1-0.1-4.5-0.2l0-0.8c1.3,0,2.8,0.1,4.5,0.2L221.4,213.8z M208,213.6l0-0.8c1.2-0.1,2.5-0.1,3.9-0.1c0.2,0,0.4,0,0.5,0
		l0,0.8c-0.2,0-0.4,0-0.5,0C210.5,213.5,209.2,213.6,208,213.6z M270.6,213.2l-0.1-0.8c1.5-0.2,3-0.5,4.4-0.7l0.2,0.8
		C273.5,212.7,272,212.9,270.6,213.2z M439.6,211.8c-0.2-1.3-0.3-2.7-0.6-4c0-0.1,0-0.3-0.1-0.4l0.8-0.1c0,0.1,0,0.3,0.1,0.4
		c0.2,1.3,0.4,2.7,0.6,4L439.6,211.8z M279.4,211.5l-0.2-0.8c1.5-0.3,2.9-0.7,4.3-1.1l0.2,0.8C282.3,210.8,280.8,211.2,279.4,211.5z
		 M288,209.1l-0.2-0.8c1.4-0.5,2.8-0.9,4.2-1.4l0.3,0.8C290.9,208.2,289.4,208.7,288,209.1z M296.4,206l-0.3-0.7
		c1.4-0.6,2.7-1.2,4.1-1.8l0.3,0.7C299.2,204.8,297.8,205.5,296.4,206z M438.2,203c-0.3-1.5-0.7-2.9-1.1-4.3l0.8-0.2
		c0.4,1.4,0.8,2.9,1.1,4.4L438.2,203z M304.6,202.2l-0.4-0.7c1.3-0.7,2.6-1.4,3.9-2.2l0.4,0.7C307.2,200.8,305.9,201.5,304.6,202.2z
		 M312.3,197.7l-0.4-0.7c1.2-0.8,2.5-1.6,3.7-2.5l0.5,0.7C314.8,196,313.5,196.8,312.3,197.7z M435.7,194.5
		c-0.5-1.4-1.1-2.8-1.7-4.1l0.7-0.3c0.6,1.3,1.2,2.7,1.7,4.2L435.7,194.5z M319.6,192.4l-0.5-0.6c1.2-0.9,2.3-1.9,3.5-2.8l0.5,0.6
		C321.9,190.6,320.7,191.5,319.6,192.4z M326.4,186.6l-0.6-0.6l0.1-0.1c1-1,2.1-1.9,3.3-2.8l0.5,0.6c-1.1,0.9-2.2,1.9-3.2,2.8
		L326.4,186.6z M431.9,186.5c-0.7-1.3-1.5-2.5-2.4-3.7l0.7-0.5c0.8,1.2,1.7,2.5,2.4,3.8L431.9,186.5z M333.3,181l-0.5-0.7
		c1.2-0.9,2.4-1.7,3.7-2.6l0.4,0.7C335.7,179.2,334.4,180.1,333.3,181z M426.9,179.2c-1-1.1-2-2.2-3-3.2l0.6-0.6
		c1.1,1,2.1,2.1,3.1,3.3L426.9,179.2z M340.7,176.1l-0.4-0.7c1.3-0.8,2.6-1.5,3.9-2.2l0.4,0.7C343.3,174.6,342,175.3,340.7,176.1z
		 M420.5,173.1c-1.2-0.9-2.4-1.8-3.6-2.5l0.4-0.7c1.3,0.8,2.5,1.7,3.7,2.6L420.5,173.1z M348.6,171.9l-0.3-0.7
		c1.3-0.6,2.7-1.3,4.1-1.8l0.3,0.7C351.3,170.6,349.9,171.2,348.6,171.9z M356.8,168.4l-0.3-0.8c1.4-0.5,2.8-1,4.2-1.5l0.2,0.8
		C359.6,167.4,358.1,167.9,356.8,168.4z M413,168.4c-1.3-0.7-2.7-1.3-4-1.8l0.3-0.8c1.4,0.6,2.8,1.2,4.1,1.8L413,168.4z
		 M365.2,165.7l-0.2-0.8c1.4-0.4,2.9-0.7,4.4-1.1l0.2,0.8C368.1,165,366.7,165.4,365.2,165.7z M404.8,165.2
		c-1.4-0.4-2.8-0.8-4.3-1.1l0.2-0.8c1.5,0.3,2.9,0.7,4.4,1.1L404.8,165.2z M373.9,163.9l-0.1-0.8c1.5-0.2,3-0.5,4.4-0.6l0.1,0.8
		C376.9,163.4,375.4,163.6,373.9,163.9z M396.1,163.3c-1.4-0.2-2.9-0.3-4.4-0.4l0.1-0.8c1.5,0.1,3,0.2,4.5,0.4L396.1,163.3z
		 M382.8,162.9l0-0.8c1.4-0.1,2.9-0.1,4.3-0.1l0.2,0l0,0.8H387C385.6,162.7,384.2,162.8,382.8,162.9z"/>
</g>
<g>
	<path class="st1" d="M65.8,288.9c-0.7-0.5-1.4-1.1-2.1-1.7l0.6-0.6c0.7,0.6,1.3,1.2,2,1.7L65.8,288.9z M60.7,283.8
		c-0.9-1.2-1.8-2.4-2.6-3.7l0.7-0.4c0.8,1.3,1.6,2.5,2.5,3.6L60.7,283.8z M259.2,282.4l-0.8-0.2c0,0,0.4-1.6,1.1-4.3l0.8,0.2
		C259.7,280.7,259.2,282.3,259.2,282.4z M56,276.1c-0.6-1.4-1.2-2.8-1.7-4.2l0.8-0.3c0.5,1.4,1,2.8,1.6,4.1L56,276.1z M261.2,273.6
		l-0.8-0.2c0.3-1.4,0.5-2.9,0.8-4.4l0.8,0.1C261.8,270.7,261.5,272.1,261.2,273.6z M53.2,267.6c-0.3-1.5-0.5-3-0.6-4.5l0.8-0.1
		c0.1,1.4,0.3,2.9,0.6,4.4L53.2,267.6z M262.7,264.8l-0.8-0.1c0.2-1.5,0.4-3,0.6-4.4l0.8,0.1C263.1,261.8,262.9,263.3,262.7,264.8z
		 M53.3,258.6l-0.8-0.1c0.1-1.5,0.3-3,0.7-4.5l0.8,0.2C53.6,255.7,53.4,257.1,53.3,258.6z M263.7,255.8l-0.8-0.1
		c0.1-1.5,0.2-3,0.3-4.4l0.8,0C264,252.8,263.8,254.3,263.7,255.8z M55.4,250.1l-0.7-0.3c0.6-1.4,1.3-2.7,2.2-4l0.7,0.5
		C56.7,247.5,55.9,248.8,55.4,250.1z M264.2,246.9l-0.8,0c0-1.1,0-2.2,0-3.2c0-0.4,0-0.8,0-1.2l0.8,0c0,0.4,0,0.8,0,1.2
		C264.3,244.7,264.2,245.8,264.2,246.9z M60.3,242.9l-0.6-0.6c1-1,2.2-2,3.4-3l0.5,0.7C62.4,240.9,61.3,241.9,60.3,242.9z
		 M263.3,238c-0.1-1.5-0.2-3-0.3-4.4l0.8-0.1c0.1,1.5,0.2,3,0.3,4.5L263.3,238z M67.3,237.7L67,237c1.3-0.8,2.7-1.4,4.1-2l0.3,0.8
		C70,236.3,68.7,236.9,67.3,237.7z M75.5,234.3l-0.2-0.8c1.4-0.4,2.9-0.7,4.4-0.9l0.1,0.8C78.3,233.6,76.9,233.9,75.5,234.3z
		 M97.6,233.4c-1.5,0-3.1-0.1-4.5-0.1l0-0.8c1.4,0.1,2.9,0.1,4.5,0.1L97.6,233.4z M102.1,233.3l0-0.8c1.5-0.1,3-0.2,4.4-0.4l0.1,0.8
		C105.1,233.1,103.7,233.2,102.1,233.3z M84.2,233.1l0-0.8c1.3,0,2.7,0,4.5,0l0,0.8C86.9,233,85.6,233,84.2,233.1z M111,232.1
		l-0.2-0.8c1.4-0.3,2.9-0.7,4.3-1.1l0.2,0.8C113.9,231.4,112.5,231.8,111,232.1z M119.6,229.5l-0.3-0.8c1.3-0.5,2.7-1.1,4.1-1.8
		l0.4,0.7C122.4,228.3,121,228.9,119.6,229.5z M262.5,229.1c-0.2-1.5-0.4-3-0.7-4.4l0.8-0.2c0.3,1.4,0.5,2.9,0.7,4.4L262.5,229.1z
		 M127.7,225.6l-0.4-0.7c0.6-0.4,1.3-0.7,1.9-1.1c0.6-0.4,1.3-0.8,1.9-1.2l0.4,0.7c-0.6,0.4-1.3,0.8-1.9,1.2
		C129,224.9,128.4,225.2,127.7,225.6z M135.3,220.8l-0.5-0.7c1.2-0.8,2.4-1.8,3.5-2.7l0.5,0.6C137.7,219,136.5,219.9,135.3,220.8z
		 M260.8,220.4c-0.4-1.5-0.8-2.9-1.2-4.3l0.8-0.3c0.5,1.4,0.9,2.8,1.2,4.3L260.8,220.4z M142.3,215.2l-0.5-0.6c1-0.9,2.1-1.9,3.3-3
		l0.6,0.6C144.4,213.2,143.3,214.2,142.3,215.2z M258.1,211.9c-0.6-1.4-1.2-2.7-1.9-4l0.7-0.4c0.7,1.3,1.3,2.7,1.9,4.1L258.1,211.9z
		 M148.8,209l-0.6-0.6c0.8-0.8,1.5-1.5,2.3-2.3l0.9-0.9l0.6,0.6l-0.9,0.9C150.3,207.5,149.5,208.2,148.8,209z M254,204
		c-0.8-1.3-1.7-2.5-2.6-3.6l0.6-0.5c0.9,1.2,1.8,2.4,2.6,3.7L254,204z M155.1,202.7l-0.6-0.6c1.2-1.1,2.2-2.2,3.3-3.1l0.5,0.6
		C157.3,200.5,156.3,201.5,155.1,202.7z M248.5,197.1c-1-1-2.1-2-3.3-3l0.5-0.6c1.2,0.9,2.3,2,3.3,3L248.5,197.1z M161.7,196.7
		l-0.5-0.6c1.2-1,2.4-1.9,3.6-2.7l0.5,0.7C164.1,194.9,162.9,195.7,161.7,196.7z M168.9,191.6l-0.4-0.7c1.3-0.8,2.6-1.5,4-2.1
		l0.4,0.7C171.5,190.1,170.2,190.8,168.9,191.6z M241.7,191.6c-1.2-0.8-2.5-1.5-3.9-2.2l0.4-0.7c1.4,0.7,2.7,1.4,3.9,2.2
		L241.7,191.6z M176.9,187.7l-0.3-0.8c1.4-0.5,2.8-1,4.3-1.4l0.2,0.8C179.7,186.7,178.3,187.2,176.9,187.7z M233.7,187.7
		c-1.4-0.5-2.8-1-4.2-1.4l0.2-0.8c1.5,0.4,2.9,0.9,4.3,1.4L233.7,187.7z M225.2,185.4c-1.1-0.2-2.2-0.4-3.4-0.5
		c-0.3,0-0.7-0.1-1-0.1l0.1-0.8c0.3,0,0.7,0.1,1,0.1c1.2,0.1,2.3,0.3,3.4,0.5L225.2,185.4z M185.4,185.2l-0.2-0.8
		c1.4-0.3,2.9-0.6,4.4-0.8l0.1,0.8C188.3,184.7,186.8,184.9,185.4,185.2z M216.4,184.2c-1.5-0.1-3-0.3-4.4-0.4l0.1-0.8
		c1.5,0.1,3,0.2,4.5,0.4L216.4,184.2z M194.2,183.9l-0.1-0.8c1.4-0.1,3-0.2,4.5-0.3l0,0.8C197.1,183.7,195.6,183.8,194.2,183.9z
		 M207.5,183.6c-1.5-0.1-3-0.1-4.4-0.1h0v-0.8h0c1.4,0,2.9,0,4.5,0.1L207.5,183.6z"/>
</g>
<g>
	<path class="st0" d="M283.5,126.2H83.7c-0.2,0-0.4-0.2-0.5-0.4c-0.1-0.2,0-0.5,0.2-0.6l43.9-24.4c0.1-0.1,0.2-0.1,0.3-0.1l156,24.4
		c0.3,0,0.4,0.3,0.4,0.5C284,126,283.8,126.2,283.5,126.2z M85.6,125.2H277l-149.4-23.4L85.6,125.2z"/>
</g>
<g class="st2">
	<path class="st0" d="M324.5,344.9h-12.8v-1.6h12.8V344.9z M298.9,344.9h-12.8v-1.6h12.8V344.9z M273.3,344.9h-12.8v-1.6h12.8V344.9
		z M247.7,344.9h-12.8v-1.6h12.8V344.9z M222.1,344.9h-12.8v-1.6h12.8V344.9z M196.5,344.9h-12.8v-1.6h12.8V344.9z M170.9,344.9
		h-12.8v-1.6h12.8V344.9z M145.3,344.9h-3v-11.4h1.6v9.8h1.4V344.9z M325.3,338h-1.6v-12.8h1.6V338z M143.9,320.7h-1.6v-12.8h1.6
		V320.7z M325.3,312.4h-1.6v-12.8h1.6V312.4z M143.9,295.1h-1.6v-12.8h1.6V295.1z M325.3,286.8h-1.6V274h1.6V286.8z M143.9,269.5
		h-1.6v-12.8h1.6V269.5z M325.3,261.2h-1.6v-12.8h1.6V261.2z M143.9,243.9h-1.6v-12.8h1.6V243.9z M325.3,235.6h-1.6v-12.8h1.6V235.6
		z M143.9,218.3h-1.6v-12.8h1.6V218.3z M325.3,210h-1.6v-12.8h1.6V210z M143.9,192.7h-1.6v-12.8h1.6V192.7z M325.3,184.4h-1.6v-12.8
		h1.6V184.4z M312.8,171.2H300v-1.6h12.8V171.2z M287.2,171.2h-12.8v-1.6h12.8V171.2z M261.6,171.2h-12.8v-1.6h12.8V171.2z
		 M236,171.2h-12.8v-1.6H236V171.2z M210.4,171.2h-12.8v-1.6h12.8V171.2z M184.8,171.2H172v-1.6h12.8V171.2z M159.2,171.2h-12.8
		v-1.6h12.8V171.2z"/>
</g>
<g>
	<path class="st3" d="M391.5,181.1h-47.9c-0.2,0-0.5-0.2-0.5-0.4c0-0.2,0.1-0.5,0.3-0.6l24-10.2c0.1-0.1,0.3-0.1,0.4,0l24,10.2
		c0.2,0.1,0.3,0.3,0.3,0.6C392,180.9,391.7,181.1,391.5,181.1z M346.1,180.1H389l-21.5-9.1L346.1,180.1z"/>
</g>
<g>
	<g>
		<path class="st0" d="M208.6,284.9v96.6h-43.4v-85.3c5.4-1.3,10.9-2.6,16.5-4.1C190.3,290,199.3,287.6,208.6,284.9z"/>
	</g>
</g>
<g>
	<g>
		<path class="st0" d="M267.8,265.9v115.6h-43.4V280.3C238.4,276,253,271.2,267.8,265.9z"/>
	</g>
</g>
<g>
	<g>
		<path class="st0" d="M326.9,241.7v139.8h-43.4V260C297.9,254.5,312.5,248.4,326.9,241.7z"/>
	</g>
</g>
<g>
	<g>
		<path class="st4" d="M149.4,301.8c5.2-1.1,10.4-2.4,15.8-3.6c5.5-1.3,11.2-2.7,16.9-4.2c9-2.3,17.8-4.7,26.5-7.1
			c5.3-1.5,10.6-3,15.8-4.6c14.9-4.5,29.4-9.3,43.4-14.3c5.3-1.9,10.6-3.9,15.8-5.9c13-5,25.5-10.2,37.6-15.6
			c1.9-0.9,3.9-1.8,5.8-2.6c5.3-2.5,10.6-5,15.8-7.5c15.3-7.6,29.8-15.5,43.4-23.8c1-0.6,1.9-1.2,2.9-1.8c1.1-0.7,2.3-1.4,3.4-2.2
			v-2.3c-2.1,1.3-4.2,2.6-6.3,3.9c-14.1,8.6-28.6,16.6-43.4,23.9c-5.2,2.6-10.5,5.1-15.8,7.6c-14.4,6.7-29,12.8-43.4,18.3
			c-5.3,2-10.5,4-15.8,5.9c-14.8,5.3-29.3,10.1-43.4,14.4c-5.3,1.6-10.6,3.2-15.8,4.6c-9.3,2.6-18.3,5.1-26.9,7.3
			c-5.6,1.4-11.1,2.8-16.5,4.1c-5.4,1.3-10.6,2.5-15.8,3.6V301.8z"/>
	</g>
</g>
<g>
	<rect x="342.7" y="179.6" class="st4" width="49.7" height="201.9"/>
</g>
<g class="st2">
	<g>
		<polygon class="st0" points="404.9,381.5 400,381.5 400,379.9 403.3,379.9 403.3,376.6 404.9,376.6 		"/>
	</g>
	<g>
		<path class="st0" d="M391.4,381.5H378v-1.6h13.3V381.5z M364.7,381.5h-13.3v-1.6h13.3V381.5z"/>
	</g>
	<g>
		<polygon class="st0" points="339.6,381.5 334.7,381.5 334.7,376.6 336.3,376.6 336.3,379.9 339.6,379.9 		"/>
	</g>
	<g>
		<path class="st0" d="M336.3,368.5h-1.6v-12.4h1.6V368.5z M336.3,343.7h-1.6v-12.4h1.6V343.7z M336.3,318.9h-1.6v-12.4h1.6V318.9z
			 M336.3,294.1h-1.6v-12.4h1.6V294.1z M336.3,269.3h-1.6v-12.4h1.6V269.3z M336.3,244.5h-1.6V232h1.6V244.5z M336.3,219.6h-1.6
			v-12.4h1.6V219.6z M336.3,194.8h-1.6v-12.4h1.6V194.8z M336.3,170h-1.6v-6.2h1.6V170z"/>
	</g>
	<g>
		<polygon class="st0" points="336.3,159.8 334.7,159.8 334.7,154.8 339.6,154.8 339.6,156.4 336.3,156.4 		"/>
	</g>
	<g>
		<path class="st0" d="M388.2,156.4h-13.3v-1.6h13.3V156.4z M361.6,156.4h-13.3v-1.6h13.3V156.4z"/>
	</g>
	<g>
		<polygon class="st0" points="404.9,159.8 403.3,159.8 403.3,156.4 400,156.4 400,154.8 404.9,154.8 		"/>
	</g>
	<g>
		<path class="st0" d="M404.9,372.6h-1.6v-6.2h1.6V372.6z M404.9,353.9h-1.6v-12.4h1.6V353.9z M404.9,329.1h-1.6v-12.4h1.6V329.1z
			 M404.9,304.3h-1.6v-12.4h1.6V304.3z M404.9,279.5h-1.6v-12.4h1.6V279.5z M404.9,254.7h-1.6v-12.4h1.6V254.7z M404.9,229.9h-1.6
			v-12.4h1.6V229.9z M404.9,205h-1.6v-12.4h1.6V205z M404.9,180.2h-1.6v-12.4h1.6V180.2z"/>
	</g>
</g>
<g>
	<g>
		<g>
			<path class="st5" d="M155.1,267.5c0.1,0.2,0.2,0.4,0.4,0.5l-0.5,0.4l-14.6,9.8l-0.4-0.5l14.6-9.8L155.1,267.5z"/>
		</g>
		<g>
			<path class="st5" d="M207.6,270.3c0,0.2-0.1,0.4-0.1,0.7l-0.7-0.1l-41.7-5l-0.7-0.1c0-0.2,0.1-0.4,0.1-0.7l0.7,0.1l41.7,5
				L207.6,270.3z"/>
		</g>
		<g>
			<path class="st5" d="M248.5,239.2l-0.5,0.4l-30.9,28l-0.5,0.4c-0.1-0.2-0.3-0.3-0.4-0.5l0.5-0.4l30.9-28l0.5-0.4
				C248.2,238.9,248.4,239,248.5,239.2z"/>
		</g>
		<g>
			<path class="st5" d="M299,235.5c0,0.1,0,0.2,0,0.3h-41.9c0-0.1,0-0.2,0-0.3c0-0.1,0-0.2,0-0.3h41.9
				C299,235.3,299,235.4,299,235.5z"/>
		</g>
		<g>
			<path class="st5" d="M335.1,202.3l-26.8,29.2l-0.4,0.5c-0.2-0.2-0.3-0.3-0.5-0.4l0.4-0.5l26.8-29.2L335.1,202.3z"/>
		</g>
	</g>
	<g>
		<g>
			<path class="st5" d="M159.5,259.2c-3.2,0-5.8,2.6-5.8,5.8c0,3.2,2.6,5.8,5.8,5.8c3.2,0,5.8-2.6,5.8-5.8
				C165.3,261.8,162.7,259.2,159.5,259.2z M159.5,270.1c-2.8,0-5.1-2.3-5.1-5.1c0-2.8,2.3-5.1,5.1-5.1c2.8,0,5.1,2.3,5.1,5.1
				C164.6,267.8,162.4,270.1,159.5,270.1z"/>
		</g>
	</g>
	<g>
		<g>
			<path class="st5" d="M212.6,265.5c-3.2,0-5.8,2.6-5.8,5.8c0,3.2,2.6,5.8,5.8,5.8c3.2,0,5.8-2.6,5.8-5.8
				C218.4,268.1,215.8,265.5,212.6,265.5z M212.6,276.4c-2.8,0-5.1-2.3-5.1-5.1c0-2.8,2.3-5.1,5.1-5.1c2.8,0,5.1,2.3,5.1,5.1
				C217.7,274.1,215.5,276.4,212.6,276.4z"/>
		</g>
	</g>
	<g>
		<g>
			<path class="st5" d="M252.1,229.7c-3.2,0-5.8,2.6-5.8,5.8c0,3.2,2.6,5.8,5.8,5.8c3.2,0,5.8-2.6,5.8-5.8
				C257.9,232.3,255.3,229.7,252.1,229.7z M252.1,240.6c-2.8,0-5.1-2.3-5.1-5.1c0-2.8,2.3-5.1,5.1-5.1c2.8,0,5.1,2.3,5.1,5.1
				C257.2,238.3,254.9,240.6,252.1,240.6z"/>
		</g>
	</g>
	<g>
		<g>
			<path class="st5" d="M304.2,229.7c-3.2,0-5.8,2.6-5.8,5.8c0,3.2,2.6,5.8,5.8,5.8c3.2,0,5.8-2.6,5.8-5.8
				C309.9,232.3,307.3,229.7,304.2,229.7z M304.2,240.6c-2.8,0-5.1-2.3-5.1-5.1c0-2.8,2.3-5.1,5.1-5.1c2.8,0,5.1,2.3,5.1,5.1
				C309.3,238.3,307,240.6,304.2,240.6z"/>
		</g>
	</g>
</g>
<g>
	<path class="st5" d="M136.9,334.5h-18.6V100h18.6V334.5z M120.7,332h13.8V102.5h-13.8V332z"/>
</g>
<g>
	<path class="st3" d="M367.5,172.3c-2.1,0-3.8-1.7-3.8-3.8h1c0,1.5,1.2,2.8,2.8,2.8s2.8-1.2,2.8-2.8c0-1.5-1.2-2.8-2.8-2.8H367
		v-24.1h1v23.2c1.9,0.2,3.3,1.8,3.3,3.8C371.3,170.5,369.6,172.3,367.5,172.3z"/>
</g>
<g>
	<g>
		
			<rect x="91" y="123.1" transform="matrix(0.7399 -0.6727 0.6727 0.7399 -66.1509 96.9376)" class="st0" width="2.6" height="21.9"/>
	</g>
	<g>
		
			<rect x="140.8" y="123.1" transform="matrix(0.7399 -0.6727 0.6727 0.7399 -53.2047 130.4272)" class="st0" width="2.6" height="21.9"/>
	</g>
	<g>
		
			<rect x="190.6" y="123.1" transform="matrix(0.7399 -0.6727 0.6727 0.7399 -40.2576 163.914)" class="st0" width="2.6" height="21.9"/>
	</g>
	<g>
		
			<rect x="240.3" y="123.1" transform="matrix(0.7399 -0.6727 0.6727 0.7399 -27.3116 197.3961)" class="st0" width="2.6" height="21.9"/>
	</g>
	<g>
		
			<rect x="290.1" y="123.1" transform="matrix(0.7399 -0.6727 0.6727 0.7399 -14.3668 230.877)" class="st0" width="2.6" height="21.9"/>
	</g>
	<g>
		
			<rect x="339.9" y="123.1" transform="matrix(0.7399 -0.6727 0.6727 0.7399 -1.4209 264.3625)" class="st0" width="2.6" height="21.9"/>
	</g>
	<g>
		
			<rect x="389.7" y="123.1" transform="matrix(0.7399 -0.6727 0.6727 0.7399 11.536 297.8732)" class="st0" width="2.6" height="21.9"/>
	</g>
</g>
<g>
	<path class="st5" d="M399.5,143.6H82.4v-19.1h317.1V143.6z M84.9,141.1h312.2v-14.2H84.9V141.1z"/>
</g>
<g>
	<g>
		<rect x="109.6" y="381.1" class="st4" width="304.7" height="0.5"/>
	</g>
</g>
<g>
	<path class="st5" d="M138,382h-20.9v-50H138V382z M119.5,379.5h16v-45.1h-16V379.5z"/>
</g>
<g>
	<g>
		<g>
			<g>
				<path class="st6" d="M419.9,318.6c0,0-2.7,1.3-2.1,5c0.7,3.6,1,4.1,0.2,5.6c-0.8,1.4-1.7,7.5-1,8.7c0.7,1.2,8.4-5.1,9.5-10.3
					c1.1-5.2-0.7-7.5-1.3-8.4C424.7,318.2,422.3,317.3,419.9,318.6z"/>
			</g>
		</g>
	</g>
</g>
<g>
	<g>
		<path class="st3" d="M419.1,331.7c0,0-1.4,0.3-2.2,1.4c-0.5,0.8-0.6,2.6-0.7,2.9c-0.1,0.3-1.1,4.1-1.1,4.1l2.9,1.9L419.1,331.7z"
			/>
	</g>
</g>
<g>
	<g>
		<path class="st7" d="M408.4,396.7c0,0-1.9,2.6-1.6,3c0.3,0.4,2.3,0.5,3.5,0c1.2-0.5,1.2-3.5,1.8-4.7c0.2-0.5-0.3-2.1-1-2.2
			c-0.7-0.1-1.4,0.2-1.4,0.2S410.3,394.7,408.4,396.7z"/>
	</g>
</g>
<g>
	<g>
		<g>
			<path class="st8" d="M409.6,392.8c0,0-0.4,1.1-0.5,2.1c-0.1,0.9-1.4,2.7-1.3,2.9c0.1,0.2,1.6,0.4,2.3-0.2c0.6-0.6,1-2.3,1.2-3.4
				c0.1-1,0.3-1.4,0.3-1.4S410.2,392.2,409.6,392.8z"/>
		</g>
	</g>
</g>
<g>
	<g>
		<path class="st7" d="M424.9,396.7c0,0-1.8,2.5-1.6,2.9c0.3,0.4,2.3,0.5,3.5,0c1.2-0.5,1.2-3.5,1.8-4.7c0.2-0.5-0.3-2.1-1-2.2
			c-0.7-0.1-1.5,0.2-1.5,0.2S426.8,394.7,424.9,396.7z"/>
	</g>
</g>
<g>
	<g>
		<g>
			<path class="st8" d="M426.1,392.9c0,0-0.1,1.2-0.4,2c-0.2,0.8-1.5,2.7-1.4,3c0.1,0.2,1.6,0.4,2.3-0.2c0.6-0.6,1.1-2.3,1.2-3.4
				c0.1-1-0.1-1.7-0.1-1.7S426.7,392.3,426.1,392.9z"/>
		</g>
	</g>
</g>
<g>
	<g>
		<g>
			<path class="st8" d="M417,351.3c0,0-1.6,7.6-2,9.5c-0.4,1.9-1.4,11.1-1.5,12.7c-0.1,1.6-1.7,7.5-1.6,8c0.1,0.6-2.4,11.8-2.4,11.8
				s0.8,0.7,1.7,0.1c0.4-0.3,5.3-10.5,5.3-13.3c0-3.9,2.9-8.9,3.2-9.8c3.4-8.1,2.8-10.5,3.2-11c0.4-0.5,0.5,0.3,0.7,1.5
				c0.3,1.2,0.8,11.2,1.2,12.4c0.3,1.3,0.1,5.6,0.3,7.7c0.2,2.2,1,12,1,12s0.6,1,1.5,0c0.2-0.2,1.5-10.9,1.6-13.5
				c0-2.6,0.1-6.1,0.1-7.2c0.7-10.7,2.4-12.2-0.3-19.8C424.1,338.2,417,351.3,417,351.3z"/>
		</g>
	</g>
</g>
<g>
	<g>
		<path class="st7" d="M427.9,349.2c0,0,4.6,6.5,2.6,20.3c0,0-11,1.5-16.9-1.7c0,0,2.4-14.2,3.3-16.4
			C417.9,349.1,427.9,349.2,427.9,349.2z"/>
	</g>
</g>
<g>
	<g>
		<polygon class="st7" points="412.1,394.7 412.1,397.3 411.7,397.3 411.7,395.3 		"/>
	</g>
</g>
<g>
	<g>
		<polygon class="st7" points="428.6,394.7 428.6,397.3 428.3,397.3 428.3,395.3 		"/>
	</g>
</g>
<g>
	<g>
		<path class="st9" d="M421.7,330.8c0,0-1.7,0.8-2.3,0.9c-0.6,0.1-2.9,3.1-3.3,4.2c-0.4,1.1,0,2.7,0.8,4.6c0.8,1.9,0,2.6,0.4,4.5
			s0.7,6,0.6,7.1c-0.1,1.1,9.6,1.3,11.8-0.7c0,0-2.2-3.3-2.5-3.8c-0.3-0.5,0-3.1,0.2-3.7c0.3-0.7,2-6.3,2-6.3s1.4-4.3,0.1-5.3
			c-1.1-0.9-4.2-1.2-4.7-1.4C424.4,330.7,422.8,330.6,421.7,330.8z"/>
	</g>
</g>
<g>
	<g>
		<path class="st10" d="M421.2,334.6l-1-1.2l0.9-3.2C421,330.2,421.3,332,421.2,334.6z"/>
	</g>
</g>
<g>
	<g>
		<path class="st8" d="M420.9,328.8c0,0,0,0.4,0.1,1c0,0.3,0.1,0.6,0.1,0.9c0.1,0.9,0.1,1.8,0.1,2.3c0,0,1.8,1.8,3.8-2.1
			c0,0-0.8-1.6-0.2-3.8C425.4,325,420.9,328.8,420.9,328.8z"/>
	</g>
</g>
<g>
	<g>
		<polygon class="st8" points="421.2,333 421.2,334.6 423.2,333.1 		"/>
	</g>
</g>
<g>
	<g>
		<polygon class="st10" points="421.2,334.6 422,333.5 424.9,330.7 425.8,331.6 		"/>
	</g>
</g>
<g>
	<g>
		<path class="st3" d="M425.3,331c0,0-2.4,3.6-2.5,5.2c-0.1,1.6,0.9,13.6,1.7,17.4c0.8,3.8,6.6-0.4,6.6-0.4s-3.9-6.3-2.4-11.4
			c1.5-5.1,2-7.1,2-7.1s-0.5-2.8-2.3-3.2C426.7,331.1,425.3,331,425.3,331z"/>
	</g>
</g>
<g>
	<g>
		<path class="st3" d="M415.9,336.4c0,0-0.4,1.5,1.3,4.9c0,0,0,4.3-0.1,5.7c0,1.4-1,6.2-1,6.2l2.3,1.2c0.3,0.2,0.8-0.1,0.7-0.5
			c-0.5-3.9-2-18.6,1.3-22.6l-1.3,0.4C419.1,331.7,416.7,333.7,415.9,336.4z"/>
	</g>
</g>
<g>
	<g>
		<polygon class="st11" points="420.1,333.4 418.8,333.7 421,330.2 		"/>
	</g>
</g>
<g>
	<g>
		<polygon class="st11" points="422,333.5 423.2,335.1 425.6,331 424.9,330.7 		"/>
	</g>
</g>
<g>
	
		<rect x="416" y="341.5" transform="matrix(0.621 -0.7838 0.7838 0.621 -109.2416 457.5618)" class="st5" width="5.1" height="0.4"/>
</g>
<g>
	<path class="st8" d="M420.5,343.4c0,0-0.3,0-0.5-0.1c-0.3-0.3-0.5-0.9-1.1-0.9c-0.6,0-0.9,2-0.7,2.3c0.2,0.4,1,0.5,2.2,0.3
		C421.6,344.8,420.5,343.4,420.5,343.4z"/>
</g>
<g>
	<path class="st8" d="M419.1,342.4c0,0-0.9-0.3-1.9-0.5c-0.9-0.2-1.9-0.3-2-0.1c-0.1,0.2,0.9,0.3,1.7,0.6c0.8,0.2,0.6,0.3,0.6,0.3
		s0.1,0-0.9-0.1c-1-0.1-2-0.1-2.1,0.1c0,0.1,0,0.2,0.3,0.2c-0.2,0-0.2,0-0.2,0.1c0,0.4,1.4,0.8,2,0.9c-0.4-0.1-0.8-0.1-0.6,0.2
		c0.2,0.3,2.2,0.7,2.9,1C419.7,345.4,419.1,342.4,419.1,342.4z"/>
</g>
<g>
	<path class="st3" d="M428,331.6c0.6-0.2,2.4,0.4,2.7,2.2c0.3,1.8,0.4,3.8,0.7,4.8c0.3,1,1,5.3,0.4,5.6s-1.7,0.7-3.3,0.7
		c-1.6,0-8,0.3-8,0.3l-0.4-2.3c0,0,2.4-0.1,3.7-0.3c1.1-0.2,2.6-0.6,4.5-0.8c0,0-0.4-2.7-0.7-3.4C427.3,337.6,425.3,332.4,428,331.6
		z"/>
</g>
<g>
	<polygon class="st8" points="416.4,343.1 416.1,343.8 416.8,343.4 	"/>
</g>
<g>
	<g>
		<polygon class="st0" points="419.9,346.9 413.5,345.6 408.8,335.5 415.6,336.2 		"/>
	</g>
</g>
<g>
	<g>
		<g>
			<path class="st8" d="M412.7,343.9c0,0-0.3-0.3-0.7-0.8c-0.3-0.5-1.3-2.2-1.2-2.3c0.1-0.1,1.6-0.1,1.9,0.1
				c0.3,0.2-0.3,0.3-0.3,0.3s0.8,0.1,0.8,0.3c-0.1,0.2-0.6,0.2-0.6,0.2s0.7,0.1,0.6,0.3c-0.1,0.2-0.4,0.2-0.4,0.2s0.6,0.1,0.5,0.3
				c-0.1,0.2-1,0.4-0.9,0.6C412.6,343.4,412.7,343.9,412.7,343.9z"/>
		</g>
	</g>
</g>
<g>
	<g>
		<g>
			<g>
				<path class="st12" d="M420.3,319c0,0-4,1.2-1.8,8.1c2.2,6.9,7.6-0.8,7-5C424.9,317.9,420.3,319,420.3,319z"/>
			</g>
		</g>
	</g>
</g>
<g>
	<g>
		<g>
			<g>
				<path class="st6" d="M418.1,323c0,0,2,1.9,5.3,2.2c0,0,1.3,1.5,1.4,2.1c0,0,3-5-0.7-8C420.4,316.2,416.7,321.7,418.1,323z"/>
			</g>
		</g>
	</g>
</g>
<g>
	<g>
		<g>
			<g>
				<path class="st12" d="M423.3,325.3c0-0.5,0.3-1.6,1.1-1.3c0.7,0.3,0,2.6-0.5,2.5C423.8,326.5,423.2,326.5,423.3,325.3z"/>
			</g>
		</g>
	</g>
</g>
<g>
	<path class="st13" d="M421,329.8c0,0.3,0.1,0.6,0.1,0.9l0,0c2.3-1.1,2.7-2.8,2.7-2.8C422.1,330,421,329.8,421,329.8z"/>
</g>
<g>
	<g>
		<polygon class="st14" points="84.1,303.4 64.4,296.1 70.6,294.7 		"/>
	</g>
	<g>
		<polygon class="st15" points="84.1,303.4 77.1,295.3 72.4,295.9 		"/>
	</g>
	<g>
		<polygon class="st16" points="68.9,297.8 68.9,300.1 84.1,303.4 		"/>
	</g>
</g>
<g>
	<polygon class="st5" points="447.5,305.4 430.2,305.4 430.2,318 430.2,320.6 432.8,318 447.5,318 	"/>
</g>
<g>
	<path class="st8" d="M230.9,210.8c0,0,0.1-1.2,0.1-1.4c0-0.2,0.3-0.6,0.7-1c0.4-0.4,1.2-0.8,1.3-0.8c0.1,0,0.2,0,0.4,0.2
		c0.2,0.2,0.2,0.4,0.2,0.4s0.3,0.1,0.4,0.4c0,0,0.3,0.1,0.3,0.5c0,0,0.3,0.1,0.3,0.4c0,0-0.3,0.4-0.4,0.6c-0.1,0.2-0.8,1-1.6,1.7
		C232.6,211.8,231.6,212.1,230.9,210.8z"/>
</g>
<g>
	<path class="st17" d="M232.3,209.7c0,0,0.2,0.6,0.2,0.8c0,0.2,1.4,0.1,1.4,0.1S233,209.4,232.3,209.7z"/>
</g>
<g>
	<path class="st8" d="M232.6,211.8c0,0-0.2,0.4-0.2,0.5c0,0.1-1.9-0.4-1.4-1.5C231.5,209.7,232.6,211.8,232.6,211.8z"/>
</g>
<g>
	<polygon class="st18" points="228.7,274.3 228.6,272.4 231.1,272 231.3,273.6 	"/>
</g>
<g>
	<polygon class="st19" points="247.5,267.5 248,268.4 250.4,267 249.7,265.7 	"/>
</g>
<g>
	<g>
		<path class="st5" d="M232.9,243.2c0,0,0.3,2.2,0.7,4.6c0.1,0.4,0.1,0.8,0.2,1.3c0.3,2.3,0.6,4.6,0.6,5c0,1.1-2.8,18-2.8,18
			s-3.2,0.9-3.5,0.5c0,0,1.1-17.7,0.9-18.2c-0.2-0.5-4.9-16.6-4.9-16.6S232.4,242.3,232.9,243.2z"/>
	</g>
</g>
<g>
	<g>
		<path class="st5" d="M233.5,233.4c0,0,8.5,14.4,9.1,15.5c0.7,1.1,7.4,16.6,7.4,16.6s-0.2,1.6-2.9,2c0,0-9.4-15.9-9.9-16.3
			c-1.9-1.8-11.2-10.7-12.2-12c-1.1-1.3-1.5-3.2-1.5-3.2S226.7,232.3,233.5,233.4z"/>
	</g>
</g>
<g>
	<g>
		<path class="st20" d="M225.2,213.8c0,0,2.5,2.8,2.8,2.6c0.3-0.2,2.5-6,2.5-6s2.5,1.6,2.4,1.9c-0.2,0.5-2.1,9.5-2.8,9.6
			c-0.7,0.1-5-3.5-5-3.5S223.7,215,225.2,213.8z"/>
	</g>
</g>
<g>
	<g>
		<path class="st21" d="M217.3,209.4c0,0,4.4,1.4,5.7,2.1c1.3,0.7,5.5,4.1,5.7,5.5c1,5.2,2.2,9.6,3.3,13c1,3,2.2,3.4,1.7,3.7
			c-0.7,0.3-8.2,6.5-9.4,7.3c0,0-2.8-10.7-2.8-12.1C221.5,227.6,215.3,215.6,217.3,209.4z"/>
	</g>
</g>
<g>
	<path class="st22" d="M237.7,196.7l2.1,3.6l2.1,3.6c0,0-4.9,0.2-9.6,2.9l-0.9-1.6l-0.9-1.6C235.2,200.9,237.7,196.7,237.7,196.7z"
		/>
</g>
<g>
	<path class="st4" d="M248,268.4c0,0,1.8-1,1.8-1.1c0-0.1,0.2-1,0.5-1c0.3,0,0.7,0.9,1,1c0.3,0.1,3.2,0.8,3.5,1
		c0.4,0.2,2-0.6,2.4-0.2c0.4,0.4,0.8,1.6-1.9,2.2c-2.7,0.6-5.5,2.1-6.1,2C248.6,272.1,248.1,269.2,248,268.4z"/>
</g>
<g>
	<path class="st4" d="M228.6,274.3c0,0,1.9-0.7,2-0.8c0.1-0.1,0.3-0.9,0.7-0.9c0.3,0.1,0.5,1,0.8,1.1c0.3,0.1,3,1.3,3.3,1.5
		c0.3,0.2,2.1-0.3,2.4,0.2c0.3,0.5,0.5,1.7-2.2,1.9c-2.7,0.2-5.7,1.2-6.4,1C228.7,278.1,228.6,275.1,228.6,274.3z"/>
</g>
<g>
	<g>
		<path class="st12" d="M231.8,234.8c0,0,0.6,0.9,1,0.9c0.4,0.1-1,2.8-1,2.8s-1.5-1.6-1.6-1.8C230.2,236.6,231.8,234.8,231.8,234.8z
			"/>
	</g>
</g>
<g>
	<g>
		<path class="st23" d="M217.2,214.1c0,0,1.6,12.6,1.9,13.9c0.2,1.2,11.5,9.5,11.5,9.5l2-2.3c0,0-9.8-8.8-10-9.3
			c-0.2-0.5-0.6-11-0.6-11s0.5-2.5-2-2.7C217.4,211.8,217.2,214.1,217.2,214.1z"/>
	</g>
</g>
<g>
	<path class="st24" d="M233.5,235.1c0,0,2.2,3.7,2.6,5c0.4,1.2-5.3-0.3-5.5-1.6L233.5,235.1z"/>
</g>
<g>
	<g>
		<g>
			<path class="st8" d="M217.3,209.4c0,0,8.7,4.7,8,4c-2.3-2.2-3.4-2.3-3.6-2.9c-0.1-0.4-0.4-1.6-0.5-2c-0.2-0.7-0.4-1.3-0.4-1.3
				s-4.6-3.3-4-1.8C217.5,206.9,217.3,209.4,217.3,209.4z"/>
		</g>
	</g>
</g>
<g>
	<g>
		<g>
			<path class="st8" d="M220.4,199.3c0,0,1.6,1.7,1.7,2.2c0.2,0.5,0.2,0.9,0.4,1.4c0.3,0.5,1.2,1.6,1.2,1.9c0.1,0.4-0.8,0.5-0.7,1.2
				c0.1,0.7-0.1,2.1-0.4,2.3c-0.8,0.3-4.2,0.2-4.6-0.4c-0.4-0.6-2.7-3.6-3.3-4.2c-0.6-0.5,3.7-6.1,4.6-5.2
				C220.4,199.3,220.4,199.3,220.4,199.3z"/>
		</g>
	</g>
</g>
<g>
	<path class="st25" d="M213.4,203.4c-1-1.6,0.9-2.5,0.9-2.5s0.8-1.9,3.9-2.8c3.1-0.9,4.1,3.3,4.1,3.3s-2.2,0.4-3.1,1
		c0,0,0.5,1.8,0.7,2.1l-1.2,0.3c0,0-0.4-1.6-1-1.4c-0.6,0.1,0.4,3.5-0.4,4.6c0,0-0.1-0.2-0.3-0.4l0,0l0,0c-0.3-0.3-0.9-0.8-1.4-1.4
		C214.8,205.3,213.9,204.2,213.4,203.4z"/>
</g>
<g>
	<g>
		<g>
			<path class="st8" d="M218.6,203.5c0,0-0.8-1-1.6,0.1c-0.6,0.8,0.9,2.5,1.6,2.2C219.4,205.6,219.3,204.4,218.6,203.5z"/>
		</g>
	</g>
</g>
<g>
	<path class="st26" d="M217.8,207.4c0,0,0.4,0.6,0.6,0.6c0.2,0.1,1.2,0.4,2.7,0.4l0.3,1.3C221.4,209.7,218.5,209.6,217.8,207.4z"/>
</g>
<g>
	<path class="st3" d="M234.6,210.9l0.4-0.4l-3.5-3.6l-0.9,0.9l3,3C233.8,211.2,234.2,211.2,234.6,210.9z"/>
</g>
<g>
	<path class="st27" d="M232.9,207.7c0,0-1,1.1-0.9,1.3c0.2,0.2,0.3,0.2,0.3,0.2l-0.2,0.7c0,0,0.1,0.5,0.6,0.2c0,0,0.1,0.5,0.5,0.2
		c0,0,0.2,0.3,0.4,0.2c0.2-0.1,0.9-0.9,0.9-0.9s0.1-0.2-0.3-0.4c0,0,0-0.4-0.3-0.5c0,0,0-0.3-0.4-0.4c0,0-0.1-0.7-0.6-0.6
		C233,207.6,233,207.6,232.9,207.7z"/>
</g>
<g>
	<polygon class="st24" points="229.2,208.8 233.3,206.4 231.3,203 227.3,205.6 	"/>
</g>
<g>
	<path class="st8" d="M231,209.4c0,0,1-0.4,1.6-0.3c0.1,0,0.3,0,0.3,0.2c0,0.1-0.1,0.4-0.5,0.6c-0.4,0.2-0.9,0.6-0.9,0.6
		S231.1,210.4,231,209.4z"/>
</g>
<g>
	<path class="st4" d="M233.6,247.8c0.1,0.4,0.1,0.8,0.2,1.3l-4.8-5.8C229.5,243.8,233.6,247.8,233.6,247.8z"/>
</g>
<g>
	<polygon class="st4" points="234.7,178.6 220.3,183.4 223.8,193.8 224.5,196 226,193.1 238.2,189.1 	"/>
</g>
<g>
	<path class="st28" d="M354.7,206.3c-1.9,0-3.7,0.3-5.3,0.8c-2.2-5.3-7.6-9.1-14-9.1c-7.1,0-13,4.6-14.6,10.9
		c-1.2-0.5-2.6-0.7-3.9-0.7c-5.9,0-10.7,4.5-10.7,10.1h15.6h5.7h12.2h9.3h20.7C369.7,211.7,363,206.3,354.7,206.3z"/>
</g>
<g>
	<path class="st28" d="M126.6,168c-2.4,0-4.7,0.4-6.8,1c-2.8-6.8-9.8-11.6-17.9-11.6c-9.1,0-16.7,6-18.7,14
		c-1.6-0.6-3.3-0.9-5.1-0.9c-7.5,0-13.7,5.8-13.7,13h20h7.3h15.6h11.9h26.6C145.8,174.9,137.2,168,126.6,168z"/>
</g>
<g>
	<path class="st28" d="M271.5,141c-1.6,0-3.1,0.2-4.4,0.7c-1.8-4.4-6.3-7.5-11.6-7.5c-5.9,0-10.8,3.8-12.1,9c-1-0.4-2.1-0.6-3.3-0.6
		c-4.9,0-8.8,3.8-8.8,8.4h12.9h4.7H259h7.7h17.2C283.9,145.4,278.3,141,271.5,141z"/>
</g>
<g>
	<path class="st28" d="M410.1,237.4c-1.9,0-3.7,0.3-5.3,0.8c-2.2-5.3-7.6-9.1-14-9.1c-7.1,0-13,4.6-14.6,10.9
		c-1.2-0.5-2.6-0.7-3.9-0.7c-5.9,0-10.7,4.5-10.7,10.1h15.6h5.7h12.2h9.3h20.7C425.1,242.8,418.4,237.4,410.1,237.4z"/>
</g>
<g>
	<path class="st28" d="M327.2,262.3c-0.9,0-1.8,0.1-2.7,0.4c-1.1-2.7-3.8-4.5-7-4.5c-3.5,0-6.5,2.3-7.3,5.5c-0.6-0.2-1.3-0.4-2-0.4
		c-2.9,0-5.3,2.3-5.3,5.1h7.8h2.9h6.1h4.6h10.4C334.7,265,331.4,262.3,327.2,262.3z"/>
</g>
<g>
	<path class="st8" d="M289.3,326.5c0,0,0.8-1.5-0.5-5.4c-1.3-3.8-5.7-3.4-7.1-1c-1.4,2.4-0.9,3.9,1.1,6.7
		C284.9,329.5,288.4,327.7,289.3,326.5z"/>
</g>
<g>
	<path class="st8" d="M278.1,394c0,0-0.2,1.6-0.2,1.8c0,0.2-2.4-0.1-2.4-0.1l-0.2-1.9C275.2,393.8,277.8,393.8,278.1,394z"/>
</g>
<g>
	<path class="st5" d="M277.9,395.6c0,0,0.8,1,1.5,1.4c0.7,0.4,1.9,0.6,2.3,1c0.3,0.3,1.1,1.7-1.9,1.6c-3.1,0-4.5,0.2-4.9-0.3
		c-0.3-0.5,0.5-3.8,0.5-3.8S276.1,395.7,277.9,395.6z"/>
</g>
<g>
	<path class="st8" d="M294.8,394c0,0-0.2,1.6-0.2,1.8c0,0.2-2.4-0.1-2.4-0.1l-0.2-1.9C291.9,393.8,294.4,393.8,294.8,394z"/>
</g>
<g>
	<path class="st5" d="M294.5,395.6c0,0,0.8,1,1.5,1.4c0.7,0.4,3.5,0.8,3.9,1.2c0.3,0.3,0.8,1.6-3.5,1.5c-3.1-0.1-4.5,0.2-4.9-0.3
		c-0.3-0.5,0.5-3.8,0.5-3.8S293,395.7,294.5,395.6z"/>
</g>
<g>
	<path class="st29" d="M278.9,354.1c0,0-1.2,3.8-1.1,7.1c0.2,3.3-0.6,6.9-1,10.4c-0.4,3.8-1.9,13-1.9,15c-0.1,2.1,0.2,8.6,0.2,8.6
		l3,0.1c0,0,2.5-15.9,3.2-17.5c0.6-1.6,3.9-13.2,4-14.5S278.9,354.1,278.9,354.1z"/>
</g>
<g>
	<path class="st30" d="M291.3,353.7c0,0,1.8,10.1,2,12.2c0.2,2,0.4,9.8,0.5,11s0.7,16.5,1.3,18.4h-3.3c0,0-3.4-11.1-3.4-16.4
		c0-5.3-2.3-11.4-3.7-14.9c-1.5-3.5-4.8-3.5-5.7-10C278.9,354.1,290.1,351.6,291.3,353.7z"/>
</g>
<g>
	<path class="st8" d="M288.1,327.5c0,0-0.4,1.1,0,1.9c0.4,0.8-4.8,0.3-4.8,0.3s0.2-1.6-0.4-2.9C282.2,325.4,288.1,327.5,288.1,327.5
		z"/>
</g>
<g>
	<path class="st31" d="M278.7,354.9c0,0,1.9,1.9,12.8-0.3l-0.2-0.9l-12.4,0.5L278.7,354.9z"/>
</g>
<g>
	<path class="st8" d="M287.9,330c0,0,1.9,0.2,2.5,0.3c0.5,0.1,4.2-0.7,5-0.7c0.8-0.1,4-2.3,4.1-2.5c0.1-0.3,2-5,2.1-6
		c0.1-1,1.8-0.5,1.7,0.2c-0.3,1.3-0.6,4.5-0.8,5.4c-0.2,1-0.8,3.2-1.1,3.5c-0.3,0.3-3.2,2.5-6,3.4c-2.8,0.9-5,2.3-5,2.3h-14
		c0,0-5.4-7.8-5.6-8.9c-0.1-1.2,3.8-9,4.6-9.9c0.8-1,1.9,0.3,1.9,0.3s-2.3,6.9-2.7,7.8c-0.3,1,2.7,5.3,3.6,5.3c0.8,0,3-0.3,3.9-0.3
		c1,0,2-0.5,2-0.5L287.9,330z"/>
</g>
<g>
	<path class="st14" d="M294,335.2c0,0-1.7,1.1-1.9,3.1c-0.2,2-0.8,5-1.1,6.1c-0.3,1.1,0.3,8.7,0.4,9.2c0.1,0.5-10.8,1.8-12.5,0.5
		c0,0-0.5-7.1-0.7-9.2c-0.2-2-1.1-6.9-1.4-7.6c-0.3-0.7-4.1-6-4.3-6.7c0,0,2-3.1,3.4-3.2c0,0,2.2,2.6,3,2.7c0.7,0.1,5.2-0.7,5.2-0.7
		c0,0,1.5,0.6,4.1-0.2c0,0,2.1,0.4,2.6,0.5c0.6,0.1,4.8-0.5,4.8-0.5s1.7,2.9,1.4,4.3L294,335.2z"/>
</g>
<g>
	<path class="st8" d="M301.4,321.6c0,0,0.4-1.8-0.1-2.3c-0.3-0.3-0.9-1.1-0.9-1.2c-0.1-0.1-0.7-0.5-0.7-0.7c0-0.2,0.7-0.4,1.2,0.1
		c0.6,0.5,0.9,0.6,1.2,0.6c0.2-0.1,0.6-2,0.6-2.4c0-0.5,0.2-1.7,0.5-1.6c0.3,0.1,0.3,0.6,0.3,0.6s0.3-0.9,0.6-0.8
		c0.2,0.2,0.2,0.6,0.2,0.6s0.4-0.5,0.5-0.1c0.1,0.4,0,0.7,0,0.7s0.4-0.2,0.5,0.4c0,0.6-0.1,2.4-0.4,3c-0.3,0.6-1.5,2.3-1.6,2.9
		C303,322.1,301.4,321.6,301.4,321.6z"/>
</g>
<g>
	<path class="st8" d="M276.8,318.5c0,0,1.3-2.2,1.7-2.4c0.4-0.2,1.1-0.3,1.6-0.7c0.5-0.4,1.3-0.7,1.2-0.8c0-0.1-0.7-0.1-1.4,0.2
		c-0.7,0.3-1,0.2-1.1,0c-0.1-0.2,0.4-1.3,0.6-1.5c0.2-0.3,1.7-1.8,1.4-2c-0.2-0.2-1.2,0.6-1.4,0.8c0,0,0.8-1.6,0.5-1.7
		c-0.3-0.1-0.9,0.5-0.9,0.5s0.1-1.4-1.4,0.9c0,0,0.3-0.7-0.1-0.5c-0.5,0.2-0.9,1.6-1,2.3c-0.1,0.7-0.8,2.9-1.3,3.5
		C274.8,317.6,276.8,318.5,276.8,318.5z"/>
</g>
<g>
	<path class="st32" d="M282.8,326.7c0,0,0.7,0.1,2.1-0.4c1.5-0.5,1.6-3.1,1.9-2.7c0.6,0.6,1.2,0.2,1.5-0.2c0,0-0.7-0.9-0.4-1.4
		c0.3-0.5,0.9-0.8,0.9-0.8s-1-4.9-5.7-2.7C277.7,321.2,282.8,326.7,282.8,326.7z"/>
</g>
<g>
	<path class="st14" d="M288.1,329.4l-0.2-0.7c0,0-3-0.1-4.6,0.2l-0.2,0.9C283.1,329.7,285.2,330.6,288.1,329.4z"/>
</g>
<g>
	<path class="st8" d="M287.3,322.9c-0.3-0.4-1.3-0.8-1.4,0.5c-0.1,1,1.8,2.1,1.8,1.1C287.8,323.7,287.5,323.2,287.3,322.9z"/>
</g>
<g>
	<path class="st33" d="M301.5,321.2c0,0,1.1,0,1.6,0.5c0,0,0,0.3-0.1,0.5c0,0-0.9-0.4-1.6-0.5C301.3,321.7,301.4,321.3,301.5,321.2z
		"/>
</g>
<g>
	<path class="st32" d="M302.7,321.5c0.1,0.2,0,0.5-0.2,0.6c-0.2,0.1-0.5,0-0.6-0.2c-0.1-0.2,0-0.5,0.2-0.6
		C302.4,321.1,302.6,321.2,302.7,321.5z"/>
</g>
<g>
	<g>
		<rect x="342.7" y="263.3" class="st5" width="49.7" height="118.3"/>
	</g>
</g>
<g>
	<g>
		<polygon class="st14" points="361.8,290.6 387.5,281.1 379.5,279.3 		"/>
	</g>
	<g>
		<polygon class="st15" points="361.8,290.6 370.9,280.1 377,280.9 		"/>
	</g>
	<g>
		<polygon class="st16" points="381.6,283.3 381.6,286.4 361.8,290.6 		"/>
	</g>
</g>
<g>
	<g>
		<g>
			<polygon class="st20" points="111.7,338.2 119.2,342.3 126.7,330.5 117.6,327.4 			"/>
		</g>
	</g>
	<g>
		<g>
			<polygon class="st34" points="112.2,337.9 119.2,341.7 126.2,330.7 117.7,327.7 			"/>
		</g>
	</g>
	<g>
		<g>
			<path class="st8" d="M109.6,335.8c0,0,1.3-0.6,1.9-0.9c0.6-0.3,2-0.8,2.2-0.9c0.1-0.1,4.4-0.4,4.6-0.6c0.3-0.2,0.5,0.5-0.6,0.8
				c-1.1,0.2-2.6,0.8-2.7,1.3c-0.1,0.4,1.1,0.5,1.2,0.9c0.1,0.4,0,0.3-0.2,0.3c-0.2,0.1-1.4-0.6-2-0.4c-0.6,0.2-1.4-0.1-1.8,0.1
				c-0.4,0.1-2.5,0.8-2.5,0.8L109.6,335.8z"/>
		</g>
	</g>
	<g>
		<g>
			<path class="st35" d="M112,336.7l0.7-0.2c0,0-0.8-2-1.2-1.9c-0.4,0.1-0.9,0.2-0.9,0.2L112,336.7z"/>
		</g>
	</g>
	<g>
		<g>
			<path class="st36" d="M112.1,337.1c-0.1-0.1-1.4-2.6-1.4-2.6l-2.9,0.4l1.5,3L112.1,337.1z"/>
		</g>
	</g>
	<g>
		<g>
			<path class="st8" d="M119.5,340.9c0,0,1.1-1,1.6-1.4c0.5-0.4,1.5-1.6,1.7-1.7c0.1-0.1,2-4,2.4-4.1c0.3-0.2-0.3-0.7-0.9,0.3
				c-0.7,0.9-1.8,2.2-2.2,2.1c-0.4-0.1-0.1-1.3-0.3-1.5c-0.3-0.3-0.3-0.1-0.4,0.1c-0.1,0.1,0,1.6-0.4,2c-0.4,0.4-0.5,1.4-0.8,1.7
				c-0.3,0.3-1.8,2-1.8,2L119.5,340.9z"/>
		</g>
	</g>
	<g>
		<g>
			<path class="st37" d="M96,393.4c0,0-0.2,1.6-0.3,1.9c0,0.2-2.6-0.1-2.6-0.1l-0.2-2C92.9,393.2,95.7,393.2,96,393.4z"/>
		</g>
	</g>
	<g>
		<g>
			<path class="st20" d="M95.8,395.1c0,0,0.8,1,1.6,1.4c0.8,0.4,2,0.6,2.5,1c0.3,0.3,1.2,1.7-2.1,1.7c-3.3,0-4.9,0.2-5.3-0.3
				c-0.4-0.5,0.5-3.9,0.5-3.9S93.9,395.3,95.8,395.1z"/>
		</g>
	</g>
	<g>
		<g>
			<path class="st37" d="M114.6,393.4c0,0-0.2,1.6-0.3,1.9c0,0.2-2.6-0.1-2.6-0.1l-0.2-2C111.5,393.2,114.3,393.2,114.6,393.4z"/>
		</g>
	</g>
	<g>
		<g>
			<path class="st20" d="M114.4,395.1c0,0,0.8,1,1.6,1.4c0.8,0.4,3.7,0.8,4.2,1.2c0.3,0.3,0.9,1.6-3.8,1.5c-3.3-0.1-4.9,0.2-5.3-0.3
				c-0.4-0.5,0.5-3.9,0.5-3.9S112.5,395.3,114.4,395.1z"/>
		</g>
	</g>
	<g>
		<g>
			<path class="st20" d="M98.2,351.3c0,0-2.4,3.9-2.3,7.4c0.2,3.5-0.9,7.3-1.3,11c-0.4,4.1-2.1,13.8-2.1,15.9
				c-0.1,2.2,0.3,9.2,0.3,9.2l3.4,0.1c0,0,2.8-16.9,3.5-18.6c0.7-1.7,4.3-14,4.5-15.4S98.2,351.3,98.2,351.3z"/>
		</g>
	</g>
	<g>
		<g>
			<path class="st20" d="M111,351.8c0,0,1.8,9.6,2.1,11.8c0.2,2.1,0.4,10.4,0.5,11.7c0.1,1.3,0.8,17.6,1.5,19.6h-4.3
				c0,0-3.3-11.8-3.3-17.4c0-5.6-2.5-12.1-4.2-15.8c-1.6-3.7-5.4-3.8-6.4-10.6C96.9,351.1,109.6,349.6,111,351.8z"/>
		</g>
	</g>
	<g>
		<g>
			<path class="st8" d="M102.2,318.6c0,0,3.3-1.2,4.8,1.3s1.4,7.5-0.3,8.1c-1.7,0.6-4.1,0.3-5-1.3c-0.8-1.6-1.6-3.8-1.6-5.3
				C100.2,319.9,101.4,319.1,102.2,318.6z"/>
		</g>
	</g>
	<g>
		<g>
			<path class="st8" d="M106.4,328.1c0,0-0.1,0.9,0.1,1.3c0.2,0.4-4.2,0.4-4.2,0.4s-0.4-2.4-1.1-4.4
				C100.5,323.5,106.4,328.1,106.4,328.1z"/>
		</g>
	</g>
	<g>
		<g>
			<path class="st38" d="M101.2,325.5c0,0,0.3,0.5,1.6,0.3c1.3-0.2,2.8-1.9,3.3-2.1c0.5-0.2,0.5-0.5,0.5-0.5l0.3,0.5l0.6,0
				c0,0-0.5-1.5,0.3-2.1c0.8-0.6-0.8-4.9-4.8-3.4c0,0-3.1,0.9-3,2.6C100,322.6,100.5,324.6,101.2,325.5z"/>
		</g>
	</g>
	<g>
		<g>
			<path class="st34" d="M106.7,329.4c0,0,0-0.8-0.4-0.9c-0.4-0.1-4.2-0.4-4.6-0.3v1C101.7,329.2,102.6,329.8,106.7,329.4z"/>
		</g>
	</g>
	<g>
		<g>
			<path class="st8" d="M106.5,322.6c-0.1-0.3-0.8-1.1-1.1-0.2c-0.3,0.9,0.4,2.1,0.8,2C106.6,324.3,106.7,323.4,106.5,322.6z"/>
		</g>
	</g>
	<g>
		<g>
			<path class="st21" d="M121.8,339.3C121.8,339.3,121.8,339.2,121.8,339.3C121.8,339.3,121.8,339.3,121.8,339.3z"/>
		</g>
	</g>
	<g>
		<g>
			<path class="st21" d="M95.4,360.5c0,0,2,0.6,5.4,1c3.4,0.4,12-0.1,12.1-0.5c0.1-0.4-1.8-15.1-1.7-15.8c0.1-0.8,0.2-3.5,0.2-3.5
				c0,0.7,0.8,3.8,1.7,5.4c0.3,0.6,1.4,2.5,2,2c2.6-2,6.5-9.8,6.8-9.8c-0.2-0.1-1.9-0.9-2.1-0.9c-0.2-0.1-2.1,1.9-3.2,3.1
				c-0.5,0.5-0.9,0.9-0.9,0.9c-0.3-0.7-1.5-5.3-1.9-6.9c-0.8-3.6-0.7-3.7-0.7-3.7c-2.5-0.8-6.3-2.3-6.3-2.3l-5-0.2
				c0,0-4.6,1-6.4,1.8c-0.2,0.1-0.2,4.1-0.6,5.2l1.5,3.2c0,0,0.9,6.3,1.1,9.1C97.3,349.8,95.4,360.5,95.4,360.5z"/>
		</g>
	</g>
	<g>
		<g>
			<path class="st21" d="M94.4,341.4c0.1,0.4,0.7,0.8,1.1,0.9c0.2,0.1,0.5,0.1,0.8,0.1l0.2,0l0,0l3.4-0.6c0,0,0.8-8.7-4.7-10.8
				C95.1,331.1,93.2,337.6,94.4,341.4z"/>
		</g>
	</g>
	<g>
		<g>
			<path class="st39" d="M95.5,342.4L95.5,342.4c0.2,0.1,0.5,0.1,0.8,0.1l0.2,0l0,0l-0.3-4.4L95.5,342.4z"/>
		</g>
	</g>
	<g>
		<g>
			<path class="st39" d="M115.6,342.4l0.4,1.8c0,0,0.5-1.8,0.4-2.7C116,342,115.6,342.4,115.6,342.4z"/>
		</g>
	</g>
	<g>
		<g>
			<path class="st38" d="M101.3,318.9c0,0-4.1,0.4-0.1,6.7L101.3,318.9z"/>
		</g>
	</g>
	<g>
		<g>
			<polygon class="st20" points="123.2,329.9 123.7,329.2 120.2,328 119.8,328.7 			"/>
		</g>
	</g>
</g>
<g>
	<path d="M421.9,325.9c-0.1,0.3-0.3,0.4-0.5,0.4c-0.2,0-0.3-0.3-0.2-0.6c0.1-0.3,0.3-0.4,0.5-0.4S422,325.7,421.9,325.9z"/>
</g>
<g>
	<path d="M419.5,325.6c-0.1,0.3-0.3,0.5-0.5,0.4s-0.3-0.3-0.3-0.6c0.1-0.3,0.3-0.5,0.5-0.4C419.5,325,419.6,325.3,419.5,325.6z"/>
</g>
<g>
	<g>
		<path d="M419.8,324.3C419.8,324.3,419.7,324.3,419.8,324.3C419.7,324.2,419.7,324.2,419.8,324.3c-0.1-0.1-0.1-0.1-0.1-0.1
			c-0.1,0-0.1-0.1-0.2-0.1c-0.1,0-0.3-0.1-0.4-0.1c-0.2,0-0.3,0-0.4,0.1c0,0,0,0-0.1,0c0,0,0,0,0,0c0,0,0,0,0,0c0,0-0.1,0.1-0.1,0.1
			c0,0,0,0.1,0.1,0.1c0,0,0.1,0,0.2,0c0,0-0.1,0-0.1,0c0,0,0.1,0,0.1,0c0,0,0,0,0,0c0,0,0,0,0.1,0c0,0,0.1,0,0,0c0,0,0,0,0,0
			c0,0,0,0,0.1,0c0.1,0,0.2,0,0.3,0c0.1,0,0.2,0,0.3,0c0,0,0.1,0,0.1,0c0,0,0,0,0,0c0,0,0,0,0,0c0,0,0,0,0,0c0.1,0,0.1,0,0.2-0.1
			C419.9,324.4,419.8,324.3,419.8,324.3L419.8,324.3z"/>
	</g>
</g>
<g>
	<path class="st40" d="M420.1,328.3c0-0.3-0.2-0.5-0.3-0.7c0.2,0.1,1.2,0.4,1.4,0.6c0.2,0.3-0.4,0.8-1,0.6c-0.1,0-0.1,0-0.2-0.1
		C420,328.6,420.1,328.5,420.1,328.3z"/>
</g>
</svg>
