<?xml version="1.0" encoding="utf-8"?>
<!-- Generator: Adobe Illustrator 25.4.1, SVG Export Plug-In . SVG Version: 6.00 Build 0)  -->
<svg version="1.1" xmlns="http://www.w3.org/2000/svg" xmlns:xlink="http://www.w3.org/1999/xlink" x="0px" y="0px"
	 viewBox="0 0 438.2 329.8" style="enable-background:new 0 0 438.2 329.8;" xml:space="preserve">
<style type="text/css">
	.st0{opacity:0.1;fill:#5F9961;}
	.st1{opacity:0.47;fill:#2F7630;}
	.st2{opacity:0.61;fill:#2F7630;}
	.st3{fill:#2F7630;}
	.st4{fill:#F6F7F9;}
	.st5{fill:#FFFFFF;}
	.st6{fill:#F7F8FA;}
	.st7{opacity:0.61;}
	.st8{fill:#FF9D8C;}
	.st9{fill:#223A7A;}
	.st10{fill:#8593B6;}
	.st11{fill:#8E9BBB;}
	.st12{fill:#DEE1EB;}
	.st13{fill:#818FB3;}
	.st14{fill:#43588E;}
	.st15{fill:#F6F7FA;}
	.st16{fill:#D9DEE8;}
	.st17{fill:#D2E6FF;}
	.st18{fill:#6F7FA9;}
	.st19{fill:#FF5F42;}
	.st20{font-family:'Quicksand-Bold';}
	.st21{font-size:12px;}
	.st22{opacity:0.47;}
	.st23{fill:#2E353A;}
	.st24{fill:#892B29;}
</style>
<g id="BACKGROUND">
	<path class="st0" d="M75.2,312.4c0,0-54.6-38.9-70.3-105.1c-15.7-66.2,8.3-146.5,53.8-187C104.1-20.3,186.1,7,222.5,41
		s36.4,33.9,36.4,33.9s34.8,19,80.3,17.4c45.5-1.7,86.1,60.4,96.8,109.2s-14.9,113.4-14.9,113.4L75.2,312.4z"/>
	<path class="st1" d="M50.3,322.3c0,0-38.1-20.7-48-68.7s33.1-91.9,37.2-115.9c4.1-24-5-53.8,33.1-77
		c38.1-23.2,105.9-14.9,131.6-20.7C229.9,34.3,259.7-5.4,311,3.7c51.3,9.1,101,36.4,103.4,96c2.5,59.6-16.6,61.2,2.5,93.5
		c19,32.3,26.5,54.6,17.4,87.7c-9.1,33.1-28.1,42.2-28.1,42.2L50.3,322.3z"/>
	<path class="st2" d="M129.8,311.6c-2.4-2.5-37.1-72,1.6-135.7c38.7-63.7,135.8-56.3,174.5-31.4s57.6,57.1,61.6,91
		c3.9,33.9-22.1,86.9-22.1,86.9L129.8,311.6z"/>
</g>
<g id="OBJECTS">
	<g>
		<path class="st3" d="M402.2,194.5h-44.6c-2.8,0-5-2.2-5-5v-22.3c0-2.8,2.2-5,5-5h44.6c2.8,0,5,2.2,5,5v22.3
			C407.2,192.3,404.9,194.5,402.2,194.5z"/>
		<polygon class="st3" points="379.9,207.2 386.9,190.4 372.8,190.4 		"/>
	</g>
	<g>
		<polygon class="st4" points="379.7,172.9 392.5,172.9 392.5,174.7 398.7,171.1 392.5,167.5 392.5,169.4 379.7,169.4 		"/>
	</g>
	<g>
		<polygon class="st5" points="398.7,180.2 385.9,180.2 385.9,178.3 379.7,182 385.9,185.6 385.9,183.7 398.7,183.7 		"/>
	</g>
	<g>
		<path class="st6" d="M371.8,183.5l-0.6,0.2c0,0-1.9-2.2-2.9-4.5c-1-2.4-1-5.2-1-5.2l0.4-0.2l-2.7-6.5c-0.5,0.4-0.9,0.9-1.3,1.5
			c-1.5,2.6-1.4,6.5,0.2,10.4c1.5,3.9,3.2,7.3,6.2,9.5c1.8,1.3,3.3,1.5,4.5,1.3L371.8,183.5z"/>
		<path class="st6" d="M373.8,182.7l-0.8,0.3l2.8,6.6c0.3-0.1,0.6-0.2,0.8-0.4c0.7-0.4,1-1.2,0.7-2l-1.4-3.6
			C375.5,182.8,374.6,182.4,373.8,182.7z"/>
		<path class="st6" d="M367.2,166.2c-0.3,0.1-0.7,0.3-1.1,0.5l2.8,6.6l0.9-0.4c0.8-0.3,1.2-1.3,0.9-2.1l-1.5-3.7
			C368.9,166.3,368,165.9,367.2,166.2z"/>
	</g>
	<g class="st7">
		<path class="st3" d="M116.9,300.4v-74.5c0,0-0.8-20.1,9.7-25.9c10.6-5.8,55-2.7,55-2.7v103H116.9z"/>
	</g>
	<g>
		<path class="st8" d="M195.6,127.6c0,0-2.7,22.6-3.7,24.4c-1,1.9-1,1.9-1,1.9l-5.2,3.5c0,0,9.9,14.1,22.1,16.3
			c12.2,2.3,11.2-5,11.2-5l-1.9-3.9l2.5-21.5C219.6,143.4,197.4,133.2,195.6,127.6z"/>
	</g>
	<path class="st5" d="M179.2,159.3l8.1-3.5c0,0,5.2,8.5,17.2,13.4s12.2,2.1,12.8,0c0.6-2.1-0.2-4.3-0.2-4.3l0.9-7.2l4.8,1.6
		L239.4,294l-42.8,2.1L179.2,159.3z"/>
	<g>
		<path class="st9" d="M218.8,157.8c0,0,2.9,6.7,5.6,22.4s5.2,42.2,5.8,60.4c0.6,18.2,1,59.8,1,59.8s53.4,0,54,0s4.3-20.5,4.3-20.5
			s-23.6-20.2-24.8-23.5c-0.8-2.2-0.4-43.1-3.9-61.9c-3.5-18.8-8.1-22.6-17.6-27.3C233.3,162.3,218.8,157.8,218.8,157.8z"/>
	</g>
	<g>
		<path class="st10" d="M246.9,276.7c-0.3,0-0.5-0.2-0.5-0.5c0-1.5-0.3-22.5-0.5-42.8c-0.3-20.3-0.5-41.3-0.5-42.8
			c0-0.3,0.2-0.5,0.5-0.5s0.5,0.2,0.5,0.5c0,1.5,0.3,22.5,0.5,42.8c0.3,20.3,0.5,41.3,0.5,42.8C247.4,276.5,247.2,276.7,246.9,276.7
			z"/>
	</g>
	<g>
		<path class="st9" d="M139.3,271.6l-0.4,28.8h62.9c0,0,2.7-24.4,1.7-26.7C202.4,271.4,139.3,271.6,139.3,271.6z"/>
	</g>
	<g>
		<path class="st11" d="M209.3,151.4c2.6,2.1,6.1,3.7,8.8,4.7l1.5-12.8c0,0-16.6-7.6-22.3-13.3C198.5,136.5,201.4,145.1,209.3,151.4
			z"/>
	</g>
	<g>
		<path class="st8" d="M239,85.6c0,0,4.3,7.4,5.2,16.6c0.8,9.1,0,32.5-7.4,42.4c-7.4,9.9-23,7-30,1c-6.5-5.5-12.8-11.6-14.5-23.6
			c-1.7-12,3.5-34.8,18.2-39.5C225.2,77.8,239,85.6,239,85.6z"/>
	</g>
	<g>
		<g>
			<path class="st8" d="M257.7,287.4c0,0-0.7,0-1.8,0c-0.3,0-0.6,0-0.8,0c-1.1,0-2.4-0.1-3.7-0.1c-0.3,0-0.6,0-0.9,0
				c-1.3,0-2.4,0.1-3.5,0.1h0c-0.2,0-0.5,0-0.8,0c-0.1,0-0.2,0-0.3,0c-0.6-0.1-0.7-0.2-1.4-0.5c-0.8-0.4-12.2-2.9-21.5-2.9
				c-9.2,0-17.5,0.7-18.9-0.5c-1.4-1.1-2.2-12.8,5.7-13.5l9.7,3.7c0,0,22.1-2.6,30.3,3.4C257.9,283,257.7,287.4,257.7,287.4z"/>
		</g>
		<g>
			<g>
				<path class="st9" d="M247,287.3c-0.2,0-0.5,0-0.8,0c-0.2-0.3-0.6-0.9-0.8-1.1c-2.5-2.6-8.5-4.2-10.7-4.7
					c-0.2-0.1-0.3-0.2-0.3-0.5c0-0.2,0.2-0.3,0.5-0.3c3.2,0.8,10,2.7,11.9,6C246.7,286.8,246.9,287.1,247,287.3z"/>
			</g>
		</g>
		<g>
			<g>
				<path class="st9" d="M251.3,287.3c-0.3,0-0.6,0-0.9,0c-2.7-5-7.2-6.4-12.7-8.2l-0.3-0.1c-0.2-0.1-0.3-0.3-0.2-0.5
					c0.1-0.2,0.3-0.3,0.5-0.2l0.3,0.1C243.8,280.2,248.5,281.7,251.3,287.3z"/>
			</g>
		</g>
		<g>
			<g>
				<path class="st9" d="M255.9,287.4c-0.3,0-0.6,0-0.9,0c-1.7-3.5-7.1-9.3-14.4-10.7c-0.2,0-0.3-0.2-0.3-0.4c0-0.2,0.2-0.3,0.4-0.3
					C248.2,277.4,254.2,283.5,255.9,287.4z"/>
			</g>
		</g>
	</g>
	<g>
		<path class="st9" d="M197.2,111.8c0,0,4.6-2.2,7.8-8.3c3.2-6.1,2.8-11.6,2.8-11.6s5.8-0.9,14.5,1.7c8.7,2.6,19,6.1,27.7,1.1
			c8.7-5,8.7-12.9,4.4-16.2c-4.8-3.7-14.2-1.4-14.2-1.4s3.6-3.5,1.7-5.6c-2-2.1-9.1,0.6-9.1,0.6s-8.7-6.9-25.1-6.1
			c-16.4,0.8-24.3,12.3-25.2,25.1c-0.9,12.8,3.7,25.7,3.7,25.7L197.2,111.8z"/>
	</g>
	<g>
		<g>
			<path class="st11" d="M230.6,114.9c-0.9,2.3-0.9,5-1.1,7.4c-0.2,1.9-0.5,4.1,1.2,5.4c0.8,0.6,4.8,2.3,2.7,3.6
				c-0.8,0.5-2.1,0.4-2.9,0.3c-0.6,0-1.2-0.1-1.8-0.1c-0.6,0-1.3-0.2-1.9-0.2c-0.4,0-0.5,0.5-0.2,0.7c1,0.7,2.6,0.9,3.8,0.9
				c1.2,0,2,0,3.1-0.6c0.7-0.3,1.3-0.8,1.4-1.6c0.1-0.9-0.6-1.7-1.2-2.2c-0.8-0.6-1.7-0.9-2.5-1.4c-1.1-0.8-1-2.1-0.9-3.3
				c0.2-2.9,0.9-5.8,1.1-8.8C231.4,114.6,230.7,114.6,230.6,114.9L230.6,114.9z"/>
		</g>
	</g>
	<g>
		<path class="st12" d="M191.4,129.5c0,0,0.8,3.2,5.6,6.9c4.8,3.7,11.7,6.4,11.7,6.4l0.6-2.4c0,0-7.1-3.1-10.4-6.5
			c-3.3-3.4-3.7-5.3-3.7-5.3L191.4,129.5z"/>
	</g>
	<g>
		<path class="st9" d="M210.1,138.7c3.8-0.2,6,2.8,6.2,4.8c0.3,2-1.6,4.2-5.9,2.2C205.1,143.3,206.2,138.9,210.1,138.7z"/>
	</g>
	<g>
		<path class="st12" d="M194.4,105.8c0,0,1.7-11.9,9.6-20c15.2-15.4,28.1-14.5,28.1-14.5s-0.1-2.2-5-3.8c-4.6-1.6-6.6-0.7-6.6-0.7
			s-12.5,1-23.1,12.7c-10.6,11.7-11.7,26.6-11.7,26.6L194.4,105.8z"/>
	</g>
	<g>
		<g>
			<path class="st5" d="M193.3,104.4c-10-1.7-15.5,6.1-15.9,14c-0.4,7.9,5.3,13.8,12.9,13.2C207.5,130.2,205.5,106.4,193.3,104.4z"
				/>
		</g>
		<g>
			<path class="st13" d="M188.3,123.9c-2.6,0-4.9-1.3-6.1-3.6c-1.4-2.5-1.2-5.6,0.3-7.8c0.1-0.2,0.3-0.2,0.5-0.1
				c0.2,0.1,0.2,0.4,0.1,0.5c-1.4,2-1.5,4.8-0.3,7c1.2,2.1,3.2,3.3,5.7,3.3c2.3-0.1,4.2-1.1,5.4-2.9c1.4-2.1,1.7-5,0.8-7.3
				c-0.9-2.4-3.3-4-5.6-3.7c-0.2,0-0.4-0.1-0.4-0.3c0-0.2,0.1-0.4,0.3-0.4c2.6-0.3,5.4,1.4,6.4,4.1c1,2.6,0.6,5.7-0.9,8
				c-1.4,2-3.5,3.2-6,3.3C188.5,123.9,188.4,123.9,188.3,123.9z"/>
		</g>
	</g>
	<g>
		<path class="st9" d="M181.1,156.4c0,0-30.2,7.4-40.8,19.4c-10.6,12-15.5,71.2-15.7,82.1c-0.2,11,7.4,15.5,12,18.6
			c4.6,3.1,24.6,8.7,40.8,9.5c16.1,0.8,31.4,0,31.4,0s-0.1-3.5,2.4-8.7c2.3-4.8,5.2-5.8,5.2-5.8l-13.9-5c0,0-2.4-43.5-6.2-64.6
			C192.1,177.9,181.1,156.4,181.1,156.4z"/>
	</g>
	<g>
		<path class="st10" d="M231.2,259.7c-0.1,0-0.1,0-0.2,0c-0.3-0.1-0.4-0.4-0.3-0.7c2.8-6.4,5.8-18.9,7.4-27.7l0.1-0.7
			c0.5-2.6,1.1-5.8-0.1-8c-0.6-1.1-2.1-3.6-3.4-6c-1.4-2.5-2.8-4.8-3.1-5.5c-0.7-1.4,1.6-5,4.9-9.9c0.9-1.3,1.7-2.5,2.1-3.3
			c1.2-2,0.4-3.9-0.5-6.1l-0.3-0.7c-0.8-2-1.8-4.1-2.7-6c-0.4-0.8-0.7-1.6-1.1-2.4c-0.5-1.1-1-2.2-1.5-3.3
			c-2.9-6.5-5.9-13.3-9.8-19.8c-0.1-0.2-0.1-0.5,0.2-0.7c0.2-0.1,0.5-0.1,0.7,0.2c3.9,6.6,6.9,13.3,9.9,19.9c0.5,1.1,1,2.2,1.5,3.3
			c0.4,0.8,0.7,1.6,1.1,2.4c0.9,2,1.9,4,2.7,6.1l0.3,0.7c0.9,2.2,1.9,4.5,0.5,7c-0.5,0.8-1.3,2-2.2,3.3c-1.7,2.6-5.3,8-4.8,8.9
			c0.4,0.7,1.7,3,3.1,5.4c1.4,2.4,2.8,4.8,3.4,6c1.4,2.5,0.8,6,0.2,8.7l-0.1,0.7c-0.6,3.2-3.8,19.6-7.5,27.9
			C231.5,259.6,231.4,259.7,231.2,259.7z"/>
	</g>
	<g>
		<path class="st10" d="M201.7,261.5c-0.1,0-0.3,0-0.4-0.1c-2.4-2.4-13.7-22-14.5-25.7c-0.5-2,0.7-7.1,1.8-12.1
			c0.9-3.8,1.8-7.8,1.5-8.9c-0.4-1.6-3.3-4-6.1-6.3c-3.4-2.8-6.9-5.6-7.6-8.2c-0.8-2.9-0.1-21.3,0.3-33.4c0.2-4.4,0.3-7.8,0.3-9
			c0-0.3,0.2-0.5,0.5-0.5c0,0,0,0,0,0c0.3,0,0.5,0.2,0.5,0.5c0,1.2-0.1,4.7-0.3,9.1c-0.4,11.3-1.1,30.3-0.4,33.1
			c0.6,2.3,4.1,5.1,7.2,7.7c3.1,2.5,6,4.9,6.4,6.8c0.3,1.3-0.5,5-1.5,9.3c-1,4.6-2.2,9.9-1.8,11.7c0.8,3.6,12,22.9,14.3,25.2
			c0.2,0.2,0.2,0.5,0,0.7C201.9,261.4,201.8,261.5,201.7,261.5z"/>
	</g>
	<g>
		<path class="st10" d="M161,252.9C161,252.9,161,252.9,161,252.9c-0.3,0-0.5-0.3-0.5-0.6c0.4-2.6,6.1-54.4,6.4-58.4
			c0-0.3,0.3-0.5,0.5-0.5c0.3,0,0.5,0.3,0.5,0.5c-0.3,4-6,55.8-6.4,58.4C161.5,252.7,161.3,252.9,161,252.9z"/>
	</g>
	<g>
		<path class="st10" d="M202.2,267c-0.1,0-0.1,0-0.2,0c-1.3-0.5-6.9-2.4-14-4.8c-14.4-4.8-34-11.5-37.8-13.4
			c-0.2-0.1-0.3-0.4-0.2-0.7c0.1-0.2,0.4-0.3,0.7-0.2c3.7,1.9,24.1,8.8,37.6,13.4c7.1,2.4,12.8,4.3,14.1,4.8
			c0.3,0.1,0.4,0.4,0.3,0.7C202.6,266.9,202.4,267,202.2,267z"/>
	</g>
	<g>
		<path class="st10" d="M195.3,287.6c-12.6,0-37.1-2.3-55.7-8.9c-0.3-0.1-0.4-0.4-0.3-0.6c0.1-0.3,0.4-0.4,0.6-0.3
			c23.5,8.3,56.4,9.7,62.5,8.4c0.3-0.1,0.5,0.1,0.6,0.4c0.1,0.3-0.1,0.5-0.4,0.6C201.3,287.4,198.7,287.6,195.3,287.6z"/>
	</g>
	<g>
		<path class="st3" d="M50.7,163.4c3.9,3.5,8.9,5.7,12.3,9.7c1.4,1.6,2.6,3.2,3.8,4.9c0.9,1.2,3.4,3.2,3.8,4.7
			c0.2,0.7,0.1-0.2,0-0.9c0,0,0-0.1,0-0.1c-0.3-3-0.6-6.1-0.7-9.2c-0.1-3.1,0.1-6.1-0.1-9.2c-0.3-4.3-1.6-8.5-5.1-11.2
			c-1.7-1.3-3.9-2.1-5.5-3.6c-1.5-1.4-0.9-3,0-4.5c0.8-1.5,1.8-2.9,2.2-4.5c0.4-1.9-0.3-3.9-1.3-5.5c-2-3.4-6.6-7.3-10.9-6.8
			c-3.6,0.4-4,4.6-3.9,7.5c0,2.8,0.3,5.6,0.4,8.4c0,2.9-0.5,5.7-0.5,8.6C44.8,156.5,47.1,160.2,50.7,163.4z"/>
		<path class="st3" d="M87.1,208.2c1.1-2.6,2.3-5,3.9-7.4c2.1-3.3,4.5-6.4,5.9-10.1c1.4-3.7,1.2-7.7,1.4-11.6c0.1-2.9,1-5.7,0.7-8.6
			c-0.1-1.4-0.9-3.6-2.7-3.4c-1.4,0.2-2.2,1.9-2.8,3c-0.9,1.9-1.6,4-2.3,6c-0.3,0.8-0.5,1.6-0.9,2.4c-0.2,0.4-0.8,1.5-1.4,1.4
			c-1-0.3-0.1-4.4,0.1-5.1c0.8-3.7,1.9-7.1,2.1-10.9c0.2-5.5-0.2-12.1-5.6-15.1c-1.4-0.8-3.2-1.3-4.5-0.1c-1.3,1.2-1.7,3.2-1.9,4.8
			c-0.6,5.1,0.6,9.9,2.2,14.7c1.3,4,2.9,8,3.1,12.3c0.1,4.1-2,7.7-3,11.5c-1.6,6.1-1.3,9.4-1.3,11.4c0,2.5,0.1,4.9,0.3,7.4
			c0.2,2.3,0.4,4.6,0.6,6.8c0.1,0.5,0.1,0.9,0.2,1.4c-0.9-2.1-1.2-4.5-1.9-6.6c-1.3-3.8-2.8-7.4-4-11.2c-1-3.1-2-6.3-3.3-9.3
			c-1.3-2.8-2.8-5.8-5.2-7.9c-1.4-1.3-3.2-2-5.1-2c-1.2,0-2.3,0.4-3.5,0.7c-1.4,0.4-2.6,0.2-3.7-0.7c-3.9-3-5-8.3-7.9-12
			c-2.1-2.8-7.2-7.6-10.9-4.5c-2,1.6-2.5,4.8-2.4,7.2c0.1,3,1.4,5.8,3,8.3c1.7,2.7,3.8,5.1,5.4,7.8c0.9,1.6,1,3.2,0.9,5
			c-0.1,1.7-0.3,3.4,0.3,5.1c1.8,5,7.3,4.3,11.6,4.4c3,0.1,6.2,0.5,9.1,1.5c3.3,1.1,5.4,3.3,6.6,6.5c0.9,2.4,1.3,5,2.9,7.1
			c0.8,0.9,1.8,1.6,2.9,2.1c1.7,0.7,6.8,1.1,6.8,0.6c0.1-1.6,0.9-3.2,1.3-4.7C85,213.6,86,210.9,87.1,208.2z"/>
		<path class="st3" d="M110.8,207.2c-0.4-2.9-0.4-6-1.7-8.7c-0.1-0.2-0.4-0.2-0.5-0.1c-1,0.5-1,2.1-1.1,3.1c-0.1,1.6,0,3.2-0.2,4.8
			c-0.3,2.8-1,5.7-2,8.3c-1.1,3-3.2,4.7-6.2,5.6c-1.9,0.6-3.8,1.1-5.4,2.4c-1.4,1.1-2.4,2.7-3.2,4.4c-2,4.5-3,9.5-3.9,14.4
			c-0.6,3.2-1.1,6.5-1.9,9.7c-0.8,3.2-1.6,6.4-2.1,9.7c-0.1,0.2-0.2,0.3-0.2,0.5c-0.2,0.5,0.6,0.8,0.8,0.3
			c3.1-4.8,6.9-9.1,12.1-11.7c2.3-1.2,5.4-1.4,7.4-3.3c1.5-1.4,1.7-3.6,1.5-5.5c-0.3-2.5-1.5-4.6-2.8-6.8c-0.7-1.2-1.5-2.5-1.2-3.9
			c0.3-1.4,1.4-2.4,2.5-3.1c2.1-1.3,4.7-1.9,6.4-3.9c1.6-1.8,2.5-4,2.7-6.4C111.9,213.8,111.3,210.4,110.8,207.2z"/>
		<path class="st3" d="M68.5,223.7c-2.7-3.5-6.1-6.6-9.8-9.1c-2-1.3-6.7-3.9-7.6,0c-0.6,2.3,1.7,4.5,3.1,6c2.2,2.1,4.8,4,6.6,6.5
			c-2.3,0.7-4.7,0.9-6.7,2.5c-2.4,1.9-3.4,5.5-1.1,7.8c1.1,1.1,2.7,1.8,4.1,2.5c1.9,0.9,3.7,1.7,5.6,2.5c4.1,1.7,8.3,3.5,11.8,6.3
			c3.6,2.9,6.9,7.7,7.2,12.4c0,0.4-0.1,0,0.1-0.2c0.1,0.1,0.6-0.1,0.6-0.4c-0.1-6.9-1.3-13.5-4.2-19.9
			C75.7,234.8,72.4,228.8,68.5,223.7z"/>
	</g>
	<g>
		<path class="st14" d="M59,159.2c1.5,3.1,3.1,6.2,4.8,9.3c1.6,2.9,3.2,5.9,4.4,9c1.5,3.9,3,7.7,4.6,11.5c1.6,4,3.1,8.1,4.3,12.2
			c2.3,8.1,4,16.4,4.8,24.8c0.4,4.3,0.6,8.5,0.5,12.8c-0.1,3.3-0.5,6.7-0.8,10c-0.3,3.5-0.6,7-0.3,10.4c0.2,2.9,0.7,6.4,3,8.4
			c0.4,0.4,1.1-0.1,0.8-0.6c-2.7-5.5-2.5-11.5-2-17.4c0.3-3.3,0.7-6.6,0.8-9.9c0.1-4.2,0-8.4-0.4-12.6c-0.8-8.2-2.4-16.3-4.5-24.3
			c-1.1-4.1-2.4-8.1-4-12c-1.6-3.9-3.4-7.8-4.9-11.7c-2.7-7.2-6.9-13.5-10.6-20.2C59.3,158.5,58.8,158.8,59,159.2L59,159.2z"/>
	</g>
	<g>
		<path class="st14" d="M82.1,217.8c0.4-5.2,0.9-10.2,2.7-15.2c0.8-2.3,1.8-4.6,2.6-6.9c0.7-1.9,1.6-4.6,1.1-6.6
			c-0.1-0.2-0.4-0.2-0.5,0c-0.3,1.2-0.3,2.5-0.5,3.7c-0.2,1.2-0.6,2.3-0.9,3.4c-0.8,2.4-1.8,4.7-2.7,7.1c-1.7,4.6-2.6,9.7-2.2,14.6
			C81.7,218,82,218,82.1,217.8L82.1,217.8z"/>
	</g>
	<g>
		<path class="st14" d="M51.8,187.8c2.1,5,8.3,5.3,12.8,6.4c3.2,0.8,5.6,3,7.3,5.8c1.9,3.1,3.2,6.7,4.2,10.1c0,0,0.1,0,0.1,0
			c-1.3-6-3.1-13.2-9.3-16c-5-2.2-11.5-1.1-14.7-6.5C52.2,187.3,51.7,187.5,51.8,187.8L51.8,187.8z"/>
	</g>
	<g>
		<path class="st14" d="M78.8,217c0.2,0.3,0.5,0.7,0.7,1c0.1,0.2,0.3,0.3,0.4,0.4c0.2,0.1,0.4,0.3,0.6,0.3c0.1,0,0.2-0.1,0.1-0.2
			c-0.1-0.2-0.3-0.3-0.4-0.4c-0.1-0.1-0.3-0.3-0.4-0.4c-0.3-0.3-0.6-0.6-0.8-0.9C78.8,216.9,78.7,216.9,78.8,217L78.8,217z"/>
	</g>
	<g>
		<path class="st14" d="M65.8,232.9c3.6,2.9,6.9,6.4,9.5,10.2c1.3,1.8,2.4,3.7,3.5,5.7c1.1,2.1,1.9,4.4,2.8,6.6
			c0.1,0.2,0.4,0.2,0.4,0c-0.5-4.7-3.5-8.7-5.9-12.7c-1.2-2-2.8-3.7-4.4-5.4c-1.7-1.8-3.5-3.4-5.5-4.8
			C65.9,232.3,65.6,232.7,65.8,232.9L65.8,232.9z"/>
	</g>
	<g>
		<path class="st14" d="M94.3,227.3c-1.7,1-1.8,3.7-1.8,5.4c-0.1,3.3,0.8,6.5-0.7,9.6c-1.3,2.9-3.4,5.3-5.1,7.9
			c-1.6,2.5-3.1,5.7-3.1,8.7c0,0.2,0.3,0.3,0.3,0.1c0.6-1.4,0.9-2.9,1.3-4.3c0.5-1.6,1.2-3.1,2.1-4.5c1.6-2.5,3.6-4.7,4.9-7.4
			c1.4-2.8,1.2-5.6,1.1-8.6c-0.1-1.9-0.3-5.1,1.3-6.5C94.9,227.6,94.6,227.2,94.3,227.3L94.3,227.3z"/>
	</g>
	<path class="st5" d="M82.8,259.3c-6.9-0.1-20.1-0.2-20.1-0.2l3.3,24.3c0.7,5.5,5.4,9.5,10.9,9.5h5.7h0.6h5.7
		c5.5,0,10.2-4.1,10.9-9.5l3.3-24.3C102.9,259.2,89.7,259.2,82.8,259.3z"/>
	<g>
		<g>
			<g>
				<polygon class="st15" points="417.9,214.8 378.3,293.1 263,293.9 298.6,213.6 				"/>
			</g>
			<g>
				<path class="st16" d="M186.5,293.4l0-6.3h74.6l34.3-75.3h119.4l3,2.9H301.3l-35.7,78.6C265.6,293.4,186.5,293.2,186.5,293.4z"/>
			</g>
			<g>
				<path class="st16" d="M358,258c-1.3,3.9-8.4,6.9-15.8,6.7c-7.4-0.2-12.4-3.5-11.1-7.4c1.3-3.9,8.4-6.9,15.8-6.7
					C354.4,250.8,359.3,254.1,358,258z"/>
			</g>
		</g>
		<g>
			<path class="st5" d="M265.6,293.9c-0.1,0-0.1,0-0.2,0c-0.3-0.1-0.4-0.4-0.2-0.7l35.8-78.9h116.9c0.3,0,0.5,0.2,0.5,0.5
				c0,0.3-0.2,0.5-0.5,0.5H301.6L266,293.6C266,293.8,265.8,293.9,265.6,293.9z"/>
		</g>
	</g>
	<rect x="44.1" y="299.4" class="st3" width="137.2" height="30.4"/>
	<rect x="180.5" y="299.4" class="st3" width="246.8" height="30.4"/>
	<polygon class="st3" points="181.3,299.4 180.5,299.4 44.1,299.4 44.1,305 180.5,305 181.3,305 427.3,305 427.3,299.4 	"/>
	<rect x="37.5" y="293.4" class="st3" width="149.8" height="7.4"/>
	<rect x="186.5" y="293.4" class="st3" width="246.8" height="7.4"/>
	<path class="st5" d="M146.7,133.8H98.2c-3,0-5.4-2.4-5.4-5.4v-24.2c0-3,2.4-5.4,5.4-5.4h48.4c3,0,5.4,2.4,5.4,5.4v24.2
		C152.1,131.4,149.7,133.8,146.7,133.8z"/>
	<polygon class="st5" points="165.9,116.3 147.7,108.6 147.7,124 	"/>
	<g>
		<circle class="st3" cx="111" cy="116.3" r="3.3"/>
		<circle class="st3" cx="122.5" cy="116.3" r="3.3"/>
		<circle class="st3" cx="133.9" cy="116.3" r="3.3"/>
	</g>
	<path class="st3" d="M396.4,24.4H284.6c-7.2,0-13,5.8-13,13v53c0,7.2,5.8,13,13,13h10c0.3,4.8-0.4,12-4.4,21.1
		c12.9-6,20.4-14.9,24.2-21.1h82c7.2,0,13-5.8,13-13v-53C409.4,30.2,403.5,24.4,396.4,24.4z"/>
	<path class="st5" d="M345.5,49.7h-55.4c-1.5,0-2.8-1.2-2.8-2.8l0,0c0-1.5,1.2-2.8,2.8-2.8h55.4c1.5,0,2.8,1.2,2.8,2.8l0,0
		C348.3,48.4,347,49.7,345.5,49.7z"/>
	<path class="st17" d="M385.3,65.8H289c-0.9,0-1.7-0.8-1.7-1.7l0,0c0-0.9,0.8-1.7,1.7-1.7h96.3c0.9,0,1.7,0.8,1.7,1.7l0,0
		C387,65,386.2,65.8,385.3,65.8z"/>
	<path class="st17" d="M385.3,75.1H289c-0.9,0-1.7-0.8-1.7-1.7l0,0c0-0.9,0.8-1.7,1.7-1.7h96.3c0.9,0,1.7,0.8,1.7,1.7l0,0
		C387,74.4,386.2,75.1,385.3,75.1z"/>
	<path class="st17" d="M364.3,85.1H289c-0.9,0-1.7-0.8-1.7-1.7l0,0c0-0.9,0.8-1.7,1.7-1.7h75.3c0.9,0,1.7,0.8,1.7,1.7l0,0
		C366,84.4,365.2,85.1,364.3,85.1z"/>
	<path class="st5" d="M384.5,49.7h-26.5c-1.5,0-2.8-1.2-2.8-2.8l0,0c0-1.5,1.2-2.8,2.8-2.8h26.5c1.5,0,2.8,1.2,2.8,2.8l0,0
		C387.3,48.4,386,49.7,384.5,49.7z"/>
	<path class="st5" d="M317.8,171.7h-30c-1.1,0-2-0.9-2-2v-20.5c0-1.1,0.9-2,2-2h30c1.1,0,2,0.9,2,2v20.5
		C319.8,170.8,319,171.7,317.8,171.7z"/>
	<g>
		<g>
			<path class="st18" d="M303,163.1c-0.2,0-0.3-0.1-0.5-0.2l-16.3-13.5c-0.3-0.3-0.4-0.7-0.1-1.1c0.3-0.3,0.7-0.4,1.1-0.1l15.9,13.1
				l15.5-13.4c0.3-0.3,0.8-0.2,1.1,0.1c0.3,0.3,0.2,0.8-0.1,1.1l-15.9,13.9C303.4,163,303.2,163.1,303,163.1z"/>
		</g>
		<g>
			<path class="st18" d="M286.7,171.1c-0.2,0-0.4-0.1-0.5-0.2c-0.3-0.3-0.3-0.8,0-1.1l11.4-12c0.3-0.3,0.8-0.3,1.1,0
				c0.3,0.3,0.3,0.8,0,1.1l-11.4,12C287.1,171,286.9,171.1,286.7,171.1z"/>
		</g>
		<g>
			<path class="st18" d="M319,170.7c-0.2,0-0.4-0.1-0.5-0.2L307,159c-0.3-0.3-0.3-0.8,0-1.1c0.3-0.3,0.8-0.3,1.1,0l11.4,11.4
				c0.3,0.3,0.3,0.8,0,1.1C319.3,170.6,319.2,170.7,319,170.7z"/>
		</g>
	</g>
	<g>
		<g>
			<circle class="st19" cx="321.4" cy="146.4" r="10"/>
		</g>
		<text transform="matrix(1 0 0 1 314.3535 150.6089)" class="st5 st20 st21">85</text>
	</g>
	<g>
		<path class="st3" d="M422.2,142.7h-58.6c-2.2,0-4-1.8-4-4v-9.2c0-2.2,1.8-4,4-4h58.6c2.2,0,4,1.8,4,4v9.2
			C426.2,140.9,424.4,142.7,422.2,142.7z"/>
	</g>
	<g>
		<path class="st5" d="M367.8,138.6c-0.3,0-0.5-0.1-0.6-0.3c-0.2-0.2-0.2-0.4-0.2-0.7l0.3-2.2c0-0.1,0-0.1,0-0.1c0,0-0.1,0-0.1,0
			l-1.8,1.3c-0.2,0.2-0.5,0.2-0.7,0.2c-0.2,0-0.4-0.2-0.6-0.4c-0.2-0.3-0.2-0.6-0.1-0.8c0.1-0.2,0.3-0.4,0.5-0.5l2.1-0.9
			c0.1,0,0.1,0,0.1-0.1c0,0,0-0.1-0.1-0.1l-2.1-0.9c-0.3-0.1-0.4-0.3-0.5-0.5c-0.1-0.2,0-0.5,0.1-0.7c0.1-0.2,0.3-0.4,0.6-0.4
			c0.2,0,0.5,0,0.7,0.2l1.8,1.4c0.1,0,0.1,0,0.1,0c0,0,0-0.1,0-0.1l-0.3-2.2c0-0.3,0.1-0.5,0.2-0.7c0.2-0.2,0.4-0.3,0.7-0.3
			c0.3,0,0.5,0.1,0.6,0.3c0.2,0.2,0.2,0.4,0.2,0.7l-0.3,2.2c0,0.1,0,0.1,0,0.1c0,0,0.1,0,0.1,0l1.8-1.3c0.2-0.2,0.5-0.2,0.7-0.2
			c0.3,0,0.4,0.2,0.6,0.4c0.2,0.3,0.2,0.6,0.1,0.8c-0.1,0.2-0.3,0.4-0.5,0.5l-2.1,0.9c-0.1,0-0.1,0-0.1,0.1c0,0,0,0.1,0.1,0.1
			l2.1,0.9c0.3,0.1,0.4,0.3,0.5,0.5c0.1,0.2,0.1,0.5-0.1,0.7c-0.1,0.2-0.3,0.4-0.6,0.4c-0.3,0-0.5,0-0.7-0.2l-1.8-1.4
			c-0.1,0-0.1,0-0.1,0c0,0,0,0.1,0,0.1l0.3,2.2c0,0.3,0,0.5-0.2,0.7C368.3,138.5,368.1,138.6,367.8,138.6z"/>
	</g>
	<g>
		<path class="st5" d="M379.9,138.6c-0.3,0-0.5-0.1-0.6-0.3c-0.2-0.2-0.2-0.4-0.2-0.7l0.3-2.2c0-0.1,0-0.1,0-0.1c0,0-0.1,0-0.1,0
			l-1.8,1.3c-0.2,0.2-0.5,0.2-0.7,0.2c-0.2,0-0.4-0.2-0.6-0.4c-0.2-0.3-0.2-0.6-0.1-0.8s0.3-0.4,0.5-0.5l2.1-0.9
			c0.1,0,0.1,0,0.1-0.1c0,0,0-0.1-0.1-0.1l-2.1-0.9c-0.3-0.1-0.4-0.3-0.5-0.5c-0.1-0.2,0-0.5,0.1-0.7c0.2-0.2,0.3-0.4,0.6-0.4
			c0.2,0,0.5,0,0.7,0.2l1.8,1.4c0.1,0,0.1,0,0.1,0c0,0,0-0.1,0-0.1l-0.3-2.2c0-0.3,0.1-0.5,0.2-0.7c0.2-0.2,0.4-0.3,0.7-0.3
			c0.3,0,0.5,0.1,0.6,0.3c0.2,0.2,0.2,0.4,0.2,0.7l-0.3,2.2c0,0.1,0,0.1,0,0.1c0,0,0.1,0,0.1,0l1.8-1.3c0.2-0.2,0.5-0.2,0.7-0.2
			c0.3,0,0.4,0.2,0.6,0.4c0.2,0.3,0.2,0.6,0.1,0.8c-0.1,0.2-0.3,0.4-0.5,0.5l-2.1,0.9c-0.1,0-0.1,0-0.1,0.1c0,0,0,0.1,0.1,0.1
			l2.1,0.9c0.3,0.1,0.4,0.3,0.5,0.5c0.1,0.2,0.1,0.5-0.1,0.7c-0.1,0.2-0.3,0.4-0.6,0.4c-0.3,0-0.5,0-0.7-0.2l-1.8-1.4
			c-0.1,0-0.1,0-0.1,0c0,0,0,0.1,0,0.1l0.3,2.2c0,0.3,0,0.5-0.2,0.7C380.4,138.5,380.2,138.6,379.9,138.6z"/>
	</g>
	<g>
		<path class="st5" d="M392,138.6c-0.3,0-0.5-0.1-0.6-0.3c-0.2-0.2-0.2-0.4-0.2-0.7l0.3-2.2c0-0.1,0-0.1,0-0.1c0,0-0.1,0-0.1,0
			l-1.8,1.3c-0.2,0.2-0.5,0.2-0.7,0.2c-0.2,0-0.4-0.2-0.6-0.4c-0.2-0.3-0.2-0.6-0.1-0.8c0.1-0.2,0.3-0.4,0.5-0.5l2.1-0.9
			c0.1,0,0.1,0,0.1-0.1c0,0,0-0.1-0.1-0.1l-2.1-0.9c-0.3-0.1-0.4-0.3-0.5-0.5c-0.1-0.2,0-0.5,0.1-0.7c0.1-0.2,0.3-0.4,0.6-0.4
			c0.2,0,0.5,0,0.7,0.2l1.8,1.4c0.1,0,0.1,0,0.1,0c0,0,0-0.1,0-0.1l-0.3-2.2c0-0.3,0.1-0.5,0.2-0.7c0.2-0.2,0.4-0.3,0.7-0.3
			c0.3,0,0.5,0.1,0.6,0.3c0.2,0.2,0.2,0.4,0.2,0.7l-0.3,2.2c0,0.1,0,0.1,0,0.1c0,0,0.1,0,0.1,0l1.8-1.3c0.2-0.2,0.5-0.2,0.7-0.2
			c0.3,0,0.4,0.2,0.6,0.4c0.2,0.3,0.2,0.6,0.1,0.8c-0.1,0.2-0.3,0.4-0.5,0.5l-2.1,0.9c-0.1,0-0.1,0-0.1,0.1c0,0,0,0.1,0.1,0.1
			l2.1,0.9c0.3,0.1,0.4,0.3,0.5,0.5c0.1,0.2,0.1,0.5-0.1,0.7c-0.1,0.2-0.3,0.4-0.6,0.4c-0.3,0-0.5,0-0.7-0.2l-1.8-1.4
			c-0.1,0-0.1,0-0.1,0c0,0,0,0.1,0,0.1l0.3,2.2c0,0.3,0,0.5-0.2,0.7C392.6,138.5,392.3,138.6,392,138.6z"/>
	</g>
	<g>
		<path class="st5" d="M404.2,138.6c-0.3,0-0.5-0.1-0.6-0.3c-0.2-0.2-0.2-0.4-0.2-0.7l0.3-2.2c0-0.1,0-0.1,0-0.1c0,0-0.1,0-0.1,0
			l-1.8,1.3c-0.2,0.2-0.5,0.2-0.7,0.2c-0.2,0-0.4-0.2-0.6-0.4c-0.2-0.3-0.2-0.6-0.1-0.8c0.1-0.2,0.3-0.4,0.5-0.5l2.1-0.9
			c0.1,0,0.1,0,0.1-0.1c0,0,0-0.1-0.1-0.1l-2.1-0.9c-0.3-0.1-0.4-0.3-0.5-0.5c-0.1-0.2,0-0.5,0.1-0.7c0.2-0.2,0.3-0.4,0.6-0.4
			c0.2,0,0.5,0,0.7,0.2l1.8,1.4c0.1,0,0.1,0,0.1,0c0,0,0-0.1,0-0.1l-0.3-2.2c0-0.3,0.1-0.5,0.2-0.7c0.2-0.2,0.4-0.3,0.7-0.3
			c0.3,0,0.5,0.1,0.6,0.3c0.2,0.2,0.2,0.4,0.2,0.7l-0.3,2.2c0,0.1,0,0.1,0,0.1c0,0,0.1,0,0.1,0l1.8-1.3c0.2-0.2,0.5-0.2,0.7-0.2
			c0.3,0,0.4,0.2,0.6,0.4c0.2,0.3,0.2,0.6,0.1,0.8c-0.1,0.2-0.3,0.4-0.5,0.5l-2.1,0.9c-0.1,0-0.1,0-0.1,0.1c0,0,0,0.1,0.1,0.1
			l2.1,0.9c0.3,0.1,0.4,0.3,0.5,0.5c0.1,0.2,0.1,0.5-0.1,0.7c-0.1,0.2-0.3,0.4-0.6,0.4c-0.3,0-0.5,0-0.7-0.2l-1.8-1.4
			c-0.1,0-0.1,0-0.1,0c0,0,0,0.1,0,0.1l0.3,2.2c0,0.3,0,0.5-0.2,0.7C404.7,138.5,404.5,138.6,404.2,138.6z"/>
	</g>
	<g class="st22">
		<path class="st3" d="M416.3,138.6c-0.3,0-0.5-0.1-0.6-0.3c-0.2-0.2-0.2-0.4-0.2-0.7l0.3-2.2c0-0.1,0-0.1,0-0.1c0,0-0.1,0-0.1,0
			l-1.8,1.3c-0.2,0.2-0.5,0.2-0.7,0.2c-0.2,0-0.4-0.2-0.6-0.4c-0.2-0.3-0.2-0.6-0.1-0.8c0.1-0.2,0.3-0.4,0.5-0.5l2.1-0.9
			c0.1,0,0.1,0,0.1-0.1c0,0,0-0.1-0.1-0.1l-2.1-0.9c-0.3-0.1-0.4-0.3-0.5-0.5c-0.1-0.2,0-0.5,0.1-0.7c0.1-0.2,0.3-0.4,0.6-0.4
			c0.2,0,0.5,0,0.7,0.2l1.8,1.4c0.1,0,0.1,0,0.1,0c0,0,0-0.1,0-0.1l-0.3-2.2c0-0.3,0.1-0.5,0.2-0.7c0.2-0.2,0.4-0.3,0.7-0.3
			c0.3,0,0.5,0.1,0.6,0.3c0.2,0.2,0.2,0.4,0.2,0.7l-0.3,2.2c0,0.1,0,0.1,0,0.1c0,0,0.1,0,0.1,0l1.8-1.3c0.2-0.2,0.5-0.2,0.7-0.2
			c0.3,0,0.4,0.2,0.6,0.4c0.2,0.3,0.2,0.6,0.1,0.8c-0.1,0.2-0.3,0.4-0.5,0.5l-2.1,0.9c-0.1,0-0.1,0-0.1,0.1c0,0,0,0.1,0.1,0.1
			l2.1,0.9c0.3,0.1,0.4,0.3,0.5,0.5c0.1,0.2,0.1,0.5-0.1,0.7c-0.1,0.2-0.3,0.4-0.6,0.4c-0.3,0-0.5,0-0.7-0.2l-1.8-1.4
			c-0.1,0-0.1,0-0.1,0c0,0,0,0.1,0,0.1l0.3,2.2c0,0.3,0,0.5-0.2,0.7C416.8,138.5,416.6,138.6,416.3,138.6z"/>
	</g>
	<path class="st23" d="M219.5,121.8c0.3,1.6,1.3,2.4,2.1,2.4c1.1-0.3,1.6-1.6,1.3-2.9c-0.3-1.3-1.3-2.4-2.1-2.4
		C219.7,118.8,219.2,120.2,219.5,121.8z"/>
	<path class="st23" d="M235.9,118.8c0.3,1.6,1.3,2.4,2.1,2.4c1.1-0.3,1.6-1.6,1.3-2.9c-0.3-1.3-1.3-2.4-2.1-2.4
		C236.2,115.9,235.7,117.5,235.9,118.8z"/>
	<path class="st23" d="M240.7,110.6c-0.3,0.3-0.5,0.3-0.8,0.3c-2.1-0.8-4.2-0.8-6.4,0.3c-0.3,0.3-1.1,0.3-1.3-0.3
		c-0.3-0.3-0.3-1.1,0.3-1.3l0,0c2.4-1.6,5.3-1.6,8-0.5c0.5,0.3,0.8,0.8,0.5,1.1l0,0C241,110.4,241,110.6,240.7,110.6z"/>
	<path class="st23" d="M215,115.7c-0.3,0-0.3,0-0.5,0c-0.3-0.3-0.5-0.8-0.3-1.3l0,0c1.9-2.1,4.5-3.4,7.2-3.2c0.5,0,0.8,0.5,0.8,1.1
		l0,0c0,0.5-0.5,0.8-1.1,0.8l0,0c-2.1,0-4.2,1.1-5.8,2.7C215.5,115.7,215.2,115.7,215,115.7z"/>
	<g>
		<path class="st23" d="M231.6,139.6c-1.7,2-4.2,6.2-4.2,6.2c-0.5-0.2-0.7-0.2-1.2-0.5c-5.5-2.2-7.2-5-7.7-7.5
			c-0.2-1.2,0-2.5,0.5-3.5c0.5-1.2,1-1.7,1-1.7c2.2,3,7.2,5.2,10,6.5C231.1,139.4,231.6,139.6,231.6,139.6z"/>
		<path class="st5" d="M229.9,138.9l-1.2,1.7c-5.2-2-8.5-4.2-9.5-6.5c0.5-1.2,1-1.7,1-1.7C222.1,135.4,227.1,137.6,229.9,138.9z"/>
		<path class="st24" d="M226.4,145.4c-5.5-2.2-7.2-5-7.7-7.5c1.7,0.7,4,2,5.7,3.7C225.6,142.6,226.1,144.1,226.4,145.4z"/>
	</g>
</g>
</svg>
