<?xml version="1.0" encoding="utf-8"?>
<!-- Generator: Adobe Illustrator 25.4.1, SVG Export Plug-In . SVG Version: 6.00 Build 0)  -->
<svg version="1.1" xmlns="http://www.w3.org/2000/svg" xmlns:xlink="http://www.w3.org/1999/xlink" x="0px" y="0px"
	 viewBox="0 0 672.4 377.5" style="enable-background:new 0 0 672.4 377.5;" xml:space="preserve">
<style type="text/css">
	.st0{fill:none;stroke:#1B6350;stroke-width:1.275;stroke-miterlimit:10;}
	.st1{opacity:0.25;fill:#2F7630;}
	.st2{fill:#93BAE8;}
	.st3{fill:#0D4720;}
	.st4{fill:none;stroke:#53BDA1;stroke-width:0.7936;stroke-miterlimit:10;}
	.st5{fill:#549353;}
	.st6{fill:#FFFFFF;}
	.st7{fill:#53BDA1;}
	.st8{fill:#2D7625;}
	.st9{fill:#15224A;}
	.st10{fill:#FFD557;}
	.st11{fill:none;stroke:#FFFFFF;stroke-width:0.5941;stroke-linecap:round;stroke-linejoin:round;stroke-miterlimit:10;}
	.st12{fill:#3E63D6;}
	.st13{fill:#F27474;}
	.st14{fill:#784524;}
	.st15{fill:#4A2B16;}
	.st16{fill:none;stroke:#4A2B16;stroke-width:0.7936;stroke-miterlimit:10;}
	.st17{fill:#E85454;}
	.st18{fill:#258A6F;}
	.st19{fill:#9ECBFF;}
	.st20{fill:none;stroke:#1B6350;stroke-width:0.7936;stroke-miterlimit:10;}
	.st21{fill:none;stroke:#94552D;stroke-width:0.7936;stroke-miterlimit:10;}
	.st22{fill:#0C142B;}
	.st23{fill:#C2C2C2;}
	.st24{fill:none;}
	.st25{font-family:'Poppins-SemiBold';}
	.st26{font-size:180px;}
	.st27{fill:none;stroke:#94552D;stroke-width:0.4996;stroke-miterlimit:10;}
	.st28{fill:#2A4391;}
	.st29{fill:#1B6350;}
	.st30{fill:none;stroke:#1B6350;stroke-width:0.5235;stroke-miterlimit:10;}
	.st31{fill:#1A2E35;}
</style>
<g id="BACKGROUND">
</g>
<g id="OBJECTS">
	<polyline class="st0" points="530.4,145.5 558.9,117.3 582.2,130.8 605.6,109.6 624.8,124.4 648.9,103.4 	"/>
	<path class="st1" d="M30.5,376.6h611.4c0,0,0-31.6,0-85.5c0-53.9-20.4-94-82.6-144.8c-43.6-35.6-80.1-59.6-131.2-100.9
		c-60.6-48.8-159-54-217.7,13.1c-58.7,67.2-63.9,105.1-114.1,148.8C55.9,242.5,30.5,276.2,30.5,376.6z"/>
	<path class="st2" d="M167.6,317.6v-13.3h-12.8c-0.8-3.8-2.3-7.3-4.3-10.4l9.1-9.1l-9.4-9.4l-9.1,9.1c-3.1-2-6.6-3.5-10.4-4.3v-12.8
		h-13.3v12.8c-3.8,0.8-7.3,2.3-10.4,4.3l-9.1-9.1l-9.4,9.4l9.1,9.1c-2,3.1-3.5,6.6-4.3,10.4H80.5v13.3h12.8
		c0.8,3.8,2.3,7.3,4.3,10.4l-9.1,9.1l9.4,9.4l9.1-9.1c3.1,2,6.6,3.5,10.4,4.3v12.8h13.3v-12.8c3.8-0.8,7.3-2.3,10.4-4.3l9.1,9.1
		l9.4-9.4l-9.1-9.1c2-3.1,3.5-6.6,4.3-10.4H167.6z M124,326.9c-8.8,0-15.9-7.1-15.9-15.9s7.1-15.9,15.9-15.9s15.9,7.1,15.9,15.9
		S132.8,326.9,124,326.9z"/>
	<g>
		<g>
			<rect y="374.5" class="st3" width="672.4" height="2.1"/>
		</g>
	</g>
	<rect x="479.1" y="44.1" class="st3" width="114" height="57.1"/>
	<rect x="484.6" y="49.5" class="st4" width="103.1" height="46.1"/>
	
		<ellipse transform="matrix(0.2278 -0.9737 0.9737 0.2278 343.3018 578.0901)" class="st5" cx="536.1" cy="72.6" rx="19.7" ry="19.7"/>
	<g>
		<path class="st6" d="M534.7,82.1c-2.1-0.1-4.2-0.6-6.2-1.4v-4.8c1.1,0.6,2.4,1.1,3.7,1.4c1.3,0.4,2.5,0.6,3.5,0.6
			c0.8,0,1.4-0.1,1.8-0.3c0.4-0.2,0.6-0.5,0.6-1c0-0.3-0.1-0.6-0.4-0.8c-0.3-0.2-0.7-0.5-1.4-0.8c-0.6-0.3-1.5-0.6-2.6-1
			c-1.2-0.5-2.2-1-3-1.5c-0.8-0.6-1.3-1.2-1.7-1.9c-0.3-0.7-0.5-1.6-0.5-2.6c0-1.6,0.5-2.9,1.5-3.8c1-0.9,2.6-1.5,4.6-1.7v-2h3v2
			c1.9,0.1,3.9,0.6,5.9,1.4l-1.7,4.2c-2-0.9-3.9-1.4-5.5-1.4c-0.8,0-1.3,0.1-1.6,0.3c-0.3,0.2-0.5,0.5-0.5,0.8
			c0,0.3,0.1,0.6,0.3,0.8c0.2,0.2,0.6,0.4,1.2,0.7c0.6,0.3,1.3,0.6,2.4,0.9c2,0.7,3.5,1.5,4.4,2.5c0.9,0.9,1.3,2.1,1.3,3.6
			c0,1.6-0.5,3-1.6,4c-1,1-2.5,1.7-4.5,1.9v2.8h-3V82.1z"/>
	</g>
	<circle class="st3" cx="419.6" cy="94.6" r="78.5"/>
	<g>
		<path class="st7" d="M462.2,28.6l-5.5,1.5c0,0-1.9,3.2-0.7,4.1c1.2,1,3.3,3,3.7,5.4c0.4,2.5,0,4.8,0,4.8s2.2,0.4,4.4,3.9
			c2.3,3.5,3.4,3.8,3.4,3.8l-2.3,0.9c0,0,1,0,0,1.9c-0.7,1.3-0.5,2.6-2.5,2.7c-2,0.1-3.6,0.8-2.8,2.3c0.7,1.5,6.6,3.1,5.2,5.5
			c-1.4,2.5-1.8-0.2-5.5,2.3c-3.7,2.5,0,5.3-0.9,7c-0.9,1.7-1.7,2.5-0.3,2.8c1.5,0.3,3.3-0.9,3.5,0.7c0.1,0.8,0-0.9,1.5-1.6
			c1.5-0.7,4.5-1.3,4.9-2c0.5-0.7-1.4-1.6-0.6-3.5c0.8-2,1.3-0.2,2.2-0.3c0.9-0.1,0.3-2.2,1.6-3c1.3-0.8,3.9-1,6.5,2.4
			c2.6,3.4,2.9,3.9,2.5,5c-0.4,1.1-1.7,1.4-1.5,2.4c0.2,1,0.8,1.6,1,2.4c0.2,0.7,1.1-0.1,1-1.5c-0.1-1.4,1.7-2.4,1.8-2.8
			c0-0.3,2.6,3.6,3,4.7c0.4,1.1,1.3,1.3,1.4,0.1c0.1-1.2-1-4.6-0.3-5.3c0.7-0.8,1.9-1.6,1.5-4c-0.5-2.4-2.5-3.8-1.7-4.2
			c0.7-0.4,2.4,1.9,3.6,3.6c1.2,1.7,2.7,3.7,2.4,4.6c-0.3,0.8-1-1.5-1.8-1.7c-0.9-0.2-2.9,0.1-3.1,2.4s-0.9,2,0.5,3.8
			c1.4,1.8,1.1,3.3,2.8,3.3c1.7,0.1,1.8-0.8,2,1.2c0.1,2,1.6,5.6,0,5.7c-1.6,0-1.3-2.6-2.2-2.6c-0.9,0-2.8,0.8-3.7-0.9
			c-0.9-1.7-3.9-2.4-4.2-2c-0.3,0.3,2.5,2.2,2,2.8c-0.5,0.6-1.5,0-2.4-1.2c-1-1.1-4.7-2.5-4.7-4c0-1.5,0.7-1.1,0.5-3
			c-0.2-1.9-2.3-1.5-3.1-2.1c-0.8-0.6-1-1.3-3.3,0c-2.2,1.3-2.6,2-4.5,2c-1.9,0-2.9-1.7-4.1-1.1c-1.2,0.6,0,1.7-1.6,2.6
			c-1.5,0.9-2.1,0.3-2.4,1.2c-0.3,0.9,0.2,3.2-0.6,4c-0.8,0.8-2.7,2.5-4.6,4.6c-1.8,2.1-3,1.8-2.6,4.6c0.4,2.9,2.1,4.3,1,6.7
			c-1.2,2.4-2.9,2-1.7,4.2c1.2,2.2,2.3,0.8,2.4,3c0.1,2.2,0.6,2.1,2,3.3c1.4,1.2,0.5,2.5,2.4,3.5c1.9,1,7.3,0.2,7.9-0.1
			c0.6-0.4,0.6-1.9,3.2-1.4c2.6,0.5-0.1,2.5,0.7,3.2c0.8,0.7,3.2-0.6,3.3,1.5c0.2,2-1.4,2.5-1.4,3.8c0,1.3,0.9,2.9,1.1,4.6
			c0.2,1.7-1.2,5.9-2.5,7.4c-1.3,1.5-3.2,2-4.3,3.4c-1.7,2.2-0.7,3.8-1.2,6.6c-0.5,2.9-1.2,2.3-2.9,3.9c-1.7,1.6-1.4,1.1-2.8,3.7
			c-1.4,2.6-7.2,3.3-6.9,5.8c0.3,2.5,4.5-0.2,11.7-2.7c3.3-1.1,7.3-2.9,10.7-4.5c14.6-14.3,23.8-34.2,23.8-56.3
			C498.2,66.9,483.8,42.6,462.2,28.6z"/>
		<path class="st7" d="M420.6,146.8c0.5-1.8,3.4-3.4,4.5-4.1c1-0.7,2.9-6.1,2.9-8.4c0-2.3,4.6-3.9,5-5.6c0.4-1.6-2.5-2-4.1-3.6
			c-1.6-1.6-2.7-1.9-8.1-3.2c-5.4-1.3-2.5-2.7-5.1-5.7c-2.6-3-4.2-1.6-7.9-2.4c-3.7-0.8-1.8-2.6-3.4-4c-1.5-1.4-6.2,0.4-9.6-0.5
			c-3.4-0.9-6.1,0.4-6.9,3.9c-1.4,0.2-4.4,0.8-6.7-1.2c-2.3-2,0.5-5.5-0.3-6.4s-5.5,0.6-5.5-0.2c-0.1-0.8,1.1-3.4,2.7-4.3
			c1.6-0.8-0.3-0.8-3.3-0.8c-3,0-2.3,1.6-3.6,4c-1.3,2.4-4.5,0.3-6-3.1c-1.6-3.4,1.6-4.5,0-5.6c-1.6-1.1-0.6-0.8,1.6-2.9
			c2.3-2.1,5.3-1,4.7-2.7c-0.6-1.7,2.9-0.6,5.9-0.6c3.9,0,3.8,7.1,4.4,7.3c0.6,0.2,1.9-1.7,0.2-6.7c-1.7-4.9,3-7,3.9-8.4
			c0.9-1.4-0.8-2.2,0.2-6.3s6-5.9,5.8-7.9c-0.2-2.1,4.2-3.2,5.1-3.5c1-0.4,0.4,1.4-1.2,3.3c-1.6,1.9-0.1,0.9,0.7,1.2
			c0.8,0.4,3.8-3.4,5.2-4.7c1.4-1.2,0.9-1.5,0.7-2c-0.2-0.6-1.3,0.5-2.1,0.3c-0.8-0.2-1.7,0-2.4-0.6c-0.7-0.6-0.3-1.2,0.6-1.9
			c0.9-0.7,2.5,0.7,2.7-0.3c0.2-1-3.3-1.3-2.2-1.5c1.2-0.2,1.9-0.2,3.3-0.9c1.5-0.7,2.5-1.9,3.1-1.6c0.6,0.3-1,2.1-1.9,2.8
			c-0.9,0.7-1.3,1.8-0.8,2c0.4,0.2,2.1-0.1,2.6,0.2c0.4,0.3,2.1,0.7,3,0.4c0.9-0.2,1.7,2.2,2.2,1.7c0.5-0.5-0.1-2.9-0.7-3.9
			c-0.6-1.1-2.4-1.1-2.8-1.8c-0.4-0.8,0.7-1.6,0.7-2.7s0-1.3-1.1-2.5c-1.1-1.2-2.9,0.8-2.9,0.8s0-0.4-0.1-1.5
			c-0.1-1.1-1.2-0.8-1.6-2.5c-0.4-1.7-2.4-4.4-3.3-4.5c-0.9-0.1-1.2,1.3-2.1,2.2c-1,0.9-1.6,0.7-2-0.3c-0.4-1,1.7-1.1,1.1-2.1
			c-0.5-1.1-1.6-0.3-3.5-1.6c-2-1.2-4.2-0.1-5,0c-0.8,0.1-0.2,1.1-0.2,2.1c0,0.9,0,2.7,0.3,4.7s-1.6,2.6-2.7,3.8
			c-1.1,1.2-0.1,1.5,0.3,2.4s-0.3,2.8-1.3,2.8c-1,0-1.7-1.5-1.6-2.7c0.1-1.2-0.8-1.6-1.4-2.1c-0.6-0.5-1.5,0-2.5-1
			c-1.1-1.1-1.6,0.1-2.9,0.3c-1.3,0.2-1-0.9-1.4-2.1c-0.4-1.1-0.7,0-1.4-0.9c-0.7-0.9,2.7-3.3,4.9-5c2.2-1.8,4.1-1.8,5.1-4.2
			c1-2.4,1.9-1.2,2.7-1.4c0.9-0.2,1,0,2.4-1.7s3.8-3.4,5.3-3.5c1.6,0,1.5,2.1,0.5,3.9c-1,1.8-4.8,1.5-5.3,2.4
			c-0.4,0.9-0.2,0.4,2.7,0.3c2.9-0.2,3,1.6,4.9,2.5c2,0.9,2.7-2.8,3-3.1s2.5,1.1,3.3,0.5c0.8-0.6,1-3.5,1-4.7c0-1.1-2.3-1.1-3.3-3
			c-1.1-1.8-3.6-2-3.8-4.2c-0.1-2.2,1.6-3.4,2.2-4.3c0.6-0.9,2.7-1,2.8-0.4c0.2,0.5,0.9,0.8,3.3,0.4c2.4-0.5,3.3,0.5,4.5,3
			c1.2,2.5,0.6,3.5-0.5,6.1c-1.1,2.6,2.4,4.7,3.7,6.6c1.3,1.8,2.2,0.8,4.5,0.9c2.2,0.1,2.8,3.5,3.9,2.2c1.2-1.3,0.4-5.9,1.9-6.8
			c1.6-0.9,2.8-0.2,3.2-1.5c0.4-1.3,2.1-1.6,5.4-2.7c3.2-1.2,3.2-2.1,2.7-3.1c-0.5-0.9-1.8-2-2.6-3.5c-0.7-1.5,1.8,0.8,1.7-0.1
			c-0.1-0.9-3.6-2.1-4.5-3.5c-0.9-1.5-2.8-1.1-4.9-3c-0.9-0.8-3.2-1.7-5.6-2.3C379.3,17.2,348,45.3,342.1,82
			c1.2,1.1,3.3,3.2,4.6,5.6c2,3.5,3,8.1,3.5,9.5c0.5,1.4,2.3,5,3.6,6.1c1.4,1.1,1-0.1,0.2-2.4c-0.8-2.3-2.2-4.4-2.9-6.8
			c-0.7-2.4-0.5-2,0.4-1.5c0.8,0.5,1,2.6,1.9,5.6c0.9,3,3.2,3.1,4.6,5.4c1.4,2.3,0.3,2.2,1.8,3c1.5,0.7,6.8,1.1,9.3,1.7
			c2.5,0.5,6.1,1.4,8,3.7c1.9,2.2,4.6,4.6,6.6,4c2-0.6,2-1.8,3.5,0.2c1.5,2-1.3,8.2-1.3,10.8c0,2.6,2.3,2.3,4.9,5.6
			c2.7,3.3,3.8,4.1,6.6,4.7c2.8,0.6,4.7,3.6,5.2,6.7c0.5,3.1,3.1,12.8,6.7,18.2c3.7,5.4,8.8,7.3,9.7,7.2c0.9-0.1-2.2-2.6-1.9-3.6
			c0.3-1-2.5-5.1-2.7-6.2c-0.1-1.1,1.1-3.9,2.7-5.4C418.9,152.5,420,148.6,420.6,146.8z"/>
	</g>
	<g>
		<ellipse class="st7" cx="330.5" cy="151.2" rx="10.9" ry="24.3"/>
		
			<ellipse transform="matrix(0.7071 -0.7071 0.7071 0.7071 -34.4736 271.0327)" class="st7" cx="309.9" cy="177.1" rx="10.9" ry="24.3"/>
		<path class="st7" d="M358.8,191.7c-7,7-16.3,10.2-24.9,9.4c-0.8-8.6,2.4-17.9,9.4-24.9c7-7,16.3-10.2,24.9-9.4
			C369,175.4,365.9,184.7,358.8,191.7z"/>
		
			<ellipse transform="matrix(0.7071 -0.7071 0.7071 0.7071 -58.9302 281.1634)" class="st7" cx="309.9" cy="211.7" rx="10.9" ry="24.3"/>
		<path class="st7" d="M358.8,226.3c-7,7-16.3,10.2-24.9,9.4c-0.8-8.6,2.4-17.9,9.4-24.9c7-7,16.3-10.2,24.9-9.4
			C369,210,365.9,219.3,358.8,226.3z"/>
		
			<ellipse transform="matrix(0.7071 -0.7071 0.7071 0.7071 -83.3869 291.2937)" class="st7" cx="309.9" cy="246.3" rx="10.9" ry="24.3"/>
		
			<ellipse transform="matrix(0.7071 -0.7071 0.7071 0.7071 -76.1897 322.3995)" class="st7" cx="351.1" cy="253.2" rx="24.3" ry="10.9"/>
		<path class="st7" d="M302.2,288.6c7,7,16.3,10.2,24.9,9.4c0.8-8.6-2.4-17.9-9.4-24.9s-16.3-10.2-24.9-9.4
			C292,272.3,295.2,281.6,302.2,288.6z"/>
		
			<ellipse transform="matrix(0.7071 -0.7071 0.7071 0.7071 -100.6463 332.5302)" class="st7" cx="351.1" cy="287.8" rx="24.3" ry="10.9"/>
		<path class="st7" d="M330.5,363.8L330.5,363.8c-0.6,0-1-0.5-1-1V152.6h2v210.2C331.5,363.3,331.1,363.8,330.5,363.8z"/>
	</g>
	<rect x="107.1" y="332.3" class="st8" width="460.3" height="44.3"/>
	<g>
		
			<ellipse transform="matrix(0.7071 -0.7071 0.7071 0.7071 44.8014 384.5226)" class="st6" cx="486.6" cy="138.2" rx="24.7" ry="24.7"/>
		<polygon class="st6" points="505,149.3 518.4,168.7 497.4,157.4 		"/>
		<g>
			<path class="st9" d="M489.7,153.8c0,0.8-1.4,1.5-3.1,1.5c-1.7,0-3.1-0.7-3.1-1.5c0-0.8,1.4-1.5,3.1-1.5
				C488.3,152.3,489.7,153,489.7,153.8z"/>
			<path class="st10" d="M497.4,131.9c0-6.7-6.1-12-13-10.6c-4.2,0.8-7.6,4.2-8.5,8.5c-0.7,3.5,0.3,6.7,2.3,9.1
				c1.6,1.9,2.7,4.1,3.5,6.4l0.4,1.1h8.8l0.4-1.2c0.8-2.3,2-4.5,3.5-6.3C496.5,137,497.4,134.6,497.4,131.9z"/>
			<path class="st11" d="M484.1,146.4v-13.6c0-0.5,0.3-0.8,0.7-0.8c0.3,0,0.5,0.2,0.6,0.6c0.1-0.3,0.3-0.6,0.6-0.6
				c0.3,0,0.5,0.2,0.6,0.6c0.1-0.3,0.3-0.6,0.6-0.6c0.3,0,0.5,0.2,0.6,0.6c0.1-0.3,0.3-0.6,0.6-0.6c0.4,0,0.7,0.4,0.7,0.8v13.6"/>
			<path class="st12" d="M491.4,154h-9.7c-0.3,0-0.5-0.2-0.5-0.5v-6.6c0-0.3,0.2-0.5,0.5-0.5h9.7c0.3,0,0.5,0.2,0.5,0.5v6.6
				C491.9,153.8,491.7,154,491.4,154z"/>
			<g>
				<rect x="481.2" y="148" class="st9" width="10.7" height="0.6"/>
				<rect x="481.2" y="149.9" class="st9" width="10.7" height="0.6"/>
				<rect x="481.2" y="151.8" class="st9" width="10.7" height="0.6"/>
			</g>
		</g>
	</g>
	<path class="st13" d="M157.8,331.5l4,29.1c0.3,1.9,1.9,3.4,3.9,3.5l9.5,0.3c0,0,6.7-2.4,9.3-0.4c2,1.5-17.2,9.7-25.8,13.2
		c-1.9,0.8-4.1-0.6-4.2-2.7l-0.3-9.4l-14-30.6L157.8,331.5z"/>
	<path class="st13" d="M78.9,335l-12.1,26.8c-0.8,1.8-0.2,3.9,1.4,5l7.8,5.3c0,0,7,1.6,8.1,4.6c0.9,2.3-19.7-1-28.9-2.5
		c-2.1-0.4-3.1-2.7-2.1-4.5l4.8-8.1l4.5-33.3L78.9,335z"/>
	<path class="st14" d="M129.4,169.8c7.5,20.8,20.8,103.5,20.8,103.5l9.1,61.1l-24,5l-10.7-63.9c0,0-21.2-43.6-35.1-105.7H129.4z"/>
	<path class="st15" d="M132.1,239.1c-15.7-14.7-28.7-32.5-36.2-43.8c13.2,48.1,28.8,80.2,28.8,80.2l10.7,63.9l24-5l-9.1-61.1
		c0,0,0,0,0,0C148.1,260.2,141.8,248.2,132.1,239.1z"/>
	<path class="st14" d="M78.6,169.8c-9.1,15.4-4.4,26.9-4.4,26.9c-2.2,22.4,1.8,73.6,1.8,73.6l-19.4,60.3l22.8,6.3
		c0,0,14.3-31.1,19.2-57.7c5-26.6,15.3-109.4,15.3-109.4H78.6z"/>
	<path class="st16" d="M108.6,211.4c3-22.7,5.4-41.6,5.4-41.6"/>
	<path class="st16" d="M118.2,171.4l-2,15.2c-0.3,2.5-2,4.6-4.3,5.6l-0.8,0.4"/>
	<polyline class="st16" points="91.4,171.4 85.3,270.2 67.6,327.4 	"/>
	<path class="st13" d="M138.4,110.7l23.4,38.9l33.8-11l4.2,6.3c0,0-22.7,15-33.6,20.3c-10.9,5.4-22.8-5.4-32.1-20.7
		C124.8,129.4,138.4,110.7,138.4,110.7z"/>
	<path class="st17" d="M169.3,147.1l-7.6,2.5l-23.4-38.9c0,0-13.5,18.6-4.3,33.9c3.1,5.2,6.5,9.8,10.1,13.5
		c5.3,5.4,14.4,4.3,18.3-2.2C164.5,152.6,166.8,149.4,169.3,147.1z"/>
	<path class="st3" d="M234,142.3c-0.4-0.2-0.8-0.2-1.1-0.1l-24.9,8.3l10.4-21.6l-31.1-15l-0.7,1.5l-4.5-2.2
		c-5.8-2.8-12.9-0.4-15.7,5.5l-3.7,7.6c-2.8,5.8-0.4,12.9,5.5,15.7l5.7,2.8c0.4,2.1,1.7,3.9,3.7,4.9l19,9.2c3.7,1.8,8,1.6,11.5-0.4
		l24-14c0.8-0.5,1.7-0.7,2.7-0.6l3.2,0.3L234,142.3z M169.1,140.2c-4.8-2.3-6.8-8.1-4.5-12.9l3.7-7.6c2.3-4.8,8.1-6.8,12.9-4.5
		l4.5,2.2l-11.2,23.3c-0.3,0.6-0.5,1.2-0.6,1.8L169.1,140.2z"/>
	<path class="st18" d="M116.3,99.5c0,0,11.5,3,22,11.2c0,0-1.9,7.7-0.8,14.1c1,6.4,1.5,12.2-3.4,19.3l-2.9,18.6c0,0,4.1,9.3-3.4,9.3
		c-7.4,0-41.8,0-46.9,0s-6-8.4-0.6-11.9l-2.4-46.1c0,0,11.6-9.9,24.5-15.9L116.3,99.5z"/>
	<path class="st19" d="M116.3,99.5l-13.9-1.3c-2.6,1.2-5.2,2.6-7.7,4.1l9,8.8c2.1,2.1,5.5,2.1,7.7,0.1l3.6-3.3l4.3,2.8
		c1.5,1,3.6,0.1,3.8-1.8l0.9-6.6C119.5,100.3,116.3,99.5,116.3,99.5z"/>
	<path class="st20" d="M115.7,110.7l1.3,18c0.2,2.9,0,5.8-0.6,8.6l-7,30.9"/>
	<path class="st21" d="M56.6,330.6"/>
	<line class="st21" x1="58.5" y1="324.6" x2="81.7" y2="331.8"/>
	<line class="st21" x1="134.5" y1="334.1" x2="158.6" y2="329.4"/>
	<path class="st3" d="M175.1,364.4l-8.7-0.3l-1.7,5.1l-10.4,0.7l0.1,4.6c0.1,2.1,2.2,3.5,4.2,2.7c8.6-3.5,27.8-11.7,25.8-13.2
		C181.9,362,175.1,364.4,175.1,364.4z"/>
	<path class="st3" d="M76.1,372.1l-7.2-4.9l-4.2,3.4l-9.2-4.9l-2.3,4c-1.1,1.8,0,4.1,2.1,4.5c9.2,1.6,29.8,4.9,28.9,2.5
		C83.1,373.7,76.1,372.1,76.1,372.1z"/>
	<path class="st13" d="M77.9,114.1c5.7-2.7,12.2,1.9,16.9,10.3c4.8,8.4,15.7,24.4,15.7,24.4l44.9-18l7.5-9.2c1-1.3,2.7-1.9,4.3-1.6
		l4.7,0.9c1.1,0.2,1.8,1.4,1.5,2.4l-2.2,6.9c-0.6,1.8-2,3.1-3.8,3.5l-8,1.9c0,0-24.9,19.9-33.9,27.2s-22.3,12.1-33.1-3.1
		C81.7,144.6,64.4,120.6,77.9,114.1z"/>
	<g>
		<path class="st9" d="M96.6,67.8c-3.1-5.9-12.6-7.4-16.2,1.5c-3.6,8.9,2.8,12.9,2.8,12.9s-2.5,4.7-0.1,7.7C80.4,92,77.4,93,77.4,93
			s5.7,4.6,13.1-1.4C98.6,85.1,96.6,67.8,96.6,67.8z"/>
		<path class="st22" d="M94.3,86.4c3.5-7.8,2.3-18.7,2.3-18.7c-0.7-1.3-1.6-2.4-2.8-3.2c-0.6,0.4-1.3,0.8-1.9,1.3
			C87,69.9,85.3,82.7,94.3,86.4z"/>
		<ellipse class="st6" cx="92.4" cy="71.2" rx="4" ry="4.6"/>
		<path class="st9" d="M119.1,68.4c4.5-0.6,3.1-7.8-3-8.2c-6.1-0.4-9.9,2-9.9,2s-6.3-1.9-11.7,2.5c-5.7,4.7-7.1,21.6,8.2,21.6
			L119.1,68.4z"/>
		<path class="st13" d="M121.1,83.1c0.1-3.8-2.1-7-2.1-7l0.1-7.7c0,0-4.8,1.1-8.9-0.6c0,0,0.2,6-5.3,9.9c-0.8-1.2-2.1-1.9-3.2-1.6
			c-1.7,0.4-2.5,2.7-1.9,5.1c0.5,1.9,1.7,3.2,2.9,3.6l-0.3,13.4l11.9,8.2l2-6.8l-1.1-9.4C115.2,90,121,89.1,121.1,83.1z"/>
		<path class="st17" d="M115.2,90c-2.9,0.7-5.4,0.1-7.3-0.9c-0.8-0.4-1.7,0.4-1.3,1.3c1.5,3.4,4.5,8.1,9.6,8L115.2,90z"/>
	</g>
	<rect x="299.5" class="st3" width="23.5" height="83.3"/>
	<rect x="270.1" y="17" class="st5" width="23.5" height="66.4"/>
	<rect x="240.8" y="39.1" class="st3" width="23.5" height="44.2"/>
	<rect x="211.5" y="49.7" class="st5" width="23.5" height="33.6"/>
	<line class="st3" x1="205.8" y1="83.6" x2="328.7" y2="83.6"/>
	<circle class="st3" cx="530.4" cy="145.5" r="3.8"/>
	<circle class="st3" cx="558.9" cy="117.3" r="3.8"/>
	<path class="st3" d="M586,130.8c0,2.1-1.7,3.8-3.8,3.8s-3.8-1.7-3.8-3.8s1.7-3.8,3.8-3.8S586,128.6,586,130.8z"/>
	<path class="st3" d="M609.5,109.6c0,2.1-1.7,3.8-3.8,3.8c-2.1,0-3.8-1.7-3.8-3.8c0-2.1,1.7-3.8,3.8-3.8
		C607.8,105.8,609.5,107.5,609.5,109.6z"/>
	<path class="st3" d="M628.6,124.4c0,2.1-1.7,3.8-3.8,3.8c-2.1,0-3.8-1.7-3.8-3.8c0-2.1,1.7-3.8,3.8-3.8
		C626.9,120.6,628.6,122.3,628.6,124.4z"/>
	
		<ellipse transform="matrix(0.2388 -0.9711 0.9711 0.2388 61.8843 203.2008)" class="st3" cx="160.6" cy="62.1" rx="26.9" ry="26.9"/>
	<path class="st5" d="M169.8,49.7c-5.3-2.2-9.2,2.8-9.2,2.8s-4-5-9.2-2.8c-5.7,2.4-4.3,10-1.8,14.2c3.8,6.5,11,11.2,11,11.2
		s7.2-4.7,11-11.2C174,59.7,175.5,52.1,169.8,49.7z"/>
	<polygon class="st3" points="140.9,74.4 126.5,92.5 148.8,83.3 	"/>
	<g>
		<g>
			
				<ellipse transform="matrix(0.2288 -0.9735 0.9735 0.2288 108.9099 398.99)" class="st3" cx="306.3" cy="130.8" rx="9.4" ry="9.4"/>
			
				<ellipse transform="matrix(0.7071 -0.7071 0.7071 0.7071 -24.7023 241.1651)" class="st3" cx="278.8" cy="150.4" rx="9.4" ry="9.4"/>
			
				<ellipse transform="matrix(0.7071 -0.7071 0.7071 0.7071 2.0868 217.6831)" class="st3" cx="263.8" cy="106.3" rx="9.4" ry="9.4"/>
			
				<ellipse transform="matrix(0.2307 -0.973 0.973 0.2307 -30.0853 317.3603)" class="st3" cx="185.7" cy="177.7" rx="9.4" ry="9.4"/>
		</g>
	</g>
	<g>
		
			<rect x="495" y="250.5" transform="matrix(-1 -1.224647e-16 1.224647e-16 -1 1080.8867 507.3307)" class="st23" width="90.9" height="6.3"/>
		<g>
			<rect x="532.2" y="256.8" class="st23" width="5" height="119.8"/>
			<rect x="573.9" y="256.8" class="st23" width="5" height="119.8"/>
			<rect x="537.1" y="256.8" class="st23" width="36.8" height="16.3"/>
		</g>
	</g>
	<g>
		<rect x="434.3" y="250.5" class="st6" width="60.7" height="6.3"/>
		<g>
			<rect x="441.3" y="256.8" class="st23" width="5" height="119.8"/>
			<rect x="483.1" y="256.8" class="st23" width="5" height="119.8"/>
			<rect x="446.3" y="256.8" class="st23" width="36.8" height="16.3"/>
		</g>
	</g>
	<path class="st6" d="M342.2,366.6v10h41.7c0-13.3,10.8-24.1,24.1-24.1s24.1,10.8,24.1,24.1h41.7v-10h-19.4
		c-1.2-5.7-3.5-11-6.5-15.7l13.7-13.7L447.4,323l-13.7,13.7c-4.7-3.1-10-5.3-15.7-6.5v-19.4h-20v19.4c-5.7,1.2-11,3.5-15.7,6.5
		L368.5,323l-14.2,14.2l13.7,13.7c-3.1,4.7-5.3,10-6.5,15.7H342.2z"/>
	
		<image style="overflow:visible;" width="314" height="315" xlink:href="B3CC44AA.jpg"  transform="matrix(1 0 0 1 -7678.5815 -7709.4629)">
	</image>
	<g>
		<rect x="161.8" y="198.7" class="st24" width="344.3" height="145.5"/>
		<text transform="matrix(1 0 0 1 161.8302 331.9028)" class="st3 st25 st26">ESG</text>
	</g>
	<g>
		<ellipse class="st7" cx="243.7" cy="151.2" rx="10.9" ry="24.3"/>
		<path class="st7" d="M215.4,184.9c7,7,16.3,10.2,24.9,9.4c0.8-8.6-2.4-17.9-9.4-24.9c-7-7-16.3-10.2-24.9-9.4
			C205.1,168.5,208.3,177.8,215.4,184.9z"/>
		
			<ellipse transform="matrix(0.7071 -0.7071 0.7071 0.7071 -52.7124 240.7309)" class="st7" cx="264.2" cy="184" rx="24.3" ry="10.9"/>
		<path class="st7" d="M215.4,219.4c7,7,16.3,10.2,24.9,9.4c0.8-8.6-2.4-17.9-9.4-24.9c-7-7-16.3-10.2-24.9-9.4
			C205.1,203.1,208.3,212.4,215.4,219.4z"/>
		
			<ellipse transform="matrix(0.7071 -0.7071 0.7071 0.7071 -77.1691 250.8612)" class="st7" cx="264.2" cy="218.6" rx="24.3" ry="10.9"/>
		<path class="st7" d="M215.4,254c7,7,16.3,10.2,24.9,9.4c0.8-8.6-2.4-17.9-9.4-24.9c-7-7-16.3-10.2-24.9-9.4
			C205.1,237.7,208.3,247,215.4,254z"/>
		<path class="st7" d="M272,260.9c-7,7-16.3,10.2-24.9,9.4c-0.8-8.6,2.4-17.9,9.4-24.9c7-7,16.3-10.2,24.9-9.4
			C282.2,244.6,279,253.8,272,260.9z"/>
		
			<ellipse transform="matrix(0.7071 -0.7071 0.7071 0.7071 -133.2797 240.016)" class="st7" cx="223.1" cy="280.9" rx="10.9" ry="24.3"/>
		<path class="st7" d="M272,295.5c-7,7-16.3,10.2-24.9,9.4c-0.8-8.6,2.4-17.9,9.4-24.9s16.3-10.2,24.9-9.4
			C282.2,279.2,279,288.4,272,295.5z"/>
		<path class="st7" d="M243.7,363.8L243.7,363.8c-0.6,0-1-0.5-1-1V152.6h2v210.2C244.7,363.3,244.2,363.8,243.7,363.8z"/>
	</g>
	<rect x="444.4" y="176.1" class="st3" width="93.9" height="62.5"/>
	<rect x="447.3" y="178.8" class="st6" width="88.1" height="57"/>
	<g>
		
			<ellipse transform="matrix(0.7071 -0.7071 0.7071 0.7071 -2.68 408.187)" class="st27" cx="491.4" cy="207.3" rx="24.3" ry="24.3"/>
		<path class="st12" d="M515.1,202.4c-2.3-11-12.1-19.3-23.8-19.3v24.3L515.1,202.4z"/>
		<path class="st17" d="M473.8,190.6l17.6,16.7v-24.3C484.5,183.1,478.2,186,473.8,190.6z"/>
		<path class="st28" d="M473.8,190.6c-4.1,4.4-6.7,10.2-6.7,16.7c0,8.4,4.3,15.8,10.7,20.1l13.5-20.1L473.8,190.6z"/>
		<path class="st7" d="M514.7,214.1c0.6-2.2,1-4.4,1-6.8c0-1.7-0.2-3.3-0.5-4.9l-23.8,4.9L514.7,214.1z"/>
		<path class="st10" d="M491.4,207.3l-13.5,20.1c3.9,2.6,8.5,4.1,13.5,4.1c11,0,20.3-7.4,23.3-17.4L491.4,207.3z"/>
	</g>
	<rect x="473.2" y="238.6" class="st28" width="36.3" height="11.9"/>
	<path class="st9" d="M525.7,156c-4.8-1-6.5-5.9-4.1-9.2c2.5-3.3,10-5.4,16.4-3.7c6.1-1.6,10.3-0.7,10.3,5.7
		c5.4-1.6,6.7,10.3-0.1,16.2l-12.4,2.7L525.7,156z"/>
	<g>
		<path class="st13" d="M488.7,356l-1.3,6.3c-0.6,2.8-2.6,5-5.3,5.8l-6.8,2.1c-2.1,0.6-3.9,2-5.1,3.8l-0.2,0.3c-0.7,1,0,2.3,1.2,2.3
			h30.4c0,0,0.4-3-1.4-7.5c-0.8-2-0.9-4.3-0.2-6.3l2.3-6.8H488.7z"/>
		<path class="st9" d="M471.3,376.6h30.4c0,0,0.4-3-1.4-7.5c0,0,0,0,0,0h-7.5c-1.4-3-4.6-4.1-6.2-4.5c-1,1.7-2.5,2.9-4.4,3.5
			l-6.8,2.1c-2.1,0.6-3.9,2-5.1,3.8l-0.2,0.3C469.4,375.2,470.1,376.6,471.3,376.6z"/>
	</g>
	<g>
		<path class="st13" d="M527.2,356l-1.3,6.3c-0.6,2.8-2.6,5-5.3,5.8l-6.8,2.1c-2.1,0.6-3.9,2-5.1,3.8l-0.2,0.3c-0.7,1,0,2.3,1.2,2.3
			h30.4c0,0,0.4-3-1.4-7.5c-0.8-2-0.9-4.3-0.2-6.3l2.3-6.8H527.2z"/>
		<path class="st9" d="M509.8,376.6h30.4c0,0,0.4-3-1.4-7.5c0,0,0,0,0,0h-7.5c-1.4-3-4.6-4.1-6.2-4.5c-1,1.7-2.5,2.9-4.4,3.5
			l-6.8,2.1c-2.1,0.6-3.9,2-5.1,3.8l-0.2,0.3C507.9,375.2,508.6,376.6,509.8,376.6z"/>
	</g>
	<path class="st18" d="M564,260.5c-12.3,1.2-22.6,10.2-25.1,22.5L523.7,357h20.3c0,0,7.1-11.5,5.3-20.5c5.8-10.8,5.5-18.5,5.5-18.5
		s8-11.4,9.2-25.2V260.5z"/>
	<path class="st29" d="M538.4,285.7l-5.1,24.6c8.7-11.4,24.2-14.4,30.4-15.2c0.1-0.7,0.2-1.5,0.3-2.2v-6.2L538.4,285.7z"/>
	<path class="st30" d="M540.7,322.7c0,0,4.7,3.4,6.5,9.6"/>
	<polygon class="st3" points="551.4,376.6 548.3,376.6 560.2,296.7 567.4,296.7 	"/>
	<path class="st13" d="M548.3,165.1l-5.3,0c0.5-0.5,0.8-1,1.1-1.7c0.9-2.2,0.2-4.6-1.5-5.3c-1.8-0.7-3.9,0.5-4.8,2.7
		c-0.3,0.7-0.4,1.3-0.4,2c-1.6-1.4-3.1-3.6-3.1-6.9c0,0-4.3,1.2-8.6,0.3v5.9l-1.9,5.1h2.2c0,0-0.2,13.2,11.9,8.6l3,5.9l16.2-5.2
		L548.3,165.1z"/>
	<path class="st17" d="M545.6,180.1l-2-9.1c-0.3-1.2-1.8-1.4-2.5-0.4c-2.2,3.6-5.9,6.2-8.4,6c1.4,0.1,3.1-0.2,5.2-0.9l3,5.9
		L545.6,180.1z"/>
	<path class="st9" d="M524.4,195.2c-2.7-6.4,0.7-13.8,7.3-15.9c6.8-2.2,16-4.3,26.7-4.3c0.6,0,1.1,0,1.7,0
		c14.5,0.5,27.5,9.1,34.1,22.1c7.1,13.8,15.9,36.4,15.9,63.3h-67c0,0-1.5-5.4,3.3-12.5L524.4,195.2z"/>
	<path class="st22" d="M543.9,208.6c0,0,4,4.9,1.3,17.5c3,10.3,0,18.8,0,18.8l-10.4-24.9L543.9,208.6z"/>
	<path class="st18" d="M501.7,283.1L486.5,357h20.3c0,0,7.1-11.5,5.3-20.5c5.8-10.8,5.5-18.5,5.5-18.5s8-11.4,9.2-25.2h56.5
		c13.8,0,25.2-10.6,26.2-24.4l0.6-8.1h-80.6C516,260.4,504.4,269.9,501.7,283.1z"/>
	<path class="st29" d="M521.8,292.9c0,0-2.5-3.6-3.9-7.3c-1.4-3.7,2.5-7,7.5-4.1c5.1,2.8,20,9.5,27.3,7.9
		C552.8,289.4,543.3,296.2,521.8,292.9z"/>
	<path class="st3" d="M619.9,191.8h-32.4c-6.6,0-13,5.3-14.4,11.9l-15.6,73.2c-2.6,11.5-7.7,14.5-37.3,14.5c0,0,1.7,5.4,6.1,5.4
		c0,0,53.9,0,63.6,0c14.5,0,21.4-9.2,23.7-19.8l15.6-73.2C630.6,197.1,626.4,191.8,619.9,191.8z"/>
	<path class="st13" d="M479.8,250.5h-19.6l1.1-1.3c1.1-1.3,2.5-2.3,4.1-2.9l15.7-5.9L479.8,250.5z"/>
	<path class="st30" d="M507.4,311c0,0-0.7,3.6,6.8,8.2"/>
	<polygon class="st5" points="521.7,376.6 518.6,376.6 530.5,296.7 537.6,296.7 	"/>
	<polygon class="st5" points="577.1,376.6 580.1,376.6 561.8,296.7 554.7,296.7 	"/>
	<polygon class="st3" points="606.8,376.6 609.9,376.6 591.5,296.7 584.4,296.7 	"/>
	<polygon class="st3" points="561.8,296.7 554.7,296.7 555.5,299.7 562.6,300.1 	"/>
	<polygon class="st3" points="537.6,296.7 530.5,296.7 530.3,298.1 537.3,298.6 	"/>
	<path class="st9" d="M530.6,179.7c-8.6,2.5-8,6.4-14.3,21.6c-6.2,15.2-12.3,30.2-12.3,30.2l-28,8.1c0,0-3.1,3.1,0,10.9h37.5
		c8.2,0,15.6-4.7,19-12.1l13-28.2L530.6,179.7z"/>
	
		<image style="overflow:visible;" width="566" height="464" xlink:href="B3CC44AE.jpg"  transform="matrix(0.9999 0 0 0.9999 23.3185 463.0528)">
	</image>
	<path class="st3" d="M652.7,103.4c0,2.1-1.7,3.8-3.8,3.8s-3.8-1.7-3.8-3.8c0-2.1,1.7-3.8,3.8-3.8S652.7,101.3,652.7,103.4z"/>
	<path class="st31" d="M111.2,80.7c0.3,0.5,0.8,0.8,1.1,0.6c0.3-0.2,0.4-0.7,0.1-1.2s-0.8-0.8-1.1-0.6
		C110.9,79.6,110.9,80.2,111.2,80.7z"/>
	<path class="st31" d="M117.1,77.8c0.3,0.5,0.8,0.8,1.1,0.6c0.3-0.2,0.4-0.7,0.1-1.2c-0.3-0.5-0.8-0.8-1.1-0.6
		C116.8,76.7,116.8,77.2,117.1,77.8z"/>
	<path class="st17" d="M115.3,78.6c0,0,2.2,2.2,4,2.9c-0.5,1.1-2,1.3-2,1.3L115.3,78.6z"/>
	<path class="st31" d="M118.7,85.7c-1.7,1.5-3.6,1.3-3.7,1.3c-0.1,0-0.2-0.1-0.1-0.2c0-0.1,0.1-0.2,0.2-0.1c0,0,2.2,0.3,3.9-1.7
		c0.1-0.1,0.2-0.1,0.2,0c0.1,0.1,0.1,0.2,0,0.2C119,85.4,118.9,85.5,118.7,85.7z"/>
	<path class="st31" d="M107.6,78.4c-0.1,0-0.1,0-0.2,0c-0.2-0.1-0.3-0.3-0.2-0.4c0.7-1.7,2.3-2,2.3-2c0.2,0,0.4,0.1,0.4,0.3
		c0,0.2-0.1,0.4-0.3,0.4c-0.1,0-1.3,0.3-1.8,1.6C107.8,78.3,107.7,78.4,107.6,78.4z"/>
	<path class="st31" d="M118.3,74.2c-0.1,0.1-0.2,0.1-0.3,0c-1.5-0.5-2.5,0.2-2.5,0.2c-0.2,0.1-0.4,0.1-0.5-0.1
		c-0.1-0.2-0.1-0.4,0.1-0.5c0,0,0,0,0,0c0.1,0,1.4-0.9,3.1-0.3c0.2,0.1,0.3,0.3,0.2,0.4C118.4,74.1,118.3,74.2,118.3,74.2z"/>
	<path class="st31" d="M531.1,162.8c-0.1,0.6-0.5,1.1-0.9,1c-0.4,0-0.7-0.6-0.6-1.2c0.1-0.6,0.5-1.1,0.9-1
		C531,161.6,531.2,162.2,531.1,162.8z"/>
	<path class="st31" d="M528,171.3c2.5,0,3.9-1.6,4-1.6c0.1-0.1,0.1-0.2,0-0.3c-0.1-0.1-0.2-0.1-0.3,0c0,0-1.6,1.8-4.4,1.5
		c-0.1,0-0.2,0.1-0.2,0.2c0,0.1,0.1,0.2,0.2,0.2C527.6,171.3,527.8,171.3,528,171.3z"/>
	<path class="st31" d="M533.4,160.9c0.1,0,0.1,0,0.2-0.1c0.2-0.1,0.2-0.4,0-0.5c-1.4-1.5-3.1-1.2-3.1-1.2c-0.2,0-0.3,0.2-0.3,0.4
		c0,0.2,0.2,0.3,0.4,0.3c0.1,0,1.4-0.2,2.5,1C533.1,160.9,533.3,161,533.4,160.9z"/>
	<path class="st31" d="M526.3,159C526.3,159,526.3,159,526.3,159c0,0-0.3-0.3-0.6,0.4c0,0.3,0,0.6,0,1c0.3-1,0.5-0.7,0.5-0.7
		c0,0.1,0.1-0.1,0.1-0.3C526.4,159.3,526.4,159.1,526.3,159z"/>
</g>
</svg>
