<svg width="24" height="24" viewBox="0 0 24 24" fill="none" xmlns="http://www.w3.org/2000/svg">
<rect x="0.5" y="0.5" width="23" height="23" rx="3.5" fill="white"/>
<rect x="0.5" y="0.5" width="23" height="23" rx="3.5" stroke="#DDDEE1"/>
<path d="M5.90909 9.18182L7.08239 11.1648H7.12784L8.30682 9.18182H9.69602L7.92045 12.0909L9.7358 15H8.32102L7.12784 13.0142H7.08239L5.8892 15H4.48011L6.30114 12.0909L4.5142 9.18182H5.90909ZM10.4744 15V9.18182H11.7045V13.9858H14.1989V15H10.4744ZM18.1697 10.8551C18.147 10.6259 18.0495 10.4479 17.8771 10.321C17.7048 10.1941 17.4709 10.1307 17.1754 10.1307C16.9747 10.1307 16.8052 10.1591 16.6669 10.2159C16.5286 10.2708 16.4226 10.3475 16.3487 10.446C16.2768 10.5445 16.2408 10.6562 16.2408 10.7812C16.237 10.8854 16.2588 10.9763 16.3061 11.054C16.3554 11.1316 16.4226 11.1989 16.5078 11.2557C16.593 11.3106 16.6915 11.3589 16.8033 11.4006C16.915 11.4403 17.0343 11.4744 17.1612 11.5028L17.6839 11.6278C17.9377 11.6847 18.1707 11.7604 18.3828 11.8551C18.5949 11.9498 18.7786 12.0663 18.9339 12.2045C19.0893 12.3428 19.2095 12.5057 19.2947 12.6932C19.3819 12.8807 19.4264 13.0956 19.4283 13.3381C19.4264 13.6941 19.3355 14.0028 19.1555 14.2642C18.9775 14.5237 18.7199 14.7254 18.3828 14.8693C18.0476 15.0114 17.6432 15.0824 17.1697 15.0824C16.7 15.0824 16.291 15.0104 15.9425 14.8665C15.5959 14.7225 15.325 14.5095 15.13 14.2273C14.9368 13.9432 14.8355 13.5919 14.826 13.1733H16.0163C16.0296 13.3684 16.0855 13.5312 16.1839 13.6619C16.2843 13.7907 16.4179 13.8883 16.5845 13.9545C16.7531 14.0189 16.9434 14.0511 17.1555 14.0511C17.3639 14.0511 17.5447 14.0208 17.6982 13.9602C17.8535 13.8996 17.9737 13.8153 18.0589 13.7074C18.1442 13.5994 18.1868 13.4754 18.1868 13.3352C18.1868 13.2045 18.148 13.0947 18.0703 13.0057C17.9946 12.9167 17.8828 12.8409 17.7351 12.7784C17.5893 12.7159 17.4103 12.6591 17.1982 12.608L16.5646 12.4489C16.0741 12.3295 15.6868 12.143 15.4027 11.8892C15.1186 11.6354 14.9775 11.2936 14.9794 10.8636C14.9775 10.5114 15.0713 10.2036 15.2607 9.94034C15.4519 9.67708 15.7143 9.47159 16.0476 9.32386C16.3809 9.17614 16.7597 9.10227 17.1839 9.10227C17.6158 9.10227 17.9927 9.17614 18.3146 9.32386C18.6385 9.47159 18.8904 9.67708 19.0703 9.94034C19.2502 10.2036 19.343 10.5085 19.3487 10.8551H18.1697Z" fill="#00AC54"/>
<rect x="0.5" y="0.5" width="23" height="23" rx="3.5" fill="white"/>
<rect x="0.5" y="0.5" width="23" height="23" rx="3.5" stroke="#DDDEE1"/>
<path d="M14.6251 6.75H9.37506C8.97737 6.75043 8.59609 6.90861 8.31488 7.18982C8.03367 7.47103 7.8755 7.85231 7.87506 8.25V15.75C7.8755 16.1477 8.03367 16.529 8.31488 16.8102C8.59609 17.0914 8.97737 17.2496 9.37506 17.25H14.6251C15.0228 17.2496 15.404 17.0914 15.6852 16.8102C15.9665 16.529 16.1246 16.1477 16.1251 15.75V8.25C16.1246 7.85231 15.9665 7.47103 15.6852 7.18982C15.404 6.90861 15.0228 6.75043 14.6251 6.75ZM12.0001 13.125H10.1251C10.0256 13.125 9.93022 13.0855 9.8599 13.0152C9.78957 12.9448 9.75006 12.8495 9.75006 12.75C9.75006 12.6505 9.78957 12.5552 9.8599 12.4848C9.93022 12.4145 10.0256 12.375 10.1251 12.375H12.0001C12.0995 12.375 12.1949 12.4145 12.2652 12.4848C12.3356 12.5552 12.3751 12.6505 12.3751 12.75C12.3751 12.8495 12.3356 12.9448 12.2652 13.0152C12.1949 13.0855 12.0995 13.125 12.0001 13.125ZM13.8751 11.25H10.1251C10.0256 11.25 9.93022 11.2105 9.8599 11.1402C9.78957 11.0698 9.75006 10.9745 9.75006 10.875C9.75006 10.7755 9.78957 10.6802 9.8599 10.6098C9.93022 10.5395 10.0256 10.5 10.1251 10.5H13.8751C13.9745 10.5 14.0699 10.5395 14.1402 10.6098C14.2106 10.6802 14.2501 10.7755 14.2501 10.875C14.2501 10.9745 14.2106 11.0698 14.1402 11.1402C14.0699 11.2105 13.9745 11.25 13.8751 11.25ZM13.8751 9.375H10.1251C10.0256 9.375 9.93022 9.33549 9.8599 9.26516C9.78957 9.19484 9.75006 9.09946 9.75006 9C9.75006 8.90054 9.78957 8.80516 9.8599 8.73483C9.93022 8.66451 10.0256 8.625 10.1251 8.625H13.8751C13.9745 8.625 14.0699 8.66451 14.1402 8.73483C14.2106 8.80516 14.2501 8.90054 14.2501 9C14.2501 9.09946 14.2106 9.19484 14.1402 9.26516C14.0699 9.33549 13.9745 9.375 13.8751 9.375Z" fill="#5380C0"/>
<rect x="0.5" y="0.5" width="23" height="23" rx="3.5" fill="white"/>
<rect x="0.5" y="0.5" width="23" height="23" rx="3.5" stroke="#DDDEE1"/>
<path d="M16.6875 7.5H7.3125C7.16332 7.5 7.02024 7.55926 6.91475 7.66475C6.80926 7.77024 6.75 7.91332 6.75 8.0625V15.9375C6.75 16.0867 6.80926 16.2298 6.91475 16.3352C7.02024 16.4407 7.16332 16.5 7.3125 16.5H16.6875C16.8367 16.5 16.9798 16.4407 17.0852 16.3352C17.1907 16.2298 17.25 16.0867 17.25 15.9375V8.0625C17.25 7.91332 17.1907 7.77024 17.0852 7.66475C16.9798 7.55926 16.8367 7.5 16.6875 7.5ZM13.7723 9.00469C14.0026 8.98359 14.2339 9.03397 14.4345 9.14899C14.6351 9.264 14.7954 9.43806 14.8936 9.64746C14.9918 9.85685 15.023 10.0914 14.9831 10.3192C14.9432 10.547 14.834 10.757 14.6705 10.9205C14.507 11.084 14.297 11.1932 14.0692 11.2331C13.8414 11.273 13.6069 11.2418 13.3975 11.1436C13.1881 11.0454 13.014 10.8851 12.899 10.6845C12.784 10.4839 12.7336 10.2526 12.7547 10.0223C12.7787 9.76054 12.8936 9.5154 13.0795 9.3295C13.2654 9.1436 13.5105 9.02868 13.7723 9.00469ZM7.78125 15.75C7.70666 15.75 7.63512 15.7204 7.58238 15.6676C7.52963 15.6149 7.5 15.5433 7.5 15.4687V13.4149L10.515 10.7344L12.7873 13.002L10.0399 15.75H7.78125ZM16.5 15.4687C16.5 15.5433 16.4704 15.6149 16.4176 15.6676C16.3649 15.7204 16.2933 15.75 16.2187 15.75H11.1007L14.6053 12.2454L16.5 13.8244V15.4687Z" fill="#809BBE"/>
<rect x="0.5" y="0.5" width="23" height="23" rx="3.5" fill="white"/>
<rect x="0.5" y="0.5" width="23" height="23" rx="3.5" stroke="#DDDEE1"/>
<path d="M10.4545 15.7029L14.2777 12.4268C14.3392 12.374 14.3887 12.3085 14.4226 12.2347C14.4565 12.161 14.474 12.0809 14.474 11.9997C14.474 11.9186 14.4565 11.8384 14.4226 11.7647C14.3887 11.691 14.3392 11.6255 14.2777 11.5727L10.4545 8.29661C10.0896 7.98395 9.52594 8.24317 9.52594 8.72364V15.2768C9.52594 15.7572 10.0896 16.0165 10.4545 15.7029Z" fill="#EE3E2C"/>
<rect x="0.5" y="0.5" width="23" height="23" rx="3.5" fill="white"/>
<rect x="0.5" y="0.5" width="23" height="23" rx="3.5" stroke="#DDDEE1"/>
<g clip-path="url(#clip0_373_3089)">
<path d="M10.3889 18.0005C11.4625 18.0005 12.3339 17.1291 12.3339 16.0554V14.1104H10.3889C9.31518 14.1104 8.44379 14.9817 8.44379 16.0554C8.44379 17.1291 9.31518 18.0005 10.3889 18.0005Z" fill="#1AD285"/>
<path d="M8.44379 12.1658C8.44379 11.0921 9.31518 10.2207 10.3889 10.2207H12.3339V14.1108H10.3889C9.31518 14.1108 8.44379 13.2394 8.44379 12.1658Z" fill="#7F43FF"/>
<path d="M8.44379 8.27514C8.44379 7.20147 9.31518 6.33008 10.3889 6.33008H12.3339V10.2202H10.3889C9.31518 10.2202 8.44379 9.34882 8.44379 8.27514Z" fill="#C00045"/>
<path d="M12.3336 6.33008H14.2786C15.3523 6.33008 16.2237 7.20147 16.2237 8.27514C16.2237 9.34882 15.3523 10.2202 14.2786 10.2202H12.3336V6.33008Z" fill="#FF5252"/>
<path d="M16.2237 12.1658C16.2237 13.2394 15.3523 14.1108 14.2786 14.1108C13.2049 14.1108 12.3336 13.2394 12.3336 12.1658C12.3336 11.0921 13.2049 10.2207 14.2786 10.2207C15.3523 10.2207 16.2237 11.0921 16.2237 12.1658Z" fill="#00BBF5"/>
</g>
<rect x="0.5" y="0.5" width="23" height="23" rx="3.5" fill="white"/>
<rect x="0.5" y="0.5" width="23" height="23" rx="3.5" stroke="#DDDEE1"/>
<path d="M15.8869 6.87499C15.8127 6.81782 15.7263 6.77863 15.6344 6.76049C15.5425 6.74235 15.4476 6.74577 15.3572 6.77046L10.6857 8.02624C10.5236 8.06978 10.3805 8.16595 10.2791 8.29963C10.1776 8.43331 10.1234 8.59693 10.125 8.76476V14.0616C10.125 14.2196 10.0229 14.356 9.86465 14.4092L9.86184 14.4104L8.64309 14.8323C8.17692 14.9881 7.87504 15.421 7.87504 15.9345C7.87334 16.1434 7.92191 16.3496 8.01668 16.5357C8.11144 16.7219 8.2496 16.8825 8.4195 17.004C8.63828 17.1629 8.90166 17.2487 9.17207 17.2491C9.31355 17.2489 9.45404 17.2257 9.58809 17.1805L9.597 17.1774L10.1089 16.9913C10.3309 16.9172 10.5242 16.7754 10.6616 16.5859C10.799 16.3964 10.8736 16.1686 10.875 15.9345V10.9658C10.875 10.7949 10.9868 10.6562 11.16 10.6126L11.165 10.6112L15.2579 9.51804C15.2717 9.51447 15.2861 9.51411 15.3001 9.51698C15.3141 9.51985 15.3273 9.52588 15.3386 9.53461C15.3499 9.54333 15.359 9.55453 15.3654 9.56734C15.3717 9.58015 15.375 9.59423 15.375 9.60851V12.935C15.375 13.0932 15.2754 13.2251 15.1147 13.2791L15.1088 13.2812L13.9161 13.7056C13.6841 13.7819 13.4824 13.93 13.3402 14.1285C13.198 14.327 13.1227 14.5656 13.125 14.8098C13.1229 15.0193 13.1713 15.2262 13.2661 15.413C13.3609 15.5999 13.4992 15.7611 13.6695 15.8832C13.8362 16.0037 14.0295 16.0823 14.233 16.1123C14.4365 16.1422 14.6442 16.1228 14.8386 16.0555L14.847 16.0527L15.3589 15.8663C15.5809 15.7922 15.7742 15.6505 15.9116 15.461C16.049 15.2716 16.1236 15.0438 16.125 14.8098V7.35851C16.1256 7.26497 16.1043 7.1726 16.063 7.08868C16.0217 7.00477 15.9614 6.93161 15.8869 6.87499Z" fill="#EA713B"/>
<rect x="0.5" y="0.5" width="23" height="23" rx="3.5" fill="white"/>
<rect x="0.5" y="0.5" width="23" height="23" rx="3.5" stroke="#DDDEE1"/>
<path d="M11.4737 12.5268V6.46191C9.9962 6.53994 8.60487 7.18176 7.58649 8.25514C6.56811 9.32851 6.00028 10.7516 6 12.2312C5.99976 12.9899 6.149 13.7412 6.43922 14.4421C6.72944 15.1431 7.15493 15.78 7.69139 16.3165C8.22785 16.8529 8.86477 17.2784 9.56573 17.5687C10.2667 17.8589 11.0179 18.0081 11.7766 18.0079C13.2562 18.008 14.6793 17.4403 15.7525 16.4217C16.8257 15.4032 17.467 14.0117 17.5441 12.5341L11.4737 12.5268Z" fill="#DD514C"/>
<path d="M12.5792 6V11.4737H18.0529C17.9798 10.0457 17.3796 8.69551 16.3685 7.6844C15.3574 6.67328 14.0072 6.0731 12.5792 6Z" fill="#DD514C"/>
<defs>
<clipPath id="clip0_373_3089">
<rect width="7.78182" height="11.6704" fill="white" transform="translate(8.44275 6.33008)"/>
</clipPath>
</defs>
</svg>
