<svg width="671" height="339" viewBox="0 0 671 339" fill="none" xmlns="http://www.w3.org/2000/svg">
<g clip-path="url(#clip0_318_8957)">
<path d="M114.016 178.301C113.759 178.989 113.034 179.404 112.31 179.245C110.507 178.845 107.127 177.886 105.372 175.92C102.893 173.139 103.601 168.919 100.752 167.146C97.9031 165.372 90.8203 166.443 88.6955 163.278C86.5707 160.113 88.3413 156.581 84.0755 157.636C79.8098 158.691 67.3989 153.048 64.5658 150.939C61.7326 148.829 64.5658 145.296 62.7951 142.484C61.0244 139.67 59.6078 136.842 57.4669 132.622C55.3421 128.387 53.5714 123.815 52.8471 121.706C52.1387 119.596 48.9515 117.47 50.0139 121.706C51.0763 125.941 52.1549 132.974 53.9095 136.155C54.7143 137.609 52.831 139.047 51.6237 137.896L50.0462 136.394C49.8851 136.234 49.7563 136.042 49.6759 135.835L48.2915 132.078C48.2593 131.967 48.195 131.887 48.1467 131.791L46.1506 128.738C45.9091 128.355 45.9091 127.891 46.0863 127.46C46.7623 125.846 45.9574 122.665 45.7482 121.882C45.716 121.754 45.6998 121.641 45.6998 121.514V115.185C45.6998 114.642 45.4101 114.146 44.9273 113.889L39.9693 111.204C39.5024 110.949 39.1966 110.453 39.1966 109.91V95.5096C39.1966 95.1254 39.3415 94.7745 39.5991 94.5019L49.032 84.6248C49.193 84.4491 49.3218 84.2413 49.3862 84.0015L50.9475 78.4075C51.0281 78.1516 51.0281 77.8799 50.9475 77.6242L49.515 72.5097C49.37 72.0141 49.515 71.4867 49.8851 71.1192C50.8027 70.1762 52.4768 68.0344 52.4768 64.9817C52.4768 61.2415 48.3238 52.0033 47.3579 49.9095C47.2291 49.6218 47.0199 49.3981 46.7463 49.2543C44.7662 48.1834 36.4279 43.788 35.8162 45.9618C35.108 48.4231 32.629 50.9005 31.1963 50.9005C29.8764 50.9005 21.7634 52.4349 20.6688 52.6427C20.5882 52.6587 20.5078 52.6747 20.4273 52.7066L6.35839 57.9491L1.91556 59.4195C0.981923 59.7392 0 59.0199 0 58.0289V57.086C0 56.5426 0.305846 56.0311 0.788756 55.7913L6.32619 52.9144C6.97008 52.5787 7.27592 51.8276 7.05056 51.1403L6.18132 48.583C6.06863 48.2793 6.08474 47.9436 6.18132 47.624L7.87152 42.8611C8.04859 42.3815 8.43493 42.0299 8.91783 41.918L14.6323 40.5754C15.2119 40.4316 15.6465 39.968 15.7592 39.3926L16.1455 37.0751C16.242 36.4997 16.6767 36.0362 17.2401 35.8923L25.2082 33.8465C25.6428 33.7347 25.997 33.431 26.1901 33.0314L27.2364 30.7298C27.4779 30.2024 28.0091 29.8827 28.5886 29.8668C29.7154 29.8508 31.9047 29.4991 35.108 27.6771C40.082 24.864 45.7482 22.7384 47.8891 23.8092C50.0139 24.864 61.7326 23.4575 65.6282 25.5673C69.5237 27.6771 72.727 27.6771 77.3308 28.0287C81.9507 28.3803 95.4241 24.1608 98.2733 26.2705C101.106 28.3803 110.684 29.0836 113.533 30.1385C116.367 31.1934 122.049 29.0836 124.882 28.732C127.715 28.3803 129.855 29.7868 133.044 30.4901C136.231 31.1934 139.434 32.2483 142.621 31.1934C145.808 30.1385 146.887 27.3255 147.241 25.903C147.595 24.4965 150.782 21.3158 152.569 21.3158C154.355 21.3158 153.632 26.2546 155.048 27.3095C156.464 28.3643 160.376 26.9578 160.376 24.848C160.376 22.7384 160.376 19.5576 170.663 19.5576H182.477C183.122 19.5576 183.637 20.0052 183.814 20.6126C184.039 21.3797 184.78 22.3227 186.969 22.7224C190.864 23.4256 193.36 26.5902 193.005 28.3643C192.652 30.1385 192.297 32.5999 194.775 33.6547C196.498 34.39 194.471 36.1322 193.07 37.1391C192.458 37.5707 191.621 37.5067 191.106 36.9473C190.027 35.7965 188.273 34.0863 188.032 35.0612C187.789 36.0362 188.208 37.8424 188.514 38.8652C188.643 39.3608 188.514 39.8882 188.177 40.2717C186.889 41.6623 183.749 44.8589 182.365 44.5713C180.707 44.2356 175.991 40.5594 175.346 40.048C175.299 40 175.25 39.968 175.185 39.9362C174.622 39.6165 171.5 37.9063 169.246 38.2259C166.767 38.5775 166.059 36.8194 167.829 36.4677C169.599 36.1162 173.511 37.5227 174.928 36.1162C176.344 34.7097 180.611 32.2483 179.194 31.1774C177.777 30.1225 177.423 27.6611 174.928 27.6611C172.433 27.6611 168.183 26.9578 167.121 30.1225C166.316 32.504 163.113 34.1023 161.568 34.7416C161.1 34.9334 160.747 35.3489 160.666 35.8605C160.28 38.5296 158.026 40.032 157.156 40.5275C156.964 40.6394 156.738 40.7033 156.497 40.7193L150.219 41.039C150.123 41.039 150.025 41.039 149.929 41.039L145.534 40.4156C145.261 40.3677 144.971 40.4156 144.713 40.5275L138.017 43.5163C138.017 43.5163 127.377 48.8067 129.855 53.0263C132.013 56.7024 137.116 56.9101 138.419 56.9101C138.645 56.9101 138.838 56.9581 139.031 57.054L142.798 58.7962C143.49 59.1159 143.829 59.899 143.57 60.6183C142.718 63.0476 141.157 68.1783 143.329 68.1783C145.663 68.1783 147.757 62.712 148.432 60.7621C148.577 60.3306 148.915 59.9949 149.35 59.851C151.378 59.1798 157.238 57.054 157.527 54.4328C157.832 51.6677 159.765 49.4461 160.247 48.9186C160.328 48.8227 160.392 48.7268 160.457 48.615L163.225 43.4205C163.45 43.0209 163.821 42.7332 164.271 42.6532C165.882 42.3655 169.777 41.934 171.708 43.852C174.188 46.3134 171.708 51.9554 175.975 52.307C179.113 52.5627 182.059 49.9575 183.395 48.567C183.959 47.9916 184.892 47.9596 185.456 48.519C186.373 49.4141 187.371 51.2842 186.969 55.12C186.26 61.8169 191.235 58.2848 191.235 61.4654C191.235 64.646 187.34 68.8655 190.172 71.3269C193.005 73.7883 192.652 76.9689 192.652 79.4303C192.652 81.8918 187.323 79.0787 185.907 79.0787C184.49 79.0787 179.515 80.1336 179.162 78.727C178.808 77.3205 184.843 74.1399 183.428 73.0851C182.011 72.0301 177.391 72.3818 175.62 72.3818C173.85 72.3818 171.355 73.4367 171.355 75.1949C171.355 76.9529 166.38 78.7112 168.521 80.4852C170.646 82.2433 172.788 81.8918 174.203 82.595C175.62 83.2983 174.203 84.7048 172.788 84.7048C171.371 84.7048 167.459 84.0015 166.751 86.1115C166.043 88.2212 166.751 91.4018 164.626 91.0498C162.501 90.6989 163.564 88.5881 162.856 87.5333C162.147 86.4784 159.668 85.0728 158.236 85.7756C156.819 86.4784 153.969 88.2373 154.339 90.0111C154.694 91.7687 151.861 94.2465 148.657 95.3014C145.47 96.3562 141.559 98.115 138.017 104.46C134.475 110.805 130.919 112.915 130.919 112.915L121.438 118.43C120.938 118.717 120.664 119.26 120.713 119.835L121.309 126.405C121.324 126.581 121.309 126.741 121.26 126.917L119.699 132.926C119.376 134.189 117.671 134.444 116.994 133.325C116.222 132.047 115.465 130.64 115.304 129.841C115.079 128.707 115.304 126.964 115.481 125.877C115.578 125.286 115.304 124.694 114.789 124.374L110.958 122.089C110.572 121.866 110.121 121.817 109.702 121.961L104.632 123.736C104.439 123.799 104.229 123.832 104.036 123.815L95.2792 123.176C94.9411 123.144 94.6193 123.24 94.3456 123.432L86.2809 128.866C86.0395 129.041 85.8302 129.282 85.7336 129.553L81.3068 140.982C81.1942 141.285 81.178 141.605 81.2746 141.924L83.1902 148.445C83.319 148.925 83.6893 149.293 84.1721 149.436L88.4058 150.747C88.8404 150.89 89.3071 150.811 89.6935 150.555L94.5066 147.262C94.6836 147.151 94.8285 146.991 94.9411 146.815L97.3396 142.867C97.6133 142.419 98.0962 142.148 98.6113 142.148H101.686C102.668 142.148 103.376 143.075 103.119 144.018L101.557 149.469C101.557 149.469 101.525 149.564 101.509 149.612L99.8669 153.672C99.5933 154.359 99.8669 155.174 100.527 155.51C103.151 156.869 105.871 156.628 107.143 156.389C107.738 156.277 108.35 156.549 108.656 157.061C110.024 159.377 108.704 163.741 108.35 164.797C108.302 164.955 108.27 165.131 108.27 165.291C108.334 168.073 109.445 170.998 109.863 172.037C109.976 172.292 110.153 172.516 110.378 172.676C111.087 173.155 112.712 174.179 113.566 174.179C115.288 174.179 114.612 176.736 114.049 178.285L114.016 178.301Z" fill="#2F7630"/>
<path d="M120.653 178.276C120.653 178.696 120.621 179.116 120.621 179.504C120.589 180.312 120.987 181.055 121.655 181.475C122.945 182.283 124.792 184.076 123.726 187.339C122.15 192.153 116.354 192.686 116.354 195.077C116.354 197.469 112.677 203.058 114.524 205.077C116.354 207.097 114.014 209.762 114.014 211.636C114.014 213.187 117.437 216.903 118.631 218.162C118.901 218.437 119.093 218.792 119.172 219.164C119.539 220.65 120.573 224.608 121.624 226.32C122.945 228.453 124.776 228.986 126.353 233.267C127.928 237.548 129.775 239.147 132.148 239.939C134.519 240.747 138.197 240.197 140.044 244.737C141.874 249.276 141.365 251.15 141.874 257.822C142.401 264.494 140.553 271.166 142.926 275.981C145.298 280.779 145.298 283.46 144.247 287.725C143.196 292.006 143.451 297.612 145.569 300.811C147.669 304.009 147.669 306.95 149.516 311.489C151.347 316.028 150.568 319.76 153.465 323.508C156.363 327.239 157.938 333.653 159.514 334.719C161.09 335.785 161.887 336.061 163.733 335.527C165.58 334.994 167.411 336.593 169.002 337.401C170.579 338.209 172.426 339 175.053 339C177.68 339 178.476 336.867 177.68 336.867C177.026 336.867 172.394 334.848 170.818 334.154C170.484 334.008 170.181 333.782 169.958 333.475L168.096 331.084C167.666 330.519 167.506 329.776 167.698 329.097L168.382 326.577C168.589 325.834 168.398 325.042 167.888 324.477L167.538 324.09C166.838 323.298 166.774 322.119 167.395 321.262L168.445 319.809C168.923 319.146 169.002 318.258 168.653 317.515L166.694 313.347C166.472 312.862 166.408 312.328 166.551 311.812C166.901 310.488 167.617 307.611 168.175 304.316C168.97 299.776 170.022 297.903 172.124 297.903C174.225 297.903 176.661 295.77 177.934 293.104C179.223 290.438 180.275 288.565 182.901 285.899C185.528 283.233 185.274 280.552 186.579 278.162C187.901 275.754 190.798 275.221 191.307 272.815C191.832 270.407 191.307 269.082 191.307 265.076C191.307 261.069 192.884 261.328 194.73 260.003C196.179 258.953 199.426 258.049 200.732 257.709C201.051 257.629 201.384 257.629 201.719 257.709C202.483 257.871 204.138 257.92 205.508 255.738C207.355 252.798 208.661 248.533 208.661 246.659C208.661 245.044 209.838 240.068 210.157 238.711C210.22 238.485 210.236 238.259 210.22 238.017L209.775 232.023C209.727 231.473 209.902 230.925 210.236 230.489L214.519 224.834C214.821 224.446 214.981 223.961 214.981 223.461V211.975C214.981 211.006 214.359 210.134 213.436 209.827L208.772 208.308C208.533 208.227 208.294 208.114 208.103 207.952L205.063 205.578C204.68 205.271 204.203 205.11 203.709 205.11H199.188C198.838 205.11 198.503 205.028 198.2 204.867C198.2 204.867 187.852 199.616 187.788 199.585C187.104 199.149 182.885 196.37 182.885 195.642C182.885 195.028 181.5 189.245 180.848 186.564C180.656 185.739 180.004 185.109 179.192 184.915L171.47 183.122C171.359 183.09 171.248 183.058 171.136 183.01L166.678 181.2C166.264 181.022 165.899 180.732 165.659 180.343L163.224 176.612C163.001 176.273 162.699 175.999 162.348 175.821C161.377 175.336 159.466 174.318 159.466 173.721C159.466 173.398 159.594 172.541 159.753 171.636C159.991 170.231 158.893 168.955 157.492 169.003L153.767 169.133C153.051 169.164 152.398 169.536 152 170.134C151.443 170.99 150.392 171.346 149.437 171.006L143.689 169.003C143.514 168.939 143.34 168.857 143.18 168.745L140.028 166.612C139.661 166.37 139.231 166.24 138.803 166.24H136.637C135.793 166.24 135.029 166.725 134.647 167.484L133.931 168.955C133.612 169.6 133.007 170.054 132.291 170.167L129.123 170.683C128.661 170.764 128.231 170.973 127.896 171.313L126.527 172.702C126.21 173.026 126.002 173.429 125.923 173.882L125.859 174.253C125.667 175.32 124.76 176.095 123.678 176.095H122.834C121.624 176.095 120.653 177.065 120.621 178.293H120.637L120.653 178.276Z" fill="#2F7630"/>
<path d="M110.748 144.173C110.748 144.173 112.589 140.164 116.623 140.164C120.656 140.164 124.005 140.337 125.344 142.176C126.684 143.998 128.206 145.06 130.2 145.932C132.209 146.803 133.549 148.373 133.549 148.373L130.535 149.942L128.19 148.198L125.846 149.942L125.177 146.63L122.163 144.189L116.455 143.665C116.455 143.665 111.935 145.235 110.748 144.189" fill="#2F7630"/>
<path d="M130.291 151.207L130.95 149.61L133.916 150.407L132.433 147.215C133.586 146.017 135.892 147.215 135.892 147.215C137.046 145.818 139.037 148.013 139.037 148.013L141.508 148.938L143.32 151.207H139.202L137.555 153.202H133.436L130.306 152.204V151.207H130.291Z" fill="#2F7630"/>
<path d="M198.733 9.22537C198.733 9.22537 198.208 13.1283 201.009 13.3219C203.808 13.4993 210.651 12.9671 212.927 14.9185C215.201 16.8701 216.077 18.3055 215.026 20.0796C213.976 21.8537 214.152 23.9826 215.472 25.4181C216.777 26.8373 217.827 28.0792 216.777 28.6114C215.726 29.1436 210.985 30.0307 210.635 32.3531C210.285 34.6595 209.585 36.9819 210.81 39.9979C212.035 43.03 211.51 46.2234 213.435 46.5782C215.361 46.933 215.52 44.6267 217.191 45.6912C218.861 46.7556 219.911 49.0619 221.311 48.8846C222.712 48.7071 223.937 45.8524 224.653 44.788C225.353 43.7235 227.978 39.2721 227.978 39.2721L231.829 37.1432C231.829 37.1432 236.204 36.611 236.745 36.611C237.285 36.611 240.961 34.4821 240.961 34.4821C240.961 34.4821 244.112 32.1758 246.402 31.2887C248.678 30.4017 252.02 28.4501 253.594 29.063C255.17 29.6759 258.511 30.4017 260.436 29.063C262.362 27.7244 265.878 28.0792 266.053 26.3051C266.228 24.531 265.352 19.7248 265.352 19.7248C265.352 19.7248 270.173 18.128 270.922 17.0636C271.67 15.9992 273.244 14.4025 273.42 12.9671C273.595 11.5478 274.645 10.4833 274.995 9.22537C275.345 7.98347 278.686 5.67716 278.686 5.67716L282.187 4.96747H284.812C284.812 4.96747 287.087 3.016 286.562 2.48379C286.037 1.95147 278.145 2.66116 278.145 2.66116L272.179 1.59674C272.179 1.59674 266.036 0 264.637 0C263.237 0 257.795 0.354844 256.57 0.709688C255.345 1.06442 249.554 1.59674 247.453 1.59674C245.353 1.59674 240.786 1.2419 238.861 1.95147C236.936 2.66116 232.369 2.12895 230.969 1.7741C229.569 1.41926 227.468 1.06442 225.353 2.48379C223.252 3.90305 222.552 2.48379 220.086 3.37084C217.635 4.2579 218.161 4.43526 214.644 4.96747C211.144 5.49968 211.494 6.74157 209.919 7.27378C208.344 7.80599 207.469 8.51568 205.193 8.33831C203.681 8.20924 202.218 8.33831 200.818 8.69304L198.717 9.22537H198.733Z" fill="#2F7630"/>
<path d="M257.325 33.8653C257.325 33.8653 261.924 32.0123 263.069 32.7844C264.216 33.5565 267.67 33.2336 267.67 33.2336H273.606L276.869 33.8653V36.6448L270.551 37.4169L267.115 39.1154L263.087 37.8801L259.269 38.0346L258.887 35.8446L257.359 33.8513L257.325 33.8653Z" fill="#2F7630"/>
<path d="M276.869 65.5047L278.9 64.3995V61.4357H280.789L283.445 58.6729L285.32 59.4097L286.641 61.4357L285.632 64.0144V67.1623L283.132 67.7149L280.945 68.4517L276.869 65.5047Z" fill="#2F7630"/>
<path d="M286.641 55.6738L287.389 59.0194C287.389 59.0194 287.817 60.6169 289.33 61.4156C290.842 62.2143 291.683 62.5308 291.683 63.3295C291.683 64.1282 289.33 65.394 289.33 65.394C289.33 65.394 287.482 67.4587 287.986 68.2574C288.49 69.0561 287.129 71.1206 287.389 71.603C287.65 72.0852 290.522 70.8042 291.698 70.8042C292.875 70.8042 296.237 70.3219 297.26 70.1713C298.269 70.0205 299.446 68.1066 299.613 67.4587C299.781 66.8257 299.613 64.4296 298.605 64.0377C297.597 63.6459 297.429 63.646 297.092 62.3649C296.756 61.0991 295.58 60.4511 294.907 59.8181C294.235 59.1852 294.067 58.7029 294.235 57.5878C294.403 56.4726 294.403 54.8751 294.403 54.8751L293.165 52.9612C293.165 52.9612 289.513 51.5296 289.346 52.479C289.177 53.4284 289.177 54.5436 288.505 54.8751C287.833 55.1916 286.656 55.6738 286.656 55.6738H286.641Z" fill="#2F7630"/>
<path d="M393.634 263.79C393.634 263.79 391.509 263.969 391.007 259.133C390.506 254.315 391.509 253.957 392.51 251.085C393.513 248.213 394.256 246.428 393.634 243.929C393.011 241.431 393.679 240.716 394.681 240.003C395.683 239.288 398.522 238.396 399.371 237.504C400.206 236.611 401.375 234.453 402.225 232.328C403.06 230.186 404.563 227.865 405.064 228.206C405.564 228.563 406.567 233.755 406.567 233.755C406.567 233.755 407.902 236.806 406.567 239.304C405.231 241.804 404.896 243.556 404.563 245.99C404.229 248.424 402.893 250.387 402.225 253.422C401.558 256.473 399.887 258.598 399.72 260.578C399.554 262.541 398.218 263.256 397.383 263.79C396.547 264.326 393.648 263.79 393.648 263.79H393.634Z" fill="#2F7630"/>
<path d="M350.739 287.533C350.739 286.999 354.314 288.601 359.469 282.18C364.625 275.759 367.099 273.268 367.626 272.557C368.153 271.844 368.153 269.531 369.03 267.752C369.909 265.974 371.489 265.261 373.261 263.288C375.016 261.332 375.368 260.442 374.665 256.689C373.963 252.953 373.435 249.912 374.665 249.023C375.894 248.133 377.826 245.982 379.757 245.109C381.688 244.219 383.444 243.508 384.498 242.068C385.551 240.645 385.902 240.289 386.077 237.427C386.253 234.563 385.902 231.118 386.429 229.727C386.955 228.336 386.605 228.515 385.902 225.667C385.2 222.821 385.2 223.532 384.498 219.781C383.795 216.028 383.269 215.866 384.498 212.647C385.727 209.445 385.551 207.294 388.008 204.803C390.467 202.313 393.644 197.849 396.101 196.425C398.559 195.001 400.14 193.384 402.087 190.36C404.018 187.319 405.423 184.472 407.019 181.092C408.599 177.712 410.371 177.695 410.371 174.137C410.371 170.579 410.834 167.894 408.839 168.606C406.844 169.318 402.757 169.318 399.437 171.096C396.117 172.876 394.441 173.054 393.787 170.741C393.133 168.428 393.548 167.894 390.882 165.21C388.217 162.541 388.217 162.897 385.919 161.473C383.636 160.049 383.46 156.654 381.88 154.163C380.299 151.672 378.368 152.206 378.192 149.003C378.016 145.8 377.842 144.361 375.91 141.514C373.979 138.668 373.979 138.474 372.047 134.204C370.116 129.918 369.413 130.467 369.046 126.716C368.696 122.963 367.291 120.65 364.306 119.404C361.305 118.16 361.194 121.362 359.502 121.006C357.809 120.65 354.457 120.068 351.649 119.113C348.839 118.143 346.908 116.009 345.137 115.831C343.38 115.652 340.204 117.609 340.028 118.499C339.853 119.389 342.838 120.99 340.028 121.54C337.22 122.073 337.394 121.362 335.288 120.65C333.181 119.938 333.884 122.963 331.585 119.938C329.303 116.914 327.722 115.458 325.424 115.831C323.902 116.078 322.614 115.728 321.56 114.779C319.981 113.356 319.629 113.712 320.157 110.865C320.683 108.019 321.736 107.306 320.683 105.867C319.629 104.444 318.752 103.909 316.293 104.622C313.835 105.333 313.659 105.155 309.781 105.333C305.918 105.511 306.206 105.333 302.279 106.4C298.353 107.468 299.932 108.535 296.772 109.248C293.612 109.959 290.787 110.137 288.679 109.959C286.573 109.781 285.073 107.468 283.971 109.781C282.87 112.094 281.817 114.067 279.534 115.491C277.252 116.914 278.305 117.804 276.533 120.844C274.778 123.868 275.128 127.443 271.602 128.332C268.09 129.222 268.6 130.289 265.966 134.042C263.333 137.794 263.685 137.794 261.211 141.531C258.752 145.267 257.172 146.173 259.278 149.019C261.385 151.866 263.317 152.416 261.211 156.507C259.104 160.616 256.63 158.82 257.507 163.284C258.385 167.732 258.033 169.705 261.211 170.773C264.371 171.84 264.721 170.951 265.966 174.866C267.195 178.779 266.318 181.286 268.6 182.176C270.883 183.065 274.938 187.707 278.274 188.775C281.625 189.842 284.084 185.734 286.365 186.64C288.648 187.529 290.946 190.198 293.404 188.241C295.863 186.284 300.619 184.861 302.902 184.327C305.2 183.793 306.764 183.616 308.185 186.64C309.59 189.664 310.292 191.637 313.293 191.088C316.293 190.554 318.927 188.775 318.576 192.688C318.225 196.603 316.469 197.687 316.293 200.533C316.118 203.38 315.942 204.512 318.4 206.89C320.859 209.267 322.631 209.623 323.684 213.731C324.738 217.824 323.859 216.578 325.439 220.864C327.02 225.15 326.493 223.532 326.669 227.463C326.844 231.377 325.439 231.021 324.386 234.062C323.333 237.087 324.386 237.976 323.157 241.373C321.928 244.769 320.348 243.54 322.981 247.615C325.615 251.708 326.685 251.53 327.036 256.156C327.386 260.797 326.509 260.797 328.089 264.534C329.669 268.27 329.493 272.022 332.127 273.268C334.761 274.513 334.937 276.47 335.288 279.156C335.639 281.84 334.41 283.619 335.99 285.931C337.57 288.244 337.746 290.574 340.571 290.024C343.38 289.49 343.907 288.423 346.03 288.601C348.137 288.779 350.787 287.533 350.787 287.533H350.739Z" fill="#2F7630"/>
<path d="M561.261 152.532C561.261 152.532 561.68 150.266 563.339 149.991C564.998 149.716 566.942 150.655 567.076 151.853C567.21 153.067 567.344 154.8 567.076 155.739C566.808 156.677 565.551 158.151 565.819 159.349C566.087 160.564 566.138 161.211 567.227 161.357C568.316 161.487 569.288 160.547 570.527 161.228C571.785 161.891 573.158 162.038 573.158 163.236C573.158 164.434 573.712 165.907 572.472 166.183C571.232 166.441 569.154 165.777 568.735 165.243C568.316 164.709 566.523 163.64 565.819 163.511C565.116 163.381 563.322 163.381 562.904 162.571C562.485 161.778 561.512 161.228 561.244 160.03C560.976 158.831 560.558 158.297 560.558 156.823C560.558 155.35 559.871 154.686 560.558 153.617L561.244 152.548L561.261 152.532Z" fill="#2F7630"/>
<path d="M538.393 200.005C538.27 198.518 537.231 196.36 537.494 194.872C537.743 193.384 538.27 191.766 539.416 191.503C540.563 191.242 543.646 190.016 544.157 189.607C544.668 189.198 547.225 187.171 547.875 186.37C548.511 185.553 550.044 185.291 551.455 183.525C552.864 181.776 552.617 181.236 553.639 180.01C554.662 178.783 555.049 179.193 555.948 180.55C556.847 181.906 556.195 181.089 558.117 182.299C560.038 183.509 560.937 183.787 559.651 185.274C558.365 186.763 557.668 186.632 557.451 188.381C557.219 190.13 557.342 191.618 557.993 192.566C558.628 193.514 559.016 193.514 559.28 194.724C559.527 195.951 557.946 195.951 557.466 197.569C556.986 199.188 557.621 200.005 556.087 200.545C554.554 201.084 553.531 200.806 553.778 202.442C554.027 204.06 553.903 205.139 553.903 206.365C553.903 207.591 553.391 208.115 551.346 208.523C549.301 208.933 547.38 207.854 546.605 207.707C545.83 207.576 544.947 207.968 543.398 207.036C541.864 206.087 541.213 207.297 540.577 205.548C539.942 203.799 540.066 202.981 539.168 202.033C538.27 201.084 538.393 200.005 538.393 200.005Z" fill="#2F7630"/>
<path d="M562.138 210.368C562.138 210.368 563.667 207.772 562.138 206.547C560.608 205.309 559.6 205.159 560.747 203.697C561.895 202.234 561.234 200.875 562.138 198.905C563.041 196.935 563.18 195.578 564.624 194.831C566.066 194.084 566.344 193.638 568.065 194.115C569.786 194.593 571.193 195.578 572.498 194.712C573.801 193.846 574.096 191.503 575.244 192.608C576.391 193.727 577.103 194.085 575.957 195.816C574.809 197.548 572.619 197.905 572.498 199.264C572.376 200.622 570.933 199.756 570.499 202.1C570.064 204.443 570.221 204.204 570.933 206.667C571.645 209.13 573.384 210.623 571.367 210.368C569.352 210.13 569.716 209.503 567.752 209.503C565.788 209.503 565.631 210.488 564.485 211.234C563.337 211.98 561.46 212.473 562.138 210.368Z" fill="#2F7630"/>
<path d="M586.532 200.457C586.532 200.457 585.585 201.849 587.608 202.822C589.631 203.794 590.577 204.213 590.039 206.142C589.501 208.087 588.962 208.959 590.3 209.831C591.653 210.703 592.046 209.093 593.529 209.831C595.014 210.569 594.884 210.703 597.167 211.123C599.451 211.542 600.675 211.257 601.62 212.648C602.566 214.04 603.236 214.04 602.697 216.254C602.158 218.467 600.675 219.86 601.62 220.967C602.566 222.073 602.975 222.626 604.182 222.224C605.389 221.804 605.258 220.564 606.465 220.967C607.672 221.385 607.281 222.492 608.619 223.18C609.972 223.867 609.695 224.019 611.18 224.019C612.664 224.019 612.794 224.991 614.018 223.18C615.241 221.385 614.964 220.682 615.633 220.262C616.302 219.843 617.118 218.736 618.732 219.843C620.347 220.95 620.951 220.111 621.717 222.475C622.501 224.84 622.501 226.082 624.245 226.367C625.991 226.634 625.991 225.947 627.346 226.367C628.699 226.785 628.83 228.714 630.184 228.026C631.538 227.339 632.467 225.813 631.538 224.706C630.592 223.599 628.308 220.682 628.308 220.682C628.308 220.682 625.877 223.029 625.616 220.816C625.356 218.602 626.562 218.602 625.747 216.523C624.932 214.443 623.186 213.755 622.37 213.202C621.554 212.648 619.94 210.2 619.532 209.831C619.124 209.462 618.177 207.937 616.302 207.115C614.41 206.276 612.126 207.232 610.233 205.572C608.342 203.928 607.004 203.928 604.98 203.089C602.959 202.268 603.366 199.903 601.604 202.117C599.858 204.33 600.397 205.303 598.505 204.884C596.612 204.465 595.813 204.75 594.867 202.386C593.921 200.037 595.536 199.064 592.844 199.199C590.153 199.333 591.768 198.227 590.153 199.333C588.537 200.44 588.13 200.44 587.314 200.44H586.499L586.532 200.457Z" fill="#2F7630"/>
<path d="M628.655 316.329C628.655 316.329 631.955 312.433 634.856 311.789C637.756 311.145 641.607 309.198 641.607 309.198L646.423 306.34L648.906 303.999L652.774 302.837L657.324 300.622L658.841 298.031C658.841 298.031 661.325 296.994 661.591 296.209C661.858 295.423 662.008 293.868 662.141 293.099C662.274 292.314 661.724 289.863 662.407 288.937C663.091 288.026 663.507 286.345 664.191 286.99C664.874 287.633 666.257 289.847 666.257 289.847C666.257 289.847 665.707 293.084 665.707 293.476C665.707 293.868 666.392 294.387 667.641 294.512C668.891 294.638 670.258 293.727 670.808 294.905C671.358 296.068 670.675 297.246 669.425 297.763C668.191 298.282 664.741 299.319 664.475 300.104C664.208 300.889 663.508 302.178 662.274 303.214C661.025 304.251 661.724 304.376 658.274 305.035C654.823 305.679 652.757 306.34 651.807 307.768C650.84 309.198 650.024 309.575 648.09 310.878C646.156 312.181 646.306 311.789 643.823 313.077C641.34 314.381 640.106 313.595 639.007 315.81C637.906 318.008 635.973 319.972 634.189 319.313C632.406 318.669 631.289 317.758 630.19 317.491C629.089 317.239 628.672 316.313 628.672 316.313L628.655 316.329Z" fill="#2F7630"/>
<path d="M508.178 186.852C507.925 186.071 508.823 185.697 510.649 185.821C512.477 185.946 513.769 185.431 515.343 187.368C516.903 189.304 516.383 190.725 518.461 191.756C520.54 192.786 520.934 193.427 523.155 195.363C525.36 197.3 526.021 197.799 527.833 200.063C529.66 202.344 529.139 203.624 530.573 205.31C532.006 206.981 532.652 204.67 532.526 208.152C532.4 211.635 530.321 212.088 533.172 213.728C536.038 215.367 537.518 214.477 538.731 215.633C539.943 216.788 540.983 214.133 542.164 214.883C543.33 215.633 543.33 215.382 545.55 215.633C547.771 215.882 548.811 214.43 549.582 215.929C550.37 217.444 549.331 218.209 551.142 218.6C552.952 218.99 554.134 219.38 553.615 220.41C553.094 221.442 550.495 220.926 549.708 221.176C548.921 221.426 547.11 221.957 544.889 221.426C542.684 220.91 541.235 220.52 539.55 220.004C537.865 219.49 536.951 219.224 534.731 218.584C532.526 217.943 531.298 217.288 529.628 215.617C527.959 213.946 528.604 213.431 526.005 211.354C523.407 209.293 523.659 209.932 522.494 207.871C521.328 205.81 521.328 207.59 520.414 204.639C519.501 201.687 519.501 201.531 518.209 200.063C516.903 198.596 516.257 197.596 515.469 196.284C514.682 194.972 514.682 194.723 513.785 193.552C512.87 192.396 513.39 192.911 511.564 191.225C509.752 189.554 509.091 189.289 509.091 188.648C509.091 188.007 508.178 186.836 508.178 186.836V186.852Z" fill="#2F7630"/>
<path d="M598.132 227.505C598.132 227.505 598.003 228.579 596.925 231.408C595.862 234.238 595.734 235.035 596.925 235.979C598.132 236.922 598.647 237.865 600.788 238.939C602.913 240.012 604.779 241.362 605.439 239.751C606.099 238.142 606.373 236.385 606.904 234.644C607.434 232.888 606.936 229.815 608.191 228.188C609.447 226.578 610.106 225.521 610.509 225.114C610.912 224.708 612.102 226.317 612.505 227.522C612.907 228.741 612.102 229.945 613.711 231.75C615.305 233.571 616.368 233.425 616.368 235.181C616.368 236.938 615.965 238.012 616.368 240.158C616.77 242.305 614.372 242.435 616.368 244.061C618.363 245.671 617.961 245.134 619.7 246.891C621.421 248.648 621.035 247.834 621.953 250.387C622.886 252.941 622.082 252.274 623.546 254.015C625.011 255.755 624.35 255.088 625.944 256.975C627.538 258.844 628.342 258.584 628.6 260.601C628.857 262.618 628.197 264.634 627.136 267.187C626.073 269.741 625.14 272.018 624.335 274.051C623.546 276.068 625.332 275.938 620.633 279.158C615.95 282.378 614.758 282.118 612.891 286.02C612.891 286.02 609.72 289.924 608.191 292.33C606.646 294.755 601.866 295.828 599.596 296.234C597.344 296.64 590.953 297.047 589.361 295.697C587.767 294.347 587.638 293.274 586.834 290.867C586.028 288.444 582.311 288.313 581.249 287.094C580.186 285.874 581.506 284.947 580.186 282.118C578.851 279.288 577.788 277.955 576.726 277.955C575.663 277.955 568.083 277.287 564.219 279.434C560.357 281.581 559.295 284.378 556.236 283.987C553.178 283.597 552.245 281.418 548.124 283.987C544.005 286.558 543.474 289.387 540.545 286.964C537.615 284.541 536.552 283.338 538.291 281.581C540.013 279.84 542.411 279.84 541.88 276.344C541.349 272.848 543.215 274.994 540.947 269.481C538.677 263.967 539.482 263.024 540.415 260.747C541.349 258.471 543.072 257.381 543.345 254.828C543.603 252.274 545.067 251.738 547.738 250.387C550.394 249.038 554.128 247.167 556.252 246.224C558.377 245.28 560.116 245.412 561.435 242.728C562.772 240.044 561.435 239.638 565.958 237.215C570.481 234.792 567.487 234.384 571.913 232.905C576.34 231.424 576.34 232.905 578.335 233.165C580.331 233.425 579.542 232.351 581.796 229.539C584.049 226.708 585.127 224.171 588.04 225.114C590.97 226.041 590.841 226.317 593.368 226.448C595.895 226.578 598.277 226.92 598.165 227.522L598.132 227.505Z" fill="#2F7630"/>
<path d="M615.988 32.6086C611.991 30.2117 607.736 31.2735 603.19 29.6808C598.661 28.0881 589.877 27.5573 586.944 25.6108C584.01 23.6643 581.609 25.9647 574.114 25.6108C566.619 25.2569 567.747 26.4956 561.3 26.753C554.853 27.0103 555.772 25.4178 551.194 23.2943C546.617 21.1708 540.573 24.0825 533.126 22.49C527.179 21.219 523.778 23.9539 522.633 25.096C522.327 25.4017 521.876 25.4981 521.472 25.3534C520.28 24.9029 517.588 23.7286 513.398 20.8812C507.531 16.8916 509.933 21.412 504.34 20.8812C498.747 20.3503 498.747 20.0769 495.007 17.149C491.268 14.2212 490.736 16.8916 485.224 17.6799C479.712 18.4842 478.76 17.149 475.295 16.8756C471.83 16.6182 472.893 16.3447 469.96 11.5507C467.027 6.75675 462.772 13.4169 459.838 11.5507C457.115 9.81333 445.864 11.3094 444.3 11.5185C444.188 11.5185 444.075 11.5668 443.962 11.6151C443.188 12.0011 439.546 13.7224 435.049 14.2051C430.665 14.6555 428.264 18.5325 427.716 19.546C427.618 19.7068 427.489 19.8517 427.329 19.9481C426.346 20.5433 422.735 22.4739 419.335 21.1064C415.337 19.5138 412.935 20.5755 407.342 22.699C401.749 24.8226 403.877 25.8843 398.816 28.8121C393.755 31.74 392.16 29.8738 387.356 29.343C382.569 28.8121 379.104 28.8121 375.106 30.1473C371.11 31.4826 360.713 29.6164 358.715 28.2813C356.7 26.946 347.932 24.8226 345.272 25.5464C342.613 26.2543 339.406 25.6269 335.683 25.5464C331.944 25.466 328.752 28.8282 326.625 30.9517C324.755 32.8177 321.854 37.7566 321.176 38.9309C321.08 39.1078 320.935 39.2365 320.773 39.333C319.565 40.0248 314.439 42.9366 313.036 43.1778C311.441 43.4352 308.508 45.044 307.766 46.1057C307.122 47.0227 307.589 50.1113 307.734 50.9479C307.766 51.0927 307.815 51.2214 307.879 51.35C308.314 52.0418 309.927 54.4066 311.973 54.6318C314.375 54.8892 315.164 53.2966 317.566 51.157C319.629 49.307 319.726 52.8301 319.71 53.8436C319.71 54.0205 319.742 54.1813 319.823 54.3423C320.209 55.1305 321.483 57.5597 322.369 57.5597C323.433 57.5597 327.962 55.1627 329.284 53.5701C330.542 52.0579 330.622 47.3766 330.622 46.9583V46.8778C330.654 46.4274 331.008 42.8722 332.862 41.7783C334.828 40.62 338.342 36.8074 338.616 39.2044C338.874 41.6013 336.746 42.3896 334.618 44.7866C332.492 47.1835 335.425 48.2453 336.488 51.157C337.552 54.0688 335.957 55.1627 334.361 57.0127C332.766 58.8787 330.364 61.0023 328.236 62.0319C326.108 63.0614 323.175 62.3376 320.773 59.6671C318.372 57.0127 316.503 56.2084 315.438 59.6671C314.375 63.1258 313.038 62.8523 311.168 63.1258C309.297 63.3832 306.638 66.8419 305.832 69.0619C305.027 71.2819 300.497 72.4402 297.838 72.9067C295.178 73.3732 293.841 76.1563 291.971 76.1563C290.101 76.1563 288.247 76.6872 287.958 78.0224C287.683 79.3577 290.633 80.1459 294.034 80.1459C297.435 80.1459 295.162 82.5429 295.162 86.2595C295.162 89.9749 290.892 88.6562 287.168 88.1247C283.429 87.5945 281.043 87.3212 278.641 88.1247C276.24 88.9294 278.641 92.903 278.641 96.6346C278.641 100.367 276.949 101.799 276.869 103.746C276.869 103.923 276.916 104.115 276.998 104.276L277.738 105.724C277.965 106.159 278.448 106.399 278.932 106.32L282.139 105.724C282.317 105.692 282.494 105.708 282.671 105.757L285.653 106.674C285.782 106.721 285.91 106.737 286.056 106.721C286.604 106.69 288.216 106.513 291.166 105.66C291.955 105.435 294.711 104.019 295.92 103.391C296.274 103.198 296.501 102.845 296.516 102.458C296.564 101.284 296.758 98.7591 297.564 97.166C297.934 96.4099 299.692 96.3613 300.9 93.9809C301.368 93.0477 302.302 90.9081 305.317 90.2968C305.477 90.2643 305.639 90.2643 305.784 90.2968L308.991 90.988C309.169 91.0204 309.362 91.0204 309.555 90.9729C310.055 90.8282 311.151 90.5225 311.957 90.5225C312.634 90.5225 313.101 89.5407 313.343 88.8495C313.52 88.3505 314.02 88.0286 314.552 88.1247C315.245 88.2532 316.325 88.64 317.824 89.7179C318.598 90.2805 319.162 91.8413 319.42 92.6459C319.694 93.4494 322.353 94.7693 322.353 94.7693C322.353 94.7693 324.32 95.75 327.302 97.005C327.543 97.1011 327.737 97.2783 327.866 97.5203L328.929 99.5152C329.139 99.9169 329.09 100.383 328.817 100.738L327.398 102.474C327.108 102.845 326.609 102.973 326.173 102.829L322.917 101.686L323.949 103.97C323.949 103.97 323.997 104.068 324.029 104.115L325.867 107.011C326.157 107.477 326.769 107.654 327.269 107.43L328.655 106.802C329.058 106.625 329.299 106.223 329.299 105.788V103.648C329.299 103.312 329.445 103.006 329.703 102.78L332.475 100.528C332.733 100.319 332.878 99.9968 332.878 99.6761V97.4554L333.62 98.421C333.909 98.7904 334.409 98.9513 334.861 98.8066C335.36 98.6456 335.667 98.1628 335.618 97.6326L335.489 96.3138C335.456 96.0232 335.328 95.75 335.086 95.5728L333.023 93.8524C332.927 93.7713 332.829 93.7238 332.717 93.6752C332.104 93.4332 329.992 92.6297 329.299 92.404C328.478 92.1469 326.914 90.2806 325.319 88.6886C323.723 87.0955 323.191 85.5029 322.917 84.1676C322.66 82.8324 323.449 83.1059 325.851 83.6368C328.252 84.1676 327.447 85.7605 329.299 86.8222C331.153 87.8839 331.443 87.8839 334.651 89.7503C337.842 91.5993 336.247 91.0852 338.375 98.5333C339.051 100.883 339.406 101.96 339.567 102.411C339.503 102.378 339.438 102.507 339.438 103.118C339.438 105.596 339.438 105.692 339.712 106.77C339.97 107.832 340.775 109.425 342.645 110.486C344.499 111.548 345.305 110.228 347.175 106.77C348.512 104.276 347.222 103.473 346.401 103.231C346.03 103.118 345.756 102.829 345.66 102.442C345.321 101.123 344.708 98.1478 345.305 96.1205C346.11 93.4657 349.577 95.3158 350.898 98.7742C352.236 102.234 350.366 101.96 349.834 104.051C349.303 106.126 351.962 107.285 353.299 108.347C354.428 109.248 357.539 108.057 358.473 107.671C358.651 107.591 358.843 107.558 359.053 107.591C360.262 107.752 364.759 108.378 366.355 108.604C368.225 108.861 370.885 107.011 372.222 108.604C373.559 110.197 372.479 109.409 372.479 113.929C372.479 118.449 371.948 116.052 370.352 117.918C368.757 119.785 369.288 121.103 369.288 122.97C369.288 124.836 370.352 125.366 371.69 128.825C373.027 132.284 373.027 130.691 373.818 132.541C374.623 134.408 375.687 134.134 378.604 136.258C381.537 138.381 379.942 140.778 379.942 143.433C379.942 146.086 382.07 146.891 384.73 148.226C387.389 149.561 387.921 152.747 389.258 157.798C390.257 161.595 392.917 165.359 394.174 166.984C394.545 167.45 395.222 167.562 395.705 167.209L397.817 165.665C397.962 165.553 398.123 165.488 398.301 165.471C399.203 165.343 402.281 164.812 403.636 163.911C405.006 163.01 406.569 162.286 406.988 162.093C407.068 162.061 407.133 162.013 407.213 161.964L410.179 159.729C410.179 159.729 414.838 156.189 419.899 155.674C424.96 155.144 423.09 152.489 423.622 151.637C424.121 150.848 425.523 147.003 425.733 146.441C425.749 146.376 425.766 146.345 425.782 146.28C425.878 145.733 426.217 142.918 423.106 140.521C423.106 140.521 421.768 139.716 420.704 137.593C419.64 135.469 419.915 135.726 414.047 135.726C408.18 135.726 412.71 137.32 408.599 135.983C407.407 135.598 409.519 133.587 408.599 132.525C407.681 131.463 404.184 130.402 402.33 129.597C400.46 128.81 399.396 126.412 399.928 123.742C400.46 121.087 403.119 122.149 405.795 127.2C408.454 132.252 409.793 129.324 410.196 129.855C410.598 130.386 415.386 130.659 416.723 130.659C418.061 130.659 418.851 131.19 419.382 133.314C419.915 135.437 423.38 136.242 428.441 135.71C433.502 135.18 440.432 134.649 445.494 141.566C449.055 146.425 450.393 145.636 450.893 144.735C451.151 144.269 451.683 143.979 452.198 144.156C452.811 144.35 453.617 144.751 454.294 145.556C455.632 147.148 455.357 147.421 456.422 149.819C457.485 152.216 456.695 153.535 456.695 156.463C456.695 159.391 456.953 158.586 459.355 162.849C461.757 167.112 460.418 165.504 461.757 169.235C463.094 172.968 463.884 172.422 465.222 175.349C466.56 178.277 466.56 178.003 467.076 178.808C467.607 179.595 469.735 178.003 471.346 177.166C472.781 176.41 473.989 173.193 474.232 172.534C474.264 172.453 474.28 172.373 474.296 172.292L474.812 167.933C474.812 167.933 474.812 167.788 474.812 167.723C474.764 167.096 474.457 163.798 473.49 162.849C472.427 161.787 474.022 160.452 476.681 158.329C479.341 156.206 481.468 153.278 482.807 151.637C484.144 149.996 488.141 149.819 487.867 146.36C487.609 142.901 493.46 142.628 496.394 143.433C499.328 144.236 497.2 146.36 497.989 146.891C498.795 147.421 501.454 151.637 501.454 151.637C501.454 151.637 502.793 153.004 503.05 155.144C503.308 157.267 503.05 159.134 503.856 159.745C504.662 160.356 505.984 160.999 508.079 159.745C510.158 158.49 511.593 159.937 512.656 161.53C513.721 163.122 515.589 169.51 515.589 171.102V175.623C515.589 176.958 515.589 178.277 519.33 184.905C523.052 191.532 520.667 186.529 520.925 188.91C521.151 190.905 522.295 191.613 522.666 191.791C522.746 191.822 522.827 191.87 522.891 191.935L526.824 195.313C527.437 195.828 528.387 195.555 528.613 194.798L528.823 194.106C528.888 193.914 528.888 193.704 528.823 193.495C528.694 193.013 528.387 191.854 527.84 189.458C527.034 185.998 527.308 185.725 526.502 184.905C525.696 184.084 523.31 182.009 522.23 181.285C521.167 180.577 521.167 179.065 519.571 177.166C517.975 175.269 518.765 176.137 518.765 174.545C518.765 172.952 519.571 168.962 521.957 167.821C522.86 167.401 524.826 170.089 525.115 170.491C525.148 170.523 525.164 170.555 525.18 170.603C525.454 171.102 527.582 175.043 528.081 178.26C528.42 180.465 529.677 181.092 530.531 181.237C530.998 181.317 531.466 181.076 531.692 180.642C532.4 179.259 534.109 176.009 534.738 175.591C535.528 175.059 538.203 170.539 539.364 169.477C540.524 168.416 536.881 162.303 536.333 161.241C535.802 160.179 533.933 157.251 531.386 153.004C529.596 150.028 531.176 147.293 532.288 145.942C532.707 145.428 533.497 145.411 533.964 145.909L535.818 147.92C536.141 148.258 536.623 148.371 537.059 148.194C538.993 147.39 544.28 145.202 545.135 144.768C546.198 144.236 551.259 140.778 554.724 138.381C558.173 135.983 555.804 134.118 556.868 131.463C557.931 128.809 558.737 126.685 558.463 123.484C558.189 120.283 557.4 119.221 556.868 117.629C556.336 116.036 556.062 116.036 554.724 114.444C553.387 112.851 553.403 113.639 551.227 111.789C549.051 109.939 551.001 109.392 551.227 108.072C551.452 106.737 554.466 107.269 554.724 106.207C554.982 105.146 553.661 105.146 551.227 104.035C548.792 102.925 548.874 104.341 547.277 104.035C545.682 103.73 545.408 102.491 546.746 99.5626C547.696 97.4878 547.809 101.156 551.227 99.8208C554.644 98.4847 553.661 98.2277 554.724 100.883C555.789 103.536 557.931 103.536 560.172 105.66C562.396 107.783 564.589 111.773 568.892 111.242C573.195 110.711 569.924 108.588 567.78 105.129C565.652 101.67 565.91 101.397 563.073 99.0161C560.237 96.6195 563.25 97.1498 564.846 93.9647C566.441 90.7796 566.441 91.8413 570.181 92.903C573.92 93.9647 570.987 88.3829 572.696 85.1972C573.824 83.1059 573.872 80.4998 574.178 78.1994C574.436 76.1563 576.193 74.7084 576.145 72.5689C576.112 70.9923 575.114 70.1558 574.146 69.0619C567.457 61.4367 572.324 67.1153 571.245 65.5228C570.181 63.9301 570.713 63.3993 568.892 62.0319C567.07 60.6644 565.926 61.5331 563.073 62.0319C560.237 62.5306 559.527 63.1258 557.657 63.1258C555.788 63.1258 554.998 62.5949 554.724 59.6671C554.45 56.7393 555.53 58.6053 554.724 54.6157C553.918 50.6262 555.53 53.554 558.189 51.1409C560.849 48.744 561.913 50.3527 564.589 51.1409C567.248 51.9292 567.78 51.9453 570.713 52.2187C573.647 52.4761 577.369 52.2187 579.497 51.1409C581.625 50.0632 577.902 48.2292 578.434 45.0279C578.9 42.2609 581.77 45.1082 582.528 45.8966C582.64 46.0252 582.769 46.1057 582.931 46.1701C583.64 46.4274 585.88 47.4088 588.297 49.9022C591.231 52.9266 586.702 52.7335 586.171 54.5835C585.638 56.4497 587.765 58.5732 588.571 59.6349C589.378 60.6966 589.909 62.0319 592.843 63.0936C595.776 64.1553 596.566 67.3567 597.372 69.0297C598.178 70.7189 598.967 72.1345 602.175 72.8746C605.06 73.5342 603.82 67.8715 603.561 66.7454C603.529 66.6167 603.529 66.488 603.546 66.3593C603.642 65.5871 603.98 62.611 603.513 59.6349C602.981 56.1762 600.048 57.5114 598.452 56.8679C597.291 56.4014 597.389 53.554 597.533 52.0579C597.581 51.511 598.033 51.0927 598.597 51.0605C599.693 51.0122 601.708 50.9639 604.576 51.1249C609.106 51.3822 606.704 48.2131 608.317 46.0735C609.911 43.95 613.377 45.2692 614.715 43.1457C616.052 41.0221 612.313 42.6148 609.122 41.5531C605.931 40.4913 607.784 38.3678 610.186 38.8987C612.587 39.4296 622.178 40.2339 624.837 36.7752C627.497 33.3165 620.05 34.9252 616.052 32.5121V32.5604L615.988 32.6086Z" fill="#2F7630"/>
<circle cx="316.5" cy="168.5" r="9.5" fill="white"/>
<circle cx="316.5" cy="168.5" r="8.35" fill="white" stroke="#2F7630" stroke-width="0.3"/>
<g clip-path="url(#clip1_318_8957)">
<path fill-rule="evenodd" clip-rule="evenodd" d="M316.5 166.531C316.034 166.531 315.656 166.909 315.656 167.375C315.656 167.841 316.034 168.219 316.5 168.219C316.966 168.219 317.344 167.841 317.344 167.375C317.344 166.909 316.966 166.531 316.5 166.531ZM316.5 168.781C315.723 168.781 315.094 168.152 315.094 167.375C315.094 166.598 315.723 165.969 316.5 165.969C317.277 165.969 317.906 166.598 317.906 167.375C317.906 168.152 317.277 168.781 316.5 168.781ZM316.5 164C314.636 164 313.125 165.511 313.125 167.375C313.125 168.786 315.939 173.003 316.5 173C317.052 173.003 319.875 168.767 319.875 167.375C319.875 165.511 318.364 164 316.5 164Z" fill="#2F7630"/>
</g>
<circle cx="280.5" cy="173.5" r="9.5" fill="white"/>
<circle cx="280.5" cy="173.5" r="8.35" fill="white" stroke="#2F7630" stroke-width="0.3"/>
<g clip-path="url(#clip2_318_8957)">
<path fill-rule="evenodd" clip-rule="evenodd" d="M280.5 171.531C280.034 171.531 279.656 171.909 279.656 172.375C279.656 172.841 280.034 173.219 280.5 173.219C280.966 173.219 281.344 172.841 281.344 172.375C281.344 171.909 280.966 171.531 280.5 171.531ZM280.5 173.781C279.723 173.781 279.094 173.152 279.094 172.375C279.094 171.598 279.723 170.969 280.5 170.969C281.277 170.969 281.906 171.598 281.906 172.375C281.906 173.152 281.277 173.781 280.5 173.781ZM280.5 169C278.636 169 277.125 170.511 277.125 172.375C277.125 173.786 279.939 178.003 280.5 178C281.052 178.003 283.875 173.767 283.875 172.375C283.875 170.511 282.364 169 280.5 169Z" fill="#2F7630"/>
</g>
<circle cx="312.5" cy="73.5" r="9.5" fill="white"/>
<circle cx="312.5" cy="73.5" r="8.35" fill="white" stroke="#2F7630" stroke-width="0.3"/>
<g clip-path="url(#clip3_318_8957)">
<path fill-rule="evenodd" clip-rule="evenodd" d="M312.5 71.5312C312.034 71.5312 311.656 71.909 311.656 72.375C311.656 72.841 312.034 73.2188 312.5 73.2188C312.966 73.2188 313.344 72.841 313.344 72.375C313.344 71.909 312.966 71.5312 312.5 71.5312ZM312.5 73.7812C311.723 73.7812 311.094 73.1518 311.094 72.375C311.094 71.5982 311.723 70.9688 312.5 70.9688C313.277 70.9688 313.906 71.5982 313.906 72.375C313.906 73.1518 313.277 73.7812 312.5 73.7812ZM312.5 69C310.636 69 309.125 70.5112 309.125 72.375C309.125 73.7863 311.939 78.0031 312.5 78C313.052 78.0031 315.875 73.7672 315.875 72.375C315.875 70.5112 314.364 69 312.5 69Z" fill="#2F7630"/>
</g>
</g>
<defs>
<clipPath id="clip0_318_8957">
<rect width="671" height="339" fill="white"/>
</clipPath>
<clipPath id="clip1_318_8957">
<rect width="9" height="9" fill="white" transform="translate(312 164)"/>
</clipPath>
<clipPath id="clip2_318_8957">
<rect width="9" height="9" fill="white" transform="translate(276 169)"/>
</clipPath>
<clipPath id="clip3_318_8957">
<rect width="9" height="9" fill="white" transform="translate(308 69)"/>
</clipPath>
</defs>
</svg>
