<svg width="18" height="14" viewBox="0 0 18 14" fill="none" xmlns="http://www.w3.org/2000/svg">
<path d="M16.3125 9.8125H14.625V7.88481C14.625 7.41962 14.2464 7.04106 13.7812 7.04106H13.3093C13.2592 6.93419 13.1777 6.83913 13.0562 6.77838L9.75431 5.12744C9.60356 5.05206 9.44325 5.00931 9.28069 4.98175V4.1875H11.25C12.1821 4.1875 12.9375 3.43206 12.9375 2.5V1.9375C12.9375 1.00544 12.1821 0.25 11.25 0.25H6.75C5.81794 0.25 5.0625 1.00544 5.0625 1.9375V2.5C5.0625 3.43206 5.81794 4.1875 6.75 4.1875H8.71875V4.98175C8.55619 5.00931 8.39644 5.05206 8.24512 5.12744L4.94325 6.77838C4.82175 6.83913 4.74075 6.93419 4.69012 7.04106H4.21875C3.75356 7.04106 3.375 7.41962 3.375 7.88481V9.8125H1.6875C0.755438 9.8125 0 10.5679 0 11.5V12.0625C0 12.9946 0.755438 13.75 1.6875 13.75H5.625C6.55706 13.75 7.3125 12.9946 7.3125 12.0625V11.5C7.3125 10.5679 6.55706 9.8125 5.625 9.8125H3.9375V7.88481C3.9375 7.72956 4.06406 7.60356 4.21875 7.60356H4.7385C4.78912 7.67556 4.85494 7.74025 4.94381 7.78469L8.24569 9.43563C8.48306 9.55431 8.74181 9.61394 9.00056 9.61394C9.25931 9.61394 9.5175 9.55431 9.75544 9.43563L13.0573 7.78469C13.1462 7.74025 13.212 7.67613 13.2626 7.60356H13.7812C13.9359 7.60356 14.0625 7.72956 14.0625 7.88481V9.8125H12.375C11.4429 9.8125 10.6875 10.5679 10.6875 11.5V12.0625C10.6875 12.9946 11.4429 13.75 12.375 13.75H16.3125C17.2446 13.75 18 12.9946 18 12.0625V11.5C18 10.5679 17.2446 9.8125 16.3125 9.8125Z" fill="#2F7630"/>
</svg>
