<svg width="18" height="12" viewBox="0 0 18 12" fill="none" xmlns="http://www.w3.org/2000/svg">
<path d="M11.2171 4.19932C10.9317 4.03426 10.5813 4.03311 10.296 4.19626L6.78868 6.20039C6.50145 6.36469 6.32374 6.6703 6.32374 7.00158V10.6154C6.32374 11.1251 6.73698 11.5383 7.24672 11.5383H10.754C11.2638 11.5383 11.677 11.1251 11.677 10.6154V4.99783C11.6766 4.66886 11.5012 4.36439 11.2171 4.19932Z" fill="#2F7630"/>
<path d="M4.94004 7.78612C4.65511 7.61953 4.3043 7.61914 4.01898 7.78306L0.465319 9.81399C0.101872 10.0212 -0.0765961 10.4474 0.0310209 10.8519C0.138255 11.2567 0.504383 11.5382 0.922978 11.5382H4.47702C4.98677 11.5382 5.4 11.1249 5.4 10.6152V8.58387C5.40038 8.25565 5.22498 7.9508 4.94004 7.78612Z" fill="#2F7630"/>
<path d="M17.54 0.586137C17.2551 0.42069 16.9043 0.419924 16.619 0.583456L13.0653 2.61401C12.7777 2.77831 12.6 3.08431 12.6 3.41558V10.6152C12.6 11.1249 13.0132 11.5382 13.523 11.5382H17.0766C17.5864 11.5382 17.9996 11.1249 17.9996 10.6152V1.38465C18 1.05567 17.8246 0.7512 17.54 0.586137Z" fill="#2F7630"/>
</svg>
