<svg width="18" height="16" viewBox="0 0 18 16" fill="none" xmlns="http://www.w3.org/2000/svg">
<path d="M17.9775 4.91436C17.9403 4.80066 17.8593 4.7064 17.7526 4.65239L17.3499 4.44862C17.2432 4.39461 17.1193 4.38513 17.0056 4.42245C16.8919 4.45972 16.7976 4.54067 16.7436 4.64742L16.2357 5.65088C15.9366 4.65482 15.4416 3.72636 14.7731 2.91801C13.8211 1.76669 12.5634 0.915021 11.136 0.455052C10.3509 0.202011 9.53977 0.0737305 8.72519 0.0737305C7.48092 0.0737305 6.28163 0.365035 5.16063 0.939612C3.2987 1.89393 1.91987 3.51618 1.27807 5.50758C1.20163 5.74473 1.33194 5.99899 1.56915 6.07543L1.99861 6.21382C2.23591 6.29034 2.49007 6.15994 2.56647 5.92274C3.09736 4.27553 4.23795 2.93358 5.77812 2.14422C6.70596 1.66868 7.69768 1.42756 8.72577 1.42756C9.3993 1.42756 10.0706 1.53382 10.7209 1.74341C12.8526 2.43038 14.4642 4.17221 15.0112 6.30528L13.7047 5.64411C13.4824 5.53149 13.2109 5.6206 13.0984 5.84296L12.8946 6.24558C12.8405 6.35239 12.8312 6.47624 12.8684 6.58995C12.9057 6.70366 12.9866 6.79792 13.0934 6.85193L15.9165 8.28052C15.9818 8.31359 16.0513 8.32925 16.1198 8.32925C16.2845 8.32925 16.4433 8.23873 16.5228 8.08171L17.9514 5.25873C18.0054 5.15193 18.0148 5.02807 17.9775 4.91436Z" fill="#2F7630"/>
<path d="M16.4309 9.92473L16.0014 9.78634C15.7642 9.70986 15.51 9.84021 15.4336 10.0774C14.9027 11.7246 13.7621 13.0666 12.222 13.8559C11.2941 14.3315 10.3024 14.5726 9.27423 14.5726C8.60065 14.5726 7.92943 14.4663 7.27918 14.2568C5.14751 13.5698 3.53595 11.828 2.98889 9.69488L4.29539 10.356C4.5177 10.4687 4.78915 10.3796 4.90173 10.1572L5.1055 9.75457C5.15955 9.64777 5.16894 9.52391 5.13167 9.41021C5.09435 9.2965 5.01345 9.20224 4.90665 9.14819L2.08362 7.71964C1.8614 7.60706 1.58986 7.69613 1.47728 7.91849L0.0486417 10.7414C-0.00541381 10.8482 -0.0147991 10.9721 0.0224713 11.0858C0.0597416 11.1995 0.14069 11.2938 0.247447 11.3478L0.650066 11.5515C0.872425 11.6641 1.14388 11.575 1.25641 11.3527L1.76425 10.3492C2.06336 11.3453 2.55843 12.2738 3.22686 13.0821C4.17888 14.2334 5.43655 15.0851 6.86393 15.5451C7.64904 15.7981 8.46014 15.9264 9.27472 15.9264C10.5015 15.9264 11.7341 15.627 12.8393 15.0605C14.7013 14.1062 16.0801 12.4839 16.7219 10.4925C16.7586 10.3786 16.7486 10.2548 16.694 10.1483C16.6395 10.0419 16.5448 9.96146 16.4309 9.92473Z" fill="#2F7630"/>
<path d="M9.05827 9.77186C8.63716 9.77186 8.18201 9.58989 7.92568 9.31907L7.72408 9.10605C7.67277 9.05186 7.58709 9.04938 7.53272 9.10077L6.77892 9.81414C6.75288 9.83887 6.73768 9.87289 6.73664 9.90876C6.73569 9.94463 6.74896 9.97942 6.77364 10.0055L6.97529 10.2186C7.32299 10.5859 7.82849 10.8663 8.37545 10.9976V11.7452C8.37545 11.8199 8.43605 11.8806 8.51082 11.8806H9.54861C9.62338 11.8806 9.68397 11.8199 9.68397 11.7452V11.024C10.6614 10.8377 11.2632 10.2076 11.2632 9.35963C11.2742 8.02404 10.1107 7.67168 9.34078 7.4385C8.41575 7.15834 8.276 7.01814 8.276 6.68158C8.276 6.32372 8.86651 6.22825 9.21543 6.22825C9.54689 6.22825 9.95655 6.33749 10.1895 6.48797L10.4359 6.64711C10.4987 6.68763 10.5825 6.66958 10.623 6.60682L11.1861 5.73516C11.2267 5.6723 11.2086 5.58856 11.1458 5.54799L10.8995 5.38885C10.5721 5.17732 10.1346 5.0221 9.68388 4.95559V4.25499C9.68388 4.18027 9.62329 4.11963 9.54852 4.11963H8.51073C8.43596 4.11963 8.37536 4.18027 8.37536 4.25499V5.02725C7.50393 5.26842 6.96743 5.89453 6.96743 6.68158C6.96743 8.08689 8.21559 8.46492 8.9614 8.69084C9.83355 8.95498 9.95696 9.06941 9.95457 9.35422C9.95475 9.68392 9.39123 9.77186 9.05827 9.77186Z" fill="#2F7630"/>
</svg>
