<svg width="353" height="352" viewBox="0 0 353 352" fill="none" xmlns="http://www.w3.org/2000/svg">
<g clip-path="url(#clip0_506_882)">
<path fill-rule="evenodd" clip-rule="evenodd" d="M301.281 303.205C292.436 312.345 284.523 317.72 278.465 321.775C219.382 361.34 151.841 349.937 130.959 346.039C97.2683 339.751 68.8291 335.315 44.3949 313.176C-11.1274 262.871 -8.42682 157.928 33.9989 92.9225C39.0292 85.2146 81.391 22.2419 149.078 13.3685C150.734 13.1515 151.968 13.0279 153.05 12.9131C163.521 11.8011 228.408 5.9335 281.317 50.3869C288.889 56.7501 301.078 68.2279 312.38 85.7333C353.706 149.742 353.837 248.875 301.281 303.205Z" fill="#B2D7AF"/>
<path fill-rule="evenodd" clip-rule="evenodd" d="M24.1002 248.042C24.0077 247.037 25.3184 246.574 25.8664 247.42C31.1661 255.593 45.7295 276.588 60.8004 285.405C85.3393 299.759 107.698 328.607 101.298 349.24C101.298 349.24 34.1846 357.574 24.1002 248.042Z" fill="#CDFFCE"/>
<path fill-rule="evenodd" clip-rule="evenodd" d="M93.8044 339.747C93.7729 339.747 93.7412 339.74 93.7127 339.72C90.1298 337.355 86.7199 334.723 83.4277 331.951C80.1542 329.154 77.0444 326.167 74.0151 323.102C68.0189 316.905 62.4608 310.282 57.2767 303.379C54.6776 299.933 52.1915 296.4 49.7559 292.836C47.3233 289.268 44.9649 285.648 42.708 281.963C40.4462 278.281 38.2391 274.567 36.1321 270.792C35.082 268.904 34.0488 267.004 33.0393 265.093C32.5378 264.135 32.0364 263.178 31.5493 262.213L30.8282 260.758L30.4754 260.028C30.3612 259.777 30.2449 259.548 30.1314 259.26C30.0986 259.177 30.1356 259.082 30.2168 259.043C30.2392 259.033 30.2629 259.027 30.2862 259.027C30.3494 259.027 30.4097 259.064 30.4378 259.126L30.4535 259.161C30.5488 259.373 30.6798 259.626 30.7983 259.863L31.1709 260.579L31.9328 262.005L33.4859 264.842C34.5361 266.726 35.609 268.597 36.6989 270.458C38.8725 274.181 41.1109 277.865 43.4214 281.501C48.0567 288.763 52.8894 295.897 58.0841 302.751C60.695 306.166 63.3257 309.567 66.0913 312.853C67.1388 314.096 68.1968 315.331 69.2681 316.553C75.4077 324.973 82.1965 331.068 88.6833 335.471C90.3863 336.838 92.1251 338.163 93.8999 339.437H93.9018C93.975 339.491 93.995 339.592 93.9456 339.67C93.9133 339.72 93.8594 339.747 93.8044 339.747Z" fill="#EAEBEF"/>
<path fill-rule="evenodd" clip-rule="evenodd" d="M48.819 205.872C48.9582 204.64 50.6734 204.411 51.1302 205.565C55.546 216.727 68.0482 245.638 84.2242 260.023C110.562 283.444 130.606 323.756 117.623 346.976C117.623 346.976 33.6508 340.185 48.819 205.872Z" fill="#CDFFCE"/>
<path fill-rule="evenodd" clip-rule="evenodd" d="M110.627 334.928C110.573 334.928 110.518 334.909 110.477 334.866C106.7 331.114 103.201 327.084 99.8788 322.914C96.586 318.719 93.5398 314.337 90.6109 309.88C84.8466 300.904 79.7205 291.526 75.1201 281.905C72.8104 277.098 70.6594 272.217 68.5779 267.309C66.5007 262.399 64.5272 257.445 62.6937 252.438C60.8529 247.435 59.0869 242.405 57.4579 237.328C56.6482 234.789 55.8616 232.242 55.1066 229.685C54.7335 228.405 54.3606 227.126 54.0074 225.841L53.4905 223.908L53.2422 222.939C53.1655 222.608 53.0807 222.303 53.0136 221.929C52.9939 221.819 53.0639 221.71 53.174 221.685C53.19 221.681 53.2058 221.679 53.2216 221.679C53.3176 221.679 53.4046 221.745 53.4271 221.844L53.4377 221.89C53.5011 222.168 53.5983 222.505 53.6837 222.821L53.9604 223.777L54.5351 225.686L55.7235 229.495C56.5356 232.026 57.3789 234.55 58.2451 237.064C59.9695 242.094 61.782 247.096 63.6942 252.058C67.5393 261.969 71.6538 271.779 76.2796 281.343C78.6121 286.114 80.9712 290.872 83.5232 295.528C86.0766 300.181 88.7349 304.777 91.5729 309.26C94.4126 313.738 97.3707 318.148 100.576 322.371C103.769 326.605 107.168 330.679 110.781 334.566L110.783 334.57C110.86 334.653 110.859 334.783 110.778 334.866C110.736 334.907 110.681 334.928 110.627 334.928Z" fill="#E3E4E9"/>
<path fill-rule="evenodd" clip-rule="evenodd" d="M307.115 324.521C309.364 323.245 311.59 321.857 313.727 320.39C314.823 319.638 316.322 319.916 317.076 321.01C317.82 322.088 317.559 323.56 316.498 324.322L316.455 324.351C314.206 325.894 311.865 327.356 309.496 328.699C308.339 329.355 306.868 328.952 306.21 327.798C305.597 326.72 305.911 325.367 306.897 324.66C306.967 324.611 307.04 324.565 307.115 324.521ZM332.605 306.932C333.581 307.831 333.639 309.348 332.734 310.32C330.885 312.31 328.924 314.247 326.909 316.079C325.93 316.977 324.403 316.9 323.509 315.922C322.612 314.944 322.684 313.427 323.665 312.534C325.582 310.793 327.446 308.953 329.203 307.061C329.315 306.94 329.436 306.834 329.566 306.741C330.476 306.091 331.751 306.143 332.605 306.932ZM288.357 332.518C290.831 331.778 293.3 330.921 295.7 329.971C296.934 329.484 298.329 330.087 298.817 331.32C299.307 332.551 298.7 333.94 297.47 334.433C294.942 335.435 292.34 336.337 289.736 337.117C288.465 337.497 287.127 336.776 286.746 335.506C286.445 334.499 286.836 333.449 287.644 332.869C287.854 332.717 288.095 332.597 288.357 332.518ZM344.564 289.781C345.715 290.439 346.112 291.903 345.453 293.051C344.1 295.4 342.625 297.722 341.072 299.952C340.314 301.038 338.819 301.307 337.73 300.552C336.641 299.798 336.373 298.307 337.128 297.221C338.605 295.102 340.004 292.897 341.288 290.665C341.463 290.36 341.696 290.106 341.966 289.914C342.708 289.381 343.722 289.299 344.564 289.781ZM268.268 336.149C270.85 335.978 273.456 335.692 276.015 335.3C277.328 335.1 278.557 336.001 278.758 337.313C278.959 338.625 278.056 339.853 276.743 340.053C274.051 340.465 271.306 340.766 268.588 340.947C267.263 341.036 266.116 340.034 266.027 338.708C265.969 337.848 266.373 337.064 267.026 336.595C267.377 336.342 267.802 336.18 268.268 336.149ZM247.917 335.249C250.47 335.648 253.076 335.943 255.665 336.127C256.99 336.223 257.987 337.366 257.893 338.682C257.798 340 256.646 340.989 255.319 340.893C252.599 340.7 249.855 340.389 247.168 339.969C245.856 339.764 244.957 338.542 245.164 337.238C245.268 336.58 245.634 336.03 246.138 335.669C246.634 335.314 247.264 335.147 247.917 335.249ZM228.225 329.869C230.628 330.823 233.098 331.685 235.57 332.432C236.839 332.816 237.556 334.151 237.172 335.414C236.787 336.678 235.444 337.392 234.176 337.01C231.574 336.225 228.973 335.316 226.445 334.312C225.213 333.822 224.613 332.43 225.105 331.203C225.281 330.763 225.572 330.406 225.932 330.149C226.576 329.688 227.435 329.554 228.225 329.869ZM210.24 320.236C212.361 321.703 214.573 323.096 216.814 324.376C217.965 325.033 218.365 326.5 217.706 327.649C217.048 328.796 215.583 329.196 214.431 328.54C212.07 327.193 209.741 325.724 207.508 324.18C206.417 323.425 206.145 321.932 206.899 320.842C207.061 320.611 207.255 320.415 207.473 320.259C208.273 319.685 209.383 319.643 210.24 320.236ZM194.827 306.81C196.575 308.722 198.423 310.578 200.32 312.326C201.294 313.225 201.356 314.745 200.457 315.722C199.55 316.698 198.035 316.76 197.059 315.859C195.064 314.02 193.119 312.068 191.279 310.055C190.384 309.077 190.451 307.555 191.431 306.66C191.503 306.594 191.576 306.534 191.653 306.48C192.627 305.778 193.995 305.903 194.827 306.81ZM179.52 289.463C180.675 288.805 182.144 289.207 182.803 290.36C184.083 292.598 185.48 294.817 186.953 296.948C187.699 298.029 187.44 299.503 186.378 300.265L186.341 300.292C185.246 301.046 183.749 300.772 182.994 299.68C181.441 297.433 179.972 295.1 178.624 292.743C178.007 291.664 178.32 290.31 179.307 289.6C179.375 289.552 179.446 289.506 179.52 289.463Z" fill="white"/>
<path fill-rule="evenodd" clip-rule="evenodd" d="M349.278 275.144C348.903 275.423 348.601 275.816 348.435 276.298C348.031 277.469 347.598 278.652 347.145 279.815C346.662 281.05 347.249 282.454 348.454 282.949C349.659 283.445 351.026 282.843 351.507 281.606C351.984 280.384 352.44 279.14 352.864 277.907C353.298 276.65 352.657 275.272 351.435 274.829C350.681 274.554 349.881 274.699 349.278 275.144Z" fill="#D7D9E0"/>
<path fill-rule="evenodd" clip-rule="evenodd" d="M344.479 201.66C343.425 202.35 343.047 203.652 343.648 204.743C344.267 205.871 344.874 207.031 345.446 208.188C346.057 209.42 347.649 209.97 349.003 209.414C350.363 208.858 350.961 207.41 350.352 206.178C349.748 204.959 349.111 203.737 348.456 202.55C347.791 201.341 346.176 200.852 344.848 201.457C344.716 201.516 344.593 201.585 344.479 201.66Z" fill="#D7D9E0"/>
<path fill-rule="evenodd" clip-rule="evenodd" d="M335.695 184.478C336.941 186 338.153 187.577 339.3 189.167C339.714 189.744 340.123 190.322 340.524 190.904C341.273 191.993 341.023 193.495 339.901 194.229C338.808 194.978 337.314 194.702 336.563 193.611C336.183 193.059 335.796 192.508 335.4 191.96C334.31 190.449 333.157 188.948 331.975 187.504C331.137 186.48 331.291 184.972 332.318 184.136C332.357 184.106 332.396 184.075 332.436 184.046C333.458 183.314 334.89 183.493 335.695 184.478ZM320.639 169.809C322.732 171.451 324.781 173.203 326.731 175.019C327.698 175.919 327.749 177.428 326.846 178.39C325.947 179.35 324.429 179.403 323.462 178.503C321.61 176.779 319.663 175.115 317.676 173.555C316.639 172.741 316.46 171.24 317.278 170.207C317.421 170.027 317.584 169.872 317.761 169.743C318.606 169.14 319.782 169.137 320.639 169.809ZM302.736 158.688C305.149 159.834 307.543 161.095 309.847 162.439C310.99 163.106 311.373 164.569 310.705 165.707C310.037 166.844 308.567 167.227 307.424 166.56C305.236 165.285 302.965 164.087 300.674 162.997C299.479 162.429 298.971 161.005 299.542 159.815C299.721 159.439 299.987 159.133 300.304 158.904C300.991 158.414 301.919 158.299 302.736 158.688ZM282.835 151.81C285.441 152.402 288.051 153.109 290.59 153.911C291.852 154.311 292.548 155.648 292.148 156.901C291.746 158.154 290.398 158.846 289.138 158.446C286.724 157.682 284.245 157.012 281.767 156.45C280.479 156.158 279.671 154.882 279.965 153.6C280.102 153.012 280.446 152.525 280.902 152.198C281.442 151.814 282.139 151.652 282.835 151.81ZM261.911 149.393C264.582 149.406 267.282 149.532 269.938 149.766C271.257 149.883 272.23 151.04 272.113 152.353C271.996 153.666 270.832 154.635 269.515 154.516C266.992 154.294 264.424 154.174 261.888 154.16C260.564 154.154 259.497 153.081 259.503 151.764C259.509 150.972 259.901 150.269 260.503 149.84C260.899 149.555 261.386 149.391 261.911 149.393ZM240.934 151.579C243.537 151.011 246.201 150.547 248.852 150.199C250.165 150.026 251.369 150.946 251.542 152.255C251.715 153.566 250.792 154.766 249.48 154.938C246.961 155.27 244.431 155.712 241.959 156.251C240.664 156.533 239.387 155.716 239.104 154.426C238.894 153.464 239.294 152.512 240.049 151.973C240.306 151.788 240.605 151.65 240.934 151.579ZM183.442 193.597C184.567 194.293 184.912 195.767 184.21 196.887C182.865 199.032 181.598 201.261 180.442 203.511C179.836 204.686 178.389 205.15 177.207 204.55C176.026 203.95 175.557 202.512 176.161 201.337C177.379 198.968 178.715 196.622 180.131 194.362C180.301 194.09 180.519 193.862 180.766 193.685C181.534 193.137 182.589 193.07 183.442 193.597ZM220.977 158.288C223.395 157.161 225.895 156.121 228.406 155.198C229.65 154.741 231.029 155.377 231.487 156.619C231.943 157.861 231.306 159.236 230.062 159.693C227.676 160.57 225.304 161.556 223.008 162.629C221.807 163.189 220.38 162.671 219.82 161.472C219.323 160.412 219.671 159.174 220.59 158.515C220.709 158.43 220.838 158.353 220.977 158.288ZM196.585 177.844C197.526 178.771 197.538 180.284 196.61 181.225C194.83 183.031 193.105 184.932 191.486 186.875C190.644 187.89 189.133 188.027 188.117 187.182C187.101 186.337 186.964 184.828 187.809 183.815C189.513 181.768 191.328 179.767 193.203 177.867C193.299 177.769 193.402 177.681 193.512 177.602C194.442 176.936 195.744 177.012 196.585 177.844ZM209.53 164.651C210.642 163.937 212.127 164.253 212.847 165.359C213.565 166.465 213.247 167.936 212.134 168.653C210.017 170.016 207.926 171.487 205.893 173.045C204.852 173.848 203.338 173.655 202.53 172.612C201.721 171.569 201.916 170.073 202.965 169.27C203.845 168.594 204.734 167.936 205.629 167.297C206.908 166.384 208.221 165.493 209.53 164.651Z" fill="#D7D9E0"/>
<path fill-rule="evenodd" clip-rule="evenodd" d="M172.071 212.493C171.682 212.77 171.372 213.166 171.201 213.649C170.771 214.874 170.36 216.131 169.978 217.385C169.592 218.65 170.313 219.989 171.589 220.371C172.866 220.754 174.213 220.039 174.599 218.772C174.963 217.581 175.355 216.387 175.762 215.224C176.202 213.976 175.535 212.609 174.275 212.174C173.504 211.909 172.688 212.053 172.071 212.493Z" fill="white"/>
<path fill-rule="evenodd" clip-rule="evenodd" d="M190.357 249.548C190.326 250.026 190.604 250.469 191.045 250.652L203.66 255.886C204.731 262.172 206.812 268.333 209.925 274.112L203.207 285.99C202.972 286.406 203.028 286.927 203.344 287.287L214.195 299.554C214.513 299.915 215.022 300.032 215.465 299.849L228.075 294.635C233.431 298.429 239.291 301.248 245.4 303.081L249.051 316.237C249.18 316.699 249.587 317.029 250.065 317.058L266.414 318.06C266.892 318.089 267.335 317.813 267.518 317.37L272.752 304.757C279.038 303.686 285.199 301.605 290.978 298.493L302.856 305.208C303.275 305.445 303.793 305.389 304.153 305.073L316.423 294.222C316.781 293.904 316.899 293.394 316.716 292.952L311.501 280.342C315.295 274.987 318.115 269.127 319.945 263.018L333.105 259.364C333.566 259.237 333.895 258.831 333.924 258.353L334.926 242.004C334.955 241.526 334.68 241.083 334.236 240.9L321.624 235.666C320.552 229.378 318.471 223.219 315.359 217.44L322.075 205.562C322.312 205.144 322.256 204.623 321.94 204.265L311.089 191.996C310.771 191.637 310.262 191.52 309.819 191.703L297.208 196.917C291.853 193.123 285.993 190.304 279.884 188.471L276.23 175.313C276.103 174.853 275.697 174.523 275.219 174.494L258.87 173.49C258.392 173.461 257.948 173.739 257.765 174.18L252.532 186.795C246.246 187.866 240.085 189.947 234.306 193.059L222.425 186.342C222.009 186.107 221.489 186.161 221.13 186.478L208.861 197.33C208.502 197.648 208.385 198.156 208.568 198.599L213.782 211.21C209.988 216.565 207.169 222.425 205.336 228.534L192.178 232.186C191.718 232.315 191.388 232.721 191.359 233.199L190.357 249.548Z" fill="#CDFFCE"/>
<path fill-rule="evenodd" clip-rule="evenodd" d="M275.12 250.198C276.131 247.017 275.847 243.634 274.317 240.669C271.161 234.551 263.626 232.142 257.518 235.304C251.406 238.466 249.008 246.018 252.162 252.138C255.318 258.257 262.855 260.664 268.963 257.502C269.517 257.216 270.042 256.892 270.541 256.535C272.699 254.979 274.298 252.782 275.12 250.198ZM255.776 231.926C263.741 227.808 273.571 230.942 277.686 238.912C279.68 242.771 280.051 247.178 278.733 251.317C277.414 255.456 274.563 258.836 270.703 260.829C262.736 264.945 252.907 261.813 248.793 253.844C245.047 246.594 247.302 237.802 253.739 233.173C254.377 232.715 255.058 232.298 255.776 231.926Z" fill="#B2D7AF"/>
<path fill-rule="evenodd" clip-rule="evenodd" d="M239.217 213.562C238.091 214.363 237.001 215.226 235.947 216.148C235.616 216.438 235.29 216.736 234.969 217.036C233.382 218.521 231.918 220.128 230.599 221.832C230.579 221.855 230.562 221.878 230.544 221.901C230.494 221.969 230.442 222.034 230.391 222.101C230.295 222.23 230.196 222.361 230.099 222.489C229.845 222.833 229.855 223.289 230.093 223.615C230.149 223.696 230.221 223.767 230.306 223.829C230.734 224.142 231.339 224.05 231.654 223.625C233.28 221.432 235.155 219.401 237.227 217.584C247.515 208.554 261.328 205.947 273.644 209.45C280.496 211.396 286.884 215.235 291.944 220.914C292.833 221.909 293.664 222.941 294.435 224.005C299.624 231.171 302.152 239.816 301.598 248.742C300.965 258.993 296.345 268.387 288.589 275.192C272.569 289.244 248.03 287.745 233.87 271.864C232.997 270.884 232.177 269.865 231.414 268.81C228.104 264.239 225.837 259.001 224.799 253.463C224.772 253.319 224.714 253.19 224.634 253.078C224.423 252.788 224.053 252.627 223.674 252.696C223.149 252.794 222.802 253.292 222.901 253.814C223.993 259.627 226.37 265.129 229.845 269.927C230.647 271.033 231.507 272.104 232.423 273.132C247.29 289.807 273.065 291.369 289.867 276.627C298.011 269.485 302.861 259.621 303.525 248.859C304.107 239.489 301.453 230.414 296.004 222.891C295.194 221.773 294.322 220.689 293.391 219.645C286.189 211.567 276.248 206.756 265.398 206.095C255.951 205.52 246.8 208.154 239.217 213.562Z" fill="#B2D7AF"/>
<path fill-rule="evenodd" clip-rule="evenodd" d="M7.66339 163.153C7.21036 163.683 7.08735 164.519 7.40893 165.213C8.00813 166.51 8.64925 167.803 9.31427 169.056C9.74635 169.871 10.6576 170.118 11.3513 169.61C12.0468 169.106 12.2548 168.03 11.8229 167.217C11.1893 166.022 10.5781 164.789 10.006 163.553C9.61672 162.71 8.71893 162.399 8.00077 162.855C7.87354 162.937 7.7612 163.039 7.66339 163.153Z" fill="white"/>
<path fill-rule="evenodd" clip-rule="evenodd" d="M121.025 168.954C121.723 169.452 121.892 170.43 121.403 171.141C120.048 173.108 118.564 175.033 116.998 176.857C116.761 177.136 116.521 177.41 116.28 177.683C115.73 178.34 114.733 178.377 114.1 177.793C113.468 177.211 113.42 176.218 113.991 175.574C114.218 175.32 114.443 175.062 114.669 174.796C116.169 173.05 117.584 171.214 118.876 169.338C118.929 169.26 118.988 169.19 119.051 169.125C119.572 168.598 120.404 168.51 121.025 168.954ZM102.14 185.984C104.296 184.515 106.39 182.886 108.363 181.144C109.008 180.578 109.981 180.648 110.539 181.304C111.097 181.959 111.019 182.941 110.383 183.521C108.314 185.345 106.118 187.052 103.858 188.593C103.149 189.076 102.191 188.884 101.717 188.163C101.3 187.529 101.397 186.697 101.909 186.177C101.979 186.107 102.056 186.042 102.14 185.984ZM88.1446 193.112C90.6089 192.225 93.0408 191.174 95.3743 189.985C96.1382 189.597 97.0711 189.907 97.4555 190.681C97.8399 191.453 97.5336 192.393 96.7681 192.786C94.3217 194.032 91.7696 195.135 89.1845 196.067C88.3781 196.356 87.4913 195.931 87.2042 195.116C86.9968 194.525 87.1597 193.894 87.5709 193.478C87.728 193.321 87.921 193.194 88.1446 193.112ZM72.8555 196.542C75.4556 196.287 78.0631 195.865 80.6087 195.289C81.4415 195.102 82.2677 195.635 82.4537 196.482C82.6394 197.327 82.1153 198.166 81.2798 198.353C78.6125 198.956 75.8784 199.397 73.1539 199.666C72.3039 199.748 71.548 199.118 71.4659 198.256C71.4194 197.768 71.5974 197.311 71.9141 196.991C72.1585 196.745 72.4856 196.577 72.8555 196.542ZM57.1564 196.175C59.7363 196.567 62.3644 196.801 64.9635 196.869C65.8168 196.892 66.4898 197.609 66.4671 198.471C66.4449 199.332 65.7373 200.014 64.885 199.993C62.1575 199.921 59.4036 199.676 56.6974 199.266C55.8545 199.138 55.2735 198.341 55.4 197.486C55.4522 197.144 55.61 196.843 55.8365 196.614C56.1712 196.276 56.6535 196.099 57.1564 196.175ZM42.087 191.857C44.4991 192.879 47.0001 193.757 49.522 194.469C50.3457 194.702 50.8274 195.567 50.5968 196.398C50.3649 197.233 49.512 197.718 48.6866 197.484C46.0423 196.738 43.4183 195.814 40.889 194.745C40.0997 194.411 39.7269 193.494 40.0581 192.696C40.1394 192.503 40.2541 192.334 40.3935 192.193C40.8252 191.759 41.49 191.606 42.087 191.857ZM28.4426 183.953C30.5359 185.543 32.745 187.018 35.0091 188.333C35.7514 188.763 36.0069 189.72 35.5805 190.47C35.1557 191.216 34.2076 191.481 33.4654 191.048C31.0924 189.671 28.7759 188.126 26.5815 186.457C25.8973 185.936 25.7595 184.955 26.2734 184.263C26.3185 184.203 26.3684 184.146 26.4204 184.093C26.9574 183.552 27.8191 183.48 28.4426 183.953ZM15.0274 172.695C15.6888 172.149 16.6591 172.253 17.1961 172.925C18.5506 174.619 20.0064 176.263 21.5229 177.809C21.8427 178.136 22.1675 178.46 22.4963 178.781C23.1089 179.381 23.1276 180.372 22.5373 180.995C21.9558 181.562 20.971 181.636 20.3563 181.036C20.0125 180.699 19.673 180.36 19.3382 180.02C17.7487 178.399 16.2222 176.676 14.8021 174.898C14.2992 174.268 14.3563 173.363 14.9098 172.802C14.9466 172.765 14.9861 172.73 15.0274 172.695Z" fill="white"/>
<path fill-rule="evenodd" clip-rule="evenodd" d="M79.1072 67.6103C81.7381 68.1492 84.3591 68.8564 86.8961 69.7106C87.703 69.9828 88.1382 70.8629 87.8693 71.6779C87.601 72.4922 86.7283 72.9313 85.9234 72.6612C83.5039 71.8453 81.0049 71.1715 78.4964 70.6593C77.6634 70.4886 77.1246 69.6679 77.2941 68.8265C77.3557 68.5136 77.5073 68.2433 77.7149 68.0343C78.0672 67.6797 78.5829 67.5036 79.1072 67.6103ZM63.0231 66.3212C65.7031 66.2081 68.414 66.2592 71.0793 66.472C71.926 66.5392 72.5581 67.2882 72.4914 68.1457C72.4253 69.0021 71.6847 69.6435 70.8363 69.5759C68.2948 69.3735 65.7087 69.3255 63.1511 69.4332C62.3021 69.4692 61.5852 68.8011 61.5498 67.942C61.5312 67.4883 61.7063 67.0712 62.0017 66.7734C62.2646 66.5083 62.6232 66.3382 63.0231 66.3212ZM47.1032 68.9698C49.6823 68.2168 52.3347 67.6146 54.9873 67.1787C55.8287 67.0404 56.623 67.6123 56.7611 68.4555C56.8991 69.2987 56.3298 70.0952 55.4867 70.2329C52.9562 70.6473 50.4271 71.2224 47.9677 71.9415C47.1493 72.18 46.2918 71.7095 46.0532 70.888C45.8894 70.3262 46.0597 69.7451 46.447 69.3584C46.6236 69.182 46.8461 69.0452 47.1032 68.9698ZM7.49424 104.119C8.26385 104.481 8.59557 105.405 8.23592 106.181C7.15334 108.514 6.20256 110.937 5.41075 113.384C5.14618 114.197 4.27747 114.642 3.4717 114.378C2.66382 114.112 2.2221 113.237 2.48591 112.422C3.31578 109.856 4.31286 107.313 5.44901 104.867C5.52802 104.698 5.63285 104.549 5.75682 104.425C6.20179 103.978 6.89297 103.836 7.49424 104.119ZM32.2999 75.3694C34.6196 74.006 37.041 72.7741 39.4972 71.7083C40.2784 71.3698 41.1837 71.736 41.5179 72.5254C41.8537 73.3153 41.4923 74.2265 40.7113 74.5694C38.3678 75.5856 36.0586 76.7605 33.8446 78.0602C33.1097 78.4918 32.1684 78.2392 31.7422 77.4973C31.3834 76.8722 31.5026 76.0998 31.9859 75.6129C32.0775 75.5206 32.1822 75.4385 32.2999 75.3694ZM16.1921 90.9402C16.8517 91.4772 16.954 92.4515 16.4198 93.115C14.8133 95.113 13.3108 97.2288 11.9546 99.4045C11.5042 100.123 10.5546 100.347 9.83459 99.8918C9.11518 99.438 8.89895 98.4843 9.34937 97.7599C10.771 95.48 12.3454 93.2623 14.0297 91.1694C14.0652 91.1252 14.1019 91.084 14.1413 91.0446C14.6902 90.4944 15.5746 90.4375 16.1921 90.9402ZM19.4826 85.1405C21.411 83.2586 23.4713 81.4798 25.604 79.8503C26.2823 79.3334 27.2495 79.4655 27.765 80.1479C28.2808 80.8304 28.1384 81.7998 27.4691 82.3203C25.4343 83.873 23.4701 85.5708 21.6304 87.3661C21.0196 87.9626 20.0426 87.9474 19.45 87.3334C18.8619 86.7238 18.8711 85.7528 19.4677 85.1556L19.4826 85.1405Z" fill="white"/>
<path fill-rule="evenodd" clip-rule="evenodd" d="M1.40098 118.542C1.12726 118.762 0.929756 119.048 0.850056 119.378C0.521792 120.738 0.242593 122.112 0.0179386 123.463C-0.128759 124.348 0.640345 125.164 1.73697 125.283C2.83135 125.399 3.83955 124.779 3.98899 123.894C4.20219 122.606 4.46943 121.295 4.78175 119.997C4.99346 119.119 4.28388 118.269 3.19871 118.098C2.52126 117.992 1.85627 118.175 1.40098 118.542Z" fill="#D7D9E0"/>
<path fill-rule="evenodd" clip-rule="evenodd" d="M16.7976 144.397C16.8311 144.73 17.0715 145.006 17.3972 145.083L26.6855 147.288C28.1263 151.507 30.2504 155.527 33.0425 159.167L29.7324 168.115C29.6165 168.428 29.7122 168.781 29.9711 168.993L38.8287 176.249C39.0873 176.463 39.4524 176.486 39.7371 176.311L47.8588 171.304C51.9775 173.327 56.3361 174.619 60.7563 175.201L64.7451 183.875C64.8849 184.177 65.2024 184.36 65.535 184.327L76.9298 183.195C77.2627 183.162 77.5383 182.921 77.6156 182.596L79.8201 173.308C84.0392 171.867 88.0588 169.742 91.6994 166.951L100.647 170.26C100.961 170.376 101.314 170.282 101.526 170.021L108.783 161.165C108.995 160.905 109.019 160.541 108.844 160.256L103.838 152.135C105.859 148.016 107.151 143.657 107.734 139.237L116.407 135.247C116.711 135.109 116.893 134.791 116.86 134.458L115.728 123.063C115.695 122.73 115.454 122.455 115.128 122.378L105.84 120.173C104.399 115.954 102.275 111.934 99.4831 108.294L102.793 99.3465C102.909 99.0329 102.814 98.6798 102.555 98.4677L93.6971 91.2107C93.4382 90.9986 93.0732 90.9742 92.7885 91.1497L84.6669 96.1555C80.5483 94.134 76.1892 92.8422 71.7695 92.2597L67.7806 83.5866C67.6408 83.2826 67.3235 83.1008 66.9905 83.1337L55.5957 84.2656C55.2627 84.2987 54.9874 84.5395 54.91 84.865L52.7054 94.1532C48.4864 95.594 44.4669 97.7179 40.8263 100.51L31.8788 97.1999C31.565 97.084 31.2122 97.1797 30.9999 97.4386L23.743 106.296C23.5311 106.555 23.5065 106.92 23.6821 107.205L28.6876 115.326C26.6661 119.445 25.3745 123.804 24.7918 128.225L16.1186 132.212C15.8146 132.352 15.633 132.67 15.6659 133.003L16.7976 144.397Z" fill="#CDFFCE"/>
<path fill-rule="evenodd" clip-rule="evenodd" d="M73.4315 128.424C72.0199 126.516 69.951 125.273 67.6039 124.922C65.2587 124.572 62.9159 125.157 61.0093 126.568C59.1043 127.981 57.8598 130.047 57.5091 132.395C57.158 134.739 57.7437 137.083 59.1539 138.989C62.067 142.924 67.6385 143.758 71.5753 140.844C71.9304 140.582 72.2597 140.299 72.5641 139.995C75.6312 136.94 76.0812 132.002 73.4315 128.424ZM59.0981 124.05C61.6851 122.134 64.8633 121.342 68.0465 121.817C71.2289 122.292 74.0367 123.979 75.9512 126.566C79.9031 131.905 78.7744 139.452 73.4339 143.42C68.0923 147.371 60.5328 146.24 56.5823 140.902C54.6672 138.315 53.8743 135.138 54.3495 131.955C54.7363 129.368 55.9235 127.028 57.744 125.215C58.1624 124.798 58.615 124.408 59.0981 124.05Z" fill="#D7D9E0"/>
<path fill-rule="evenodd" clip-rule="evenodd" d="M45.663 112.187C44.9552 112.887 44.2779 113.628 43.6309 114.41C42.3473 115.964 41.2217 117.65 40.2832 119.425C40.2418 119.504 40.2002 119.585 40.1586 119.665C39.8377 120.284 39.9732 121.016 40.4427 121.485C40.5571 121.599 40.6914 121.697 40.8428 121.774C41.6185 122.17 42.5676 121.862 42.9675 121.095C43.8277 119.43 44.873 117.85 46.0728 116.398C46.1386 116.318 46.2063 116.238 46.2725 116.16C49.1439 112.748 52.7629 110.177 56.8202 108.584C59.0225 107.72 61.3557 107.146 63.7707 106.886C63.7903 106.884 63.8098 106.882 63.8294 106.88C63.8901 106.874 63.9495 106.867 64.0094 106.861C71.0756 106.165 77.9925 108.241 83.485 112.708C84.1965 113.286 84.8717 113.895 85.5115 114.532C89.8156 118.822 92.4801 124.405 93.0919 130.511C93.7934 137.525 91.7006 144.391 87.201 149.842C82.7018 155.289 76.3307 158.679 69.2649 159.377C62.199 160.073 55.2819 157.997 49.7894 153.531C49.0901 152.964 48.4229 152.361 47.7895 151.73C45.0436 148.992 42.9322 145.691 41.6181 142.052C41.5366 141.828 41.4102 141.633 41.2508 141.475C40.833 141.058 40.1939 140.895 39.5992 141.107C38.7793 141.401 38.3511 142.294 38.6462 143.11C40.1171 147.182 42.4796 150.878 45.5503 153.94C46.2597 154.647 47.0058 155.32 47.7874 155.955C53.9337 160.954 61.6715 163.277 69.5779 162.497C77.4826 161.716 84.6105 157.935 89.6436 151.829C94.6788 145.73 97.0194 138.049 96.233 130.202C95.5502 123.37 92.5686 117.124 87.7531 112.325C87.0382 111.612 86.2818 110.93 85.4872 110.284C73.5886 100.609 56.3345 101.636 45.663 112.187Z" fill="#B2D7AF"/>
<path fill-rule="evenodd" clip-rule="evenodd" d="M132.526 244.57H137.345V161.44H132.526V244.57Z" fill="#2F7630"/>
<path fill-rule="evenodd" clip-rule="evenodd" d="M202.403 249.389H68.6724C68.6724 260.535 70.6874 271.59 74.6233 282.039L97.9956 344.088C99.7408 348.721 104.227 351.795 109.242 351.795H161.832C166.847 351.795 171.333 348.721 173.079 344.088L196.452 282.039C200.387 271.59 202.403 260.535 202.403 249.389Z" fill="#2F7630"/>
<path fill-rule="evenodd" clip-rule="evenodd" d="M208.148 256.618H61.7216C60.9028 256.618 60.2389 255.962 60.2389 255.152V240.012C60.2389 239.203 60.9028 238.546 61.7216 238.546H208.148C208.968 238.546 209.631 239.203 209.631 240.012V255.152C209.631 255.962 208.968 256.618 208.148 256.618Z" fill="#7AAD78"/>
<path fill-rule="evenodd" clip-rule="evenodd" d="M50.1251 57.6872C22.3611 54.7237 37.2681 99.6018 41.8179 112.451C48.0386 130.018 57.146 146.442 67.7595 161.734C85.4074 187.16 119.719 213.49 152.137 199.908C163.836 195.006 174.714 188.165 184.189 179.751C198.622 166.933 209.595 150.714 219.197 133.993C229.908 115.343 239.274 95.2513 240.802 73.8152C241.128 69.2459 241.066 64.5097 239.289 60.2853C235.409 51.0619 224.44 46.8114 214.413 46.491C210.749 46.374 205.946 47.2433 200.9 48.1125C192.374 49.5816 183.151 51.0506 177.546 47.7609C169.408 42.9861 172.56 28.6924 163.304 22.221C158.437 18.8173 152.886 19.312 147.248 19.8068C141.595 20.3027 135.857 20.7987 130.634 17.368C118.482 9.38872 105.653 1.06607 91.1375 0.0718264C76.6217 -0.922416 60.2856 8.49141 59.2701 22.9605C58.6991 31.0976 67.3502 46.9719 63.0977 54.3321C60.2434 59.2722 55.1742 58.2271 50.1251 57.6872Z" fill="#C7ECC4"/>
<mask id="mask0_506_882" style="mask-type:luminance" maskUnits="userSpaceOnUse" x="249" y="187" width="12" height="12">
<path d="M253.816 198.788C252.215 197.251 250.721 195.56 249.389 193.698C251.505 191.914 253.503 189.99 255.367 187.945C256.817 189.144 258.44 190.285 260.232 191.271C258.821 193.501 256.693 196.333 253.816 198.788Z" fill="white"/>
</mask>
<g mask="url(#mask0_506_882)">
<path fill-rule="evenodd" clip-rule="evenodd" d="M253.816 198.788C252.215 197.251 250.721 195.56 249.389 193.698C251.505 191.914 253.503 189.99 255.367 187.945C256.817 189.144 258.44 190.285 260.232 191.271C258.821 193.501 256.693 196.333 253.816 198.788Z" fill="url(#paint0_linear_506_882)"/>
</g>
<path fill-rule="evenodd" clip-rule="evenodd" d="M272.87 193.778C292.864 194.373 297.58 199.117 297.58 199.117L286.366 213.246C286.366 213.246 266.944 210.634 254.208 198.159C257.135 195.61 259.298 192.67 260.733 190.355C264.162 192.278 268.204 193.638 272.87 193.778Z" fill="#94BC90"/>
<path fill-rule="evenodd" clip-rule="evenodd" d="M272.276 144.68C271.883 180.277 242.71 208.815 207.114 208.422C171.518 208.032 142.98 178.857 143.373 143.262C143.765 107.665 172.938 79.1271 208.534 79.5191C244.129 79.9111 272.668 109.085 272.276 144.68Z" fill="#88C289"/>
<path fill-rule="evenodd" clip-rule="evenodd" d="M269.866 145.263C269.485 179.861 241.13 207.599 206.531 207.218C171.934 206.837 144.196 178.48 144.577 143.883C144.956 109.286 173.314 81.5475 207.911 81.9287C242.509 82.3096 270.248 110.665 269.866 145.263Z" fill="#CDFFCE"/>
<path fill-rule="evenodd" clip-rule="evenodd" d="M156.59 118.068C156.587 118.068 156.581 118.068 156.577 118.068C156.4 118.066 156.219 118.026 156.05 117.941C155.475 117.653 155.25 116.968 155.549 116.414C165.814 97.3242 185.935 85.5391 208.173 85.5391C208.396 85.5391 208.618 85.5404 208.843 85.5426C212.433 85.581 216.026 85.9311 219.522 86.5847C220.16 86.7031 220.575 87.2972 220.453 87.9123C220.344 88.4519 219.858 88.8303 219.306 88.8303C219.231 88.8303 219.153 88.8232 219.075 88.8084C215.717 88.1817 212.266 87.8453 208.816 87.8087C208.602 87.8065 208.387 87.8051 208.175 87.8051C186.815 87.8051 167.495 99.1224 157.634 117.456C157.424 117.845 157.014 118.068 156.59 118.068Z" fill="#FDF8DA"/>
<path fill-rule="evenodd" clip-rule="evenodd" d="M208.439 198.789C208.24 198.789 208.043 198.789 207.843 198.787C178.568 198.464 155.099 174.47 155.42 145.195C155.741 116.12 179.413 92.7681 208.414 92.7681C208.613 92.7681 208.811 92.7692 209.01 92.7714C238.285 93.0936 261.755 117.087 261.434 146.364C261.113 175.437 237.44 198.789 208.439 198.789Z" fill="#FDF8DA"/>
<path fill-rule="evenodd" clip-rule="evenodd" d="M203.376 184.493L203.439 178.698C197.486 178.389 191.612 176.898 187.448 174.993C185.962 174.312 185.218 172.604 185.665 171.012L187.174 165.629C187.728 163.654 189.862 162.655 191.719 163.469C195.85 165.279 200.96 166.733 206.485 166.795C212.219 166.859 216.519 164.935 216.563 160.89C216.603 157.241 213.321 155.035 205.372 152.776C194.033 149.492 185.921 144.37 186.031 134.209C186.13 125.037 192.819 118.107 204.309 116.362L204.372 110.565C204.393 108.7 205.899 107.205 207.738 107.225L211.093 107.263C212.932 107.283 214.406 108.812 214.386 110.677L214.329 115.881C219.837 116.167 223.838 117.168 227.009 118.338C228.633 118.938 229.505 120.73 229.034 122.418L227.645 127.396C227.11 129.316 225.07 130.347 223.24 129.622C220.32 128.465 216.189 127.246 210.804 127.186C203.998 127.111 202.023 129.95 201.996 132.514C201.962 135.671 206.021 137.885 214.837 140.747C227.434 144.736 232.624 150.12 232.521 159.688C232.427 168.465 225.924 176.286 213.459 178.119L213.388 184.606C213.369 186.47 211.861 187.967 210.024 187.945L206.667 187.908C204.83 187.887 203.354 186.359 203.376 184.493Z" fill="#2F7630"/>
<path fill-rule="evenodd" clip-rule="evenodd" d="M303.715 340.096C303.715 340.096 305.308 342.087 306.007 347.827C306.074 348.362 305.619 348.839 305.012 348.867L293.478 349.385C293.015 349.406 292.661 349.019 292.787 348.623C293.36 346.823 295.157 342.418 299.575 339.748L303.715 340.096Z" fill="#48494B"/>
<mask id="mask1_506_882" style="mask-type:luminance" maskUnits="userSpaceOnUse" x="299" y="336" width="8" height="8">
<path d="M306.014 337.317L304.722 342.58C304.611 343.034 304.192 343.36 303.704 343.362C303.055 343.364 302.116 343.312 301.226 343.07C300.418 342.852 299.908 342.083 300.001 341.284L300.607 336.133L306.014 337.317Z" fill="white"/>
</mask>
<g mask="url(#mask1_506_882)">
<path fill-rule="evenodd" clip-rule="evenodd" d="M306.014 337.317L304.722 342.58C304.611 343.034 304.192 343.36 303.704 343.362C303.055 343.364 302.116 343.312 301.226 343.07C300.418 342.852 299.908 342.083 300.001 341.284L300.607 336.133L306.014 337.317Z" fill="url(#paint1_linear_506_882)"/>
</g>
<path fill-rule="evenodd" clip-rule="evenodd" d="M278.304 340.952C278.304 340.952 280.598 343.958 280.713 348.181C280.74 349.174 279.855 349.995 278.762 350.03L261.11 350.59C260.283 350.616 259.91 349.662 260.57 349.208C263.829 346.968 270.241 342.775 274.929 341.058L278.304 340.952Z" fill="#48494B"/>
<mask id="mask2_506_882" style="mask-type:luminance" maskUnits="userSpaceOnUse" x="274" y="333" width="6" height="11">
<path d="M279.509 335.667L279.02 342.127C278.965 342.851 278.259 343.418 277.438 343.357C276.941 343.32 276.341 343.208 275.681 342.945C275.052 342.698 274.664 342.127 274.691 341.519L275.022 333.724L279.509 335.667Z" fill="white"/>
</mask>
<g mask="url(#mask2_506_882)">
<path fill-rule="evenodd" clip-rule="evenodd" d="M279.509 335.667L279.02 342.127C278.965 342.851 278.259 343.418 277.438 343.357C276.941 343.32 276.341 343.208 275.681 342.945C275.052 342.698 274.664 342.127 274.691 341.519L275.022 333.724L279.509 335.667Z" fill="url(#paint2_linear_506_882)"/>
</g>
<path fill-rule="evenodd" clip-rule="evenodd" d="M314.732 245.775C314.732 245.775 318.939 250.492 319.26 255.624C319.58 260.756 307.13 342.144 307.13 342.144C307.13 342.144 302.37 342.399 300.126 340.641C300.126 340.641 303.163 287.244 302.354 274.731C302.354 274.731 284.865 328.404 280.606 337.975C280.606 337.975 276.045 338.016 274.689 336.981C274.689 336.981 285.586 266.059 290.74 253.818L314.732 245.775Z" fill="black"/>
<path fill-rule="evenodd" clip-rule="evenodd" d="M301.94 273.485C302.239 273.485 302.522 273.321 302.635 273.054L305.644 266.028L310.417 263.913C310.785 263.75 310.938 263.349 310.756 263.016C310.574 262.684 310.126 262.547 309.757 262.711L304.723 264.943C304.555 265.016 304.424 265.146 304.357 265.302L301.245 272.572C301.096 272.918 301.289 273.306 301.672 273.439C301.76 273.47 301.85 273.485 301.94 273.485Z" fill="#5C5E61"/>
<path fill-rule="evenodd" clip-rule="evenodd" d="M265.001 201.931C272.867 195.206 286.611 193.309 294.504 192.781C297.962 192.55 301.089 194.799 301.926 198.141C304.352 207.833 311.075 233.091 312.437 237.457C313.555 241.037 314.75 244.544 315.512 246.739C315.967 248.051 315.277 249.482 313.96 249.942C307.099 252.33 294.988 254.545 290.085 255.388C289.008 255.575 288.054 254.68 288.178 253.597C288.281 252.681 288.134 251.752 287.748 250.915L273.146 219.117C260.539 230.212 250.598 230.241 243.365 226.693C245.074 222.942 246.347 219.132 247.188 215.269C258.541 214.62 265.001 201.931 265.001 201.931Z" fill="#94BC90"/>
<mask id="mask3_506_882" style="mask-type:luminance" maskUnits="userSpaceOnUse" x="230" y="208" width="19" height="19">
<path d="M230.113 210.646L232.894 208.427C238.817 213.564 243.708 215.406 248.184 215.15C247.355 218.987 246.099 222.772 244.413 226.498C235.013 221.855 230.113 210.646 230.113 210.646Z" fill="white"/>
</mask>
<g mask="url(#mask3_506_882)">
<path fill-rule="evenodd" clip-rule="evenodd" d="M230.113 210.646L232.894 208.427C238.817 213.564 243.708 215.406 248.184 215.15C247.355 218.987 246.099 222.772 244.413 226.498C235.013 221.855 230.113 210.646 230.113 210.646Z" fill="url(#paint3_linear_506_882)"/>
</g>
<mask id="mask4_506_882" style="mask-type:luminance" maskUnits="userSpaceOnUse" x="208" y="203" width="25" height="10">
<path d="M231.888 209.279L220.355 212.041L208.427 208.353C209.766 207.107 218.858 207.291 218.858 207.291C218.858 207.291 227.659 204.14 230.117 203.647C232.159 203.236 232.468 206.155 232.514 207.156C232.524 207.36 232.522 207.484 232.522 207.484L231.888 209.279Z" fill="white"/>
</mask>
<g mask="url(#mask4_506_882)">
<path fill-rule="evenodd" clip-rule="evenodd" d="M231.888 209.279L220.355 212.041L208.427 208.353C209.766 207.107 218.858 207.291 218.858 207.291C218.858 207.291 227.659 204.14 230.117 203.647C232.159 203.236 232.468 206.155 232.514 207.156C232.524 207.36 232.522 207.484 232.522 207.484L231.888 209.279Z" fill="url(#paint4_linear_506_882)"/>
</g>
<mask id="mask5_506_882" style="mask-type:luminance" maskUnits="userSpaceOnUse" x="274" y="178" width="16" height="19">
<path d="M284.791 178.307L289.147 193.337C289.147 193.337 281.705 197.257 276.203 196.197L274.689 182.949L284.791 178.307Z" fill="white"/>
</mask>
<g mask="url(#mask5_506_882)">
<path fill-rule="evenodd" clip-rule="evenodd" d="M284.791 178.307L289.147 193.337C289.147 193.337 281.705 197.257 276.203 196.197L274.689 182.949L284.791 178.307Z" fill="url(#paint5_linear_506_882)"/>
</g>
<mask id="mask6_506_882" style="mask-type:luminance" maskUnits="userSpaceOnUse" x="271" y="166" width="16" height="19">
<path d="M276.967 166.908C276.812 167.083 271.075 181.25 271.075 181.25L279.29 184.331L286.737 171.704C286.737 171.704 279.554 164.021 276.967 166.908Z" fill="white"/>
</mask>
<g mask="url(#mask6_506_882)">
<path fill-rule="evenodd" clip-rule="evenodd" d="M276.967 166.908C276.812 167.083 271.075 181.25 271.075 181.25L279.29 184.331L286.737 171.704C286.737 171.704 279.554 164.021 276.967 166.908Z" fill="url(#paint6_linear_506_882)"/>
</g>
<path fill-rule="evenodd" clip-rule="evenodd" d="M283.345 173.141L279.814 180.148C279.769 180.238 279.712 180.32 279.643 180.395C279.221 180.852 277.651 182.324 276.185 180.686C274.856 179.199 273.617 177.862 272.373 177.508C271.814 177.35 271.221 177.624 271.003 178.145C270.461 179.443 269.297 182.39 268.691 185.097C268.567 185.647 268.909 186.193 269.466 186.359C271.148 186.86 274.724 187.82 277.79 187.944C278.206 187.961 278.597 187.763 278.811 187.419C279.855 185.747 283.051 180.677 284.167 179.396C285.216 178.194 287.41 178.47 288.323 178.648C288.621 178.706 288.929 178.646 289.18 178.478C290.066 177.884 291.805 176.314 289.889 174C289.489 173.517 289.583 172.816 290.097 172.445C291.124 171.707 292.29 170.326 290.961 168.314C289.61 166.268 287.502 166.342 286.181 166.649C285.645 166.774 285.11 166.504 284.884 166.022C284.756 165.746 284.501 165.522 284.016 165.51C283.363 165.493 282.878 164.913 282.964 164.29C283.127 163.09 282.858 161.524 280.768 160.64C277.06 159.072 274.244 162.386 273.694 165.025C273.144 167.666 277.266 169.147 279.781 169.238C281.692 169.308 282.888 171.269 283.351 172.204C283.498 172.5 283.494 172.844 283.345 173.141Z" fill="#333435"/>
<mask id="mask7_506_882" style="mask-type:luminance" maskUnits="userSpaceOnUse" x="283" y="178" width="7" height="7">
<path d="M283.123 183.227C283.123 183.227 284.338 178.317 286.455 178.307C288.573 178.297 290.411 180.227 288.017 182.79C285.037 185.98 283.123 183.227 283.123 183.227Z" fill="white"/>
</mask>
<g mask="url(#mask7_506_882)">
<path fill-rule="evenodd" clip-rule="evenodd" d="M283.123 183.227C283.123 183.227 284.338 178.317 286.455 178.307C288.573 178.297 290.411 180.227 288.017 182.79C285.037 185.98 283.123 183.227 283.123 183.227Z" fill="url(#paint7_linear_506_882)"/>
</g>
<path fill-rule="evenodd" clip-rule="evenodd" d="M98.7902 102.088C98.6326 116.393 86.9085 127.862 72.6039 127.705C58.299 127.547 46.8306 115.822 46.9879 101.518C47.1455 87.2133 58.8696 75.7447 73.1742 75.9025C87.4791 76.0599 98.9476 87.7838 98.7902 102.088Z" fill="#88C289"/>
<path fill-rule="evenodd" clip-rule="evenodd" d="M97.5854 102.685C97.4316 116.657 85.9803 127.859 72.0079 127.705C58.0359 127.551 46.8341 116.1 46.9879 102.128C47.1417 88.1557 58.593 76.9539 72.5652 77.1075C86.5376 77.2615 97.7393 88.713 97.5854 102.685Z" fill="#CDFFCE"/>
<path fill-rule="evenodd" clip-rule="evenodd" d="M51.0788 91.5631H51.0737C51.0013 91.5622 50.9279 91.5455 50.859 91.5111C50.6243 91.3937 50.5329 91.1149 50.6546 90.8891C54.8372 83.1118 63.0345 78.3105 72.0946 78.3105C72.1857 78.3105 72.2759 78.3109 72.3672 78.312C73.8303 78.3276 75.294 78.4701 76.7181 78.7363C76.9778 78.7848 77.1473 79.0268 77.097 79.2773C77.0527 79.4973 76.8547 79.6514 76.6301 79.6514C76.5991 79.6514 76.5678 79.6484 76.5362 79.6424C75.1684 79.3872 73.7621 79.25 72.3567 79.2352C72.2697 79.2343 72.1818 79.2337 72.095 79.2337C63.3932 79.2337 55.5215 83.8445 51.5043 91.3137C51.419 91.4721 51.2519 91.5631 51.0788 91.5631Z" fill="#FDF8DA"/>
<path fill-rule="evenodd" clip-rule="evenodd" d="M73.4966 124.092C73.4149 124.092 73.3346 124.092 73.2527 124.091C61.2764 123.959 51.6748 114.144 51.8068 102.167C51.9377 90.2731 61.6218 80.7202 73.4863 80.7202C73.568 80.7202 73.6485 80.7202 73.7303 80.7214C85.7064 80.8533 95.3082 90.6687 95.1761 102.645C95.0451 114.539 85.3611 124.092 73.4966 124.092Z" fill="#FDF8DA"/>
<path fill-rule="evenodd" clip-rule="evenodd" d="M71.1719 119.087L71.1977 116.751C68.7557 116.627 66.3456 116.026 64.6375 115.258C64.0278 114.984 63.7229 114.295 63.9062 113.654L64.5254 111.485C64.7528 110.689 65.6281 110.286 66.3901 110.614C68.0849 111.344 70.1807 111.93 72.4475 111.955C74.8004 111.98 76.5641 111.205 76.5821 109.575C76.5982 108.104 75.2521 107.215 71.9913 106.305C67.3391 104.981 64.0112 102.917 64.0565 98.8232C64.0973 95.1264 66.8407 92.3341 71.555 91.6307L71.581 89.2947C71.5893 88.5432 72.2073 87.9406 72.9614 87.9488L74.3384 87.9639C75.0925 87.9723 75.6971 88.5883 75.6888 89.3399L75.6657 91.4371C77.9253 91.552 79.5665 91.9555 80.8675 92.427C81.534 92.6687 81.8917 93.391 81.6986 94.0712L81.1287 96.0772C80.9092 96.8508 80.0722 97.2667 79.321 96.9741C78.1236 96.5078 76.4288 96.0172 74.2193 95.993C71.4274 95.9623 70.6172 97.1061 70.6056 98.1396C70.5916 99.4117 72.2571 100.304 75.874 101.457C81.0418 103.065 83.1715 105.235 83.1291 109.09C83.0898 112.628 80.4226 115.779 75.3088 116.518L75.28 119.132C75.2718 119.883 74.6535 120.486 73.8994 120.478L72.5222 120.463C71.7681 120.454 71.1636 119.839 71.1719 119.087Z" fill="#2F7630"/>
<path fill-rule="evenodd" clip-rule="evenodd" d="M177.101 62.2782C176.974 73.9217 167.429 83.2566 155.786 83.1283C144.143 83.0001 134.807 73.4572 134.937 61.8138C135.064 50.1704 144.608 40.8355 156.252 40.9637C167.895 41.0919 177.23 50.6348 177.101 62.2782Z" fill="#88C289"/>
<path fill-rule="evenodd" clip-rule="evenodd" d="M177.101 61.6692C176.977 72.9799 167.707 82.0482 156.395 81.9236C145.085 81.799 136.017 72.529 136.141 61.218C136.265 49.9073 145.536 40.8391 156.847 40.9637C168.157 41.0883 177.225 50.3585 177.101 61.6692Z" fill="#CDFFCE"/>
<path fill-rule="evenodd" clip-rule="evenodd" d="M138.941 54.2151H138.937C138.877 54.2143 138.818 54.2007 138.762 54.1723C138.569 54.0765 138.494 53.8484 138.593 53.6636C142.016 47.3004 148.723 43.3721 156.136 43.3721C156.21 43.3721 156.283 43.3725 156.359 43.3732C157.555 43.3859 158.753 43.5026 159.918 43.7205C160.131 43.76 160.27 43.958 160.228 44.1629C160.192 44.3431 160.029 44.469 159.846 44.469C159.821 44.469 159.795 44.4667 159.769 44.4617C158.65 44.253 157.499 44.1409 156.351 44.1284C156.279 44.1276 156.208 44.1273 156.136 44.1273C149.017 44.1273 142.576 47.8997 139.289 54.0111C139.219 54.1407 139.082 54.2151 138.941 54.2151Z" fill="#FDF8DA"/>
<path fill-rule="evenodd" clip-rule="evenodd" d="M156.023 80.7203C155.956 80.7203 155.892 80.7199 155.825 80.7191C146.178 80.6127 138.443 72.7061 138.551 63.0587C138.656 53.477 146.457 45.7817 156.015 45.7817C156.081 45.7817 156.146 45.7821 156.21 45.7829C165.858 45.8891 173.594 53.796 173.487 63.4434C173.381 73.0248 165.58 80.7203 156.023 80.7203Z" fill="#FDF8DA"/>
<path fill-rule="evenodd" clip-rule="evenodd" d="M154.134 75.9724L154.155 74.0693C152.171 73.968 150.213 73.478 148.826 72.8527C148.331 72.6295 148.082 72.068 148.231 71.5453L148.734 69.7781C148.918 69.1297 149.629 68.801 150.249 69.0686C151.626 69.6633 153.328 70.1406 155.17 70.1609C157.082 70.1819 158.514 69.5499 158.53 68.2219C158.542 67.0236 157.449 66.299 154.8 65.5574C151.021 64.4791 148.317 62.7973 148.354 59.4614C148.387 56.449 150.615 54.1738 154.445 53.6006L154.467 51.6974C154.473 51.0848 154.976 50.5939 155.587 50.6007L156.706 50.6131C157.319 50.6197 157.811 51.1217 157.803 51.734L157.786 53.4429C159.621 53.5365 160.954 53.8653 162.012 54.2496C162.552 54.4466 162.842 55.0351 162.686 55.5893L162.223 57.2237C162.045 57.8541 161.365 58.1929 160.754 57.9546C159.782 57.5745 158.405 57.1748 156.61 57.1552C154.341 57.1301 153.683 58.0623 153.673 58.9044C153.663 59.9408 155.015 60.6683 157.954 61.6077C162.153 62.9171 163.883 64.6853 163.849 67.8271C163.816 70.7095 161.649 73.2771 157.496 73.8793L157.472 76.0092C157.464 76.6216 156.963 77.1126 156.35 77.1058L155.231 77.0936C154.62 77.0867 154.128 76.5848 154.134 75.9724Z" fill="#2F7630"/>
<path fill-rule="evenodd" clip-rule="evenodd" d="M133.729 167.107C133.593 179.415 123.505 189.285 111.196 189.149C98.8876 189.012 89.0194 178.926 89.1549 166.616C89.2907 154.308 99.3785 144.438 111.687 144.575C123.996 144.709 133.863 154.798 133.729 167.107Z" fill="#88C289"/>
<path fill-rule="evenodd" clip-rule="evenodd" d="M133.729 166.499C133.596 178.474 123.781 188.075 111.805 187.944C99.8295 187.813 90.228 177.997 90.3597 166.02C90.4917 154.044 100.307 144.443 112.283 144.575C124.259 144.706 133.86 154.521 133.729 166.499Z" fill="#CDFFCE"/>
<path fill-rule="evenodd" clip-rule="evenodd" d="M95.5685 157.826H95.5644C95.5051 157.824 95.4449 157.81 95.3889 157.778C95.1967 157.672 95.122 157.418 95.2216 157.213C98.6436 150.142 105.35 145.778 112.763 145.778C112.838 145.778 112.912 145.778 112.986 145.778C114.183 145.792 115.381 145.923 116.546 146.165C116.758 146.209 116.897 146.429 116.856 146.657C116.82 146.856 116.658 146.996 116.474 146.996C116.449 146.996 116.423 146.994 116.397 146.988C115.278 146.756 114.128 146.631 112.978 146.617C112.907 146.617 112.835 146.617 112.764 146.617C105.644 146.617 99.2033 150.809 95.9167 157.598C95.8471 157.742 95.7103 157.826 95.5685 157.826Z" fill="#FDF8DA"/>
<path fill-rule="evenodd" clip-rule="evenodd" d="M112.048 185.536C111.98 185.536 111.913 185.534 111.845 185.534C101.865 185.424 93.8638 177.245 93.9738 167.265C94.083 157.352 102.153 149.393 112.04 149.393C112.107 149.393 112.175 149.393 112.243 149.393C122.223 149.503 130.223 157.683 130.115 167.663C130.005 177.574 121.935 185.536 112.048 185.536Z" fill="#FDF8DA"/>
<path fill-rule="evenodd" clip-rule="evenodd" d="M110.015 179.533L110.037 177.542C107.901 177.436 105.792 176.924 104.297 176.269C103.764 176.036 103.497 175.449 103.657 174.904L104.199 173.056C104.398 172.379 105.164 172.034 105.831 172.315C107.314 172.937 109.147 173.436 111.131 173.457C113.19 173.478 114.733 172.817 114.749 171.429C114.763 170.176 113.585 169.419 110.732 168.644C106.661 167.515 103.749 165.758 103.789 162.271C103.825 159.121 106.225 156.742 110.35 156.143L110.373 154.154C110.38 153.513 110.921 153.001 111.581 153.007L112.785 153.02C113.446 153.028 113.974 153.552 113.967 154.193L113.947 155.979C115.924 156.076 117.36 156.42 118.498 156.823C119.082 157.029 119.395 157.643 119.226 158.222L118.727 159.932C118.535 160.59 117.803 160.945 117.145 160.696C116.098 160.298 114.615 159.88 112.681 159.859C110.238 159.834 109.529 160.808 109.519 161.688C109.507 162.772 110.964 163.532 114.129 164.514C118.651 165.883 120.515 167.731 120.477 171.015C120.443 174.03 118.109 176.714 113.635 177.344L113.609 179.569C113.602 180.21 113.061 180.724 112.401 180.717L111.196 180.703C110.537 180.697 110.007 180.172 110.015 179.533Z" fill="#2F7630"/>
</g>
<path d="M278.952 174.006C278.921 174.247 278.707 174.422 278.464 174.404C278.278 174.345 278.208 174.072 278.29 173.8C278.373 173.529 278.6 173.347 278.778 173.402C278.956 173.457 279.039 173.726 278.952 174.006Z" fill="#2E353A"/>
<path d="M275.855 173.039C275.789 173.318 275.552 173.49 275.37 173.433C275.188 173.375 275.115 173.106 275.2 172.831C275.285 172.555 275.504 172.379 275.686 172.437C275.867 172.494 275.94 172.773 275.855 173.039Z" fill="#2E353A"/>
<path d="M276.772 173.468C276.174 174.21 275.478 174.868 274.704 175.422C275.007 175.815 275.47 176.053 275.966 176.071L276.772 173.468Z" fill="#DC5753"/>
<path d="M280.282 172.779C280.222 172.802 280.155 172.794 280.102 172.758C279.763 172.489 279.317 172.396 278.898 172.506C278.84 172.534 278.771 172.527 278.72 172.487C278.669 172.447 278.645 172.382 278.658 172.318C278.672 172.255 278.72 172.205 278.783 172.189C279.31 172.037 279.877 172.148 280.308 172.488C280.383 172.543 280.4 172.648 280.346 172.724C280.327 172.744 280.305 172.763 280.282 172.779Z" fill="#2E353A"/>
<path d="M273.677 176.611C274.179 177.303 274.988 177.706 275.843 177.691C275.885 177.68 275.914 177.642 275.912 177.599C275.91 177.556 275.879 177.519 275.836 177.512C275.047 177.507 274.307 177.129 273.84 176.493C273.813 176.453 273.758 176.443 273.719 176.471C273.682 176.499 273.672 176.552 273.697 176.592L273.677 176.611Z" fill="#2E353A"/>
<path d="M275.241 170.767C275.219 170.74 275.205 170.708 275.201 170.674C275.204 170.629 275.225 170.587 275.259 170.558C275.293 170.529 275.338 170.516 275.383 170.52C275.931 170.561 276.425 170.864 276.709 171.335C276.749 171.419 276.718 171.519 276.637 171.566C276.553 171.605 276.453 171.574 276.407 171.494C276.173 171.127 275.78 170.893 275.346 170.862C275.299 170.847 275.261 170.812 275.241 170.767Z" fill="#2E353A"/>
<defs>
<linearGradient id="paint0_linear_506_882" x1="34.9537" y1="-1469.6" x2="-575.965" y2="-3568.23" gradientUnits="userSpaceOnUse">
<stop stop-color="white"/>
<stop offset="1" stop-color="#EEEEF4"/>
</linearGradient>
<linearGradient id="paint1_linear_506_882" x1="787.118" y1="739.189" x2="404.885" y2="697.9" gradientUnits="userSpaceOnUse">
<stop stop-color="white"/>
<stop offset="1" stop-color="#EEEEF4"/>
</linearGradient>
<linearGradient id="paint2_linear_506_882" x1="449.935" y1="1913.67" x2="664.915" y2="938.702" gradientUnits="userSpaceOnUse">
<stop stop-color="white"/>
<stop offset="1" stop-color="#EEEEF4"/>
</linearGradient>
<linearGradient id="paint3_linear_506_882" x1="-1468.11" y1="-398.809" x2="-4249.48" y2="-1948.83" gradientUnits="userSpaceOnUse">
<stop stop-color="white"/>
<stop offset="1" stop-color="#EEEEF4"/>
</linearGradient>
<linearGradient id="paint4_linear_506_882" x1="517.742" y1="548.677" x2="-1832.67" y2="-726.292" gradientUnits="userSpaceOnUse">
<stop stop-color="white"/>
<stop offset="1" stop-color="#EEEEF4"/>
</linearGradient>
<linearGradient id="paint5_linear_506_882" x1="1019.57" y1="1044.73" x2="1942.64" y2="-2106.94" gradientUnits="userSpaceOnUse">
<stop stop-color="white"/>
<stop offset="1" stop-color="#EEEEF4"/>
</linearGradient>
<linearGradient id="paint6_linear_506_882" x1="851.69" y1="-164.237" x2="572.322" y2="-1565.89" gradientUnits="userSpaceOnUse">
<stop stop-color="white"/>
<stop offset="1" stop-color="#EEEEF4"/>
</linearGradient>
<linearGradient id="paint7_linear_506_882" x1="414.911" y1="1133.1" x2="1414.46" y2="-2321.35" gradientUnits="userSpaceOnUse">
<stop stop-color="white"/>
<stop offset="1" stop-color="#EEEEF4"/>
</linearGradient>
<clipPath id="clip0_506_882">
<rect width="353" height="351.795" fill="white"/>
</clipPath>
</defs>
</svg>
