<svg width="24" height="24" viewBox="0 0 24 24" fill="none" xmlns="http://www.w3.org/2000/svg">
<path d="M22 12L17 8V11L8 11V13L17 13V16L22 12Z" fill="black"/>
<path d="M10.999 21.0009C12.1815 21.0042 13.3529 20.7728 14.4453 20.3202C15.5377 19.8675 16.5294 19.2026 17.363 18.3639L15.949 16.9499C14.627 18.2719 12.869 19.0009 10.999 19.0009C9.12904 19.0009 7.37104 18.2719 6.04904 16.9499C4.72704 15.6279 3.99803 13.8699 3.99803 11.9999C3.99803 10.1299 4.72704 8.37194 6.04904 7.04994C7.37104 5.72794 9.12904 4.99894 10.999 4.99894C12.869 4.99894 14.627 5.72794 15.949 7.04994L17.363 5.63594C15.664 3.93594 13.404 2.99894 10.999 2.99894C8.59404 2.99894 6.33404 3.93594 4.63504 5.63594C2.93504 7.33494 1.99803 9.59494 1.99803 11.9999C1.99803 14.4049 2.93504 16.6649 4.63504 18.3639C5.46864 19.2026 6.46037 19.8675 7.55278 20.3202C8.64519 20.7728 9.81656 21.0042 10.999 21.0009Z" fill="black"/>
</svg>
