<?xml version="1.0" encoding="utf-8"?>
<!-- Generator: Adobe Illustrator 25.4.1, SVG Export Plug-In . SVG Version: 6.00 Build 0)  -->
<svg version="1.1" xmlns="http://www.w3.org/2000/svg" xmlns:xlink="http://www.w3.org/1999/xlink" x="0px" y="0px"
	 viewBox="0 0 750 500" style="enable-background:new 0 0 750 500;" xml:space="preserve">
<style type="text/css">
	.st0{fill:none;stroke:#1B6350;stroke-width:1.275;stroke-miterlimit:10;}
	.st1{opacity:0.25;fill:#2F7630;}
	.st2{fill:#93BAE8;}
	.st3{fill:#0D4720;}
	.st4{fill:none;stroke:#53BDA1;stroke-width:0.7936;stroke-miterlimit:10;}
	.st5{fill:#549353;}
	.st6{fill:#FFFFFF;}
	.st7{fill:#53BDA1;}
	.st8{fill:#2D7625;}
	.st9{fill:#15224A;}
	.st10{fill:#FFD557;}
	.st11{fill:none;stroke:#FFFFFF;stroke-width:0.5941;stroke-linecap:round;stroke-linejoin:round;stroke-miterlimit:10;}
	.st12{fill:#3E63D6;}
	.st13{fill:#F27474;}
	.st14{fill:#784524;}
	.st15{fill:#4A2B16;}
	.st16{fill:none;stroke:#4A2B16;stroke-width:0.7936;stroke-miterlimit:10;}
	.st17{fill:#E85454;}
	.st18{fill:#258A6F;}
	.st19{fill:#9ECBFF;}
	.st20{fill:none;stroke:#1B6350;stroke-width:0.7936;stroke-miterlimit:10;}
	.st21{fill:none;stroke:#94552D;stroke-width:0.7936;stroke-miterlimit:10;}
	.st22{fill:#0C142B;}
	.st23{fill:#C2C2C2;}
	.st24{fill:none;}
	.st25{font-family:'Poppins-SemiBold';}
	.st26{font-size:180px;}
	.st27{fill:none;stroke:#94552D;stroke-width:0.4996;stroke-miterlimit:10;}
	.st28{fill:#2A4391;}
	.st29{fill:#1B6350;}
	.st30{fill:none;stroke:#1B6350;stroke-width:0.5235;stroke-miterlimit:10;}
	.st31{fill:#7F99BD;}
</style>
<g id="BACKGROUND">
</g>
<g id="OBJECTS">
	<polyline class="st0" points="557,202.9 585.5,174.7 608.8,188.2 632.2,167.1 651.4,181.9 675.5,160.9 	"/>
	<path class="st1" d="M57,434.1h611.4c0,0,0-31.6,0-85.5c0-53.9-20.4-94-82.6-144.8c-43.6-35.6-80.1-59.6-131.2-100.9
		c-60.6-48.8-159-54-217.7,13.1c-58.7,67.2-63.9,105.1-114.1,148.8C82.5,300,57,333.7,57,434.1z"/>
	<path class="st2" d="M194.1,375.1v-13.3h-12.8c-0.8-3.8-2.3-7.3-4.3-10.4l9.1-9.1l-9.4-9.4l-9.1,9.1c-3.1-2-6.6-3.5-10.4-4.3v-12.8
		H144v12.8c-3.8,0.8-7.3,2.3-10.4,4.3l-9.1-9.1l-9.4,9.4l9.1,9.1c-2,3.1-3.5,6.6-4.3,10.4H107v13.3h12.8c0.8,3.8,2.3,7.3,4.3,10.4
		l-9.1,9.1l9.4,9.4l9.1-9.1c3.1,2,6.6,3.5,10.4,4.3V412h13.3v-12.8c3.8-0.8,7.3-2.3,10.4-4.3l9.1,9.1l9.4-9.4l-9.1-9.1
		c2-3.1,3.5-6.6,4.3-10.4H194.1z M150.6,384.4c-8.8,0-15.9-7.1-15.9-15.9s7.1-15.9,15.9-15.9s15.9,7.1,15.9,15.9
		S159.4,384.4,150.6,384.4z"/>
	<g>
		<g>
			<rect x="26.6" y="431.9" class="st3" width="672.4" height="2.1"/>
		</g>
	</g>
	<rect x="505.7" y="101.5" class="st3" width="114" height="57.1"/>
	<rect x="511.2" y="107" class="st4" width="103.1" height="46.1"/>
	
		<ellipse transform="matrix(0.2278 -0.9737 0.9737 0.2278 307.8756 648.3435)" class="st5" cx="562.7" cy="130.1" rx="19.7" ry="19.7"/>
	<g>
		<path class="st6" d="M561.3,139.5c-2.1-0.1-4.2-0.6-6.2-1.4v-4.8c1.1,0.6,2.4,1.1,3.7,1.4c1.3,0.4,2.5,0.6,3.5,0.6
			c0.8,0,1.4-0.1,1.8-0.3c0.4-0.2,0.6-0.5,0.6-1c0-0.3-0.1-0.6-0.4-0.8c-0.3-0.2-0.7-0.5-1.4-0.8c-0.6-0.3-1.5-0.6-2.6-1
			c-1.2-0.5-2.2-1-3-1.5c-0.8-0.6-1.3-1.2-1.7-1.9s-0.5-1.6-0.5-2.6c0-1.6,0.5-2.9,1.5-3.8c1-0.9,2.6-1.5,4.6-1.7v-2h3v2
			c1.9,0.1,3.9,0.6,5.9,1.4l-1.7,4.2c-2-0.9-3.9-1.4-5.5-1.4c-0.8,0-1.3,0.1-1.6,0.3c-0.3,0.2-0.5,0.5-0.5,0.8
			c0,0.3,0.1,0.6,0.3,0.8c0.2,0.2,0.6,0.4,1.2,0.7c0.6,0.3,1.3,0.6,2.4,0.9c2,0.7,3.5,1.5,4.4,2.5c0.9,0.9,1.3,2.1,1.3,3.6
			c0,1.6-0.5,3-1.6,4c-1,1-2.5,1.7-4.5,1.9v2.8h-3V139.5z"/>
	</g>
	<circle class="st3" cx="446.2" cy="152" r="78.5"/>
	<g>
		<path class="st7" d="M488.8,86.1l-5.5,1.5c0,0-1.9,3.2-0.7,4.1c1.2,1,3.3,3,3.7,5.4c0.4,2.5,0,4.8,0,4.8s2.2,0.4,4.4,3.9
			c2.3,3.5,3.4,3.8,3.4,3.8l-2.3,0.9c0,0,1,0,0,1.9c-0.7,1.3-0.5,2.6-2.5,2.7c-2,0.1-3.6,0.8-2.8,2.3c0.7,1.5,6.6,3.1,5.2,5.5
			c-1.4,2.5-1.8-0.2-5.5,2.3c-3.7,2.5,0,5.3-0.9,7c-0.9,1.7-1.7,2.5-0.3,2.8c1.5,0.3,3.3-0.9,3.5,0.7c0.1,0.8,0-0.9,1.5-1.6
			c1.5-0.7,4.5-1.3,4.9-2c0.5-0.7-1.4-1.6-0.6-3.5c0.8-2,1.3-0.2,2.2-0.3c0.9-0.1,0.3-2.2,1.6-3c1.3-0.8,3.9-1,6.5,2.4
			c2.6,3.4,2.9,3.9,2.5,5c-0.4,1.1-1.7,1.4-1.5,2.4c0.2,1,0.8,1.6,1,2.4c0.2,0.7,1.1-0.1,1-1.5c-0.1-1.4,1.7-2.4,1.8-2.8
			c0-0.3,2.6,3.6,3,4.7c0.4,1.1,1.3,1.3,1.4,0.1c0.1-1.2-1-4.6-0.3-5.3c0.7-0.8,1.9-1.6,1.5-4c-0.5-2.4-2.5-3.8-1.7-4.2
			c0.7-0.4,2.4,1.9,3.6,3.6c1.2,1.7,2.7,3.7,2.4,4.6c-0.3,0.8-1-1.5-1.8-1.7c-0.9-0.2-2.9,0.1-3.1,2.4c-0.2,2.3-0.9,2,0.5,3.8
			c1.4,1.8,1.1,3.3,2.8,3.3c1.7,0.1,1.8-0.8,2,1.2c0.1,2,1.6,5.6,0,5.7c-1.6,0-1.3-2.6-2.2-2.6s-2.8,0.8-3.7-0.9
			c-0.9-1.7-3.9-2.4-4.2-2c-0.3,0.3,2.5,2.2,2,2.8c-0.5,0.6-1.5,0-2.4-1.2c-1-1.1-4.7-2.5-4.7-4c0-1.5,0.7-1.1,0.5-3
			c-0.2-1.9-2.3-1.5-3.1-2.1c-0.8-0.6-1-1.3-3.3,0c-2.2,1.3-2.6,2-4.5,2c-1.9,0-2.9-1.7-4.1-1.1c-1.2,0.6,0,1.7-1.6,2.6
			c-1.5,0.9-2.1,0.3-2.4,1.2c-0.3,0.9,0.2,3.2-0.6,4c-0.8,0.8-2.7,2.5-4.6,4.6c-1.8,2.1-3,1.8-2.6,4.6c0.4,2.9,2.1,4.3,1,6.7
			s-2.9,2-1.7,4.2c1.2,2.2,2.3,0.8,2.4,3c0.1,2.2,0.6,2.1,2,3.3c1.4,1.2,0.5,2.5,2.4,3.5c1.9,1,7.3,0.2,7.9-0.1
			c0.6-0.4,0.6-1.9,3.2-1.4c2.6,0.5-0.1,2.5,0.7,3.2c0.8,0.7,3.2-0.6,3.3,1.5c0.2,2-1.4,2.5-1.4,3.8c0,1.3,0.9,2.9,1.1,4.6
			c0.2,1.7-1.2,5.9-2.5,7.4c-1.3,1.5-3.2,2-4.3,3.4c-1.7,2.2-0.7,3.8-1.2,6.6c-0.5,2.9-1.2,2.3-2.9,3.9c-1.7,1.6-1.4,1.1-2.8,3.7
			c-1.4,2.6-7.2,3.3-6.9,5.8c0.3,2.5,4.5-0.2,11.7-2.7c3.3-1.1,7.3-2.9,10.7-4.5c14.6-14.3,23.8-34.2,23.8-56.3
			C524.7,124.4,510.4,100.1,488.8,86.1z"/>
		<path class="st7" d="M447.1,204.2c0.5-1.8,3.4-3.4,4.5-4.1c1-0.7,2.9-6.1,2.9-8.4c0-2.3,4.6-3.9,5-5.6c0.4-1.6-2.5-2-4.1-3.6
			c-1.6-1.6-2.7-1.9-8.1-3.2c-5.4-1.3-2.5-2.7-5.1-5.7c-2.6-3-4.2-1.6-7.9-2.4s-1.8-2.6-3.4-4c-1.5-1.4-6.2,0.4-9.6-0.5
			c-3.4-0.9-6.1,0.4-6.9,3.9c-1.4,0.2-4.4,0.8-6.7-1.2c-2.3-2,0.5-5.5-0.3-6.4c-0.8-0.9-5.5,0.6-5.5-0.2c-0.1-0.8,1.1-3.4,2.7-4.3
			c1.6-0.8-0.3-0.8-3.3-0.8c-3,0-2.3,1.6-3.6,4c-1.3,2.4-4.5,0.3-6-3.1c-1.6-3.4,1.6-4.5,0-5.6c-1.6-1.1-0.6-0.8,1.6-2.9
			c2.3-2.1,5.3-1,4.7-2.7c-0.6-1.7,2.9-0.6,5.9-0.6c3.9,0,3.8,7.1,4.4,7.3c0.6,0.2,1.9-1.7,0.2-6.7c-1.7-4.9,3-7,3.9-8.4
			s-0.8-2.2,0.2-6.3c0.9-4.1,6-5.9,5.8-7.9s4.2-3.2,5.1-3.5c1-0.4,0.4,1.4-1.2,3.3c-1.6,1.9-0.1,0.9,0.7,1.2
			c0.8,0.4,3.8-3.4,5.2-4.7c1.4-1.2,0.9-1.5,0.7-2c-0.2-0.6-1.3,0.5-2.1,0.3c-0.8-0.2-1.7,0-2.4-0.6c-0.7-0.6-0.3-1.2,0.6-1.9
			c0.9-0.7,2.5,0.7,2.7-0.3c0.2-1-3.3-1.3-2.2-1.5c1.2-0.2,1.9-0.2,3.3-0.9c1.5-0.7,2.5-1.9,3.1-1.6c0.6,0.3-1,2.1-1.9,2.8
			c-0.9,0.7-1.3,1.8-0.8,2c0.4,0.2,2.1-0.1,2.6,0.2s2.1,0.7,3,0.4c0.9-0.2,1.7,2.2,2.2,1.7c0.5-0.5-0.1-2.9-0.7-3.9
			c-0.6-1.1-2.4-1.1-2.8-1.8c-0.4-0.8,0.7-1.6,0.7-2.7s0-1.3-1.1-2.5c-1.1-1.2-2.9,0.8-2.9,0.8s0-0.4-0.1-1.5s-1.2-0.8-1.6-2.5
			c-0.4-1.7-2.4-4.4-3.3-4.5c-0.9-0.1-1.2,1.3-2.1,2.2c-1,0.9-1.6,0.7-2-0.3c-0.4-1,1.7-1.1,1.1-2.1c-0.5-1.1-1.6-0.3-3.5-1.6
			c-2-1.2-4.2-0.1-5,0c-0.8,0.1-0.2,1.1-0.2,2.1c0,0.9,0,2.7,0.3,4.7s-1.6,2.6-2.7,3.8c-1.1,1.2-0.1,1.5,0.3,2.4
			c0.3,0.9-0.3,2.8-1.3,2.8c-1,0-1.7-1.5-1.6-2.7c0.1-1.2-0.8-1.6-1.4-2.1c-0.6-0.5-1.5,0-2.5-1c-1.1-1.1-1.6,0.1-2.9,0.3
			c-1.3,0.2-1-0.9-1.4-2.1c-0.4-1.1-0.7,0-1.4-0.9c-0.7-0.9,2.7-3.3,4.9-5c2.2-1.8,4.1-1.8,5.1-4.2c1-2.4,1.9-1.2,2.7-1.4
			c0.9-0.2,1,0,2.4-1.7s3.8-3.4,5.3-3.5c1.6,0,1.5,2.1,0.5,3.9c-1,1.8-4.8,1.5-5.3,2.4c-0.4,0.9-0.2,0.4,2.7,0.3
			c2.9-0.2,3,1.6,4.9,2.5c2,0.9,2.7-2.8,3-3.1c0.2-0.3,2.5,1.1,3.3,0.5c0.8-0.6,1-3.5,1-4.7c0-1.1-2.3-1.1-3.3-3
			c-1.1-1.8-3.6-2-3.8-4.2c-0.1-2.2,1.6-3.4,2.2-4.3c0.6-0.9,2.7-1,2.8-0.4c0.2,0.5,0.9,0.8,3.3,0.4c2.4-0.5,3.3,0.5,4.5,3
			c1.2,2.5,0.6,3.5-0.5,6.1c-1.1,2.6,2.4,4.7,3.7,6.6c1.3,1.8,2.2,0.8,4.5,0.9c2.2,0.1,2.8,3.5,3.9,2.2c1.2-1.3,0.4-5.9,1.9-6.8
			c1.6-0.9,2.8-0.2,3.2-1.5c0.4-1.3,2.1-1.6,5.4-2.7c3.2-1.2,3.2-2.1,2.7-3.1c-0.5-0.9-1.8-2-2.6-3.5c-0.7-1.5,1.8,0.8,1.7-0.1
			c-0.1-0.9-3.6-2.1-4.5-3.5c-0.9-1.5-2.8-1.1-4.9-3c-0.9-0.8-3.2-1.7-5.6-2.3c-38.1,1.1-69.3,29.2-75.2,65.9
			c1.2,1.1,3.3,3.2,4.6,5.6c2,3.5,3,8.1,3.5,9.5c0.5,1.4,2.3,5,3.6,6.1c1.4,1.1,1-0.1,0.2-2.4c-0.8-2.3-2.2-4.4-2.9-6.8
			c-0.7-2.4-0.5-2,0.4-1.5c0.8,0.5,1,2.6,1.9,5.6c0.9,3,3.2,3.1,4.6,5.4c1.4,2.3,0.3,2.2,1.8,3c1.5,0.7,6.8,1.1,9.3,1.7
			c2.5,0.5,6.1,1.4,8,3.7c1.9,2.2,4.6,4.6,6.6,4c2-0.6,2-1.8,3.5,0.2c1.5,2-1.3,8.2-1.3,10.8c0,2.6,2.3,2.3,4.9,5.6
			c2.7,3.3,3.8,4.1,6.6,4.7c2.8,0.6,4.7,3.6,5.2,6.7c0.5,3.1,3.1,12.8,6.7,18.2c3.7,5.4,8.8,7.3,9.7,7.2c0.9-0.1-2.2-2.6-1.9-3.6
			c0.3-1-2.5-5.1-2.7-6.2c-0.1-1.1,1.1-3.9,2.7-5.4C445.5,210,446.6,206.1,447.1,204.2z"/>
	</g>
	<g>
		<ellipse class="st7" cx="357.1" cy="208.7" rx="10.9" ry="24.3"/>
		
			<ellipse transform="matrix(0.7071 -0.7071 0.7071 0.7071 -67.3204 306.6588)" class="st7" cx="336.5" cy="234.6" rx="10.9" ry="24.3"/>
		<path class="st7" d="M385.4,249.2c-7,7-16.3,10.2-24.9,9.4c-0.8-8.6,2.4-17.9,9.4-24.9c7-7,16.3-10.2,24.9-9.4
			C395.6,232.9,392.4,242.1,385.4,249.2z"/>
		
			<ellipse transform="matrix(0.7071 -0.7071 0.7071 0.7071 -91.777 316.7896)" class="st7" cx="336.5" cy="269.2" rx="10.9" ry="24.3"/>
		<path class="st7" d="M385.4,283.8c-7,7-16.3,10.2-24.9,9.4c-0.8-8.6,2.4-17.9,9.4-24.9c7-7,16.3-10.2,24.9-9.4
			C395.6,267.4,392.4,276.7,385.4,283.8z"/>
		
			<ellipse transform="matrix(0.7071 -0.7071 0.7071 0.7071 -116.2337 326.92)" class="st7" cx="336.5" cy="303.8" rx="10.9" ry="24.3"/>
		
			<ellipse transform="matrix(0.7071 -0.7071 0.7071 0.7071 -109.0365 358.0258)" class="st7" cx="377.7" cy="310.6" rx="24.3" ry="10.9"/>
		<path class="st7" d="M328.8,346.1c7,7,16.3,10.2,24.9,9.4c0.8-8.6-2.4-17.9-9.4-24.9s-16.3-10.2-24.9-9.4
			C318.5,329.8,321.7,339,328.8,346.1z"/>
		
			<ellipse transform="matrix(0.7071 -0.7071 0.7071 0.7071 -133.4931 368.1564)" class="st7" cx="377.7" cy="345.2" rx="24.3" ry="10.9"/>
		<path class="st7" d="M357.1,421.2L357.1,421.2c-0.6,0-1-0.5-1-1V210h2v210.2C358.1,420.8,357.6,421.2,357.1,421.2z"/>
	</g>
	<rect x="133.6" y="389.8" class="st8" width="460.3" height="44.3"/>
	<g>
		
			<ellipse transform="matrix(0.7071 -0.7071 0.7071 0.7071 11.9545 420.1488)" class="st6" cx="513.1" cy="195.6" rx="24.7" ry="24.7"/>
		<polygon class="st6" points="531.6,206.8 545,226.1 524,214.8 		"/>
		<g>
			<path class="st9" d="M516.3,211.2c0,0.8-1.4,1.5-3.1,1.5c-1.7,0-3.1-0.7-3.1-1.5c0-0.8,1.4-1.5,3.1-1.5
				C514.9,209.8,516.3,210.4,516.3,211.2z"/>
			<path class="st10" d="M524,189.4c0-6.7-6.1-12-13-10.6c-4.2,0.8-7.6,4.2-8.5,8.5c-0.7,3.5,0.3,6.7,2.3,9.1
				c1.6,1.9,2.7,4.1,3.5,6.4l0.4,1.1h8.8l0.4-1.2c0.8-2.3,2-4.5,3.5-6.3C523,194.4,524,192,524,189.4z"/>
			<path class="st11" d="M510.7,203.8v-13.6c0-0.5,0.3-0.8,0.7-0.8c0.3,0,0.5,0.2,0.6,0.6c0.1-0.3,0.3-0.6,0.6-0.6
				c0.3,0,0.5,0.2,0.6,0.6c0.1-0.3,0.3-0.6,0.6-0.6c0.3,0,0.5,0.2,0.6,0.6c0.1-0.3,0.3-0.6,0.6-0.6c0.4,0,0.7,0.4,0.7,0.8v13.6"/>
			<path class="st12" d="M518,211.4h-9.7c-0.3,0-0.5-0.2-0.5-0.5v-6.6c0-0.3,0.2-0.5,0.5-0.5h9.7c0.3,0,0.5,0.2,0.5,0.5v6.6
				C518.5,211.2,518.3,211.4,518,211.4z"/>
			<g>
				<rect x="507.8" y="205.4" class="st9" width="10.7" height="0.6"/>
				<rect x="507.8" y="207.4" class="st9" width="10.7" height="0.6"/>
				<rect x="507.8" y="209.3" class="st9" width="10.7" height="0.6"/>
			</g>
		</g>
	</g>
	<path class="st13" d="M184.3,388.9l4,29.1c0.3,1.9,1.9,3.4,3.9,3.5l9.5,0.3c0,0,6.7-2.4,9.3-0.4c2,1.5-17.2,9.7-25.8,13.2
		c-1.9,0.8-4.1-0.6-4.2-2.7l-0.3-9.4l-14-30.6L184.3,388.9z"/>
	<path class="st13" d="M105.5,392.5l-12.1,26.8c-0.8,1.8-0.2,3.9,1.4,5l7.8,5.3c0,0,7,1.6,8.1,4.6c0.9,2.3-19.7-1-28.9-2.5
		c-2.1-0.4-3.1-2.7-2.1-4.5l4.8-8.1l4.5-33.3L105.5,392.5z"/>
	<path class="st14" d="M156,227.3c7.5,20.8,20.8,103.5,20.8,103.5l9.1,61.1l-24,5l-10.7-63.9c0,0-21.2-43.6-35.1-105.7H156z"/>
	<path class="st15" d="M158.7,296.6c-15.7-14.7-28.7-32.5-36.2-43.8c13.2,48.1,28.8,80.2,28.8,80.2l10.7,63.9l24-5l-9.1-61.1
		c0,0,0,0,0,0C174.7,317.7,168.4,305.6,158.7,296.6z"/>
	<path class="st14" d="M105.2,227.3c-9.1,15.4-4.4,26.9-4.4,26.9c-2.2,22.4,1.8,73.6,1.8,73.6l-19.4,60.3l22.8,6.3
		c0,0,14.3-31.1,19.2-57.7c5-26.6,15.3-109.4,15.3-109.4H105.2z"/>
	<path class="st16" d="M135.2,268.9c3-22.7,5.4-41.6,5.4-41.6"/>
	<path class="st16" d="M144.8,228.9l-2,15.2c-0.3,2.5-2,4.6-4.3,5.6l-0.8,0.4"/>
	<polyline class="st16" points="118,228.9 111.9,327.7 94.2,384.8 	"/>
	<path class="st13" d="M164.9,168.2l23.4,38.9l33.8-11l4.2,6.3c0,0-22.7,15-33.6,20.3c-10.9,5.4-22.8-5.4-32.1-20.7
		C151.4,186.8,164.9,168.2,164.9,168.2z"/>
	<path class="st17" d="M195.9,204.6l-7.6,2.5l-23.4-38.9c0,0-13.5,18.6-4.3,33.9c3.1,5.2,6.5,9.8,10.1,13.5
		c5.3,5.4,14.4,4.3,18.3-2.2C191.1,210,193.4,206.9,195.9,204.6z"/>
	<path class="st3" d="M260.6,199.8c-0.4-0.2-0.8-0.2-1.1-0.1l-24.9,8.3l10.4-21.6l-31.1-15l-0.7,1.5l-4.5-2.2
		c-5.8-2.8-12.9-0.4-15.7,5.5l-3.7,7.6c-2.8,5.8-0.4,12.9,5.5,15.7l5.7,2.8c0.4,2.1,1.7,3.9,3.7,4.9l19,9.2c3.7,1.8,8,1.6,11.5-0.4
		l24-14c0.8-0.5,1.7-0.7,2.7-0.6l3.2,0.3L260.6,199.8z M195.6,197.6c-4.8-2.3-6.8-8.1-4.5-12.9l3.7-7.6c2.3-4.8,8.1-6.8,12.9-4.5
		l4.5,2.2L201,198.1c-0.3,0.6-0.5,1.2-0.6,1.8L195.6,197.6z"/>
	<path class="st18" d="M142.9,156.9c0,0,11.5,3,22,11.2c0,0-1.9,7.7-0.8,14.1c1,6.4,1.5,12.2-3.4,19.3l-2.9,18.6
		c0,0,4.1,9.3-3.4,9.3c-7.4,0-41.8,0-46.9,0c-5.2,0-6-8.4-0.6-11.9l-2.4-46.1c0,0,11.6-9.9,24.5-15.9L142.9,156.9z"/>
	<path class="st19" d="M142.9,156.9l-13.9-1.3c-2.6,1.2-5.2,2.6-7.7,4.1l9,8.8c2.1,2.1,5.5,2.1,7.7,0.1l3.6-3.3l4.3,2.8
		c1.5,1,3.6,0.1,3.8-1.8l0.9-6.6C146.1,157.8,142.9,156.9,142.9,156.9z"/>
	<path class="st20" d="M142.2,168.2l1.3,18c0.2,2.9,0,5.8-0.6,8.6l-7,30.9"/>
	<path class="st21" d="M83.2,388.1"/>
	<line class="st21" x1="85.1" y1="382" x2="108.3" y2="389.3"/>
	<line class="st21" x1="161.1" y1="391.6" x2="185.2" y2="386.9"/>
	<path class="st3" d="M201.7,421.8l-8.7-0.3l-1.7,5.1l-10.4,0.7l0.1,4.6c0.1,2.1,2.2,3.5,4.2,2.7c8.6-3.5,27.8-11.7,25.8-13.2
		C208.4,419.5,201.7,421.8,201.7,421.8z"/>
	<path class="st3" d="M102.7,429.5l-7.2-4.9l-4.2,3.4l-9.2-4.9l-2.3,4c-1.1,1.8,0,4.1,2.1,4.5c9.2,1.6,29.8,4.9,28.9,2.5
		C109.6,431.1,102.7,429.5,102.7,429.5z"/>
	<path class="st13" d="M104.5,171.5c5.7-2.7,12.2,1.9,16.9,10.3c4.8,8.4,15.7,24.4,15.7,24.4l44.9-18l7.5-9.2c1-1.3,2.7-1.9,4.3-1.6
		l4.7,0.9c1.1,0.2,1.8,1.4,1.5,2.4l-2.2,6.9c-0.6,1.8-2,3.1-3.8,3.5l-8,1.9c0,0-24.9,19.9-33.9,27.2s-22.3,12.1-33.1-3.1
		C108.2,202.1,91,178,104.5,171.5z"/>
	<g>
		<path class="st9" d="M123.2,125.2c-3.1-5.9-12.6-7.4-16.2,1.5c-3.6,8.9,2.8,12.9,2.8,12.9s-2.5,4.7-0.1,7.7
			c-2.6,2.1-5.6,3.1-5.6,3.1s5.7,4.6,13.1-1.4C125.2,142.5,123.2,125.2,123.2,125.2z"/>
		<path class="st22" d="M120.9,143.9c3.5-7.8,2.3-18.7,2.3-18.7c-0.7-1.3-1.6-2.4-2.8-3.2c-0.6,0.4-1.3,0.8-1.9,1.3
			C113.6,127.4,111.9,140.2,120.9,143.9z"/>
		<ellipse class="st6" cx="119" cy="128.7" rx="4" ry="4.6"/>
		<path class="st9" d="M145.7,125.8c4.5-0.6,3.1-7.8-3-8.2c-6.1-0.4-9.9,2-9.9,2s-6.3-1.9-11.7,2.5c-5.7,4.7-7.1,21.6,8.2,21.6
			L145.7,125.8z"/>
		<path class="st13" d="M147.7,140.6c0.1-3.8-2.1-7-2.1-7l0.1-7.7c0,0-4.8,1.1-8.9-0.6c0,0,0.2,6-5.3,9.9c-0.8-1.2-2.1-1.9-3.2-1.6
			c-1.7,0.4-2.5,2.7-1.9,5.1c0.5,1.9,1.7,3.2,2.9,3.6l-0.3,13.4l11.9,8.2l2-6.8l-1.1-9.4C141.8,147.5,147.5,146.5,147.7,140.6z"/>
		<path class="st17" d="M141.8,147.5c-2.9,0.7-5.4,0.1-7.3-0.9c-0.8-0.4-1.7,0.4-1.3,1.3c1.5,3.4,4.5,8.1,9.6,8L141.8,147.5z"/>
	</g>
	<rect x="326" y="57.5" class="st3" width="23.5" height="83.3"/>
	<rect x="296.7" y="74.4" class="st5" width="23.5" height="66.4"/>
	<rect x="267.4" y="96.6" class="st3" width="23.5" height="44.2"/>
	<rect x="238.1" y="107.2" class="st5" width="23.5" height="33.6"/>
	<line class="st3" x1="232.4" y1="141.1" x2="355.3" y2="141.1"/>
	<circle class="st3" cx="557" cy="202.9" r="3.8"/>
	<circle class="st3" cx="585.5" cy="174.7" r="3.8"/>
	<path class="st3" d="M612.6,188.2c0,2.1-1.7,3.8-3.8,3.8s-3.8-1.7-3.8-3.8s1.7-3.8,3.8-3.8S612.6,186.1,612.6,188.2z"/>
	<path class="st3" d="M636,167.1c0,2.1-1.7,3.8-3.8,3.8c-2.1,0-3.8-1.7-3.8-3.8s1.7-3.8,3.8-3.8C634.3,163.3,636,165,636,167.1z"/>
	<path class="st3" d="M655.2,181.9c0,2.1-1.7,3.8-3.8,3.8c-2.1,0-3.8-1.7-3.8-3.8s1.7-3.8,3.8-3.8
		C653.5,178.1,655.2,179.8,655.2,181.9z"/>
	
		<ellipse transform="matrix(0.2388 -0.9711 0.9711 0.2388 26.3173 272.752)" class="st3" cx="187.1" cy="119.6" rx="26.9" ry="26.9"/>
	<path class="st5" d="M196.4,107.2c-5.3-2.2-9.2,2.8-9.2,2.8s-4-5-9.2-2.8c-5.7,2.4-4.3,10-1.8,14.2c3.8,6.5,11,11.2,11,11.2
		s7.2-4.7,11-11.2C200.6,117.1,202.1,109.5,196.4,107.2z"/>
	<polygon class="st3" points="167.5,131.9 153.1,150 175.3,140.8 	"/>
	<g>
		<g>
			
				<ellipse transform="matrix(0.2288 -0.9735 0.9735 0.2288 73.4705 469.1793)" class="st3" cx="332.9" cy="188.2" rx="9.4" ry="9.4"/>
			
				<ellipse transform="matrix(0.7071 -0.7071 0.7071 0.7071 -57.5492 276.7914)" class="st3" cx="305.3" cy="207.9" rx="9.4" ry="9.4"/>
			
				<ellipse transform="matrix(0.7071 -0.7071 0.7071 0.7071 -30.7601 253.3094)" class="st3" cx="290.4" cy="163.8" rx="9.4" ry="9.4"/>
			
				<ellipse transform="matrix(0.2307 -0.973 0.973 0.2307 -65.5488 387.432)" class="st3" cx="212.2" cy="235.2" rx="9.4" ry="9.4"/>
		</g>
	</g>
	<g>
		
			<rect x="521.6" y="308" transform="matrix(-1 -1.224647e-16 1.224647e-16 -1 1134.0493 622.2563)" class="st23" width="90.9" height="6.3"/>
		<g>
			<rect x="558.7" y="314.3" class="st23" width="5" height="119.8"/>
			<rect x="600.5" y="314.3" class="st23" width="5" height="119.8"/>
			<rect x="563.7" y="314.3" class="st23" width="36.8" height="16.3"/>
		</g>
	</g>
	<g>
		<rect x="460.9" y="308" class="st6" width="60.7" height="6.3"/>
		<g>
			<rect x="467.9" y="314.3" class="st23" width="5" height="119.8"/>
			<rect x="509.6" y="314.3" class="st23" width="5" height="119.8"/>
			<rect x="472.8" y="314.3" class="st23" width="36.8" height="16.3"/>
		</g>
	</g>
	<path class="st6" d="M368.7,424v10h41.7c0-13.3,10.8-24.1,24.1-24.1s24.1,10.8,24.1,24.1h41.7v-10h-19.4c-1.2-5.7-3.5-11-6.5-15.7
		l13.7-13.7l-14.2-14.2l-13.7,13.7c-4.7-3.1-10-5.3-15.7-6.5v-19.4h-20v19.4c-5.7,1.2-11,3.5-15.7,6.5l-13.7-13.7l-14.2,14.2
		l13.7,13.7c-3.1,4.7-5.3,10-6.5,15.7H368.7z"/>
	<image style="overflow:visible;" width="314" height="315" xlink:href="894A158E.jpg"  transform="matrix(1 0 0 1 -7652 -7652)">
	</image>
	<g>
		<rect x="188.4" y="256.2" class="st24" width="344.3" height="145.5"/>
		<text transform="matrix(1 0 0 1 188.4115 389.3656)" class="st3 st25 st26">ESG</text>
	</g>
	<g>
		<ellipse class="st7" cx="270.2" cy="208.7" rx="10.9" ry="24.3"/>
		<path class="st7" d="M241.9,242.3c7,7,16.3,10.2,24.9,9.4c0.8-8.6-2.4-17.9-9.4-24.9c-7-7-16.3-10.2-24.9-9.4
			C231.7,226,234.9,235.3,241.9,242.3z"/>
		
			<ellipse transform="matrix(0.7071 -0.7071 0.7071 0.7071 -85.5592 276.3571)" class="st7" cx="290.8" cy="241.5" rx="24.3" ry="10.9"/>
		<path class="st7" d="M241.9,276.9c7,7,16.3,10.2,24.9,9.4c0.8-8.6-2.4-17.9-9.4-24.9c-7-7-16.3-10.2-24.9-9.4
			C231.7,260.6,234.9,269.9,241.9,276.9z"/>
		
			<ellipse transform="matrix(0.7071 -0.7071 0.7071 0.7071 -110.0159 286.4874)" class="st7" cx="290.8" cy="276" rx="24.3" ry="10.9"/>
		<path class="st7" d="M241.9,311.5c7,7,16.3,10.2,24.9,9.4c0.8-8.6-2.4-17.9-9.4-24.9c-7-7-16.3-10.2-24.9-9.4
			C231.7,295.2,234.9,304.4,241.9,311.5z"/>
		<path class="st7" d="M298.5,318.4c-7,7-16.3,10.2-24.9,9.4c-0.8-8.6,2.4-17.9,9.4-24.9s16.3-10.2,24.9-9.4
			C308.8,302,305.6,311.3,298.5,318.4z"/>
		
			<ellipse transform="matrix(0.7071 -0.7071 0.7071 0.7071 -166.1266 275.6423)" class="st7" cx="249.7" cy="338.4" rx="10.9" ry="24.3"/>
		<path class="st7" d="M298.5,352.9c-7,7-16.3,10.2-24.9,9.4c-0.8-8.6,2.4-17.9,9.4-24.9s16.3-10.2,24.9-9.4
			C308.8,336.6,305.6,345.9,298.5,352.9z"/>
		<path class="st7" d="M270.2,421.2L270.2,421.2c-0.6,0-1-0.5-1-1V210h2v210.2C271.2,420.8,270.8,421.2,270.2,421.2z"/>
	</g>
	<rect x="471" y="233.5" class="st3" width="93.9" height="62.5"/>
	<rect x="473.9" y="236.3" class="st6" width="88.1" height="57"/>
	<g>
		
			<ellipse transform="matrix(0.7071 -0.7071 0.7071 0.7071 -35.5269 443.8133)" class="st27" cx="518" cy="264.8" rx="24.3" ry="24.3"/>
		<path class="st12" d="M541.7,259.8c-2.3-11-12.1-19.3-23.8-19.3v24.3L541.7,259.8z"/>
		<path class="st17" d="M500.4,248.1l17.6,16.7v-24.3C511,240.5,504.8,243.4,500.4,248.1z"/>
		<path class="st28" d="M500.4,248.1c-4.1,4.4-6.7,10.2-6.7,16.7c0,8.4,4.3,15.8,10.7,20.1l13.5-20.1L500.4,248.1z"/>
		<path class="st7" d="M541.3,271.6c0.6-2.2,1-4.4,1-6.8c0-1.7-0.2-3.3-0.5-4.9l-23.8,4.9L541.3,271.6z"/>
		<path class="st10" d="M518,264.8l-13.5,20.1c3.9,2.6,8.5,4.1,13.5,4.1c11,0,20.3-7.4,23.3-17.4L518,264.8z"/>
	</g>
	<rect x="499.8" y="296" class="st28" width="36.3" height="11.9"/>
	<path class="st9" d="M552.3,213.5c-4.8-1-6.5-5.9-4.1-9.2c2.5-3.3,10-5.4,16.4-3.7c6.1-1.6,10.3-0.7,10.3,5.7
		c5.4-1.6,6.7,10.3-0.1,16.2l-12.4,2.7L552.3,213.5z"/>
	<g>
		<path class="st13" d="M515.3,413.4l-1.3,6.3c-0.6,2.8-2.6,5-5.3,5.8l-6.8,2.1c-2.1,0.6-3.9,2-5.1,3.8l-0.2,0.3
			c-0.7,1,0,2.3,1.2,2.3h30.4c0,0,0.4-3-1.4-7.5c-0.8-2-0.9-4.3-0.2-6.3l2.3-6.8H515.3z"/>
		<path class="st9" d="M497.9,434.1h30.4c0,0,0.4-3-1.4-7.5c0,0,0,0,0,0h-7.5c-1.4-3-4.6-4.1-6.2-4.5c-1,1.7-2.5,2.9-4.4,3.5
			l-6.8,2.1c-2.1,0.6-3.9,2-5.1,3.8l-0.2,0.3C496,432.7,496.7,434.1,497.9,434.1z"/>
	</g>
	<g>
		<path class="st13" d="M553.7,413.4l-1.3,6.3c-0.6,2.8-2.6,5-5.3,5.8l-6.8,2.1c-2.1,0.6-3.9,2-5.1,3.8l-0.2,0.3
			c-0.7,1,0,2.3,1.2,2.3h30.4c0,0,0.4-3-1.4-7.5c-0.8-2-0.9-4.3-0.2-6.3l2.3-6.8H553.7z"/>
		<path class="st9" d="M536.4,434.1h30.4c0,0,0.4-3-1.4-7.5c0,0,0,0,0,0h-7.5c-1.4-3-4.6-4.1-6.2-4.5c-1,1.7-2.5,2.9-4.4,3.5
			l-6.8,2.1c-2.1,0.6-3.9,2-5.1,3.8l-0.2,0.3C534.5,432.7,535.2,434.1,536.4,434.1z"/>
	</g>
	<path class="st18" d="M590.6,318c-12.3,1.2-22.6,10.2-25.1,22.5l-15.2,73.9h20.3c0,0,7.1-11.5,5.3-20.5c5.8-10.8,5.5-18.5,5.5-18.5
		s8-11.4,9.2-25.2V318z"/>
	<path class="st29" d="M565,343.1l-5.1,24.6c8.7-11.4,24.2-14.4,30.4-15.2c0.1-0.7,0.2-1.5,0.3-2.2v-6.2L565,343.1z"/>
	<path class="st30" d="M567.3,380.2c0,0,4.7,3.4,6.5,9.6"/>
	<polygon class="st3" points="578,434.1 574.9,434.1 586.8,354.2 593.9,354.2 	"/>
	<path class="st13" d="M574.9,222.5l-5.3,0c0.5-0.5,0.8-1,1.1-1.7c0.9-2.2,0.2-4.6-1.5-5.3c-1.8-0.7-3.9,0.5-4.8,2.7
		c-0.3,0.7-0.4,1.3-0.4,2c-1.6-1.4-3.1-3.6-3.1-6.9c0,0-4.3,1.2-8.6,0.3v5.9l-1.9,5.1h2.2c0,0-0.2,13.2,11.9,8.6l3,5.9l16.2-5.2
		L574.9,222.5z"/>
	<path class="st17" d="M572.2,237.5l-2-9.1c-0.3-1.2-1.8-1.4-2.5-0.4c-2.2,3.6-5.9,6.2-8.4,6c1.4,0.1,3.1-0.2,5.2-0.9l3,5.9
		L572.2,237.5z"/>
	<path class="st9" d="M551,252.7c-2.7-6.4,0.7-13.8,7.3-15.9c6.8-2.2,16-4.3,26.7-4.3c0.6,0,1.1,0,1.7,0
		c14.5,0.5,27.5,9.1,34.1,22.1c7.1,13.8,15.9,36.4,15.9,63.3h-67c0,0-1.5-5.4,3.3-12.5L551,252.7z"/>
	<path class="st22" d="M570.5,266.1c0,0,4,4.9,1.3,17.5c3,10.3,0,18.8,0,18.8l-10.4-24.9L570.5,266.1z"/>
	<path class="st18" d="M528.3,340.5l-15.2,73.9h20.3c0,0,7.1-11.5,5.3-20.5c5.8-10.8,5.5-18.5,5.5-18.5s8-11.4,9.2-25.2h56.5
		c13.8,0,25.2-10.6,26.2-24.4l0.6-8.1h-80.6C542.6,317.9,531,327.3,528.3,340.5z"/>
	<path class="st29" d="M548.4,350.4c0,0-2.5-3.6-3.9-7.3c-1.4-3.7,2.5-7,7.5-4.1c5.1,2.8,20,9.5,27.3,7.9
		C579.4,346.9,569.9,353.7,548.4,350.4z"/>
	<path class="st3" d="M646.4,249.2H614c-6.6,0-13,5.3-14.4,11.9L584,334.3c-2.6,11.5-7.7,14.5-37.3,14.5c0,0,1.7,5.4,6.1,5.4
		c0,0,53.9,0,63.6,0c14.5,0,21.4-9.2,23.7-19.8l15.6-73.2C657.2,254.6,653,249.2,646.4,249.2z"/>
	<path class="st13" d="M506.3,308h-19.6l1.1-1.3c1.1-1.3,2.5-2.3,4.1-2.9l15.7-5.9L506.3,308z"/>
	<path class="st30" d="M534,368.5c0,0-0.7,3.6,6.8,8.2"/>
	<polygon class="st5" points="548.3,434.1 545.2,434.1 557.1,354.2 564.2,354.2 	"/>
	<polygon class="st5" points="603.7,434.1 606.7,434.1 588.4,354.2 581.2,354.2 	"/>
	<polygon class="st3" points="633.4,434.1 636.4,434.1 618.1,354.2 610.9,354.2 	"/>
	<polygon class="st3" points="588.4,354.2 581.2,354.2 582.1,357.1 589.2,357.6 	"/>
	<polygon class="st3" points="564.2,354.2 557.1,354.2 556.9,355.6 563.9,356 	"/>
	<path class="st9" d="M557.2,237.1c-8.6,2.5-8,6.4-14.3,21.6c-6.2,15.2-12.3,30.2-12.3,30.2l-28,8.1c0,0-3.1,3.1,0,10.9h37.5
		c8.2,0,15.6-4.7,19-12.1l13-28.2L557.2,237.1z"/>
	
		<image style="overflow:visible;" width="566" height="464" xlink:href="894A1592.jpg"  transform="matrix(0.9999 0 0 0.9999 49.8998 520.5156)">
	</image>
	<path class="st3" d="M679.3,160.9c0,2.1-1.7,3.8-3.8,3.8s-3.8-1.7-3.8-3.8s1.7-3.8,3.8-3.8S679.3,158.8,679.3,160.9z"/>
	<g>
		<g>
			<path class="st31" d="M139.9,135.7c0,0.9,0.4,1.8,0.7,2.7c0.2,0.7,0.4,1.5,1.2,1.7c0.4,0.1,2,0.1,1.5,0.8c-0.2,0.3-0.7,0.4-1,0.5
				c-0.2,0.1-0.4,0.2-0.6,0.2c-0.2,0.1-0.5,0.1-0.7,0.2c-0.1,0.1-0.1,0.2,0,0.3c0.5,0.1,1-0.1,1.4-0.2c0.4-0.2,0.7-0.3,1-0.6
				c0.2-0.2,0.3-0.5,0.3-0.8c-0.1-0.3-0.4-0.5-0.7-0.6c-0.4-0.1-0.7,0-1.1-0.1c-0.5-0.1-0.6-0.6-0.8-1c-0.4-1-0.5-2.1-0.9-3.2
				C140.1,135.4,139.9,135.5,139.9,135.7L139.9,135.7z"/>
		</g>
	</g>
	<g>
		<path class="st22" d="M143.9,134.7c0.2,0.8-0.1,1.5-0.7,1.6c-0.5,0.1-1.1-0.4-1.3-1.2c-0.2-0.8,0.1-1.5,0.7-1.6
			C143.2,133.4,143.7,133.9,143.9,134.7z"/>
	</g>
	<g>
		<path class="st22" d="M136.9,136.6c0.2,0.7-0.1,1.5-0.6,1.6c-0.5,0.1-1.1-0.4-1.3-1.1c-0.2-0.7,0.1-1.5,0.6-1.6
			C136.1,135.4,136.7,135.9,136.9,136.6z"/>
	</g>
	<g>
		<g>
			<path class="st22" d="M140.5,132.6c0.4-0.1,0.7-0.3,1.1-0.4c0.1,0,0.2-0.1,0.3-0.1c0.1,0-0.1,0,0,0c0,0,0,0,0.1,0
				c0,0,0.1,0,0.1,0c0.1,0,0.2,0,0.3,0c0.1,0,0.2,0,0.2-0.1c0,0,0.1,0,0.1-0.1c0,0,0,0-0.1,0c0,0,0.1-0.1,0.1-0.1
				c0.2-0.1,0.2-0.4,0.1-0.6c0-0.1-0.1-0.1-0.1-0.1c0,0,0,0-0.1,0c0,0,0,0,0.1,0c0,0,0,0-0.1,0c0,0-0.1,0-0.1,0c0,0-0.1,0-0.1,0
				c-0.1,0-0.3,0-0.4,0c-0.2,0-0.5,0.1-0.7,0.2c-0.2,0.1-0.4,0.2-0.6,0.3c-0.2,0.1-0.4,0.3-0.5,0.4c-0.1,0.1-0.1,0.3,0,0.4
				C140.2,132.5,140.4,132.6,140.5,132.6L140.5,132.6z"/>
		</g>
	</g>
	<g>
		<g>
			<path class="st22" d="M136,133.3c-0.1,0-0.1,0-0.2,0c-0.1,0-0.2,0-0.1,0c0,0-0.1,0-0.1,0c-0.2,0-0.4,0-0.5,0
				c-0.4,0.1-0.8,0.2-1.1,0.4c-0.4,0.2-0.7,0.4-0.9,0.8c0,0-0.1,0.1-0.1,0.2c0,0,0,0.1,0,0.1c0,0,0,0,0,0c-0.1,0.1-0.1,0.3,0,0.4
				c0.1,0.1,0.2,0.2,0.3,0.2c0.2,0,0.3-0.1,0.4-0.2c-0.1,0-0.1,0.1-0.2,0.1c0.1,0,0.2-0.1,0.3-0.1c0,0,0.1-0.1,0,0
				c-0.1,0,0.1-0.1,0.1-0.1c0,0,0.1-0.1,0,0c0,0,0,0,0.1,0c0.1,0,0.1-0.1,0.2-0.1c0.2-0.1,0.5-0.2,0.7-0.4c0.2-0.1,0.5-0.2,0.7-0.3
				c0.1,0,0.2-0.1,0.3-0.1c0.1,0,0,0,0,0c0,0,0,0,0.1,0c0,0,0.1,0,0.1,0c0.2,0,0.3-0.2,0.3-0.4C136.3,133.4,136.2,133.3,136,133.3
				L136,133.3z"/>
		</g>
	</g>
	<g>
		<path class="st22" d="M143.9,144.6c0.1-0.9,0.5-1.8,1.2-2.5c-0.7,0.2-4.2,1.3-4.8,2.1c-0.7,0.9,1.3,2.6,3.3,1.9
			c0.2-0.1,0.4-0.2,0.6-0.3C143.9,145.5,143.8,145,143.9,144.6z"/>
	</g>
	<g>
		<path class="st22" d="M554.7,230.2c0-0.7-0.4-1.3-0.8-1.8c0.5,0.2,3,0.9,3.4,1.5c0.5,0.7-0.9,1.8-2.3,1.3
			c-0.1-0.1-0.3-0.1-0.4-0.2C554.7,230.8,554.7,230.5,554.7,230.2z"/>
	</g>
	<g>
		<path class="st22" d="M558.2,220.5c0.2,0.7-0.1,1.5-0.6,1.6s-1.1-0.4-1.3-1.1c-0.2-0.7,0.1-1.5,0.6-1.6
			C557.4,219.3,558,219.8,558.2,220.5z"/>
	</g>
	<g>
		<g>
			<path class="st22" d="M557.3,217.1c-0.1,0-0.1,0-0.2,0c-0.1,0-0.2,0-0.1,0c0,0-0.1,0-0.1,0c-0.2,0-0.4,0-0.5,0
				c-0.4,0.1-0.8,0.2-1.1,0.4c-0.4,0.2-0.7,0.4-0.9,0.8c0,0-0.1,0.1-0.1,0.2c0,0,0,0.1,0,0.1c0,0,0,0,0,0c-0.1,0.1-0.1,0.3,0,0.4
				c0.1,0.1,0.2,0.2,0.3,0.2c0.2,0,0.3-0.1,0.4-0.2c-0.1,0-0.1,0.1-0.2,0.1c0.1,0,0.2-0.1,0.3-0.1c0,0,0.1-0.1,0,0
				c-0.1,0,0.1-0.1,0.1-0.1c0,0,0.1-0.1,0,0c0,0,0,0,0.1,0c0.1,0,0.1-0.1,0.2-0.1c0.2-0.1,0.5-0.2,0.7-0.4c0.2-0.1,0.5-0.2,0.7-0.3
				c0.1,0,0.2-0.1,0.3-0.1c0.1,0,0,0,0,0c0,0,0,0,0.1,0c0,0,0.1,0,0.1,0c0.2,0,0.3-0.2,0.3-0.4C557.6,217.3,557.5,217.2,557.3,217.1
				L557.3,217.1z"/>
		</g>
	</g>
</g>
</svg>
