<svg width="18" height="18" viewBox="0 0 18 18" fill="none" xmlns="http://www.w3.org/2000/svg">
<path d="M13.8769 0.119995H9.07692H4.12332C1.91532 0.119995 0.120117 1.9152 0.120117 4.12319V13.8792C0.120117 16.0848 1.91532 17.88 4.12332 17.88H9.07932H13.8793C16.0849 17.88 17.8801 16.0848 17.8801 13.8768V9.07679V8.92079V4.12079C17.8801 1.9152 16.0849 0.119995 13.8769 0.119995ZM16.9201 13.8768C16.9201 15.5544 15.5545 16.92 13.8769 16.92H9.07692H4.12332C2.44572 16.92 1.08012 15.5544 1.08012 13.8768V4.12319C1.08012 2.4456 2.44572 1.08 4.12332 1.08H9.07932H13.8793C15.5545 1.08 16.9201 2.4456 16.9201 4.12319V8.92319V9.0792V13.8768Z" fill="black"/>
<path d="M9.00014 11.0496C6.73694 11.0496 4.60094 11.9208 2.98094 13.5048C2.79134 13.6896 2.78894 13.9944 2.97374 14.184C3.15854 14.3736 3.46334 14.376 3.65294 14.1912C5.09054 12.7848 6.98894 12.0096 9.00014 12.0096C11.0113 12.0096 12.9097 12.7848 14.3473 14.1912C14.4409 14.2824 14.5609 14.328 14.6833 14.328C14.8081 14.328 14.9329 14.28 15.0265 14.184C15.2113 13.9944 15.2089 13.6896 15.0193 13.5048C13.3993 11.9232 11.2633 11.0496 9.00014 11.0496Z" fill="black"/>
<path d="M9.00015 10.2C10.7593 10.2 12.1897 8.7696 12.1897 7.0104C12.1897 5.2512 10.7593 3.8208 9.00015 3.8208C7.24095 3.8208 5.81055 5.2512 5.81055 7.0104C5.81055 8.7696 7.24095 10.2 9.00015 10.2ZM9.00015 4.7808C10.2289 4.7808 11.2297 5.7816 11.2297 7.0104C11.2297 8.2392 10.2289 9.24 9.00015 9.24C7.77135 9.24 6.77055 8.2392 6.77055 7.0104C6.77055 5.7816 7.77135 4.7808 9.00015 4.7808Z" fill="black"/>
</svg>
