<svg width="18" height="18" viewBox="0 0 18 18" fill="none" xmlns="http://www.w3.org/2000/svg">
<path d="M13.8768 0.119995H9.0768H4.1232C1.9152 0.119995 0.119995 1.9152 0.119995 4.12319V13.8792C0.119995 16.0848 1.9152 17.88 4.1232 17.88H9.0792H13.8792C16.0848 17.88 17.88 16.0848 17.88 13.8768V9.07679V8.92079V4.12079C17.88 1.9152 16.0848 0.119995 13.8768 0.119995ZM16.92 13.8768C16.92 15.5544 15.5544 16.92 13.8768 16.92H9.0768H4.1232C2.4456 16.92 1.08 15.5544 1.08 13.8768V4.12319C1.08 2.4456 2.4456 1.08 4.1232 1.08H9.0792H13.8792C15.5544 1.08 16.92 2.4456 16.92 4.12319V8.92319V9.0792V13.8768Z" fill="#00A73F"/>
<path d="M9.00001 11.0496C6.73681 11.0496 4.60082 11.9208 2.98082 13.5048C2.79122 13.6896 2.78881 13.9944 2.97361 14.184C3.15841 14.3736 3.46321 14.376 3.65281 14.1912C5.09041 12.7848 6.98881 12.0096 9.00001 12.0096C11.0112 12.0096 12.9096 12.7848 14.3472 14.1912C14.4408 14.2824 14.5608 14.328 14.6832 14.328C14.808 14.328 14.9328 14.28 15.0264 14.184C15.2112 13.9944 15.2088 13.6896 15.0192 13.5048C13.3992 11.9232 11.2632 11.0496 9.00001 11.0496Z" fill="#00A73F"/>
<path d="M9.00003 10.2C10.7592 10.2 12.1896 8.7696 12.1896 7.0104C12.1896 5.2512 10.7592 3.8208 9.00003 3.8208C7.24083 3.8208 5.81042 5.2512 5.81042 7.0104C5.81042 8.7696 7.24083 10.2 9.00003 10.2ZM9.00003 4.7808C10.2288 4.7808 11.2296 5.7816 11.2296 7.0104C11.2296 8.2392 10.2288 9.24 9.00003 9.24C7.77122 9.24 6.77042 8.2392 6.77042 7.0104C6.77042 5.7816 7.77122 4.7808 9.00003 4.7808Z" fill="#00A73F"/>
</svg>
