<svg width="22" height="26" viewBox="0 0 22 26" fill="none" xmlns="http://www.w3.org/2000/svg">
<path d="M4.32673 8.86582C4.2574 8.86582 4.18806 8.84273 4.13029 8.79079C4.06673 8.73307 4.03784 8.65803 4.03784 8.57722C4.03784 8.50796 4.06095 8.43869 4.11295 8.38097L6.62629 5.67966C6.73606 5.56422 6.91517 5.55845 7.03651 5.66235C7.10006 5.72007 7.12895 5.7951 7.12895 5.87591C7.12895 5.94518 7.10584 6.01444 7.05384 6.07216L4.53473 8.77347C4.47695 8.83119 4.40184 8.86582 4.32673 8.86582ZM15.1254 3.87302C15.0503 3.87302 14.9752 3.84416 14.9232 3.78644C14.8654 3.72872 14.8365 3.65368 14.8365 3.58442C14.8365 3.51515 14.8654 3.43434 14.9232 3.3824L16.1018 2.2049C16.2174 2.09523 16.3965 2.09523 16.5121 2.2049C16.5698 2.26262 16.5987 2.33766 16.5987 2.40692C16.5987 2.47619 16.5698 2.557 16.5121 2.60894L15.3334 3.78644C15.2698 3.84416 15.1947 3.87302 15.1254 3.87302Z" fill="black"/>
<path d="M17.2922 3.52094C17.1131 3.52094 16.9397 3.45167 16.8011 3.31315L15.3913 1.90477C15.1891 1.70275 15.1313 1.40838 15.2411 1.14286C15.3508 0.87735 15.5993 0.709961 15.8882 0.709961H17.298C17.6851 0.709961 17.9971 1.02165 17.9971 1.40838V2.81675C17.9971 3.10535 17.8295 3.35355 17.5637 3.46322C17.4713 3.50362 17.3846 3.52094 17.2922 3.52094ZM15.8882 1.28716C15.8362 1.28716 15.7957 1.31602 15.7784 1.3622C15.7611 1.40838 15.7668 1.45455 15.8073 1.49496L17.2171 2.90333C17.2517 2.93796 17.3037 2.94951 17.35 2.92642C17.3962 2.9091 17.4251 2.8687 17.4251 2.81675V1.41415C17.4251 1.34488 17.3731 1.29294 17.3037 1.29294C17.298 1.29294 15.8882 1.29294 15.8882 1.28716Z" fill="black"/>
<path d="M11.0174 7.29585C10.2663 7.29585 9.65381 6.68401 9.65381 5.93365C9.65381 5.77203 9.78092 5.64505 9.9427 5.64505C10.1045 5.64505 10.2316 5.77203 10.2316 5.93365C10.2316 6.36655 10.584 6.71864 11.0174 6.71864C11.4507 6.71864 11.8031 6.36655 11.8031 5.93365C11.8031 5.50075 11.4507 5.14865 11.0174 5.14865C10.2663 5.14865 9.65381 4.53682 9.65381 3.78645C9.65381 3.03609 10.2605 2.42426 11.0174 2.42426C11.7743 2.42426 12.3809 3.03609 12.3809 3.78645C12.3809 3.94807 12.2538 4.07506 12.092 4.07506C11.9303 4.07506 11.8031 3.94807 11.8031 3.78645C11.8031 3.35355 11.4507 3.00146 11.0174 3.00146C10.584 3.00146 10.2316 3.35355 10.2316 3.78645C10.2316 4.21936 10.584 4.57145 11.0174 4.57145C11.7685 4.57145 12.3809 5.18329 12.3809 5.93365C12.3809 6.68401 11.7685 7.29585 11.0174 7.29585Z" fill="black"/>
<path d="M11.0172 3.00148C10.8554 3.00148 10.7283 2.87449 10.7283 2.71288V2.26843C10.7283 2.10681 10.8554 1.97983 11.0172 1.97983C11.1789 1.97983 11.306 2.10681 11.306 2.26843V2.71288C11.306 2.87449 11.1732 3.00148 11.0172 3.00148Z" fill="black"/>
<path d="M11.0172 7.74031C10.8554 7.74031 10.7283 7.61332 10.7283 7.45171V7.00726C10.7283 6.84564 10.8554 6.71866 11.0172 6.71866C11.1789 6.71866 11.306 6.84564 11.306 7.00726V7.45171C11.306 7.60755 11.1732 7.74031 11.0172 7.74031Z" fill="black"/>
<path d="M11.0172 9.44305C8.48658 9.44305 6.42969 7.38821 6.42969 4.86006C6.42969 2.33191 8.48658 0.277069 11.0172 0.277069C13.5479 0.277069 15.6048 2.33191 15.6048 4.86006C15.6048 7.38821 13.5479 9.44305 11.0172 9.44305ZM11.0172 0.8485C8.80435 0.8485 7.00747 2.6436 7.00747 4.85429C7.00747 7.06497 8.80435 8.86008 11.0172 8.86008C13.2301 8.86008 15.027 7.06497 15.027 4.85429C15.027 2.6436 13.2244 0.8485 11.0172 0.8485Z" fill="black"/>
<path d="M11.8032 25.6394C11.4969 25.6394 11.1907 25.5239 10.9538 25.293C10.8383 25.1834 10.8383 24.9987 10.9481 24.8832C11.0578 24.7678 11.2427 24.7678 11.3583 24.8832C11.6067 25.1257 12.0054 25.1257 12.2481 24.8832C12.3636 24.7678 12.4329 24.6062 12.4329 24.4388C12.4329 24.2714 12.3694 24.1098 12.2481 23.9943C12.1903 23.9366 12.1614 23.8616 12.1614 23.7923C12.1614 23.7231 12.1903 23.6422 12.2481 23.5903C12.3636 23.4749 12.5427 23.4749 12.6583 23.5903C12.9067 23.8385 13.3054 23.8385 13.5538 23.5903C13.8023 23.3421 13.8023 22.9438 13.5538 22.6956C13.4961 22.6379 13.4672 22.5629 13.4672 22.4936C13.4672 22.4243 13.4961 22.3435 13.5538 22.2916C13.6694 22.1762 13.8485 22.1762 13.9641 22.2916C14.0796 22.407 14.2414 22.4763 14.4089 22.4763C14.5765 22.4763 14.7383 22.4128 14.8538 22.2916C15.1023 22.0434 15.1023 21.6451 14.8538 21.3969C14.7961 21.3392 14.7672 21.2642 14.7672 21.1949C14.7672 21.1256 14.7961 21.0448 14.8538 20.9929C14.9694 20.8774 15.1485 20.8774 15.2641 20.9929C15.5125 21.2411 15.9112 21.2411 16.1596 20.9929C16.2752 20.8774 16.3445 20.7158 16.3445 20.5484C16.3445 20.381 16.2809 20.2194 16.1596 20.104L15.7205 19.6595C15.6049 19.5441 15.6049 19.3652 15.7205 19.2497C15.8361 19.1343 16.0152 19.1343 16.1307 19.2497L16.5698 19.6884C16.7952 19.9135 16.9223 20.2194 16.9223 20.5427C16.9223 20.8659 16.7952 21.1718 16.5698 21.3969C16.3098 21.6567 15.9574 21.7721 15.6165 21.7432C15.6454 22.0838 15.5298 22.4359 15.2698 22.6956C15.0445 22.9207 14.7383 23.0477 14.4147 23.0477C14.3801 23.0477 14.3512 23.0477 14.3165 23.042C14.3454 23.3825 14.2298 23.7346 13.9698 23.9943C13.7098 24.2541 13.3574 24.3695 13.0165 24.3407C13.0165 24.3695 13.0223 24.4042 13.0223 24.4388C13.0223 24.762 12.8952 25.0679 12.6698 25.293C12.4214 25.5239 12.1152 25.6394 11.8032 25.6394ZM6.1005 20.3233C6.02539 20.3233 5.95028 20.2945 5.89828 20.2367L4.32095 18.661C4.00317 18.3435 3.82983 17.9222 3.82983 17.4719C3.82983 17.0217 4.00317 16.6004 4.32095 16.2829L7.55072 13.0563C8.20939 12.3983 9.27828 12.3983 9.93695 13.0563L11.1041 14.2223C11.2138 14.3377 11.2138 14.5167 11.1041 14.6321C10.9885 14.7475 10.8094 14.7475 10.6938 14.6321L9.5325 13.4662C9.09917 13.0333 8.40006 13.0333 7.96672 13.4662L4.73694 16.6927C4.52894 16.9005 4.41339 17.1776 4.41339 17.4777C4.41339 17.7779 4.52894 18.0549 4.73694 18.2627L6.31428 19.8385C6.42406 19.9539 6.42406 20.1329 6.31428 20.2483C6.24494 20.2945 6.16983 20.3233 6.1005 20.3233Z" fill="black"/>
<path d="M15.0559 21.472C14.9808 21.472 14.9057 21.4431 14.8537 21.3854L11.6644 18.1992C11.5546 18.0838 11.5546 17.9048 11.6644 17.7894C11.7799 17.674 11.959 17.674 12.0746 17.7894L15.2639 20.9756C15.3795 21.091 15.3795 21.2699 15.2639 21.3854C15.2061 21.4431 15.131 21.472 15.0559 21.472Z" fill="black"/>
<path d="M13.7561 22.7764C13.681 22.7764 13.6059 22.7476 13.5539 22.6898L10.3646 19.5037C10.2548 19.3882 10.2548 19.2093 10.3646 19.0939C10.4743 18.9784 10.6592 18.9784 10.7748 19.0939L13.9641 22.28C14.0797 22.3955 14.0797 22.5744 13.9641 22.6898C13.9006 22.7476 13.8312 22.7764 13.7561 22.7764Z" fill="black"/>
<path d="M16.0902 19.9077C16.0151 19.9077 15.94 19.8789 15.888 19.8211L12.3058 16.2425L11.0173 17.5296C10.6649 17.8817 10.1969 18.0722 9.6942 18.0722C9.19153 18.0722 8.72353 17.876 8.37109 17.5296C8.09375 17.2526 8.09375 16.7966 8.37109 16.5138L12.0978 12.7908C12.7564 12.1328 13.8253 12.1328 14.484 12.7908L17.7138 16.0174C18.3724 16.6754 18.3724 17.7432 17.7138 18.4012L16.2982 19.8154C16.2462 19.8789 16.1711 19.9077 16.0902 19.9077ZM12.3058 15.5498C12.3809 15.5498 12.456 15.5787 12.508 15.6364L16.0902 19.2151L17.3035 18.003C17.5115 17.7952 17.6271 17.5181 17.6271 17.218C17.6271 16.9236 17.5115 16.6408 17.3035 16.433L14.0738 13.2064C13.8658 12.9986 13.5884 12.8832 13.288 12.8832C12.9875 12.8832 12.7102 12.9986 12.5022 13.2064L8.77553 16.9294C8.72353 16.9813 8.72353 17.0737 8.77553 17.1256C9.0182 17.368 9.34175 17.5008 9.68842 17.5008C10.0351 17.5008 10.3586 17.368 10.6013 17.1256L12.0978 15.6306C12.1613 15.5787 12.2364 15.5498 12.3058 15.5498Z" fill="black"/>
<path d="M6.58581 21.9972C6.28537 21.9972 5.97914 21.8817 5.74803 21.6509C5.28581 21.1891 5.28581 20.4387 5.74803 19.977L7.10581 18.6206C7.56803 18.1588 8.31914 18.1588 8.78137 18.6206C9.0067 18.8457 9.12803 19.14 9.12803 19.4575C9.12803 19.775 9.0067 20.0693 8.78137 20.2944L7.41781 21.6509C7.19248 21.8817 6.88626 21.9972 6.58581 21.9972ZM6.15248 20.3868C5.91559 20.6234 5.91559 21.0044 6.15248 21.2411C6.38937 21.4777 6.7707 21.4777 7.00759 21.2411L8.36537 19.8846C8.48092 19.7692 8.54448 19.6191 8.54448 19.4575C8.54448 19.2959 8.48092 19.1458 8.36537 19.0304C8.12848 18.7937 7.74714 18.7937 7.51026 19.0304L6.15248 20.3868Z" fill="black"/>
<path d="M7.84533 23.2613C7.54489 23.2613 7.23867 23.1458 7.00756 22.915C6.54533 22.4532 6.54533 21.7028 7.00756 21.2411L8.36533 19.8847C8.82756 19.4229 9.57867 19.4229 10.0409 19.8847C10.5031 20.3464 10.5031 21.0968 10.0409 21.5585L8.68311 22.915C8.452 23.1458 8.15156 23.2613 7.84533 23.2613ZM9.20311 20.1213C9.04711 20.1213 8.89111 20.179 8.77556 20.3002L7.41778 21.6509C7.18089 21.8875 7.18089 22.2685 7.41778 22.5052C7.65467 22.7418 8.036 22.7418 8.27289 22.5052L9.63067 21.1487C9.86756 20.9121 9.86756 20.5311 9.63067 20.2945C9.51511 20.179 9.35911 20.1213 9.20311 20.1213Z" fill="black"/>
<path d="M9.11071 24.5254C8.81027 24.5254 8.50405 24.4099 8.27294 24.179C8.0476 23.9539 7.92627 23.6596 7.92627 23.3421C7.92627 23.0246 8.0476 22.7303 8.27294 22.5051L9.63071 21.1487C9.85605 20.9236 10.1507 20.8024 10.4685 20.8024C10.7863 20.8024 11.0809 20.9236 11.3063 21.1487C11.7685 21.6105 11.7685 22.3608 11.3063 22.8226L9.94849 24.179C9.71738 24.4099 9.41694 24.5254 9.11071 24.5254ZM10.4685 21.3854C10.3067 21.3854 10.1565 21.4489 10.0409 21.5585L8.68316 22.915C8.5676 23.0304 8.50405 23.1805 8.50405 23.3421C8.50405 23.5037 8.5676 23.6538 8.68316 23.7692C8.92005 24.0059 9.30138 24.0059 9.53827 23.7692L10.896 22.4128C11.1329 22.1761 11.1329 21.7952 10.896 21.5585C10.7805 21.4489 10.6303 21.3854 10.4685 21.3854Z" fill="black"/>
<path d="M10.3761 25.7894C10.0757 25.7894 9.76943 25.674 9.53832 25.4431C9.07609 24.9813 9.07609 24.231 9.53832 23.7692L10.8961 22.4128C11.3583 21.951 12.1094 21.951 12.5717 22.4128C13.0339 22.8746 13.0339 23.6249 12.5717 24.0867L11.2139 25.4431C10.9828 25.674 10.6823 25.7894 10.3761 25.7894ZM11.7339 22.6494C11.5779 22.6494 11.4219 22.7072 11.3063 22.8284L9.94854 24.1848C9.71165 24.4215 9.71165 24.8024 9.94854 25.0391C10.1854 25.2757 10.5668 25.2757 10.8037 25.0391L12.1614 23.6826C12.3983 23.446 12.3983 23.065 12.1614 22.8284C12.0401 22.7072 11.8899 22.6494 11.7339 22.6494Z" fill="black"/>
<path d="M4.60988 16.6812C4.53477 16.6812 4.45965 16.6523 4.40765 16.5946L3.41388 15.6018C3.3041 15.4864 3.3041 15.3074 3.41388 15.192C3.52365 15.0765 3.70854 15.0765 3.8241 15.192L4.81788 16.1848C4.92765 16.3002 4.92765 16.4791 4.81788 16.5946C4.7601 16.6523 4.68499 16.6812 4.60988 16.6812ZM7.65477 13.6393C7.57965 13.6393 7.50454 13.6104 7.45254 13.5527L6.45877 12.5599C6.34899 12.4503 6.34899 12.2656 6.45877 12.1501C6.56854 12.0405 6.75343 12.0405 6.86899 12.1501L7.86277 13.1429C7.97254 13.2526 7.97254 13.4373 7.86277 13.5527C7.80499 13.6104 7.72988 13.6393 7.65477 13.6393Z" fill="black"/>
<path d="M2.8649 16.2136C2.65112 16.2136 2.43734 16.1328 2.27557 15.9712L0.663565 14.3608C0.34001 14.0376 0.34001 13.5123 0.663565 13.1891L4.44223 9.41418C4.76579 9.09094 5.29156 9.09094 5.61512 9.41418L7.22712 11.0246C7.55068 11.3478 7.55068 11.8731 7.22712 12.1963L3.44845 15.9712C3.29245 16.1328 3.07868 16.2136 2.8649 16.2136ZM5.03734 9.74896C4.97379 9.74896 4.91023 9.77204 4.85823 9.82399L1.07957 13.5989C0.981343 13.697 0.981343 13.8586 1.07957 13.9568L2.69157 15.5672C2.78979 15.6653 2.95157 15.6653 3.04979 15.5672L6.82845 11.7923C6.92668 11.6941 6.92668 11.5325 6.82845 11.4344L5.21645 9.82399C5.16445 9.77204 5.1009 9.74896 5.03734 9.74896Z" fill="black"/>
<path d="M17.4192 16.4272C17.3441 16.4272 17.269 16.3983 17.217 16.3406C17.1015 16.2252 17.1015 16.0462 17.217 15.9308L18.2108 14.938C18.3263 14.8226 18.5054 14.8226 18.621 14.938C18.7366 15.0535 18.7366 15.2324 18.621 15.3478L17.6272 16.3406C17.5695 16.3983 17.4943 16.4272 17.4192 16.4272ZM14.3743 13.3853C14.2992 13.3853 14.2241 13.3565 14.1721 13.2988C14.0566 13.1891 14.0566 13.0044 14.1721 12.8889L15.1659 11.8962C15.2815 11.7865 15.4606 11.7865 15.5761 11.8962C15.6917 12.0058 15.6917 12.1905 15.5761 12.306L14.5823 13.2988C14.5246 13.3565 14.4494 13.3853 14.3743 13.3853Z" fill="black"/>
<path d="M19.1639 15.9597C18.9501 15.9597 18.7363 15.8789 18.5746 15.7172L14.7959 11.9423C14.4723 11.6191 14.4723 11.0938 14.7959 10.7706L16.4079 9.16021C16.7314 8.83698 17.2572 8.83698 17.5808 9.16021L21.3594 12.9351C21.683 13.2584 21.683 13.7836 21.3594 14.1068L19.7474 15.7172C19.5914 15.8789 19.3777 15.9597 19.1639 15.9597ZM16.9972 9.49499C16.9337 9.49499 16.8701 9.51808 16.8181 9.57003L15.2061 11.1804C15.1079 11.2785 15.1079 11.4402 15.2061 11.5383L18.9848 15.3132C19.083 15.4113 19.2448 15.4113 19.343 15.3132L20.955 13.7028C21.0532 13.6047 21.0532 13.4431 20.955 13.3449L17.1763 9.57003C17.1243 9.51808 17.0608 9.49499 16.9972 9.49499Z" fill="black"/>
<path d="M1.68055 15.2497C1.60544 15.2497 1.53033 15.2209 1.47833 15.1631C1.36855 15.0477 1.36855 14.8688 1.47833 14.7533L3.18277 13.0506C3.29255 12.9409 3.47744 12.9409 3.593 13.0506C3.70277 13.166 3.70277 13.3449 3.593 13.4604L1.89433 15.1574C1.825 15.2209 1.74988 15.2497 1.68055 15.2497Z" fill="black"/>
<path d="M20.3542 14.9957C20.2791 14.9957 20.204 14.9669 20.152 14.9092L18.4475 13.2122C18.332 13.0967 18.332 12.9178 18.4475 12.8024C18.5631 12.6927 18.7422 12.6927 18.8577 12.8024L20.5622 14.4994C20.6777 14.6148 20.6777 14.7937 20.5622 14.9092C20.4986 14.9669 20.4235 14.9957 20.3542 14.9957Z" fill="black"/>
<path d="M3.95105 13.7894C3.34438 13.7894 2.85327 13.2988 2.85327 12.6927C2.85327 12.0866 3.34438 11.596 3.95105 11.596C4.55772 11.596 5.04883 12.0866 5.04883 12.6927C5.04883 13.293 4.55772 13.7894 3.95105 13.7894ZM3.95105 12.1732C3.66794 12.1732 3.43105 12.4041 3.43105 12.6927C3.43105 12.9813 3.66216 13.2122 3.95105 13.2122C4.23994 13.2122 4.47105 12.9813 4.47105 12.6927C4.47105 12.4041 4.23416 12.1732 3.95105 12.1732Z" fill="black"/>
<path d="M18.0778 13.5354C17.4711 13.5354 16.98 13.0448 16.98 12.4387C16.98 11.8327 17.4711 11.342 18.0778 11.342C18.6844 11.342 19.1755 11.8327 19.1755 12.4387C19.1755 13.0448 18.6844 13.5354 18.0778 13.5354ZM18.0778 11.9192C17.7889 11.9192 17.5578 12.1501 17.5578 12.4387C17.5578 12.7273 17.7889 12.9582 18.0778 12.9582C18.3666 12.9582 18.5978 12.7273 18.5978 12.4387C18.5978 12.1501 18.3666 11.9192 18.0778 11.9192Z" fill="black"/>
</svg>
