<svg width="550" height="384" viewBox="0 0 550 384" fill="none" xmlns="http://www.w3.org/2000/svg">
<path fill-rule="evenodd" clip-rule="evenodd" d="M3.8149 335.757C3.8149 335.757 -6.84367 224.893 66.9352 238.037C140.714 251.181 151.51 28.728 283.774 22.5385C416.036 16.3489 405.413 206.079 471.907 210.636C538.4 215.191 548.297 335.757 548.297 335.757H3.8149Z" fill="#E1E2E7"/>
<path fill-rule="evenodd" clip-rule="evenodd" d="M82.4267 135.861L63.3 179.514C35.0384 166.485 17.0215 140.072 13.5062 111.132L60.869 105.872C62.5959 119.078 70.9206 130.214 82.4267 135.861Z" fill="#67BC93"/>
<path fill-rule="evenodd" clip-rule="evenodd" d="M179.072 135.553C160.069 178.924 109.887 198.949 66.3571 180.854L85.4838 137.2C89.8711 138.91 94.6378 139.844 99.6241 139.844C121.208 139.844 138.705 122.338 138.705 100.754C138.705 85.7939 130.3 72.7906 117.949 66.2272L137.092 22.5385C179.099 42.6342 197.891 92.5778 179.072 135.553Z" fill="#B2D7AF"/>
<path fill-rule="evenodd" clip-rule="evenodd" d="M134.053 21.1555L114.945 64.7826C110.24 62.7735 105.06 61.6638 99.6241 61.6638C78.0393 61.6638 60.5342 79.1688 60.5342 100.754C60.5342 101.353 60.5514 101.951 60.5778 102.542L13.1632 107.819C12.0171 93.9435 14.2022 79.6008 20.1757 65.954C39.3459 22.1945 90.2586 2.20496 134.053 21.1555Z" fill="#2F7630"/>
<path fill-rule="evenodd" clip-rule="evenodd" d="M442.49 101.656C428.465 102.267 416.601 91.3904 415.991 77.3642C415.381 63.3389 426.258 51.4745 440.283 50.8648C454.308 50.255 466.173 61.1315 466.782 75.1567C467.392 89.1829 456.517 101.046 442.49 101.656ZM441.387 27.7311C414.628 27.7311 392.857 49.5013 392.857 76.2605C392.857 103.02 414.628 124.79 441.387 124.79C468.147 124.79 489.916 103.02 489.916 76.2605C489.916 49.5013 468.147 27.7311 441.387 27.7311Z" fill="#67BC93"/>
<path fill-rule="evenodd" clip-rule="evenodd" d="M475.678 107.317C466.766 115.859 455.059 120.419 442.717 120.157C430.375 119.896 418.872 114.843 410.33 105.93C401.787 97.0177 397.228 85.3115 397.49 72.9692C397.752 60.6268 402.804 49.1245 411.717 40.5825C420.629 32.0404 432.336 27.4799 444.678 27.7418C457.02 28.0036 468.522 33.0562 477.065 41.9688C485.607 50.8815 490.166 62.5877 489.905 74.93C489.643 87.2723 484.591 98.7747 475.678 107.317ZM517.188 62.6138C516.48 61.3231 515.257 61.2159 511.958 60.9586C507.88 60.6415 503.79 60.4665 499.721 60.0681C498.978 59.9957 497.967 59.3062 497.665 58.6398C495.723 54.3398 494.027 49.929 492.055 45.6433C491.481 44.3963 491.397 43.6201 492.29 42.5277C495.433 38.6796 498.471 34.7458 501.545 30.8424C502.044 30.2091 502.52 29.5588 503.365 28.4423C497.963 23.3973 492.622 18.4095 487.145 13.2967C482.565 17.2269 478.343 20.7328 474.271 24.4058C472.836 25.701 471.832 26.0163 469.908 25.0963C465.979 23.2151 461.788 21.8806 457.755 20.2022C457.137 19.9459 456.456 19.1062 456.36 18.4542C455.619 13.4771 454.868 8.49196 454.434 3.48271C454.226 1.07813 453.203 0.29834 450.978 0.380517C450.123 0.410887 449.257 0.135771 448.396 0C444.527 0.0857503 440.657 0.170607 436.787 0.256358C436.373 0.393022 435.967 0.601145 435.541 0.654739C431.084 1.22284 431.799 0.85929 431.455 5.02443C431.038 10.0989 430.705 15.1796 430.383 19.5886C424.547 22.1995 419.091 24.6389 413.457 27.1596C408.646 23.4089 403.619 19.4894 398.557 15.5449C392.526 20.1013 387.691 25.5313 383.386 31.6311C387.281 36.1089 391.065 40.4831 394.883 44.8296C395.568 45.6093 395.818 46.1748 395.317 47.3118C393.356 51.7655 391.506 56.2763 389.857 60.8515C389.382 62.1708 388.787 62.5111 387.552 62.6567C382.455 63.2551 377.372 63.9724 372.276 64.5923C371.011 64.746 370.365 65.1515 370.173 66.5762C369.318 72.9682 369.847 79.2806 370.924 85.5877C371.136 86.8365 371.893 87.0026 372.969 87.0678C377.946 87.3689 382.915 87.7905 387.894 88.0575C389.329 88.1343 389.979 88.5301 390.539 90.003C392.475 95.0891 394.709 100.064 397.002 105.485C393.576 109.838 389.689 114.777 385.802 119.714C390.441 125.846 395.715 130.968 401.989 135.149C406.878 130.897 411.633 126.76 415.94 123.014C420.966 124.787 425.596 126.556 430.321 128.018C432.107 128.57 432.811 129.349 432.991 131.175C433.469 136.038 434.137 140.883 434.779 145.728C434.904 146.687 434.797 147.945 436.385 147.899C442.841 147.706 449.299 147.521 455.756 147.327C457.128 147.286 457.594 146.556 457.67 145.205C457.95 140.178 458.452 135.161 458.647 130.132C458.722 128.192 459.651 127.596 461.263 126.951C465.246 125.36 469.216 123.681 472.99 121.663C474.616 120.794 475.441 120.878 476.793 121.994C481.135 125.579 485.618 128.993 489.954 132.4C493.934 130.154 502.849 120.66 505.381 116.04C501.59 111.756 497.801 107.385 493.893 103.123C492.914 102.056 492.98 101.324 493.501 100.055C495.184 95.9653 496.577 91.7573 498.218 87.6484C498.494 86.9571 499.397 86.1541 500.104 86.0522C504.595 85.4109 509.11 84.9259 513.622 84.4417C516.145 84.1702 517.165 84.0701 517.647 83.1126L517.188 62.6138Z" fill="#67BC93"/>
<path fill-rule="evenodd" clip-rule="evenodd" d="M467.408 203.348C459.758 203.68 453.287 197.748 452.954 190.098C452.622 182.447 458.554 175.976 466.204 175.644C473.854 175.311 480.326 181.243 480.659 188.893C480.992 196.543 475.059 203.015 467.408 203.348ZM469.118 157.143C452.552 157.143 439.076 170.619 439.076 187.185C439.076 203.749 452.552 217.227 469.117 217.227C485.682 217.227 499.16 203.749 499.16 187.185C499.16 170.619 485.682 157.143 469.118 157.143Z" fill="#67BC93"/>
<path fill-rule="evenodd" clip-rule="evenodd" d="M485.995 209.516C480.648 214.641 473.624 217.377 466.219 217.221C458.813 217.064 451.912 214.032 446.787 208.684C441.661 203.336 438.925 196.313 439.082 188.907C439.24 181.502 442.27 174.601 447.618 169.476C452.966 164.35 459.989 161.613 467.394 161.771C474.801 161.928 481.702 164.959 486.827 170.307C491.952 175.654 494.689 182.679 494.531 190.084C494.374 197.489 491.342 204.391 485.995 209.516ZM512.753 180.454C512.333 179.688 511.607 179.624 509.647 179.471C507.226 179.283 504.798 179.18 502.383 178.943C501.941 178.9 501.34 178.491 501.162 178.094C500.008 175.542 499.002 172.923 497.83 170.378C497.49 169.638 497.44 169.177 497.969 168.528C499.836 166.244 501.64 163.908 503.465 161.59C503.761 161.214 504.044 160.828 504.546 160.165C501.338 157.171 498.167 154.208 494.915 151.172C492.196 153.507 489.688 155.588 487.271 157.769C486.419 158.538 485.823 158.725 484.681 158.178C482.347 157.062 479.86 156.269 477.464 155.273C477.098 155.121 476.694 154.622 476.636 154.235C476.196 151.28 475.75 148.32 475.493 145.346C475.368 143.918 474.762 143.456 473.441 143.504C472.934 143.522 472.419 143.359 471.908 143.277C469.61 143.328 467.313 143.38 465.016 143.43C464.768 143.512 464.528 143.634 464.275 143.667C461.629 144.004 462.054 143.788 461.849 146.261C461.601 149.274 461.403 152.291 461.213 154.909C457.747 156.458 454.508 157.908 451.163 159.403C448.306 157.177 445.321 154.85 442.316 152.508C438.735 155.213 435.864 158.437 433.308 162.059C435.62 164.717 437.868 167.315 440.134 169.895C440.541 170.358 440.689 170.694 440.392 171.369C439.227 174.014 438.129 176.692 437.15 179.408C436.868 180.191 436.515 180.393 435.782 180.48C432.755 180.835 429.736 181.261 426.711 181.629C425.96 181.72 425.576 181.96 425.463 182.807C424.955 186.602 425.268 190.351 425.908 194.095C426.035 194.837 426.484 194.935 427.123 194.974C430.078 195.152 433.028 195.403 435.984 195.561C436.836 195.607 437.222 195.842 437.555 196.717C438.705 199.737 440.031 202.689 441.393 205.909C439.358 208.494 437.05 211.426 434.743 214.357C437.497 217.998 440.628 221.039 444.354 223.522C447.256 220.997 450.08 218.541 452.637 216.317C455.621 217.37 458.37 218.419 461.176 219.287C462.237 219.616 462.654 220.079 462.761 221.162C463.044 224.049 463.441 226.926 463.822 229.803C463.897 230.372 463.833 231.119 464.776 231.092C468.61 230.978 472.444 230.868 476.277 230.752C477.092 230.728 477.369 230.295 477.414 229.493C477.58 226.508 477.878 223.529 477.994 220.543C478.039 219.391 478.591 219.036 479.548 218.653C481.912 217.709 484.27 216.712 486.51 215.514C487.476 214.998 487.966 215.049 488.769 215.711C491.346 217.839 494.009 219.867 496.584 221.89C498.946 220.557 504.239 214.919 505.742 212.175C503.492 209.632 501.242 207.036 498.921 204.506C498.34 203.873 498.379 203.438 498.689 202.686C499.689 200.257 500.515 197.758 501.489 195.319C501.654 194.908 502.19 194.43 502.609 194.371C505.277 193.99 507.957 193.702 510.636 193.414C512.134 193.253 512.74 193.194 513.025 192.625L512.753 180.454Z" fill="#67BC93"/>
<path fill-rule="evenodd" clip-rule="evenodd" d="M442.825 107.087V284.344C442.825 296.934 432.614 307.136 420.034 307.136H131.543C118.962 307.136 108.751 296.934 108.751 284.344V107.087C108.751 94.4979 118.962 84.2966 131.543 84.2966H420.034C432.614 84.2966 442.825 94.4979 442.825 107.087Z" fill="#FFFFFE"/>
<path fill-rule="evenodd" clip-rule="evenodd" d="M154.541 280.623H178.583V144.112H154.541V280.623Z" fill="#B2D7AF"/>
<path fill-rule="evenodd" clip-rule="evenodd" d="M154.541 280.623H178.583V246.495H154.541V280.623Z" fill="#67BC93"/>
<path fill-rule="evenodd" clip-rule="evenodd" d="M190.95 280.623H214.992V144.112H190.95V280.623Z" fill="#B2D7AF"/>
<path fill-rule="evenodd" clip-rule="evenodd" d="M190.95 280.623H214.992V229.58H190.95V280.623Z" fill="#67BC93"/>
<path fill-rule="evenodd" clip-rule="evenodd" d="M227.358 280.623H251.4V144.112H227.358V280.623Z" fill="#B2D7AF"/>
<path fill-rule="evenodd" clip-rule="evenodd" d="M227.358 280.623H251.4V195.453H227.358V280.623Z" fill="#2F7630"/>
<path fill-rule="evenodd" clip-rule="evenodd" d="M263.767 280.623H287.809V144.112H263.767V280.623Z" fill="#B2D7AF"/>
<path fill-rule="evenodd" clip-rule="evenodd" d="M263.767 280.623H287.809V212.368H263.767V280.623Z" fill="#67BC93"/>
<path fill-rule="evenodd" clip-rule="evenodd" d="M300.176 280.623H324.218V144.112H300.176V280.623Z" fill="#B2D7AF"/>
<path fill-rule="evenodd" clip-rule="evenodd" d="M300.176 280.623H324.218V178.241H300.176V280.623Z" fill="#2F7630"/>
<path fill-rule="evenodd" clip-rule="evenodd" d="M336.585 280.623H360.627V144.114H336.585V280.623Z" fill="#B2D7AF"/>
<path fill-rule="evenodd" clip-rule="evenodd" d="M372.993 280.623H397.035V144.112H372.993V280.623Z" fill="#B2D7AF"/>
<path fill-rule="evenodd" clip-rule="evenodd" d="M372.993 280.623H397.035V168.363H372.993V280.623Z" fill="#2F7630"/>
<path fill-rule="evenodd" clip-rule="evenodd" d="M442.825 107.087V117.211H108.751V107.087C108.751 94.4979 118.962 84.2966 131.543 84.2966H420.034C432.614 84.2966 442.825 94.4979 442.825 107.087Z" fill="#2F7630"/>
<path d="M411.345 97.0588L420.588 106.303M420.588 97.0588L411.345 106.303M383.613 106.303H369.748M388.235 106.303H397.479V97.0588H388.235V106.303Z" stroke="#FFFFFE" stroke-width="2"/>
<path fill-rule="evenodd" clip-rule="evenodd" d="M98.5552 308.915C98.4662 313.491 95.6278 319.645 94.7721 322.585C94.1034 324.881 93.3411 327.148 92.6324 329.434C91.2023 334.044 93.0036 348.257 86.5191 349.226C77.1382 350.626 83.1989 338.652 83.8531 334.993C84.3014 332.489 84.6562 329.97 84.9447 327.443C85.2233 325.013 85.423 322.576 85.5482 320.133C85.6761 317.613 85.7533 315.105 86.364 312.645C87.4175 308.399 89.6897 301.454 95.6587 303.676C97.8728 304.5 98.6014 306.485 98.5552 308.915Z" fill="#734D2D"/>
<path fill-rule="evenodd" clip-rule="evenodd" d="M89.2305 346.376C89.3476 346.038 89.2142 345.691 89.2269 345.345C89.235 345.1 89.3367 344.889 89.4673 344.686C89.6497 344.407 89.873 344.157 90.0581 343.88C90.216 343.644 90.3303 343.387 90.4709 343.141C90.5444 343.013 90.6443 342.822 90.813 342.803C90.9337 342.789 91.0535 342.881 91.1433 342.948C91.6597 343.34 92.0698 343.869 92.5798 344.276C93.8248 345.27 95.2531 346.061 96.6804 346.759C97.9554 347.384 99.2811 347.835 100.699 347.974C101.54 348.058 102.384 348.067 103.227 348.11C103.7 348.135 104.219 348.153 104.666 348.335C105.237 348.57 105.354 349.114 105.399 349.681C105.429 350.07 105.429 350.459 105.464 350.845C105.488 351.093 105.528 351.349 105.488 351.598C105.441 351.888 105.28 352.123 105.073 352.326C104.098 353.286 102.555 353.749 101.244 353.972C99.8383 354.21 98.3955 354.185 96.9753 354.124C94.8384 354.031 92.7023 353.94 90.5662 353.846C89.1062 353.784 87.638 353.747 86.1779 353.814C84.5491 353.888 82.9103 354.133 81.2797 353.96C80.4267 353.868 79.4349 353.673 78.8705 352.961C78.4113 352.383 78.3287 351.61 78.3687 350.897C78.4131 350.108 78.5919 349.332 78.7516 348.56C78.9186 347.758 79.0828 346.953 79.3033 346.165C79.4331 345.702 79.5692 345.162 79.8741 344.776C79.9494 344.681 80.0574 344.56 80.1871 344.541C80.2988 344.528 80.3732 344.583 80.4512 344.661C80.7733 344.986 80.9811 345.377 81.3405 345.68C82.394 346.566 83.7742 347.193 85.1035 347.525C86.2487 347.813 87.5209 347.823 88.5409 347.15C88.8276 346.962 89.1134 346.708 89.2305 346.376Z" fill="#394B50"/>
<path fill-rule="evenodd" clip-rule="evenodd" d="M95.7975 197.673C95.6832 197.021 95.5344 196.409 95.342 195.869C94.5634 193.684 90.6379 192.826 88.657 193.531C86.7696 194.204 85.4547 195.994 84.844 197.902C84.2333 199.811 84.2206 201.851 84.2134 203.855C83.2098 202.38 81.1871 201.691 79.4912 202.245C79.1554 202.356 80.3632 208.157 80.5837 208.82C81.3659 211.174 79.2725 213.331 80.2861 215.325C80.9938 216.716 82.5383 216.996 83.8921 217.404C85.4874 217.885 86.5709 218.976 88.03 219.478C88.5663 218.338 88.9792 217.145 89.3702 215.949C89.5726 215.333 89.7722 214.715 89.971 214.096C90.1107 213.658 89.8684 213.072 90.5254 213.14C91.451 213.234 93.7386 213.931 94.3211 212.766C95.822 210.59 96.1097 206.513 96.1514 203.963C96.1814 202.165 96.1596 199.724 95.7975 197.673Z" fill="#8A6648"/>
<path fill-rule="evenodd" clip-rule="evenodd" d="M84.5718 308.794C85.403 313.294 83.8549 319.891 83.6054 322.943C83.4112 325.327 83.1181 327.702 82.8822 330.082C82.4049 334.887 87.0182 348.45 80.8595 350.698C71.9496 353.95 75.4876 341.004 75.395 337.288C75.3315 334.745 75.1745 332.206 74.9513 329.673C74.4722 324.239 74.8696 318.781 75.2789 313.357C75.5938 309.187 74.6791 303.305 80.6844 304.24C83.0183 304.603 84.1308 306.404 84.5718 308.794Z" fill="#8A6648"/>
<path fill-rule="evenodd" clip-rule="evenodd" d="M83.2842 346.804C83.3976 346.463 83.2615 346.119 83.2696 345.773C83.2751 345.529 83.3749 345.315 83.5029 345.111C83.6816 344.83 83.9021 344.577 84.0845 344.298C84.2397 344.061 84.3504 343.803 84.4883 343.555C84.56 343.426 84.658 343.234 84.8259 343.213C84.9475 343.198 85.0682 343.287 85.158 343.355C85.6798 343.74 86.0954 344.264 86.6099 344.666C87.8666 345.646 89.304 346.419 90.7386 347.101C92.0208 347.711 93.352 348.148 94.7721 348.271C95.6124 348.344 96.4581 348.344 97.3002 348.377C97.7748 348.397 98.2938 348.409 98.7421 348.586C99.3165 348.814 99.439 349.357 99.4898 349.924C99.5252 350.311 99.5288 350.699 99.5697 351.087C99.5951 351.334 99.6377 351.589 99.6005 351.839C99.5579 352.129 99.3991 352.366 99.1949 352.572C98.2312 353.543 96.694 354.023 95.3855 354.261C93.9827 354.516 92.539 354.507 91.1179 354.461C88.981 354.394 86.8431 354.326 84.7061 354.258C83.246 354.212 81.7778 354.193 80.3187 354.276C78.6908 354.369 77.0538 354.633 75.4223 354.478C74.5675 354.397 73.5738 354.212 73.0013 353.508C72.5358 352.934 72.4441 352.163 72.4759 351.449C72.5113 350.659 72.6809 349.882 72.8325 349.108C72.9895 348.305 73.1446 347.498 73.357 346.707C73.4804 346.242 73.611 345.7 73.9114 345.311C73.9849 345.216 74.092 345.092 74.2217 345.073C74.3334 345.058 74.4087 345.112 74.4867 345.189C74.8125 345.511 75.0248 345.9 75.3878 346.198C76.4522 347.071 77.8378 347.683 79.1717 348.001C80.3196 348.274 81.5918 348.271 82.6045 347.587C82.8894 347.394 83.1725 347.137 83.2842 346.804Z" fill="#485D63"/>
<path fill-rule="evenodd" clip-rule="evenodd" d="M88.9837 265.571C94.1605 267.952 95.4981 273.999 97.2249 278.882C99.2602 284.64 100.673 290.716 101.626 296.758C102.319 301.151 103.805 304.414 103.323 308.988C102.864 313.359 101.576 317.595 100.152 321.734C99.5061 323.614 91.9446 346.933 93.6487 346.971C90.1116 346.892 86.5745 346.814 83.0374 346.735C83.9021 336.207 84.7669 325.678 85.6308 315.151C86.0346 310.24 87.1108 305.436 85.3966 300.743C83.825 296.436 81.6907 292.336 79.0692 288.574C76.3642 284.693 72.9813 280.9 72.3316 276.032C71.6764 271.133 75.9994 267.955 80.1636 265.987C82.9112 264.688 86.2215 264.301 88.9837 265.571Z" fill="#E16338"/>
<path fill-rule="evenodd" clip-rule="evenodd" d="M92.2767 267.73C96.097 271.957 94.9445 278.042 94.607 283.211C94.2095 289.306 93.1152 295.446 91.6116 301.375C87.6543 317.088 86.6743 334.428 86.0908 350.569C81.8604 349.449 77.4739 348.923 73.0993 349.011C72.0303 336.271 72.3525 323.415 74.0484 310.743C75.5538 299.487 75.9967 288.48 71.9904 277.544C71.0803 275.061 70.0041 272.2 71.3334 269.913C72.1646 268.482 73.7463 267.686 75.2617 267.021C78.0456 265.803 80.9675 264.749 84.0047 264.638C87.0427 264.526 90.2377 265.474 92.2767 267.73Z" fill="#E98750"/>
<path fill-rule="evenodd" clip-rule="evenodd" d="M89.3884 286.313C93.3157 284.29 93.8139 277.436 91.8929 273.709C89.8357 269.718 85.7279 270.78 81.9602 269.818C82.4983 273.223 82.3223 286.703 86.6117 286.885C87.6797 286.929 88.6026 286.719 89.3884 286.313Z" fill="#E16338"/>
<path fill-rule="evenodd" clip-rule="evenodd" d="M92.3348 225.319C91.0862 224.679 89.8684 223.977 88.6897 223.215C87.6117 222.518 86.2179 221.756 85.1426 222.456C84.4575 222.903 84.2179 223.775 84.0301 224.57C83.6571 226.152 83.2914 227.855 83.8994 229.363C84.786 231.563 87.3394 232.489 89.6125 233.169C93.3393 234.284 97.1505 236.341 100.942 234.823C103.62 233.973 106.19 232.819 108.721 231.607C114.854 228.67 124.088 221.089 128.772 226.336C128.464 223.917 128.77 221.3 126.32 220.015C124.455 219.036 121.972 219.454 120.408 220.803C118.102 222.79 115.028 223.671 112.149 224.448C109.747 225.097 107.336 225.716 104.91 226.267C103.223 226.651 100.791 227.764 99.1096 227.783C98.214 227.793 97.3447 227.497 96.508 227.177C95.0843 226.636 93.6905 226.014 92.3348 225.319Z" fill="#8A6648"/>
<path fill-rule="evenodd" clip-rule="evenodd" d="M94.274 235.773L98.557 226.364L90.0181 219.996C90.0181 219.996 84.7778 224.684 84.9765 225.206C85.1734 225.729 94.274 235.773 94.274 235.773Z" fill="#30688B"/>
<path fill-rule="evenodd" clip-rule="evenodd" d="M79.9576 214.162C79.5202 214.55 79.0138 214.883 78.6037 215.297C78.2371 215.669 77.9576 216.084 77.5456 216.41C76.9939 216.845 76.4141 217.224 75.9649 217.77C75.533 218.295 75.2353 218.9 74.9613 219.518C74.6265 220.27 74.2571 220.938 73.7844 221.612C72.8869 222.894 72.4368 224.35 71.994 225.835C71.5367 227.365 71.2581 228.847 71.2563 230.449C71.2536 232.021 71.4087 233.587 71.5929 235.147C71.7998 236.899 72.033 238.646 72.1102 240.408C72.181 242.021 72.141 243.63 72.0312 245.24C71.9124 246.974 71.7154 248.649 72.0793 250.367C72.416 251.959 72.8633 253.502 73.0403 255.126C73.0984 255.659 73.171 256.209 73.0729 256.741C72.9441 257.443 72.6247 258.121 72.3779 258.784C71.8316 260.248 71.4804 261.758 71.2381 263.3C70.9677 265.017 70.8235 266.742 70.6973 268.473C70.6438 269.211 70.6147 269.954 70.426 270.672C70.3071 271.125 70.0295 271.626 70.0467 272.105C70.0639 272.605 70.8107 272.621 71.1619 272.667C72.8824 272.895 74.5911 273.137 76.3052 273.411C77.1001 273.538 77.8932 273.677 78.6908 273.788C79.0683 273.842 79.4485 273.866 79.8278 273.91C80.0038 273.93 80.1862 273.965 80.3641 273.942C80.9539 273.867 81.159 273.091 81.3141 272.628C81.5746 271.857 81.7878 271.057 82.1245 270.312C82.1907 270.164 82.3014 269.839 82.4784 269.775C82.6009 269.731 82.6698 269.816 82.7352 269.911C83.0101 270.317 83.0655 270.852 83.2733 271.293C83.55 271.878 84.1353 271.664 84.7143 271.685L90.7286 272.245C91.2277 272.317 91.7268 272.39 92.2232 272.475C93.1025 272.624 94.0253 272.918 94.9228 272.902C95.1024 272.9 95.3111 272.881 95.4082 272.708C95.5607 272.435 95.4046 271.957 95.3483 271.693C95.1278 270.656 94.9645 269.641 95.0099 268.577C95.0534 267.556 95.273 266.558 95.4663 265.558C95.6559 264.581 95.8129 263.599 95.9164 262.609C96.1414 260.46 96.165 258.286 96.1605 256.127C96.1568 254.052 96.0888 251.981 95.9908 249.909C95.8837 247.653 95.8293 245.397 95.7431 243.14C95.6596 240.957 95.5153 238.777 95.2649 236.606C95.0226 234.505 94.6932 232.406 94.2204 230.344C93.979 229.292 93.656 228.274 93.3075 227.255C92.9727 226.274 92.7685 225.285 92.5471 224.276C92.3938 223.575 92.1932 222.881 91.7894 222.279C91.5172 221.874 91.1778 221.523 90.8684 221.148C90.5653 220.779 90.2994 220.381 90.0181 219.996L79.9576 214.162Z" fill="#4787AD"/>
<path fill-rule="evenodd" clip-rule="evenodd" d="M85.3304 264.316C82.7933 259.238 80.7969 253.893 79.3777 248.397C78.7507 245.971 78.6182 243.375 78.0402 241.001C77.7607 239.853 75.8179 236.714 76.0547 235.773C73.1319 247.435 73.3933 258.341 80.6663 268.275C81.7098 269.702 83.4176 271.181 85.0337 270.466C86.0908 269.999 86.5817 268.713 86.4892 267.56C86.3957 266.409 85.8467 265.351 85.3304 264.316Z" fill="#30688B"/>
<path fill-rule="evenodd" clip-rule="evenodd" d="M82.6154 252.156C82.1889 246.3 81.7624 240.442 81.335 234.587C81.1853 232.529 81.0465 230.393 81.7905 228.469C85.413 219.11 88.7958 232.508 88.735 236.021C88.6833 239.018 88.1153 242.007 87.0436 244.805C86.4474 246.362 82.5292 250.974 82.6154 252.156Z" fill="#30688B"/>
<path fill-rule="evenodd" clip-rule="evenodd" d="M79.4848 214.072C79.6236 212.852 79.9213 211.553 80.6726 211.49C81.58 211.415 82.58 211.733 83.3368 212.223C83.9938 212.65 84.57 213.213 85.1562 213.728C85.7179 214.222 86.2696 214.728 86.7895 215.267C87.6806 216.189 88.422 217.239 89.2949 218.176C90.4337 219.397 90.559 219.44 90.0399 221.089C86.4738 219.367 82.9076 217.644 79.3423 215.922C79.375 215.534 79.4004 214.818 79.4848 214.072Z" fill="#4787AD"/>
<path fill-rule="evenodd" clip-rule="evenodd" d="M84.4057 241.461C84.6843 239.155 85.1444 236.815 84.1979 234.589C83.4902 232.924 81.9602 231.532 80.1599 231.362C79.0601 231.258 77.9512 231.609 77.013 232.191C74.1301 233.978 73.416 237.566 73.8134 240.703C74.3343 244.825 75.0012 249.147 76.2607 253.111C77.2589 256.255 78.6137 259.272 80.0365 262.244C83.4847 269.443 89.8339 277.44 86.2251 285.78C89.0635 285.418 92.1361 285.777 93.6442 282.901C94.7939 280.712 94.303 277.798 92.7195 275.961C90.3856 273.255 89.3521 269.647 88.4401 266.267C87.3784 262.334 86.3866 258.388 85.5754 254.394C85.1852 252.468 84.1834 250.533 83.786 248.541C83.3078 246.143 84.1181 243.838 84.4057 241.461Z" fill="#8A6648"/>
<path fill-rule="evenodd" clip-rule="evenodd" d="M87.2251 227.797C87.0881 228.138 86.9492 228.479 86.814 228.821C86.6199 229.309 86.4865 229.841 86.2197 230.296C86.0609 230.567 85.8231 230.78 85.6671 231.053C85.1262 231.997 85.0409 233.247 85.0128 234.308C84.9947 235.019 85.0409 235.729 85.0391 236.439C85.0391 236.647 85.0727 236.992 84.9339 237.173C84.8685 237.259 84.7959 237.274 84.6916 237.27C84.2406 237.251 83.7542 236.932 83.3468 236.77C82.0991 236.271 80.7779 236.01 79.4512 235.817C78.0846 235.618 76.6899 235.446 75.307 235.444C74.7943 235.443 74.2653 235.462 73.768 235.603C73.5593 235.663 73.2553 235.875 73.0303 235.831C72.6256 235.753 72.9114 234.69 72.9414 234.469C73.1328 233.065 73.2372 231.673 73.1864 230.254C73.1592 229.522 73.0711 228.793 73.0757 228.06C73.0802 227.399 73.1827 226.749 73.3161 226.104C74.1265 222.178 78.2271 219.283 82.2134 219.705C86.1997 220.126 88.7214 224.079 87.2251 227.797Z" fill="#4787AD"/>
<path fill-rule="evenodd" clip-rule="evenodd" d="M91.8693 192.235C90.931 191.691 89.9374 191.307 88.8503 191.218C86.7079 191.044 84.3359 191.469 82.4557 192.525C80.6118 193.561 78.845 195.258 78.3133 197.361C77.7979 199.402 77.6128 201.881 77.9422 203.965C78.3178 206.333 79.7643 208.285 80.7397 210.418C81.2787 210.287 81.5238 209.675 81.6871 209.144C81.8296 208.681 81.9738 208.189 81.8504 207.72C81.7443 207.312 81.4503 206.983 81.2388 206.619C80.7815 205.83 80.4721 203.431 81.8976 203.339C83.1916 203.256 83.3812 205.661 83.6063 206.554C83.7515 207.13 84.2678 207.707 84.8467 207.573C85.3013 207.468 85.5618 206.959 85.5636 206.493C85.5654 206.026 85.3767 205.583 85.2324 205.139C84.8195 203.86 84.1072 201.6 85.2778 200.607C85.8721 200.103 86.6471 199.737 86.9665 199.026C87.5509 197.723 86.8494 196.101 87.9093 194.919C89.382 193.279 90.9682 194.391 92.578 194.937C93.3783 195.208 94.5316 194.919 94.5979 194.076C94.6977 192.803 92.6624 192.695 91.8693 192.235Z" fill="#403026"/>
<path fill-rule="evenodd" clip-rule="evenodd" d="M446.195 204.328C447.802 204.044 449.227 203.293 450.902 203.202C452.57 203.113 454.315 203.5 455.617 204.551C456.917 205.602 457.682 207.382 457.267 209.002C458.392 209.261 458.653 209.592 459.053 210.697C459.857 212.913 459.025 215.352 458.198 217.56C457.508 219.403 456.82 221.247 456.126 223.089C455.832 223.872 455.742 224.113 454.922 224.304C454.082 224.499 453.142 224.58 452.302 224.353C451.419 224.114 450.645 223.668 450.378 222.782C450.049 221.688 449.584 220.628 448.193 220.781C447.022 220.912 446.148 222.07 444.972 222.15C444.046 222.214 443.19 221.554 442.74 220.741C442.291 219.927 442.166 218.98 442.048 218.058C441.868 216.658 441.689 215.257 441.511 213.856C441.304 212.239 441.719 209.89 440.242 208.773C439.74 208.393 439.143 208.134 438.704 207.682C438.267 207.229 438.037 206.467 438.429 205.975C439.272 206.582 440.432 206.123 441.388 205.717C441.544 205.651 441.702 205.584 441.864 205.52C443.296 204.943 444.698 204.592 446.195 204.328Z" fill="#E98750"/>
<path fill-rule="evenodd" clip-rule="evenodd" d="M436.875 220.351C437.017 220.677 437.262 220.959 437.579 221.122C438.211 221.452 439.064 221.275 439.514 220.722C439.621 220.136 440.673 215.687 438.952 216.12C438.483 216.24 436.928 218.815 436.79 219.309C436.694 219.653 436.733 220.024 436.875 220.351Z" fill="#EA8A6B"/>
<path fill-rule="evenodd" clip-rule="evenodd" d="M455.653 227.574C454.101 227.962 452.549 228.35 450.997 228.738C449.771 229.046 448.618 229.474 447.412 229.794C446.737 229.973 446.76 229.809 446.232 229.362C445.348 228.617 444.315 228.235 443.196 227.985C442.185 227.76 440.522 228.013 439.634 227.471C438.383 226.707 438.353 225.298 438.229 223.971C437.805 219.444 437.532 214.384 439.82 210.277C440.058 209.849 440.375 208.931 440.976 208.99C441.315 209.024 441.597 209.255 441.855 209.475C442.658 210.161 443.822 211.24 443.249 212.401C442.775 213.363 442.243 213.955 442.825 215.125C443.321 216.12 443.914 216.918 443.777 218.071C443.688 218.816 443.087 219.914 443.837 220.483C444.273 220.816 445.135 221.289 445.619 220.81C445.927 220.507 446.022 219.974 446.12 219.578C446.29 218.893 446.407 218.145 446.753 217.52C447.084 216.92 447.965 216.436 448.652 216.47C449.256 216.501 449.51 217.209 449.637 217.704C449.824 218.436 449.522 219.072 449.598 219.782C449.677 220.522 450.065 221.384 450.568 221.926C451.4 222.821 452.699 223.049 453.884 223.342C454.272 223.437 454.67 223.551 454.977 223.808C455.514 224.258 455.273 224.7 455.266 225.266C455.256 226.003 455.531 226.844 455.653 227.574Z" fill="#F2B37C"/>
<path fill-rule="evenodd" clip-rule="evenodd" d="M439.634 227.471L448.662 227.067L447.966 229.497L439.634 227.471Z" fill="#EA8A6B"/>
<path fill-rule="evenodd" clip-rule="evenodd" d="M460.253 229.221C459.938 229.398 459.355 229.287 459.014 229.309C458.169 229.362 457.326 229.453 456.484 229.538C454.917 229.695 453.336 229.854 451.808 230.245C450.486 230.584 449.324 231.311 448.024 231.68C447.458 231.841 446.625 231.907 446.176 231.434C445.733 230.969 446.334 230.366 446.667 230.042C447.689 229.044 448.953 228.272 450.166 227.531C451.459 226.744 452.795 225.965 454.248 225.513C455.107 225.246 456.096 225.014 457.001 225.161C457.87 225.302 458.403 226.122 458.929 226.749C459.354 227.255 459.783 227.774 460.127 228.339C460.244 228.532 460.433 228.805 460.407 229.048C460.39 229.143 460.332 229.178 460.253 229.221Z" fill="#FFFFFE"/>
<path fill-rule="evenodd" clip-rule="evenodd" d="M460.015 366.651C461.035 370.37 455.891 372.374 453.071 373.123C451.274 373.601 447.567 372.959 446.532 374.831C446.262 375.319 446.23 375.928 446.435 376.447C446.911 377.654 448.151 377.634 449.225 377.857C453.863 378.817 460.632 379.61 464.799 376.758C464.985 377.342 465.003 377.969 464.883 378.57H470.208C470.292 378.57 470.376 378.564 470.46 378.563C470.502 376.581 470.764 374.744 470.533 372.749C470.35 371.173 469.971 369.601 469.873 368.016C466.587 367.559 463.301 367.102 460.015 366.651Z" fill="#394B50"/>
<path fill-rule="evenodd" clip-rule="evenodd" d="M470.196 298.885C470.045 296.726 471.089 293.854 470.329 291.915C469.242 289.143 465.194 288.506 462.66 288.318C459.811 288.105 456.831 288.224 454.281 289.515C449.588 291.888 447.537 297.756 448.069 302.988C448.688 309.061 452.665 313.658 454 319.372C454.629 322.064 455.677 324.658 456.205 327.371C456.374 328.243 456.442 329.197 456.871 329.995C457.252 330.701 457.939 331.153 458.459 331.745C459.596 333.038 459.169 334.95 459.633 336.505C459.988 337.695 460.388 338.839 460.576 340.072C460.777 341.399 460.869 342.745 460.938 344.084C461.083 346.914 461.123 349.75 461.321 352.579C461.511 355.276 461.88 357.938 460.939 360.537C460.719 361.146 460.466 361.75 460.318 362.382C460.057 363.506 460.189 364.672 459.932 365.769C459.548 367.409 458.596 369.087 457.967 370.654C461.482 371.588 465.082 372.205 468.708 372.491C469.489 372.553 470.358 372.573 470.952 372.064C472.282 370.928 471.105 368.019 471.352 366.476C471.506 365.508 471.897 364.601 471.971 363.62C472.078 362.207 471.958 360.767 471.908 359.354C471.741 354.675 473.039 350.258 473.116 345.567C473.251 337.274 472.004 329.008 471.889 320.679C471.801 314.224 470.954 307.907 470.404 301.518C470.329 300.641 470.258 299.764 470.196 298.885Z" fill="#30688B"/>
<path fill-rule="evenodd" clip-rule="evenodd" d="M435.799 365.419C436.964 369.665 431.092 371.951 427.876 372.806C425.823 373.35 421.593 372.619 420.411 374.756C420.104 375.312 420.066 376.008 420.301 376.6C420.843 377.978 422.26 377.955 423.485 378.209C428.78 379.304 436.503 380.21 441.259 376.955C441.472 377.621 441.492 378.337 441.355 379.023H447.432C447.53 379.023 447.625 379.017 447.721 379.014C447.768 376.752 448.068 374.657 447.804 372.379C447.596 370.579 447.162 368.787 447.05 366.977C443.3 366.457 439.549 365.935 435.799 365.419Z" fill="#485D63"/>
<path fill-rule="evenodd" clip-rule="evenodd" d="M459.985 303.485C462.009 299.01 463.837 294.497 464.734 289.728C459.118 288.658 453.424 288.006 447.712 287.78C445.533 287.694 443.235 287.698 441.331 288.761C438.14 290.542 438.953 294.262 438.548 297.32C435.851 317.717 432.73 338.156 432.915 358.785C432.934 360.878 432.974 362.973 433.073 365.063C433.158 366.872 432.647 368.44 432.181 370.212C437.246 371.603 442.619 370.85 447.5 372.419C447.204 372.322 448.196 366.081 448.21 365.321C448.258 362.577 447.777 359.901 448.067 357.138C449.269 345.687 449.73 334.074 452.323 322.819C453.882 316.045 457.128 309.805 459.985 303.485Z" fill="#4787AD"/>
<path fill-rule="evenodd" clip-rule="evenodd" d="M438.548 297.32L437.927 304.051L460.409 300.074L470.196 298.885L466.461 279.843L438.548 297.32Z" fill="#30688B"/>
<path fill-rule="evenodd" clip-rule="evenodd" d="M438.086 250.497C437.667 255.428 438.143 260.354 438.752 265.246C439.89 274.392 439.647 284.828 438.278 293.804C437.991 295.694 438.199 297.965 439.807 298.999C440.943 299.728 442.406 299.592 443.746 299.43C448.833 298.815 453.919 298.199 459.005 297.582C462.673 297.138 466.516 296.628 469.516 294.473C475.413 290.239 471.751 284.608 471.069 279.006C470.555 274.788 470.343 270.539 469.705 266.337C468.627 259.244 469.915 252.008 468.581 244.878C468.057 242.075 467.939 238.74 466.873 236.088C465.156 231.822 461.888 227.204 457.084 227.476C452.573 227.734 448.21 229.941 445.111 233.189C440.728 237.782 438.624 244.173 438.086 250.497Z" fill="#4787AD"/>
<path fill-rule="evenodd" clip-rule="evenodd" d="M441.566 280.424C440.767 281.15 439.755 281.419 439.169 282.323C438.494 283.362 438.261 285.294 437.87 286.497C437.668 287.124 437.567 288.002 438.172 288.261C438.76 288.513 439.326 287.876 439.628 287.312C439.929 286.749 440.395 286.072 441.02 286.206C440.492 286.656 439.93 287.163 439.809 287.847C439.244 291.047 443.355 286.901 443.842 286.594C445.222 285.722 446.798 285.414 447.92 284.109C449.769 281.957 449.778 278.016 446.178 278.016C445.276 277.999 444.392 278.235 443.521 278.468L441.566 280.424Z" fill="#F2B37C"/>
<path fill-rule="evenodd" clip-rule="evenodd" d="M438.813 261.348L451.973 243.091L446.019 266.025L439.828 271.556L438.813 261.348Z" fill="#30688B"/>
<path fill-rule="evenodd" clip-rule="evenodd" d="M439.775 278.566C438.236 281.087 441.38 284.117 443.838 283.585C445.713 283.178 448.149 281.233 448.539 279.245C448.926 277.263 446.607 275.15 445.313 273.845C443.56 274.983 441.975 276.587 440.366 277.946C439.922 278.322 439.45 278.739 439.325 279.308C439.198 279.875 439.638 280.588 440.212 280.492" fill="#FFFFFE"/>
<path fill-rule="evenodd" clip-rule="evenodd" d="M440.565 237.682C436.729 244.5 430.377 250.693 429.036 258.671C428.274 263.205 429.811 266.549 432.233 270.266C434.614 273.919 436.211 278.08 438.659 281.792C442.003 281.382 445.916 280.573 447.289 277.495C448.275 275.287 447.516 272.701 446.48 270.515C444.741 266.846 441.182 262.764 442.03 258.551C442.73 255.072 445.571 251.998 447.658 249.276C451.558 244.189 457.729 236.891 450.587 231.648C447.344 229.267 444.335 232.058 442.276 234.952C441.593 235.912 441.013 236.884 440.565 237.682Z" fill="#4787AD"/>
<path fill-rule="evenodd" clip-rule="evenodd" d="M140.863 367.933C141.146 368.308 141.433 368.71 141.754 369.124C142.49 370.074 143.593 370.899 144.773 371.197C146.102 371.534 146.286 371.761 147.305 372.763C143.135 373.841 138.782 374.208 134.49 373.84C132.757 373.693 131.054 373.268 131.451 371.155C131.622 370.246 131.793 369.336 131.964 368.427C132.093 367.739 132.222 367.049 132.352 366.361C132.513 365.505 136.411 365.611 137.066 365.641C139.018 365.732 139.917 366.681 140.863 367.933Z" fill="#F2B37C"/>
<path fill-rule="evenodd" clip-rule="evenodd" d="M138.298 376.118C141.146 376.118 143.95 376.102 146.788 375.884C147.593 375.033 147.022 373.527 146.022 372.917C145.022 372.309 143.787 372.296 142.625 372.153C140.607 371.905 138.646 371.208 136.925 370.125C135.949 369.512 135.018 368.763 133.897 368.491C130.652 367.703 130.819 371.286 130.923 373.452C130.954 374.095 130.961 374.953 131.442 375.459C132.011 376.058 133.085 376.068 133.84 376.102C135.323 376.167 136.815 376.122 138.298 376.118Z" fill="#394B50"/>
<path fill-rule="evenodd" clip-rule="evenodd" d="M131.429 365.809C131.563 366.654 131.253 367.464 131.235 368.306C131.229 368.572 131.24 368.905 131.468 369.086C131.849 369.389 132.589 369.205 133.002 369.163C134.386 369.026 135.776 369.213 137.161 369.1C138.421 368.996 139.742 368.673 140.851 368.05C142.511 367.119 140.087 354.06 140.076 351.461C140.057 346.388 139.964 340.697 140.657 335.436C141.443 329.463 144.233 324.194 145.825 318.486C147.644 311.963 148.237 304.841 149.392 298.165C149.775 295.952 150.156 293.671 149.67 291.479C148.489 286.149 139.855 285.053 136.023 288.368C134.035 290.086 133.734 293.005 133.573 295.629C132.97 305.422 133.015 315.332 131.745 325.036C129.979 338.527 129.304 352.315 131.429 365.809Z" fill="#66A2C5"/>
<path fill-rule="evenodd" clip-rule="evenodd" d="M153.356 367.164C154.596 368.533 155.65 370.108 157.207 371.138C157.965 371.638 158.135 372.127 158.783 372.763C154.612 373.841 150.258 374.208 145.966 373.84C144.728 373.735 143.343 373.479 142.65 372.447C141.978 371.445 142.228 370.11 142.506 368.935C142.756 367.879 143.093 366.701 144.045 366.18C144.492 365.936 145.013 365.877 145.521 365.842C148.145 365.663 151.59 365.214 153.356 367.164Z" fill="#F2B37C"/>
<path fill-rule="evenodd" clip-rule="evenodd" d="M156.963 296.523C156.803 295.544 156.634 294.565 156.45 293.591C155.475 288.419 153.395 282.522 148.367 280.965C145.56 280.096 142.461 280.883 139.903 282.331C137.083 283.927 134.547 286.781 134.865 290.006C135.165 293.055 137.645 294.792 139.276 297.112C141.661 300.507 142.377 304.588 143.672 308.446C144.86 311.986 147.092 315.329 147.712 319.045C148.334 322.777 147.084 326.005 146.326 329.672C145.482 333.759 139.807 367.351 143.63 368.164C146.743 368.825 149.699 366.243 152.912 366.503C152.454 360.459 151.954 353.293 153.171 347.276C154.576 340.33 157.057 333.581 158.63 326.659C159.772 321.952 159.305 317.023 158.832 312.203C158.319 306.963 157.804 301.718 156.963 296.523Z" fill="#6BC5D6"/>
<path fill-rule="evenodd" clip-rule="evenodd" d="M145.856 291.063C149.832 291.741 153.294 294.085 156.617 296.37C155.339 290.873 154.061 285.375 152.783 279.878C152.711 279.571 139.127 277.947 138.111 278.451C134.759 280.119 134.375 288.302 133.691 291.888C137.717 292.303 141.814 290.373 145.856 291.063Z" fill="#66A2C5"/>
<path fill-rule="evenodd" clip-rule="evenodd" d="M155.086 215.663L156.633 218.586C157.02 219.315 156.49 220.197 155.664 220.197H154.209L155.086 215.663Z" fill="#EA8A6B"/>
<path fill-rule="evenodd" clip-rule="evenodd" d="M155.407 214.595C155.512 212.347 155.921 208.648 153.986 206.97C152.252 205.466 149.096 205.999 147.341 207.093C145.364 208.327 144.056 210.434 143.336 212.651C142.616 214.867 142.423 217.215 142.234 219.538C141.923 223.369 141.611 227.199 141.301 231.029C141.363 230.258 147.089 233.891 147.501 234.351C148.303 233.731 149.658 233.938 150.679 233.888C149.724 231.831 149.845 229.424 150.285 227.211C150.359 226.844 150.463 226.454 150.75 226.216C151.129 225.898 151.681 225.954 152.171 225.892C156.336 225.368 155.285 217.201 155.407 214.595Z" fill="#F2B37C"/>
<path fill-rule="evenodd" clip-rule="evenodd" d="M156.612 239.467C156.711 239.79 156.807 240.114 156.901 240.442C157.818 243.616 158.342 246.882 158.877 250.135C159.097 251.476 159.072 253.374 159.663 254.601C160.094 255.497 161.113 255.903 161.505 256.83C161.839 257.62 161.84 258.494 161.191 259.126L156.434 267.35C156.771 268.243 157.074 269.148 157.344 270.065C157.84 271.745 158.252 273.537 157.958 275.293C157.842 275.984 157.525 276.623 157.43 277.317C157.313 278.189 157.427 279.083 157.407 279.959C157.391 280.665 157.226 281.271 157.012 281.939C156.871 282.383 156.803 282.811 156.819 283.278C156.848 284.177 157.042 285.066 157.146 285.957C157.273 287.051 157.364 288.15 157.519 289.239C157.611 289.887 157.816 290.602 157.743 291.263C157.725 291.424 157.688 291.599 157.554 291.703C157.376 291.843 157.101 291.806 156.898 291.767C156.14 291.623 155.452 291.196 154.762 290.874C154.17 290.598 153.569 290.328 153.081 289.885C152.579 289.428 152.242 288.824 151.883 288.257C151.28 287.305 150.664 286.595 149.511 286.388C148.686 286.24 147.835 286.275 147.001 286.196C146.409 286.14 145.716 285.97 145.118 286.102C144.931 286.143 144.82 286.221 144.694 286.363C144.399 286.695 144.133 286.845 143.694 286.96C142.773 287.203 141.816 287.294 140.885 287.486C139.996 287.669 139.128 287.929 138.265 288.203C137.268 288.521 136.271 288.888 135.241 289.092C134.838 289.171 134.396 289.24 133.985 289.156C133.265 289.009 133.143 288.328 133.102 287.687C133.044 286.78 133.056 285.868 132.995 284.96C132.923 283.869 132.827 282.776 132.806 281.683C132.768 279.724 133.238 277.845 133.456 275.91C133.689 273.839 133.739 271.747 133.885 269.668C133.953 268.705 134.048 267.742 134.211 266.791C134.378 265.81 134.625 264.847 134.812 263.871C135.507 260.221 135.096 256.783 134.598 253.19C134.066 249.355 135.647 244.62 136.249 240.809C136.847 237.019 137.727 232.778 140.949 230.695C144.521 228.387 148.525 230.458 151.766 232.327C154.578 233.949 155.72 236.565 156.612 239.467Z" fill="#E98750"/>
<path fill-rule="evenodd" clip-rule="evenodd" d="M142.791 243.119C143.057 250.23 143.355 257.504 146.012 264.106C146.843 266.17 147.959 268.218 149.766 269.519C151.572 270.819 154.209 271.176 156 269.853C156.513 269.475 151.054 255.767 150.45 254.392C148.618 250.223 145.467 246.867 142.791 243.119Z" fill="#E16338"/>
<path fill-rule="evenodd" clip-rule="evenodd" d="M142.356 375.795C142.784 375.983 143.316 376.057 143.905 376.072C148.316 376.19 152.789 376.173 157.202 376.126C158.558 376.112 159.92 376.104 161.27 375.978C161.845 375.924 162.512 375.853 162.986 375.482C163.702 374.919 163.654 373.898 163.037 373.285C162.168 372.42 158.459 370.466 157.24 371.182C157.078 371.276 156.954 371.424 156.812 371.546C156.462 371.845 156.007 371.982 155.56 372.093C153.319 372.647 151.006 372.662 148.737 372.272C147.32 372.027 146.449 372.112 145.244 371.326C144.816 371.047 142.139 369.526 142.375 368.849C141.785 370.54 141.322 372.182 141.316 373.993C141.313 374.974 141.716 375.512 142.356 375.795Z" fill="#485D63"/>
<path fill-rule="evenodd" clip-rule="evenodd" d="M136.043 249.498C132.947 247.352 131.122 243.326 131.07 239.457C130.971 232.005 137.183 226.598 136.102 219.145C135.711 216.458 135.198 213.999 135.768 211.247C136.238 208.977 137.254 206.671 138.722 204.868C140.07 203.217 141.943 202.36 144.028 202.064C146.966 201.646 149.59 202.408 152.4 203.074C154.745 203.629 157.131 203.82 157.706 206.756C158.043 208.472 157.237 210.354 155.764 211.296C155.506 210.49 155.247 209.683 154.989 208.876C154.096 209.954 153.577 210.618 152.346 211.18C151.439 211.593 150.54 211.553 149.886 212.439C148.156 214.784 148.537 217.301 149.243 219.882C149.942 222.439 150.962 224.992 150.794 227.637C150.61 230.495 149.052 233.084 147.25 235.307C145.448 237.53 143.355 239.528 141.785 241.921C140.246 244.999 139.415 247.357 138.816 250.784C137.806 250.519 136.877 250.077 136.043 249.498Z" fill="#4787AD"/>
<path fill-rule="evenodd" clip-rule="evenodd" d="M160.139 244.569L150.033 249.791L152.253 253.589L160.139 247.416V244.569Z" fill="#F2B37C"/>
<path fill-rule="evenodd" clip-rule="evenodd" d="M159.62 245.957C159.62 245.957 161.851 239.741 162.745 239.294C163.639 238.848 167.659 237.731 167.659 237.731L159.62 245.957Z" fill="#F2B37C"/>
<path fill-rule="evenodd" clip-rule="evenodd" d="M155.431 250.546L171.941 232.455L189.089 240.075L172.283 258.482L155.431 250.546Z" fill="#27436F"/>
<path fill-rule="evenodd" clip-rule="evenodd" d="M159.62 249.283L172.26 235.346L185.14 241.069L172.277 255.243L159.62 249.283Z" fill="#FFFFFE"/>
<path fill-rule="evenodd" clip-rule="evenodd" d="M180.059 247.416L167.659 233.508C167.659 233.508 168.357 232.455 168.608 232.455C168.859 232.455 180.752 246.358 180.752 246.358L180.963 247.695L180.059 247.416Z" fill="#DA8AB0"/>
<path fill-rule="evenodd" clip-rule="evenodd" d="M155.822 258.476C158.038 257.115 160.077 255.386 162.31 254.085C164.752 252.66 167.166 251.761 169.318 249.808C170.239 248.973 171.112 248.014 171.492 246.83C172.218 244.565 171.136 241.888 172.611 239.795C173.891 237.978 176.531 237.645 178.537 236.976C179.18 237.859 179.223 239.135 178.642 240.06C178.596 240.134 180.161 242.994 180.053 243.802C179.932 244.72 178.232 247.174 177.646 245.13C178.076 246.632 174.533 251.24 173.69 252.298C171.443 255.12 169.142 257.906 166.598 260.469C161.835 265.268 156.571 267.741 152.253 260.553C153.441 259.901 154.633 259.207 155.822 258.476Z" fill="#F2B37C"/>
<path fill-rule="evenodd" clip-rule="evenodd" d="M154.421 242.41C153.598 240.057 152.895 236.201 149.992 235.747C148.666 235.539 147.305 235.955 146.138 236.62C143.941 237.869 142.284 240.033 141.651 242.48C141.127 244.504 141.119 247.634 142.589 249.303C143.131 249.919 143.96 250.092 144.448 250.837C144.984 251.652 144.893 252.647 145.237 253.53C145.475 254.138 145.933 254.597 146.374 255.062C146.657 255.362 146.894 255.674 147.105 256.028C147.237 256.252 147.374 256.473 147.571 256.649C148.071 257.095 148.812 257.199 149.243 257.732C149.435 257.97 149.547 258.259 149.695 258.523C149.913 258.914 150.199 259.261 150.423 259.647C150.858 260.394 151.318 261.747 152.419 261.452C154.366 260.932 155.372 259.031 156.965 257.986C157.493 257.64 158.274 257.299 158.599 256.709C158.837 256.277 158.72 255.738 158.575 255.295C158.342 254.587 157.922 254.172 157.404 253.664C156.858 253.127 156.423 252.406 156.102 251.716C155.692 250.837 155.576 249.857 155.371 248.916C155.255 248.384 155.151 247.847 155.113 247.303C155.072 246.73 155.117 246.158 155.104 245.585C155.081 244.491 154.78 243.437 154.421 242.41Z" fill="#E98750"/>
<path fill-rule="evenodd" clip-rule="evenodd" d="M160.886 244.569C160.886 244.569 161.982 242.421 162.968 241.813C163.956 241.205 166.843 239.843 166.86 241.3C166.878 242.756 163.873 242.61 163.873 242.61L160.886 244.569Z" fill="#F2B37C"/>
<path fill-rule="evenodd" clip-rule="evenodd" d="M375.506 244.949C374.932 246.173 374.405 247.41 373.949 248.666C373.378 250.235 373.479 252.304 374.89 253.199C376.292 254.089 378.138 253.346 379.541 252.458C383.135 250.185 386.912 246.743 388.045 242.542C388.971 239.112 389.479 235.457 390.22 231.97C390.759 229.441 393.16 224.568 389.218 224.635C385.968 224.689 384.041 228.691 382.893 231.046C380.633 235.685 377.72 240.221 375.506 244.949Z" fill="#F2B37C"/>
<path fill-rule="evenodd" clip-rule="evenodd" d="M378.324 235.8C377.779 236.872 377.28 238.162 377.822 239.234C378.807 241.179 382.147 240.599 383.311 242.442C384.781 239.459 386.25 236.478 387.72 233.496C388.271 232.378 388.829 231.238 389.022 230.006C389.214 228.774 388.987 227.414 388.134 226.506C384.85 223.011 379.568 233.355 378.324 235.8Z" fill="#66A2C5"/>
<path fill-rule="evenodd" clip-rule="evenodd" d="M377.115 247.295C376.533 247.029 375.958 246.762 375.394 246.474C372.704 245.096 370.255 243.324 367.614 241.871C365.925 240.987 364.265 240.046 362.585 239.143C361.332 238.469 359.817 237.077 358.431 236.796C358.14 237.859 358.621 238.911 359.242 239.748C356.75 240.086 354.258 240.567 351.721 240.838C351.342 241.881 351.745 243.105 352.537 243.884C353.329 244.663 354.447 245.042 355.552 245.143C358.435 245.404 361.48 244.091 364.297 245.084C366.182 245.747 367.714 247.84 369.166 249.188C371.269 251.142 373.363 253.052 375.595 254.854C377.194 254.409 377.855 253.459 378.209 251.837C378.562 250.214 378.625 247.986 377.115 247.295Z" fill="#F2B37C"/>
<path fill-rule="evenodd" clip-rule="evenodd" d="M401.215 337.047C402.128 338.874 405.398 345.291 403.187 346.934C402.874 347.167 402.501 347.301 402.134 347.434C401.323 347.725 400.511 348.016 399.7 348.308C394.787 350.084 390.436 350.766 385.246 351.178C384.748 351.217 384.196 351.24 383.807 350.926C382.026 349.491 385.623 349.129 386.193 348.853C387.79 348.076 389.337 346.139 390.514 344.842C392.077 343.12 393.506 341.469 394.61 339.413C395.313 338.104 394.854 338.145 396.029 337.334C396.339 337.118 400.659 335.969 400.681 336.009C400.855 336.341 401.034 336.689 401.215 337.047Z" fill="#394B50"/>
<path fill-rule="evenodd" clip-rule="evenodd" d="M381.004 278.047C381.014 277.57 381.019 277.092 381.03 276.616L396.501 263.071C396.863 263.631 397.199 264.209 397.509 264.798C398.782 267.237 399.48 269.917 399.563 272.664C399.637 275.161 399.21 277.629 398.588 280.041C397.877 282.815 397.083 285.56 396.502 288.363C395.875 291.407 395.35 294.508 394.45 297.489C393.739 299.845 392.698 302.069 392.817 304.584C392.866 305.639 392.972 306.757 393.348 307.749C393.726 308.747 394.411 309.593 395.047 310.432C396.599 312.485 398.047 314.554 399.103 316.911C400.209 319.37 400.681 321.907 400.9 324.576C401.133 327.414 401.215 330.332 401.87 333.115C402.096 334.065 402.571 334.918 402.817 335.857C403.021 336.624 402.987 337.444 402.886 338.225L396.165 339.793C395.864 339.084 395.626 338.342 395.508 337.581C395.36 336.642 395.428 335.685 395.304 334.742C395.02 332.593 394.202 330.664 393.213 328.757C392.056 326.522 390.905 324.285 389.896 321.976C388.975 319.871 388.189 317.664 386.993 315.696C385.848 313.806 384.186 312.386 382.76 310.729C381.899 309.728 381.274 308.657 381.134 307.328C381.014 306.22 381.143 305.095 381.193 303.984C381.239 303.038 381.224 302.088 381.193 301.14C381.104 298.418 381.009 295.697 380.967 292.975C380.876 287.78 381.676 281.987 380.843 276.927C380.049 272.107 379.164 267.977 382.989 263.96C386.49 260.282 392.513 259.313 396.991 261.709C397.325 262.579 396.967 263.659 396.182 264.159" fill="#30688B"/>
<path fill-rule="evenodd" clip-rule="evenodd" d="M393.507 340.407C393.998 342.389 395.783 349.368 393.267 350.486C392.91 350.644 392.517 350.694 392.13 350.742C391.275 350.849 390.418 350.956 389.563 351.063C384.956 351.638 380.489 351.786 375.856 351.836C373.707 351.861 370.765 350.739 374.361 349.42C376.82 348.517 379.221 347.172 381.359 345.669C383.261 344.331 385.017 343.033 386.545 341.269C387.517 340.146 387.061 340.086 388.384 339.551C388.734 339.409 393.202 339.234 393.214 339.277C393.312 339.64 393.41 340.018 393.507 340.407Z" fill="#485D63"/>
<path fill-rule="evenodd" clip-rule="evenodd" d="M390.406 263.342C393.446 261.313 399.474 260.303 402.588 262.87C405.809 265.526 403.708 269.617 402.9 273.656C400.726 284.532 395.523 292.913 391.798 302.951C389.821 308.274 393.095 312.308 394.21 317.303C395.743 324.179 393.7 330.995 393.948 337.838C393.976 338.631 393.764 339.425 393.494 340.165L386.592 340.217C386.455 339.459 386.386 338.683 386.437 337.914C386.501 336.966 386.777 336.048 386.862 335.101C387.057 332.941 386.684 330.879 386.139 328.801C385.024 324.552 384.083 319.526 382.629 315.098C381.034 310.236 379.399 307.623 379.95 302.403C380.821 294.162 383.802 286.405 385.108 278.267C385.987 272.783 385.137 266.858 390.406 263.342Z" fill="#4787AD"/>
<path fill-rule="evenodd" clip-rule="evenodd" d="M383.014 269.976C385.136 272.383 387.96 274.21 391.087 274.935C394.212 275.659 397.631 275.234 400.375 273.568C401.397 272.948 402.352 272.121 402.803 271.014C403.254 269.907 403.074 268.484 402.143 267.736C401.423 267.157 400.433 267.08 399.512 267.027C393.254 266.671 386.997 266.314 380.74 265.957C380.977 269.102 383.56 271.919 386.672 272.427" fill="#30688B"/>
<path fill-rule="evenodd" clip-rule="evenodd" d="M402.632 256.736C402.636 257.364 402.651 257.99 402.683 258.613C402.888 262.578 406.207 265.697 402.189 269.203C400.228 270.914 397.512 271.475 394.912 271.588C387.372 271.913 375.696 269.629 378.989 260.24C380.549 255.794 381.188 249.839 380.813 245.143C380.616 242.679 380.104 240.243 380.016 237.772C379.849 233.066 382.229 231.033 384.372 227.308C386.199 224.133 388.287 221.629 391.999 220.739C394.921 220.038 397.667 220.869 400.256 222.438C401.25 223.04 403.425 224.047 403.959 225.101C404.566 226.301 403.72 228.45 403.606 229.72C403.038 236.029 403.012 242.37 402.884 248.701C402.831 251.352 402.62 254.063 402.632 256.736Z" fill="#6BC5D6"/>
<path fill-rule="evenodd" clip-rule="evenodd" d="M395.203 240.702C395.519 241.979 396.248 243.11 396.964 244.215C399.44 248.032 401.915 251.847 404.391 255.664C404.586 249.63 404.243 243.578 403.364 237.605C403.149 236.143 402.882 234.631 402.04 233.415C398.044 227.652 394.371 237.348 395.203 240.702Z" fill="#66A2C5"/>
<path fill-rule="evenodd" clip-rule="evenodd" d="M397.406 222.077C397.852 221.188 396.605 217.101 396.527 215.99C396.376 213.839 396.512 211.693 396.537 209.544C395.594 209.804 388.32 212.935 388.268 212.628C388.667 214.972 389.34 217.389 389.641 219.72C389.847 221.32 389.191 223.911 390.773 225.023C393.014 226.602 396.474 224.062 397.406 222.077Z" fill="#F2B37C"/>
<path fill-rule="evenodd" clip-rule="evenodd" d="M399.031 257.326C398.504 258.175 398.155 259.143 397.668 260.077C396.642 262.047 395.225 263.877 393.825 265.591C390.759 269.33 387.504 272.986 385.635 277.383C385.469 277.774 387.527 277.043 387.634 276.978C388.369 276.533 388.92 275.332 389.402 274.657C388.981 277.497 387.863 280.029 386.889 282.722C386.629 283.439 391.462 281.535 392.03 280.818C393.545 278.906 394.409 275.969 395.041 273.651C395.277 272.778 395.441 271.907 395.889 271.111C397.118 268.923 399.171 267.117 400.879 265.312C402.669 263.423 408.699 258.591 404.924 255.723C403.718 254.808 401.943 254.885 400.65 255.671C399.923 256.113 399.426 256.687 399.031 257.326Z" fill="#F2B37C"/>
<path fill-rule="evenodd" clip-rule="evenodd" d="M400.793 246.937C401.061 249.927 400.969 251.64 400.352 254.542C400.076 255.839 400.214 257.376 401.238 258.219C402.125 258.95 403.465 258.934 404.485 258.406C405.505 257.879 406.244 256.926 406.787 255.915C408.725 252.313 411.2 226.805 401.727 229.978C398.423 231.086 399.44 234.495 399.787 237.086C400.226 240.345 400.492 243.622 400.789 246.896C400.79 246.909 400.792 246.923 400.793 246.937Z" fill="#F2B37C"/>
<path fill-rule="evenodd" clip-rule="evenodd" d="M398.361 237.871C398.61 239.233 399.1 240.423 400.777 241.056C401.809 241.446 402.945 241.409 404.048 241.368C405.969 241.295 407.89 241.223 409.811 241.15C410.274 238.908 409.46 236.724 409.115 234.542C408.742 232.186 408.284 229.907 407.166 227.769C406.264 226.043 405.053 224.304 403.415 223.205C402.708 222.732 401.918 222.347 401.11 222.07C400.675 221.919 400.129 221.746 399.667 221.859C398.472 222.152 398.175 227.746 398.061 228.777C397.727 231.8 397.816 234.88 398.361 237.871Z" fill="#6BC5D6"/>
<path fill-rule="evenodd" clip-rule="evenodd" d="M401.241 207.665C401.239 211.541 400.083 216.201 396.775 216.502C393.422 216.808 389.642 215.237 387.089 213.162C384.731 211.246 382.931 208.534 382.132 205.597C381.302 202.546 383.237 200.072 385.761 198.339C386.201 198.036 386.697 197.856 387.201 197.694C387.946 197.458 388.589 197.124 389.279 196.764C394.164 194.213 399.12 199.119 400.688 203.519C401.031 204.486 401.243 206.004 401.241 207.665Z" fill="#8A6648"/>
<path fill-rule="evenodd" clip-rule="evenodd" d="M384.555 203.932C384.036 206.051 383.976 208.372 384.085 210.541C384.19 212.602 384.644 214.625 385.605 216.462C386.327 217.837 387.368 219.384 388.869 219.991C390.154 220.511 391.55 220.095 392.73 219.495C394.076 218.813 395.468 217.796 396.132 216.396C396.693 215.217 396.381 214.101 396.477 212.868C396.437 213.373 396.992 213.785 397.494 213.719C397.996 213.655 398.395 213.233 398.58 212.762C398.765 212.29 398.777 211.772 398.787 211.265C398.796 210.822 398.802 210.366 398.64 209.953C398.477 209.541 398.102 209.179 397.659 209.172C397.215 209.168 396.795 209.645 396.963 210.055C396.966 207.39 394.993 203.897 392.655 202.54C391.337 201.776 389.681 201.001 388.115 201.241C386.929 201.422 385.332 202.078 384.785 203.245C384.682 203.464 384.614 203.698 384.555 203.932Z" fill="#F2B37C"/>
<path fill-rule="evenodd" clip-rule="evenodd" d="M400.881 197.475C402.035 197.917 402.945 198.862 403.55 199.941C404.35 201.369 404.644 203.181 403.916 204.647C402.971 206.555 400.269 207.324 398.461 206.202C395.162 204.154 395.6 195.454 400.881 197.475Z" fill="#8A6648"/>
<path fill-rule="evenodd" clip-rule="evenodd" d="M395.206 205.892C395.525 205.801 395.861 205.684 396.066 205.422C396.469 204.906 396.162 204.151 395.782 203.618C394.425 201.714 392.196 200.458 389.865 200.281C387.467 200.1 381.629 201.783 385.068 204.452C387.72 206.509 392.106 206.776 395.206 205.892Z" fill="#8A6648"/>
<path d="M92.5035 201.668C92.3935 201.973 92.5409 202.311 92.8393 202.437C93.0958 202.48 93.3461 202.199 93.4133 201.827C93.4804 201.454 93.3217 201.1 93.0775 201.057C92.8332 201.015 92.5707 201.283 92.5035 201.668Z" fill="#2E353A"/>
<path d="M95.7652 202.407C95.6737 202.779 95.8507 203.127 96.1011 203.17C96.3514 203.213 96.6017 202.938 96.6689 202.559C96.736 202.181 96.5834 201.839 96.3331 201.796C96.0827 201.753 95.8263 202.04 95.7652 202.407Z" fill="#2E353A"/>
<path d="M95.4159 202.358C95.6734 203.602 96.0986 204.806 96.6798 205.936C96.0802 206.217 95.3866 206.217 94.787 205.936L95.4159 202.358Z" fill="#DC5753"/>
<path d="M91.6732 199.403C91.7301 199.466 91.8144 199.498 91.8991 199.488C92.4651 199.376 93.051 199.536 93.4804 199.922C93.5322 199.991 93.6188 200.025 93.7037 200.008C93.7885 199.992 93.8567 199.929 93.8794 199.846C93.902 199.762 93.8751 199.673 93.8101 199.617C93.2781 199.115 92.5369 198.902 91.8197 199.043C91.6968 199.061 91.6122 199.176 91.6304 199.299C91.641 199.335 91.6553 199.37 91.6732 199.403Z" fill="#2E353A"/>
<path d="M93.8346 207.835C92.6946 207.808 91.6393 207.227 91.0077 206.278C90.9876 206.224 91.008 206.163 91.0566 206.132C91.1052 206.101 91.1688 206.108 91.2092 206.149C91.813 207.011 92.7889 207.536 93.8407 207.566C93.9047 207.566 93.9567 207.618 93.9567 207.682C93.9536 207.745 93.9034 207.795 93.8407 207.798L93.8346 207.835Z" fill="#2E353A"/>
<path d="M97.0053 200.125C97.0474 200.107 97.0834 200.077 97.1091 200.04C97.1331 199.985 97.1337 199.922 97.1106 199.867C97.0875 199.812 97.0429 199.768 96.987 199.746C96.3121 199.46 96.413 199.481 95.7897 199.867C95.6917 199.942 95.6678 200.08 95.7347 200.184C95.8102 200.282 95.9482 200.306 96.0522 200.239C96.5524 199.947 96.2891 199.947 96.8221 200.174C96.8874 200.184 96.954 200.167 97.0053 200.125Z" fill="#2E353A"/>
<path d="M153.504 216.668C153.394 216.973 153.541 217.311 153.839 217.437C154.096 217.48 154.346 217.199 154.413 216.827C154.48 216.454 154.322 216.1 154.077 216.057C153.833 216.015 153.571 216.283 153.504 216.668Z" fill="#2E353A"/>
<path d="M152.673 214.403C152.73 214.466 152.814 214.498 152.899 214.488C153.465 214.376 154.051 214.536 154.48 214.922C154.532 214.991 154.619 215.025 154.704 215.008C154.789 214.992 154.857 214.929 154.879 214.846C154.902 214.762 154.875 214.673 154.81 214.617C154.278 214.115 153.537 213.902 152.82 214.043C152.697 214.061 152.612 214.176 152.63 214.299C152.641 214.335 152.655 214.37 152.673 214.403Z" fill="#2E353A"/>
<path d="M439.876 217.668C439.766 217.973 439.913 218.311 440.211 218.437C440.468 218.48 440.718 218.199 440.785 217.827C440.853 217.454 440.694 217.1 440.45 217.057C440.205 217.015 439.943 217.283 439.876 217.668Z" fill="#2E353A"/>
<path d="M439.045 215.403C439.102 215.466 439.186 215.498 439.271 215.488C439.837 215.376 440.423 215.536 440.852 215.922C440.904 215.991 440.991 216.025 441.076 216.008C441.161 215.992 441.229 215.929 441.251 215.846C441.274 215.762 441.247 215.673 441.182 215.617C440.65 215.115 439.909 214.902 439.192 215.043C439.069 215.061 438.984 215.176 439.002 215.299C439.013 215.335 439.027 215.37 439.045 215.403Z" fill="#2E353A"/>
<path d="M391.496 210.668C391.606 210.973 391.459 211.311 391.161 211.437C390.904 211.48 390.654 211.199 390.587 210.827C390.52 210.454 390.678 210.1 390.923 210.058C391.167 210.015 391.429 210.283 391.496 210.668Z" fill="#2E353A"/>
<path d="M387.235 211.407C387.326 211.779 387.149 212.127 386.899 212.17C386.649 212.213 386.398 211.938 386.331 211.559C386.264 211.181 386.417 210.839 386.667 210.796C386.917 210.753 387.174 211.04 387.235 211.407Z" fill="#2E353A"/>
<path d="M388.584 211.358C388.327 212.602 387.901 213.806 387.32 214.936C387.92 215.217 388.613 215.217 389.213 214.936L388.584 211.358Z" fill="#DC5753"/>
<path d="M392.327 208.403C392.27 208.466 392.186 208.498 392.101 208.488C391.535 208.376 390.949 208.536 390.52 208.922C390.468 208.991 390.381 209.025 390.296 209.008C390.211 208.992 390.143 208.929 390.121 208.846C390.098 208.762 390.125 208.673 390.19 208.617C390.722 208.115 391.463 207.902 392.18 208.043C392.303 208.061 392.388 208.176 392.37 208.299C392.359 208.335 392.345 208.37 392.327 208.403Z" fill="#2E353A"/>
<path d="M390.165 216.835C391.305 216.808 392.361 216.227 392.992 215.278C393.012 215.224 392.992 215.163 392.943 215.132C392.895 215.101 392.831 215.108 392.791 215.149C392.187 216.011 391.211 216.536 390.159 216.566C390.095 216.566 390.043 216.618 390.043 216.682C390.046 216.745 390.097 216.795 390.159 216.798L390.165 216.835Z" fill="#2E353A"/>
<path d="M385.122 209.087C385.08 209.069 385.044 209.039 385.018 209.001C384.994 208.946 384.994 208.884 385.017 208.828C385.04 208.773 385.085 208.73 385.141 208.708C385.815 208.422 386.587 208.481 387.21 208.867C387.308 208.942 387.332 209.08 387.265 209.184C387.19 209.282 387.052 209.306 386.948 209.239C386.448 208.947 385.838 208.908 385.305 209.135C385.24 209.146 385.174 209.128 385.122 209.087Z" fill="#2E353A"/>
</svg>
