<?xml version="1.0" encoding="utf-8"?>
<!-- Generator: Adobe Illustrator 25.4.1, SVG Export Plug-In . SVG Version: 6.00 Build 0)  -->
<svg version="1.1" xmlns="http://www.w3.org/2000/svg" xmlns:xlink="http://www.w3.org/1999/xlink" x="0px" y="0px"
	 viewBox="0 0 420.6 372.6" style="enable-background:new 0 0 420.6 372.6;" xml:space="preserve">
<style type="text/css">
	.st0{display:none;}
	.st1{display:inline;}
	.st2{fill:#407BFF;}
	.st3{opacity:0.9;fill:#FFFFFF;}
	.st4{fill:#EBEBEB;}
	.st5{fill:#FAFAFA;}
	.st6{fill:#F0F0F0;}
	.st7{fill:#E0E0E0;}
	.st8{fill:#F5F5F5;}
	.st9{fill:#2F7630;}
	.st10{fill:#377C39;}
	.st11{fill:#263238;}
	.st12{opacity:0.3;fill:#FFFFFF;enable-background:new    ;}
	.st13{fill:#5F9961;}
	.st14{opacity:0.5;fill:#FFFFFF;enable-background:new    ;}
	.st15{opacity:0.3;fill:#FFFFFF;}
	.st16{opacity:0.2;}
	.st17{opacity:0.1;}
	.st18{fill:#FFFFFF;}
	.st19{opacity:0.3;}
	.st20{opacity:0.2;fill:#FFFFFF;}
	.st21{fill:#B55B52;}
	.st22{opacity:0;}
	.st23{opacity:0.8;fill:#FFFFFF;}
	.st24{opacity:0.4;}
	.st25{opacity:0.5;}
	.st26{opacity:0.8;fill:#C7DCC7;}
	.st27{opacity:0.5;fill:#FFFFFF;}
	.st28{fill:#C7C7C7;}
	.st29{opacity:6.000000e-02;fill:#FFFFFF;}
	.st30{fill:#A02724;}
	.st31{opacity:0.2;enable-background:new    ;}
	.st32{opacity:0.4;fill:#FFFFFF;}
	.st33{fill:#9DA7B1;}
	.st34{opacity:0.5;fill:#C7C7C7;}
	.st35{fill:#A5A5A5;}
	.st36{opacity:0.7;fill:#FFFFFF;}
	.st37{opacity:0.6;fill:#FFFFFF;}
	.st38{fill:#E4897B;}
	.st39{opacity:0.4;fill:#FFFFFF;enable-background:new    ;}
	.st40{opacity:0.3;enable-background:new    ;}
	.st41{fill:#DE5753;}
	.st42{opacity:0.1;fill:#FFFFFF;enable-background:new    ;}
	.st43{opacity:0.1;fill:#FFFFFF;}
</style>
<g id="Background_Complete">
</g>
<g id="Background_Simple" class="st0">
	<g class="st1">
		<path class="st2" d="M206.5,28.7c21.9,2.6,48.4,12.9,63.8,29.8c11.6,12.7,18.4,28.8,21,45.6c2.8,18.1-2.6,36.1-0.9,54.2
			c0.9,9.7,4.1,19.5,10.6,26.8c12.3,13.9,30.7,13,47.1,18c29.2,9.1,49.5,40.1,40.6,70.5c-6.8,23.4-27.4,35.6-50.2,40.2
			c-39.7,7.9-76.3-4.1-108.6-26.6c-7.6-5.3-16.2-10.1-25.5-10.3c-16.5-0.4-34.8,10.9-50.5,15.6c-18.5,5.6-38.1,9.1-57.4,4.9
			c-34.9-7.6-55.5-37-63.6-70.1c-8.2-33.4-9.6-69.3,2.2-102.1c11-30.6,31.6-56.4,58.9-73.6C126.9,30.9,168.4,24.2,206.5,28.7z"/>
		<path class="st3" d="M206.5,28.7c21.9,2.6,48.4,12.9,63.8,29.8c11.6,12.7,18.4,28.8,21,45.6c2.8,18.1-2.6,36.1-0.9,54.2
			c0.9,9.7,4.1,19.5,10.6,26.8c12.3,13.9,30.7,13,47.1,18c29.2,9.1,49.5,40.1,40.6,70.5c-6.8,23.4-27.4,35.6-50.2,40.2
			c-39.7,7.9-76.3-4.1-108.6-26.6c-7.6-5.3-16.2-10.1-25.5-10.3c-16.5-0.4-34.8,10.9-50.5,15.6c-18.5,5.6-38.1,9.1-57.4,4.9
			c-34.9-7.6-55.5-37-63.6-70.1c-8.2-33.4-9.6-69.3,2.2-102.1c11-30.6,31.6-56.4,58.9-73.6C126.9,30.9,168.4,24.2,206.5,28.7z"/>
	</g>
</g>
<g id="Shadow_1_">
</g>
<g id="Plant">
</g>
<g id="Character_1_1_">
</g>
<g id="Table">
</g>
<g id="Character_2">
	<g>
		<g>
			<rect x="-38.2" y="327.4" class="st4" width="500" height="0.2"/>
			<rect x="378.6" y="343.5" class="st4" width="33.1" height="0.2"/>
			<rect x="284.3" y="346.3" class="st4" width="8.7" height="0.2"/>
			<rect x="358.4" y="334.3" class="st4" width="19.2" height="0.2"/>
			<rect x="14.3" y="335.9" class="st4" width="43.2" height="0.2"/>
			<rect x="66.3" y="335.9" class="st4" width="6.3" height="0.2"/>
			<rect x="93.3" y="340.2" class="st4" width="93.7" height="0.2"/>
			<path class="st4" d="M198.8,282.8H5.7c-3.1,0-5.7-2.6-5.7-5.7V5.7C0,2.6,2.6,0,5.7,0h193.1c3.1,0,5.7,2.6,5.7,5.7v271.4
				C204.5,280.3,202,282.8,198.8,282.8z M5.7,0.2c-3,0-5.5,2.4-5.5,5.5v271.4c0,3,2.4,5.5,5.5,5.5h193.1c3,0,5.5-2.4,5.5-5.5V5.7
				c0-3-2.4-5.5-5.5-5.5H5.7z"/>
			<path class="st4" d="M415.1,282.8H222c-3.1,0-5.7-2.6-5.7-5.7V5.7c0-3.1,2.6-5.7,5.7-5.7h193.1c3.1,0,5.7,2.6,5.7,5.7v271.4
				C420.8,280.3,418.3,282.8,415.1,282.8z M222,0.2c-3,0-5.5,2.4-5.5,5.5v271.4c0,3,2.4,5.5,5.5,5.5h193.1c3,0,5.5-2.4,5.5-5.5V5.7
				c0-3-2.4-5.5-5.5-5.5H222z"/>
		</g>
		<g>
			<rect x="207.6" y="65.8" class="st4" width="169.5" height="189.9"/>
			<rect x="207.6" y="68.8" class="st5" width="166.2" height="183.5"/>
			<g>
				<polygon class="st6" points="367.7,166.2 367.7,153.3 364,153.3 364,144.7 359.1,144.7 359.1,131.8 357.8,131.8 357.8,144.7 
					352.9,144.7 352.9,153.3 349.2,153.3 349.2,166.2 342.5,166.2 342.5,169.9 339.4,169.9 339.4,184 338.8,184 338.8,163.8 
					337,163.8 337,176.7 335.1,176.7 335.1,146 333.9,146 333.9,158.8 329,158.8 329,154.6 327.1,154.6 327.1,136.7 323.5,136.7 
					323.5,118.9 322.2,118.9 322.2,121.4 297.1,121.4 297.1,114 292.8,114 292.8,85.8 290.9,85.8 290.9,114 284.8,114 284.8,121.4 
					282.3,121.4 282.3,158.2 269.4,158.2 269.4,147.2 273.7,147.2 273.7,145.3 269.4,145.3 269.4,142.3 257.2,142.3 257.2,114 
					254.1,114 254.1,109.7 239.4,109.7 239.4,114 237.5,114 237.5,153.3 230.8,153.3 230.8,171.1 227.1,171.1 227.1,157 224,157 
					224,153.3 217.2,153.3 217.2,140.4 213.6,140.4 213.6,131.8 209.3,131.8 209.3,118.9 207.6,118.9 207.6,252.3 373.8,252.3 
					373.8,166.2 				"/>
				<g>
					<rect x="306.5" y="123.3" class="st5" width="1.7" height="1.7"/>
					<rect x="306.5" y="126.2" class="st5" width="1.7" height="1.7"/>
					<rect x="306.5" y="137.9" class="st5" width="1.7" height="1.7"/>
					<rect x="306.5" y="140.8" class="st5" width="1.7" height="1.7"/>
					<rect x="306.5" y="143.7" class="st5" width="1.7" height="1.7"/>
					<rect x="306.5" y="152.5" class="st5" width="1.7" height="1.7"/>
					<rect x="306.5" y="155.4" class="st5" width="1.7" height="1.7"/>
					<rect x="303.7" y="135" class="st5" width="1.7" height="1.7"/>
					<rect x="303.7" y="137.9" class="st5" width="1.7" height="1.7"/>
					<rect x="303.7" y="140.8" class="st5" width="1.7" height="1.7"/>
					<rect x="303.7" y="143.7" class="st5" width="1.7" height="1.7"/>
					<rect x="303.7" y="146.7" class="st5" width="1.7" height="1.7"/>
					<rect x="303.7" y="152.5" class="st5" width="1.7" height="1.7"/>
					<rect x="303.7" y="155.4" class="st5" width="1.7" height="1.7"/>
					<rect x="300.9" y="123.3" class="st5" width="1.7" height="1.7"/>
					<rect x="300.9" y="126.2" class="st5" width="1.7" height="1.7"/>
					<rect x="300.9" y="129.2" class="st5" width="1.7" height="1.7"/>
					<rect x="300.9" y="132.1" class="st5" width="1.7" height="1.7"/>
					<rect x="300.9" y="135" class="st5" width="1.7" height="1.7"/>
					<rect x="300.9" y="137.9" class="st5" width="1.7" height="1.7"/>
					<rect x="300.9" y="140.8" class="st5" width="1.7" height="1.7"/>
					<rect x="300.9" y="143.7" class="st5" width="1.7" height="1.7"/>
					<rect x="300.9" y="146.7" class="st5" width="1.7" height="1.7"/>
					<rect x="300.9" y="149.6" class="st5" width="1.7" height="1.7"/>
					<rect x="300.9" y="155.4" class="st5" width="1.7" height="1.7"/>
					<rect x="298.2" y="123.3" class="st5" width="1.7" height="1.7"/>
					<rect x="298.2" y="126.2" class="st5" width="1.7" height="1.7"/>
					<rect x="298.2" y="129.2" class="st5" width="1.7" height="1.7"/>
					<rect x="298.2" y="132.1" class="st5" width="1.7" height="1.7"/>
					<rect x="298.2" y="135" class="st5" width="1.7" height="1.7"/>
					<rect x="298.2" y="137.9" class="st5" width="1.7" height="1.7"/>
					<rect x="298.2" y="140.8" class="st5" width="1.7" height="1.7"/>
					<rect x="298.2" y="167.1" class="st5" width="1.7" height="1.7"/>
					<rect x="295.4" y="123.3" class="st5" width="1.7" height="1.7"/>
					<rect x="295.4" y="126.2" class="st5" width="1.7" height="1.7"/>
					<rect x="295.4" y="129.2" class="st5" width="1.7" height="1.7"/>
					<rect x="295.4" y="132.1" class="st5" width="1.7" height="1.7"/>
					<rect x="295.4" y="135" class="st5" width="1.7" height="1.7"/>
					<rect x="295.4" y="137.9" class="st5" width="1.7" height="1.7"/>
					<rect x="295.4" y="140.8" class="st5" width="1.7" height="1.7"/>
					<rect x="295.4" y="143.7" class="st5" width="1.7" height="1.7"/>
					<rect x="295.4" y="161.2" class="st5" width="1.7" height="1.7"/>
					<rect x="295.4" y="164.1" class="st5" width="1.7" height="1.7"/>
					<rect x="295.4" y="167.1" class="st5" width="1.7" height="1.7"/>
					<rect x="295.4" y="170" class="st5" width="1.7" height="1.7"/>
					<rect x="295.4" y="181.6" class="st5" width="1.7" height="1.7"/>
					<rect x="292.6" y="123.3" class="st5" width="1.7" height="1.7"/>
					<rect x="292.6" y="126.2" class="st5" width="1.7" height="1.7"/>
					<rect x="292.6" y="129.2" class="st5" width="1.7" height="1.7"/>
					<rect x="292.6" y="132.1" class="st5" width="1.7" height="1.7"/>
					<rect x="292.6" y="135" class="st5" width="1.7" height="1.7"/>
					<rect x="292.6" y="137.9" class="st5" width="1.7" height="1.7"/>
					<rect x="292.6" y="140.8" class="st5" width="1.7" height="1.7"/>
					<rect x="292.6" y="143.7" class="st5" width="1.7" height="1.7"/>
					<rect x="292.6" y="146.7" class="st5" width="1.7" height="1.7"/>
					<rect x="292.6" y="149.6" class="st5" width="1.7" height="1.7"/>
					<rect x="292.6" y="158.3" class="st5" width="1.7" height="1.7"/>
					<rect x="292.6" y="161.2" class="st5" width="1.7" height="1.7"/>
					<rect x="292.6" y="164.1" class="st5" width="1.7" height="1.7"/>
					<rect x="292.6" y="167.1" class="st5" width="1.7" height="1.7"/>
					<rect x="292.6" y="170" class="st5" width="1.7" height="1.7"/>
					<rect x="292.6" y="181.6" class="st5" width="1.7" height="1.7"/>
					<rect x="289.9" y="123.3" class="st5" width="1.7" height="1.7"/>
					<rect x="289.9" y="126.2" class="st5" width="1.7" height="1.7"/>
					<rect x="289.9" y="129.2" class="st5" width="1.7" height="1.7"/>
					<rect x="289.9" y="132.1" class="st5" width="1.7" height="1.7"/>
					<rect x="289.9" y="135" class="st5" width="1.7" height="1.7"/>
					<rect x="289.9" y="137.9" class="st5" width="1.7" height="1.7"/>
					<rect x="289.9" y="140.8" class="st5" width="1.7" height="1.7"/>
					<rect x="289.9" y="143.7" class="st5" width="1.7" height="1.7"/>
					<rect x="289.9" y="146.7" class="st5" width="1.7" height="1.7"/>
					<rect x="289.9" y="149.6" class="st5" width="1.7" height="1.7"/>
					<rect x="289.9" y="152.5" class="st5" width="1.7" height="1.7"/>
					<rect x="289.9" y="155.4" class="st5" width="1.7" height="1.7"/>
					<rect x="289.9" y="158.3" class="st5" width="1.7" height="1.7"/>
					<rect x="289.9" y="161.2" class="st5" width="1.7" height="1.7"/>
					<rect x="289.9" y="164.1" class="st5" width="1.7" height="1.7"/>
					<rect x="289.9" y="167.1" class="st5" width="1.7" height="1.7"/>
					<rect x="289.9" y="170" class="st5" width="1.7" height="1.7"/>
					<rect x="289.9" y="172.9" class="st5" width="1.7" height="1.7"/>
					<rect x="287.1" y="123.3" class="st5" width="1.7" height="1.7"/>
					<rect x="287.1" y="126.2" class="st5" width="1.7" height="1.7"/>
					<rect x="287.1" y="129.2" class="st5" width="1.7" height="1.7"/>
					<rect x="287.1" y="132.1" class="st5" width="1.7" height="1.7"/>
					<rect x="287.1" y="135" class="st5" width="1.7" height="1.7"/>
					<rect x="287.1" y="137.9" class="st5" width="1.7" height="1.7"/>
					<rect x="287.1" y="140.8" class="st5" width="1.7" height="1.7"/>
					<rect x="287.1" y="143.7" class="st5" width="1.7" height="1.7"/>
					<rect x="287.1" y="146.7" class="st5" width="1.7" height="1.7"/>
					<rect x="287.1" y="149.6" class="st5" width="1.7" height="1.7"/>
					<rect x="287.1" y="158.3" class="st5" width="1.7" height="1.7"/>
					<rect x="287.1" y="161.2" class="st5" width="1.7" height="1.7"/>
					<rect x="287.1" y="164.1" class="st5" width="1.7" height="1.7"/>
					<rect x="287.1" y="167.1" class="st5" width="1.7" height="1.7"/>
					<rect x="284.4" y="123.3" class="st5" width="1.7" height="1.7"/>
					<rect x="284.4" y="126.2" class="st5" width="1.7" height="1.7"/>
					<rect x="284.4" y="129.2" class="st5" width="1.7" height="1.7"/>
					<rect x="284.4" y="132.1" class="st5" width="1.7" height="1.7"/>
					<rect x="284.4" y="135" class="st5" width="1.7" height="1.7"/>
					<rect x="284.4" y="137.9" class="st5" width="1.7" height="1.7"/>
					<rect x="284.4" y="140.8" class="st5" width="1.7" height="1.7"/>
					<rect x="284.4" y="143.7" class="st5" width="1.7" height="1.7"/>
					<rect x="284.4" y="146.7" class="st5" width="1.7" height="1.7"/>
					<rect x="284.4" y="149.6" class="st5" width="1.7" height="1.7"/>
					<rect x="284.4" y="158.3" class="st5" width="1.7" height="1.7"/>
					<rect x="284.4" y="161.2" class="st5" width="1.7" height="1.7"/>
					<rect x="284.4" y="164.1" class="st5" width="1.7" height="1.7"/>
					<rect x="253.3" y="115.8" class="st5" width="1.7" height="1.7"/>
					<rect x="253.3" y="118.7" class="st5" width="1.7" height="1.7"/>
					<rect x="253.3" y="121.6" class="st5" width="1.7" height="1.7"/>
					<rect x="253.3" y="124.5" class="st5" width="1.7" height="1.7"/>
					<rect x="253.3" y="127.4" class="st5" width="1.7" height="1.7"/>
					<rect x="253.3" y="130.3" class="st5" width="1.7" height="1.7"/>
					<rect x="253.3" y="133.2" class="st5" width="1.7" height="1.7"/>
					<rect x="253.3" y="136.2" class="st5" width="1.7" height="1.7"/>
					<rect x="253.3" y="144.9" class="st5" width="1.7" height="1.7"/>
					<rect x="253.3" y="147.8" class="st5" width="1.7" height="1.7"/>
					<rect x="250.5" y="115.8" class="st5" width="1.7" height="1.7"/>
					<rect x="250.5" y="118.7" class="st5" width="1.7" height="1.7"/>
					<rect x="250.5" y="121.6" class="st5" width="1.7" height="1.7"/>
					<rect x="250.5" y="124.5" class="st5" width="1.7" height="1.7"/>
					<rect x="250.5" y="127.4" class="st5" width="1.7" height="1.7"/>
					<rect x="250.5" y="130.3" class="st5" width="1.7" height="1.7"/>
					<rect x="250.5" y="133.2" class="st5" width="1.7" height="1.7"/>
					<rect x="250.5" y="136.2" class="st5" width="1.7" height="1.7"/>
					<rect x="250.5" y="147.8" class="st5" width="1.7" height="1.7"/>
					<rect x="247.7" y="115.8" class="st5" width="1.7" height="1.7"/>
					<rect x="247.7" y="118.7" class="st5" width="1.7" height="1.7"/>
					<rect x="247.7" y="121.6" class="st5" width="1.7" height="1.7"/>
					<rect x="247.7" y="124.5" class="st5" width="1.7" height="1.7"/>
					<rect x="247.7" y="127.4" class="st5" width="1.7" height="1.7"/>
					<rect x="247.7" y="130.3" class="st5" width="1.7" height="1.7"/>
					<rect x="247.7" y="133.2" class="st5" width="1.7" height="1.7"/>
					<rect x="247.7" y="136.2" class="st5" width="1.7" height="1.7"/>
					<rect x="245" y="115.8" class="st5" width="1.7" height="1.7"/>
					<rect x="245" y="118.7" class="st5" width="1.7" height="1.7"/>
					<rect x="245" y="121.6" class="st5" width="1.7" height="1.7"/>
					<rect x="245" y="124.5" class="st5" width="1.7" height="1.7"/>
					<rect x="245" y="127.4" class="st5" width="1.7" height="1.7"/>
					<rect x="245" y="130.3" class="st5" width="1.7" height="1.7"/>
					<rect x="245" y="136.2" class="st5" width="1.7" height="1.7"/>
					<rect x="245" y="139.1" class="st5" width="1.7" height="1.7"/>
					<rect x="245" y="147.8" class="st5" width="1.7" height="1.7"/>
					<rect x="245" y="150.7" class="st5" width="1.7" height="1.7"/>
					<rect x="245" y="153.7" class="st5" width="1.7" height="1.7"/>
					<rect x="245" y="156.6" class="st5" width="1.7" height="1.7"/>
					<rect x="245" y="159.5" class="st5" width="1.7" height="1.7"/>
					<rect x="245" y="162.4" class="st5" width="1.7" height="1.7"/>
					<rect x="245" y="165.3" class="st5" width="1.7" height="1.7"/>
					<rect x="242.2" y="115.8" class="st5" width="1.7" height="1.7"/>
					<rect x="242.2" y="118.7" class="st5" width="1.7" height="1.7"/>
					<rect x="242.2" y="121.6" class="st5" width="1.7" height="1.7"/>
					<rect x="242.2" y="124.5" class="st5" width="1.7" height="1.7"/>
					<rect x="242.2" y="127.4" class="st5" width="1.7" height="1.7"/>
					<rect x="242.2" y="130.3" class="st5" width="1.7" height="1.7"/>
					<rect x="242.2" y="139.1" class="st5" width="1.7" height="1.7"/>
					<rect x="242.2" y="142" class="st5" width="1.7" height="1.7"/>
					<rect x="242.2" y="144.9" class="st5" width="1.7" height="1.7"/>
					<rect x="242.2" y="147.8" class="st5" width="1.7" height="1.7"/>
					<rect x="242.2" y="150.7" class="st5" width="1.7" height="1.7"/>
					<rect x="242.2" y="153.7" class="st5" width="1.7" height="1.7"/>
					<rect x="242.2" y="156.6" class="st5" width="1.7" height="1.7"/>
					<rect x="242.2" y="159.5" class="st5" width="1.7" height="1.7"/>
					<rect x="242.2" y="162.4" class="st5" width="1.7" height="1.7"/>
					<rect x="242.2" y="165.3" class="st5" width="1.7" height="1.7"/>
					<rect x="242.2" y="168.2" class="st5" width="1.7" height="1.7"/>
					<rect x="242.2" y="174.1" class="st5" width="1.7" height="1.7"/>
					<rect x="239.4" y="115.8" class="st5" width="1.7" height="1.7"/>
					<rect x="239.4" y="118.7" class="st5" width="1.7" height="1.7"/>
					<rect x="239.4" y="121.6" class="st5" width="1.7" height="1.7"/>
					<rect x="239.4" y="124.5" class="st5" width="1.7" height="1.7"/>
					<rect x="239.4" y="127.4" class="st5" width="1.7" height="1.7"/>
					<rect x="239.4" y="130.3" class="st5" width="1.7" height="1.7"/>
					<rect x="239.4" y="139.1" class="st5" width="1.7" height="1.7"/>
					<rect x="239.4" y="142" class="st5" width="1.7" height="1.7"/>
					<rect x="239.4" y="144.9" class="st5" width="1.7" height="1.7"/>
					<rect x="239.4" y="147.8" class="st5" width="1.7" height="1.7"/>
					<rect x="239.4" y="156.6" class="st5" width="1.7" height="1.7"/>
					<rect x="239.4" y="159.5" class="st5" width="1.7" height="1.7"/>
					<rect x="239.4" y="162.4" class="st5" width="1.7" height="1.7"/>
					<rect x="239.4" y="165.3" class="st5" width="1.7" height="1.7"/>
					<rect x="239.4" y="168.2" class="st5" width="1.7" height="1.7"/>
					<rect x="239.4" y="174.1" class="st5" width="1.7" height="1.7"/>
					<rect x="239.4" y="177" class="st5" width="1.7" height="1.7"/>
					<rect x="214.4" y="142.9" class="st5" width="1.7" height="1.7"/>
					<rect x="214.4" y="145.8" class="st5" width="1.7" height="1.7"/>
					<rect x="214.4" y="148.7" class="st5" width="1.7" height="1.7"/>
					<rect x="214.4" y="151.6" class="st5" width="1.7" height="1.7"/>
					<rect x="214.4" y="154.5" class="st5" width="1.7" height="1.7"/>
					<rect x="214.4" y="157.4" class="st5" width="1.7" height="1.7"/>
					<rect x="214.4" y="160.4" class="st5" width="1.7" height="1.7"/>
					<rect x="214.4" y="169.1" class="st5" width="1.7" height="1.7"/>
					<rect x="214.4" y="172" class="st5" width="1.7" height="1.7"/>
					<rect x="214.4" y="174.9" class="st5" width="1.7" height="1.7"/>
					<rect x="211.6" y="142.9" class="st5" width="1.7" height="1.7"/>
					<rect x="211.6" y="145.8" class="st5" width="1.7" height="1.7"/>
					<rect x="211.6" y="148.7" class="st5" width="1.7" height="1.7"/>
					<rect x="211.6" y="151.6" class="st5" width="1.7" height="1.7"/>
					<rect x="211.6" y="154.5" class="st5" width="1.7" height="1.7"/>
					<rect x="211.6" y="157.4" class="st5" width="1.7" height="1.7"/>
					<rect x="211.6" y="160.4" class="st5" width="1.7" height="1.7"/>
					<rect x="208.1" y="142.9" class="st5" width="2.5" height="1.7"/>
					<rect x="208.1" y="145.8" class="st5" width="2.5" height="1.7"/>
					<rect x="208.1" y="148.7" class="st5" width="2.5" height="1.7"/>
					<rect x="208.1" y="151.6" class="st5" width="2.5" height="1.7"/>
					<rect x="208.1" y="154.5" class="st5" width="2.5" height="1.7"/>
					<rect x="208.1" y="157.4" class="st5" width="2.5" height="1.7"/>
					<rect x="208.1" y="160.4" class="st5" width="2.5" height="1.7"/>
					<rect x="360.8" y="146.7" class="st5" width="1.7" height="1.7"/>
					<rect x="360.8" y="149.6" class="st5" width="1.7" height="1.7"/>
					<rect x="360.8" y="152.5" class="st5" width="1.7" height="1.7"/>
					<rect x="360.8" y="155.4" class="st5" width="1.7" height="1.7"/>
					<rect x="360.8" y="158.3" class="st5" width="1.7" height="1.7"/>
					<rect x="360.8" y="161.2" class="st5" width="1.7" height="1.7"/>
					<rect x="360.8" y="164.1" class="st5" width="1.7" height="1.7"/>
					<rect x="360.8" y="167.1" class="st5" width="1.7" height="1.7"/>
					<rect x="360.8" y="170" class="st5" width="1.7" height="1.7"/>
					<rect x="360.8" y="172.9" class="st5" width="1.7" height="1.7"/>
					<rect x="360.8" y="175.8" class="st5" width="1.7" height="1.7"/>
					<rect x="360.8" y="178.7" class="st5" width="1.7" height="1.7"/>
					<rect x="360.8" y="181.6" class="st5" width="1.7" height="1.7"/>
					<rect x="360.8" y="184.6" class="st5" width="1.7" height="1.7"/>
					<rect x="360.8" y="187.5" class="st5" width="1.7" height="1.7"/>
					<rect x="360.8" y="190.4" class="st5" width="1.7" height="1.7"/>
					<rect x="360.8" y="193.3" class="st5" width="1.7" height="1.7"/>
					<rect x="360.8" y="196.2" class="st5" width="1.7" height="1.7"/>
					<rect x="360.8" y="199.1" class="st5" width="1.7" height="1.7"/>
					<rect x="360.8" y="202.1" class="st5" width="1.7" height="1.7"/>
					<rect x="358" y="146.7" class="st5" width="1.7" height="1.7"/>
					<rect x="358" y="149.6" class="st5" width="1.7" height="1.7"/>
					<rect x="358" y="152.5" class="st5" width="1.7" height="1.7"/>
					<rect x="358" y="155.4" class="st5" width="1.7" height="1.7"/>
					<rect x="358" y="158.3" class="st5" width="1.7" height="1.7"/>
					<rect x="358" y="161.2" class="st5" width="1.7" height="1.7"/>
					<rect x="358" y="164.1" class="st5" width="1.7" height="1.7"/>
					<rect x="358" y="167.1" class="st5" width="1.7" height="1.7"/>
					<rect x="358" y="170" class="st5" width="1.7" height="1.7"/>
					<rect x="358" y="172.9" class="st5" width="1.7" height="1.7"/>
					<rect x="358" y="175.8" class="st5" width="1.7" height="1.7"/>
					<rect x="358" y="178.7" class="st5" width="1.7" height="1.7"/>
					<rect x="358" y="181.6" class="st5" width="1.7" height="1.7"/>
					<rect x="358" y="184.6" class="st5" width="1.7" height="1.7"/>
					<rect x="358" y="187.5" class="st5" width="1.7" height="1.7"/>
					<rect x="358" y="190.4" class="st5" width="1.7" height="1.7"/>
					<rect x="358" y="193.3" class="st5" width="1.7" height="1.7"/>
					<rect x="358" y="196.2" class="st5" width="1.7" height="1.7"/>
					<rect x="355.3" y="146.7" class="st5" width="1.7" height="1.7"/>
					<rect x="355.3" y="149.6" class="st5" width="1.7" height="1.7"/>
					<rect x="355.3" y="152.5" class="st5" width="1.7" height="1.7"/>
					<rect x="355.3" y="155.4" class="st5" width="1.7" height="1.7"/>
					<rect x="355.3" y="158.3" class="st5" width="1.7" height="1.7"/>
					<rect x="355.3" y="161.2" class="st5" width="1.7" height="1.7"/>
					<rect x="355.3" y="164.1" class="st5" width="1.7" height="1.7"/>
					<rect x="355.3" y="167.1" class="st5" width="1.7" height="1.7"/>
					<rect x="355.3" y="170" class="st5" width="1.7" height="1.7"/>
					<rect x="355.3" y="172.9" class="st5" width="1.7" height="1.7"/>
					<rect x="355.3" y="175.8" class="st5" width="1.7" height="1.7"/>
					<rect x="355.3" y="178.7" class="st5" width="1.7" height="1.7"/>
					<rect x="355.3" y="181.6" class="st5" width="1.7" height="1.7"/>
					<rect x="355.3" y="184.6" class="st5" width="1.7" height="1.7"/>
					<rect x="355.3" y="187.5" class="st5" width="1.7" height="1.7"/>
					<rect x="355.3" y="190.4" class="st5" width="1.7" height="1.7"/>
					<rect x="355.3" y="193.3" class="st5" width="1.7" height="1.7"/>
					<rect x="355.3" y="196.2" class="st5" width="1.7" height="1.7"/>
					<rect x="371.1" y="167.9" class="st5" width="1.7" height="1.7"/>
					<rect x="371.1" y="170.9" class="st5" width="1.7" height="1.7"/>
					<rect x="371.1" y="173.8" class="st5" width="1.7" height="1.7"/>
					<rect x="371.1" y="176.7" class="st5" width="1.7" height="1.7"/>
					<rect x="371.1" y="179.6" class="st5" width="1.7" height="1.7"/>
					<rect x="371.1" y="182.5" class="st5" width="1.7" height="1.7"/>
					<rect x="371.1" y="185.4" class="st5" width="1.7" height="1.7"/>
					<rect x="371.1" y="188.3" class="st5" width="1.7" height="1.7"/>
					<rect x="371.1" y="191.3" class="st5" width="1.7" height="1.7"/>
					<rect x="371.1" y="194.2" class="st5" width="1.7" height="1.7"/>
					<rect x="371.1" y="197.1" class="st5" width="1.7" height="1.7"/>
					<rect x="371.1" y="200" class="st5" width="1.7" height="1.7"/>
					<rect x="371.1" y="202.9" class="st5" width="1.7" height="1.7"/>
					<rect x="368.4" y="167.9" class="st5" width="1.7" height="1.7"/>
					<rect x="368.4" y="170.9" class="st5" width="1.7" height="1.7"/>
					<rect x="368.4" y="173.8" class="st5" width="1.7" height="1.7"/>
					<rect x="368.4" y="176.7" class="st5" width="1.7" height="1.7"/>
					<rect x="368.4" y="179.6" class="st5" width="1.7" height="1.7"/>
					<rect x="368.4" y="182.5" class="st5" width="1.7" height="1.7"/>
					<rect x="368.4" y="185.4" class="st5" width="1.7" height="1.7"/>
					<rect x="368.4" y="188.3" class="st5" width="1.7" height="1.7"/>
					<rect x="368.4" y="191.3" class="st5" width="1.7" height="1.7"/>
					<rect x="368.4" y="194.2" class="st5" width="1.7" height="1.7"/>
					<rect x="368.4" y="197.1" class="st5" width="1.7" height="1.7"/>
					<rect x="368.4" y="200" class="st5" width="1.7" height="1.7"/>
					<rect x="368.4" y="202.9" class="st5" width="1.7" height="1.7"/>
					<rect x="365.6" y="167.9" class="st5" width="1.7" height="1.7"/>
					<rect x="365.6" y="170.9" class="st5" width="1.7" height="1.7"/>
					<rect x="365.6" y="173.8" class="st5" width="1.7" height="1.7"/>
					<rect x="365.6" y="176.7" class="st5" width="1.7" height="1.7"/>
					<rect x="365.6" y="179.6" class="st5" width="1.7" height="1.7"/>
					<rect x="365.6" y="182.5" class="st5" width="1.7" height="1.7"/>
					<rect x="365.6" y="185.4" class="st5" width="1.7" height="1.7"/>
					<rect x="365.6" y="188.3" class="st5" width="1.7" height="1.7"/>
					<rect x="365.6" y="191.3" class="st5" width="1.7" height="1.7"/>
					<rect x="365.6" y="194.2" class="st5" width="1.7" height="1.7"/>
					<rect x="365.6" y="197.1" class="st5" width="1.7" height="1.7"/>
					<rect x="365.6" y="200" class="st5" width="1.7" height="1.7"/>
					<rect x="365.6" y="202.9" class="st5" width="1.7" height="1.7"/>
					<rect x="365.6" y="205.8" class="st5" width="1.7" height="1.7"/>
					<rect x="350.2" y="168.8" class="st5" width="1.7" height="1.7"/>
					<rect x="350.2" y="171.7" class="st5" width="1.7" height="1.7"/>
					<rect x="350.2" y="174.6" class="st5" width="1.7" height="1.7"/>
					<rect x="350.2" y="177.6" class="st5" width="1.7" height="1.7"/>
					<rect x="350.2" y="180.5" class="st5" width="1.7" height="1.7"/>
					<rect x="350.2" y="183.4" class="st5" width="1.7" height="1.7"/>
					<rect x="350.2" y="186.3" class="st5" width="1.7" height="1.7"/>
					<rect x="350.2" y="189.2" class="st5" width="1.7" height="1.7"/>
					<rect x="350.2" y="192.1" class="st5" width="1.7" height="1.7"/>
					<rect x="350.2" y="195" class="st5" width="1.7" height="1.7"/>
					<rect x="350.2" y="203.8" class="st5" width="1.7" height="1.7"/>
					<rect x="347.5" y="168.8" class="st5" width="1.7" height="1.7"/>
					<rect x="347.5" y="171.7" class="st5" width="1.7" height="1.7"/>
					<rect x="347.5" y="174.6" class="st5" width="1.7" height="1.7"/>
					<rect x="347.5" y="177.6" class="st5" width="1.7" height="1.7"/>
					<rect x="347.5" y="180.5" class="st5" width="1.7" height="1.7"/>
					<rect x="347.5" y="183.4" class="st5" width="1.7" height="1.7"/>
					<rect x="347.5" y="186.3" class="st5" width="1.7" height="1.7"/>
					<rect x="347.5" y="189.2" class="st5" width="1.7" height="1.7"/>
					<rect x="347.5" y="192.1" class="st5" width="1.7" height="1.7"/>
					<rect x="347.5" y="200.9" class="st5" width="1.7" height="1.7"/>
					<rect x="347.5" y="203.8" class="st5" width="1.7" height="1.7"/>
					<rect x="344.7" y="168.8" class="st5" width="1.7" height="1.7"/>
					<rect x="344.7" y="171.7" class="st5" width="1.7" height="1.7"/>
					<rect x="344.7" y="174.6" class="st5" width="1.7" height="1.7"/>
					<rect x="344.7" y="177.6" class="st5" width="1.7" height="1.7"/>
					<rect x="344.7" y="180.5" class="st5" width="1.7" height="1.7"/>
					<rect x="344.7" y="183.4" class="st5" width="1.7" height="1.7"/>
					<rect x="344.7" y="186.3" class="st5" width="1.7" height="1.7"/>
					<rect x="344.7" y="189.2" class="st5" width="1.7" height="1.7"/>
					<rect x="344.7" y="198" class="st5" width="1.7" height="1.7"/>
					<rect x="344.7" y="200.9" class="st5" width="1.7" height="1.7"/>
					<rect x="344.7" y="203.8" class="st5" width="1.7" height="1.7"/>
					<rect x="319" y="124.5" class="st5" width="1.7" height="1.7"/>
					<rect x="319" y="127.4" class="st5" width="1.7" height="1.7"/>
					<rect x="319" y="130.3" class="st5" width="1.7" height="1.7"/>
					<rect x="319" y="133.2" class="st5" width="1.7" height="1.7"/>
					<rect x="319" y="136.2" class="st5" width="1.7" height="1.7"/>
					<rect x="319" y="139.1" class="st5" width="1.7" height="1.7"/>
					<rect x="319" y="142" class="st5" width="1.7" height="1.7"/>
					<rect x="319" y="144.9" class="st5" width="1.7" height="1.7"/>
					<rect x="319" y="147.8" class="st5" width="1.7" height="1.7"/>
					<rect x="319" y="150.7" class="st5" width="1.7" height="1.7"/>
					<rect x="319" y="153.7" class="st5" width="1.7" height="1.7"/>
					<rect x="319" y="156.6" class="st5" width="1.7" height="1.7"/>
					<rect x="319" y="159.5" class="st5" width="1.7" height="1.7"/>
					<rect x="319" y="162.4" class="st5" width="1.7" height="1.7"/>
					<rect x="319" y="165.3" class="st5" width="1.7" height="1.7"/>
					<rect x="319" y="168.2" class="st5" width="1.7" height="1.7"/>
					<rect x="319" y="171.2" class="st5" width="1.7" height="1.7"/>
					<rect x="319" y="177" class="st5" width="1.7" height="1.7"/>
					<rect x="319" y="179.9" class="st5" width="1.7" height="1.7"/>
					<rect x="319" y="182.8" class="st5" width="1.7" height="1.7"/>
					<rect x="319" y="185.7" class="st5" width="1.7" height="1.7"/>
					<rect x="319" y="188.7" class="st5" width="1.7" height="1.7"/>
					<rect x="316.3" y="124.5" class="st5" width="1.7" height="1.7"/>
					<rect x="316.3" y="127.4" class="st5" width="1.7" height="1.7"/>
					<rect x="316.3" y="130.3" class="st5" width="1.7" height="1.7"/>
					<rect x="316.3" y="133.2" class="st5" width="1.7" height="1.7"/>
					<rect x="316.3" y="136.2" class="st5" width="1.7" height="1.7"/>
					<rect x="316.3" y="139.1" class="st5" width="1.7" height="1.7"/>
					<rect x="316.3" y="142" class="st5" width="1.7" height="1.7"/>
					<rect x="316.3" y="144.9" class="st5" width="1.7" height="1.7"/>
					<rect x="316.3" y="147.8" class="st5" width="1.7" height="1.7"/>
					<rect x="316.3" y="150.7" class="st5" width="1.7" height="1.7"/>
					<rect x="316.3" y="153.7" class="st5" width="1.7" height="1.7"/>
					<rect x="316.3" y="156.6" class="st5" width="1.7" height="1.7"/>
					<rect x="316.3" y="159.5" class="st5" width="1.7" height="1.7"/>
					<rect x="316.3" y="162.4" class="st5" width="1.7" height="1.7"/>
					<rect x="316.3" y="165.3" class="st5" width="1.7" height="1.7"/>
					<rect x="316.3" y="168.2" class="st5" width="1.7" height="1.7"/>
					<rect x="316.3" y="185.7" class="st5" width="1.7" height="1.7"/>
					<rect x="316.3" y="188.7" class="st5" width="1.7" height="1.7"/>
					<rect x="313.5" y="124.5" class="st5" width="1.7" height="1.7"/>
					<rect x="313.5" y="127.4" class="st5" width="1.7" height="1.7"/>
					<rect x="313.5" y="130.3" class="st5" width="1.7" height="1.7"/>
					<rect x="313.5" y="133.2" class="st5" width="1.7" height="1.7"/>
					<rect x="313.5" y="136.2" class="st5" width="1.7" height="1.7"/>
					<rect x="313.5" y="139.1" class="st5" width="1.7" height="1.7"/>
					<rect x="313.5" y="142" class="st5" width="1.7" height="1.7"/>
					<rect x="313.5" y="144.9" class="st5" width="1.7" height="1.7"/>
					<rect x="313.5" y="147.8" class="st5" width="1.7" height="1.7"/>
					<rect x="313.5" y="150.7" class="st5" width="1.7" height="1.7"/>
					<rect x="313.5" y="153.7" class="st5" width="1.7" height="1.7"/>
					<rect x="313.5" y="156.6" class="st5" width="1.7" height="1.7"/>
					<rect x="313.5" y="159.5" class="st5" width="1.7" height="1.7"/>
					<rect x="313.5" y="162.4" class="st5" width="1.7" height="1.7"/>
					<rect x="313.5" y="165.3" class="st5" width="1.7" height="1.7"/>
					<rect x="313.5" y="168.2" class="st5" width="1.7" height="1.7"/>
					<rect x="313.5" y="174.1" class="st5" width="1.7" height="1.7"/>
					<rect x="313.5" y="177" class="st5" width="1.7" height="1.7"/>
					<rect x="313.5" y="179.9" class="st5" width="1.7" height="1.7"/>
					<rect x="313.5" y="182.8" class="st5" width="1.7" height="1.7"/>
					<rect x="313.5" y="188.7" class="st5" width="1.7" height="1.7"/>
					<rect x="329.1" y="161.2" class="st5" width="1.7" height="1.7"/>
					<rect x="329.1" y="164.1" class="st5" width="1.7" height="1.7"/>
					<rect x="329.1" y="167.1" class="st5" width="1.7" height="1.7"/>
					<rect x="329.1" y="170" class="st5" width="1.7" height="1.7"/>
					<rect x="329.1" y="172.9" class="st5" width="1.7" height="1.7"/>
					<rect x="329.1" y="175.8" class="st5" width="1.7" height="1.7"/>
					<rect x="329.1" y="178.7" class="st5" width="1.7" height="1.7"/>
					<rect x="329.1" y="184.6" class="st5" width="1.7" height="1.7"/>
					<rect x="329.1" y="187.5" class="st5" width="1.7" height="1.7"/>
					<rect x="329.1" y="190.4" class="st5" width="1.7" height="1.7"/>
					<rect x="329.1" y="193.3" class="st5" width="1.7" height="1.7"/>
					<rect x="329.1" y="196.2" class="st5" width="1.7" height="1.7"/>
					<rect x="329.1" y="199.1" class="st5" width="1.7" height="1.7"/>
					<rect x="329.1" y="202.1" class="st5" width="1.7" height="1.7"/>
					<rect x="329.1" y="205" class="st5" width="1.7" height="1.7"/>
					<rect x="326.3" y="161.2" class="st5" width="1.7" height="1.7"/>
					<rect x="326.3" y="164.1" class="st5" width="1.7" height="1.7"/>
					<rect x="326.3" y="167.1" class="st5" width="1.7" height="1.7"/>
					<rect x="326.3" y="170" class="st5" width="1.7" height="1.7"/>
					<rect x="326.3" y="172.9" class="st5" width="1.7" height="1.7"/>
					<rect x="326.3" y="175.8" class="st5" width="1.7" height="1.7"/>
					<rect x="326.3" y="184.6" class="st5" width="1.7" height="1.7"/>
					<rect x="326.3" y="187.5" class="st5" width="1.7" height="1.7"/>
					<rect x="326.3" y="190.4" class="st5" width="1.7" height="1.7"/>
					<rect x="326.3" y="193.3" class="st5" width="1.7" height="1.7"/>
					<rect x="326.3" y="196.2" class="st5" width="1.7" height="1.7"/>
					<rect x="326.3" y="199.1" class="st5" width="1.7" height="1.7"/>
					<rect x="326.3" y="202.1" class="st5" width="1.7" height="1.7"/>
					<rect x="326.3" y="205" class="st5" width="1.7" height="1.7"/>
					<rect x="323.5" y="161.2" class="st5" width="1.7" height="1.7"/>
					<rect x="323.5" y="164.1" class="st5" width="1.7" height="1.7"/>
					<rect x="323.5" y="167.1" class="st5" width="1.7" height="1.7"/>
					<rect x="323.5" y="170" class="st5" width="1.7" height="1.7"/>
					<rect x="323.5" y="172.9" class="st5" width="1.7" height="1.7"/>
					<rect x="323.5" y="175.8" class="st5" width="1.7" height="1.7"/>
					<rect x="323.5" y="181.6" class="st5" width="1.7" height="1.7"/>
					<rect x="323.5" y="184.6" class="st5" width="1.7" height="1.7"/>
					<rect x="323.5" y="187.5" class="st5" width="1.7" height="1.7"/>
					<rect x="323.5" y="190.4" class="st5" width="1.7" height="1.7"/>
					<rect x="323.5" y="193.3" class="st5" width="1.7" height="1.7"/>
					<rect x="323.5" y="196.2" class="st5" width="1.7" height="1.7"/>
					<rect x="323.5" y="199.1" class="st5" width="1.7" height="1.7"/>
					<rect x="323.5" y="202.1" class="st5" width="1.7" height="1.7"/>
					<rect x="323.5" y="205" class="st5" width="1.7" height="1.7"/>
					<rect x="265.3" y="144.9" class="st5" width="1.7" height="1.7"/>
					<rect x="265.3" y="147.8" class="st5" width="1.7" height="1.7"/>
					<rect x="265.3" y="150.7" class="st5" width="1.7" height="1.7"/>
					<rect x="265.3" y="153.7" class="st5" width="1.7" height="1.7"/>
					<rect x="265.3" y="156.6" class="st5" width="1.7" height="1.7"/>
					<rect x="265.3" y="159.5" class="st5" width="1.7" height="1.7"/>
					<rect x="265.3" y="162.4" class="st5" width="1.7" height="1.7"/>
					<rect x="265.3" y="165.3" class="st5" width="1.7" height="1.7"/>
					<rect x="265.3" y="168.2" class="st5" width="1.7" height="1.7"/>
					<rect x="265.3" y="171.2" class="st5" width="1.7" height="1.7"/>
					<rect x="265.3" y="174.1" class="st5" width="1.7" height="1.7"/>
					<rect x="265.3" y="177" class="st5" width="1.7" height="1.7"/>
					<rect x="265.3" y="179.9" class="st5" width="1.7" height="1.7"/>
					<rect x="265.3" y="185.7" class="st5" width="1.7" height="1.7"/>
					<rect x="265.3" y="188.7" class="st5" width="1.7" height="1.7"/>
					<rect x="265.3" y="191.6" class="st5" width="1.7" height="1.7"/>
					<rect x="265.3" y="194.5" class="st5" width="1.7" height="1.7"/>
					<rect x="265.3" y="200.3" class="st5" width="1.7" height="1.7"/>
					<rect x="265.3" y="203.2" class="st5" width="1.7" height="1.7"/>
					<rect x="265.3" y="206.2" class="st5" width="1.7" height="1.7"/>
					<rect x="262.6" y="144.9" class="st5" width="1.7" height="1.7"/>
					<rect x="262.6" y="147.8" class="st5" width="1.7" height="1.7"/>
					<rect x="262.6" y="150.7" class="st5" width="1.7" height="1.7"/>
					<rect x="262.6" y="153.7" class="st5" width="1.7" height="1.7"/>
					<rect x="262.6" y="156.6" class="st5" width="1.7" height="1.7"/>
					<rect x="262.6" y="159.5" class="st5" width="1.7" height="1.7"/>
					<rect x="262.6" y="162.4" class="st5" width="1.7" height="1.7"/>
					<rect x="262.6" y="165.3" class="st5" width="1.7" height="1.7"/>
					<rect x="262.6" y="168.2" class="st5" width="1.7" height="1.7"/>
					<rect x="262.6" y="171.2" class="st5" width="1.7" height="1.7"/>
					<rect x="262.6" y="174.1" class="st5" width="1.7" height="1.7"/>
					<rect x="262.6" y="177" class="st5" width="1.7" height="1.7"/>
					<rect x="262.6" y="179.9" class="st5" width="1.7" height="1.7"/>
					<rect x="262.6" y="188.7" class="st5" width="1.7" height="1.7"/>
					<rect x="262.6" y="191.6" class="st5" width="1.7" height="1.7"/>
					<rect x="262.6" y="197.4" class="st5" width="1.7" height="1.7"/>
					<rect x="262.6" y="200.3" class="st5" width="1.7" height="1.7"/>
					<rect x="262.6" y="203.2" class="st5" width="1.7" height="1.7"/>
					<rect x="262.6" y="206.2" class="st5" width="1.7" height="1.7"/>
					<rect x="259.8" y="144.9" class="st5" width="1.7" height="1.7"/>
					<rect x="259.8" y="147.8" class="st5" width="1.7" height="1.7"/>
					<rect x="259.8" y="150.7" class="st5" width="1.7" height="1.7"/>
					<rect x="259.8" y="153.7" class="st5" width="1.7" height="1.7"/>
					<rect x="259.8" y="156.6" class="st5" width="1.7" height="1.7"/>
					<rect x="259.8" y="159.5" class="st5" width="1.7" height="1.7"/>
					<rect x="259.8" y="162.4" class="st5" width="1.7" height="1.7"/>
					<rect x="259.8" y="165.3" class="st5" width="1.7" height="1.7"/>
					<rect x="259.8" y="168.2" class="st5" width="1.7" height="1.7"/>
					<rect x="259.8" y="171.2" class="st5" width="1.7" height="1.7"/>
					<rect x="259.8" y="174.1" class="st5" width="1.7" height="1.7"/>
					<rect x="259.8" y="177" class="st5" width="1.7" height="1.7"/>
					<rect x="259.8" y="179.9" class="st5" width="1.7" height="1.7"/>
					<rect x="259.8" y="182.8" class="st5" width="1.7" height="1.7"/>
					<rect x="259.8" y="188.7" class="st5" width="1.7" height="1.7"/>
					<rect x="259.8" y="194.5" class="st5" width="1.7" height="1.7"/>
					<rect x="259.8" y="197.4" class="st5" width="1.7" height="1.7"/>
					<rect x="259.8" y="200.3" class="st5" width="1.7" height="1.7"/>
					<rect x="259.8" y="203.2" class="st5" width="1.7" height="1.7"/>
					<rect x="259.8" y="206.2" class="st5" width="1.7" height="1.7"/>
					<rect x="276.6" y="161.5" class="st5" width="1.7" height="1.7"/>
					<rect x="276.6" y="164.5" class="st5" width="1.7" height="1.7"/>
					<rect x="276.6" y="167.4" class="st5" width="1.7" height="1.7"/>
					<rect x="276.6" y="170.3" class="st5" width="1.7" height="1.7"/>
					<rect x="276.6" y="173.2" class="st5" width="1.7" height="1.7"/>
					<rect x="276.6" y="176.1" class="st5" width="1.7" height="1.7"/>
					<rect x="276.6" y="184.9" class="st5" width="1.7" height="1.7"/>
					<rect x="276.6" y="187.8" class="st5" width="1.7" height="1.7"/>
					<rect x="276.6" y="190.7" class="st5" width="1.7" height="1.7"/>
					<rect x="276.6" y="193.6" class="st5" width="1.7" height="1.7"/>
					<rect x="276.6" y="196.5" class="st5" width="1.7" height="1.7"/>
					<rect x="276.6" y="199.4" class="st5" width="1.7" height="1.7"/>
					<rect x="276.6" y="202.4" class="st5" width="1.7" height="1.7"/>
					<rect x="273.8" y="161.5" class="st5" width="1.7" height="1.7"/>
					<rect x="273.8" y="164.5" class="st5" width="1.7" height="1.7"/>
					<rect x="273.8" y="167.4" class="st5" width="1.7" height="1.7"/>
					<rect x="273.8" y="170.3" class="st5" width="1.7" height="1.7"/>
					<rect x="273.8" y="173.2" class="st5" width="1.7" height="1.7"/>
					<rect x="273.8" y="176.1" class="st5" width="1.7" height="1.7"/>
					<rect x="273.8" y="184.9" class="st5" width="1.7" height="1.7"/>
					<rect x="273.8" y="187.8" class="st5" width="1.7" height="1.7"/>
					<rect x="273.8" y="190.7" class="st5" width="1.7" height="1.7"/>
					<rect x="273.8" y="193.6" class="st5" width="1.7" height="1.7"/>
					<rect x="273.8" y="196.5" class="st5" width="1.7" height="1.7"/>
					<rect x="273.8" y="199.4" class="st5" width="1.7" height="1.7"/>
					<rect x="273.8" y="205.3" class="st5" width="1.7" height="1.7"/>
				</g>
			</g>
			<g>
				<rect x="207.6" y="66.2" class="st4" width="3.5" height="189.5"/>
				<rect x="263.1" y="66.2" class="st4" width="2.9" height="189.5"/>
				<rect x="318" y="66.2" class="st4" width="2.9" height="189.5"/>
			</g>
		</g>
		<g>
			<circle class="st7" cx="103.5" cy="38.1" r="14.2"/>
			<circle class="st6" cx="103.5" cy="38.1" r="12"/>
			<g>
				<polyline class="st6" points="104.1,29.8 104.1,38.2 109.7,35.1 				"/>
				<path class="st7" d="M104.1,39.2c-0.2,0-0.3,0-0.5-0.1c-0.3-0.2-0.5-0.5-0.5-0.9v-8.4c0-0.6,0.4-1,1-1c0.6,0,1,0.4,1,1v6.7
					l4.1-2.3c0.5-0.3,1.1-0.1,1.4,0.4c0.3,0.5,0.1,1.1-0.4,1.4l-5.6,3.2C104.4,39.2,104.3,39.2,104.1,39.2z"/>
			</g>
		</g>
		<g>
			<rect x="40.3" y="138.9" class="st7" width="22.5" height="189"/>
			<rect x="60.3" y="138.9" class="st4" width="63.2" height="189"/>
			<rect x="66.8" y="145.3" class="st5" width="50.3" height="50.3"/>
			<path class="st7" d="M105.5,174.9H78.3c-0.8,0-1.4-0.6-1.4-1.4l0,0c0-0.8,0.6-1.4,1.4-1.4h27.2c0.8,0,1.4,0.6,1.4,1.4l0,0
				C106.9,174.3,106.3,174.9,105.5,174.9z"/>
			<path class="st7" d="M105.5,180.4H78.3c-0.8,0-1.4-0.6-1.4-1.4l0,0c0-0.8,0.6-1.4,1.4-1.4h27.2c0.8,0,1.4,0.6,1.4,1.4l0,0
				C106.9,179.8,106.3,180.4,105.5,180.4z"/>
			<path class="st7" d="M105.5,186H78.3c-0.8,0-1.4-0.6-1.4-1.4l0,0c0-0.8,0.6-1.4,1.4-1.4h27.2c0.8,0,1.4,0.6,1.4,1.4l0,0
				C106.9,185.3,106.3,186,105.5,186z"/>
			<polygon class="st4" points="97.3,164.7 86.5,164.7 83.7,161.9 83.7,155.8 86.5,153 97.3,153 100.1,155.8 100.1,161.9 			"/>
			<rect x="66.8" y="200.4" class="st5" width="50.3" height="50.3"/>
			<path class="st7" d="M105.5,230H78.3c-0.8,0-1.4-0.6-1.4-1.4l0,0c0-0.8,0.6-1.4,1.4-1.4h27.2c0.8,0,1.4,0.6,1.4,1.4l0,0
				C106.9,229.4,106.3,230,105.5,230z"/>
			<path class="st7" d="M105.5,235.5H78.3c-0.8,0-1.4-0.6-1.4-1.4l0,0c0-0.8,0.6-1.4,1.4-1.4h27.2c0.8,0,1.4,0.6,1.4,1.4l0,0
				C106.9,234.9,106.3,235.5,105.5,235.5z"/>
			<path class="st7" d="M105.5,241.1H78.3c-0.8,0-1.4-0.6-1.4-1.4l0,0c0-0.8,0.6-1.4,1.4-1.4h27.2c0.8,0,1.4,0.6,1.4,1.4l0,0
				C106.9,240.4,106.3,241.1,105.5,241.1z"/>
			<polygon class="st4" points="97.3,219.8 86.5,219.8 83.7,217 83.7,210.9 86.5,208.1 97.3,208.1 100.1,210.9 100.1,217 			"/>
			<rect x="66.8" y="255.5" class="st5" width="50.3" height="50.3"/>
			<path class="st7" d="M105.5,285.1H78.3c-0.8,0-1.4-0.6-1.4-1.4l0,0c0-0.8,0.6-1.4,1.4-1.4h27.2c0.8,0,1.4,0.6,1.4,1.4l0,0
				C106.9,284.5,106.3,285.1,105.5,285.1z"/>
			<path class="st7" d="M105.5,290.6H78.3c-0.8,0-1.4-0.6-1.4-1.4l0,0c0-0.8,0.6-1.4,1.4-1.4h27.2c0.8,0,1.4,0.6,1.4,1.4l0,0
				C106.9,290,106.3,290.6,105.5,290.6z"/>
			<path class="st7" d="M105.5,296.2H78.3c-0.8,0-1.4-0.6-1.4-1.4l0,0c0-0.8,0.6-1.4,1.4-1.4h27.2c0.8,0,1.4,0.6,1.4,1.4l0,0
				C106.9,295.6,106.3,296.2,105.5,296.2z"/>
			<polygon class="st4" points="97.3,274.9 86.5,274.9 83.7,272.1 83.7,266 86.5,263.2 97.3,263.2 100.1,266 100.1,272.1 			"/>
		</g>
		<ellipse id="_x3C_Path_x3E__359_" class="st8" cx="211.8" cy="361.3" rx="193.9" ry="11.3"/>
		<path class="st9" d="M346.9,269.5c0.2,1.5-3.8,2.4-7,3c0.3,2.7,2,5.4,4.5,7.9c3.1-1.7,7.5-4,8.3-3.5c0.9,0.6-3.6,3.5-6.4,5.2
			c2,1.8,4.2,3.4,6.4,4.8c1.4-1.3,3-2.4,4-1.8c1,0.6,0.7,2.6,0.2,4.4c3.4,2,5.9,3.1,5.9,3.1s1.4-4.3,2.2-9.5c-0.2-0.3-0.3-0.7-0.5-1
			c-0.5-1.3,0-1.8,0.9-2c0.2-2.3,0.3-4.7,0.1-6.9c-3.8-0.8-8.4-2.3-6.7-4.6c1-1.4,3-1.5,4.9-1.2c-0.3-0.5-0.6-0.9-0.9-1.3
			c-6.9-7.6-11.7,0-11.7,0c-4-3.3-9.7-2.4-10.9,2.8C342.3,268.5,346.6,267.7,346.9,269.5z"/>
		<g>
			<g>
				<path class="st10" d="M355.5,325.5l-1-0.1c0-0.5,4.1-51.5-7.4-56.3c-1.2-0.5-2.4-0.5-3.5,0.1c-4.1,2.2-6.1,11.1-6.1,11.2l-1-0.2
					c0.1-0.4,2.1-9.5,6.7-11.8c1.4-0.7,2.8-0.8,4.3-0.1C359.6,273.2,355.7,323.3,355.5,325.5z"/>
			</g>
			<g>
				<path class="st10" d="M356.9,324.4c-0.2-2.3-4.9-56.3,3.9-62c2.1-1.4,4-1.7,5.5-0.9c4.1,2.1,4.7,10.9,4.7,11.3l-1,0.1
					c0-0.1-0.5-8.6-4.1-10.4c-1.2-0.6-2.8-0.4-4.5,0.8c-8.2,5.4-3.5,60.5-3.4,61.1L356.9,324.4z"/>
			</g>
			<g>
				<path class="st10" d="M358.3,328.7c-0.1-1.8-1.5-43.1,6.5-46.7c1.6-0.7,3.2-0.7,4.7,0c5.5,2.4,8.8,12.6,9,13l-1,0.3
					c0-0.1-3.4-10.2-8.4-12.4c-1.3-0.6-2.6-0.6-3.9,0c-6.1,2.8-6.3,34-5.9,45.7L358.3,328.7z"/>
			</g>
			<g>
				<path class="st10" d="M356.2,326.8l-1-0.1c1.4-12.3,4.1-45.1-0.3-49c-0.7-0.6-1.2-0.8-1.8-0.6c-2.9,1.1-4.7,11.8-5.2,15.8
					l-1-0.1c0.2-1.5,1.8-15.1,5.8-16.6c0.9-0.4,1.9-0.1,2.8,0.7C361.3,282.1,356.4,325,356.2,326.8z"/>
			</g>
		</g>
		<g>
			<polygon class="st11" points="339.5,303.5 375.5,303.5 372.5,343.8 342.5,343.8 			"/>
		</g>
		<path class="st9" d="M344.4,288.8c-0.4,1-3.2,0.2-5.4-0.6c-0.8,1.7-0.6,4,0.1,6.4c2.5,0,6,0.1,6.3,0.7c0.3,0.7-3.4,0.9-5.8,1
			c0.6,1.8,1.4,3.5,2.3,5.2c1.3-0.3,2.7-0.5,3.1,0.2c0.4,0.7-0.5,1.9-1.4,2.8c1.4,2.4,2.5,4,2.5,4s2.3-2.2,4.7-5.1
			c0-0.3,0-0.5,0-0.8c0.1-1,0.6-1.1,1.2-0.9c0.9-1.3,1.8-2.8,2.4-4.2c-2.1-1.8-4.4-4.3-2.6-5.1c1.1-0.5,2.3,0.1,3.5,1
			c0-0.4-0.1-0.7-0.1-1.1c-1.7-7.1-7.2-4-7.2-4c-1.3-3.4-5.1-4.8-7.7-2C341.9,286.6,344.9,287.5,344.4,288.8z"/>
		<path class="st12" d="M344.4,288.8c-0.4,1-3.2,0.2-5.4-0.6c-0.8,1.7-0.6,4,0.1,6.4c2.5,0,6,0.1,6.3,0.7c0.3,0.7-3.4,0.9-5.8,1
			c0.6,1.8,1.4,3.5,2.3,5.2c1.3-0.3,2.7-0.5,3.1,0.2c0.4,0.7-0.5,1.9-1.4,2.8c1.4,2.4,2.5,4,2.5,4s2.3-2.2,4.7-5.1
			c0-0.3,0-0.5,0-0.8c0.1-1,0.6-1.1,1.2-0.9c0.9-1.3,1.8-2.8,2.4-4.2c-2.1-1.8-4.4-4.3-2.6-5.1c1.1-0.5,2.3,0.1,3.5,1
			c0-0.4-0.1-0.7-0.1-1.1c-1.7-7.1-7.2-4-7.2-4c-1.3-3.4-5.1-4.8-7.7-2C341.9,286.6,344.9,287.5,344.4,288.8z"/>
		<path class="st13" d="M371.1,293.5c-1.1,0.1-2.2,0.3-3.3,0.7c-0.3-0.8-0.5-1.5-0.5-2.4c-0.2-7.2,5-4.2,7.7-6.3
			c1.4-1.1,3-1.7,4.6-1.4c-0.2,0.4-0.4,0.8-0.6,1.2c-0.3,0.7,0.2,1.4,0.9,1.5c0.7,0.1,1.4,0.1,2-0.2c0.2-0.1,0.4-0.2,0.5-0.4
			c0.4,0.6,0.7,1.4,1,2.4c0.3,1,0.4,2.1,0.5,3.1c-0.4,0.1-0.8,0.2-1.2,0.3c-0.6,0.2-1,1.2-0.5,1.7c0.4,0.4,0.9,0.8,1.5,1
			c-0.2,1.2-0.5,2.3-0.9,3.4c-0.1,0-0.2,0-0.4,0.1c-0.3,0.1-0.5,0.1-0.8,0.2c-0.1,0-0.3,0.1-0.4,0.2c-0.4,0.2-0.6,0.5-0.7,0.9
			c-0.1,0.4,0.1,0.8,0.4,1c0.2,0.1,0.4,0.2,0.5,0.3c-0.8,1.3-1.8,2.3-2.9,2.9c0,0-1.3-0.6-3.1-1.6c0.2-0.3,0.4-0.6,0.6-0.9
			c0.2-0.4,0.3-0.7,0.3-1.1c0-0.4-0.3-0.8-0.6-1c-0.3-0.2-0.8-0.4-1.1-0.3c-0.4,0-0.8,0.3-1,0.6c-0.2,0.4-0.5,0.7-0.8,1
			c-1.3-1-2.6-2.2-3.7-3.6c0,0,0.1,0,0.1,0c0.7-0.2,1.4-0.3,2-0.3c0.9-0.1,1.4-0.9,1.3-1.7C372.8,294,371.9,293.5,371.1,293.5z"/>
		<path class="st14" d="M371.1,293.5c-1.1,0.1-2.2,0.3-3.3,0.7c-0.3-0.8-0.5-1.5-0.5-2.4c-0.2-7.2,5-4.2,7.7-6.3
			c1.4-1.1,3-1.7,4.6-1.4c-0.2,0.4-0.4,0.8-0.6,1.2c-0.3,0.7,0.2,1.4,0.9,1.5c0.7,0.1,1.4,0.1,2-0.2c0.2-0.1,0.4-0.2,0.5-0.4
			c0.4,0.6,0.7,1.4,1,2.4c0.3,1,0.4,2.1,0.5,3.1c-0.4,0.1-0.8,0.2-1.2,0.3c-0.6,0.2-1,1.2-0.5,1.7c0.4,0.4,0.9,0.8,1.5,1
			c-0.2,1.2-0.5,2.3-0.9,3.4c-0.1,0-0.2,0-0.4,0.1c-0.3,0.1-0.5,0.1-0.8,0.2c-0.1,0-0.3,0.1-0.4,0.2c-0.4,0.2-0.6,0.5-0.7,0.9
			c-0.1,0.4,0.1,0.8,0.4,1c0.2,0.1,0.4,0.2,0.5,0.3c-0.8,1.3-1.8,2.3-2.9,2.9c0,0-1.3-0.6-3.1-1.6c0.2-0.3,0.4-0.6,0.6-0.9
			c0.2-0.4,0.3-0.7,0.3-1.1c0-0.4-0.3-0.8-0.6-1c-0.3-0.2-0.8-0.4-1.1-0.3c-0.4,0-0.8,0.3-1,0.6c-0.2,0.4-0.5,0.7-0.8,1
			c-1.3-1-2.6-2.2-3.7-3.6c0,0,0.1,0,0.1,0c0.7-0.2,1.4-0.3,2-0.3c0.9-0.1,1.4-0.9,1.3-1.7C372.8,294,371.9,293.5,371.1,293.5z"/>
		<path class="st9" d="M373.2,268.5c0.6-0.5,1.3-0.8,2-1.1c-0.2-0.5-0.4-1-0.8-1.5c-3.1-3.9-4.4,0-6.8,0.1c-1.2,0-2.4,0.4-3,1.3
			c0.3,0.1,0.6,0.2,0.9,0.4c0.5,0.2,0.5,0.8,0.2,1.2c-0.3,0.4-0.7,0.7-1.2,0.8c-0.1,0-0.3,0-0.4,0c0.1,0.5,0.3,1.1,0.5,1.7
			c0.3,0.7,0.7,1.3,1.1,1.8c0.3-0.1,0.5-0.3,0.8-0.4c0.4-0.2,1,0.2,1,0.7c0,0.4-0.1,0.8-0.3,1.2c0.6,0.5,1.3,1,2,1.4
			c0.1,0,0.1-0.1,0.2-0.1c0.2-0.1,0.3-0.2,0.5-0.2c0.1,0,0.2-0.1,0.3-0.1c0.3-0.1,0.5,0,0.7,0.2c0.2,0.2,0.3,0.5,0.2,0.7
			c0,0.1-0.1,0.3-0.1,0.4c1,0.3,2,0.4,2.8,0.3c0,0,0.4-0.9,0.9-2.2c-0.2-0.1-0.5-0.1-0.7-0.2c-0.3-0.1-0.5-0.2-0.7-0.5
			c-0.2-0.2-0.2-0.5-0.1-0.8c0-0.3,0.2-0.5,0.5-0.7c0.2-0.1,0.5-0.2,0.8-0.1c0.3,0.1,0.6,0.1,0.9,0.2c0.3-1.1,0.4-2.3,0.4-3.5
			c0,0-0.1,0-0.1,0c-0.4,0.2-0.8,0.4-1.2,0.7c-0.5,0.3-1.1,0.1-1.5-0.3C372.5,269.5,372.7,268.9,373.2,268.5z"/>
		<path class="st12" d="M373.2,268.5c0.6-0.5,1.3-0.8,2-1.1c-0.2-0.5-0.4-1-0.8-1.5c-3.1-3.9-4.4,0-6.8,0.1c-1.2,0-2.4,0.4-3,1.3
			c0.3,0.1,0.6,0.2,0.9,0.4c0.5,0.2,0.5,0.8,0.2,1.2c-0.3,0.4-0.7,0.7-1.2,0.8c-0.1,0-0.3,0-0.4,0c0.1,0.5,0.3,1.1,0.5,1.7
			c0.3,0.7,0.7,1.3,1.1,1.8c0.3-0.1,0.5-0.3,0.8-0.4c0.4-0.2,1,0.2,1,0.7c0,0.4-0.1,0.8-0.3,1.2c0.6,0.5,1.3,1,2,1.4
			c0.1,0,0.1-0.1,0.2-0.1c0.2-0.1,0.3-0.2,0.5-0.2c0.1,0,0.2-0.1,0.3-0.1c0.3-0.1,0.5,0,0.7,0.2c0.2,0.2,0.3,0.5,0.2,0.7
			c0,0.1-0.1,0.3-0.1,0.4c1,0.3,2,0.4,2.8,0.3c0,0,0.4-0.9,0.9-2.2c-0.2-0.1-0.5-0.1-0.7-0.2c-0.3-0.1-0.5-0.2-0.7-0.5
			c-0.2-0.2-0.2-0.5-0.1-0.8c0-0.3,0.2-0.5,0.5-0.7c0.2-0.1,0.5-0.2,0.8-0.1c0.3,0.1,0.6,0.1,0.9,0.2c0.3-1.1,0.4-2.3,0.4-3.5
			c0,0-0.1,0-0.1,0c-0.4,0.2-0.8,0.4-1.2,0.7c-0.5,0.3-1.1,0.1-1.5-0.3C372.5,269.5,372.7,268.9,373.2,268.5z"/>
		<path class="st13" d="M343.9,275.8c-0.2,1.5,3.8,2.4,7,3c-0.3,2.7-2,5.4-4.5,7.9c-3.1-1.7-7.5-4-8.3-3.5c-0.9,0.6,3.6,3.5,6.4,5.2
			c-2,1.8-4.2,3.4-6.4,4.8c-1.4-1.3-3-2.4-4-1.8c-1,0.6-0.7,2.6-0.2,4.4c-3.4,2-5.9,3.1-5.9,3.1s-1.4-4.3-2.2-9.5
			c0.2-0.3,0.3-0.7,0.5-1c0.5-1.3,0-1.8-0.9-2c-0.2-2.3-0.3-4.7-0.1-6.9c3.8-0.8,8.4-2.3,6.7-4.5c-1-1.4-3-1.5-4.9-1.2
			c0.3-0.5,0.6-0.9,0.9-1.3c6.9-7.6,11.7,0,11.7,0c4-3.3,9.7-2.4,10.9,2.8C348.5,274.8,344.2,274,343.9,275.8z"/>
		<path class="st14" d="M343.9,275.8c-0.2,1.5,3.8,2.4,7,3c-0.3,2.7-2,5.4-4.5,7.9c-3.1-1.7-7.5-4-8.3-3.5c-0.9,0.6,3.6,3.5,6.4,5.2
			c-2,1.8-4.2,3.4-6.4,4.8c-1.4-1.3-3-2.4-4-1.8c-1,0.6-0.7,2.6-0.2,4.4c-3.4,2-5.9,3.1-5.9,3.1s-1.4-4.3-2.2-9.5
			c0.2-0.3,0.3-0.7,0.5-1c0.5-1.3,0-1.8-0.9-2c-0.2-2.3-0.3-4.7-0.1-6.9c3.8-0.8,8.4-2.3,6.7-4.5c-1-1.4-3-1.5-4.9-1.2
			c0.3-0.5,0.6-0.9,0.9-1.3c6.9-7.6,11.7,0,11.7,0c4-3.3,9.7-2.4,10.9,2.8C348.5,274.8,344.2,274,343.9,275.8z"/>
		<g>
			<path class="st11" d="M151.9,358.1l-25.2-9.3l-25.5,9.3c-0.9,0.3-1.8-0.3-1.8-1.3l0,0c0-0.5,0.3-1,0.8-1.2l26.5-12.3l26.2,12.3
				c0.5,0.2,0.8,0.7,0.8,1.2l0,0C153.7,357.8,152.7,358.4,151.9,358.1z"/>
			<path class="st15" d="M151.9,358.1l-25.2-9.3l-25.5,9.3c-0.9,0.3-1.8-0.3-1.8-1.3l0,0c0-0.5,0.3-1,0.8-1.2l26.5-12.3l26.2,12.3
				c0.5,0.2,0.8,0.7,0.8,1.2l0,0C153.7,357.8,152.7,358.4,151.9,358.1z"/>
			<polygon class="st16" points="120.7,351 126.7,348.8 132.3,350.9 132.3,346 126.7,343.3 120.7,346.1 			"/>
			<path class="st11" d="M126.5,358.3L126.5,358.3c-1.2,0-2.1-0.9-2.2-2l-0.7-7.5v-62h5.9v62l-0.7,7.5
				C128.6,357.4,127.7,358.3,126.5,358.3z"/>
			<path class="st15" d="M126.5,358.3L126.5,358.3c-1.2,0-2.1-0.9-2.2-2l-0.7-7.5v-62h5.9v62l-0.7,7.5
				C128.6,357.4,127.7,358.3,126.5,358.3z"/>
			<rect x="123.6" y="286.8" class="st16" width="5.9" height="7.2"/>
		</g>
		<path class="st9" d="M113.3,222.9c0.8,0,1.7,0.4,2.2,1.3c10.8,17.9,14.6,39.4,10.9,60c-0.2,1.3-1.1,1.9-2.1,2
			c-1.6,0.1-30.6,0-31.7,0c-1.6,0-3.3-1.3-2.9-3.4c3.5-19.1-0.3-39.2-10.3-55.8c-1.2-2.1,0.6-4,2.4-4
			C82.7,222.9,111.5,223,113.3,222.9z"/>
		<path class="st16" d="M113.3,222.9c0.8,0,1.7,0.4,2.2,1.3c10.8,17.9,14.6,39.4,10.9,60c-0.2,1.3-1.1,1.9-2.1,2
			c-1.6,0.1-30.6,0-31.7,0c-1.6,0-3.3-1.3-2.9-3.4c3.5-19.1-0.3-39.2-10.3-55.8c-1.2-2.1,0.6-4,2.4-4
			C82.7,222.9,111.5,223,113.3,222.9z"/>
		<g>
			<path class="st13" d="M89.7,282.7c3.5-19.1-0.3-39.2-10.3-55.8c-1.8-3,2.9-5.7,4.7-2.7c10.8,17.9,14.6,39.4,10.9,60
				C94.3,287.6,89.1,286.2,89.7,282.7L89.7,282.7z"/>
		</g>
		<g class="st17">
			<path class="st18" d="M89.7,282.7c3.5-19.1-0.3-39.2-10.3-55.8c-1.8-3,2.9-5.7,4.7-2.7c10.8,17.9,14.6,39.4,10.9,60
				C94.3,287.6,89.1,286.2,89.7,282.7L89.7,282.7z"/>
		</g>
		<path class="st9" d="M180.2,281.2c-6.7-1.7-13.5-2.6-20.3-2.8c-7.1-0.2-33.5,0-39.8,0c-7.6,0-15.3,0.9-22.7,2.8
			c-4.7,1.2-3.2,7.9,1,8c0.4,0,80.3,0,80.6,0C183.4,289.4,185,282.4,180.2,281.2z"/>
		<path class="st19" d="M180.2,281.2c-6.7-1.7-13.5-2.6-20.3-2.8c-7.1-0.2-33.5,0-39.8,0c-7.6,0-15.3,0.9-22.7,2.8
			c-4.7,1.2-3.2,7.9,1,8c0.4,0,80.3,0,80.6,0C183.4,289.4,185,282.4,180.2,281.2z"/>
		<g>
			<path class="st13" d="M99.6,289c13.4-3.4,27.6-3.4,41.1,0c5.1,1.3,7.2-6.6,2.2-7.8c-14.8-3.8-30.6-3.8-45.4,0
				C92.3,282.5,94.5,290.3,99.6,289L99.6,289z"/>
		</g>
		<g class="st19">
			<path class="st18" d="M99.6,289c13.4-3.4,27.6-3.4,41.1,0c5.1,1.3,7.2-6.6,2.2-7.8c-14.8-3.8-30.6-3.8-45.4,0
				C92.3,282.5,94.5,290.3,99.6,289L99.6,289z"/>
		</g>
		<g>
			<rect x="113.3" y="249.6" class="st11" width="35.8" height="14.3"/>
			<rect x="113.3" y="249.6" class="st20" width="35.8" height="14.3"/>
		</g>
		<polygon class="st21" points="168.3,325.8 163.6,346.3 169.5,348.6 177.9,327.9 		"/>
		<path class="st11" d="M169.1,347.2l-5.3-2.8c-0.2-0.1-0.5-0.1-0.7,0.1l-3.8,4.4c-0.3,0.4-0.3,1,0.1,1.3c0,0,0.1,0.1,0.2,0.1
			c2.2,1.2,4.3,2.1,7,3.6c3.2,1.7,2.2,1.7,6,3.8c2.3,1.3,4.1-1.1,3.2-1.8c-4.2-3-4.7-5-5.6-7.5C170,347.9,169.6,347.5,169.1,347.2z"
			/>
		<g>
			<path class="st11" d="M120.9,262.2l28.7-1.6c0,0,47.7,7.5,47,20.8c-0.7,13.3-20.1,55.4-20.1,55.4l-11.4-3.2
				c0,0,8.7-42.3,14.3-49.3c0,0-35.6-4.2-44.5-6.6C130,276.5,118.2,278.7,120.9,262.2z"/>
			<path class="st20" d="M120.9,262.2l28.7-1.6c0,0,47.7,7.5,47,20.8c-0.7,13.3-20.1,55.4-20.1,55.4l-11.4-3.2
				c0,0,8.7-42.3,14.3-49.3c0,0-35.6-4.2-44.5-6.6C130,276.5,118.2,278.7,120.9,262.2z"/>
		</g>
		<path class="st16" d="M174.7,283.7c0.1-2.7-0.1-6.9-2.2-11.5c-2.7-6-24.5-9.6-34.9-11l-16.6,0.9c-2.7,16.5,9.1,14.3,14,15.6
			C141.8,279.6,164.6,282.5,174.7,283.7z"/>
		<polygon class="st21" points="148.8,331.4 148.1,352.5 154.4,352.8 158.6,331.7 		"/>
		<path class="st11" d="M153.9,350.9l-6.1,0.1c-0.3,0-0.5,0.2-0.5,0.5l-1.2,5.8c-0.1,0.5,0.2,1,0.7,1.1c0.1,0,0.1,0,0.2,0
			c2.6-0.1,4.8-0.3,8-0.3c3.8-0.1,2.8,0.4,7.2,0.4c2.7,0,3.1-3,2-3.2c-5.2-0.6-6.7-2.1-8.7-3.9C155,351,154.5,350.8,153.9,350.9z"/>
		<g>
			<polygon class="st11" points="164.3,331.1 178.6,335.1 176,340.6 162.9,337.4 			"/>
			<polygon class="st22" points="164.3,331.1 178.6,335.1 176,340.6 162.9,337.4 			"/>
		</g>
		<g>
			<path class="st11" d="M128.6,262.2c0,0,38.4,1.4,40.7,13.1c2.3,11.8-10.6,64.4-10.6,64.4h-11.5c0,0,1.4-47.3,5.2-57.2
				c0,0-31.7,5-40-2.2c-6-5.1,1.1-18.1,1.1-18.1L128.6,262.2z"/>
			<path class="st20" d="M128.6,262.2c0,0,38.4,1.4,40.7,13.1c2.3,11.8-10.6,64.4-10.6,64.4h-11.5c0,0,1.4-47.3,5.2-57.2
				c0,0-31.7,5-40-2.2c-6-5.1,1.1-18.1,1.1-18.1L128.6,262.2z"/>
		</g>
		<g>
			<polygon class="st11" points="146,336.8 160.5,337.5 159.1,343.2 146,342.6 			"/>
			<polygon class="st22" points="146,336.8 160.5,337.5 159.1,343.2 146,342.6 			"/>
		</g>
		<g>
			<path class="st21" d="M179.7,217.6l6.2-2.3l-5.3-5.1c0,0-5.4,2.4-4,5.1L179.7,217.6z"/>
			<polygon class="st21" points="189.9,210.2 183.9,207.3 180.6,210.2 185.8,215.3 			"/>
		</g>
		<g>
			<polygon class="st2" points="171.9,217.9 175.5,213.9 180.3,218 176.4,222.7 			"/>
			<polygon class="st23" points="171.9,217.9 175.5,213.9 180.3,218 176.4,222.7 			"/>
		</g>
		<path class="st11" d="M147.3,193.5c0,0,3.8,4.3,9.3,18.4c5.5,14.1,11.5,10,18.2,2.4l5.5,5c0,0-10.2,12.7-16.7,12.7
			c-7.2,0-14.1-11.1-15.5-18.9C146.6,205.4,147.3,193.5,147.3,193.5z"/>
		<path class="st24" d="M148.6,201.7l-2-1.7l-1,5.4c0.1,1.6,0.3,3.1,0.6,4.5c0.8,4.4,3.8,10.2,7,15.1
			C152,214.2,148.6,201.7,148.6,201.7z"/>
		<path class="st11" d="M109.7,235.5l0.6,29.3l21.6,0.7c2.8,0,3.5-1.9,4.1-4l1.1-3.8l0.9,3.5c0.6,2.1,3.5,2.5,5.7,2l9.4-2.3
			l-2.2-28.9c0,0,1.5-21.8-2-35.7c-0.6-2.7-3.1-4.5-5.7-5.1c-6-1.4-19-3.3-33.8,2.6c-1.4,0.5-2.2,1.9-2,3.4L109.7,235.5z"/>
		<g>
			<path class="st25" d="M136.5,223c0,0.5-0.4,0.9-0.9,0.9c-0.5,0-0.9-0.4-0.9-0.9s0.4-0.9,0.9-0.9
				C136.1,222.1,136.5,222.5,136.5,223z"/>
			<path class="st25" d="M137.4,235.5c0,0.5-0.4,0.9-0.9,0.9c-0.5,0-0.9-0.4-0.9-0.9s0.4-0.9,0.9-0.9
				C137,234.6,137.4,235,137.4,235.5z"/>
			<path class="st25" d="M137.7,247.7c0,0.5-0.4,0.9-0.9,0.9c-0.5,0-0.9-0.4-0.9-0.9c0-0.5,0.4-0.9,0.9-0.9
				C137.3,246.8,137.7,247.2,137.7,247.7z"/>
		</g>
		<path class="st11" d="M122.1,189.3c0,0,4.8-2.1,10.7-0.7l2.2,1.3l0.8,2.5l-2.8,2.2l-6.6,0.7l-5.5-2.3l0.3-2.4L122.1,189.3z"/>
		<path class="st21" d="M134.1,190.6c-2.2-0.6-3.7-4.4-1.9-6.8l-9.6-7.4c1.4,13.4,0.7,10.9-1.3,14.8c0,0,1.4,4.5,9.1,3.1
			C135.4,193.3,134.1,190.6,134.1,190.6z"/>
		<path class="st16" d="M132.2,183.7l-9.6-7.1c0.2,1.9,0.3,1.9,0.4,3.3c1,2.1,3.1,7.3,8.5,7.5C131.2,186.4,131.5,184.3,132.2,183.7z
			"/>
		<polygon class="st2" points="121.5,197.6 124.1,206.2 130.2,215 135.2,220.2 137.1,212.6 136.5,196.6 136.4,193.2 135,191.2 
			132.8,193.2 130.9,193.9 128.1,193.9 120.8,191.7 		"/>
		<polygon class="st26" points="121.5,197.6 124.1,206.2 130.2,215 135.2,220.2 137.1,212.6 136.5,196.6 136.4,193.2 135,191.2 
			132.8,193.2 130.9,193.9 128.1,193.9 120.8,191.7 		"/>
		<polygon class="st27" points="121.5,197.6 124.1,206.2 130.2,215 135.2,220.2 137.1,212.6 136.5,196.6 136.4,193.2 135,191.2 
			132.8,193.2 130.9,193.9 128.1,193.9 120.8,191.7 		"/>
		<path class="st9" d="M127.4,196.6c0,0,0.9,2,2.8,3.6c0,0-1.2,8.7,0.7,14.8l4.3,5.1l1.3-6.3c0,0-1.9-10.1-4.6-14
			c0,0,1.1-2.1,1.4-4.2l-1.6-1.3c0,0-2.2,1.5-3.5,0.5L127.4,196.6z"/>
		<path class="st28" d="M121.3,190.1c0,0,4,3.4,8.1,3.4c4,0,4.5-4.2,4.5-4.2l1.7,1.8c0,0,0.3,3-1.4,6.1l-4.2-2.8l-2.9,4.1
			c0,0-4.5-2.2-6.7-6L121.3,190.1z"/>
		<path class="st29" d="M121.3,190.1c0,0,4,3.4,8.1,3.4c4,0,4.5-4.2,4.5-4.2l1.7,1.8c0,0,0.3,3-1.4,6.1l-4.2-2.8l-2.9,4.1
			c0,0-4.5-2.2-6.7-6L121.3,190.1z"/>
		<g>
			<path class="st11" d="M122.1,189.3c0,0-3.3,10.2,12.9,29.6c0,0,2.9-23.8-2.2-30.3l3.6,1.4l3.7,5.6l-2.7,1.7l3.4,1.5
				c0,0-0.5,7.7-5.2,22.5c0,0-10.7-8.3-17.7-19.4l3.3-2.6l-4.3-0.7l1.9-7.7L122.1,189.3z"/>
			<path class="st19" d="M122.1,189.3c0,0-3.3,10.2,12.9,29.6c0,0,2.9-23.8-2.2-30.3l3.6,1.4l3.7,5.6l-2.7,1.7l3.4,1.5
				c0,0-0.5,7.7-5.2,22.5c0,0-10.7-8.3-17.7-19.4l3.3-2.6l-4.3-0.7l1.9-7.7L122.1,189.3z"/>
		</g>
		<path class="st24" d="M107.8,199.9l4.2,23.6l0.5-0.6c2.3-12.1-0.9-23.7-0.9-23.7l-1.3,0.7L107.8,199.9z"/>
		<g>
			<path class="st11" d="M134.8,158.2c0,0,4.6,8.5,1.1,13.7c-3.5,5.2-9.6-11.6-9.6-11.6L134.8,158.2z"/>
			<path class="st21" d="M138.8,176.7c0,0.3-0.1,0.7-0.1,1c-0.2,1.2-0.6,2.4-1.2,3.4c-0.6,1.1-1.5,2-2.4,2.7c-1.8,1.3-3.9,2-6.2,1.8
				c-1.5-0.1-3-0.6-4.4-1.6c-4-2.8-4.7-6.9-6.3-13.5c-0.4-1.4-0.4-2.9-0.1-4.4c1.1-5.1,6.1-8.3,11.2-7.2
				C136.5,160.5,139.2,170.4,138.8,176.7z"/>
			<path class="st11" d="M128.9,170.6c0.1,0.6,0.5,0.9,0.8,0.9c0.4-0.1,0.6-0.6,0.5-1.1c-0.1-0.5-0.5-0.9-0.8-0.9
				C129,169.5,128.8,170,128.9,170.6z"/>
			<path class="st11" d="M135.1,169.5c0.1,0.6,0.5,0.9,0.8,0.9c0.4-0.1,0.6-0.6,0.5-1.1c-0.1-0.5-0.5-0.9-0.8-0.9
				C135.2,168.4,135,169,135.1,169.5z"/>
			<path class="st30" d="M133.2,170.1c1,1.6,2.1,3,3.5,4.3c-0.7,0.7-1.6,1-2.6,1L133.2,170.1z"/>
			<path class="st11" d="M136.9,166.4c-0.1,0.1-0.2,0.1-0.3,0.1c-0.8-0.3-1.6-0.3-2.4,0.1c-0.1,0.1-0.4,0.1-0.5-0.1
				c-0.1-0.1-0.1-0.4,0.1-0.5c0,0,0,0,0,0c0.9-0.6,2-0.6,3-0.2c0.2,0.1,0.3,0.3,0.2,0.4c0,0,0,0,0,0
				C137,166.3,137,166.4,136.9,166.4z"/>
			<path class="st11" d="M127.2,168.3c-0.1,0-0.1,0-0.2,0c-0.1-0.1-0.2-0.3-0.1-0.5c0,0,0,0,0,0c0.7-0.8,1.7-1.3,2.7-1.2
				c0.2,0,0.3,0.2,0.3,0.4l0,0c0,0.2-0.2,0.3-0.4,0.3l0,0c-0.8,0-1.6,0.4-2.2,1C127.4,168.3,127.3,168.3,127.2,168.3z"/>
			<path class="st11" d="M121.7,161.2l1,2.9c-0.9,0.7-1.2,2-0.5,3c1.5,2.3,1,6.4-0.6,8.4c0,0-0.3-1.1-1.2-0.6
				c-0.9,0.5,0.7,6,3.1,8.3c0,0-3.2-1.8-6.1-7.4c-2.6-5.1-3.8-9.6-3.2-12L121.7,161.2z"/>
			<path class="st21" d="M116.3,176.6c1,1.4,2.6,2.3,4.3,2.6c2.3,0.3,3.1-1.8,2.3-3.8c-0.8-1.8-2.9-4.1-5.1-3.5
				C115.6,172.5,115,174.8,116.3,176.6z"/>
			<path class="st11" d="M114.2,165.3c0,0-1.6-3.7,3.9-8.1c5.5-4.4,12.9-2.3,16.4-5.8c3.5-3.5,6,7.2-2.5,10.3
				C123.5,164.8,114.2,165.3,114.2,165.3z"/>
			<g>
				<path class="st11" d="M133.9,177.3c-0.7,0.8-1.7,2.5-1.7,2.5c-0.2-0.1-0.3-0.1-0.5-0.2c-2.2-0.9-2.9-2-3.1-3
					c-0.1-0.5,0-1,0.2-1.4c0.2-0.5,0.4-0.7,0.4-0.7c0.9,1.2,2.9,2.1,4,2.6C133.7,177.2,133.9,177.3,133.9,177.3z"/>
				<path class="st18" d="M133.2,177l-0.5,0.7c-2.1-0.8-3.4-1.7-3.8-2.6c0.2-0.5,0.4-0.7,0.4-0.7C130.1,175.6,132.1,176.5,133.2,177
					z"/>
				<path class="st30" d="M131.8,179.6c-2.2-0.9-2.9-2-3.1-3c0.7,0.3,1.6,0.8,2.3,1.5C131.5,178.5,131.7,179.1,131.8,179.6z"/>
			</g>
		</g>
		<g>
			<g>
				<path class="st11" d="M95,226c1,2.2,2.8,2.5,4.7,1.5c1.5-0.7,3-2.2,4.1-3.9c0.8-1.2,2-3,3.1-4.9c2.5-4.2,5.1-8.8,5.1-8.8
					c1.6-2.2,2.6-4.7,1.7-8.3c-1.5-4.4-3.3-7-5.2-7.2C103.6,196.8,93.1,222,95,226z"/>
				<path class="st31" d="M99.7,227.6c1.5-0.7,3-2.2,4.1-3.9c0.8-1.2,2-3,3.1-4.9c-1.4-2.6-2.9-4.7-2.9-4.7l-2.5,7.1
					c0,0-4.4,1-5.1,3.3C96.1,225.4,97.6,226.6,99.7,227.6z"/>
			</g>
			<g>
				<path class="st11" d="M99.8,207.3l8.3,31.8c0.2,0.7,1,1.3,1.7,1.2l22.1-2.9c0.8-0.1,1.2-0.8,1-1.5l-8.3-31.8
					c-0.2-0.7-1-1.3-1.7-1.2l-22.1,2.9C100.1,205.9,99.6,206.6,99.8,207.3z"/>
				<path class="st32" d="M99.8,207.3l8.3,31.8c0.2,0.7,1,1.3,1.7,1.2l21.1-2.8c0.8-0.1,1.2-0.8,1-1.5l-8.3-31.8
					c-0.2-0.7-1-1.3-1.7-1.2l-21.1,2.8C100.1,205.9,99.6,206.6,99.8,207.3z"/>
				<path class="st15" d="M115.2,219.5c1.1-0.1,2.2,0.6,2.5,1.7c0.3,1.1-0.4,2.1-1.5,2.2c-1.1,0.1-2.2-0.6-2.5-1.7
					C114.8,221.5,115.5,220.5,115.2,219.5z"/>
			</g>
			<g>
				<path class="st11" d="M98,233.5c1.5,0.8,4.9-0.4,5.9-0.8c0.2-0.1,0.3-0.1,0.3-0.1s1.8-6-2.9-9.2c0,0-0.1-0.1-0.1-0.1
					c-1.5-0.8-6.2,0.2-6.4,1.8C94.2,231.5,96.3,232.6,98,233.5z"/>
				<path class="st31" d="M100.9,228.4c0.6,2.2,1.8,3.5,3,4.3c0.2-0.1,0.3-0.1,0.3-0.1s1.8-6-2.9-9.2c0,0-0.1-0.1-0.1-0.1
					C100.8,223.8,100.1,225.3,100.9,228.4z"/>
			</g>
			<path class="st21" d="M107.8,220.8c0,0-3.1-0.1-4.5,0c-1.4,0.1-1,4.7-1,4.7l-1.2,0.7c0,0-1,2.7,1.1,4l1.1-0.4
				c0,0,0.3,1.1,1.2,1.6c0.9,0.5,5.2-0.7,5.2-0.7L107.8,220.8z"/>
		</g>
		<path class="st33" d="M187.5,240.3c0.6,0,1-0.5,1-1c0-0.6-0.5-1-1-1h-27.9c-0.6,0-1,0.5-1,1c0,0.6,0.5,1,1,1H187.5z"/>
		<path class="st27" d="M187.5,240.4c0.6,0,1-0.5,1-1c0-0.6-0.5-1-1-1h-27.9c-0.6,0-1,0.5-1,1c0,0.6,0.5,1,1,1H187.5z"/>
		<path class="st28" d="M185.2,238.5l3.7-26.4c0.1-1,1-1.8,2-1.8h3.6v29.9h-7.8C185.7,240.3,185,239.5,185.2,238.5z"/>
		<path class="st34" d="M195.2,238.5l3.7-26.4c0.1-1,1-1.8,2-1.8h3.6v29.9h-7.8C195.7,240.3,195,239.5,195.2,238.5z"/>
		<g>
			<path class="st35" d="M188.2,240.3h31.5c1,0,1.9-0.8,2-1.8l3.7-26.4c0.1-1-0.5-1.8-1.5-1.8h-31.5c-1,0-1.9,0.8-2,1.8l-3.7,26.4
				C186.6,239.5,187.2,240.3,188.2,240.3z"/>
		</g>
		<path class="st27" d="M188.2,240.4h31.5c1,0,1.9-0.8,2-1.8l3.7-26.4c0.1-1-0.5-1.8-1.5-1.8h-31.5c-1,0-1.9,0.8-2,1.8l-3.7,26.4
			C186.6,239.6,187.2,240.4,188.2,240.4z"/>
		<path class="st36" d="M203.5,226.7c-0.2,1.5,0.8,2.7,2.3,2.7c1.5,0,2.9-1.2,3.1-2.7c0.2-1.5-0.8-2.7-2.3-2.7
			C205.1,224,203.7,225.2,203.5,226.7z"/>
		<g>
			<g>
				<g>
					<g>
						<polygon class="st11" points="91.2,359 93.8,359 97.2,246.8 93.7,246.8 						"/>
						<polygon class="st37" points="91.2,359 93.8,359 97.2,246.8 93.7,246.8 						"/>
					</g>
					<g>
						<polygon class="st11" points="133.4,246.8 133.4,359 130.6,359 127.3,251.9 94,251.9 91.5,359 88.8,359 88.8,246.8 						"/>
						<polygon class="st32" points="133.4,246.8 133.4,359 130.6,359 127.3,251.9 94,251.9 91.5,359 88.8,359 88.8,246.8 						"/>
					</g>
					<g>
						<polygon class="st11" points="133.4,359 136,359 136.8,246.8 133.4,246.8 						"/>
						<polygon class="st37" points="133.4,359 136,359 136.8,246.8 133.4,246.8 						"/>
					</g>
				</g>
				<g>
					<g>
						<polygon class="st11" points="233.1,359 235.7,359 239.1,246.8 235.6,246.8 						"/>
						<polygon class="st37" points="233.1,359 235.7,359 239.1,246.8 235.6,246.8 						"/>
					</g>
					<g>
						<polygon class="st11" points="275.3,246.8 275.3,359 272.5,359 269.2,251.9 235.8,251.9 233.4,359 230.7,359 230.7,246.8 
													"/>
						<polygon class="st32" points="275.3,246.8 275.3,359 272.5,359 269.2,251.9 235.8,251.9 233.4,359 230.7,359 230.7,246.8 
													"/>
					</g>
					<g>
						<polygon class="st11" points="275.3,359 277.9,359 278.7,246.8 275.3,246.8 						"/>
						<polygon class="st37" points="275.3,359 277.9,359 278.7,246.8 275.3,246.8 						"/>
					</g>
				</g>
			</g>
			<g>
				<g>
					
						<rect x="135.5" y="240.4" transform="matrix(-1 -1.224647e-16 1.224647e-16 -1 418.8022 487.198)" class="st11" width="147.8" height="6.4"/>
				</g>
				
					<rect x="135.5" y="240.4" transform="matrix(-1 -1.224647e-16 1.224647e-16 -1 418.8022 487.198)" class="st27" width="147.8" height="6.4"/>
				<g>
					
						<rect x="84.2" y="240.4" transform="matrix(-1 -1.224647e-16 1.224647e-16 -1 223.7304 487.198)" class="st11" width="55.3" height="6.4"/>
				</g>
				
					<rect x="84.2" y="240.4" transform="matrix(-1 -1.224647e-16 1.224647e-16 -1 223.7304 487.198)" class="st15" width="55.3" height="6.4"/>
			</g>
		</g>
		<g>
			<g>
				<path class="st38" d="M254.8,203.3l2.5-4.6l3.4,4.8c0,0-2.5,4-4.5,2.6L254.8,203.3z"/>
				<polygon class="st38" points="261.9,196.1 263.4,201.2 260.8,203.4 257.4,198.7 				"/>
			</g>
			<path class="st16" d="M258.6,198c0.4,2.1,1.1,3.9,2.2,5.5l0.6-0.5l-1.8-5.6L258.6,198z"/>
			<polygon class="st38" points="254.2,212.3 254.8,203.3 258.2,204 258.2,213 			"/>
		</g>
		<polygon class="st38" points="210.7,321.1 215.9,323.1 219.6,316.1 222.9,309.7 217.2,306.3 213.8,314.1 		"/>
		<polygon class="st31" points="213.8,314.1 219.6,316.1 222.9,309.7 217.2,306.3 		"/>
		<g>
			<path class="st11" d="M214.8,310.3l7,3.8c0,0,26.5-46.7,30.6-46.3c4.1,0.4,42.8,25.1,54.6,16c11.8-9.1,0.3-36.6,0.3-36.6
				s-24.4-7-27.1-1.6c-0.5,1-1.2,3.1-1.7,4.9c-0.5,1.7-0.9,3.1-0.9,3.1s0,0,0,0c-0.7-0.3-24.9-10.2-35.6-4.9
				C231.1,254.1,214.8,310.3,214.8,310.3z"/>
			<path class="st12" d="M214.8,310.3l7,3.8c0,0,26.5-46.7,30.6-46.3c4.1,0.4,42.8,25.1,54.6,16c11.8-9.1,0.3-36.6,0.3-36.6
				s-24.4-7-27.1-1.6c-0.5,1-1.2,3.1-1.7,4.9c-0.5,1.7-0.9,3.1-0.9,3.1s0,0,0,0c-0.7-0.3-24.9-10.2-35.6-4.9
				C231.1,254.1,214.8,310.3,214.8,310.3z"/>
		</g>
		<polygon class="st38" points="253,348.4 258.5,347.7 258.5,340 258.5,332.8 251.9,332.5 252.5,340.9 		"/>
		<polygon class="st31" points="252.5,341.1 258.6,340.1 258.6,332.9 251.9,332.5 		"/>
		<polygon class="st11" points="225.3,311.8 215,306.6 214,311 221.7,315 		"/>
		<g>
			<path class="st11" d="M288.9,283.8c0,0-1.7-0.2-27.7-5c0,0-0.6,33.2-1.8,58l-8,0.3c0,0-11.5-54.9-10.1-63.2
				c1.3-8.3,11.2-9.4,11.2-9.4S269.6,277.7,288.9,283.8z"/>
			<path class="st39" d="M288.9,283.8c0,0-1.7-0.2-27.7-5c0,0-0.6,33.2-1.8,58l-8,0.3c0,0-11.5-54.9-10.1-63.2
				c1.3-8.3,11.2-9.4,11.2-9.4S269.6,277.7,288.9,283.8z"/>
			<path class="st40" d="M288.9,283.8c0,0-1.7-0.2-27.7-5c0,0-0.6,33.2-1.8,58l-8,0.3c0,0-11.5-54.9-10.1-63.2
				c1.3-8.3,11.2-9.4,11.2-9.4S269.6,277.7,288.9,283.8z"/>
		</g>
		<polygon class="st11" points="260.9,334.6 249.9,334.3 251.4,338.8 260.3,338.9 		"/>
		<path class="st11" d="M200.4,330.2c0.9-0.3,1.8-0.4,2.7-0.3c0,0,3.3-1.4,7.4-8c0,0,3.4,0.5,3.4,0.5c1.7,0.2,3.9,2.2,3.6,3.7
			c-0.8,3.3-3.5,6.2-4.9,9.2l-0.6-0.2l1.8-5c0.6-1.7-1.5-0.3-2.6,1.4c-1.1,1.6-2.6,3.2-6.3,1.8C200.6,331.7,198.9,330.8,200.4,330.2
			z"/>
		<path class="st38" d="M211.3,320.1c0,0-5.5,8.4-8.2,9.8c0,0,3,2.4,7.1-1.5c5.2-5.1,6.1-4.8,6.1-4.8s0.1-0.5-0.2-1.5
			C215.8,320.2,211.3,320.1,211.3,320.1z"/>
		<path class="st11" d="M244.8,358.1c0.8-0.5,1.6-0.8,2.5-0.9c0,0,2.9-2.1,5.2-9.5c0,0,3.4-0.4,3.4-0.4c2.8-0.3,4.5,1.4,4.4,3.4
			c0,2.6-2.6,9.5-2.6,9.5l-0.6-0.1l0.5-5.3c0.2-1.8-1.5,0.1-2.2,1.9c-0.7,1.9-1.8,3.8-5.7,3.3C245.3,359.5,243.4,359.1,244.8,358.1z
			"/>
		<path class="st38" d="M253,345.7c0,0-3.4,9.5-5.7,11.5c0,0,3.5,1.6,6.5-3.1c3.9-6.2,5.4-6,5.4-6s-0.7-0.7-1.1-1.6
			C257.3,344.8,253,345.7,253,345.7z"/>
		<g>
			<path class="st11" d="M262.1,189.3c-0.1,0-0.2,0-0.2-0.1c-0.8-1.2-2.6-1.2-2.6-1.2c0,0,0,0,0,0c-0.1,0-0.2-0.1-0.2-0.2
				c0-0.1,0.1-0.3,0.2-0.3c0.1,0,2.1,0,3,1.4c0.1,0.1,0,0.3-0.1,0.3C262.2,189.3,262.1,189.3,262.1,189.3z"/>
			<path class="st41" d="M260.1,192.3c0,0-1.1,1.6-2.2,2.6c0,0,0.5,1,1.7,0.9L260.1,192.3z"/>
			<g>
				<path class="st11" d="M259.1,190.4c-0.1,0.5,0.2,1,0.5,1.1c0.4,0,0.7-0.4,0.8-0.9c0.1-0.5-0.2-1-0.5-1.1
					C259.6,189.4,259.2,189.8,259.1,190.4z"/>
				<path class="st11" d="M260.1,189.5l-1.1-0.6C258.9,188.9,259.4,190,260.1,189.5z"/>
			</g>
			<path class="st38" d="M273.4,203.5c-0.1,0.1-0.1,0.1-0.2,0.1c-1.1,0.7-2.3,1.3-3.6,1.5c-3.8,0.7-6.3,0-7.8-1.7c0,0,0,0,0,0
				c-2.2-2.6-2.6-7.1-2-12.5c0.3-2.5,0.7-4.6,1.5-6.2c0,0,0-0.1,0-0.1c0-0.1,0.1-0.2,0.1-0.2c1.1-2.3,2.9-3.7,5.6-4.2
				c0.9-0.2,2-0.2,3.2-0.2C280.7,180.4,281.7,197.9,273.4,203.5z"/>
			<path class="st31" d="M273.1,203.6c-1.1,0.7-2.2,1.2-3.6,1.4c-3.8,0.7-6.3-0.1-7.8-1.9c1.8,0.5,4.2,0.8,6.7-0.2
				C269.9,202.3,271.6,202.8,273.1,203.6z"/>
			<path class="st11" d="M261.2,184.7c0,0-0.9,7.3,5.9,10.8c0,0,2.6,7.8,7,8.1c6,0.4,11.7-7.9,10.1-16.7
				C282,175.5,265,173.8,261.2,184.7z"/>
			<path class="st38" d="M263.7,193.2c0.1-1.1,1.1-3,2.8-2.7c1.8,0.4,2.6,5-2,5.8C263.9,196.4,263.5,195.6,263.7,193.2z"/>
			<path class="st11" d="M274.4,177.5c0,0-6.9-2.1-11,0.5c-4.7,3.1-6.6,6.4-1.5,12c0,0,12-3.2,15.9-2.2s6.6,2.3,6.6,2.3
				C285.7,182.2,278.4,176.1,274.4,177.5z"/>
			<path class="st38" d="M267.8,204.5c0,0,5.2,2.5,3.7,8l13.1-5.5c0,0-7.2-0.5-6.8-5.5C277.8,201.5,270.3,198.7,267.8,204.5z"/>
			<path class="st11" d="M281.9,187c0,0,2.6-7.5,8.5-6.2c5.9,1.3,5.4,7.6,1.2,9.6C287.4,192.4,281.5,191.6,281.9,187z"/>
			<path class="st11" d="M288.9,190.7c0,0,5.2,0,4.6,4.4c0,0-0.4-1.4-1.6-2c0,0,1.6,1.2,0,3.3c0,0,0.6-1.4-1.5-2.3
				c-2.2-1-8.1-0.9-7-3.8C284.5,187.3,288.9,190.7,288.9,190.7z"/>
		</g>
		<path class="st11" d="M283.7,206.7l-3.2-2.3c0,0-10.5,1.4-10.6,8.1C269.7,219.2,283.7,206.7,283.7,206.7z"/>
		<path class="st31" d="M277.7,253.6l10,5c0,0-3.3-5.6-9.1-8.1C278.1,252.2,277.7,253.6,277.7,253.6z"/>
		<g>
			<g>
				<path class="st11" d="M285.6,206.7c0,0-7.9-1.5-18.9,5.8c0,0-3.7,16.1,11.9,38l29.5-1.8C308.1,248.6,300.1,216.4,285.6,206.7z"
					/>
				<path class="st42" d="M267.6,227.3c0.5,2.1,1.2,4.3,2.1,6.7c1.8,4.9,4.7,10.4,8.9,16.4l29.5-1.9c0,0-8-32.2-22.5-42
					c0,0-7.9-1.5-18.9,5.8C266.7,212.5,265.4,218.2,267.6,227.3z"/>
			</g>
			<path class="st31" d="M267.6,227.3c0.5,2.1,1.2,4.3,2.1,6.7c0.3-3.5,1.5-8.6,1.5-8.6C270.4,225.5,268.2,227,267.6,227.3z"/>
		</g>
		<g>
			<g>
				<path class="st11" d="M275.1,218.2c-5.2,9.4-10.7,18.7-16.4,27.8c-2.5,4-8.7,2-8.4-2.7c0.4-6,0.9-12.1,1.4-18.1
					c0.5-6,1.1-12.1,1.9-18.1c0.4-3,4.7-2.8,5,0.2c0.7,12.1,0.9,24.2,0.9,36.3c0,0-8.5-2.4-8.5-2.4c3.7-7.1,7.5-14.1,11.5-21.1
					c1.3-2.3,2.6-4.6,4-6.9C269.8,207.8,278,212.4,275.1,218.2L275.1,218.2z"/>
				<path class="st43" d="M275.1,218.2c-5.2,9.4-10.7,18.7-16.4,27.8c-2.5,4-8.7,2-8.4-2.7c0.4-6,0.9-12.1,1.4-18.1
					c0.5-6,1.1-12.1,1.9-18.1c0.4-3,4.7-2.8,5,0.2c0.7,12.1,0.9,24.2,0.9,36.3c0,0-8.5-2.4-8.5-2.4c3.7-7.1,7.5-14.1,11.5-21.1
					c1.3-2.3,2.6-4.6,4-6.9C269.8,207.8,278,212.4,275.1,218.2L275.1,218.2z"/>
			</g>
			<polygon class="st16" points="259.4,225.2 256.9,229.7 259.2,219.5 			"/>
		</g>
		<g>
			<path class="st11" d="M329,359.5l-25.2-9.3l-25.5,9.3c-0.9,0.3-1.8-0.3-1.8-1.3l0,0c0-0.5,0.3-1,0.8-1.2l26.5-12.3L330,357
				c0.5,0.2,0.8,0.7,0.8,1.2l0,0C330.8,359.1,329.9,359.8,329,359.5z"/>
			<path class="st15" d="M329,359.5l-25.2-9.3l-25.5,9.3c-0.9,0.3-1.8-0.3-1.8-1.3l0,0c0-0.5,0.3-1,0.8-1.2l26.5-12.3L330,357
				c0.5,0.2,0.8,0.7,0.8,1.2l0,0C330.8,359.1,329.9,359.8,329,359.5z"/>
			<polygon class="st16" points="297.9,352.3 303.8,350.2 309.5,352.3 309.5,347.3 303.8,344.7 297.9,347.4 			"/>
			<path class="st11" d="M303.7,359.7L303.7,359.7c-1.2,0-2.1-0.9-2.2-2l-0.7-7.5v-62h5.9v62l-0.7,7.5
				C305.8,358.8,304.8,359.7,303.7,359.7z"/>
			<path class="st15" d="M303.7,359.7L303.7,359.7c-1.2,0-2.1-0.9-2.2-2l-0.7-7.5v-62h5.9v62l-0.7,7.5
				C305.8,358.8,304.8,359.7,303.7,359.7z"/>
			<rect x="300.7" y="288.2" class="st16" width="5.9" height="7.2"/>
		</g>
		<path class="st9" d="M344.6,282.5c-6.7-1.7-13.5-2.6-20.3-2.8c-7.1-0.2-33.5,0-39.8,0c-7.6,0-15.3,0.9-22.7,2.8
			c-4.7,1.2-3.2,7.9,1,8c0.4,0,80.3,0,80.6,0C347.7,290.7,349.3,283.7,344.6,282.5z"/>
		<path class="st19" d="M344.6,282.5c-6.7-1.7-13.5-2.6-20.3-2.8c-7.1-0.2-33.5,0-39.8,0c-7.6,0-15.3,0.9-22.7,2.8
			c-4.7,1.2-3.2,7.9,1,8c0.4,0,80.3,0,80.6,0C347.7,290.7,349.3,283.7,344.6,282.5z"/>
		<g>
			<path class="st13" d="M263.9,290.4c13.4-3.4,27.6-3.4,41.1,0c5.1,1.3,7.2-6.6,2.2-7.8c-14.8-3.8-30.6-3.8-45.4,0
				C256.7,283.8,258.8,291.7,263.9,290.4L263.9,290.4z"/>
		</g>
		<g class="st19">
			<path class="st18" d="M263.9,290.4c13.4-3.4,27.6-3.4,41.1,0c5.1,1.3,7.2-6.6,2.2-7.8c-14.8-3.8-30.6-3.8-45.4,0
				C256.7,283.8,258.8,291.7,263.9,290.4L263.9,290.4z"/>
		</g>
		<path class="st9" d="M323.2,224.3c-0.8,0-1.7,0.4-2.2,1.3c-10.8,17.9-14.6,39.4-10.9,60c0.2,1.3,1.1,1.9,2.1,2
			c1.6,0.1,30.6,0,31.7,0c1.6,0,3.3-1.3,2.9-3.4c-3.5-19.1,0.3-39.2,10.3-55.8c1.2-2.1-0.6-4-2.4-4
			C353.8,224.2,325,224.3,323.2,224.3z"/>
		<path class="st16" d="M323.2,224.3c-0.8,0-1.7,0.4-2.2,1.3c-10.8,17.9-14.6,39.4-10.9,60c0.2,1.3,1.1,1.9,2.1,2
			c1.6,0.1,30.6,0,31.7,0c1.6,0,3.3-1.3,2.9-3.4c-3.5-19.1,0.3-39.2,10.3-55.8c1.2-2.1-0.6-4-2.4-4
			C353.8,224.2,325,224.3,323.2,224.3z"/>
		<g>
			<path class="st13" d="M315.3,284.1c-3.5-19.1,0.3-39.2,10.3-55.8c1.8-3-2.9-5.7-4.7-2.7c-10.8,17.9-14.6,39.4-10.9,60
				C310.7,289,315.9,287.5,315.3,284.1L315.3,284.1z"/>
		</g>
		<g class="st16">
			<path class="st18" d="M315.3,284.1c-3.5-19.1,0.3-39.2,10.3-55.8c1.8-3-2.9-5.7-4.7-2.7c-10.8,17.9-14.6,39.4-10.9,60
				C310.7,289,315.9,287.5,315.3,284.1L315.3,284.1z"/>
		</g>
	</g>
</g>
<g id="Chart_4">
</g>
<g id="Chart_3">
</g>
<g id="Chart_2">
</g>
<g id="Chart_1">
</g>
</svg>
